<svg xmlns="http://www.w3.org/2000/svg" width="43" height="42" viewBox="0 0 43 42" fill="none"><path d="M5.72754 0.487305C5.75758 0.488938 5.78723 0.500457 5.81934 0.518555C5.85207 0.537025 5.88379 0.560645 5.91992 0.586914C5.9545 0.612055 5.99334 0.638432 6.03516 0.658203V0.65918C7.25611 1.24374 8.09751 2.13481 8.57324 3.39355L8.66309 3.65039C8.93695 4.49067 9.39141 5.27812 9.78125 6.13574L9.81445 6.20801L9.86523 6.14746C10.4481 5.44908 11.0014 4.81209 11.5186 4.15527L11.5195 4.15625C11.668 3.96884 11.8101 3.8665 11.957 3.84082C12.0665 3.82172 12.1862 3.84381 12.3223 3.91504L12.4648 4.00293C12.7112 4.17769 12.9635 4.34376 13.2158 4.50781C13.4683 4.67197 13.7205 4.83442 13.9678 5.00391C14.2109 5.17058 14.3383 5.33563 14.3691 5.51367C14.3923 5.6476 14.3628 5.79743 14.2725 5.97168L14.1611 6.1543L12.1016 9.17969C12.0722 9.22208 12.0435 9.26416 12.0215 9.30469C11.9995 9.34524 11.9825 9.38812 11.9785 9.43359C11.9722 9.50646 12.0004 9.57371 12.0645 9.64062L12.1406 9.70801C13.4382 10.7006 14.6922 11.7691 16.0762 12.6611L16.6777 13.0312C16.8264 13.1182 16.9499 13.1619 17.0723 13.1475C17.1637 13.1366 17.2488 13.0947 17.3379 13.0264L17.4287 12.9492C18.7376 11.7537 20.0477 10.5598 21.3594 9.36816L25.2988 5.79883C25.4466 5.66456 25.555 5.56615 25.6455 5.49902C25.7357 5.43214 25.8032 5.40075 25.8682 5.39453C25.9328 5.38846 26.0035 5.40607 26.1025 5.45508C26.1525 5.47982 26.2083 5.51179 26.2725 5.55078L26.4922 5.68945C26.8017 5.88754 27.1118 6.08997 27.4229 6.29102L28.3594 6.88379V6.88477C28.5129 6.97897 28.5961 7.06027 28.6211 7.14844C28.6393 7.21288 28.6293 7.29117 28.5752 7.39453L28.5059 7.50684C28.3696 7.70176 28.266 7.85188 28.1992 7.97656C28.1322 8.1016 28.0982 8.20778 28.1094 8.31445C28.1206 8.42092 28.1759 8.51896 28.2656 8.62891C28.3104 8.68373 28.3652 8.74309 28.4297 8.80957L28.6523 9.0332C29.1013 9.4825 29.2308 10.2197 29.0928 10.916C28.9633 11.5688 28.6016 12.1711 28.0693 12.4551L27.9609 12.5078L27.959 12.5088C27.8343 12.569 27.6959 12.5968 27.5576 12.5898C27.454 12.5846 27.3527 12.5592 27.2588 12.5166L27.167 12.4688C26.9027 12.307 26.6378 12.1498 26.3799 11.9824L26.124 11.8105C26.0731 11.7744 26.0285 11.7356 25.9775 11.6963C25.9295 11.6593 25.8773 11.6233 25.8213 11.6055C25.7623 11.5867 25.6997 11.5883 25.6357 11.624C25.6051 11.6411 25.5747 11.6651 25.5449 11.6973L25.4561 11.8184C25.4347 11.8528 25.4113 11.8865 25.3887 11.9199C25.3663 11.9528 25.344 11.9861 25.3232 12.0186C25.2819 12.0834 25.2441 12.1514 25.2285 12.2217C25.2125 12.2942 25.2203 12.3686 25.2646 12.4434C25.297 12.4977 25.3479 12.5506 25.4199 12.6035L25.5 12.6572C25.6372 12.7411 25.7533 12.8618 25.875 12.9883C25.965 13.0818 26.0581 13.1787 26.1621 13.2607L26.2705 13.3369C26.8721 13.7113 26.971 14.5299 26.7578 15.335C26.6519 15.7348 26.4697 16.1246 26.2412 16.4434C26.0409 16.7228 25.8067 16.9449 25.5586 17.0723L25.4521 17.1211H25.4512C25.3319 17.1702 25.2026 17.1898 25.0742 17.1777C24.978 17.1687 24.8842 17.1429 24.7979 17.1006L24.7139 17.0527L24.7119 17.0508L24.2773 16.7969C23.9184 16.582 23.5704 16.3555 23.2539 16.084L23.0684 15.915C22.9594 15.8102 22.8575 15.7545 22.7578 15.7754C22.6849 15.7908 22.6262 15.8446 22.5752 15.9199L22.5264 16.001C22.5033 16.0423 22.4692 16.0832 22.4316 16.1289C22.396 16.1723 22.3568 16.2215 22.334 16.2734C22.31 16.3283 22.3029 16.3908 22.3359 16.4551C22.3593 16.5005 22.4009 16.5433 22.4619 16.585L22.5293 16.627C22.9688 16.8715 23.4108 17.1113 23.8379 17.3721L24.2588 17.6406C29.5321 21.1504 35.1422 24.1006 40.5889 27.3115L41.6758 27.957C41.9518 28.1226 42.1562 28.3017 42.2881 28.5186C42.3865 28.6805 42.4463 28.8662 42.4639 29.0879L42.4668 29.3232C42.4365 30.022 42.4364 30.7206 42.4541 31.4189L42.4775 32.1172C42.4922 32.4372 42.4375 32.6951 42.3145 32.9102C42.2221 33.0715 42.09 33.2121 41.9141 33.3379L41.7227 33.459C40.0903 34.3931 38.4599 35.3302 36.8311 36.2695L31.9482 39.0957C31.4207 39.4003 30.8911 39.7023 30.3623 40.0059L28.7793 40.9248C28.1897 41.2727 27.6094 41.4388 27.0303 41.4336C26.5233 41.429 26.0147 41.2932 25.499 41.0283L25.2773 40.9072C22.5315 39.3085 19.7842 37.712 17.0361 36.1172L8.78906 31.3379C8.04675 30.9071 7.30493 30.4747 6.5625 30.043L4.33008 28.7549C4.05252 28.5968 3.84557 28.417 3.71387 28.1973C3.59892 28.0055 3.53905 27.7796 3.54395 27.5039L3.55078 27.3828C3.57421 27.09 3.57412 26.7954 3.56934 26.502L3.55859 25.623V25.6221C3.55859 25.5676 3.55773 25.5136 3.55176 25.4658C3.5458 25.4184 3.53464 25.3714 3.50879 25.333C3.48152 25.2925 3.4407 25.2654 3.38672 25.2539C3.36096 25.2485 3.33237 25.2464 3.30078 25.248L3.19531 25.2637C3.1318 25.278 3.07176 25.2611 3.00781 25.2275C2.97564 25.2106 2.94343 25.1899 2.91016 25.168L2.80859 25.1035L0.311523 23.6572C0.278691 23.6384 0.239315 23.6186 0.208008 23.6016C0.174563 23.5833 0.144913 23.5645 0.120117 23.5439C0.0956352 23.5237 0.0771409 23.5017 0.0654297 23.4766C0.0539472 23.4517 0.0471083 23.4207 0.0507812 23.3799C0.0544814 23.339 0.0663681 23.3097 0.0820312 23.2871C0.0979907 23.2641 0.119864 23.2452 0.147461 23.2285C0.175411 23.2116 0.207443 23.1975 0.243164 23.1826L0.353516 23.1338L9.69434 18.2119C9.84592 18.1309 9.99538 18.044 10.2021 17.9268L10.2607 17.8936L10.2119 17.8467C8.77797 16.472 7.6276 14.831 6.8252 13.0166L6.66992 12.6514C6.61464 12.5165 6.5399 12.4434 6.44336 12.4199C6.39817 12.409 6.35073 12.4099 6.30273 12.417L6.1582 12.4521L4.53125 12.9375L4.5293 12.9385C4.39265 12.9884 4.24457 13.0004 4.10156 12.9736C3.95893 12.9469 3.826 12.8827 3.7168 12.7871L3.68359 12.8242L3.7168 12.7861L3.71484 12.7852L3.33496 12.4951C3.20688 12.3998 3.07774 12.3056 2.94824 12.2119L2.17676 11.6475L1.99121 11.4932C1.93964 11.4439 1.8979 11.3966 1.86621 11.3516C1.80323 11.2619 1.78186 11.1832 1.79102 11.1133C1.80032 11.0432 1.84196 10.9716 1.92676 10.8975C1.96934 10.8602 2.02206 10.8231 2.08496 10.7861L2.30566 10.6748C2.97744 10.3793 3.64635 10.0782 4.32129 9.79199L4.99805 9.51172C5.20041 9.42993 5.35605 9.33557 5.45215 9.19531C5.52475 9.08921 5.56062 8.96145 5.5625 8.80273L5.55273 8.63281C5.47525 7.95113 5.57272 7.29968 6.04688 6.7793L6.14648 6.67773C6.24561 6.58389 6.27275 6.48156 6.27148 6.38086C6.27085 6.33191 6.26398 6.28289 6.25586 6.2373L6.23242 6.10547L5.56445 0.938477C5.55925 0.896949 5.54896 0.851884 5.54102 0.811523C5.53277 0.769617 5.5259 0.730203 5.52539 0.693359C5.52491 0.656939 5.5311 0.624668 5.54492 0.59668C5.55858 0.569264 5.58197 0.542048 5.62305 0.517578C5.66418 0.493103 5.69822 0.485739 5.72754 0.487305Z" fill="#F7F7F7" stroke="black" stroke-width="0.1"></path><path d="M5.72754 0.487305C5.75758 0.488938 5.78723 0.500457 5.81934 0.518555C5.85207 0.537025 5.88379 0.560645 5.91992 0.586914C5.9545 0.612055 5.99334 0.638432 6.03516 0.658203V0.65918C7.25611 1.24374 8.09751 2.13481 8.57324 3.39355L8.66309 3.65039C8.93695 4.49067 9.39141 5.27812 9.78125 6.13574L9.81445 6.20801L9.86523 6.14746C10.4481 5.44908 11.0014 4.81209 11.5186 4.15527L11.5195 4.15625C11.668 3.96884 11.8101 3.8665 11.957 3.84082C12.0665 3.82172 12.1862 3.84381 12.3223 3.91504L12.4648 4.00293C12.7112 4.17769 12.9635 4.34376 13.2158 4.50781C13.4683 4.67197 13.7205 4.83442 13.9678 5.00391C14.2109 5.17058 14.3383 5.33563 14.3691 5.51367C14.3923 5.6476 14.3628 5.79743 14.2725 5.97168L14.1611 6.1543L12.1016 9.17969C12.0722 9.22208 12.0435 9.26416 12.0215 9.30469C11.9995 9.34524 11.9825 9.38812 11.9785 9.43359C11.9722 9.50646 12.0004 9.57371 12.0645 9.64062L12.1406 9.70801C13.4382 10.7006 14.6922 11.7691 16.0762 12.6611L16.6777 13.0312C16.8264 13.1182 16.9499 13.1619 17.0723 13.1475C17.1637 13.1366 17.2488 13.0947 17.3379 13.0264L17.4287 12.9492C18.7376 11.7537 20.0477 10.5598 21.3594 9.36816L25.2988 5.79883C25.4466 5.66456 25.555 5.56615 25.6455 5.49902C25.7357 5.43214 25.8032 5.40075 25.8682 5.39453C25.9328 5.38846 26.0035 5.40607 26.1025 5.45508C26.1525 5.47982 26.2083 5.51179 26.2725 5.55078L26.4922 5.68945C26.8017 5.88754 27.1118 6.08997 27.4229 6.29102L28.3594 6.88379V6.88477C28.5129 6.97897 28.5961 7.06027 28.6211 7.14844C28.6393 7.21288 28.6293 7.29117 28.5752 7.39453L28.5059 7.50684C28.3696 7.70176 28.266 7.85188 28.1992 7.97656C28.1322 8.1016 28.0982 8.20778 28.1094 8.31445C28.1206 8.42092 28.1759 8.51896 28.2656 8.62891C28.3104 8.68373 28.3652 8.74309 28.4297 8.80957L28.6523 9.0332C29.1013 9.4825 29.2308 10.2197 29.0928 10.916C28.9633 11.5688 28.6016 12.1711 28.0693 12.4551L27.9609 12.5078L27.959 12.5088C27.8343 12.569 27.6959 12.5968 27.5576 12.5898C27.454 12.5846 27.3527 12.5592 27.2588 12.5166L27.167 12.4688C26.9027 12.307 26.6378 12.1498 26.3799 11.9824L26.124 11.8105C26.0731 11.7744 26.0285 11.7356 25.9775 11.6963C25.9295 11.6593 25.8773 11.6233 25.8213 11.6055C25.7623 11.5867 25.6997 11.5883 25.6357 11.624C25.6051 11.6411 25.5747 11.6651 25.5449 11.6973L25.4561 11.8184C25.4347 11.8528 25.4113 11.8865 25.3887 11.9199C25.3663 11.9528 25.344 11.9861 25.3232 12.0186C25.2819 12.0834 25.2441 12.1514 25.2285 12.2217C25.2125 12.2942 25.2203 12.3686 25.2646 12.4434C25.297 12.4977 25.3479 12.5506 25.4199 12.6035L25.5 12.6572C25.6372 12.7411 25.7533 12.8618 25.875 12.9883C25.965 13.0818 26.0581 13.1787 26.1621 13.2607L26.2705 13.3369C26.8721 13.7113 26.971 14.5299 26.7578 15.335C26.6519 15.7348 26.4697 16.1246 26.2412 16.4434C26.0409 16.7228 25.8067 16.9449 25.5586 17.0723L25.4521 17.1211H25.4512C25.3319 17.1702 25.2026 17.1898 25.0742 17.1777C24.978 17.1687 24.8842 17.1429 24.7979 17.1006L24.7139 17.0527L24.7119 17.0508L24.2773 16.7969C23.9184 16.582 23.5704 16.3555 23.2539 16.084L23.0684 15.915C22.9594 15.8102 22.8575 15.7545 22.7578 15.7754C22.6849 15.7908 22.6262 15.8446 22.5752 15.9199L22.5264 16.001C22.5033 16.0423 22.4692 16.0832 22.4316 16.1289C22.396 16.1723 22.3568 16.2215 22.334 16.2734C22.31 16.3283 22.3029 16.3908 22.3359 16.4551C22.3593 16.5005 22.4009 16.5433 22.4619 16.585L22.5293 16.627C22.9688 16.8715 23.4108 17.1113 23.8379 17.3721L24.2588 17.6406C29.5321 21.1504 35.1422 24.1006 40.5889 27.3115L41.6758 27.957C41.9518 28.1226 42.1562 28.3017 42.2881 28.5186C42.3865 28.6805 42.4463 28.8662 42.4639 29.0879L42.4668 29.3232C42.4365 30.022 42.4364 30.7206 42.4541 31.4189L42.4775 32.1172C42.4922 32.4372 42.4375 32.6951 42.3145 32.9102C42.2221 33.0715 42.09 33.2121 41.9141 33.3379L41.7227 33.459C40.0903 34.3931 38.4599 35.3302 36.8311 36.2695L31.9482 39.0957C31.4207 39.4003 30.8911 39.7023 30.3623 40.0059L28.7793 40.9248C28.1897 41.2727 27.6094 41.4388 27.0303 41.4336C26.5233 41.429 26.0147 41.2932 25.499 41.0283L25.2773 40.9072C22.5315 39.3085 19.7842 37.712 17.0361 36.1172L8.78906 31.3379C8.04675 30.9071 7.30493 30.4747 6.5625 30.043L4.33008 28.7549C4.05252 28.5968 3.84557 28.417 3.71387 28.1973C3.59892 28.0055 3.53905 27.7796 3.54395 27.5039L3.55078 27.3828C3.57421 27.09 3.57412 26.7954 3.56934 26.502L3.55859 25.623V25.6221C3.55859 25.5676 3.55773 25.5136 3.55176 25.4658C3.5458 25.4184 3.53464 25.3714 3.50879 25.333C3.48152 25.2925 3.4407 25.2654 3.38672 25.2539C3.36096 25.2485 3.33237 25.2464 3.30078 25.248L3.19531 25.2637C3.1318 25.278 3.07176 25.2611 3.00781 25.2275C2.97564 25.2106 2.94343 25.1899 2.91016 25.168L2.80859 25.1035L0.311523 23.6572C0.278691 23.6384 0.239315 23.6186 0.208008 23.6016C0.174563 23.5833 0.144913 23.5645 0.120117 23.5439C0.0956352 23.5237 0.0771409 23.5017 0.0654297 23.4766C0.0539472 23.4517 0.0471083 23.4207 0.0507812 23.3799C0.0544814 23.339 0.0663681 23.3097 0.0820312 23.2871C0.0979907 23.2641 0.119864 23.2452 0.147461 23.2285C0.175411 23.2116 0.207443 23.1975 0.243164 23.1826L0.353516 23.1338L9.69434 18.2119C9.84592 18.1309 9.99538 18.044 10.2021 17.9268L10.2607 17.8936L10.2119 17.8467C8.77797 16.472 7.6276 14.831 6.8252 13.0166L6.66992 12.6514C6.61464 12.5165 6.5399 12.4434 6.44336 12.4199C6.39817 12.409 6.35073 12.4099 6.30273 12.417L6.1582 12.4521L4.53125 12.9375L4.5293 12.9385C4.39265 12.9884 4.24457 13.0004 4.10156 12.9736C3.95893 12.9469 3.826 12.8827 3.7168 12.7871L3.68359 12.8242L3.7168 12.7861L3.71484 12.7852L3.33496 12.4951C3.20688 12.3998 3.07774 12.3056 2.94824 12.2119L2.17676 11.6475L1.99121 11.4932C1.93964 11.4439 1.8979 11.3966 1.86621 11.3516C1.80323 11.2619 1.78186 11.1832 1.79102 11.1133C1.80032 11.0432 1.84196 10.9716 1.92676 10.8975C1.96934 10.8602 2.02206 10.8231 2.08496 10.7861L2.30566 10.6748C2.97744 10.3793 3.64635 10.0782 4.32129 9.79199L4.99805 9.51172C5.20041 9.42993 5.35605 9.33557 5.45215 9.19531C5.52475 9.08921 5.56062 8.96145 5.5625 8.80273L5.55273 8.63281C5.47525 7.95113 5.57272 7.29968 6.04688 6.7793L6.14648 6.67773C6.24561 6.58389 6.27275 6.48156 6.27148 6.38086C6.27085 6.33191 6.26398 6.28289 6.25586 6.2373L6.23242 6.10547L5.56445 0.938477C5.55925 0.896949 5.54896 0.851884 5.54102 0.811523C5.53277 0.769617 5.5259 0.730203 5.52539 0.693359C5.52491 0.656939 5.5311 0.624668 5.54492 0.59668C5.55858 0.569264 5.58197 0.542048 5.62305 0.517578C5.66418 0.493103 5.69822 0.485739 5.72754 0.487305Z" fill="#35B777" stroke="black" stroke-width="0.1"></path><path d="M6.23145 7.34546C6.2376 7.65753 6.36036 7.87999 6.53809 8.05737C6.64294 8.16199 6.76579 8.25058 6.8916 8.33276L7.26855 8.573C9.1929 9.87105 11.1227 11.1639 13.0566 12.4509V12.45L13.3174 12.6218H13.3184C13.3319 12.6293 13.3458 12.6376 13.3604 12.6462C13.3748 12.6549 13.3908 12.6648 13.4062 12.6736C13.437 12.6909 13.4715 12.7084 13.5078 12.7185C13.5447 12.7287 13.5849 12.7313 13.627 12.7195C13.6692 12.7075 13.7095 12.6819 13.7471 12.6414C13.7835 12.602 13.808 12.5625 13.8203 12.5222C13.8327 12.4815 13.8312 12.4427 13.8223 12.406C13.8138 12.3715 13.7982 12.3376 13.7793 12.3054L13.7197 12.2136C13.465 11.8315 13.2209 11.4427 12.9717 11.0554C12.9644 11.0349 12.962 11.0203 12.9619 11.0105C12.9619 11.0055 12.9624 11.0022 12.9629 11.0007V10.9998L12.9648 10.9978C12.9666 10.9969 12.9703 10.9958 12.9756 10.9949C12.9852 10.9932 12.9992 10.9933 13.0186 10.9958C13.4623 11.2853 13.8796 11.6135 14.2666 11.9753C13.9074 13.6685 14.5857 15.614 15.9023 16.7078L16.1758 16.9167C17.0476 17.5227 17.9381 17.8514 18.8467 17.9011C19.6419 17.9446 20.4486 17.7746 21.2656 17.3914L21.6162 17.2136L21.6172 17.2126C21.705 17.1614 21.7802 17.0973 21.8506 17.0339C21.9141 16.9767 21.974 16.9219 22.0381 16.8728C23.6484 17.8006 25.3284 18.606 26.4941 20.0935L26.7217 20.4021C26.8775 20.6281 27.0306 20.8551 27.1768 21.0876V21.0867C27.338 21.3495 27.3947 21.5139 27.3613 21.6472C27.3362 21.7475 27.2573 21.841 27.1055 21.95L26.9287 22.0652C26.4937 22.3293 26.0195 22.3935 25.5273 22.3513L25.3154 22.3269C25.0412 22.2884 24.7444 22.3636 24.4951 22.5125C24.2768 22.6429 24.0911 22.8323 23.9883 23.0564L23.9492 23.1541C23.8941 23.3163 23.904 23.4525 23.9697 23.5662C24.018 23.6496 24.0943 23.7163 24.1875 23.7722L24.2852 23.825H24.2861C25.5202 24.4004 26.7249 24.4298 27.8564 23.697L28.082 23.5398C28.1522 23.4875 28.2065 23.4536 28.25 23.4353C28.2929 23.4172 28.3211 23.4163 28.3418 23.4226C28.363 23.4292 28.3863 23.4466 28.4141 23.4841C28.4279 23.5029 28.4421 23.5256 28.457 23.5525L28.5049 23.6472C28.9438 24.5674 29.1747 25.5056 29.042 26.5144L29.0107 26.7175C28.9147 27.2529 28.7687 27.6003 28.5195 27.8171C28.2705 28.0337 27.9083 28.1289 27.3594 28.1345L27.1445 28.1326C26.2181 28.1063 25.3415 27.8491 24.4961 27.49L24.1084 27.3171C20.9718 25.8628 18.2209 23.8097 15.498 21.7058C15.4966 21.7021 15.4955 21.6962 15.4932 21.6873C15.4907 21.6776 15.4872 21.6646 15.4834 21.6492L17.875 20.9041H17.876C17.9148 20.8919 17.9553 20.882 18 20.8699C18.0436 20.8581 18.0903 20.8442 18.1328 20.825C18.2196 20.7856 18.2966 20.7208 18.3174 20.6003C18.3276 20.541 18.3193 20.4881 18.2979 20.4421C18.2768 20.3972 18.2436 20.3613 18.208 20.3308C18.1725 20.3004 18.1319 20.2737 18.0938 20.2498L17.9873 20.1804C17.2 19.5989 16.4099 19.0199 15.6201 18.4402L13.2559 16.696C13.1227 16.5969 13.0001 16.5359 12.8711 16.5251C12.7738 16.517 12.6768 16.5373 12.5732 16.5837L12.4678 16.6384C12.2023 16.7927 11.9292 16.9358 11.6543 17.0779C11.5171 17.1488 11.3794 17.2198 11.2422 17.2917L10.832 17.5125V17.5134C10.7453 17.5632 10.6836 17.5813 10.6299 17.5759C10.5899 17.5719 10.5485 17.5537 10.499 17.5154L10.4473 17.4705C9.06527 16.1541 8.03003 14.6039 7.24023 12.8816L7.08496 12.5349L7.05469 12.449C7.03622 12.3769 7.05004 12.3415 7.06934 12.3201C7.0851 12.3026 7.11074 12.2879 7.14746 12.2732L7.27734 12.2312C7.59108 12.1418 7.9047 12.0521 8.21777 11.9607L9.15527 11.6814C9.18868 11.6713 9.22356 11.6634 9.26367 11.6531C9.30241 11.6431 9.34415 11.6308 9.38281 11.613C9.42171 11.5952 9.46001 11.5707 9.49023 11.5349C9.52061 11.4988 9.54161 11.4535 9.5498 11.3972C9.56655 11.2819 9.52308 11.2013 9.46094 11.1404C9.43103 11.1111 9.39596 11.0859 9.36328 11.0632L9.27051 10.9978L6.73438 9.04761C6.65964 8.99023 6.57316 8.91159 6.47852 8.86987C6.4294 8.84828 6.37558 8.83571 6.31641 8.83862C6.28683 8.84009 6.25653 8.84541 6.22559 8.85522L6.12988 8.89819C6.09396 8.91892 6.07014 8.92399 6.05566 8.92358C6.04331 8.92324 6.03468 8.91899 6.02637 8.90991C6.01676 8.89937 6.00771 8.88179 6 8.8562L5.9834 8.76929C5.94679 8.27557 5.97173 7.80158 6.23145 7.34546Z" fill="#9DD4B2" stroke="black" stroke-width="0.1"></path><path d="M33.5654 23.7786L41.1953 28.1995V28.2004C41.2692 28.243 41.3425 28.2866 41.415 28.3313L41.6309 28.469C41.9037 28.6522 42.0285 28.8303 42.0322 28.9934C42.0354 29.1348 41.9473 29.2845 41.7412 29.4368L41.6465 29.5022C41.3061 29.7178 40.9594 29.9246 40.6104 30.1272L39.5596 30.7288C36.868 32.2787 34.1675 33.8162 31.4805 35.3762L28.7988 36.9456C28.178 37.312 27.5962 37.4865 27.0166 37.4797C26.5092 37.4738 26 37.3287 25.4639 37.0471L25.2324 36.9182C22.9242 35.5541 20.6072 34.2048 18.2871 32.8606L11.3242 28.8313L8.68164 27.2961L8.95605 26.845H8.95703C9.04701 26.6827 9.11262 26.5643 9.1709 26.4817C9.22948 26.3986 9.27442 26.361 9.31934 26.3479C9.36388 26.335 9.42064 26.3426 9.51172 26.3821C9.55703 26.4017 9.60825 26.4283 9.66797 26.4612L9.87598 26.5793C15.377 29.7704 20.8762 32.9644 26.373 36.1624V36.1633C26.6033 36.2979 26.8108 36.373 27.0225 36.3772C27.1817 36.3803 27.3404 36.3431 27.5098 36.2659L27.6826 36.176C29.5975 35.0589 31.5163 33.9477 33.4365 32.8391L39.1982 29.5168C39.2495 29.4873 39.3091 29.4607 39.373 29.4329C39.4361 29.4054 39.5039 29.3761 39.5645 29.342C39.67 29.2826 39.7665 29.2015 39.792 29.0735L39.7988 29.0159C39.8031 28.8373 39.6948 28.7298 39.5693 28.6536C39.507 28.6157 39.4377 28.5837 39.3721 28.554L39.1885 28.4641C37.4568 27.4579 35.7249 26.4527 33.9922 25.4495L28.792 22.4436C28.4691 22.2573 28.2311 22.046 28.1709 21.6799C28.2373 21.3781 28.3185 21.1035 28.5469 20.9026L33.5654 23.7786Z" fill="#9DD4B2" stroke="black" stroke-width="0.1"></path><path d="M3.99316 25.2388C4.68398 26.1633 5.53677 26.9528 6.5127 27.5649L6.95703 27.8276C7.13695 27.927 7.31527 27.9942 7.49316 28.0073C7.62759 28.0172 7.76039 27.9963 7.8916 27.936L8.02246 27.8618C8.12754 27.7916 8.2114 27.7656 8.29102 27.7681C8.33132 27.7693 8.37241 27.7786 8.41699 27.7944L8.56445 27.8638C11.2993 29.4536 14.0352 31.0421 16.7725 32.6284L24.9873 37.3823C25.1452 37.4731 25.2509 37.5641 25.3154 37.6743C25.3635 37.7564 25.391 37.8524 25.3984 37.9722V38.1011C25.3674 38.8592 25.3873 39.6216 25.3887 40.4497L21.8525 38.4038L7.07422 29.8267L4.49121 28.3374C4.31763 28.2368 4.1889 28.1235 4.10547 27.9849C4.04317 27.8813 4.00454 27.7613 3.99316 27.6177L3.99121 27.4653V27.4644C4.01464 26.7697 3.99545 26.0696 3.99316 25.2388Z" fill="#9DD4B2" stroke="black" stroke-width="0.1"></path><path d="M12.8721 17.1055L12.9443 17.1445C14.4233 18.2344 15.9054 19.3221 17.4561 20.459L14.0078 21.5303L3.625 24.7207L3.62109 24.7217C3.49639 24.77 3.36139 24.7876 3.22852 24.7725C3.12901 24.7611 3.03292 24.7311 2.94434 24.6855L2.8584 24.6348L2.85645 24.6338L2.33008 24.3154C1.82255 24.015 1.29962 23.722 0.750977 23.4053L3.42969 22.042C3.60325 22.0921 3.77567 22.1478 3.94824 22.2051C4.12641 22.2642 4.30506 22.3254 4.48535 22.3799C4.75595 22.4617 5.0316 22.5311 5.31641 22.5664L5.60547 22.5889C6.97106 22.6366 8.22524 22.3207 9.21484 21.3555L9.40918 21.1543C9.91941 20.5908 10.1492 19.9183 10.0098 19.1611L9.97754 19.0088C9.94322 18.8591 9.90826 18.7305 9.9707 18.6045L12.6699 17.1475C12.7271 17.1164 12.7702 17.0989 12.8105 17.0967C12.8297 17.0957 12.8501 17.0982 12.8721 17.1055Z" fill="#35B777" stroke="black" stroke-width="0.1"></path><mask id="path-7-inside-1_1_1391" fill="white"><path d="M36.3635 33.8992C36.3466 33.9267 36.3272 33.9526 36.3057 33.9767C36.316 33.9508 36.3263 33.925 36.3377 33.9002L36.3635 33.8992Z"></path></mask><path d="M36.3635 33.8992C36.3466 33.9267 36.3272 33.9526 36.3057 33.9767C36.316 33.9508 36.3263 33.925 36.3377 33.9002L36.3635 33.8992Z" fill="#35B777"></path><path d="M36.3635 33.8992L36.4487 33.9516L36.5471 33.7918L36.3595 33.7992L36.3635 33.8992ZM36.3057 33.9767L36.2128 33.9395L36.3801 34.0434L36.3057 33.9767ZM36.3377 33.9002L36.3337 33.8003L36.2724 33.8027L36.2468 33.8585L36.3377 33.9002ZM36.3635 33.8992L36.2784 33.8468C36.2646 33.8692 36.2488 33.8903 36.2312 33.9099L36.3057 33.9767L36.3801 34.0434C36.4057 34.0149 36.4286 33.9842 36.4487 33.9516L36.3635 33.8992ZM36.3057 33.9767L36.3985 34.0138C36.409 33.9876 36.4184 33.964 36.4286 33.9419L36.3377 33.9002L36.2468 33.8585C36.2342 33.886 36.223 33.9141 36.2128 33.9395L36.3057 33.9767ZM36.3377 33.9002L36.3417 34.0001L36.3675 33.9991L36.3635 33.8992L36.3595 33.7992L36.3337 33.8003L36.3377 33.9002Z" fill="black" mask="url(#path-7-inside-1_1_1391)"></path><path d="M14.3125 12.0081C16.813 13.7118 19.45 15.2098 21.9883 16.843C22.0094 16.9027 22.011 16.947 22.002 16.9817C21.9921 17.019 21.9697 17.0504 21.9375 17.0784C21.9049 17.1066 21.8644 17.1301 21.8213 17.1516L21.6973 17.2122C20.0836 18.1069 18.4486 18.2179 16.8555 17.3752L16.5371 17.1936C14.8797 16.1797 14.1363 14.6632 14.1133 12.7913L14.1182 12.4124C14.1218 12.3095 14.1306 12.2236 14.1611 12.1545C14.1879 12.0941 14.2332 12.0451 14.3125 12.0081Z" fill="#35B777" stroke="black" stroke-width="0.1"></path><path d="M9.90137 18.6401C10.1432 19.3366 10.1384 19.983 9.88672 20.5542C9.66071 21.0671 9.23582 21.5238 8.60742 21.9009L8.3252 22.0581C6.88515 22.7983 5.41118 22.8635 3.94336 22.2319L3.64941 22.0962C3.60208 22.0667 3.55754 22.0332 3.51465 21.9976C4.16495 21.6474 4.8156 21.2981 5.46582 20.9497L7.48047 19.8774C8.28402 19.4549 9.09369 19.0516 9.90137 18.6401Z" fill="#9DD4B2" stroke="black" stroke-width="0.1"></path><path d="M26.0049 5.89819L26.1006 5.948C26.539 6.24231 26.9771 6.53878 27.4229 6.823L27.8721 7.10327C28.0019 7.18432 28.0423 7.24888 28.0459 7.30737C28.0489 7.35543 28.0291 7.41113 27.9854 7.48315L27.9336 7.5603C26.9591 8.94198 25.9858 10.325 25.0137 11.7087L22.1006 15.863C22.0283 15.9671 21.9759 16.0207 21.9209 16.0378C21.8824 16.0498 21.834 16.0463 21.7627 16.0125L21.6826 15.9675C21.058 15.5751 20.4313 15.1858 19.8027 14.7996L17.9111 13.6501H17.9102C17.8348 13.605 17.7758 13.5644 17.7334 13.5261C17.6908 13.4877 17.6698 13.4548 17.6631 13.4255C17.6569 13.3981 17.6617 13.365 17.6895 13.321C17.7178 13.2762 17.7673 13.2221 17.8467 13.158L17.8477 13.1589C18.0762 12.9781 18.298 12.787 18.5166 12.5935L19.168 12.0125L19.1699 12.0115C20.3802 10.8637 21.6098 9.7379 22.8584 8.63354L24.1133 7.53589L24.1143 7.53491C24.3892 7.27695 24.6661 7.02073 24.9424 6.76343L25.7686 5.98413C25.8344 5.92077 25.8841 5.89347 25.9297 5.88843C25.9523 5.88593 25.9768 5.88864 26.0049 5.89819Z" fill="#9DD4B2" stroke="black" stroke-width="0.1"></path><path d="M6.08203 1.22412C6.32572 1.40739 6.58673 1.54692 6.8252 1.69287C7.08131 1.84962 7.31378 2.01879 7.49023 2.27002C7.28613 3.1035 7.1055 3.94449 7.20898 4.82178L7.23438 4.99854C7.37575 5.8842 7.6641 6.69702 8.24414 7.39795V7.39893C8.46166 7.67543 8.74334 7.89486 9.06445 8.03857C9.34532 8.16427 9.64934 8.22859 9.95605 8.22803L10.0879 8.22412L10.0908 8.22314C10.1794 8.21253 10.2691 8.23277 10.3447 8.27979C11.0582 9.21854 11.6956 10.2122 12.2559 11.2495C11.4587 10.7185 10.6624 10.1849 9.86523 9.65186L7.29883 7.9458C7.04905 7.78133 6.88682 7.60146 6.82422 7.33545L6.80371 7.21631L6.07031 1.33936C6.07238 1.30078 6.07663 1.26235 6.08203 1.22412Z" fill="#35B777" stroke="black" stroke-width="0.1"></path><path d="M9.85742 7.36011C9.99338 7.64947 10.1544 7.92882 10.3047 8.20776C9.85105 8.32305 9.44979 8.28897 9.09668 8.14038C8.77341 8.00429 8.48806 7.7729 8.24023 7.47144L8.13574 7.33765C7.10967 5.94986 6.91873 4.40934 7.33691 2.78979L7.42871 2.46558C7.43602 2.44232 7.45485 2.41853 7.48535 2.3894C7.49788 2.37745 7.51284 2.36229 7.5293 2.34741L9.85742 7.36011Z" fill="#9DD4B2" stroke="black" stroke-width="0.1"></path><path d="M6.27637 9.50537C6.4808 9.52815 6.6876 9.64238 6.91113 9.8374V9.83643C7.45443 10.3217 8.05619 10.7418 8.67188 11.2163C8.46299 11.3143 8.25497 11.383 8.04688 11.439C7.81681 11.5008 7.58155 11.5513 7.35742 11.6196L7.37207 11.6675L7.35742 11.6206C6.88199 11.7658 6.405 11.9054 5.92773 12.0444L4.49609 12.4634C4.33267 12.5118 4.20459 12.5478 4.06738 12.4771L4.00781 12.4399C3.45046 12.0222 2.88181 11.618 2.30957 11.2026C2.38171 11.1446 2.45791 11.1058 2.53613 11.0737C2.58385 11.0541 2.63164 11.0366 2.68066 11.019C2.7238 11.0036 2.76728 10.9867 2.81055 10.9683C2.90379 10.9833 2.99429 11.0113 3.0791 11.0522L3.16406 11.0991L3.16797 11.1011C3.78118 11.4165 4.37967 11.4156 4.83789 11.1567C5.29097 10.9007 5.59638 10.3972 5.64746 9.72217C5.87398 9.54548 6.07874 9.48346 6.27637 9.50537Z" fill="#35B777" stroke="black" stroke-width="0.1"></path><path d="M13.5879 22.2148C13.7445 22.1639 13.8471 22.1828 13.9316 22.2305C14.0077 22.2734 14.0705 22.3401 14.1465 22.417C12.8246 23.204 12.3808 24.4375 12.3447 25.9199C11.2762 25.2725 10.4311 24.4445 9.67188 23.4189C10.6729 23.1165 11.6467 22.8278 12.6084 22.5273L13.5879 22.2148Z" fill="#9DD4B2" stroke="black" stroke-width="0.1"></path><path d="M11.9912 4.41382C12.0768 4.39493 12.175 4.41623 12.3164 4.48608C12.387 4.52096 12.4663 4.56643 12.5576 4.6228L12.873 4.82397C13.1694 5.01582 13.3884 5.15829 13.54 5.28198C13.6916 5.4057 13.7667 5.50475 13.7891 5.60815C13.8113 5.71161 13.7835 5.83243 13.6953 6.00562C13.6513 6.09195 13.5931 6.18857 13.5225 6.30054L13.2715 6.68628C12.9979 7.0992 12.7156 7.51258 12.4355 7.91968C12.1658 8.31186 11.915 8.68364 11.6396 9.0896C11.4418 8.91142 11.3238 8.69245 11.1855 8.46948C11.1999 8.37933 11.2261 8.29152 11.2646 8.20874C11.788 7.28212 11.8435 6.33576 11.3613 5.37573C11.3333 5.30593 11.3172 5.23198 11.3125 5.15698C11.4791 4.91942 11.6031 4.7437 11.71 4.62085C11.8195 4.49503 11.905 4.43287 11.9912 4.41382Z" fill="#35B777" stroke="black" stroke-width="0.1"></path><path d="M14.6816 21.8801C14.7413 21.8699 14.8031 21.8752 14.875 21.9133L14.9502 21.9631H14.9512C15.6747 22.5104 16.4022 23.0528 17.1309 23.594L19.3174 25.217L19.3223 25.22C20.3538 25.8245 21.3552 26.497 22.415 27.0676L22.873 27.3059C24.2281 27.9835 25.6067 28.6315 27.1777 28.6545C27.96 28.666 28.5065 28.5532 28.8848 28.2336C29.2156 27.954 29.41 27.5228 29.5303 26.9045L29.5771 26.6282C29.7558 25.4291 29.4917 24.3134 28.958 23.1624L39.0127 28.9817L37.6523 29.7922C35.1646 31.2268 32.6705 32.652 30.1855 34.093L27.7041 35.5403C27.4502 35.688 27.2413 35.7562 27.0371 35.7551C26.8838 35.7543 26.7294 35.7145 26.5566 35.634L26.377 35.5403C22.2748 33.1381 18.1669 30.7468 14.0527 28.3674L9.93652 25.9924C9.74586 25.882 9.58726 25.7859 9.48438 25.6555C9.40951 25.5606 9.362 25.4448 9.3584 25.2864L9.37012 25.1125C9.41612 24.7992 9.30555 24.5537 9.14355 24.3372C9.06297 24.2294 8.96909 24.1277 8.875 24.0286C8.79402 23.9432 8.71449 23.8587 8.63965 23.7727C8.80318 23.6694 8.927 23.6298 9.03613 23.6477C9.12546 23.6623 9.21328 23.7163 9.30957 23.8235L9.40918 23.9495C10.208 25.064 11.2349 25.9238 12.4033 26.6057L12.9131 26.887C13.2473 27.0621 13.5698 27.0185 13.8613 26.8508L13.9844 26.7717C14.8916 26.128 15.313 25.2204 15.4463 24.1731L15.4688 23.9622L15.4697 23.9592C15.4778 23.7161 15.4722 23.4722 15.4531 23.2297H15.4541L15.4502 23.218L15.4121 23.1155C15.3149 22.8814 15.166 22.6889 15.001 22.511C14.9068 22.4095 14.8065 22.3122 14.707 22.2151C14.6232 22.1332 14.542 22.0493 14.4619 21.9641C14.5442 21.9238 14.6124 21.892 14.6816 21.8801Z" fill="#9DD4B2" stroke="black" stroke-width="0.1"></path><path d="M42.0254 29.9358C42.0263 30.6098 42.0378 31.2473 42.0293 31.8723L42.0117 32.5198V32.5208C42.0046 32.6984 41.9134 32.8164 41.7842 32.9133C41.7189 32.9623 41.6447 33.0055 41.5674 33.0471L41.3379 33.1711L36.3896 36.0276L28.9404 40.3186C28.9184 40.3313 28.8946 40.349 28.876 40.3616C28.8556 40.3752 28.836 40.3869 28.8154 40.3948C28.7822 40.4074 28.7405 40.4112 28.6787 40.3879V37.7883L28.6826 37.7385C28.6898 37.6927 28.707 37.6579 28.7314 37.6292C28.7486 37.609 28.7696 37.5909 28.7939 37.5735L28.8779 37.5227L31.249 36.1887L31.251 36.1877C32.5701 35.3783 33.9121 34.6061 35.2617 33.8459L36.6143 33.0891V33.0881L42.0254 29.9358ZM33.5342 36.0803C33.3679 36.0568 33.2267 36.1009 33.0986 36.1663C33.0264 36.2031 32.9574 36.2477 32.8906 36.2903C32.823 36.3334 32.7571 36.3744 32.6895 36.4084L32.6348 36.4368L32.6729 36.4846C32.6961 36.5137 32.7105 36.5543 32.7207 36.6047C32.7257 36.6294 32.7295 36.6551 32.7334 36.6819C32.7373 36.7083 32.7409 36.7364 32.7461 36.7629C32.7562 36.8148 32.773 36.8721 32.8105 36.9143C32.8409 36.9482 32.8811 36.9688 32.9316 36.9749L32.9863 36.9758C33.1542 36.9646 33.2673 36.87 33.3477 36.7493C33.3872 36.6898 33.4193 36.6225 33.4473 36.554L33.5215 36.3508V36.3489C33.5374 36.2965 33.5621 36.2476 33.5928 36.2024H33.6123L33.7949 36.1985L33.6357 36.1096L33.6191 36.0999L33.6104 36.1145L33.6201 36.0979L33.6064 36.095L33.5342 36.0803Z" fill="#9DD4B2" stroke="black" stroke-width="0.1"></path><mask id="path-19-inside-2_1_1391" fill="white"><path d="M36.3635 33.8992C36.3466 33.9267 36.3272 33.9526 36.3057 33.9767C36.316 33.9508 36.3263 33.925 36.3377 33.9002L36.3635 33.8992Z"></path></mask><path d="M36.3635 33.8992C36.3466 33.9267 36.3272 33.9526 36.3057 33.9767C36.316 33.9508 36.3263 33.925 36.3377 33.9002L36.3635 33.8992Z" fill="#35B777"></path><path d="M36.3635 33.8992L36.4487 33.9516L36.5471 33.7918L36.3595 33.7992L36.3635 33.8992ZM36.3057 33.9767L36.2128 33.9395L36.3801 34.0434L36.3057 33.9767ZM36.3377 33.9002L36.3337 33.8003L36.2724 33.8027L36.2468 33.8585L36.3377 33.9002ZM36.3635 33.8992L36.2784 33.8468C36.2646 33.8692 36.2488 33.8903 36.2312 33.9099L36.3057 33.9767L36.3801 34.0434C36.4057 34.0149 36.4286 33.9842 36.4487 33.9516L36.3635 33.8992ZM36.3057 33.9767L36.3985 34.0138C36.409 33.9876 36.4184 33.964 36.4286 33.9419L36.3377 33.9002L36.2468 33.8585C36.2342 33.886 36.223 33.9141 36.2128 33.9395L36.3057 33.9767ZM36.3377 33.9002L36.3417 34.0001L36.3675 33.9991L36.3635 33.8992L36.3595 33.7992L36.3337 33.8003L36.3377 33.9002Z" fill="black" mask="url(#path-19-inside-2_1_1391)"></path><path d="M14.1797 22.9983C14.3137 22.9223 14.4602 22.895 14.6299 22.969C14.7987 23.0427 14.8739 23.1674 14.9102 23.3225C14.9472 23.4815 14.9429 23.6628 14.9531 23.8528C14.884 24.6934 14.6036 25.4616 13.9951 26.0754L13.8691 26.1965C13.6786 26.3705 13.4762 26.5094 13.2295 26.4192C13.0462 26.3521 12.9691 26.1926 12.9346 26.011L12.9121 25.8245C12.8492 24.927 13.1292 24.1405 13.6904 23.4641L13.8066 23.3303V23.3293C13.9202 23.2033 14.0427 23.076 14.1797 22.9983Z" fill="#FCFCFC" stroke="black" stroke-width="0.1"></path><path d="M7.99512 23.9739C8.02249 23.9776 8.04861 23.9885 8.07129 24.0178L8.09277 24.054C8.09958 24.0682 8.09903 24.0757 8.09863 24.0784C8.09818 24.0809 8.09691 24.0845 8.0918 24.0901C8.08565 24.0967 8.07597 24.1047 8.0625 24.1135L8.01855 24.1418C7.03917 24.8225 6.68236 25.8079 6.63672 26.9885C5.95168 26.5668 5.33858 26.0394 4.82227 25.4241L4.59961 25.1458V25.1448L4.56152 25.0901C4.5531 25.0745 4.54905 25.0613 4.54688 25.051C4.5431 25.0331 4.54643 25.0225 4.55273 25.0139C4.5608 25.0031 4.5766 24.991 4.60254 24.9788L4.69434 24.9456L7.8418 23.9973C7.90121 23.9796 7.95274 23.9682 7.99512 23.9739Z" fill="#9DD4B2" stroke="black" stroke-width="0.1"></path><path d="M24.959 12.8096C24.9951 12.8072 25.0386 12.8255 25.0957 12.874L25.1572 12.9326L25.1592 12.9346C25.247 13.0194 25.3428 13.0954 25.4443 13.1631V13.1641C25.5105 13.2129 25.5617 13.2547 25.5967 13.2939C25.6315 13.333 25.6466 13.3656 25.6494 13.3945C25.6521 13.4227 25.6433 13.4573 25.6113 13.502C25.5951 13.5244 25.5735 13.5486 25.5459 13.5752L25.4434 13.6631C24.606 14.2983 24.3322 15.2246 24.2539 16.2588C24.2432 16.255 24.2322 16.2522 24.2217 16.248L24.1338 16.21C23.8515 16.0221 23.6433 15.8826 23.499 15.7617C23.3535 15.6398 23.2815 15.5432 23.2617 15.4434C23.242 15.3435 23.2719 15.2279 23.3604 15.0615C23.4045 14.9785 23.4618 14.8849 23.5322 14.7773L23.7822 14.4072C24.0271 14.0499 24.2867 13.6965 24.5342 13.3359L24.7773 12.9717C24.8543 12.852 24.9122 12.8127 24.959 12.8096Z" fill="#9DD4B2" stroke="black" stroke-width="0.1"></path><path d="M11.2588 5.22241C11.7935 5.90881 11.8567 6.66937 11.624 7.46851L11.5723 7.63257C11.472 7.92545 11.3878 8.21542 11.1455 8.40405C10.8142 7.99129 10.532 7.54172 10.3047 7.06421L10.207 6.85132L10.1582 6.73901C10.1441 6.70407 10.1336 6.67099 10.1289 6.63745C10.1205 6.57675 10.1312 6.51267 10.1973 6.43921L10.1982 6.44019C10.5613 6.04218 10.9104 5.62973 11.2588 5.22241Z" fill="#9DD4B2" stroke="black" stroke-width="0.1"></path><path d="M27.7207 22.1494L27.7861 22.2207C27.9716 22.473 28.0459 22.6383 28.0254 22.7764C28.0101 22.879 27.9405 22.9778 27.7969 23.0928L27.6279 23.2129C26.6134 23.8806 25.5781 23.8155 24.4736 23.333C24.5878 23.1377 24.7055 23.0052 24.8447 22.9268C24.9569 22.8636 25.0865 22.8331 25.2451 22.8359L25.4141 22.8496C26.1572 22.9555 26.8887 22.8558 27.4766 22.3271L27.5928 22.2148C27.617 22.189 27.6369 22.1696 27.6543 22.1562C27.6715 22.143 27.6822 22.1384 27.6895 22.1377C27.695 22.1372 27.7051 22.1383 27.7207 22.1494Z" fill="#FBFBFB" stroke="black" stroke-width="0.1"></path><path d="M8.05762 24.7791C8.21575 24.624 8.38914 24.5027 8.59863 24.5828C8.70394 24.6231 8.76391 24.6946 8.7998 24.783C8.81827 24.8285 8.8299 24.8788 8.83789 24.9314L8.85254 25.0945C8.88077 25.7318 8.68852 26.3566 8.31348 26.866L8.1416 27.0769L8.14062 27.0779C8.04003 27.1959 7.9408 27.3184 7.82422 27.3943C7.73991 27.4491 7.64761 27.4789 7.54004 27.4607L7.42676 27.4255H7.42578C7.34953 27.3938 7.2998 27.3515 7.2666 27.3035C7.23298 27.2548 7.21388 27.1967 7.20312 27.1316C7.19232 27.0661 7.19091 26.9955 7.18945 26.9216C7.18806 26.8509 7.18654 26.7764 7.17773 26.7058C7.21648 26.068 7.46197 25.463 7.87207 24.9792L8.05762 24.7791Z" fill="#FBFAFA" stroke="black" stroke-width="0.1"></path><path d="M26.0928 13.9404L26.1973 13.9707H26.1982C26.2662 13.9982 26.3121 14.0361 26.3447 14.0811C26.3777 14.1266 26.3991 14.1821 26.4121 14.248C26.4252 14.3143 26.4304 14.3888 26.4326 14.4707C26.4347 14.548 26.4344 14.637 26.4375 14.7236C26.3777 15.3026 26.1798 15.8803 25.7539 16.3613L25.5576 16.5615C25.4823 16.6301 25.4065 16.6948 25.3242 16.7314C25.2648 16.7579 25.2024 16.7696 25.1338 16.7549L25.0625 16.7305C24.938 16.6742 24.8847 16.5662 24.8584 16.4346L24.8389 16.2959C24.7779 15.6275 24.9787 15.0435 25.3516 14.5205L25.5215 14.2998C25.6142 14.1873 25.7107 14.0738 25.8223 14.0039C25.9035 13.953 25.9919 13.9256 26.0928 13.9404Z" fill="#FAFAF9" stroke="black" stroke-width="0.1"></path><path d="M5.60449 9.74829C5.66956 9.75836 5.68837 9.77617 5.69629 9.79224C5.70153 9.80296 5.70508 9.81912 5.70508 9.84399L5.69531 9.93774C5.63674 10.3016 5.49717 10.5927 5.29102 10.8206C5.13614 10.9917 4.94263 11.1289 4.71484 11.2346L4.47656 11.3293C3.87507 11.5343 3.35386 11.3465 2.89453 10.9348L5.60449 9.74829Z" fill="#9DD4B2" stroke="black" stroke-width="0.1"></path><path d="M28.0596 9.81006C28.2059 9.66065 28.3619 9.54726 28.5527 9.62061C28.6481 9.65726 28.7027 9.72661 28.7344 9.81201C28.7506 9.85571 28.7609 9.90314 28.7666 9.95166L28.7725 10.0972V10.0981C28.7773 10.6647 28.5978 11.2152 28.2637 11.6675L28.1104 11.855C28.0231 11.9526 27.9334 12.0474 27.833 12.104C27.7358 12.1588 27.6298 12.1773 27.5049 12.1235C27.4426 12.0966 27.4037 12.0616 27.3779 12.0229C27.3518 11.9836 27.3372 11.9373 27.3291 11.8853C27.3209 11.8325 27.3195 11.7765 27.3174 11.7183C27.3155 11.6651 27.3119 11.6092 27.3008 11.5571C27.3505 10.9514 27.5378 10.4321 27.8955 9.99365L28.0596 9.81006Z" fill="#F8F8F8" stroke="black" stroke-width="0.1"></path><path d="M27.7939 8.84595C27.8346 8.84863 27.88 8.87109 27.9316 8.9231C27.977 8.9688 28.0225 9.03606 28.0723 9.12329C27.1783 9.73431 26.8351 10.6329 26.752 11.6917C26.5653 11.5809 26.425 11.4962 26.3242 11.4221C26.2105 11.3385 26.157 11.2756 26.1406 11.2141C26.1247 11.1543 26.1405 11.0826 26.2012 10.9719C26.2314 10.9167 26.2711 10.8545 26.3203 10.7825L26.4961 10.5334C26.7434 10.1888 26.9988 9.84578 27.2373 9.49243L27.4697 9.13501C27.536 9.02841 27.5961 8.95342 27.6514 8.90649C27.7065 8.8598 27.7536 8.84341 27.7939 8.84595Z" fill="#9DD4B2" stroke="black" stroke-width="0.1"></path><path d="M27.2373 20.1682C27.7454 20.3599 28.1144 20.6079 28.4814 20.8625C28.4144 21.1275 28.2939 21.3745 28.1289 21.592C27.8528 21.1486 27.5741 20.7019 27.2373 20.1682Z" fill="#9DD4B2" stroke="black" stroke-width="0.1"></path><path d="M12.7822 10.7979C12.8217 10.802 12.8522 10.8169 12.8789 10.8389C12.9114 10.8657 12.9374 10.9005 12.9668 10.9395L12.9141 11.002C12.8799 10.9755 12.8491 10.9451 12.8262 10.9082C12.8052 10.8743 12.7911 10.8365 12.7822 10.7979Z" fill="#A0D1DD" stroke="black" stroke-width="0.1"></path><path d="M29.7832 29.3628C30.0405 29.3496 30.3061 29.4347 30.5898 29.6401L30.7129 29.7358C30.9104 29.9002 31.1326 30.0335 31.3623 30.1587C31.5741 30.2741 31.7885 30.3819 32.0029 30.5024C31.8745 30.6224 31.7341 30.7128 31.5879 30.7935C31.5066 30.8383 31.4227 30.8813 31.3398 30.9263L31.0967 31.0708C31.041 31.109 31.0003 31.1098 30.9639 31.0991C30.9437 31.0932 30.9232 31.0829 30.9004 31.0698C30.889 31.0633 30.8774 31.0567 30.8652 31.0493L30.8281 31.0269V31.0259C30.168 30.6445 29.5099 30.2625 28.8076 29.8599C28.8236 29.8442 28.8375 29.8327 28.8477 29.8228L28.8877 29.7866L28.8896 29.7847C29.195 29.5226 29.4882 29.3779 29.7832 29.3628Z" fill="#35B777" stroke="black" stroke-width="0.1"></path><path d="M20.9717 20.9346C21.0343 20.9216 21.1082 20.9397 21.1865 20.9873C21.2643 21.0346 21.3419 21.1087 21.4102 21.1963C21.4782 21.2837 21.5348 21.3836 21.5723 21.4814C21.6006 21.5555 21.6176 21.6265 21.6201 21.6895L21.6182 21.749V21.75C21.5683 22.2524 21.5787 22.7588 21.6475 23.2588C21.3458 23.1484 21.1163 23.014 20.9727 22.833C20.8382 22.6633 20.7742 22.4487 20.8027 22.167L20.8203 22.042C20.835 21.9605 20.8289 21.8762 20.8242 21.8008C20.8218 21.7617 20.8194 21.7242 20.8203 21.6885L20.833 21.5859C20.8508 21.5173 20.8461 21.4413 20.8369 21.3711C20.8272 21.2969 20.814 21.2317 20.8096 21.167C20.8053 21.1036 20.8108 21.0541 20.832 21.0176C20.8469 20.9921 20.8721 20.9678 20.918 20.9502L20.9717 20.9346Z" fill="#35B777" stroke="black" stroke-width="0.1"></path><path d="M18.791 19.6157C18.8419 19.6182 18.8795 19.6325 18.9082 19.6519C18.9372 19.6715 18.9605 19.699 18.9805 19.7329C19.0006 19.7671 19.0165 19.8062 19.0322 19.8481C19.0461 19.8853 19.0611 19.9261 19.0771 19.9634C19.0823 20.023 19.0776 20.0777 19.0625 20.1147C19.055 20.1329 19.0464 20.1449 19.0371 20.1519C19.0283 20.1584 19.0158 20.1623 18.9971 20.1616L18.9277 20.1519C18.9079 20.1462 18.8907 20.1385 18.876 20.1294C18.8463 20.111 18.8231 20.0846 18.8047 20.0522C18.7671 19.9858 18.7516 19.8965 18.7402 19.8013C18.7343 19.7513 18.7288 19.6981 18.7373 19.6587C18.7413 19.6401 18.7471 19.6297 18.7529 19.6245L18.791 19.6157Z" fill="#35B777" stroke="black" stroke-width="0.1"></path><path d="M17.959 19.0352C18.0482 19.0545 18.0956 19.1058 18.1279 19.1729C18.1446 19.2075 18.1576 19.2459 18.1689 19.2871C18.1788 19.323 18.1886 19.3662 18.1992 19.4033C18.199 19.4635 18.1948 19.5132 18.1797 19.5449C18.1727 19.5594 18.1649 19.5677 18.1562 19.5723C18.1474 19.577 18.1323 19.5807 18.1064 19.5771L18.042 19.5615C17.9856 19.5397 17.9494 19.5007 17.9229 19.4521C17.904 19.4175 17.8902 19.3781 17.8789 19.3359L17.8496 19.2031C17.8376 19.1466 17.8403 19.0951 17.8564 19.0645C17.8637 19.0507 17.8734 19.0414 17.8867 19.0361C17.8936 19.0334 17.9025 19.0308 17.9141 19.0303L17.959 19.0352Z" fill="#35B777" stroke="black" stroke-width="0.1"></path><path d="M17.0518 18.439C17.1031 18.4401 17.1411 18.4523 17.1699 18.4702C17.1989 18.4882 17.222 18.514 17.2412 18.5464C17.2612 18.5803 17.2754 18.6196 17.2881 18.6616L17.3232 18.7944C17.337 18.8481 17.3344 18.9093 17.3164 18.9517C17.3075 18.9724 17.2956 18.9863 17.2842 18.9937C17.2791 18.9969 17.2729 18.9991 17.2656 19.0005H17.2383C17.1565 18.9854 17.099 18.9382 17.0576 18.8696C17.0365 18.8346 17.0196 18.7941 17.0068 18.7495L16.9795 18.605C16.9808 18.5847 16.9816 18.5608 16.9824 18.5425C16.9835 18.5186 16.9856 18.4978 16.9902 18.481C16.9949 18.4644 17.0013 18.455 17.0078 18.4497L17.0518 18.439Z" fill="#35B777" stroke="black" stroke-width="0.1"></path><path d="M22.6416 22.3606C22.7441 22.3829 22.7954 22.4407 22.8291 22.51C22.8466 22.546 22.8589 22.5852 22.8711 22.6252C22.8813 22.659 22.8924 22.6954 22.9053 22.7278C22.9046 22.8056 22.8928 22.8657 22.873 22.9006C22.8632 22.9179 22.8529 22.9258 22.8457 22.929L22.8135 22.927H22.8125C22.7182 22.894 22.66 22.8343 22.625 22.759C22.6072 22.7205 22.5953 22.6774 22.5879 22.6311L22.5781 22.4846V22.4836C22.5781 22.4429 22.5829 22.4045 22.5947 22.3801C22.6001 22.3691 22.605 22.3638 22.6094 22.3616L22.6416 22.3606Z" fill="#35B777" stroke="black" stroke-width="0.1"></path><path d="M19.6611 20.1968C19.7569 20.2051 19.8088 20.2496 19.8438 20.3081C19.8804 20.3695 19.8963 20.4426 19.918 20.5151C19.916 20.5477 19.9166 20.581 19.916 20.6089C19.9154 20.6414 19.9137 20.6677 19.9092 20.688C19.9048 20.7076 19.8991 20.7157 19.8945 20.7192C19.8904 20.7224 19.8788 20.727 19.8496 20.7241C19.7548 20.7138 19.6994 20.6709 19.6631 20.6099C19.644 20.5777 19.6296 20.5405 19.6191 20.4995L19.5967 20.3667C19.5918 20.318 19.5888 20.2691 19.5986 20.2339C19.6031 20.218 19.6089 20.2093 19.6152 20.2046C19.6182 20.2024 19.6229 20.1994 19.6299 20.1978L19.6611 20.1968Z" fill="#35B777" stroke="black" stroke-width="0.1"></path><path d="M37.7607 33.4214C37.8772 33.4177 37.9321 33.4573 37.9619 33.5034C37.9784 33.5291 37.9895 33.5595 37.9961 33.5923L38.0059 33.6958C38.0023 33.8985 37.9139 34.1156 37.792 34.2788C37.7311 34.3602 37.6631 34.4262 37.5957 34.4702C37.5277 34.5146 37.4636 34.5339 37.4092 34.5288L37.3477 34.5181C37.2915 34.5023 37.2528 34.4728 37.2256 34.4351C37.2068 34.409 37.1925 34.3777 37.1826 34.3413L37.165 34.2173C37.1631 34.1481 37.1838 34.0639 37.2217 33.9741C37.2594 33.8847 37.3135 33.7932 37.376 33.7104C37.4386 33.6276 37.5083 33.5551 37.5771 33.5034C37.647 33.4509 37.7104 33.423 37.7607 33.4214Z" fill="#35B777" stroke="black" stroke-width="0.1"></path><path d="M33.2666 36.0061C33.3355 36.014 33.4256 36.0575 33.5439 36.1702C33.5561 36.3573 33.5121 36.5434 33.417 36.7053C33.3387 36.8186 33.2625 36.9397 33.1689 37.0217C33.1228 37.0621 33.0748 37.0906 33.0234 37.1038C32.9728 37.1166 32.9155 37.1155 32.8486 37.0911C32.7823 37.0668 32.7445 37.033 32.7227 36.9954C32.7002 36.9567 32.6911 36.9088 32.6914 36.8518C32.6918 36.7946 32.7013 36.7319 32.7129 36.6663C32.723 36.6091 32.7332 36.5478 32.7393 36.4905C32.8046 36.4345 32.8615 36.3592 32.9131 36.2874C32.9709 36.2068 33.0239 36.1313 33.083 36.0774C33.1404 36.025 33.1981 35.9984 33.2666 36.0061Z" fill="#35B777" stroke="black" stroke-width="0.1"></path><path d="M31.7012 36.9194C31.8037 36.914 31.8591 36.946 31.8936 36.9917C31.9124 37.0167 31.9261 37.0477 31.9365 37.0835L31.959 37.2026C31.966 37.2768 31.9485 37.367 31.9111 37.4624C31.874 37.5572 31.8181 37.6542 31.7529 37.7407C31.6877 37.8273 31.6136 37.9017 31.541 37.9536C31.4675 38.0062 31.4009 38.032 31.3477 38.0298L31.2832 38.02C31.2274 38.0054 31.1942 37.9756 31.1729 37.9419C31.1577 37.9178 31.1475 37.8901 31.1406 37.8608L31.1279 37.77C31.1225 37.5805 31.2039 37.3693 31.3213 37.2026C31.3798 37.1197 31.4457 37.0493 31.5127 36.9995C31.5632 36.962 31.6124 36.9375 31.6572 36.9263L31.7012 36.9194Z" fill="#35B777" stroke="black" stroke-width="0.1"></path><path d="M39.3594 32.5071C39.4593 32.5125 39.5066 32.552 39.5332 32.5979C39.548 32.6235 39.557 32.6531 39.5635 32.6838L39.5762 32.7737C39.5762 32.9709 39.491 33.1859 39.3711 33.3508C39.3114 33.4328 39.2446 33.501 39.1777 33.5471C39.1104 33.5935 39.0465 33.6157 38.9922 33.6135L38.9229 33.6038C38.9032 33.5986 38.8869 33.5914 38.873 33.5833C38.8457 33.5672 38.8254 33.5452 38.8105 33.5178C38.7951 33.4893 38.7857 33.4555 38.7793 33.4182L38.7676 33.2961C38.7619 33.1334 38.8481 32.9308 38.9727 32.7688C39.0343 32.6886 39.1041 32.621 39.1729 32.5745C39.2248 32.5393 39.2737 32.5174 39.3174 32.51L39.3594 32.5071Z" fill="#35B777" stroke="black" stroke-width="0.1"></path><path d="M40.9561 31.6187C41.0473 31.6288 41.1021 31.6654 41.1357 31.7144C41.1533 31.7399 41.1665 31.7704 41.1748 31.8062L41.1865 31.9272C41.1837 32.0807 41.0928 32.2749 40.9668 32.4331C40.9044 32.5114 40.8349 32.5786 40.7666 32.6255C40.6975 32.6729 40.6337 32.6972 40.582 32.6968L40.5049 32.689C40.4389 32.675 40.4045 32.6438 40.3848 32.6118C40.3558 32.565 40.3507 32.5051 40.3506 32.4536C40.3575 32.2291 40.4472 32.0101 40.5693 31.8521C40.6782 31.7112 40.8043 31.6287 40.9111 31.6187H40.9561Z" fill="#35B777" stroke="black" stroke-width="0.1"></path><path d="M30.2744 37.8613C30.3009 37.8749 30.3202 37.8964 30.334 37.9248C30.3629 37.9847 30.3648 38.068 30.3633 38.1445C30.3516 38.3341 30.263 38.5323 30.1436 38.6816C30.084 38.7561 30.0175 38.8174 29.9521 38.8584C29.8866 38.8994 29.8247 38.9186 29.7715 38.916C29.6509 38.91 29.5918 38.8648 29.5625 38.8096C29.5388 38.7647 29.531 38.7064 29.5361 38.6406L29.5449 38.5732C29.5811 38.3927 29.6341 38.2225 29.7266 38.0918C29.7949 37.9953 29.8857 37.9191 30.0107 37.877L30.1475 37.8467C30.2069 37.8395 30.2474 37.8475 30.2744 37.8613Z" fill="#35B777" stroke="black" stroke-width="0.1"></path><path d="M14.1982 24.6123C14.2145 24.6197 14.2286 24.6334 14.2412 24.6553C14.2545 24.6784 14.2646 24.7073 14.2715 24.7393L14.2852 24.8398C14.2954 24.9794 14.229 25.1645 14.1309 25.3135C14.0823 25.3872 14.0275 25.4491 13.9746 25.4902C13.9204 25.5324 13.8746 25.5473 13.8418 25.543L13.792 25.5312C13.7788 25.5262 13.7683 25.5202 13.7598 25.5137C13.7429 25.5005 13.7297 25.4826 13.7207 25.458C13.7016 25.4055 13.7008 25.3336 13.6992 25.2393C13.7235 25.107 13.749 24.9704 13.8086 24.8555C13.8528 24.7705 13.9159 24.6977 14.0137 24.6494L14.123 24.6094C14.1586 24.6006 14.1823 24.6051 14.1982 24.6123Z" fill="#35B777" stroke="black" stroke-width="0.1"></path><path d="M8.24121 25.5588C8.25751 25.5673 8.27295 25.5824 8.28613 25.6067C8.31236 25.6552 8.32467 25.7273 8.33301 25.8069C8.31107 25.8741 8.29124 25.9486 8.27051 26.0159C8.24809 26.0886 8.22394 26.1582 8.19141 26.2209C8.14335 26.3135 8.0779 26.3921 7.97461 26.4407L7.85742 26.4788C7.82715 26.4854 7.80471 26.4813 7.78809 26.4729C7.77085 26.4641 7.75491 26.4478 7.74219 26.425C7.72935 26.4019 7.72119 26.3733 7.7168 26.343V26.2493C7.74189 26.0883 7.76697 25.9314 7.83105 25.8049C7.87762 25.7131 7.94484 25.6375 8.05078 25.5901L8.16992 25.552C8.20333 25.5455 8.22544 25.5507 8.24121 25.5588Z" fill="#35B777" stroke="black" stroke-width="0.1"></path><path d="M25.8604 14.8975C25.876 14.9059 25.8885 14.921 25.8975 14.9482C25.9067 14.9764 25.9108 15.0129 25.9131 15.0566C25.915 15.093 25.9155 15.1417 25.918 15.1836C25.8842 15.3213 25.8536 15.4633 25.7891 15.5801C25.7257 15.6947 25.6318 15.783 25.4697 15.8105H25.4277C25.4159 15.8082 25.406 15.8036 25.3975 15.7979C25.3794 15.7857 25.363 15.765 25.3506 15.7354C25.338 15.7051 25.3305 15.6684 25.3281 15.6309L25.3359 15.5186C25.3654 15.3736 25.3921 15.231 25.4531 15.1162C25.4974 15.033 25.5592 14.9651 25.6543 14.9238L25.7607 14.8916C25.8141 14.8819 25.8436 14.8885 25.8604 14.8975Z" fill="#35B777" stroke="black" stroke-width="0.1"></path><path d="M28.2471 10.4685C28.2571 10.4739 28.2672 10.4843 28.2744 10.5076C28.2819 10.5317 28.285 10.563 28.2871 10.6003C28.289 10.6325 28.2894 10.671 28.293 10.7058C28.2755 10.8446 28.2535 10.9787 28.1973 11.0867C28.1558 11.1661 28.0957 11.2322 28.0039 11.2742L27.9014 11.3074V11.3083C27.8653 11.3163 27.8422 11.3116 27.8271 11.3044C27.812 11.2971 27.7986 11.2836 27.7881 11.2625C27.7662 11.218 27.7608 11.1504 27.7656 11.0837C27.7804 10.938 27.8077 10.8011 27.8682 10.6921C27.9273 10.5858 28.0186 10.5035 28.167 10.4675L28.168 10.4685C28.2132 10.4579 28.236 10.4627 28.2471 10.4685Z" fill="#35B777" stroke="black" stroke-width="0.1"></path></svg>