<svg xmlns="http://www.w3.org/2000/svg" width="120" height="137" viewBox="0 0 120 137" fill="none"><path d="M32.1446 94.1195C30.3417 95.2013 28.5387 96.2831 26.6637 97.2927C25.7983 97.7975 25.2935 98.4466 24.8608 99.3841C22.9857 103.351 20.4616 106.74 16.4952 108.831C13.8989 110.202 11.3027 110.346 8.77861 108.543C7.62473 107.75 6.32662 107.029 5.10063 106.379C1.639 104.721 0.196655 101.836 0.629358 98.2302C1.42265 91.0906 4.74004 85.3212 11.3027 81.8596C13.5384 80.6336 15.9182 80.6336 18.0817 82.0759C18.9471 82.6529 19.5962 82.5808 20.4616 82.0759C23.13 80.4173 25.8704 78.9028 28.6109 77.3883C29.6926 76.8114 30.0532 76.0181 30.3417 74.8642C33.0821 61.0898 39.7169 49.4789 50.3903 40.2479C51.0393 39.671 51.472 39.1662 51.3999 38.2286C51.3278 34.9112 51.3278 31.5217 51.3999 28.2043C51.3999 27.411 51.2557 26.8341 50.4624 26.4014C47.2892 24.8869 46.3517 22.0744 46.5681 18.9012C46.9287 12.2664 49.8855 6.85761 55.2943 3.03539C58.2511 0.943993 61.4242 0.511289 64.5974 2.74692C65.8234 3.61233 67.1215 4.33351 68.4917 4.98256C71.1601 6.28067 72.3139 8.51631 72.4582 11.401C72.6745 15.6559 71.3043 19.4781 68.8523 22.8676C66.833 25.6802 67.9869 28.7813 67.6984 31.7381C67.6263 32.4593 68.3475 32.2429 68.7802 32.315C75.9919 33.3968 81.9055 36.8584 86.4489 42.5557C86.9537 43.1326 87.098 43.349 87.8192 42.9163C89.4779 41.9066 91.2087 40.9691 92.9395 39.9594C93.6607 39.5989 93.9491 38.9498 94.2376 38.2286C96.1126 34.2622 98.6368 30.8727 102.603 28.7813C105.199 27.411 107.796 27.1947 110.32 28.9255C111.546 29.7188 112.844 30.5121 114.214 31.1611C117.531 32.7477 118.974 35.4882 118.613 38.9498C117.892 46.3058 114.647 52.1473 107.868 55.681C105.56 56.907 103.108 56.9791 100.945 55.1762C100.295 54.6714 99.9349 54.8156 99.3579 55.1762C96.329 56.9791 93.3001 58.7821 90.199 60.5129C89.4057 60.9456 89.2615 61.5225 89.1173 62.2437C86.3768 76.3066 79.6699 88.0617 68.8523 97.4369C68.2033 98.0139 67.9869 98.5187 67.9869 99.3841C68.059 102.774 67.9869 106.163 67.9869 109.625C67.9869 110.274 67.8427 110.923 68.7802 111.283C72.1697 112.582 73.0351 115.538 72.8188 118.567C72.3861 125.202 69.3571 130.683 63.8041 134.505C60.8473 136.597 57.6741 136.957 54.501 134.649C53.275 133.784 51.9769 133.063 50.6788 132.342C48.0104 130.971 46.9287 128.736 46.7844 125.851C46.6402 122.245 47.5056 118.856 49.5249 115.971C51.3999 113.375 51.6163 110.707 51.6884 107.75C51.6884 105.73 51.3999 104.793 49.1643 104.937C48.1547 105.009 47.0008 104.649 45.9911 104.216C40.7987 101.62 35.3178 99.4562 32.1446 94.1195ZM98.4204 46.0173C95.7521 47.5318 93.0116 49.0462 90.3433 50.6328C89.9106 50.8492 89.4779 51.0655 89.55 51.6425C89.55 53.9502 89.55 56.258 89.55 58.9984C92.8674 57.1234 95.6799 55.4647 98.4925 53.8781C99.2137 53.4454 99.43 53.0127 99.1416 52.2915C98.4204 50.4165 98.6367 48.3972 98.8531 46.45C98.9252 46.3058 98.9252 46.0894 98.9973 45.9452C98.7089 45.9452 98.5646 45.9452 98.4204 46.0173ZM6.39874 105.009C6.54298 105.081 6.75933 105.226 6.90356 105.298C6.97568 105.009 7.0478 104.793 6.75933 104.649C6.32662 95.3455 10.6537 88.855 18.6587 84.4558C15.3413 82.1481 13.4662 82.0038 10.2931 84.3116C5.60545 87.629 3.00923 92.3166 2.36017 98.0139C1.78323 101.548 3.00923 103.278 6.39874 105.009ZM37.2649 83.951C37.1928 86.1866 37.3371 88.4223 37.6976 90.5137C38.7073 96.1388 41.0872 100.899 47.0008 102.846C51.472 104.288 55.727 103.134 59.8377 101.115C68.8523 96.7158 75.2708 89.5761 80.1747 81.0663C85.5835 71.7632 88.9009 61.9552 87.5307 50.9934C86.6653 43.9259 82.7709 38.9498 76.7131 37.7959C72.0976 36.9305 67.6984 38.2286 63.8762 40.6085C47.7219 50.6328 39.7169 65.5611 37.2649 83.951ZM24.9329 92.4608C24.7887 90.0089 24.5723 87.9896 22.553 86.7636C20.6058 85.6097 18.7308 86.4751 17 87.4847C16.423 87.8453 15.8461 88.2059 15.3413 88.6386C11.1585 92.1003 8.85073 96.6436 8.34591 101.98C8.12956 104.072 8.56226 106.307 10.5815 107.533C12.5287 108.759 14.4759 108.038 16.1346 106.956C21.6155 103.495 24.2117 98.3745 24.9329 92.4608ZM117.027 38.8056C116.738 36.7142 116.666 34.5507 114.647 33.541C112.628 32.5314 110.68 33.0362 108.877 34.2622C103.757 37.6517 101.089 42.6278 100.368 48.6856C100.151 50.777 100.584 53.0127 102.531 54.3108C104.478 55.5368 106.57 54.8156 108.3 53.6617C113.709 50.128 116.305 44.9355 117.027 38.8056ZM54.5731 127.654C54.5731 133.351 57.2414 135.443 61.28 133.856C66.5446 131.765 71.737 123.183 71.1601 117.63C70.6552 112.87 67.5542 111.211 63.4435 113.735C57.8184 117.125 55.15 122.317 54.5731 127.654ZM54.2846 21.5695C54.2846 24.6706 54.4289 26.8341 56.5203 27.9159C58.5395 28.9255 60.5588 28.2764 62.2896 27.1226C67.5542 23.4446 70.5831 18.3964 70.7274 11.9058C70.7995 7.14608 67.41 5.19891 63.3714 7.57878C57.6741 10.8962 54.8616 16.0886 54.2846 21.5695ZM35.8947 78.8307C36.3274 78.2537 36.3274 77.6047 36.4717 76.9556C39.2121 64.5514 45.27 54.0223 54.501 45.224C56.5924 43.2768 56.5924 43.349 54.0683 41.8345C53.0586 41.1854 52.1932 40.5364 50.8951 41.6903C41.6641 49.9116 35.5341 60.0802 32.4331 71.9795C31.2792 76.7393 31.4234 76.7393 35.8947 78.8307ZM52.4817 25.4639C52.1211 16.0886 56.1597 9.16536 64.5253 4.83833C60.9915 2.2421 59.0444 2.16999 54.8616 5.5595C50.7509 8.87689 48.5874 13.3482 48.0104 18.6127C47.6498 22.1465 49.0922 24.2379 52.4817 25.4639ZM110.825 31.3775C107.147 28.7813 105.055 28.7813 101.594 31.3775C99.8627 32.6756 98.4925 34.2622 97.3386 35.993C95.103 39.4546 95.1751 39.3825 98.4925 41.4739C99.7906 42.3393 100.223 41.9066 100.872 40.6806C103.036 36.4257 106.137 33.1083 110.825 31.3775ZM52.9865 131.693C52.3375 127.293 53.275 123.471 55.2943 119.865C57.0251 116.692 57.0251 116.692 53.6356 114.817C52.6259 114.24 52.2653 114.457 51.6884 115.322C50.3903 117.341 49.3085 119.433 48.7316 121.74C47.5056 126.789 48.5152 129.169 52.9865 131.693ZM65.8955 26.6177C63.8762 28.2764 62.1454 29.5746 59.9098 29.9351C59.4049 30.0073 59.0444 30.2236 59.0444 30.8006C59.0444 34.1901 59.0444 37.6517 59.0444 41.2576C61.28 40.0316 63.155 39.0219 65.1022 38.0123C65.607 37.7238 65.9676 37.4353 65.9676 36.7863C65.8955 33.6131 65.8955 30.2957 65.8955 26.6177ZM66.2561 99.5283C64.0205 101.043 62.0733 102.197 60.054 103.062C59.5492 103.278 59.3328 103.639 59.3328 104.144C59.3328 107.461 59.3328 110.707 59.3328 114.384C61.3521 112.654 63.2993 111.428 65.5349 110.923C66.184 110.779 66.184 110.346 66.184 109.841C66.2561 106.596 66.2561 103.278 66.2561 99.5283ZM35.7505 82.2202C32.5773 84.0231 29.7647 85.6818 26.9522 87.2684C26.1589 87.7011 25.9425 88.2059 26.3031 89.0713C26.8801 90.5858 26.7358 92.1724 26.5916 93.6868C26.5916 94.1195 25.8704 94.5522 26.5916 94.9128C27.0243 95.1292 27.5291 94.9128 27.9618 94.6965C30.3417 93.2541 32.7216 91.8839 35.1735 90.5137C35.7505 90.2252 35.8947 89.8646 35.8226 89.2156C35.7505 86.9078 35.7505 84.7443 35.7505 82.2202ZM20.9664 83.5904C22.2645 84.4558 23.3463 85.177 24.5002 85.9703C25.005 86.3309 25.2935 86.2588 25.7983 85.9703C28.8272 84.1674 31.8561 82.4365 35.1014 80.5615C33.7312 79.7682 32.6494 79.1913 31.5677 78.4701C30.8465 78.0374 30.3417 78.1816 29.6926 78.5422C26.8079 80.2009 23.9954 81.7875 20.9664 83.5904ZM57.3135 41.6181C57.3135 37.868 57.3135 34.4785 57.3135 31.089C57.3135 30.3678 57.1693 30.0073 56.376 29.7909C55.5827 29.5746 54.7894 28.9976 54.0683 28.5649C53.0586 27.9159 52.8423 28.3486 52.8423 29.3582C52.9144 32.1708 52.9144 35.0555 52.8423 37.868C52.8423 38.7335 53.0586 39.2383 53.8519 39.671C54.9337 40.2479 55.9433 40.8249 57.3135 41.6181ZM57.6741 115.106C57.6741 111.572 57.6741 108.327 57.6741 105.153C57.6741 104.288 57.3135 104.072 56.5924 104.288C55.727 104.504 54.8616 104.793 53.9961 104.865C53.275 105.009 53.2029 105.442 53.2029 106.019C53.2029 107.894 53.2029 109.841 53.2029 111.716C53.2029 112.365 53.4913 112.726 53.9961 113.014C55.15 113.663 56.3039 114.312 57.6741 115.106ZM98.5646 43.7817C94.7424 40.8249 94.7424 40.8249 90.9923 43.0605C90.2711 43.4932 89.6221 43.8538 88.9009 44.2865C88.4682 44.575 87.747 44.6471 87.9634 45.3682C88.324 46.5942 88.8288 47.7481 89.2615 48.9741C89.2615 48.9741 89.7663 48.902 89.9827 48.7578C92.7953 47.0991 95.6799 45.4404 98.5646 43.7817ZM74.6938 35.9209C72.6024 34.4785 70.7995 34.1901 68.9244 34.0458C68.4917 34.0458 67.8427 33.8295 67.7706 34.4785C67.6263 35.1997 67.4821 35.993 67.8427 36.6421C68.1311 37.1469 68.7081 36.7863 69.1408 36.6421C70.7995 36.1372 72.4582 35.9209 74.6938 35.9209ZM38.2746 98.086C37.6255 96.2109 37.0486 94.6965 36.5438 93.182C36.3995 92.7493 36.4716 92.0281 35.8947 92.1003C35.2457 92.1724 34.6687 92.6051 34.1639 92.9657C33.587 93.3984 34.0197 93.8311 34.3081 94.1917C35.2457 95.634 36.3995 96.9321 38.2746 98.086Z" fill="#35B777" stroke="black" stroke-width="0.721173"></path><path d="M37.265 83.9511C39.6448 65.5612 47.722 50.6329 63.8762 40.6807C67.7706 38.3008 72.0976 37.0027 76.7131 37.8681C82.771 39.022 86.6653 43.9981 87.5307 51.0656C88.9009 62.0274 85.5114 71.9075 80.1747 81.1385C75.2708 89.6483 68.8523 96.7879 59.8377 101.187C55.7991 103.134 51.4721 104.36 47.0008 102.918C41.1593 101.043 38.7073 96.2831 37.6977 90.5859C37.4092 88.4223 37.1928 86.1867 37.265 83.9511ZM77.5064 62.5322C77.4343 59.2148 77.4343 55.8253 77.4343 52.5079C77.4343 48.1088 75.0544 46.7385 71.2322 48.9742C65.1743 52.4358 59.1165 55.9696 53.0586 59.5033C49.5249 61.5947 47.7941 64.6958 47.722 68.7343C47.722 75.3691 47.722 81.9318 47.7941 88.5666C47.7941 92.7494 50.3182 94.1917 53.9962 92.1003C60.054 88.6387 66.1119 85.1049 72.1697 81.5712C75.7035 79.4798 77.5785 76.3066 77.5064 72.1238C77.5064 68.9507 77.5064 65.7775 77.5064 62.5322Z" fill="#9DD4B2" stroke="black" stroke-width="0.721173"></path><path d="M24.9328 92.461C24.2116 98.3746 21.6154 103.495 16.1345 106.957C14.4037 108.038 12.5286 108.687 10.5815 107.533C8.49007 106.235 8.12948 104.072 8.34583 101.98C8.85066 96.6438 11.1584 92.1004 15.3412 88.6387C15.846 88.206 16.423 87.8454 16.9999 87.4849C18.7307 86.4752 20.6058 85.6819 22.5529 86.7637C24.6443 87.9176 24.8607 90.009 24.9328 92.461Z" fill="#9DD4B2" stroke="black" stroke-width="0.721173"></path><path d="M117.026 38.8056C116.305 44.9356 113.709 50.128 108.3 53.5896C106.569 54.7435 104.478 55.4647 102.531 54.2387C100.511 52.9406 100.079 50.7049 100.367 48.6135C101.088 42.6278 103.757 37.6517 108.877 34.1901C110.68 33.0362 112.699 32.4593 114.646 33.4689C116.666 34.5507 116.81 36.7142 117.026 38.8056Z" fill="#9DD4B2" stroke="black" stroke-width="0.721173"></path><path d="M54.5727 127.654C55.2217 122.317 57.8901 117.053 63.4431 113.663C67.5538 111.139 70.5827 112.798 71.1597 117.558C71.8087 123.111 66.5442 131.693 61.2796 133.784C57.241 135.443 54.5006 133.423 54.5727 127.654Z" fill="#9DD4B2" stroke="black" stroke-width="0.721173"></path><path d="M54.2847 21.5697C54.8616 16.0888 57.6021 10.8963 63.2993 7.57895C67.41 5.19908 70.7274 7.14624 70.6553 11.906C70.5832 18.3965 67.5542 23.4447 62.2176 27.1227C60.4868 28.3487 58.4675 28.9257 56.4482 27.916C54.4289 26.8343 54.3568 24.6707 54.2847 21.5697Z" fill="#9DD4B2" stroke="black" stroke-width="0.721173"></path><path d="M35.8941 78.8307C31.4229 76.7393 31.2786 76.6672 32.4325 71.9796C35.4614 60.0081 41.5914 49.9117 50.8945 41.6903C52.1926 40.5364 53.058 41.1855 54.0677 41.8345C56.5918 43.349 56.5918 43.2769 54.5004 45.224C45.2694 53.9502 39.2836 64.5515 36.4711 76.9557C36.399 77.6047 36.3268 78.2538 35.8941 78.8307Z" fill="#35B777" stroke="black" stroke-width="0.721173"></path><path d="M52.4818 25.4638C49.0922 24.2378 47.6499 22.1464 48.0105 18.5406C48.5874 13.3481 50.7509 8.80474 54.8616 5.48734C59.0444 2.09783 60.9916 2.16995 64.5253 4.76617C56.1597 9.16532 52.1212 16.0165 52.4818 25.4638Z" fill="#35B777" stroke="black" stroke-width="0.721173"></path><path d="M6.39878 105.009C3.00927 103.279 1.8554 101.548 2.2881 97.9418C2.93715 92.3167 5.53338 87.6291 10.221 84.2396C13.3942 82.0039 15.3413 82.076 18.5866 84.3838C10.5816 88.8551 6.25455 95.3456 6.68725 104.649C6.61514 104.793 6.4709 104.865 6.39878 105.009Z" fill="#35B777" stroke="black" stroke-width="0.721173"></path><path d="M110.824 31.3775C106.137 33.1083 103.036 36.4257 100.872 40.7527C100.295 41.9787 99.8626 42.3393 98.4924 41.546C95.1029 39.3825 95.1029 39.5267 97.3385 36.0651C98.4924 34.2621 99.8626 32.6756 101.593 31.4496C105.127 28.7812 107.219 28.7812 110.824 31.3775Z" fill="#35B777" stroke="black" stroke-width="0.721173"></path><path d="M52.986 131.692C48.5147 129.168 47.505 126.788 48.8032 121.74C49.3801 119.432 50.3897 117.269 51.76 115.322C52.3369 114.529 52.6975 114.312 53.7071 114.817C57.0245 116.692 57.0966 116.692 55.3658 119.865C53.2744 123.543 52.3369 127.365 52.986 131.692Z" fill="#35B777" stroke="black" stroke-width="0.721173"></path><path d="M65.8954 26.6179C65.8954 30.2959 65.8954 33.5412 65.8954 36.8586C65.8954 37.5076 65.607 37.7961 65.03 38.0846C63.0829 39.0942 61.2078 40.1039 58.9722 41.3298C58.9722 37.724 58.9722 34.3345 58.9722 30.8728C58.9722 30.2959 59.3328 30.0796 59.8376 30.0074C62.1453 29.5747 63.8761 28.3487 65.8954 26.6179Z" fill="#9DD4B2" stroke="black" stroke-width="0.721173"></path><path d="M66.2559 99.5283C66.2559 103.278 66.2559 106.596 66.2559 109.913C66.2559 110.418 66.2559 110.851 65.6069 110.995C63.2991 111.428 61.4241 112.726 59.4048 114.457C59.4048 110.779 59.4048 107.461 59.4048 104.216C59.4048 103.711 59.549 103.351 60.126 103.134C62.0731 102.125 64.0203 100.971 66.2559 99.5283Z" fill="#9DD4B2" stroke="black" stroke-width="0.721173"></path><path d="M98.7812 46.378C98.5648 48.3252 98.3485 50.2723 99.0696 52.2195C99.3581 53.0128 99.1417 53.4455 98.4206 53.8061C95.608 55.3927 92.7954 57.0514 89.478 58.9264C89.478 56.2581 89.478 53.9503 89.478 51.5705C89.478 50.9935 89.9107 50.7772 90.2713 50.5608C93.0118 49.0464 95.6801 47.5319 98.3485 45.9453C98.5648 46.0895 98.6369 46.2338 98.7812 46.378Z" fill="#9DD4B2" stroke="black" stroke-width="0.721173"></path><path d="M35.7505 82.2202C35.7505 84.7443 35.6784 86.9078 35.7505 89.0714C35.7505 89.7204 35.6063 90.081 35.1015 90.3695C32.7216 91.7397 30.2696 93.182 27.8897 94.5523C27.457 94.8407 26.9522 94.985 26.5195 94.7686C25.7983 94.408 26.5195 93.9753 26.5195 93.5426C26.6637 91.9561 26.808 90.3695 26.231 88.9271C25.8705 88.0617 26.0868 87.5569 26.8801 87.1242C29.7648 85.6818 32.5774 84.0231 35.7505 82.2202Z" fill="#9DD4B2" stroke="black" stroke-width="0.721173"></path><path d="M20.9668 83.5903C24.0678 81.7874 26.8804 80.2008 29.6209 78.5421C30.2699 78.1815 30.7747 78.0373 31.4959 78.47C32.5056 79.1911 33.6594 79.7681 35.0297 80.5614C31.7844 82.4364 28.7555 84.2394 25.7265 85.9702C25.2938 86.2586 24.9332 86.2586 24.4284 85.9702C23.3467 85.1048 22.1928 84.3836 20.9668 83.5903Z" fill="#35B777" stroke="black" stroke-width="0.721173"></path><path d="M57.3136 41.6182C55.9433 40.8249 54.9337 40.2479 53.8519 39.671C53.0586 39.3104 52.8423 38.7335 52.8423 37.8681C52.9144 35.0555 52.9144 32.1708 52.8423 29.3582C52.8423 28.3486 53.0586 27.9159 54.0683 28.5649C54.7895 29.0698 55.5827 29.5746 56.376 29.7909C57.1693 30.0073 57.3136 30.3679 57.3136 31.0891C57.3136 34.4786 57.3136 37.8681 57.3136 41.6182Z" fill="#35B777" stroke="black" stroke-width="0.721173"></path><path d="M57.6739 115.106C56.3037 114.313 55.1498 113.663 53.9959 113.014C53.4911 112.726 53.2026 112.365 53.2026 111.716C53.2026 109.841 53.2026 107.894 53.2026 106.019C53.2026 105.442 53.2748 105.009 53.9959 104.865C54.8613 104.721 55.7267 104.505 56.5922 104.288C57.3854 104.072 57.746 104.288 57.6739 105.154C57.6018 108.399 57.6739 111.644 57.6739 115.106Z" fill="#35B777" stroke="black" stroke-width="0.721173"></path><path d="M98.5645 43.7818C95.6798 45.4405 92.7951 47.0992 89.9104 48.7579C89.6941 48.9021 89.2614 48.9742 89.1893 48.9742C88.7566 47.8203 88.2517 46.5943 87.8911 45.3684C87.6748 44.5751 88.396 44.5751 88.8287 44.2866C89.4777 43.8539 90.1989 43.4212 90.9201 43.0606C94.7423 40.825 94.7423 40.825 98.5645 43.7818Z" fill="#35B777" stroke="black" stroke-width="0.721173"></path><path d="M74.6939 35.9209C72.3861 35.9209 70.7274 36.1372 69.1408 36.6421C68.7081 36.7863 68.1312 37.1469 67.8427 36.6421C67.4822 35.993 67.5543 35.1997 67.7706 34.4785C67.9149 33.8295 68.4918 34.0458 68.9245 34.0458C70.7996 34.1901 72.6746 34.4785 74.6939 35.9209Z" fill="#35B777" stroke="black" stroke-width="0.721173"></path><path d="M38.2747 98.086C36.3996 97.0042 35.2458 95.7061 34.2361 94.1916C34.0198 93.8311 33.5149 93.3983 34.0919 92.9656C34.6688 92.6051 35.2458 92.1724 35.8227 92.1002C36.3996 92.0281 36.3275 92.7493 36.4718 93.182C37.0487 94.6965 37.6256 96.2109 38.2747 98.086Z" fill="#35B777" stroke="black" stroke-width="0.721173"></path><path d="M6.68725 104.649C7.04783 104.793 6.97572 105.081 6.83148 105.298C6.68725 105.226 6.47089 105.081 6.32666 105.009C6.47089 104.865 6.61513 104.793 6.68725 104.649Z" fill="#EFEFEF" stroke="black" stroke-width="0.721173"></path><path d="M98.4204 46.0174C98.5646 46.0174 98.7089 45.9453 98.9252 45.9453C98.8531 46.0895 98.8531 46.3059 98.781 46.4501C98.6368 46.2338 98.5646 46.0895 98.4204 46.0174Z" fill="#F0F0F0" stroke="black" stroke-width="0.721173"></path><path d="M49.8223 78.6853C49.8313 81.9479 49.8487 85.2107 49.8848 88.491V88.4949C49.8848 89.2164 49.9516 89.7705 50.0771 90.1755C50.2023 90.5791 50.3754 90.8021 50.5664 90.9167C50.756 91.0305 51.0265 91.0751 51.4277 90.991C51.7308 90.9274 52.0905 90.7941 52.5107 90.5828L52.9512 90.3445C59.0845 86.8088 65.2091 83.3508 71.2637 79.7468L71.2646 79.7458L71.5146 79.5945C74.0579 77.9964 75.415 75.573 75.415 72.4841V62.6843L75.373 60.2361C75.3426 57.7788 75.3428 55.3023 75.3428 52.8689C75.3428 52.0142 75.2843 51.3696 75.1631 50.906C75.0413 50.4404 74.8705 50.2117 74.6904 50.1052C74.5117 49.9996 74.2371 49.9628 73.7881 50.0828C73.4522 50.1725 73.0492 50.3418 72.5684 50.5935L72.0605 50.8738C66.1483 54.2625 60.163 57.7217 54.251 61.1824L54.252 61.1833C51.3228 62.927 49.7444 65.4806 49.8135 68.8708V68.8787L49.8223 78.6853ZM77.8672 72.1238C77.8672 76.432 75.9984 79.7243 72.3535 81.8816L72.3516 81.8826C66.2939 85.4162 60.2343 88.9513 54.1748 92.4138H54.1738C52.2916 93.484 50.6097 93.7153 49.3633 92.9988C48.1958 92.3274 47.5534 90.9064 47.4473 88.9675L47.4336 88.573V88.5701C47.3615 81.9331 47.3613 75.3685 47.3613 68.7341C47.3614 64.5682 49.2321 61.2746 52.8799 59.1902C57.4222 56.5405 61.9653 53.8902 66.5088 51.2703L71.0527 48.6609C72.9943 47.526 74.6993 47.2282 75.9453 47.9402C77.1922 48.6528 77.7949 50.2712 77.7949 52.5076C77.7949 55.8977 77.7942 59.2114 77.8662 62.5242L77.8672 62.532V72.1238Z" fill="#F3F3F3" stroke="black" stroke-width="0.721173"></path><path d="M75.7759 62.6762C75.7759 65.9215 75.7759 69.2389 75.7759 72.4842C75.7759 75.8015 74.2615 78.3978 71.4489 80.0565C65.391 83.6623 59.2611 87.1961 53.1311 90.6577C50.607 92.1001 49.5252 91.451 49.5252 88.4942C49.5252 81.9315 49.5252 75.441 49.4531 68.8783C49.4531 65.2724 51.0397 62.6041 54.0686 60.8733C59.9823 57.4116 65.968 53.95 71.8816 50.5605C74.7663 48.9018 75.7038 49.4787 75.7038 52.8683C75.7759 56.1135 75.7759 59.3588 75.7759 62.6762ZM70.5835 66.1378C70.5835 64.1907 70.5835 62.1714 70.5835 60.2242C70.5835 59.7915 70.7277 59.1425 70.1508 59.0703C69.5017 58.9982 69.2133 59.5752 69.069 60.08C68.9248 60.5127 68.9248 61.0175 68.9248 61.4502C68.9248 64.984 68.9248 68.5177 68.9248 72.0515C68.9248 72.6284 68.4921 73.638 69.5017 73.7102C70.4393 73.7823 70.5835 72.8447 70.5835 72.0515C70.5835 70.0322 70.5835 68.085 70.5835 66.1378Z" fill="#F3F3F3"></path><path d="M60.7755 75.0804C58.4678 76.09 56.737 77.6045 56.4485 80.3449C56.3764 80.7776 56.16 81.2825 55.8716 81.6431C55.7273 81.8594 55.3667 81.9315 55.1504 81.9315C54.7177 81.8594 54.7898 81.4988 54.7898 81.0661C55.2225 79.6238 55.6552 78.1814 56.0158 76.667C57.0976 73.1332 58.1072 69.6716 59.189 66.1378C59.4774 65.2003 59.9101 64.3349 60.8477 64.2628C61.7852 64.2628 61.8573 65.2724 62.1458 65.9215C63.3718 68.4456 64.5978 71.0418 65.8237 73.638C66.2565 74.5034 66.617 75.3688 65.6074 75.9458M75.7759 62.6762C75.7759 65.9215 75.7759 69.2389 75.7759 72.4842C75.7759 75.8015 74.2615 78.3978 71.4489 80.0565C65.391 83.6623 59.2611 87.1961 53.1311 90.6577C50.607 92.1001 49.5252 91.451 49.5252 88.4942C49.5252 81.9315 49.5252 75.441 49.4531 68.8783C49.4531 65.2724 51.0397 62.6041 54.0686 60.8733C59.9823 57.4116 65.968 53.95 71.8816 50.5605C74.7663 48.9018 75.7038 49.4787 75.7038 52.8683C75.7759 56.1135 75.7759 59.3588 75.7759 62.6762ZM70.5835 66.1378C70.5835 64.1907 70.5835 62.1714 70.5835 60.2242C70.5835 59.7915 70.7277 59.1425 70.1508 59.0703C69.5017 58.9982 69.2133 59.5752 69.069 60.08C68.9248 60.5127 68.9248 61.0175 68.9248 61.4502C68.9248 64.984 68.9248 68.5177 68.9248 72.0515C68.9248 72.6284 68.4921 73.638 69.5017 73.7102C70.4393 73.7823 70.5835 72.8447 70.5835 72.0515C70.5835 70.0322 70.5835 68.085 70.5835 66.1378Z" stroke="black" stroke-width="0.721173"></path><path d="M54.7895 81.0665C55.2222 79.6242 55.6549 78.1097 56.1597 76.6674C57.2415 73.1336 58.3232 69.672 59.3329 66.1382C59.6214 65.2728 59.9819 64.3353 60.9916 64.2632C61.9291 64.1911 61.9291 65.2728 62.2897 65.9219C63.5157 68.5181 64.7417 71.1143 65.9677 73.6384C66.4004 74.5039 66.761 75.4414 65.7513 75.9462C64.5253 76.6674 64.4532 75.225 64.2369 74.6481C63.8042 73.5663 62.5782 74.2193 62.5782 74.2193C62.0733 74.5798 61.4964 74.7923 60.9195 75.0808C58.5396 76.0904 56.8809 77.6049 56.5924 80.3453C56.5203 80.7781 56.2318 81.2108 56.0155 81.6435C55.8713 81.8598 55.5107 81.9319 55.2943 81.9319C54.7174 81.9319 54.7895 81.4992 54.7895 81.0665ZM58.1069 74.8644C59.7656 73.9269 61.7889 72.8713 63.0149 72.2222C63.0149 72.2222 62.8666 71.9076 62.5782 71.4028C61.7849 70.1047 60.4658 67.2119 60.4658 67.2119C59.7446 69.6639 58.9723 71.9797 58.1069 74.8644Z" fill="#35B777" stroke="black" stroke-width="0.721173"></path><path d="M70.5834 66.1381C70.5834 68.0853 70.5834 70.1045 70.5834 72.0517C70.5834 72.845 70.4392 73.7104 69.5016 73.7104C68.492 73.6383 68.9247 72.6286 68.9247 72.0517C68.8526 68.518 68.8526 64.9842 68.9247 61.4505C68.9247 60.9456 68.9247 60.5129 69.0689 60.0802C69.2132 59.5754 69.5737 58.9985 70.1507 59.0706C70.7997 59.1427 70.5834 59.7918 70.5834 60.2245C70.5834 62.1716 70.5113 64.1188 70.5834 66.1381Z" fill="#35B777" stroke="black" stroke-width="0.721173"></path></svg>