<svg xmlns="http://www.w3.org/2000/svg" width="52" height="55" viewBox="0 0 52 55" fill="none"><path d="M25.4395 43.999L25.502 48.6348L5.05469 35.8799L5.05566 31.8486L25.4395 43.999Z" fill="#9DD4B2" stroke="black" stroke-width="0.1"></path><path d="M41.6396 39.7478L25.6025 48.6414L25.5391 43.9988L41.3379 34.7957L41.6396 39.7478Z" fill="#35B777" stroke="black" stroke-width="0.1"></path><path d="M4.98926 24.4995C5.04769 24.4971 5.10388 24.5116 5.16016 24.5366C5.21711 24.562 5.27292 24.5982 5.33008 24.6372L5.50391 24.7515C6.70569 25.4376 7.90331 26.1318 9.09961 26.8276L12.6895 28.9116C14.628 30.0294 16.5657 31.1568 18.5029 32.2837L24.3145 35.6538C24.4052 35.706 24.5006 35.7532 24.5947 35.8003C24.6896 35.8477 24.7841 35.8951 24.874 35.9468C25.0088 36.0242 25.133 36.1108 25.2344 36.2222L25.3271 36.3423L25.3281 36.3433L25.3486 36.3774L25.3506 36.3804C25.3902 36.4448 25.4211 36.5141 25.4434 36.5864C25.54 38.931 25.5022 41.2731 25.46 43.6167L25.4287 43.7466L25.3975 43.8315L25.3828 43.855L25.3789 43.8608C25.3676 43.879 25.3543 43.896 25.3389 43.9106L25.2871 43.9478L25.2861 43.9487L25.2734 43.9556H25.1973C25.0681 43.942 24.9564 43.8864 24.8467 43.814C24.7916 43.7776 24.7379 43.7379 24.6826 43.6978L24.5127 43.5825C21.7753 41.9588 19.0498 40.3152 16.3271 38.6665L8.1582 33.7202C7.66594 33.4256 7.17569 33.1273 6.68555 32.8296L5.21387 31.9419L5.21094 31.9409L5.14258 31.8999L5.07812 31.853L5.07715 31.8521L4.99121 31.7769L4.89258 31.6626C4.86462 31.6256 4.83968 31.5866 4.81641 31.5464V24.5571C4.88008 24.5194 4.93676 24.5018 4.98926 24.4995Z" fill="#35B777" stroke="black" stroke-width="0.1"></path><path d="M21.8691 15.7971C21.9094 15.7931 21.9685 15.8034 22.0537 15.8469V15.8479L27.4941 19.051C29.2728 20.0878 31.0522 21.1231 32.832 22.1575L38.1748 25.2581C39.0453 25.7632 39.9208 26.2546 40.7891 26.762V26.7629C40.8435 26.7958 40.9025 26.8247 40.958 26.8528C41.0143 26.8813 41.0682 26.909 41.1172 26.9417C41.2059 27.0008 41.2742 27.0748 41.3086 27.1887C40.554 27.7333 39.7444 28.1823 38.9336 28.637L38.1143 29.1038C37.3292 29.562 36.5933 30.0854 35.7344 30.3879C35.6637 30.3961 35.5921 30.3964 35.5215 30.3879H35.5205L35.4453 30.3762H35.4463C35.2862 30.3396 35.1318 30.2824 34.9873 30.2053L34.8457 30.1213L34.8438 30.1204L23.2373 23.3909C20.4728 21.7845 17.7143 20.1573 14.9238 18.5979L14.9209 18.5784V18.5774L14.9199 18.5295C14.9248 18.484 14.9457 18.4474 14.9756 18.4143C14.9965 18.3912 15.0212 18.3699 15.0488 18.3499L15.1387 18.2903C15.9944 17.7416 16.8756 17.2358 17.7656 16.7405L18.6582 16.2473C18.688 16.2308 18.7196 16.2176 18.752 16.2073L18.8516 16.1858H18.9619C19.0608 16.2262 19.1265 16.277 19.1709 16.3342C19.2164 16.3931 19.2421 16.4619 19.2559 16.5374C19.2697 16.6133 19.2713 16.6949 19.2705 16.7805L19.2715 17.0393C19.299 17.4761 19.3702 17.7681 19.5596 17.9465C19.749 18.125 20.0444 18.1768 20.4854 18.1741C20.9 18.1741 21.1859 18.1138 21.3701 17.9319C21.5078 17.7959 21.582 17.5993 21.6182 17.3313L21.6426 17.0383C21.6497 16.8866 21.6429 16.7295 21.6436 16.5813C21.6441 16.4683 21.6488 16.3576 21.666 16.2493L21.6885 16.1428V16.1418C21.7021 16.0859 21.7115 16.0331 21.7266 15.9788C21.7413 15.9255 21.7587 15.8807 21.7822 15.8489C21.8044 15.8189 21.8312 15.8009 21.8691 15.7971Z" fill="#9DD4B2" stroke="black" stroke-width="0.1"></path><path d="M10.6514 21.0156L10.6523 21.0166L10.6787 21.0312C14.504 23.3085 18.367 25.5234 22.2227 27.749L26.0742 29.9814C27.3118 30.7017 28.5576 31.4029 29.7871 32.1338V32.1348C29.8943 32.1987 30.0091 32.2566 30.1211 32.3145C30.2338 32.3727 30.3449 32.4321 30.4482 32.499C30.6285 32.6158 30.7841 32.7558 30.8818 32.958L30.9199 33.0488L30.9219 33.0527C30.927 33.0639 30.9297 33.0759 30.9326 33.0879V33.0889L30.9365 33.0977C30.9378 33.1005 30.9383 33.1036 30.9395 33.1064C30.8558 33.2712 30.7261 33.3737 30.5742 33.458C30.4951 33.5019 30.4121 33.5406 30.3271 33.5811C30.285 33.6011 30.2422 33.6217 30.2002 33.6436L30.0771 33.7139C29.4209 34.123 28.7526 34.51 28.0811 34.8926L26.0654 36.0449C25.9537 36.1098 25.8479 36.1779 25.7354 36.2295C25.6242 36.2804 25.511 36.3125 25.3887 36.3066H25.3877L25.3213 36.3008L18.5244 32.3828C16.9453 31.4707 15.3675 30.5552 13.7891 29.6406L9.04785 26.9053C7.66075 26.1111 6.318 25.2145 4.8623 24.5264C5.61966 24.0425 6.14543 23.7469 6.75391 23.2891C6.9172 23.2459 7.0291 23.2525 7.10547 23.2822C7.18124 23.3118 7.23037 23.3678 7.2627 23.4424C7.29564 23.5184 7.31047 23.6113 7.31836 23.707C7.32227 23.7545 7.32418 23.802 7.32617 23.8477L7.33301 23.9766C7.35316 24.2092 7.38098 24.4098 7.4248 24.5771C7.46857 24.7443 7.52939 24.8819 7.62012 24.9863C7.78219 25.1725 8.0263 25.2417 8.38574 25.2129L8.54688 25.1943C8.80807 25.1568 9.02016 25.0711 9.16699 24.9189C9.31458 24.766 9.39015 24.552 9.3916 24.2725V22.458C9.3916 22.0821 9.42045 21.7316 9.68848 21.4561L9.72363 21.4248H9.72461L9.84473 21.3252L9.84668 21.3232C10.0651 21.1293 10.3441 21.0177 10.6357 21.0068L10.6514 21.0156Z" fill="#9DD4B2" stroke="black" stroke-width="0.1"></path><path d="M41.3428 28.1943V28.1953C41.4285 30.3406 41.406 32.4904 41.3555 34.6396C41.3476 34.6644 41.3387 34.6888 41.3271 34.7119L41.2842 34.7812L41.2832 34.7832C41.2732 34.7983 41.2615 34.8121 41.249 34.8252C41.1415 34.9227 41.0235 35.0077 40.8965 35.0771L40.7666 35.1416L40.7617 35.1436C39.1304 36.0945 37.4946 37.0378 35.8574 37.9785L30.9443 40.8008C30.1306 41.2697 29.3456 41.8031 28.5508 42.3027C27.854 42.7407 27.1474 43.1539 26.4004 43.4805L26.0781 43.6152C25.8686 43.698 25.7631 43.7687 25.5156 43.8955C25.5153 43.8798 25.516 43.8629 25.5166 43.8467L25.5176 43.8027C25.5176 43.177 25.5079 42.5545 25.4932 41.9336L25.3838 38.2148C25.3686 37.6037 25.3571 36.9913 25.3555 36.376L25.3848 36.3584L25.3857 36.3594L30.9541 33.1514L30.9668 33.1436L30.9736 33.1289L31.0117 33.0547C31.1096 32.8821 31.2567 32.7694 31.4238 32.6758C31.5074 32.629 31.5948 32.5872 31.6836 32.5449L31.9473 32.4111C32.9661 31.8255 33.936 31.1685 34.9951 30.6758L35.4541 30.4756H35.4551C35.5544 30.435 35.6564 30.3953 35.7588 30.3574V30.3584L35.7666 30.3545C37.3659 29.4358 38.9618 28.5116 40.5664 27.6016L40.5654 27.6006C40.6315 27.5647 40.697 27.5256 40.7607 27.4863C40.8251 27.4467 40.889 27.4073 40.9541 27.373C41.0696 27.3124 41.1881 27.2685 41.3193 27.2598L41.3428 28.1943Z" fill="#9DD4B2" stroke="black" stroke-width="0.1"></path><path d="M51.0166 41.137C51.016 41.1386 51.014 41.1414 51.0117 41.1448C51.0068 41.152 50.9986 41.1608 50.9873 41.1711C50.9775 41.1801 50.9666 41.1878 50.9551 41.1975C50.8306 41.0008 50.7998 40.7919 50.8008 40.5725C50.8013 40.4532 50.8108 40.3332 50.8184 40.2102C50.8221 40.1491 50.8258 40.0874 50.8271 40.0256L50.8232 39.8411C50.8135 39.6799 50.8053 39.5533 50.7891 39.4612C50.7734 39.3727 50.7475 39.2965 50.6865 39.26C50.6244 39.2229 50.5467 39.2384 50.4639 39.2708C50.4209 39.2876 50.3717 39.3111 50.3154 39.3401L50.124 39.4436C48.6591 40.2575 47.2077 41.0943 45.7617 41.9377L41.4316 44.4729C38.5337 46.158 35.6237 47.8223 32.7236 49.509L29.8271 51.2043C29.5243 51.3827 29.234 51.5545 28.876 51.5188L28.8447 51.5061C28.1092 51.2092 27.4032 50.8768 26.833 50.3186C27.2256 49.9971 27.6573 49.7378 28.1006 49.4915C28.4446 49.3003 28.796 49.1152 29.1377 48.9143L29.4756 48.7073L30.1709 48.259L30.1719 48.26L30.1807 48.2522C30.5337 47.8853 30.9471 47.6116 31.3818 47.3665C31.5992 47.2439 31.8214 47.1284 32.0439 47.012C32.2661 46.8957 32.4891 46.7783 32.7061 46.6516L32.7051 46.6506C32.73 46.6368 32.7572 46.6227 32.7842 46.6047L32.7832 46.6038L32.8867 46.5442L32.8857 46.5432C35.1996 45.1732 37.5218 43.8178 39.8516 42.4758L42.1846 41.1389L42.2363 41.1086L42.292 41.0764L42.293 41.0774C42.7495 40.834 43.1849 40.5362 43.626 40.2747C44.0698 40.0114 44.526 39.7805 45.0371 39.6604L45.0439 39.6584L45.0508 39.6545C45.8668 39.1838 46.6889 38.7222 47.502 38.2454L48.3115 37.762C48.492 37.6523 48.651 37.5872 48.8027 37.5803C48.9148 37.5753 49.0266 37.6017 49.1436 37.6721L49.2627 37.7581C49.2915 37.7829 49.3225 37.8049 49.3555 37.8235L49.4609 37.8694L49.4629 37.8704C50.3407 38.1194 50.7674 38.5774 50.958 39.1448C51.1505 39.7177 51.105 40.4085 51.0176 41.1282L51.0664 41.135L51.0166 41.1282V41.137Z" fill="#35B777" stroke="black" stroke-width="0.1"></path><path d="M26.7461 0.488281C26.8859 0.492562 27.0322 0.527767 27.2061 0.586914L27.3896 0.65332L27.3906 0.654297C27.8461 0.818953 28.26 1.08017 28.6055 1.41895L20.0381 6.39648L9.04004 12.7734C6.66854 14.1447 4.29413 15.5101 1.91699 16.8701L1.89258 16.8848L1.8916 16.9131C1.87672 17.6769 1.9629 18.2694 2.02441 18.9297C1.69405 18.7626 1.38579 18.6196 1.08496 18.4814C0.767878 18.3359 0.459446 18.1949 0.142578 18.0332C0.13062 17.6871 0.114768 17.3426 0.0976562 16.999L0.0498047 15.9385C0.0471323 15.8546 0.0898937 15.8005 0.160156 15.7529C0.195956 15.7287 0.23714 15.7071 0.28125 15.6855L0.413086 15.6182C2.58494 14.3568 4.7601 13.0964 6.93848 11.8369C7.03891 11.8896 7.13619 11.9496 7.23438 12.0117C7.33966 12.0783 7.44676 12.1473 7.55762 12.208C7.75261 12.3147 7.96366 12.3987 8.21191 12.4082L8.32129 12.4072C8.7207 12.3872 9.02167 12.2956 9.22754 12.1016C9.43394 11.9069 9.53559 11.6176 9.55566 11.2217L9.50586 11.2188L9.55664 11.2217L9.55566 11.2168C9.54709 11.0118 9.55373 10.8065 9.57422 10.6025L9.59961 10.3994C9.6019 10.3846 9.60558 10.3697 9.61035 10.3555L9.6123 10.3477V10.332C9.62313 10.3054 9.6367 10.2802 9.6543 10.2578L9.72168 10.1953L19.1006 4.79102C19.1911 4.85225 19.2798 4.91776 19.3691 4.98438C19.4658 5.05641 19.5642 5.129 19.667 5.19434C19.8475 5.30902 20.0442 5.40255 20.2773 5.43555L20.3799 5.44629C20.7663 5.47004 21.0807 5.38697 21.3027 5.19434C21.4974 5.02538 21.6154 4.7772 21.6523 4.45898L21.6631 4.31836C21.6695 4.16688 21.6622 4.01231 21.6611 3.86426C21.6601 3.71457 21.6655 3.56834 21.6934 3.4248L21.6436 3.41504L21.6943 3.4248V3.41504C21.6943 3.40712 21.6956 3.39779 21.6992 3.38477C21.702 3.37482 21.7072 3.35604 21.7109 3.34082L21.7119 3.3418L21.7266 3.29004C21.7387 3.26182 21.7552 3.23553 21.7754 3.21289L21.8467 3.15527C22.9271 2.53426 24.0141 1.92305 25.0918 1.2959L26.165 0.663086L26.166 0.662109C26.3848 0.530918 26.5623 0.482718 26.7461 0.488281Z" fill="#9DD4B2" stroke="black" stroke-width="0.1"></path><path d="M50.8115 39.0176C50.8359 39.0281 50.8598 39.0534 50.877 39.1113C50.8856 39.1408 50.8919 39.1776 50.8955 39.2217L50.8984 39.3779C50.8761 40.0024 50.8969 40.635 50.8975 41.2549C50.6002 41.5432 50.2608 41.768 49.9053 41.9717C49.7247 42.0751 49.5405 42.1737 49.3564 42.2725L48.8096 42.5762C45.6269 44.4298 42.4423 46.2804 39.2559 48.1279L29.6904 53.6611C29.6202 53.702 29.5527 53.757 29.4873 53.8086C29.4206 53.8612 29.3552 53.911 29.2871 53.9492C29.2196 53.9871 29.1512 54.0118 29.0781 54.0146C29.0114 54.0172 28.9378 54.0003 28.8535 53.9551C28.8377 53.25 28.7814 52.553 28.8457 51.8574L28.8818 51.5547V51.5479C28.8818 51.5355 28.8837 51.5212 28.8867 51.5049C28.8875 51.5004 28.8885 51.495 28.8896 51.4893C29.2532 51.4487 29.5686 51.3095 29.8633 51.1377C30.0155 51.0489 30.1627 50.9508 30.3086 50.8545L30.748 50.5762C32.9074 49.3369 35.0614 48.0889 37.2139 46.8379L43.6689 43.082C44.8003 42.4245 45.9321 41.7669 47.0635 41.1094L50.458 39.1377V39.1367C50.5463 39.0836 50.6206 39.0463 50.6816 39.0264C50.7435 39.0061 50.7848 39.0061 50.8115 39.0176Z" fill="#9DD4B2" stroke="black" stroke-width="0.1"></path><path d="M19.9404 41.7212C20.2256 41.7273 20.5132 41.8003 20.8057 41.9282L21.0996 42.0737V42.0747C21.9339 42.5263 22.826 43.4667 23.418 44.5396C23.9734 45.5462 24.2588 46.6574 23.998 47.5825L23.9385 47.7651C23.7427 48.2913 23.3711 48.655 22.9287 48.9487C22.4957 49.2362 22.0026 49.4529 21.541 49.6919C21.5351 49.6813 21.5309 49.6697 21.5283 49.6577C21.5236 49.6352 21.5252 49.6119 21.5332 49.5903C22.3034 47.9111 21.7408 46.5033 20.8809 45.186L20.4971 44.6265C20.2502 44.269 19.9536 43.9489 19.6162 43.6763L19.4688 43.562H19.4678C19.2915 43.4346 19.1036 43.3244 18.9062 43.2339L18.7061 43.1499C18.6361 43.1232 18.5649 43.0991 18.4932 43.0776L18.2764 43.021L18.0615 42.9839C17.9907 42.9733 17.9215 42.9625 17.8525 42.9487L17.8428 42.9985L17.8525 42.9478H17.8252C17.7752 42.9416 17.7272 42.9252 17.6836 42.8999C17.6543 42.8829 17.628 42.8615 17.6045 42.8374C17.8965 42.6577 18.2013 42.4851 18.4932 42.2983L18.7959 42.0952C19.1817 41.8247 19.5611 41.7132 19.9404 41.7212Z" fill="#35B777" stroke="black" stroke-width="0.1"></path><path d="M7.7832 34.5999C8.14818 34.6197 8.50891 34.7494 8.8584 34.9612L9.00781 35.0569C10.5807 36.1238 11.4714 37.6133 11.6963 39.4622L11.7324 39.8362V39.8372C11.7466 40.0005 11.7289 40.1677 11.7012 40.3391C11.6742 40.5055 11.636 40.6822 11.6133 40.8528C11.3939 41.3216 11.0517 41.6266 10.6572 41.8713C10.4586 41.9946 10.2469 42.1025 10.0312 42.2083C9.832 42.3059 9.62854 42.4024 9.43066 42.5071C9.40346 42.4436 9.38878 42.3753 9.38965 42.3059C9.39049 42.2413 9.40455 42.1775 9.42969 42.1184L9.46094 42.0559C9.67285 41.5617 9.69464 40.9542 9.5791 40.3186C9.4634 39.6824 9.20893 39.0133 8.86328 38.3948C8.51767 37.7764 8.07996 37.2059 7.5957 36.7659C7.17217 36.381 6.71102 36.0936 6.24316 35.9631L6.04199 35.9172H6.03906C5.87029 35.8972 5.70975 35.8329 5.57324 35.7317C5.54658 35.7091 5.52303 35.6835 5.50098 35.6565C5.83676 35.4465 6.19108 35.2507 6.51465 35.0071L6.51562 35.0081C6.94102 34.6973 7.36689 34.5773 7.7832 34.5999Z" fill="#35B777" stroke="black" stroke-width="0.1"></path><path d="M17.6816 42.8687L17.8125 42.8804H17.8164C19.5815 43.017 20.5314 44.2298 21.2705 45.6538L21.416 45.9419C21.8338 46.7855 22.1754 47.6952 21.9531 48.6763L21.9004 48.8735C21.8532 49.0301 21.7843 49.1725 21.709 49.313C21.6363 49.4486 21.5551 49.586 21.4854 49.729C21.1138 50.0293 20.7276 50.1568 20.3447 50.1538C20.0065 50.1511 19.6683 50.0465 19.3438 49.8647L19.2051 49.7827C17.5013 48.7014 16.5513 47.1462 16.3516 45.1743L16.3223 44.7739C16.2992 44.3149 16.4568 43.8901 16.6504 43.4712C16.7912 43.3494 16.9193 43.2241 17.0635 43.1128C17.2079 43.0014 17.3627 42.9106 17.5459 42.8667C17.593 42.8667 17.6383 42.867 17.6816 42.8687Z" fill="#9DD4B2" stroke="black" stroke-width="0.1"></path><path d="M5.7041 35.7278H5.70508C7.00808 35.9304 8.24068 37.0475 8.98926 38.4163C9.73645 39.7825 9.98954 41.3796 9.36523 42.5432C8.94672 42.918 8.51866 43.07 8.09277 43.0598C7.71669 43.0508 7.33876 42.9161 6.96875 42.6907L6.81152 42.5891L6.50781 42.3713C5.13059 41.3306 4.31714 39.9429 4.12207 38.2131L4.08984 37.8372C4.0469 37.1167 4.24765 36.4832 4.79102 35.9866L4.79883 35.9788L4.80273 35.97C4.81371 35.9454 4.83043 35.932 4.85449 35.9221C4.86742 35.9168 4.88239 35.9127 4.89941 35.9084C4.91311 35.905 4.93016 35.9011 4.94629 35.8967H4.95996L4.9668 35.8938C4.99568 35.8852 5.0211 35.8692 5.04395 35.8499C5.13033 35.8633 5.20406 35.8462 5.26953 35.8137C5.33223 35.7825 5.39118 35.7356 5.44336 35.6985L5.7041 35.7278Z" fill="#9DD4B2" stroke="black" stroke-width="0.1"></path><path d="M27.709 44.0166C27.8518 44.0346 28.0022 44.0945 28.1533 44.1689C28.2287 44.2061 28.3037 44.247 28.377 44.2871L28.5908 44.4023C29.3463 44.7868 30.0752 45.2308 30.8516 45.5938L31.1875 45.7432C31.4577 45.8587 31.7139 46.0037 31.9678 46.1553C32.0942 46.2307 32.2204 46.3085 32.3477 46.3848L32.7334 46.6064L32.8076 46.6465L31.4902 47.3945C31.0442 47.647 30.6134 47.9451 30.1553 48.1426C29.7179 47.8364 29.2681 47.5498 28.8115 47.2773L28.3438 47.0039L27.4062 46.4824L27.4033 46.4805L27.1982 46.374C27.0652 46.2967 26.9396 46.2071 26.8232 46.1064L26.6562 45.9473C26.4147 45.6541 26.4407 45.2854 26.5869 44.9453L26.6572 44.8008C26.7697 44.5912 26.9071 44.3785 27.0801 44.2266C27.2303 44.0946 27.4061 44.0093 27.6162 44.0107L27.709 44.0166Z" fill="#9DD4B2" stroke="black" stroke-width="0.1"></path><path d="M39.6748 36.8896C39.8279 36.8963 39.9775 36.9344 40.1143 37.001L40.2471 37.0771L40.248 37.0781C40.6197 37.3102 40.9932 37.5391 41.3691 37.7637L42.5039 38.4258C42.8516 38.624 43.2181 38.8576 43.5879 39.0605C43.9556 39.2624 44.3375 39.439 44.7354 39.5391C44.7365 39.54 44.7367 39.5415 44.7373 39.542C44.7431 39.5463 44.7502 39.5497 44.7559 39.5527L44.7578 39.5537C44.6881 39.6056 44.6065 39.6522 44.5205 39.6973L44.1797 39.873H44.1787L43.5059 40.2578L42.1826 41.0146C42.186 41.0127 42.1851 41.015 42.1729 41.0146C42.162 41.0143 42.1473 41.0119 42.1289 41.0078C42.092 40.9997 42.0465 40.9844 41.999 40.9668L41.7695 40.8711L41.7666 40.8701L41.5264 40.7744L41.292 40.6641C41.0825 40.5566 40.8794 40.4372 40.6836 40.3066L40.4893 40.1719L40.0029 39.8086L39.5146 39.4424C39.4356 39.386 39.3483 39.3335 39.2607 39.2822C39.1728 39.2308 39.0844 39.1808 38.999 39.127C38.8707 39.0459 38.7533 38.9586 38.6621 38.8545L38.5801 38.7441C38.4765 38.5761 38.4634 38.39 38.501 38.2021C38.5293 38.0608 38.5858 37.9199 38.6523 37.7881L38.7217 37.6592C38.8256 37.475 38.9552 37.2818 39.1143 37.1348C39.2723 36.9888 39.4568 36.8903 39.6748 36.8896Z" fill="#9DD4B2" stroke="black" stroke-width="0.1"></path><path d="M26.7617 50.5081C27.0883 50.6812 27.4213 50.8327 27.7529 50.9827C28.1024 51.1408 28.4504 51.2979 28.7891 51.4807L28.8105 51.5793C28.9807 52.3684 29.0575 53.148 28.7676 53.9182C28.4806 53.7612 28.194 53.6031 27.9062 53.4456L26.9863 52.9504C26.8851 52.8962 26.8289 52.8299 26.7979 52.7542C26.782 52.7153 26.772 52.6727 26.7666 52.6262L26.7627 52.4749V52.4739C26.7712 52.1133 26.7674 51.781 26.7637 51.4495C26.7603 51.1427 26.7573 50.8362 26.7617 50.5081Z" fill="#9DD4B2" stroke="black" stroke-width="0.1"></path><path d="M21.7236 3.48535L21.7314 3.73926C21.7336 3.81557 21.7371 3.89147 21.7402 3.9668L21.749 4.19238V4.19336C21.7564 4.37453 21.7487 4.55648 21.7256 4.73633L21.7744 4.74219L21.7246 4.73633V4.73926C21.7163 4.86354 21.6779 4.98394 21.6123 5.08984C21.5471 5.19502 21.4572 5.28295 21.3506 5.3457C20.8114 5.61724 20.0764 5.63927 19.5791 5.28711L19.4824 5.21191C19.389 5.13085 19.3094 5.0354 19.2461 4.92969L19.1885 4.82031V4.81934C19.1771 4.79496 19.1674 4.76994 19.1602 4.74414L19.1445 4.66504C19.1426 4.59404 19.1441 4.52304 19.1475 4.45215L19.166 4.23535V4.23242C19.1759 4.07636 19.1797 3.92042 19.1797 3.76465C19.1797 3.754 19.1785 3.72539 19.1768 3.69434C19.175 3.66165 19.1725 3.62186 19.1719 3.58301C19.1713 3.54358 19.1726 3.50698 19.1758 3.48047C19.1767 3.47313 19.1778 3.46723 19.1787 3.46289C19.2212 3.44754 19.2665 3.44153 19.3115 3.44629C19.3607 3.45152 19.4084 3.46822 19.4492 3.49609V3.49707L19.4541 3.5C20.1387 3.88017 20.7862 3.77234 21.4121 3.50781L21.6797 3.38574C21.6861 3.38269 21.6933 3.37899 21.7031 3.375C21.7095 3.37242 21.7163 3.36849 21.7236 3.36523V3.48535Z" fill="#35B777" stroke="black" stroke-width="0.1"></path><path d="M9.61426 11.1672C9.63593 11.4833 9.61705 11.7605 9.50684 11.9797C9.41176 12.1689 9.24577 12.3204 8.96484 12.4153L8.83789 12.4524C8.42965 12.5541 8.05693 12.5465 7.74023 12.4329C7.42806 12.3209 7.16728 12.1046 6.97754 11.7834C6.98989 11.5881 7.00294 11.3922 7.01562 11.1965C7.02816 11.0031 7.03954 10.8096 7.05176 10.6165C7.08325 10.5902 7.11446 10.5652 7.14551 10.5491C7.1807 10.5309 7.20755 10.5282 7.23047 10.5374V10.5364C7.94187 10.8235 8.61936 10.7539 9.28613 10.51L9.57129 10.3958L9.57812 10.3918L9.61426 11.1672Z" fill="#35B777" stroke="black" stroke-width="0.1"></path><path d="M7.87988 9.45386C8.26114 9.35596 8.60602 9.3705 8.90234 9.49292C9.1924 9.61276 9.44004 9.83784 9.63184 10.1697L9.58203 10.2917L9.50391 10.3679C9.18199 10.6655 8.84432 10.8198 8.49121 10.8513C8.18142 10.8789 7.85583 10.8123 7.51465 10.6599L7.36719 10.5896L7.36816 10.5886L7.35938 10.5857L7.18359 10.5466C7.13802 10.5402 7.09201 10.5386 7.0459 10.5378C6.98085 10.2082 7.04076 9.9819 7.18066 9.81812C7.29145 9.68843 7.45577 9.5933 7.66113 9.52026L7.87988 9.45386Z" fill="#9DD4B2" stroke="black" stroke-width="0.1"></path><path d="M19.9668 2.50635C20.3674 2.39358 20.7103 2.3949 21.0059 2.50244C21.2955 2.60785 21.5448 2.81739 21.7607 3.1333C21.7495 3.17505 21.7378 3.21701 21.7256 3.25928L21.6035 3.39014C21.2868 3.69861 20.9162 3.85193 20.5088 3.85107C20.106 3.85016 19.6628 3.69801 19.1953 3.39014C19.1718 3.1174 19.2507 2.93258 19.3857 2.79932C19.492 2.69459 19.6353 2.61893 19.7979 2.56006L19.9668 2.50635Z" fill="#9DD4B2" stroke="black" stroke-width="0.1"></path><path d="M14.4365 18.6821C14.5801 18.6031 14.7048 18.5429 14.8447 18.6284L14.8545 18.6343L14.8643 18.6353C15.2537 18.6889 15.5966 18.8464 15.9258 19.0386C16.0901 19.1346 16.2506 19.2387 16.4121 19.3433C16.4929 19.3956 16.5745 19.4483 16.6562 19.4995L16.9033 19.6479C18.6283 20.6341 20.3496 21.6271 22.0693 22.6226L27.2275 25.6138L34.6865 29.9487C34.9592 30.1088 35.2353 30.3052 35.5732 30.3511L35.4912 30.3999L30.959 33.0337H30.958L30.9365 33.0454C30.6327 32.7189 30.2767 32.4737 29.9053 32.2583C29.7138 32.1473 29.5178 32.0432 29.3232 31.9399L28.7461 31.6235C26.8826 30.5294 25.0158 29.4413 23.1475 28.356L17.541 25.104L11.1094 21.3872C11.0637 21.3609 11.0136 21.3375 10.9688 21.3149C10.9227 21.2918 10.8804 21.2687 10.8438 21.2417C10.7738 21.1902 10.7237 21.1244 10.7197 21.0103C10.7207 21.0036 10.7222 20.997 10.7246 20.9907L10.6787 20.9731L10.7256 20.9907L10.7266 20.9868C10.7489 20.9095 10.7879 20.8376 10.8408 20.7769C10.8936 20.7164 10.9589 20.668 11.0322 20.6353L11.0127 20.5894L11.0332 20.6353L11.0371 20.6333C11.892 20.1492 12.732 19.6412 13.582 19.1567L14.4355 18.6821H14.4365Z" fill="#35B777" stroke="black" stroke-width="0.1"></path><path d="M30.0049 35.7607C29.9973 35.6889 30.0111 35.6161 30.0439 35.5518C30.0685 35.5037 30.1034 35.4618 30.1455 35.4287L30.1904 35.3984C32.3196 34.1764 34.4388 32.951 36.6699 31.6621V35.4756C36.6818 35.6035 36.6544 35.7321 36.5908 35.8438C36.543 35.9276 36.4767 35.9992 36.3975 36.0527L36.3135 36.0996L36.3105 36.1016C35.3153 36.6713 34.321 37.2439 33.3281 37.8184L30.3535 39.5479C30.2848 39.5877 30.2273 39.6145 30.1807 39.627C30.134 39.6394 30.1033 39.6365 30.083 39.627C30.0638 39.6178 30.0442 39.5975 30.0293 39.5537C30.0142 39.5093 30.0059 39.4451 30.0059 39.3564V35.7666L30.0049 35.7607Z" fill="#35B777" stroke="black" stroke-width="0.1"></path><path d="M33.4141 49.7544C33.4123 49.8776 33.4191 50.0018 33.4268 50.1206C33.4359 50.2619 33.4431 50.396 33.4277 50.52C33.4125 50.6432 33.3752 50.7545 33.2998 50.8511C33.2433 50.9235 33.1636 50.9901 33.0498 51.0474L32.9238 51.1021C32.8531 51.1282 32.7951 51.148 32.7471 51.1587C32.6987 51.1694 32.6667 51.1688 32.6445 51.1606C32.6249 51.1533 32.6055 51.1372 32.5879 51.0981C32.5788 51.0779 32.5706 51.0526 32.5635 51.021L32.5459 50.9058V50.9048L32.5361 50.7837C32.5238 50.5089 32.5803 50.2967 32.708 50.1343C32.8467 49.9581 33.0758 49.8327 33.4141 49.7544Z" fill="#35B777" stroke="black" stroke-width="0.1"></path><path d="M44.9268 43.0796C45.017 43.0613 45.0543 43.0763 45.0703 43.0903C45.087 43.105 45.0969 43.1329 45.0967 43.1821C45.0964 43.2305 45.0871 43.2824 45.0801 43.3354C45.0768 43.3606 45.0738 43.3874 45.0742 43.4106C45.0745 43.4264 45.0786 43.445 45.0859 43.4634V43.4644C45.1542 43.8055 45.0845 44.0161 44.9551 44.1519C44.8558 44.2559 44.7166 44.3214 44.5605 44.3647L44.3994 44.4019C44.3292 44.4149 44.2982 44.4014 44.2832 44.3882C44.2665 44.3733 44.2542 44.3455 44.25 44.2974C44.2459 44.25 44.2505 44.1952 44.2539 44.1362C44.2555 44.1081 44.2569 44.0782 44.2568 44.0493L44.25 43.9673C44.2004 43.6991 44.2661 43.5009 44.3916 43.3589C44.487 43.251 44.6196 43.1725 44.7705 43.1216L44.9268 43.0796Z" fill="#35B777" stroke="black" stroke-width="0.1"></path><path d="M30.9697 51.1418C30.9812 51.1486 30.9941 51.1616 31.0068 51.1897L31.042 51.3118C31.1139 51.6629 31.1052 51.8959 30.9932 52.0764C30.8858 52.2493 30.6759 52.3821 30.3184 52.5208C30.307 52.4001 30.2927 52.2756 30.2822 52.1624C30.2694 52.0234 30.2643 51.8911 30.2822 51.7688C30.3 51.6473 30.3403 51.5358 30.418 51.4368C30.4958 51.3375 30.6139 51.248 30.791 51.1731L30.79 51.1721C30.8422 51.1503 30.882 51.1391 30.9121 51.135C30.9416 51.1311 30.9586 51.1353 30.9697 51.1418Z" fill="#35B777" stroke="black" stroke-width="0.1"></path><path d="M47.3145 41.7488C47.3578 41.9793 47.3881 42.1597 47.3965 42.3054C47.4055 42.4625 47.3899 42.5739 47.3477 42.6619C47.3058 42.7489 47.2348 42.8193 47.1191 42.8875C47.0132 42.9498 46.8722 43.0071 46.6895 43.0759C46.65 42.8275 46.6225 42.6365 46.6143 42.4851C46.6054 42.3214 46.619 42.2105 46.6592 42.1267C46.6988 42.0445 46.7674 41.9814 46.8818 41.9207C46.9874 41.8646 47.1283 41.8124 47.3145 41.7488Z" fill="#35B777" stroke="black" stroke-width="0.1"></path><path d="M42.6982 44.3975C42.7423 44.7213 42.7711 45.0157 42.6992 45.2539C42.6614 45.3789 42.5958 45.488 42.4902 45.5771C42.3922 45.6598 42.2563 45.7251 42.0713 45.7715C42.0133 45.5477 41.9738 45.3706 41.959 45.2256C41.9432 45.0706 41.9561 44.9571 41.999 44.8643C42.0418 44.7717 42.1176 44.6931 42.2412 44.6152C42.354 44.5442 42.5041 44.4767 42.6982 44.3975Z" fill="#35B777" stroke="black" stroke-width="0.1"></path><path d="M38.0156 47.1072C38.0537 47.3447 38.0793 47.5297 38.085 47.6785C38.0911 47.839 38.0749 47.9516 38.0322 48.0388C37.99 48.1248 37.9189 48.1926 37.8047 48.2566C37.7001 48.3152 37.5615 48.3675 37.3809 48.4304C37.3426 48.1833 37.3158 47.9929 37.3086 47.8416C37.3008 47.6779 37.3162 47.5665 37.3574 47.4822C37.3979 47.3995 37.467 47.3366 37.582 47.2761C37.6881 47.2204 37.8292 47.169 38.0156 47.1072Z" fill="#35B777" stroke="black" stroke-width="0.1"></path><path d="M49.5957 40.3684C49.6169 40.3662 49.6386 40.3689 49.6582 40.3772C49.6777 40.3854 49.6948 40.3987 49.708 40.4153C49.7146 40.4236 49.7203 40.433 49.7246 40.4426L49.7334 40.4729C49.7374 40.5638 49.7505 40.6573 49.7627 40.7473C49.7753 40.8403 49.7869 40.9308 49.7871 41.0178C49.7873 41.1677 49.7543 41.3054 49.6367 41.425L49.5811 41.4758L49.5771 41.4788C49.5055 41.5496 49.4206 41.6061 49.3271 41.6438C49.2435 41.6775 49.1544 41.693 49.0645 41.6956C49.0165 41.5826 49.0038 41.4652 49.0059 41.342C49.007 41.2748 49.0123 41.2075 49.0166 41.1379L49.0225 40.927C49.0174 40.768 49.0835 40.6721 49.1797 40.5969C49.2292 40.5583 49.2872 40.5251 49.3486 40.4924L49.5332 40.3928L49.5371 40.3909C49.5546 40.3787 49.5745 40.3707 49.5957 40.3684Z" fill="#35B777" stroke="black" stroke-width="0.1"></path><path d="M40.1934 45.804C40.2785 45.7939 40.3101 45.8131 40.3232 45.8293C40.3392 45.8493 40.3453 45.8852 40.3408 45.9417C40.3363 45.9978 40.3238 46.0547 40.3145 46.1155C40.3101 46.1441 40.3063 46.1736 40.3066 46.2004C40.3069 46.2212 40.3116 46.2435 40.3203 46.2649V46.2659C40.3822 46.5588 40.3261 46.7531 40.2168 46.8772C40.1059 47.0029 39.932 47.0671 39.7402 47.0813H39.6904C39.6476 47.0781 39.625 47.065 39.6123 47.051C39.5934 47.0302 39.5829 46.9943 39.582 46.9397C39.5812 46.8858 39.589 46.825 39.5957 46.76C39.5989 46.7291 39.6027 46.697 39.6035 46.6653L39.5977 46.5735H39.5967C39.5509 46.3348 39.6149 46.1546 39.7295 46.0286C39.8457 45.9009 40.0183 45.8247 40.1934 45.804Z" fill="#35B777" stroke="black" stroke-width="0.1"></path><path d="M35.5771 48.4734C35.6467 48.4631 35.6697 48.4802 35.6787 48.4919C35.6913 48.5087 35.6972 48.541 35.6924 48.5916C35.6877 48.64 35.6751 48.6926 35.6641 48.7419C35.6588 48.7654 35.653 48.7889 35.6504 48.8093C35.6484 48.8249 35.6481 48.8473 35.6543 48.8679L35.6533 48.8689C35.7273 49.1738 35.688 49.3796 35.5908 49.5154C35.5174 49.6178 35.4069 49.6867 35.2725 49.7273L35.1309 49.7585C35.038 49.7717 34.9935 49.7572 34.9717 49.74C34.9507 49.7233 34.9381 49.6939 34.9355 49.6443C34.9331 49.5943 34.9413 49.5363 34.9482 49.4734C34.9515 49.4438 34.9541 49.4125 34.9551 49.3816L34.9492 49.2917C34.8987 49.0392 34.9613 48.8502 35.0801 48.7175C35.1704 48.6166 35.2959 48.5457 35.4346 48.5046L35.5771 48.4734Z" fill="#35B777" stroke="black" stroke-width="0.1"></path><path d="M17.5527 43.8818C17.7925 43.7361 18.1365 43.7422 18.5518 43.9453L18.7334 44.0449H18.7344C20.1676 44.9001 20.8424 46.2544 21.041 47.7441C21.0297 48.042 21.0227 48.3056 20.9668 48.5273C20.9184 48.7188 20.8345 48.8763 20.6816 48.9941L20.6113 49.042C20.2357 49.2732 19.8601 49.1502 19.5059 48.9365L19.3555 48.8408C18.0821 47.9823 17.3434 46.7904 17.1768 45.3076L17.1514 45.0078C17.1173 44.428 17.2787 44.0484 17.5527 43.8818Z" fill="#FEFEFE" stroke="black" stroke-width="0.1"></path><path d="M5.33594 36.7666C5.57456 36.6277 5.91193 36.6367 6.31348 36.8398L6.48926 36.9395C7.13017 37.3262 7.6727 37.8569 8.07324 38.4893C8.47267 39.1199 8.72041 39.8346 8.79688 40.5771C8.78987 41.3033 8.61455 41.7533 8.33789 41.9482C8.09974 42.1159 7.7679 42.1063 7.3623 41.8906L7.18359 41.7861L6.92578 41.6094C5.75611 40.7647 5.07137 39.6013 4.9375 38.1621L4.91699 37.8496C4.89625 37.291 5.06333 36.9253 5.33594 36.7666Z" fill="#FDFDFD" stroke="black" stroke-width="0.1"></path><path d="M35.8926 35.1951C35.9464 35.3223 35.9553 35.4182 35.9316 35.4949C35.9116 35.5595 35.868 35.6168 35.7998 35.6687L35.7236 35.7185L30.7939 38.5662C30.7367 38.4378 30.7249 38.3419 30.7461 38.2654C30.7638 38.2015 30.8053 38.1447 30.875 38.0916L30.9531 38.0398C32.5992 37.0959 34.2456 36.1473 35.8926 35.1951Z" fill="#DBDFE9" stroke="black" stroke-width="0.1"></path><path d="M35.8779 34.0298C35.9467 34.1562 35.959 34.2496 35.9375 34.3228C35.9194 34.384 35.8765 34.4388 35.8086 34.4897L35.7324 34.5396L30.7959 37.3853C30.7355 37.2615 30.7193 37.1659 30.7373 37.0894C30.7523 37.0263 30.7913 36.9692 30.8604 36.9165L30.9395 36.8647L35.8779 34.0298Z" fill="#DBDFE9" stroke="black" stroke-width="0.1"></path><path d="M35.8555 32.887C35.8788 32.8873 35.8948 32.8941 35.9072 32.9084C35.9212 32.9246 35.9342 32.9557 35.9414 33.012C35.9405 33.1428 35.9002 33.2221 35.8438 33.2795C35.8136 33.3103 35.7788 33.3352 35.7412 33.3586L35.6201 33.428L31.1123 36.0188C31.0784 36.0381 31.0414 36.0662 31.0078 36.0901C30.9727 36.1151 30.9394 36.1377 30.9072 36.1526C30.8749 36.1675 30.8479 36.1722 30.8262 36.1682C30.8161 36.1663 30.8049 36.162 30.793 36.1536L30.7549 36.1135C30.6948 36.0231 30.6959 35.9447 30.7295 35.8752C30.7562 35.82 30.805 35.767 30.8701 35.72L30.9404 35.675V35.6741L35.625 32.9749L35.626 32.9758C35.6727 32.95 35.7168 32.9274 35.7568 32.9114C35.7974 32.8951 35.8301 32.8867 35.8555 32.887Z" fill="#DCE0E9" stroke="black" stroke-width="0.1"></path><path d="M18.8916 45.7109H18.8926C18.9713 45.711 19.0658 45.7507 19.166 45.8242C19.2653 45.8971 19.3653 45.9999 19.4541 46.1182C19.611 46.3271 19.7268 46.575 19.748 46.7793L19.751 46.8643C19.7462 46.9852 19.7234 47.0892 19.6719 47.1641C19.6224 47.2359 19.5421 47.2872 19.4053 47.2949L19.3418 47.292C19.2759 47.2821 19.2034 47.2514 19.1279 47.2021C19.028 47.1369 18.9272 47.041 18.8369 46.9268C18.6569 46.6989 18.5247 46.4062 18.5195 46.1494C18.5367 46.0364 18.5545 45.9265 18.6055 45.8438C18.6303 45.8035 18.6628 45.77 18.707 45.7471C18.7291 45.7357 18.7549 45.726 18.7852 45.7197L18.8916 45.7109Z" fill="#35B777" stroke="black" stroke-width="0.1"></path><path d="M6.6875 38.6497C6.94547 38.6767 7.15238 38.8743 7.29688 39.1399C7.42717 39.3794 7.5498 39.6363 7.47949 39.9065L7.43652 40.0227V40.0237C7.41221 40.0784 7.37098 40.1242 7.31934 40.1545C7.29367 40.1696 7.26599 40.1803 7.2373 40.1868L7.14844 40.1926H7.14453C7.02945 40.1907 6.90587 40.1336 6.78711 40.0354C6.66894 39.9377 6.55912 39.8025 6.47266 39.6526C6.38617 39.5026 6.32412 39.3398 6.29883 39.1887C6.27979 39.0748 6.28248 38.9704 6.30859 38.8831L6.3418 38.802L6.34277 38.8C6.37639 38.7348 6.41662 38.6976 6.46777 38.676C6.52063 38.6537 6.59033 38.6459 6.6875 38.6497Z" fill="#35B777" stroke="black" stroke-width="0.1"></path><path d="M21.9111 7.802L21.9102 7.80103L21.9023 7.80981C21.5851 8.11738 21.1853 8.33612 20.7686 8.53833C20.4578 8.68912 20.1355 8.83095 19.8359 8.99438L19.5459 9.16626C19.458 9.2226 19.3641 9.27137 19.2686 9.32056L18.9844 9.47485C18.9472 9.49632 18.9113 9.51927 18.876 9.54321L18.8389 9.5647C17.3256 10.4484 15.8076 11.3273 14.29 12.2063L9.74219 14.8499L9.70898 14.8704C9.70229 14.874 9.69567 14.8775 9.68652 14.8821L9.66211 14.8948C9.31412 15.0705 8.98267 15.2741 8.65332 15.4768C8.40577 15.6291 8.15904 15.7809 7.90625 15.9211L7.65137 16.0579H7.65039C7.34944 16.2181 7.03336 16.3479 6.70703 16.4465V16.4456L6.69727 16.4514L2.86035 18.6311C2.79443 18.6676 2.73178 18.7111 2.6709 18.7532C2.60914 18.7959 2.54912 18.8373 2.4873 18.8733C2.37103 18.9409 2.25111 18.9837 2.1084 18.9719C1.94047 18.6804 1.90638 18.3724 1.90723 18.053C1.90767 17.8879 1.91677 17.7242 1.9209 17.5559C1.92491 17.3923 1.9229 17.2273 1.90234 17.0637C1.91064 17.0213 1.9234 16.9798 1.93945 16.9397L1.94043 16.9368L1.9502 16.9172C2.01485 16.7757 2.1249 16.6795 2.25586 16.5989C2.32155 16.5585 2.39232 16.5224 2.46387 16.4866L2.67578 16.3762H2.67676C4.78999 15.1569 6.89712 13.9303 9.00391 12.7043L15.3301 9.03442C18.3621 7.28538 21.3832 5.52106 24.4131 3.76978L27.4463 2.02368C27.8361 1.80114 28.2276 1.55017 28.6992 1.56079C28.7203 1.89368 28.718 2.19545 28.7119 2.49438C28.7088 2.65027 28.705 2.80562 28.7041 2.96411L28.7129 3.45337C28.716 3.51955 28.7034 3.57059 28.6816 3.61157C28.6597 3.65284 28.6269 3.68714 28.5859 3.71802C28.5445 3.7492 28.4955 3.77619 28.4434 3.80298L28.2861 3.88599C27.2 4.52666 26.1493 5.1869 25.0986 5.84595C24.0477 6.50516 22.9967 7.1628 21.9111 7.802Z" fill="#35B777" stroke="black" stroke-width="0.1"></path><path d="M7.22766 16.3585V23.9751C7.22496 24.1888 7.26813 24.4006 7.35424 24.5962C7.44035 24.7919 7.5674 24.9667 7.72684 25.1091C7.88627 25.2514 8.07437 25.3579 8.27846 25.4214C8.48254 25.4849 8.69787 25.5038 8.90991 25.477C9.27315 25.4249 9.60486 25.242 9.84275 24.9626C10.0806 24.6832 10.2084 24.3265 10.2019 23.9596L10.1117 14.7495L7.22766 16.3585Z" fill="#E9EBF1" stroke="black" stroke-width="0.1" stroke-miterlimit="10"></path><path d="M18.9561 9.62835V17.0125C18.9574 17.2226 19.0034 17.43 19.0912 17.6209C19.179 17.8118 19.3065 17.9817 19.4651 18.1195C19.6238 18.2572 19.81 18.3595 20.0113 18.4196C20.2127 18.4797 20.4245 18.4961 20.6327 18.4679C20.9915 18.4233 21.3214 18.2484 21.5596 17.9764C21.7978 17.7044 21.9278 17.3543 21.9246 16.9928L21.8345 8.06445L18.9561 9.62835Z" fill="#E9EBF1" stroke="black" stroke-width="0.1" stroke-miterlimit="10"></path></svg>