<svg xmlns="http://www.w3.org/2000/svg" width="106" height="136" viewBox="0 0 106 136" fill="none"><path d="M105.274 58.4621C105.274 69.524 105.225 80.5859 105.323 91.6478C105.323 94.106 104.389 95.6301 102.373 96.81C80.987 109.199 59.6007 121.687 38.1652 134.076C34.3304 136.289 30.3481 136.24 26.4641 134.076C18.7945 129.701 11.1741 125.227 3.55369 120.9C1.39048 119.671 0.554688 118 0.554688 115.492C0.70218 93.2211 0.849672 70.9498 0.849672 48.6784C0.849672 46.3186 1.78379 44.8437 3.75035 43.762C11.4691 39.3373 19.1387 34.8142 26.8574 30.3894C28.0374 29.7011 28.7748 29.0128 28.5782 27.5379C28.3815 26.0138 28.8732 24.6372 29.5123 23.3098C32.6588 16.6727 35.7561 10.0355 38.9026 3.39837C39.4926 2.02178 39.9842 0.694348 41.8033 0.743512C43.6224 0.792676 44.0649 2.12011 44.6548 3.34921C46.4247 7.08567 48.293 10.8221 49.9645 14.6569C50.6037 16.1319 51.1936 16.1319 52.4719 15.3944C57.4375 12.3954 62.5014 9.59304 67.4669 6.59403C71.7442 4.08667 75.9232 4.08667 80.2004 6.59403C87.4767 10.8221 94.753 15.0502 102.078 19.18C104.537 20.5566 105.667 22.3265 105.618 25.2764C105.471 36.3383 105.569 47.4002 105.569 58.4621C105.471 58.4621 105.372 58.4621 105.274 58.4621ZM103.75 26.7021C102.619 27.3413 101.833 27.7837 101.046 28.2262C80.4462 40.2222 59.8465 52.1691 39.1976 64.1651C38.0177 64.8534 36.7886 65.7384 35.412 65.8367C33.4946 65.9842 33.3963 67.0658 33.3963 68.5899C33.4454 89.2879 33.4454 109.986 33.4454 130.684C33.4454 134.126 33.8387 134.322 36.9361 132.7C37.2311 132.552 37.526 132.405 37.7719 132.208C58.8632 119.966 79.9546 107.675 101.095 95.4335C102.963 94.3518 103.603 93.0244 103.603 90.9104C103.553 70.3598 103.652 49.8092 103.701 29.3078C103.75 28.5704 103.75 27.8329 103.75 26.7021ZM2.66874 50.8417C2.57041 51.3333 2.52125 51.4808 2.52125 51.6283C2.47208 73.0638 2.42292 94.4993 2.32459 115.935C2.32459 117.852 3.30787 118.737 4.73363 119.524C11.6166 123.457 18.4504 127.439 25.2842 131.372C26.4641 132.061 27.6441 132.847 28.9715 133.339C31.6264 134.322 31.8722 134.126 31.8722 131.372C31.8722 110.527 31.823 89.6321 31.9213 68.7865C31.9213 66.8691 31.4789 65.9842 29.5123 65.8367C28.1849 65.7384 27.1033 64.9517 25.9233 64.3126C18.2537 59.8387 10.5842 55.4139 2.66874 50.8417ZM28.4799 31.6677C27.4966 31.5694 26.9558 32.1593 26.3166 32.5035C19.2862 36.5841 12.2066 40.7139 5.17611 44.8437C1.58713 46.9577 1.6363 48.2851 5.27443 50.3992C12.4032 54.529 19.5812 58.6096 26.71 62.7885C30.6431 65.0992 34.3795 65.0501 38.2635 62.7885C59.2074 50.5958 80.2004 38.4032 101.144 26.2105C104.684 24.1456 104.733 22.769 101.243 20.7533C93.868 16.476 86.5426 12.1987 79.168 7.97063C75.6282 5.9549 72.0392 5.9549 68.4994 8.01979C63.9763 10.6255 59.4532 13.2803 54.9301 15.886C51.4395 17.9018 51.4886 17.8526 53.2585 21.5891C53.8977 22.9657 54.4385 23.1623 55.7659 22.3265C60.7315 19.3275 65.7954 16.5252 70.7609 13.5262C72.875 12.2479 74.7924 12.1496 76.9064 13.477C80.6429 15.7877 84.5269 17.9018 88.3125 20.1141C91.9506 22.2282 91.9998 24.4897 88.4108 26.6038C70.7118 36.9282 52.9635 47.2035 35.2645 57.528C33.3963 58.6096 31.6264 58.6587 29.7581 57.5771C25.6775 55.1681 21.5477 52.8574 17.4671 50.4484C14.5173 48.7276 14.5173 46.2694 17.5163 44.4995C20.6136 42.6804 23.7109 40.8122 26.8574 39.1406C28.1357 38.4523 28.5782 37.6165 28.4799 36.2399C28.3815 34.765 28.4799 33.1918 28.4799 31.6677ZM30.4956 31.0286C30.0039 31.766 30.2006 32.5035 30.1514 33.1918C30.1023 40.0747 30.1023 46.9577 30.0531 53.8407C30.0531 56.643 31.7247 57.6263 34.1829 56.2497C40.1317 52.8574 46.0314 49.3667 51.9311 45.9253C52.5702 45.5811 53.2094 45.237 53.2094 44.352C53.2094 39.9764 53.2094 35.6008 53.2094 31.0777C45.4415 35.65 37.9194 35.65 30.4956 31.0286ZM41.8525 32.7493C45.0973 32.651 48.293 32.1102 51.0462 30.0944C53.3077 28.4229 53.7502 26.8004 52.6686 24.3914C50.5053 19.7208 48.293 15.0994 46.1298 10.4288C45.7364 9.59304 45.3923 9.24889 44.409 9.78969C42.8358 10.6255 40.9675 10.6255 39.4434 9.93719C38.0668 9.34722 37.6735 9.7897 37.1819 10.9205C35.1662 15.2961 33.1013 19.6225 31.0364 23.9489C29.7581 26.7513 30.2006 28.472 32.7571 30.2419C35.4612 32.1593 38.5585 32.7001 41.8525 32.7493ZM54.9793 43.5654C55.3234 43.5654 55.6184 43.7129 55.7659 43.6145C61.2231 40.4681 66.6311 37.3216 72.0392 34.2242C72.6292 33.8801 72.9733 33.3884 72.9733 32.651C72.9733 26.7021 72.9733 20.7533 72.9733 14.4111C66.9261 17.9018 61.2723 21.1958 55.5692 24.4897C54.9301 24.8339 54.9793 25.3255 54.9793 25.9155C55.0284 31.766 54.9793 37.6165 54.9793 43.5654ZM74.7924 32.6018C79.5613 29.8486 84.0352 27.2429 88.5091 24.5881C89.6399 23.8998 89.5416 22.9657 88.46 22.2774C83.9861 19.6717 79.5121 17.066 74.7924 14.362C74.7924 20.5075 74.7924 26.3088 74.7924 32.6018ZM28.3815 54.824C28.3815 49.8092 28.3815 45.237 28.3815 40.2714C24.6942 42.4346 21.2527 44.4012 17.8604 46.4169C16.7297 47.1052 16.828 48.0885 17.9096 48.7276C21.2036 50.7433 24.6451 52.6607 28.3815 54.824Z" fill="#161616"></path><path d="M103.749 26.7021C103.749 27.8329 103.749 28.5704 103.749 29.3078C103.7 49.8584 103.651 70.409 103.651 90.9104C103.651 93.0736 102.962 94.3519 101.143 95.4335C80.0027 107.675 58.9113 119.917 37.8199 132.208C37.525 132.356 37.23 132.552 36.9841 132.7C33.8868 134.322 33.4935 134.126 33.4935 130.684C33.4935 109.986 33.4935 89.288 33.4443 68.5899C33.4443 67.0167 33.5427 65.935 35.4601 65.8367C36.8367 65.7384 38.0166 64.8534 39.2457 64.1651C59.8454 52.1691 80.4452 40.2223 101.094 28.2262C101.832 27.7838 102.618 27.3413 103.749 26.7021ZM94.4569 58.8063C94.4077 55.8564 94.4569 52.9066 94.4077 49.9567C94.4077 45.3353 92.1462 43.9587 88.2131 46.2694C76.0204 53.2507 63.8769 60.2812 51.7334 67.3608C48.341 69.3274 46.5711 72.3264 46.5711 76.2103C46.5711 82.2575 46.5711 88.3539 46.6203 94.401C46.6695 98.4816 49.0293 99.9566 52.52 97.9408C64.8602 90.8612 77.1512 83.7324 89.4422 76.6037C92.7853 74.6371 94.5061 71.6381 94.4569 67.6558C94.4077 64.706 94.4569 61.7561 94.4569 58.8063Z" fill="#9DD4B2"></path><path d="M2.6695 50.8418C10.5849 55.4141 18.2545 59.8388 25.9732 64.2636C27.104 64.9027 28.2348 65.6893 29.5622 65.7877C31.4796 65.9352 31.9713 66.7709 31.9713 68.7375C31.8729 89.5831 31.9221 110.478 31.9221 131.323C31.9221 134.077 31.6763 134.322 29.0214 133.29C27.7432 132.798 26.5632 132.012 25.3341 131.323C18.4512 127.39 11.6174 123.408 4.78355 119.475C3.35779 118.639 2.37451 117.754 2.37451 115.886C2.47284 94.4503 2.522 73.0148 2.57117 51.5793C2.47284 51.4809 2.57117 51.3334 2.6695 50.8418Z" fill="#35B777"></path><path d="M28.4798 31.6678C28.4798 33.1919 28.3814 34.7159 28.5289 36.24C28.6272 37.6166 28.1848 38.4524 26.9065 39.1407C23.76 40.8123 20.6627 42.6805 17.5653 44.4996C14.5663 46.2695 14.5663 48.7277 17.5162 50.4484C21.5968 52.8575 25.7266 55.1682 29.8072 57.5772C31.6754 58.708 33.4453 58.6097 35.3136 57.5281C53.0126 47.2036 70.7608 36.9283 88.4599 26.6039C92.0488 24.4898 91.9997 22.2283 88.3615 20.1142C84.5267 17.951 80.6428 15.8369 76.9063 13.5262C74.7431 12.1988 72.8749 12.2971 70.7608 13.5754C65.7461 16.5744 60.6822 19.4259 55.7166 22.3758C54.3892 23.1624 53.8484 23.0149 53.2093 21.6383C51.4885 17.9018 51.3902 17.951 54.8808 15.9353C59.4039 13.3296 63.927 10.6747 68.4501 8.06903C71.9899 6.00414 75.5789 6.00414 79.1187 8.01986C86.4933 12.248 93.8188 16.4761 101.193 20.7534C104.684 22.7691 104.684 24.1457 101.095 26.2106C80.1512 38.4032 59.1581 50.5959 38.2142 62.7886C34.3303 65.0501 30.5938 65.0993 26.6607 62.7886C19.5811 58.6097 12.3539 54.529 5.22516 50.3993C1.53786 48.2852 1.53786 46.9578 5.12683 44.8437C12.1573 40.7139 19.2369 36.6333 26.3165 32.5036C26.9557 32.1594 27.4965 31.5694 28.4798 31.6678Z" fill="#35B777"></path><path d="M30.4959 31.0284C37.9688 35.6498 45.4417 35.6498 53.2588 30.9792C53.2588 35.5515 53.2588 39.9271 53.2588 44.2535C53.2588 45.1877 52.6197 45.4826 51.9805 45.8268C46.0808 49.2683 40.132 52.7589 34.2323 56.1512C31.7741 57.577 30.1025 56.5445 30.1025 53.7422C30.1025 46.8592 30.1517 40.0254 30.2009 33.1425C30.1517 32.5033 29.955 31.7659 30.4959 31.0284Z" fill="#9DD4B2"></path><path d="M41.8526 32.7491C38.5586 32.6999 35.4612 32.1591 32.7572 30.2909C30.2007 28.521 29.7582 26.8003 31.0365 23.9979C33.0522 19.6223 35.1662 15.345 37.182 10.9694C37.6736 9.83867 38.0669 9.39619 39.4435 9.98616C41.0168 10.6745 42.8358 10.6745 44.4091 9.83867C45.3924 9.34703 45.7365 9.64201 46.1298 10.4778C48.293 15.1484 50.5054 19.7698 52.6686 24.4404C53.7994 26.8494 53.3078 28.521 51.0462 30.1434C48.293 32.1591 45.0974 32.6999 41.8526 32.7491Z" fill="#9DD4B2"></path><path d="M54.9784 43.5653C54.9784 37.6164 54.9784 31.7659 54.9784 25.8662C54.9784 25.2762 54.9292 24.7846 55.5684 24.4404C61.2714 21.1465 66.9253 17.8525 72.9724 14.3618C72.9724 20.704 72.9724 26.6528 72.9724 32.6017C72.9724 33.3391 72.6775 33.8308 72.0383 34.1749C66.6303 37.3214 61.1731 40.4679 55.765 43.5653C55.6175 43.6636 55.3226 43.5653 54.9784 43.5653Z" fill="#12683E"></path><path d="M74.7925 32.6017C74.7925 26.3087 74.7925 20.5565 74.7925 14.3618C79.5122 17.0658 83.9861 19.6715 88.4601 22.2772C89.5908 22.9164 89.64 23.8996 88.5092 24.5879C84.0845 27.2428 79.5614 29.7993 74.7925 32.6017Z" fill="#12683E"></path><path d="M28.3809 54.8242C24.6444 52.661 21.2521 50.7436 17.909 48.777C16.8274 48.1379 16.7782 47.1054 17.8598 46.4663C21.2521 44.4014 24.6936 42.4349 28.3809 40.3208C28.3809 45.2372 28.3809 49.7603 28.3809 54.8242Z" fill="#12683E"></path><path d="M42.6886 8.51137C42.0987 8.56053 41.4595 8.56053 40.8696 8.51137C40.0338 8.46221 39.0505 8.56053 38.903 7.47892C38.7555 6.6923 41.3612 2.51336 41.8037 2.46419C42.6395 2.41503 44.0652 5.56153 44.4094 7.2331C44.606 8.31471 43.6227 8.41304 42.6886 8.51137Z" fill="#9DD4B2"></path><path d="M94.4585 58.8062C94.4585 61.7561 94.4585 64.7059 94.4585 67.6557C94.5077 71.5889 92.787 74.637 89.4438 76.6036C77.1528 83.7815 64.8618 90.8612 52.5216 97.9408C49.031 99.9565 46.6219 98.4816 46.6219 94.401C46.5728 88.3538 46.5728 82.2575 46.5728 76.2103C46.5728 72.2772 48.3427 69.2782 51.735 67.3608C63.8785 60.3303 76.0712 53.2998 88.2147 46.2694C92.197 44.0078 94.4094 45.3353 94.4094 49.9567C94.4094 52.9065 94.4094 55.8564 94.4585 58.8062ZM92.787 58.8062C92.7378 55.8564 92.787 52.9065 92.7378 49.9567C92.6886 46.8102 91.7053 46.1711 89.0505 47.7443C76.907 54.7748 64.7143 61.7561 52.5708 68.8357C49.7193 70.4581 48.2443 73.0146 48.2443 76.3086C48.1952 82.2575 48.2443 88.2555 48.2935 94.2043C48.2935 97.2033 49.2768 97.7933 51.8333 96.3184C64.0752 89.2879 76.317 82.2083 88.5097 75.1778C91.3612 73.5063 92.7378 70.9497 92.787 67.6557C92.8361 64.7059 92.787 61.7561 92.787 58.8062Z" fill="#161616"></path><path d="M92.7863 58.8063C92.7863 61.7561 92.8354 64.706 92.7863 67.6558C92.7371 70.9006 91.3605 73.5063 88.509 75.1779C76.2672 82.2575 64.0745 89.288 51.8326 96.3184C49.2761 97.7934 48.2928 97.2034 48.2928 94.2044C48.2437 88.2555 48.2437 82.2575 48.2437 76.3087C48.2437 73.0147 49.7677 70.5073 52.5701 68.8357C64.7136 61.8053 76.8571 54.7748 89.0498 47.7444C91.7047 46.2203 92.6879 46.8103 92.7371 49.9568C92.7863 52.9066 92.7371 55.8564 92.7863 58.8063Z" fill="#F3F3F3"></path></svg>