<svg xmlns="http://www.w3.org/2000/svg" width="64" height="96" viewBox="0 0 64 96" fill="none"><path d="M52.4756 0.538086C53.4649 0.519655 54.4595 0.801904 55.4795 1.45508L55.6846 1.59082L55.6855 1.5918C57.1619 2.578 58.7032 3.46352 60.2988 4.24219V4.24121C61.3487 4.77451 62.1076 5.45521 62.6045 6.28809C63.1017 7.12149 63.3402 8.1152 63.3379 9.28125L63.3301 15.3984C63.3274 21.5164 63.3379 27.6348 63.3379 33.7461V33.8467H63.4922C63.4924 41.6527 63.5134 49.4578 63.4922 57.2656L63.4824 57.8018C63.3162 63.1282 60.9541 67.2658 56.4443 70.0547L55.9863 70.3291C45.5722 76.3709 35.1436 82.3888 24.7002 88.3818L14.252 94.3662C13.1872 94.9789 12.1434 95.3262 11.1025 95.3369C10.128 95.3469 9.14821 95.0627 8.14844 94.4121L7.94824 94.2764L7.94727 94.2754L7.3916 93.9082C6.0879 93.0629 4.73333 92.2984 3.33594 91.6182H3.33691C2.26132 91.0722 1.5012 90.3758 1.00879 89.5234C0.516028 88.6704 0.286545 87.6538 0.28418 86.4629L0.257812 77.418C0.224447 68.3735 0.174759 59.3311 0.135742 50.2969L0.102539 44.3291C0.0974416 42.8377 0.0984581 41.3465 0.114258 39.8555L0.135742 38.3643C0.220011 33.0713 2.39738 28.8378 6.81445 26.0654L7.24902 25.8018C12.4912 22.7279 17.7551 19.687 23.0254 16.6562L38.8408 7.57031C41.4491 6.06846 44.0621 4.57324 46.668 3.06641L49.2715 1.55469C50.3589 0.920755 51.4189 0.557856 52.4756 0.538086ZM62.2314 18.2188C62.0065 18.3347 61.838 18.4154 61.7012 18.4824L61.3594 18.6602L41.418 30.1387C40.1052 30.8956 38.7949 31.6556 37.4844 32.4141L33.5479 34.6816C32.9039 35.0506 32.4556 35.1663 32.0869 35.0547C31.7628 34.9565 31.4735 34.6746 31.1592 34.1582L31.0225 33.9229L31.0205 33.9189L30.7676 33.4883C30.5206 33.0542 30.2914 32.6099 30.0801 32.1572H30.0791C29.8722 31.6647 29.6195 31.3689 29.2793 31.2842C28.9858 31.2111 28.6559 31.303 28.2842 31.502L28.1221 31.5938C25.2493 33.2855 22.369 34.9669 19.4736 36.6172L16.5723 38.2559C15.8415 38.6664 15.3112 39.1744 14.9561 39.7822C14.6455 40.3137 14.4716 40.9174 14.4121 41.5928L14.3936 41.8867C14.3722 42.3997 14.3935 42.9202 14.3936 43.4248V43.4316C14.4401 44.1244 14.2825 44.8158 13.9404 45.4199C13.6411 45.9485 13.2119 46.39 12.6953 46.7041L12.4688 46.8311L12.4648 46.833C11.1658 47.5699 9.8697 48.3243 8.57031 49.0391C8.28569 49.1628 8.0465 49.373 7.8877 49.6396C7.73042 49.9037 7.65991 50.2104 7.68457 50.5166V50.5176C7.7295 57.177 7.76416 63.836 7.79785 70.4961L7.90723 90.4814C7.91805 92.2008 8.4956 93.4207 9.48633 94.0049C10.4145 94.5521 11.6738 94.5228 13.0977 93.8701L13.3848 93.7314C13.4927 93.6769 13.5986 93.6161 13.7012 93.5566L14.0039 93.3848L14.0068 93.3838C20.9141 89.408 27.8205 85.4301 34.7266 81.4512L55.4434 69.5098C60.0655 66.8345 62.4974 62.7605 62.4951 57.3867L62.4824 47.9863C62.4593 38.5865 62.4091 29.1865 62.3789 19.7871L62.377 18.3076V18.1436L62.2314 18.2188ZM1.10645 47.7061C1.15847 60.5856 1.21143 73.4652 1.2666 86.3447L1.25879 86.6719C1.25466 86.7836 1.25074 86.8993 1.25195 87.0127C1.25378 87.1818 1.2669 87.3531 1.31055 87.5146L1.36523 87.6729C1.53687 88.0683 1.70572 88.523 1.90723 88.9316C2.08451 89.2912 2.29333 89.6304 2.56836 89.8867L2.69043 89.9912L2.69141 89.9922C3.91813 90.9478 5.37326 91.6304 6.77832 92.4561L6.93848 92.5498L6.92969 92.3652C6.86554 91.0467 6.75627 89.8839 6.75391 88.7139L6.72461 69.7471L6.70508 50.7812C6.70509 50.58 6.70914 50.3119 6.68359 50.0762C6.67078 49.958 6.65055 49.8421 6.61523 49.7441C6.58921 49.6721 6.55264 49.6024 6.5 49.5488L6.44141 49.501C4.80504 48.4495 3.10383 47.4995 1.25684 46.4248L1.10645 46.3369V47.7061ZM60.8105 5.70117C60.0623 5.25585 59.0969 5.15169 58.0898 5.45508L57.8877 5.52148L57.8857 5.52246C57.1817 5.78777 56.5035 6.11704 55.8594 6.50586C44.0507 13.3175 32.255 20.1581 20.4199 26.9229L15.3447 29.8164C11.6108 31.9412 8.9934 34.8806 8.10938 38.9883L8.0293 39.3896C7.77131 40.7891 7.68989 42.2194 7.65527 43.6904C7.62058 45.1647 7.633 46.6732 7.56445 48.2451L7.55664 48.4258L7.71387 48.3359C8.52188 47.8746 9.23897 47.4612 9.91309 47.0742L11.8555 45.9717C12.3894 45.6774 12.7847 45.3104 13.0352 44.8584C13.2543 44.4627 13.3592 44.008 13.3535 43.4902L13.3447 43.2646C13.3201 42.8546 13.3138 42.4437 13.3262 42.0332L13.3447 41.6221V41.6211C13.4211 40.0295 14.0319 38.6842 15.3008 37.8164L15.5635 37.6494C18.686 35.8053 21.8324 33.9992 24.9873 32.207L28.1445 30.4189C28.7602 30.0698 29.2323 29.9758 29.6289 30.0996C30.0276 30.2242 30.3794 30.5781 30.7324 31.1953V31.1943C31.2664 32.1394 31.7943 33.0861 32.3359 34.0322L32.3857 34.1191L32.4727 34.0693C37.3969 31.2377 42.2887 28.4251 47.1631 25.6191L61.75 17.209L61.751 17.208C61.906 17.1152 62.0398 16.9905 62.1426 16.8418C62.2453 16.693 62.3148 16.5237 62.3467 16.3457L62.3486 16.3369V16.3281C62.3486 13.9538 62.4046 11.5683 62.29 9.19043L62.2305 8.17188C62.1503 7.03577 61.6099 6.17697 60.8105 5.70117ZM1.98438 33.2734C1.86067 33.7388 1.70758 34.1685 1.57617 34.5996C1.47857 34.9198 1.39437 35.2371 1.34961 35.5566L1.31934 35.877C1.21817 38.0264 1.17544 40.1785 1.14551 42.3301L1.11816 44.4814V44.4844C1.12211 44.6477 1.16125 44.8085 1.2334 44.9551C1.30554 45.1016 1.40915 45.2303 1.53613 45.333L1.53516 45.334L1.54688 45.3408C3.14654 46.3134 4.77758 47.2346 6.56152 48.2695L6.71191 48.3564V48.1826C6.71191 47.4183 6.69779 46.8482 6.71191 46.2754C6.73327 45.4912 6.71784 44.704 6.70215 43.9199C6.68644 43.1349 6.67035 42.3519 6.69141 41.5732C6.7309 40.1139 6.8991 38.6727 7.43555 37.2656L7.54785 36.9844C7.57696 36.9145 7.57331 36.832 7.55859 36.7588C7.54327 36.6825 7.51309 36.6013 7.47559 36.5244C7.40361 36.3768 7.29069 36.2216 7.16699 36.1514H7.16797C5.56106 35.1716 3.91706 34.2478 2.13086 33.2129L2.01758 33.1475L1.98438 33.2734ZM52.4629 1.50586C51.7185 1.52231 50.9793 1.74761 50.2451 2.12891L49.9307 2.30176L7.66602 26.6416C5.43779 27.9275 3.8263 29.7884 2.63672 32.1699L2.59473 32.2539L2.67676 32.3008L8.11328 35.4482L8.19824 35.4971L8.24902 35.4131C9.55472 33.2332 10.9547 31.3398 12.9551 30.0547L13.3633 29.8057C18.8327 26.6465 24.3038 23.4907 29.7764 20.3379L46.1992 10.8887C50.0606 8.66594 53.9269 6.45463 57.8643 4.19629L58.0137 4.11035L57.8652 4.02344C57.0042 3.51681 56.1532 3.07723 55.3545 2.56055L55.0156 2.33398C54.1664 1.74139 53.3151 1.48705 52.4629 1.50586Z" fill="#35B777" stroke="black" stroke-width="0.2"></path><path d="M62.1768 19.7938L62.2461 38.5936C62.2689 44.8599 62.2882 51.1262 62.293 57.3925L62.2861 57.8856C62.1464 62.7792 59.9115 66.535 55.7617 69.0907L55.3408 69.3427C44.9952 75.3265 34.6395 81.2953 24.2744 87.2499L13.9062 93.2001C13.8045 93.2592 13.7033 93.3184 13.6016 93.3759L13.293 93.5428C11.7844 94.311 10.496 94.3577 9.58789 93.8221C8.73723 93.3204 8.18909 92.2891 8.11523 90.7782L8.10645 90.4696C8.0426 80.4819 8.00051 70.4926 7.94531 60.4999L7.88477 50.5057L7.88379 50.4979L7.87891 50.3983C7.87694 50.1646 7.93939 49.9342 8.05957 49.7323C8.17978 49.5304 8.35321 49.3663 8.55957 49.2567L8.64941 49.2128L8.65723 49.2089C9.97064 48.4989 11.263 47.7333 12.5635 46.9969L12.5625 46.996C13.2137 46.6618 13.7535 46.1456 14.1143 45.5087C14.4305 44.9503 14.5977 44.3212 14.6016 43.6825L14.5928 43.4081C14.5839 43.0257 14.5737 42.6448 14.5801 42.2655L14.5928 41.8856V41.8846C14.6265 41.1147 14.8006 40.4462 15.1367 39.8729C15.4726 39.3002 15.9732 38.8155 16.6689 38.4198L16.6699 38.4208C19.5774 36.7905 22.468 35.1256 25.3477 33.4432L28.2236 31.7557C28.6599 31.4989 28.984 31.4048 29.2373 31.4677C29.4535 31.5215 29.6469 31.6981 29.8223 32.0604L29.8965 32.2274L29.8984 32.2323C30.1826 32.8411 30.4999 33.4338 30.8477 34.0087V34.0096C31.219 34.6823 31.5775 35.0995 32.0293 35.2362C32.426 35.3562 32.8684 35.2524 33.4092 34.9745L33.6475 34.8446C34.9621 34.0927 36.2734 33.3355 37.584 32.577L41.5176 30.3016C48.1639 26.474 54.8129 22.6476 61.4639 18.8231L61.4629 18.8221C61.6338 18.7285 61.8129 18.6481 62.1768 18.4667V19.7938ZM35.7432 39.3192C35.2838 39.2741 34.909 39.328 34.5752 39.4882C34.3262 39.6077 34.1045 39.7839 33.8887 40.0135L33.6738 40.2616L33.6729 40.2626C30.5134 44.2381 27.3261 48.1849 24.1514 52.1425L20.9814 56.1053L20.9795 56.1093C20.6742 56.5278 20.4857 57.0184 20.4326 57.5311L20.418 57.7518V57.7528C20.3659 60.0856 20.3994 62.4055 20.3994 64.7255C20.3994 66.728 20.4554 68.7248 20.4014 70.7225L20.3711 71.579C20.3435 72.2016 20.4545 72.6253 20.7402 72.8993C20.987 73.1358 21.3478 73.2435 21.8027 73.2938L22.0029 73.3124C25.6048 73.579 29.2098 73.911 32.8145 74.1815L34.3594 74.2938H34.3652C34.6516 74.2968 34.9356 74.2407 35.1992 74.1288C35.4628 74.0168 35.7007 73.8515 35.8975 73.6434L35.8252 73.5741L35.8984 73.6434L35.9023 73.6376C39.1623 69.6292 42.402 65.6046 45.6211 61.5643L48.834 57.5184L48.835 57.5165C49.1677 57.0728 49.373 56.5485 49.4307 55.9999L49.4463 55.7635V55.7616C49.48 52.2505 49.4634 48.7316 49.4668 45.2167L49.4795 41.704V41.703C49.4795 41.2917 49.4159 40.9856 49.2236 40.7772C49.0795 40.621 48.8746 40.5322 48.6084 40.4833L48.3213 40.4471C45.1743 40.1918 42.0291 39.9162 38.8857 39.621L35.7432 39.3192Z" fill="#E9E8E8" stroke="black" stroke-width="0.2"></path><path d="M57.9521 5.72668C58.9845 5.36252 59.9666 5.45092 60.7061 5.89075C61.3978 6.3024 61.8877 7.02763 62.0088 8.00403L62.0283 8.20227C62.2192 10.8982 62.1514 13.6216 62.1465 16.3302C62.1193 16.4787 62.0614 16.62 61.9756 16.7443C61.8894 16.8691 61.7775 16.9738 61.6475 17.0519C51.9667 22.6444 42.2762 28.2151 32.457 33.8615L30.9043 31.1124C30.5455 30.4809 30.1602 30.073 29.6875 29.9259C29.2722 29.7967 28.8116 29.8757 28.2773 30.1378L28.0439 30.2609C24.8853 32.0468 21.7287 33.8385 18.5908 35.6603L15.459 37.4933C13.942 38.391 13.2269 39.8769 13.1426 41.6261C13.1175 42.0426 13.1115 42.4602 13.124 42.8771L13.1426 43.2941V43.295C13.1828 43.8705 13.0867 44.36 12.8584 44.7736C12.6585 45.1357 12.354 45.4457 11.9404 45.7052L11.7568 45.8126C10.5245 46.4837 9.30978 47.1857 7.76953 48.0743C7.82969 46.5658 7.82218 45.1053 7.85645 43.6974C7.8877 42.4132 7.95491 41.1668 8.14551 39.9484L8.23535 39.4279C8.99406 35.314 11.4747 32.3458 15.0986 30.1984L15.4531 29.9933V29.9923C22.2188 26.14 28.9718 22.2584 35.7197 18.3683L55.9561 6.69543L55.958 6.69446C56.5917 6.31173 57.2594 5.98786 57.9521 5.72668ZM46.9219 17.9015C46.5889 17.6686 46.177 17.6458 45.7461 17.8448C45.3151 18.044 44.8882 18.5175 44.582 19.046C44.2758 19.5747 44.0752 20.1849 44.123 20.67C44.1701 21.1458 44.3783 21.5157 44.6836 21.6847C44.9962 21.8576 45.38 21.8039 45.7314 21.4943L45.7305 21.4933C46.0989 21.1696 46.4147 20.7857 46.71 20.3888C47.0102 19.9852 47.2776 19.5857 47.5742 19.1974L47.6016 19.1622L47.5938 19.1183C47.4845 18.5527 47.2499 18.131 46.9219 17.9015ZM51.75 14.5665C51.6296 14.5795 51.5113 14.6048 51.4102 14.6437C51.3357 14.6723 51.2644 14.7106 51.209 14.7618L51.1602 14.8175C50.6479 15.5262 50.0884 16.3144 49.8525 17.1622L49.8096 17.3322C49.6973 17.8311 49.8849 18.2337 50.2197 18.42C50.5526 18.6052 51.0046 18.5611 51.3916 18.2286C51.7609 17.9113 52.0602 17.5365 52.335 17.1544C52.6132 16.7675 52.8585 16.3849 53.1338 16.0245L53.1719 15.9747L53.1445 15.9191C52.9958 15.6192 52.9017 15.3501 52.8047 15.1232C52.7574 15.0126 52.7093 14.911 52.6533 14.8292C52.6112 14.7677 52.5617 14.7135 52.502 14.674L52.4385 14.6398C52.2552 14.5622 51.988 14.541 51.75 14.5665ZM58.7822 12.6261L58.7686 12.6027C58.6021 12.319 58.4956 12.0719 58.3867 11.8615C58.2825 11.6601 58.1719 11.4828 58.002 11.3956C57.8399 11.3127 57.5959 11.2887 57.3809 11.3068C57.2714 11.316 57.1629 11.3364 57.0703 11.3693C57.0029 11.3933 56.9364 11.4264 56.8848 11.4718L56.8389 11.5216L56.8379 11.5226C56.3459 12.1934 55.918 12.9086 55.5586 13.6583L55.4082 13.9816C55.371 14.0661 55.3706 14.1696 55.3857 14.2677C55.4013 14.3684 55.4356 14.477 55.4805 14.5802C55.5254 14.6834 55.5827 14.7849 55.6465 14.8712C55.7094 14.9564 55.7827 15.033 55.8623 15.0802C56.0164 15.1715 56.2603 15.1969 56.4785 15.1788C56.5903 15.1696 56.7018 15.1481 56.7998 15.1144C56.8721 15.0895 56.9421 15.0568 56.999 15.0128L57.0518 14.965L57.0537 14.962C57.6631 14.2457 58.2349 13.4972 58.7656 12.7208L58.7822 12.6954V12.6261Z" fill="#E9E8E8" stroke="black" stroke-width="0.2"></path><path d="M52.4678 1.71143C53.1744 1.69508 53.8859 1.8748 54.6045 2.30322L54.9121 2.50244C55.7679 3.09473 56.7031 3.57919 57.624 4.11377L46.1113 10.7192L13.2744 29.6362C11.0234 30.9247 9.51164 32.9273 8.12793 35.2251L2.85547 32.1724C3.95217 30.0085 5.40249 28.2899 7.35938 27.0552L7.7627 26.811C14.8014 22.751 21.8434 18.6933 28.8877 14.6372L50.0293 2.47412C50.8473 2.00671 51.6587 1.73022 52.4678 1.71143Z" fill="#9DD4B2" stroke="black" stroke-width="0.2"></path><path d="M1.30566 46.6754C2.86873 47.5889 4.32035 48.4079 5.71875 49.274L6.33301 49.6608C6.3653 49.6814 6.39856 49.7261 6.42676 49.8043C6.45433 49.8809 6.47335 49.9788 6.48535 50.0895C6.50938 50.3116 6.50489 50.5654 6.50488 50.7731L6.55469 88.7057L6.55957 89.1481C6.58165 90.1268 6.66187 91.1222 6.71777 92.1891C5.43183 91.4454 4.15857 90.827 3.04395 90.0006L2.81445 89.8258C2.5128 89.589 2.28405 89.2364 2.08594 88.8346C1.98635 88.6326 1.89674 88.4229 1.80957 88.2125L1.54883 87.5846C1.47652 87.4163 1.45418 87.2185 1.45215 87.0016C1.45114 86.8937 1.45495 86.7835 1.45898 86.6715L1.4668 86.3356L1.30566 47.6959V46.6754Z" fill="#9DD4B2" stroke="black" stroke-width="0.2"></path><path d="M2.14062 33.4491C3.4459 34.2017 4.66569 34.8948 5.85352 35.5917L7.06543 36.3114C7.13916 36.3558 7.23163 36.4734 7.29785 36.6093C7.32983 36.6749 7.35311 36.7394 7.36426 36.7938C7.3702 36.8229 7.37241 36.8455 7.37207 36.8622L7.36621 36.8954L7.36523 36.8973C6.72607 38.4255 6.53559 39.9899 6.49316 41.5585C6.47198 42.3424 6.48822 43.129 6.50391 43.913C6.51569 44.5017 6.52726 45.0893 6.52344 45.6747L6.51367 46.2596C6.49839 46.7907 6.50961 47.3246 6.51172 47.9979C4.78688 47.0007 3.20824 46.1052 1.6582 45.163C1.55621 45.0792 1.47337 44.9747 1.41504 44.8563C1.35629 44.737 1.32312 44.6064 1.31934 44.4735C1.35038 41.9631 1.378 39.4542 1.47461 36.9491L1.52051 35.8759C1.53886 35.4773 1.63908 35.0775 1.76758 34.6561C1.88343 34.2762 2.02221 33.872 2.14062 33.4491Z" fill="#9DD4B2" stroke="black" stroke-width="0.2"></path><path d="M35.5732 39.5084L35.7305 39.5201C38.8735 39.8288 42.0185 40.1176 45.165 40.3864L48.3125 40.6481C48.7112 40.6807 48.9465 40.7651 49.0859 40.9156C49.1902 41.0284 49.2527 41.1913 49.2764 41.4342L49.2871 41.7047C49.2587 46.3944 49.2988 51.0753 49.2539 55.7604C49.2377 56.3514 49.0388 56.9228 48.6846 57.3961C44.4078 62.7869 40.0995 68.1537 35.7598 73.4957C35.5819 73.6839 35.3673 73.834 35.1289 73.9352C34.8915 74.036 34.6358 74.0859 34.3779 74.0836C31.286 73.8689 28.2049 73.5971 25.1172 73.3453L22.0254 73.1031C21.481 73.0632 21.1143 72.9636 20.8867 72.7457C20.6911 72.5582 20.5817 72.2659 20.5752 71.7926L20.5781 71.5778C20.6799 69.2955 20.6074 67.0032 20.6074 64.7164V64.4156L20.5986 64.4264C20.5968 62.7831 20.582 61.141 20.5967 59.4996L20.626 57.7594C20.6411 57.2081 20.8234 56.6746 21.1484 56.2291L21.1475 56.2281C24.3093 52.252 27.4959 48.3087 30.6689 44.3522L33.8369 40.3883C34.1072 40.0472 34.3689 39.812 34.665 39.6705C34.9232 39.5473 35.2148 39.4918 35.5732 39.5084ZM35.6006 40.5621C35.3841 40.5761 35.1526 40.6842 34.9453 40.8219C34.765 40.9417 34.5932 41.0906 34.4512 41.2399L34.3203 41.3883C33.048 42.9433 31.7861 44.5078 30.5273 46.0748L26.752 50.7799C25.293 52.6054 23.8287 54.4458 22.2871 56.3776L22.2656 56.4049V56.5172L22.3291 56.5416C22.5567 56.6316 22.7917 56.7024 23.0312 56.7526V56.7535L23.043 56.7545C25.8057 56.9886 28.5679 57.2295 31.333 57.443L34.0996 57.6461C34.3096 57.6598 34.5477 57.5765 34.7588 57.4576C34.9185 57.3677 35.071 57.2528 35.1943 57.1305L35.3076 57.0065C37.1207 54.7788 38.9302 52.5467 40.7373 50.3112L46.1494 43.5934C46.5982 43.0354 46.9986 42.4281 47.5293 41.6979L47.6328 41.5543L47.457 41.5397C44.3929 41.2737 41.4684 41.0071 38.5771 40.778L35.6934 40.5621H35.6006ZM34.3154 58.733L34.2236 58.7262L21.6904 57.6949L21.582 57.6862V64.5875C21.5835 65.7018 21.5858 66.8094 21.5918 67.9137L21.6201 71.2203C21.6205 71.3164 21.663 71.4155 21.7188 71.5045C21.7762 71.5961 21.8543 71.688 21.9414 71.7701C22.1118 71.9307 22.3355 72.0744 22.5244 72.1012V72.1002C23.2639 72.208 24.0075 72.2894 24.752 72.359L26.9844 72.5504H26.9854C29.3667 72.7538 31.7506 72.9407 34.207 73.1393L34.2139 73.0494H34.3154V58.733ZM48.29 44.0309C48.2726 43.7106 48.2386 43.3915 48.1875 43.0748L48.1602 42.9059L48.0264 43.0123C47.9579 43.0669 47.8912 43.1237 47.8262 43.1823L47.6367 43.3629L47.6299 43.3707C44.7622 46.939 41.8864 50.5026 39.0312 54.0817L36.1846 57.6666L36.1816 57.6705C35.7919 58.2161 35.574 58.8655 35.5557 59.5358C35.4823 61.6663 35.5273 63.799 35.5273 65.9244L35.5195 71.5758V71.6549L35.5957 71.6735L35.8779 71.7418L35.9395 71.7565L35.9795 71.7076C37.9746 69.2182 39.968 66.7273 41.96 64.236L47.9307 56.7594C48.0723 56.5801 48.1611 56.3472 48.2148 56.108C48.2688 55.868 48.2898 55.6144 48.291 55.3883C48.3123 51.6045 48.291 47.8195 48.291 44.0367L48.29 44.0309Z" fill="#35B777" stroke="black" stroke-width="0.2"></path><path d="M45.8301 18.0254C46.2164 17.846 46.551 17.8737 46.8135 18.0596C47.0742 18.2443 47.2801 18.598 47.3867 19.1113C47.097 19.4867 46.8234 19.8944 46.5449 20.2715C46.3266 20.567 46.1019 20.8496 45.8545 21.1016L45.5996 21.3428H45.5986C45.2963 21.609 45.0022 21.628 44.7783 21.5029C44.5471 21.3736 44.3616 21.0746 44.3223 20.6494C44.2837 20.2318 44.4582 19.6684 44.752 19.1553C45.0458 18.6421 45.4443 18.2045 45.8301 18.0254Z" fill="#35B777" stroke="black" stroke-width="0.2"></path><path d="M51.7754 14.7605C51.9934 14.7379 52.2231 14.7607 52.3643 14.8201V14.821C52.4044 14.8383 52.4454 14.8743 52.4893 14.9392C52.5333 15.0044 52.5752 15.0911 52.6211 15.199C52.705 15.3964 52.8017 15.664 52.9385 15.949C52.6757 16.2929 52.4243 16.6776 52.166 17.0378C51.8925 17.4193 51.6043 17.7813 51.2646 18.075C50.9434 18.3525 50.5803 18.3734 50.3271 18.2361C50.1083 18.1172 49.9542 17.8706 49.9844 17.5271L50.0088 17.3738H50.0098C50.1548 16.7247 50.5125 16.1043 50.915 15.5134L51.3262 14.9324L51.3271 14.9304C51.3523 14.8945 51.4048 14.8569 51.4873 14.825C51.5678 14.7938 51.6677 14.7717 51.7754 14.7605Z" fill="#35B777" stroke="black" stroke-width="0.2"></path><path d="M57.3945 11.5157C57.5933 11.4993 57.7942 11.5257 57.9062 11.5831C58.0111 11.6369 58.0977 11.7566 58.2051 11.9601C58.3005 12.1408 58.4138 12.3859 58.5654 12.6544C58.0477 13.4105 57.4924 14.1403 56.8994 14.839C56.8677 14.8733 56.8107 14.9077 56.7305 14.9357C56.6516 14.9631 56.5571 14.9811 56.459 14.9894C56.2574 15.0064 56.0637 14.9784 55.96 14.9171C55.8571 14.8563 55.7382 14.6955 55.6572 14.5079C55.6178 14.4167 55.5902 14.325 55.5781 14.2452C55.5658 14.1632 55.5723 14.1055 55.5869 14.0724C55.9691 13.2177 56.4405 12.4055 56.9941 11.6505C57.0133 11.6249 57.0574 11.5941 57.1328 11.5675C57.2058 11.5418 57.2971 11.5238 57.3945 11.5157Z" fill="#35B777" stroke="black" stroke-width="0.2"></path><path d="M35.6904 40.754C39.4748 41.0127 43.2545 41.3651 47.2764 41.715C46.9201 42.2098 46.6269 42.6386 46.332 43.0363L46.0049 43.4601C44.203 45.701 42.3988 47.9395 40.5918 50.1749L35.1631 56.8732C35.0455 57.018 34.8659 57.1672 34.6719 57.2765C34.4758 57.3869 34.2781 57.4476 34.124 57.4376C30.4403 57.1826 26.7635 56.8608 23.083 56.549C22.895 56.5108 22.7101 56.4586 22.5293 56.3947L26.9199 50.8976C28.8018 48.5457 30.6789 46.1887 32.5781 43.8458L34.4863 41.5079C34.634 41.3273 34.8446 41.1297 35.0674 40.9816C35.2655 40.8499 35.4606 40.766 35.623 40.755L35.6904 40.754Z" fill="#9DD4B2" stroke="black" stroke-width="0.2"></path><path d="M34.1143 58.9175V72.9312C32.9227 72.8349 31.7484 72.7411 30.583 72.647L27.001 72.3511C25.698 72.2392 24.3957 72.1427 23.1045 71.978L22.5518 71.9028C22.4239 71.8847 22.2383 71.7749 22.0791 71.6245C22.0015 71.5512 21.9353 71.4721 21.8887 71.3979C21.8647 71.3599 21.8471 71.3257 21.8359 71.2954L21.8193 71.2183V71.2173C21.7677 66.8496 21.781 62.4819 21.7812 57.9028L34.1143 58.9175Z" fill="#9DD4B2" stroke="black" stroke-width="0.2"></path><path d="M48.0449 43.5815L48.083 44.0503C48.0919 46.8865 48.1008 49.7223 48.0947 52.5581L48.083 55.395V55.396C48.083 55.6114 48.0629 55.8494 48.0127 56.0718C47.9748 56.2395 47.9206 56.3948 47.8467 56.5239L47.7666 56.6431C43.8201 61.6218 39.8507 66.584 35.8604 71.5298L35.7188 71.4907V65.9331C35.7188 64.0686 35.6851 62.2089 35.7256 60.3491L35.7471 59.5513V59.5503C35.7642 58.921 35.9688 58.311 36.334 57.7983C40.1157 53.0121 43.9509 48.2655 47.7734 43.5093C47.8478 43.4338 47.9259 43.362 48.0059 43.2925C48.0194 43.3888 48.0345 43.4849 48.0449 43.5815Z" fill="#9DD4B2" stroke="black" stroke-width="0.2"></path></svg>