<svg xmlns="http://www.w3.org/2000/svg" width="61" height="82" viewBox="0 0 61 82" fill="none"><mask id="path-1-inside-1_1_1564" fill="white"><path d="M44.0917 60.572C45.1226 61.2461 46.0742 61.8408 46.9069 62.6735C48.255 64.0216 48.9688 65.6076 48.9688 67.5505C48.9688 68.7401 48.8895 69.9296 48.9688 71.1191C49.2463 74.767 47.3827 77.146 44.4089 78.7717C40.6024 80.8336 36.4787 81.3887 32.2361 80.9525C29.064 80.6353 26.0506 79.8423 23.4336 77.939C22.2838 77.1064 21.3321 76.1151 20.777 74.8066C20.5391 74.2119 20.3012 74.3308 19.8254 74.5687C17.1688 76.1548 14.4329 77.6218 11.7763 79.2475C10.0317 80.3181 8.48527 80.4767 6.74064 79.2872C5.19426 78.177 3.48927 77.3046 1.78429 76.3927C0.555111 75.7186 0.0793016 74.7273 0.0396508 73.4189C0.0396508 72.5465 0.0396508 71.7139 0.0396508 70.8416C0.0396508 58.986 0.0396508 47.1304 0 35.2748C0 31.9045 1.42743 29.4858 4.28229 27.8204C18.5169 19.6127 32.7516 11.405 46.9862 3.19727C48.0171 2.6025 49.0481 2.00774 50.079 1.41298C51.1892 0.778566 52.2994 0.818217 53.4493 1.49228C55.2336 2.6025 57.0575 3.67308 58.9211 4.66435C60.3089 5.41771 60.864 6.56758 60.864 8.07432C60.864 10.2948 60.864 12.5152 60.864 14.696C60.864 25.0449 60.864 35.3541 60.9433 45.7029C60.9829 49.2715 59.4366 51.8092 56.3438 53.5141C52.2598 55.8535 48.2154 58.1929 44.0917 60.572ZM39.6508 53.0383C39.7698 53.078 39.8094 53.078 39.8094 53.078C46.1535 49.4301 52.4977 45.7822 58.8418 42.1344C59.1987 41.9361 59.3176 41.6586 59.3176 41.262C59.278 30.1995 59.278 19.1369 59.2383 8.07432C59.2383 6.32968 58.4056 5.89352 56.8989 6.76584C55.1543 7.75711 53.4096 8.78803 51.665 9.7793C38.1441 17.5905 24.5835 25.3621 11.0626 33.2129C9.11969 34.3628 8.00946 36.1867 8.00946 38.4468C8.00946 49.1526 8.08877 59.8583 8.08877 70.564C8.08877 71.3967 8.36632 71.3174 8.92143 71.0002C14.988 67.4712 21.0942 63.9423 27.1608 60.453C27.6763 60.1755 27.8349 59.8583 27.8349 59.3032C27.8349 58.3119 27.478 57.2017 28.0331 56.369C28.7468 55.3381 28.4296 54.664 27.8349 53.871C27.5573 53.5141 27.3591 53.078 27.0815 52.7211C26.5264 51.9281 26.566 51.1747 27.1608 50.461C29.3813 47.8441 30.6897 44.7513 31.681 41.4999C31.9586 40.6673 32.1172 39.795 32.4344 38.9226C32.6723 38.2089 33.1877 37.7331 33.9807 37.7331C34.7341 37.7331 34.9324 38.2882 35.1306 38.883C35.3685 39.676 35.765 40.3897 36.2408 41.1034C36.9546 42.2137 37.8269 43.1256 39.2543 43.3239C40.6421 43.5221 40.9989 44.0773 40.4835 45.4254C40.0077 46.7339 39.5319 48.0423 39.0561 49.3112C38.9767 49.5491 38.7388 49.8663 38.9371 50.0645C39.9284 50.8972 39.4526 52.0471 39.6508 53.0383ZM56.5024 5.14016C55.1543 4.34714 53.9648 3.71273 52.8149 2.95936C52.0219 2.4439 51.3082 2.5232 50.5151 2.95936C35.3685 11.7618 20.2219 20.485 5.0753 29.2082C2.73591 30.596 1.58603 32.5785 1.58603 35.2748C1.62568 45.4254 1.62568 55.5363 1.62568 65.6869C1.62568 68.1453 1.62568 70.6433 1.62568 73.1016C1.62568 73.6964 1.66533 74.3705 2.18079 74.7273C3.52892 75.5996 4.95635 76.353 6.34413 77.1857C6.58203 76.7495 6.50273 76.353 6.50273 76.0358C6.46308 63.6648 6.42343 51.254 6.42343 38.883C6.42343 35.7902 7.77156 33.3715 10.4678 31.7458C12.0142 30.8339 13.5606 29.9616 15.107 29.0892C26.7643 22.3486 38.4216 15.6476 50.079 8.90698C52.1408 7.67781 54.2423 6.44863 56.5024 5.14016ZM24.98 71.6346C25.0593 71.7535 25.0593 71.8328 25.099 71.8328C25.3369 71.9518 25.5351 72.1104 25.773 72.2293C29.9364 74.3308 34.3773 74.6084 38.8974 73.7757C41.5144 73.2999 43.9728 72.3483 45.876 70.3657C47.7792 68.3832 47.8189 66.0438 45.9156 64.0216C45.0433 63.1096 44.0124 62.3959 42.8625 61.8805C42.0299 61.5236 41.792 61.6426 41.7523 62.5545C41.7523 63.8234 41.7127 65.1318 41.7523 66.4007C41.792 67.7884 41.1972 68.8194 40.1266 69.6124C37.3907 71.7535 32.1965 71.9121 29.183 69.8899C28.9054 69.6917 28.6675 69.4141 28.2314 69.6917C27.2005 70.4054 26.0902 71.0002 24.98 71.6346ZM47.3034 71.2777C46.788 71.7139 46.4311 72.0707 46.0346 72.3879C43.5366 74.3705 40.6421 75.2428 37.5493 75.5996C32.7912 76.1548 28.1917 75.6393 24.0284 73.0223C23.1561 72.4672 22.6406 72.9034 22.1648 73.3396C21.7286 73.7361 22.2441 74.2119 22.4424 74.648C22.7199 75.1635 23.1164 75.5997 23.5526 76.0358C25.2972 77.6218 27.3591 78.4545 29.6192 78.97C34.298 80.0405 38.8578 79.763 43.2194 77.6615C46.2725 76.1548 47.5017 74.2119 47.3034 71.2777ZM34.4169 41.6586C34.4169 43.2446 34.4169 44.8703 34.4169 46.4563C34.4169 47.0511 34.4962 47.7648 33.6239 47.7648C32.7912 47.7251 32.8705 47.0114 32.8309 46.4167C32.8309 45.5047 32.8309 44.5927 32.8309 43.6807C32.5533 43.9186 32.4344 44.2359 32.3154 44.5134C31.6017 46.2977 30.9673 48.1613 29.6985 49.5887C28.271 51.1747 28.4296 52.4039 29.6588 53.871C30.0553 54.3468 30.2139 54.4261 30.7294 54.1089C32.593 52.9987 34.4962 51.9281 36.3598 50.8179C36.5977 50.6593 36.8753 50.5403 36.9942 50.2231C37.589 48.5974 38.1837 46.9321 38.7785 45.3064C38.8578 45.0685 38.9371 44.8703 38.5802 44.791C36.7563 44.3945 35.6064 43.1256 34.4169 41.6586ZM30.095 68.7004C32.9102 69.9692 35.5271 70.0882 38.1837 69.0176C39.6112 68.4229 40.4042 67.4316 40.2059 65.8059C40.1663 65.4094 40.2059 65.0129 40.2059 64.6164C40.2059 62.9114 40.2059 62.8717 38.6992 63.7441C35.9236 65.3301 33.1481 66.9558 30.095 68.7004ZM29.5002 59.0653C31.9586 57.6378 34.298 56.2104 36.7167 54.9416C37.8269 54.3865 38.1044 53.6728 38.0251 52.5625C37.9458 51.9281 37.8269 51.8488 37.3114 52.166C35.1703 53.4348 33.0291 54.6244 30.888 55.8932C29.2226 56.8448 29.183 56.8845 29.5002 59.0653Z"></path></mask><path d="M44.0917 60.572C45.1226 61.2461 46.0742 61.8408 46.9069 62.6735C48.255 64.0216 48.9688 65.6076 48.9688 67.5505C48.9688 68.7401 48.8895 69.9296 48.9688 71.1191C49.2463 74.767 47.3827 77.146 44.4089 78.7717C40.6024 80.8336 36.4787 81.3887 32.2361 80.9525C29.064 80.6353 26.0506 79.8423 23.4336 77.939C22.2838 77.1064 21.3321 76.1151 20.777 74.8066C20.5391 74.2119 20.3012 74.3308 19.8254 74.5687C17.1688 76.1548 14.4329 77.6218 11.7763 79.2475C10.0317 80.3181 8.48527 80.4767 6.74064 79.2872C5.19426 78.177 3.48927 77.3046 1.78429 76.3927C0.555111 75.7186 0.0793016 74.7273 0.0396508 73.4189C0.0396508 72.5465 0.0396508 71.7139 0.0396508 70.8416C0.0396508 58.986 0.0396508 47.1304 0 35.2748C0 31.9045 1.42743 29.4858 4.28229 27.8204C18.5169 19.6127 32.7516 11.405 46.9862 3.19727C48.0171 2.6025 49.0481 2.00774 50.079 1.41298C51.1892 0.778566 52.2994 0.818217 53.4493 1.49228C55.2336 2.6025 57.0575 3.67308 58.9211 4.66435C60.3089 5.41771 60.864 6.56758 60.864 8.07432C60.864 10.2948 60.864 12.5152 60.864 14.696C60.864 25.0449 60.864 35.3541 60.9433 45.7029C60.9829 49.2715 59.4366 51.8092 56.3438 53.5141C52.2598 55.8535 48.2154 58.1929 44.0917 60.572ZM39.6508 53.0383C39.7698 53.078 39.8094 53.078 39.8094 53.078C46.1535 49.4301 52.4977 45.7822 58.8418 42.1344C59.1987 41.9361 59.3176 41.6586 59.3176 41.262C59.278 30.1995 59.278 19.1369 59.2383 8.07432C59.2383 6.32968 58.4056 5.89352 56.8989 6.76584C55.1543 7.75711 53.4096 8.78803 51.665 9.7793C38.1441 17.5905 24.5835 25.3621 11.0626 33.2129C9.11969 34.3628 8.00946 36.1867 8.00946 38.4468C8.00946 49.1526 8.08877 59.8583 8.08877 70.564C8.08877 71.3967 8.36632 71.3174 8.92143 71.0002C14.988 67.4712 21.0942 63.9423 27.1608 60.453C27.6763 60.1755 27.8349 59.8583 27.8349 59.3032C27.8349 58.3119 27.478 57.2017 28.0331 56.369C28.7468 55.3381 28.4296 54.664 27.8349 53.871C27.5573 53.5141 27.3591 53.078 27.0815 52.7211C26.5264 51.9281 26.566 51.1747 27.1608 50.461C29.3813 47.8441 30.6897 44.7513 31.681 41.4999C31.9586 40.6673 32.1172 39.795 32.4344 38.9226C32.6723 38.2089 33.1877 37.7331 33.9807 37.7331C34.7341 37.7331 34.9324 38.2882 35.1306 38.883C35.3685 39.676 35.765 40.3897 36.2408 41.1034C36.9546 42.2137 37.8269 43.1256 39.2543 43.3239C40.6421 43.5221 40.9989 44.0773 40.4835 45.4254C40.0077 46.7339 39.5319 48.0423 39.0561 49.3112C38.9767 49.5491 38.7388 49.8663 38.9371 50.0645C39.9284 50.8972 39.4526 52.0471 39.6508 53.0383ZM56.5024 5.14016C55.1543 4.34714 53.9648 3.71273 52.8149 2.95936C52.0219 2.4439 51.3082 2.5232 50.5151 2.95936C35.3685 11.7618 20.2219 20.485 5.0753 29.2082C2.73591 30.596 1.58603 32.5785 1.58603 35.2748C1.62568 45.4254 1.62568 55.5363 1.62568 65.6869C1.62568 68.1453 1.62568 70.6433 1.62568 73.1016C1.62568 73.6964 1.66533 74.3705 2.18079 74.7273C3.52892 75.5996 4.95635 76.353 6.34413 77.1857C6.58203 76.7495 6.50273 76.353 6.50273 76.0358C6.46308 63.6648 6.42343 51.254 6.42343 38.883C6.42343 35.7902 7.77156 33.3715 10.4678 31.7458C12.0142 30.8339 13.5606 29.9616 15.107 29.0892C26.7643 22.3486 38.4216 15.6476 50.079 8.90698C52.1408 7.67781 54.2423 6.44863 56.5024 5.14016ZM24.98 71.6346C25.0593 71.7535 25.0593 71.8328 25.099 71.8328C25.3369 71.9518 25.5351 72.1104 25.773 72.2293C29.9364 74.3308 34.3773 74.6084 38.8974 73.7757C41.5144 73.2999 43.9728 72.3483 45.876 70.3657C47.7792 68.3832 47.8189 66.0438 45.9156 64.0216C45.0433 63.1096 44.0124 62.3959 42.8625 61.8805C42.0299 61.5236 41.792 61.6426 41.7523 62.5545C41.7523 63.8234 41.7127 65.1318 41.7523 66.4007C41.792 67.7884 41.1972 68.8194 40.1266 69.6124C37.3907 71.7535 32.1965 71.9121 29.183 69.8899C28.9054 69.6917 28.6675 69.4141 28.2314 69.6917C27.2005 70.4054 26.0902 71.0002 24.98 71.6346ZM47.3034 71.2777C46.788 71.7139 46.4311 72.0707 46.0346 72.3879C43.5366 74.3705 40.6421 75.2428 37.5493 75.5996C32.7912 76.1548 28.1917 75.6393 24.0284 73.0223C23.1561 72.4672 22.6406 72.9034 22.1648 73.3396C21.7286 73.7361 22.2441 74.2119 22.4424 74.648C22.7199 75.1635 23.1164 75.5997 23.5526 76.0358C25.2972 77.6218 27.3591 78.4545 29.6192 78.97C34.298 80.0405 38.8578 79.763 43.2194 77.6615C46.2725 76.1548 47.5017 74.2119 47.3034 71.2777ZM34.4169 41.6586C34.4169 43.2446 34.4169 44.8703 34.4169 46.4563C34.4169 47.0511 34.4962 47.7648 33.6239 47.7648C32.7912 47.7251 32.8705 47.0114 32.8309 46.4167C32.8309 45.5047 32.8309 44.5927 32.8309 43.6807C32.5533 43.9186 32.4344 44.2359 32.3154 44.5134C31.6017 46.2977 30.9673 48.1613 29.6985 49.5887C28.271 51.1747 28.4296 52.4039 29.6588 53.871C30.0553 54.3468 30.2139 54.4261 30.7294 54.1089C32.593 52.9987 34.4962 51.9281 36.3598 50.8179C36.5977 50.6593 36.8753 50.5403 36.9942 50.2231C37.589 48.5974 38.1837 46.9321 38.7785 45.3064C38.8578 45.0685 38.9371 44.8703 38.5802 44.791C36.7563 44.3945 35.6064 43.1256 34.4169 41.6586ZM30.095 68.7004C32.9102 69.9692 35.5271 70.0882 38.1837 69.0176C39.6112 68.4229 40.4042 67.4316 40.2059 65.8059C40.1663 65.4094 40.2059 65.0129 40.2059 64.6164C40.2059 62.9114 40.2059 62.8717 38.6992 63.7441C35.9236 65.3301 33.1481 66.9558 30.095 68.7004ZM29.5002 59.0653C31.9586 57.6378 34.298 56.2104 36.7167 54.9416C37.8269 54.3865 38.1044 53.6728 38.0251 52.5625C37.9458 51.9281 37.8269 51.8488 37.3114 52.166C35.1703 53.4348 33.0291 54.6244 30.888 55.8932C29.2226 56.8448 29.183 56.8845 29.5002 59.0653Z" fill="#35B777" stroke="black" stroke-width="0.650866" mask="url(#path-1-inside-1_1_1564)"></path><path d="M39.6511 53.0374C39.4529 52.0065 39.9287 50.8566 38.9374 50.0239C38.6995 49.8257 38.9771 49.5084 39.0564 49.2705C39.5322 47.9621 40.008 46.6536 40.4838 45.3848C40.9596 44.0366 40.6027 43.4815 39.2546 43.2833C37.8272 43.085 36.9549 42.173 36.2411 41.0628C35.805 40.3888 35.4085 39.6354 35.1309 38.8424C34.9327 38.2476 34.6948 37.6925 33.981 37.6925C33.188 37.6925 32.6726 38.1683 32.4347 38.882C32.1571 39.7147 31.9589 40.587 31.6813 41.4593C30.69 44.7107 29.3816 47.7638 27.1611 50.4204C26.5663 51.1341 26.5267 51.8875 27.0818 52.6805C27.3594 53.0374 27.5576 53.4735 27.8352 53.8304C28.4299 54.6234 28.7868 55.2975 28.0334 56.3284C27.4783 57.1214 27.8352 58.2713 27.8352 59.2626C27.8352 59.8177 27.6766 60.1349 27.1611 60.4124C21.0549 63.9017 14.9883 67.4306 8.92173 70.9595C8.36662 71.2767 8.08907 71.3957 8.08907 70.5234C8.04942 59.8177 8.00977 49.1119 8.00977 38.4062C8.00977 36.1461 9.11999 34.3222 11.0629 33.1723C24.5838 25.3611 38.1444 17.5895 51.705 9.73868C53.4496 8.74741 55.1942 7.71649 56.9389 6.72522C58.4456 5.8529 59.2783 6.28906 59.2783 8.0337C59.3179 19.0963 59.3179 30.1589 59.3576 41.2214C59.3576 41.6179 59.2783 41.8955 58.8818 42.0937C52.5376 45.7416 46.1935 49.3895 39.8494 53.0374C39.8097 53.077 39.7701 53.077 39.6511 53.0374ZM41.2768 26.8678C41.2768 27.4626 41.2768 27.9384 41.2768 28.4142C41.3164 29.4848 41.8319 29.802 42.7439 29.2865C44.5678 28.2556 46.3917 27.185 48.2157 26.1145C48.6915 25.8369 48.9294 25.4801 48.9294 24.9249C48.8898 22.8235 48.9294 20.6823 48.8898 18.5808C48.8898 17.5102 48.3346 17.2723 47.383 17.8274C45.797 18.7394 44.211 19.7307 42.5853 20.5634C41.5544 21.0788 41.0785 21.7529 41.2768 22.9028C41.3164 23.101 41.2371 23.2993 41.2768 23.4975C41.5544 24.687 40.9992 25.4008 39.889 25.8369C39.1753 26.1541 38.5012 26.5903 37.8272 26.9868C36.1618 27.9781 36.1618 27.9781 36.1222 26.0748C36.0825 24.9646 35.5671 24.6474 34.6155 25.2025C33.4259 25.8766 32.2761 26.7489 31.0072 27.2643C28.9057 28.097 28.0731 29.4451 28.4696 31.6656C28.5092 31.9431 28.5885 32.3396 28.2317 32.5379C26.606 33.4499 25.02 34.4015 23.2753 35.3928C23.2753 34.5997 23.2753 34.005 23.2753 33.4102C23.2357 32.3396 22.7599 32.0224 21.8479 32.5379C20.024 33.5688 18.2 34.679 16.3761 35.71C15.9003 35.9875 15.6624 36.3444 15.702 36.8995C15.7417 38.9613 15.702 41.0628 15.7417 43.1247C15.7417 44.2349 16.2968 44.5521 17.2484 43.997C18.5172 43.2833 19.7068 42.411 21.0152 41.8558C22.8392 41.1025 23.7511 39.9526 23.3546 37.9304C23.315 37.6132 23.2753 37.2563 23.6322 37.0581C25.2182 36.1461 26.8043 35.2342 28.5489 34.2429C28.5489 34.8773 28.5489 35.2738 28.5489 35.71C28.5885 36.8995 29.0643 37.177 30.0953 36.5823C31.3244 35.8686 32.514 35.0359 33.7828 34.4808C35.6464 33.6878 36.598 32.4586 36.1618 30.3968C36.0825 30.0002 36.2411 29.7227 36.598 29.5244C38.1047 28.7314 39.5718 27.8195 41.2768 26.8678Z" fill="#F4F4F4"></path><path d="M56.5029 5.13768C54.2428 6.44616 52.1413 7.67534 50.0398 8.90451C38.3825 15.6055 26.7251 22.3461 15.0678 29.0868C13.5214 29.9591 11.975 30.8314 10.4287 31.7434C7.7324 33.3691 6.38427 35.7878 6.38427 38.8805C6.38427 51.2516 6.46358 63.6623 6.46358 76.0333C6.46358 76.3902 6.54288 76.747 6.30497 77.1832C4.91719 76.3505 3.48976 75.5972 2.14164 74.7249C1.58653 74.368 1.58653 73.7336 1.58653 73.0992C1.58653 70.6408 1.58653 68.1428 1.58653 65.6845C1.58653 55.5339 1.54688 45.4229 1.54688 35.2723C1.54688 32.5364 2.69675 30.5539 5.0758 29.2057C20.2224 20.4825 35.369 11.7594 50.476 2.99654C51.269 2.52073 51.9431 2.44143 52.7757 2.99654C53.9256 3.71026 55.1151 4.34467 56.5029 5.13768Z" fill="#35B777"></path><path d="M59.279 43.7188C59.4773 46.1771 59.4773 48.4768 57.812 50.3801C57.4155 50.8559 56.9793 51.3317 56.4242 51.6489C49.9611 55.3761 43.4584 59.1429 36.9953 62.8701C36.8367 62.9494 36.6781 62.989 36.5591 63.0683C33.5853 64.813 30.6115 66.5576 27.6377 68.3023C21.9676 71.5933 16.3372 74.8446 10.6671 78.096C10.4292 78.2546 10.1517 78.4132 9.87413 78.4925C8.84321 78.889 8.24845 78.5718 8.16915 77.4616C8.08984 76.1928 8.12949 74.9636 8.08984 73.6948C8.08984 73.2983 8.3674 73.1397 8.64495 72.981C15.5442 69.016 22.4038 65.0509 29.303 61.0858C30.5719 60.3721 31.801 59.6187 33.0699 58.905L59.279 43.7188Z" fill="#9DD4B2"></path><path d="M24.9805 71.6379C26.0907 71.0035 27.2009 70.3691 28.2715 69.695C28.7076 69.4175 28.9455 69.7347 29.2231 69.8933C32.2366 71.8758 37.4308 71.7172 40.1667 69.6157C41.2373 68.7831 41.7924 67.7522 41.7924 66.404C41.7528 65.1352 41.7924 63.8267 41.7924 62.5579C41.7924 61.6459 42.0303 61.4873 42.9026 61.8838C44.0525 62.3993 45.0834 63.113 45.9557 64.025C47.8193 66.0472 47.8193 68.3866 45.9161 70.3691C44.0129 72.3517 41.5545 73.3033 38.9376 73.7791C34.4174 74.6117 30.0161 74.3738 25.8131 72.2327C25.5752 72.1137 25.3373 71.9948 25.1391 71.8362C25.0598 71.8362 25.0598 71.7569 24.9805 71.6379Z" fill="#9DD4B2"></path><path d="M47.3029 71.2812C47.5408 74.2154 46.272 76.1583 43.2189 77.6254C38.8573 79.7269 34.2974 80.0044 29.6186 78.9339C27.3586 78.4184 25.2967 77.5461 23.5521 75.9997C23.1159 75.6032 22.7194 75.167 22.4419 74.6119C22.2436 74.2154 21.6885 73.7396 22.1643 73.3034C22.6401 72.8673 23.1556 72.4311 24.0279 72.9862C28.1912 75.6032 32.7907 76.1186 37.5488 75.5635C40.6416 75.2067 43.5361 74.3344 46.0341 72.3518C46.4306 72.0743 46.7875 71.7174 47.3029 71.2812Z" fill="#35B777"></path><path d="M34.4166 41.6562C35.6062 43.1233 36.756 44.3922 38.58 44.7887C38.9368 44.868 38.8575 45.1059 38.7782 45.3041C38.1835 46.9298 37.5887 48.5951 36.9939 50.2208C36.875 50.538 36.5974 50.657 36.3595 50.8156C34.4563 51.8862 32.5927 52.9567 30.7291 54.1066C30.2137 54.4238 30.055 54.3049 29.6585 53.8687C28.4294 52.4016 28.2708 51.1328 29.6982 49.5864C30.967 48.159 31.6411 46.2954 32.3151 44.5111C32.4341 44.2336 32.5531 43.9163 32.8306 43.6784C32.8306 44.5904 32.8306 45.5024 32.8306 46.4143C32.8306 47.0091 32.7513 47.7228 33.6236 47.7625C34.4959 47.8021 34.4166 47.0488 34.4166 46.454C34.4166 44.868 34.4166 43.2819 34.4166 41.6562Z" fill="#35B777"></path><path d="M30.0938 68.6972C33.1072 66.9525 35.9224 65.3268 38.698 63.7408C40.2047 62.8685 40.2047 62.9081 40.2047 64.6131C40.2047 65.0096 40.1651 65.4061 40.2047 65.8027C40.403 67.4283 39.6099 68.4593 38.1825 69.0144C35.5259 70.0849 32.909 69.966 30.0938 68.6972Z" fill="#35B777"></path><path d="M29.4994 59.0682C29.1822 56.8874 29.1822 56.8478 30.8475 55.8565C32.9887 54.6274 35.1298 53.3982 37.271 52.1294C37.8261 51.8121 37.945 51.8518 37.9847 52.5259C38.1036 53.6757 37.7864 54.3498 36.6762 54.9049C34.2972 56.2134 31.9578 57.6408 29.4994 59.0682Z" fill="#35B777"></path><path d="M47.4658 17.9678C47.934 17.6946 48.2326 17.6662 48.4053 17.7539C48.5524 17.8289 48.6747 18.0243 48.7158 18.4102L48.7285 18.5869C48.7482 19.6349 48.748 20.693 48.748 21.7529C48.748 22.2832 48.7475 22.814 48.75 23.3438L48.7676 24.9277C48.7672 25.1795 48.7132 25.3756 48.6133 25.5381C48.5125 25.7018 48.3578 25.8434 48.1367 25.9727C47.2242 26.4884 46.3117 27.0144 45.3994 27.5449L42.665 29.1445C42.2244 29.3936 41.9401 29.3969 41.7705 29.292C41.6169 29.1968 41.4943 28.976 41.4531 28.5859L41.4404 28.4082V28.4004L41.4238 28.0557C41.4185 27.7119 41.4404 27.3579 41.4404 26.8682V26.5879L41.1973 26.7266C39.9476 27.4407 38.7887 28.1094 37.6523 28.75L36.5205 29.3818C36.3043 29.491 36.1446 29.6312 36.0557 29.8154C35.9884 29.9548 35.968 30.1066 35.9805 30.2666L36.0029 30.4287L36.0039 30.4297C36.2159 31.4513 36.0964 32.2292 35.7129 32.8438C35.3749 33.3852 34.8199 33.8184 34.0596 34.1797L33.7217 34.3311H33.7207C32.5654 34.8212 31.5203 35.5313 30.4668 36.1719L30.0146 36.4414C29.7652 36.5853 29.5571 36.6709 29.3877 36.7051C29.2193 36.7391 29.1005 36.7202 29.0156 36.6729C28.9314 36.6258 28.8553 36.5364 28.7998 36.3779C28.7438 36.2178 28.7129 35.9975 28.7129 35.71V33.9629L28.4697 34.1016L23.5518 36.917C23.333 37.0394 23.2162 37.2176 23.1719 37.4141C23.1299 37.6001 23.1552 37.7936 23.1963 37.9609V37.9619C23.3885 38.9426 23.2603 39.6905 22.8818 40.2812C22.5482 40.8021 22.0086 41.2185 21.2783 41.5625L20.9541 41.7051L20.9531 41.7061C19.6333 42.266 18.3801 43.1526 17.1699 43.8555C16.6814 44.129 16.3782 44.1456 16.207 44.0449C16.0356 43.9441 15.9053 43.672 15.9053 43.125C15.9053 41.0645 15.9058 38.9621 15.8662 36.8994C15.8662 36.6413 15.9123 36.4426 16.0039 36.2803C16.0953 36.1185 16.2395 35.9787 16.459 35.8506L16.458 35.8496C18.2819 34.8187 20.1063 33.7494 21.9287 32.6797C22.3773 32.4261 22.6611 32.4095 22.8223 32.5049C22.984 32.601 23.1133 32.8636 23.1133 33.4102V35.6719L23.3564 35.5342C25.1015 34.5426 26.689 33.6308 28.3154 32.6787L28.3145 32.6768C28.5408 32.5496 28.6446 32.3556 28.6758 32.1562C28.7052 31.9677 28.6702 31.7769 28.6289 31.6299C28.4172 30.5481 28.5283 29.7008 28.9277 29.0273C29.2788 28.4355 29.8643 27.9581 30.6963 27.5742L31.0684 27.416L31.0693 27.415C32.3537 26.8933 33.5274 26.0455 34.7002 25.3418L34.6992 25.3408C35.1653 25.0692 35.4593 25.054 35.6299 25.1543C35.7827 25.2444 35.9066 25.4674 35.9482 25.8877L35.9609 26.0811C35.9707 26.5513 35.9779 26.9176 36.0107 27.1797C36.0272 27.3113 36.0515 27.4282 36.0908 27.5234C36.1308 27.62 36.1918 27.7076 36.2891 27.7598C36.386 27.8116 36.4935 27.8147 36.5967 27.7959C36.6988 27.7773 36.8114 27.7348 36.9336 27.6777C37.0557 27.6207 37.197 27.544 37.3594 27.4512L37.9111 27.127C38.5154 26.7715 39.0885 26.3741 39.6895 26.0986L39.9492 25.9883L39.9512 25.9873C40.5019 25.7629 40.9436 25.4689 41.2119 25.0527C41.4491 24.6847 41.5393 24.2395 41.4746 23.7021L41.4375 23.4668V23.4658L41.4297 23.3525C41.4308 23.3123 41.4343 23.268 41.4395 23.2168C41.4466 23.1454 41.4567 23.0576 41.4502 22.9648L41.4375 22.8711C41.3443 22.3264 41.4128 21.9232 41.6104 21.5938C41.8114 21.2586 42.1588 20.9786 42.6631 20.707L42.6621 20.7061C43.9138 20.08 45.1034 19.3639 46.2842 18.6621L47.4648 17.9688L47.4658 17.9678ZM21.7051 34.5664C21.6059 34.5196 21.4988 34.5316 21.4072 34.5576C21.3603 34.571 21.3107 34.59 21.2588 34.6133L21.0967 34.6943L21.0928 34.6973C20.5184 35.0339 19.9336 35.3709 19.3486 35.708C18.7673 36.043 18.1855 36.3785 17.6133 36.7139C17.4285 36.8063 17.3003 36.9289 17.2227 37.084C17.1471 37.2351 17.126 37.4032 17.126 37.5732H17.127C17.0873 39.0021 17.0869 40.5097 17.0869 42.1729V42.4551L17.3311 42.3135C18.461 41.6593 19.4785 41.0726 20.4678 40.5195L21.4512 39.9766L21.4541 39.9746C21.6155 39.8823 21.7377 39.7622 21.8184 39.6133C21.8984 39.4653 21.9326 39.2988 21.9326 39.1201C21.9326 38.1336 21.9105 37.1558 21.916 36.1611L21.9326 35.1592V35.1553C21.9326 35.0211 21.922 34.9028 21.8936 34.8076C21.8646 34.711 21.8095 34.6159 21.7051 34.5664ZM34.457 27.0039C33.7231 27.4205 33.0289 27.8173 32.3545 28.2041L30.3721 29.3438C30.2132 29.4346 30.0984 29.5442 30.0264 29.6816C29.9552 29.8175 29.9336 29.9658 29.9336 30.1191V35.0771L30.1768 34.9395C31.6533 34.1014 32.9471 33.3159 34.2988 32.5605L34.2998 32.5615L34.3066 32.5566C34.4937 32.4397 34.5996 32.3012 34.6523 32.1367C34.7012 31.9841 34.7002 31.8179 34.7002 31.666V26.8662L34.457 27.0039ZM47.5859 24.3613C47.5069 22.8603 47.5469 21.4015 47.5469 19.7305V19.4521L47.3037 19.5889C46.5296 20.0255 45.8163 20.432 45.1279 20.8232L43.1016 21.9678L43.0977 21.9697C42.9874 22.0359 42.8921 22.113 42.8281 22.2197C42.7635 22.3276 42.7412 22.4492 42.7412 22.5859V27.7021L42.9844 27.5645C44.0893 26.9373 45.0967 26.3372 46.083 25.7754L47.0654 25.2266L47.0684 25.2246C47.2201 25.1379 47.3529 25.0328 47.4463 24.8896C47.5407 24.7447 47.5869 24.5738 47.5869 24.3701L47.5859 24.3613Z" fill="#F4F4F4" stroke="black" stroke-width="0.325433"></path><path d="M47.3835 19.7344C47.3835 21.3997 47.3835 22.9064 47.3835 24.3735C47.3835 24.7304 47.2645 24.9286 46.9473 25.0872C45.6388 25.8406 44.3304 26.594 42.8633 27.4266C42.8633 25.7216 42.8633 24.1753 42.8633 22.5892C42.8633 22.3513 42.9822 22.2324 43.1408 22.1134C44.489 21.3601 45.8371 20.6067 47.3835 19.7344Z" fill="#9DD4B2"></path><path d="M17.248 42.1714C17.248 40.5061 17.248 39.039 17.248 37.5323C17.248 37.215 17.3273 36.9771 17.6446 36.8185C18.8341 36.1841 19.984 35.5101 21.1338 34.7964C21.5303 34.5584 21.7286 34.5981 21.7286 35.1136C21.7286 36.422 21.7286 37.7305 21.7286 39.0786C21.7286 39.3958 21.6493 39.6338 21.3321 39.7924C20.0633 40.5457 18.7548 41.2991 17.248 42.1714Z" fill="#9DD4B2"></path><path d="M34.5346 27.1484C34.5346 28.7741 34.5346 30.2412 34.5346 31.6686C34.5346 31.9858 34.5346 32.2237 34.2174 32.422C32.8693 33.1754 31.5608 33.9287 30.0938 34.801C30.0938 33.1357 30.0938 31.629 30.0938 30.1222C30.0938 29.8447 30.1731 29.6464 30.4506 29.4878C31.7591 28.7345 33.0676 27.9811 34.5346 27.1484Z" fill="#9DD4B2"></path></svg>