<svg xmlns="http://www.w3.org/2000/svg" width="31" height="36" viewBox="0 0 31 36" fill="none"><path d="M30.8682 15.4934C30.8951 16.2437 30.9794 16.9868 30.9395 17.717C30.904 18.364 30.7706 18.994 30.4121 19.593L30.2441 19.8469C29.8778 20.3546 29.379 20.6702 28.8564 20.967L28.3311 21.2639C26.1621 22.5176 23.992 23.7698 21.8213 25.0208L15.3066 28.7688C13.4857 29.8171 11.6632 30.863 9.8418 31.9104L4.38379 35.0627C4.03319 35.2666 3.70435 35.3987 3.38672 35.4094C3.07629 35.4198 2.77125 35.3135 2.45996 35.0315C2.40161 34.0018 2.39965 32.9696 2.45508 31.9397L2.49609 31.8391V31.8381L2.51758 31.802L2.51953 31.7991L2.53809 31.7727L2.54004 31.7698C2.56084 31.7407 2.58497 31.7139 2.61133 31.6897C2.65981 31.65 2.71048 31.6129 2.7627 31.5784L2.92383 31.4827L2.92578 31.4817C3.79196 30.9765 4.66069 30.4763 5.53027 29.9768L8.13965 28.4758H8.14062C10.2205 27.2729 12.3033 26.0753 14.3867 24.8782L20.6367 21.2834C22.2574 20.3478 23.8791 19.4138 25.501 18.4807L30.3682 15.6858C30.4149 15.6596 30.4601 15.6286 30.5029 15.6008C30.5465 15.5726 30.5884 15.5471 30.6309 15.5266C30.7053 15.4907 30.7803 15.4737 30.8682 15.4934Z" fill="#35B777" stroke="black" stroke-width="0.1"></path><path d="M25.1895 0.897461C25.379 0.894089 25.5718 0.940264 25.7715 1.04199L25.9736 1.16309C26.5266 1.53943 27.1348 1.85878 27.7148 2.20215C27.7124 2.23003 27.7043 2.25017 27.6885 2.2666C27.6774 2.27812 27.6634 2.28822 27.6475 2.29785L27.5938 2.32617C26.32 2.90429 25.1242 3.62876 23.9277 4.33984L22.7285 5.04004C20.3739 6.3828 18.0235 7.73446 15.6748 9.08789L8.62988 13.1504C8.29869 13.3412 7.96936 13.534 7.63965 13.7256L6.64453 14.291C5.7115 14.8041 5.16438 15.5833 4.94434 16.5752L4.90527 16.7764C4.75557 17.6242 4.62275 18.4755 4.49414 19.3271L4.10645 21.8809C4.0615 22.1622 4.01681 22.445 3.97363 22.7266C3.93065 23.0069 3.88314 23.2911 3.8418 23.5732L3.58398 25.2666L3.45508 26.1123C3.41191 26.3947 3.37038 26.6777 3.32812 26.96L3.19922 27.8066L3.06934 28.6523C3.0262 28.9346 2.98281 29.2168 2.93848 29.499L2.80664 30.3447L2.67383 31.1807V31.1826C2.66743 31.2358 2.65796 31.2885 2.64648 31.3408L2.60449 31.4961C2.59039 31.5372 2.5718 31.5764 2.54883 31.6133C2.53745 31.6312 2.52539 31.6488 2.51172 31.665C2.51097 31.6657 2.50849 31.6667 2.50488 31.6699C2.50031 31.6739 2.49428 31.6801 2.48828 31.6855C2.48238 31.6909 2.47536 31.6971 2.46973 31.7031C2.46699 31.7061 2.46313 31.7102 2.45996 31.7148L2.45605 31.7188L2.44629 31.7227C2.44446 31.7234 2.44293 31.7249 2.44141 31.7256C2.44038 31.726 2.43934 31.7262 2.43848 31.7266L2.43359 31.7246H2.43262C1.59587 31.4095 0.818837 30.9551 0.132812 30.3818C0.164271 29.6518 0.289511 28.937 0.410156 28.2178L0.527344 27.4873C0.735464 26.0669 0.952481 24.648 1.17285 23.2295L1.83594 18.9736C1.97833 18.0531 2.10939 17.132 2.25586 16.2139L2.4082 15.2969C2.58615 14.2907 3.09558 13.51 3.95801 12.9639L4.13574 12.8574C6.20528 11.6868 8.25939 10.4903 10.3203 9.30469C10.3419 9.3336 10.3597 9.36508 10.3682 9.40039C10.3795 9.44768 10.378 9.4976 10.3633 9.54395L10.4102 9.55957L10.3613 9.54395L10.3604 9.55664C10.3593 9.57639 10.3546 9.5955 10.3467 9.61328L10.3135 9.66113L10.3125 9.66309L10.2305 9.73633L10.2295 9.7373C10.2015 9.75852 10.1683 9.78126 10.1396 9.80469C10.1105 9.82854 10.0819 9.85606 10.0596 9.8877C10.0369 9.91991 10.0202 9.95779 10.0176 10.002C10.0163 10.0238 10.0189 10.0462 10.0244 10.0693L10.0508 10.1406V10.1416C10.1113 10.261 10.2202 10.3322 10.3311 10.3877C10.3865 10.4154 10.4459 10.4401 10.501 10.4648L10.6582 10.5439C10.969 10.7319 11.2499 10.8057 11.5146 10.751C11.7459 10.7032 11.9562 10.5591 12.1582 10.3262L12.2656 10.1943L12.248 10.165C12.2279 10.131 12.1994 10.1106 12.167 10.1016C12.1367 10.0932 12.1045 10.0953 12.0781 10.0986C12.0541 10.1016 12.0221 10.1084 12.0029 10.1113C11.9796 10.1149 11.9627 10.1154 11.9502 10.1133L11.9287 10.1006C11.9255 10.0963 11.9222 10.0897 11.9189 10.0801L11.9102 10.04L11.8721 9.62793C11.8459 9.21632 11.8556 8.8029 11.9023 8.39258C11.9108 8.36165 11.9237 8.33231 11.9395 8.30469L11.999 8.22656V8.22559L12.0586 8.17383L12.0596 8.17285C12.0881 8.15091 12.1172 8.12979 12.1475 8.11035L12.2412 8.05664L12.2422 8.05566L16.8926 5.37305V5.37207C17.0473 5.28107 17.1858 5.19672 17.3545 5.22363L17.3623 5.22852C17.4171 5.26067 17.4425 5.30011 17.4531 5.34473C17.4588 5.36868 17.4603 5.3952 17.459 5.42383L17.4473 5.5166C17.4459 5.5235 17.443 5.53007 17.4395 5.53613L17.3584 5.62305V5.62402L17.3398 5.64355C17.2577 5.73413 17.1956 5.80753 17.1602 5.87109C17.1234 5.93706 17.1115 6.00107 17.1416 6.06641C17.1688 6.12531 17.2274 6.17748 17.3047 6.23242L17.627 6.43848C17.8645 6.58873 18.0941 6.68332 18.3281 6.69434C18.5047 6.70262 18.6803 6.66349 18.8604 6.56934L19.042 6.45703C19.1054 6.41203 19.1627 6.3689 19.207 6.32617C19.2508 6.28388 19.287 6.23713 19.3008 6.18457C19.3154 6.12862 19.3027 6.07341 19.2656 6.02051C19.2478 5.99499 19.2239 5.96985 19.1943 5.94434L19.0889 5.86719L19.0693 5.84961L19.0674 5.84766L19.0605 5.8418C19.0399 5.81516 19.0231 5.78582 19.0098 5.75488C18.9775 5.58373 18.9596 5.41052 18.9443 5.23535L18.8936 4.7002C18.8818 4.60678 18.8807 4.51638 18.9043 4.4375C18.9216 4.37978 18.9523 4.32652 19.0049 4.28223L19.0654 4.24121V4.24023L24.0684 1.375L24.4189 1.1709C24.683 0.994928 24.9365 0.901997 25.1895 0.897461Z" fill="#35B777" stroke="black" stroke-width="0.1"></path><path d="M27.7676 2.22729C28.0212 2.31974 28.1905 2.46276 28.3096 2.64526C28.4015 2.78609 28.4644 2.95218 28.5117 3.14038L28.5547 3.33667C28.9283 5.30115 29.3089 7.26451 29.6914 9.22729L30.8398 15.114C30.8534 15.2186 30.859 15.324 30.8594 15.4294L24.7783 18.9109L13.3955 25.4695L2.4834 31.7595C2.47867 31.7613 2.47364 31.7613 2.46875 31.7625L2.47461 31.7468C2.62643 31.4025 2.70487 31.0434 2.75977 30.6833C2.78717 30.5036 2.80867 30.3227 2.83105 30.1433L2.90625 29.6082C3.04878 28.7651 3.17951 27.9197 3.30664 27.074L3.68555 24.5359L4.3584 20.0408C4.49336 19.1581 4.61796 18.2746 4.76855 17.3962L4.92871 16.5203C5.15281 15.3835 5.91053 14.7031 6.84082 14.1384L7.24902 13.9021C8.31328 13.3126 9.37006 12.7077 10.4238 12.0984L13.5811 10.2693C15.6651 9.07055 17.7498 7.87398 19.835 6.67944C20.8777 6.08208 21.9192 5.4824 22.96 4.88159L26.0791 3.07495C26.6308 2.75751 27.1685 2.42984 27.7676 2.22729Z" fill="#9DD4B2" stroke="black" stroke-width="0.1"></path><path d="M17.3643 2.51733C17.6377 2.3587 17.9109 2.2665 18.2227 2.32397C18.4762 2.41845 18.655 2.55716 18.7705 2.73608C18.8865 2.9159 18.9419 3.14073 18.9424 3.40991L18.9355 3.60718C18.9324 3.67383 18.9292 3.74211 18.9297 3.8103C18.9307 3.94236 18.946 4.07745 19.002 4.20874C18.9512 4.47877 18.94 4.75077 18.9453 5.02222L18.9834 5.84839V5.89136C18.9832 6.24018 18.6583 6.48841 18.2578 6.41968L18.2588 6.4187H18.2314C18.1658 6.26253 18.1483 6.1012 18.1484 5.93335C18.1485 5.84632 18.1526 5.75885 18.1562 5.66968L18.1602 5.40112C18.1521 5.16425 18.1568 4.92651 18.1592 4.68726C18.1604 4.56811 18.1606 4.44857 18.1592 4.32886L18.1465 3.96851C18.1397 3.86168 18.1278 3.77252 18.1045 3.7019C18.0809 3.63075 18.0449 3.57463 17.9902 3.53687C17.9359 3.49942 17.8682 3.48453 17.79 3.48315C17.7122 3.4818 17.6191 3.4941 17.5088 3.51538L17.5176 3.56421L17.5078 3.51343L17.4951 3.51929L17.4268 3.55444L17.3965 3.57007C16.7894 3.88151 16.1923 4.2119 15.6006 4.55054L13.834 5.57886C13.5949 5.71845 13.3477 5.8518 13.1064 5.99585L12.8672 6.14429C12.3167 6.5005 11.9955 6.98808 12.0146 7.66968L12.0137 7.67065L12.0146 7.67358C12.0277 7.82404 12.0146 7.97568 11.9766 8.12183C11.9631 8.16713 11.9436 8.21041 11.9189 8.25073L11.9121 8.26245V8.27612C11.9056 8.89974 11.8978 9.52438 11.8906 10.1492C11.807 10.2738 11.7214 10.3799 11.6191 10.4431C11.5183 10.5053 11.3985 10.5276 11.2393 10.4783C10.9743 9.06686 10.8756 7.6868 11.5791 6.39819L11.7324 6.14038V6.1394C11.944 5.8002 12.2262 5.5115 12.5586 5.29175L12.7041 5.2019C13.4784 4.75301 14.2565 4.30658 15.0342 3.86011L17.3643 2.51733Z" fill="#35B777" stroke="black" stroke-width="0.1"></path><path d="M16.6016 2.12244C16.8973 1.94992 17.1701 1.89948 17.4297 1.93787C17.6621 1.9723 17.8864 2.08102 18.1113 2.24353C17.6065 2.3844 17.1514 2.61788 16.7129 2.87634C16.36 3.08436 16.0205 3.30599 15.6719 3.51013L15.3184 3.7074C14.8753 3.9411 14.4406 4.18928 14.0088 4.44275L12.7178 5.21228C11.6897 5.8208 11.2363 6.76939 11.123 7.87244L11.1055 8.09509C11.0513 8.88886 11.0717 9.68601 11.166 10.476C11.0831 10.4984 10.9703 10.4911 10.8467 10.4486C10.7443 10.4134 10.6389 10.3567 10.5439 10.2836L10.4531 10.2054C10.31 10.0665 10.2539 9.92903 10.3008 9.78259C10.3096 9.757 10.3203 9.73216 10.333 9.70837L10.377 9.64001L10.3867 9.62732V9.60974C10.3867 9.48281 10.3826 9.35392 10.3809 9.22888H10.3799C10.419 8.85552 10.4028 8.47992 10.3945 8.11072C10.3883 7.83099 10.3868 7.55398 10.4189 7.27966L10.4629 7.00623C10.6503 6.11349 11.0821 5.38444 11.8369 4.88806L11.9922 4.79236C12.759 4.34581 13.5285 3.90268 14.2979 3.45935L16.6016 2.12244Z" fill="#9DD4B2" stroke="black" stroke-width="0.1"></path><path d="M2.46875 31.954C2.46875 32.3676 2.44586 32.7805 2.43457 33.1971C2.42613 33.5088 2.42381 33.8217 2.44238 34.1346L2.46875 34.4471C2.47654 34.5237 2.48745 34.5992 2.49902 34.6737L2.53125 34.8973L2.53223 34.9003C2.53543 34.918 2.53229 34.936 2.52637 34.953C2.52448 34.9553 2.52176 34.9617 2.51367 34.9686C2.50315 34.9777 2.48876 34.9868 2.47461 34.995C2.46037 35.0032 2.44742 35.0089 2.4375 35.0116C2.4344 35.0124 2.43207 35.0124 2.43066 35.0126L1.33008 34.3788H1.3291C1.18598 34.2967 1.03677 34.1989 0.883789 34.1219L0.861328 34.1659L0.883789 34.121H0.882812C0.808401 34.0867 0.735298 34.0486 0.665039 34.0067L0.461914 33.87C0.334652 33.7732 0.235223 33.6445 0.173828 33.4969C0.140628 33.3841 0.118923 33.2683 0.109375 33.1512L0.104492 33.0331L0.103516 33.0292L0.0673828 32.4852C0.058432 32.3089 0.0526887 32.1297 0.0507812 31.9501L0.0566406 31.41L0.0869141 30.8641L0.112305 30.5956V30.5907C0.112327 30.5906 0.112377 30.588 0.113281 30.5819C0.114172 30.5759 0.115594 30.5684 0.117188 30.5594C0.120353 30.5417 0.124403 30.5182 0.12793 30.496C0.128633 30.4915 0.128248 30.4869 0.128906 30.4823L2.39941 31.7626C2.42639 31.7836 2.44763 31.8117 2.45996 31.8436C2.47236 31.8759 2.47588 31.9111 2.46973 31.9452L2.51855 31.954L2.46875 31.9452V31.954Z" fill="#9DD4B2" stroke="black" stroke-width="0.1"></path><path d="M18.251 24.0636C18.4756 24.0587 18.627 24.0934 18.7246 24.1681C18.7966 24.2232 18.8453 24.3044 18.8682 24.423L18.8828 24.5548C18.8957 24.8721 18.7576 25.2838 18.5195 25.6144C18.2816 25.9445 17.9525 26.1811 17.5869 26.174C17.4292 26.1473 17.3314 26.084 17.2705 25.9952C17.2235 25.9266 17.1956 25.8394 17.1826 25.7345L17.1748 25.6232L17.1738 25.6222L17.1729 25.4933C17.1817 25.1942 17.2766 24.9027 17.4482 24.6554C17.6431 24.3748 17.9256 24.1672 18.251 24.0636Z" fill="#286345" stroke="black" stroke-width="0.1"></path><path d="M12.8467 27.1807C13.1239 27.1585 13.2951 27.1982 13.3936 27.2939C13.4673 27.3658 13.5084 27.4777 13.5146 27.6436L13.5088 27.8271V27.8281C13.444 28.6133 12.8051 29.2519 12.1299 29.2373C11.994 29.1871 11.9102 29.1114 11.8594 29.0166C11.8199 28.9427 11.7982 28.8549 11.791 28.7549L11.7881 28.6514C11.7968 28.005 12.2517 27.3729 12.8467 27.1807Z" fill="#286345" stroke="black" stroke-width="0.1"></path><path d="M14.4873 27.1361C14.4795 26.7852 14.604 26.433 14.8115 26.1517C15.0184 25.8715 15.3047 25.6648 15.6191 25.599C15.8046 25.5767 15.9377 25.6119 16.0283 25.6879C16.0966 25.7451 16.1459 25.8298 16.1729 25.9437L16.1924 26.0668C16.2247 26.4318 16.0662 26.8642 15.8115 27.1957C15.5565 27.5276 15.2178 27.7433 14.8955 27.7054H14.8965C14.7385 27.6724 14.6387 27.6051 14.5771 27.5131C14.5146 27.4194 14.4873 27.2939 14.4873 27.1371V27.1361Z" fill="#286345" stroke="black" stroke-width="0.1"></path><path d="M23.5615 20.9939C23.8565 20.9729 24.0309 21.0124 24.1279 21.1111C24.2011 21.1855 24.2389 21.3032 24.2412 21.4822L24.2314 21.6824C24.1536 22.4748 23.5368 23.0688 22.8457 23.0447C22.7021 22.9863 22.6121 22.8969 22.5615 22.7908C22.5225 22.7086 22.5059 22.6144 22.5088 22.5134L22.5176 22.4109C22.6153 21.755 22.9045 21.2323 23.5615 20.9939Z" fill="#286345" stroke="black" stroke-width="0.1"></path><path d="M10.165 28.7173C10.4213 28.6442 10.5942 28.7014 10.6982 28.8237C10.7789 28.9185 10.8249 29.0596 10.8301 29.23L10.8213 29.4087V29.4097C10.7339 30.195 10.1138 30.7957 9.43262 30.7729C9.30861 30.7185 9.2079 30.6224 9.14844 30.5005C9.1029 30.4071 9.08314 30.3039 9.0918 30.2017L9.11035 30.0991V30.0972C9.1802 29.7838 9.26791 29.4852 9.42578 29.2417C9.56294 29.0303 9.7544 28.859 10.0371 28.7573L10.1641 28.7183L10.165 28.7173Z" fill="#286345" stroke="black" stroke-width="0.1"></path><path d="M20.9297 22.5293C21.2047 22.5247 21.3802 22.584 21.4775 22.6973C21.5508 22.7827 21.5873 22.9072 21.5801 23.0781L21.5576 23.2646C21.4083 24.0964 20.8104 24.6381 20.1436 24.584C20.0495 24.552 19.991 24.5009 19.9521 24.4355C19.9319 24.4015 19.9161 24.3632 19.9043 24.3203L19.8779 24.1787V24.1777C19.8315 23.8216 19.9133 23.4604 20.1074 23.1582C20.2998 22.8589 20.5905 22.6361 20.9297 22.5293Z" fill="#286345" stroke="black" stroke-width="0.1"></path><path d="M15.3965 25.6058C15.177 25.7377 14.986 25.9139 14.8359 26.1234C14.6432 26.3927 14.5249 26.7079 14.4932 27.0375C14.4731 27.1976 14.4853 27.3477 14.5439 27.4789C14.5814 27.5626 14.6383 27.6353 14.7139 27.6986C14.4886 27.6797 14.3385 27.6102 14.2529 27.4994C14.1474 27.3625 14.1267 27.1462 14.2148 26.8373C14.3417 26.4087 14.5257 26.0917 14.7588 25.8861C14.9396 25.7267 15.1522 25.6327 15.3965 25.6058Z" fill="#9DD4B2" stroke="black" stroke-width="0.1"></path><path d="M18.0527 24.0734C17.6318 24.3577 17.3408 24.7359 17.2227 25.2316L17.1797 25.4806C17.1613 25.6436 17.1693 25.8004 17.2275 25.9376C17.2658 26.0274 17.3268 26.1047 17.4102 26.171C17.1887 26.1548 17.04 26.0893 16.9541 25.9825C16.8608 25.8664 16.8307 25.6897 16.8799 25.4425L16.9062 25.3322C17.0201 24.9121 17.199 24.5908 17.4258 24.3771C17.6053 24.2078 17.8159 24.1047 18.0527 24.0734Z" fill="#9DD4B2" stroke="black" stroke-width="0.1"></path><path d="M20.7061 22.5547C20.3986 22.7628 20.1583 23.0307 20.0127 23.377L19.9463 23.5615C19.8403 23.9119 19.7994 24.2759 20.0449 24.6016C19.9276 24.6245 19.8359 24.611 19.7646 24.5684C19.7001 24.5296 19.6469 24.4652 19.6064 24.374L19.5703 24.2744C19.4644 23.9071 19.6017 23.4696 19.8721 23.1211C20.0916 22.8383 20.3926 22.6247 20.7061 22.5547Z" fill="#9DD4B2" stroke="black" stroke-width="0.1"></path><path d="M23.3779 21.0105C23.0472 21.2667 22.7823 21.5755 22.6377 21.9783L22.5771 22.1833C22.5348 22.3591 22.5218 22.5278 22.5547 22.6873C22.5804 22.8117 22.6344 22.9281 22.7207 23.0369C22.5357 23.0254 22.4242 22.9931 22.3555 22.9275C22.2744 22.8499 22.2398 22.7169 22.2402 22.4753L22.248 22.3289C22.3135 21.6698 22.8025 21.1094 23.3779 21.0105Z" fill="#9DD4B2" stroke="black" stroke-width="0.1"></path><path d="M9.9502 28.7461C9.63847 28.974 9.39663 29.2849 9.25293 29.6436L9.18945 29.8281C9.13337 30.0189 9.10865 30.2031 9.13672 30.3779C9.15951 30.5197 9.21762 30.6525 9.31641 30.7773C9.13185 30.7688 9.02429 30.7385 8.95898 30.6738C8.88154 30.5971 8.84963 30.4613 8.84961 30.207V30.2061C8.83857 29.4922 9.33606 28.8668 9.9502 28.7461Z" fill="#9DD4B2" stroke="black" stroke-width="0.1"></path><path d="M12.6865 27.1671C12.4921 27.2907 12.3206 27.4473 12.1816 27.632C12.0546 27.8008 11.9561 27.9887 11.8906 28.1886L11.8359 28.3917C11.7665 28.701 11.7829 29.0065 12.0137 29.254C11.8684 29.2683 11.7621 29.2433 11.6855 29.1837C11.6156 29.129 11.5641 29.042 11.5332 28.92L11.5088 28.7853C11.4704 28.4573 11.6309 28.0113 11.8926 27.6671C12.1181 27.3705 12.4048 27.168 12.6865 27.1671Z" fill="#9DD4B2" stroke="black" stroke-width="0.1"></path><path d="M17.6738 3.37085C17.7362 3.35789 17.8052 3.36306 17.876 3.38062L17.9473 3.4021C18.045 3.43645 18.1023 3.50054 18.1367 3.58179C18.172 3.66519 18.1836 3.7674 18.1836 3.87378L18.1914 6.42261C17.9143 6.44018 17.6983 6.36157 17.5664 6.22241C17.4457 6.09476 17.3896 5.91133 17.4268 5.69116L17.4482 5.59546V5.59448C17.4862 5.45708 17.4821 5.31176 17.4375 5.17651C17.4476 4.62838 17.4567 4.08051 17.4668 3.53296C17.5229 3.43281 17.5957 3.38713 17.6738 3.37085Z" fill="#9DD4B2" stroke="black" stroke-width="0.1"></path><path d="M17.3477 5.66406C17.3476 5.78385 17.3686 5.886 17.4072 5.97363C17.4549 6.08176 17.5282 6.16526 17.6152 6.23242C17.7863 6.36428 18.0189 6.43762 18.2256 6.5166L18.2441 6.52441L18.2627 6.5166C18.4181 6.45378 18.6016 6.39971 18.751 6.30957C18.8941 6.22319 19.0115 6.10022 19.0674 5.90039C19.1485 5.91783 19.2267 5.94312 19.2881 5.98242C19.3416 6.01671 19.3808 6.05925 19.4014 6.11133L19.416 6.16699C19.4226 6.21972 19.3927 6.26216 19.3262 6.30664C19.2937 6.32836 19.2556 6.34806 19.2158 6.36816L19.0986 6.42969C18.4553 6.81333 17.6852 6.70192 17.1436 6.16895L17.0391 6.05762C16.982 5.99196 16.9668 5.94669 16.9707 5.91602C16.9744 5.88735 16.9973 5.85211 17.0684 5.81152C17.1274 5.7802 17.1868 5.74954 17.2461 5.71875C17.2801 5.7011 17.3135 5.68189 17.3477 5.66406Z" fill="#216E46" stroke="black" stroke-width="0.1"></path><path d="M10.2881 9.76807L10.333 9.91553V9.9165C10.3675 10.023 10.4233 10.1214 10.4961 10.2065C10.5684 10.2911 10.6567 10.3602 10.7559 10.4106V10.4116C10.8475 10.4611 10.9603 10.5126 11.0762 10.5376C11.163 10.5564 11.2547 10.5612 11.3418 10.5366L11.4268 10.5015L11.7861 10.3218L11.7852 10.3208C11.8733 10.2799 11.9522 10.2225 12.0156 10.1499L12.0742 10.0718L12.0752 10.0708C12.0903 10.0459 12.0962 10.0319 12.1084 10.0142L12.1367 9.98779C12.1484 9.98272 12.1638 9.98264 12.1855 9.99365L12.251 10.0464L12.2559 10.0513C12.2822 10.0734 12.3031 10.1011 12.3174 10.1323C12.331 10.1623 12.3369 10.1952 12.3369 10.228C12.3271 10.2569 12.3125 10.2846 12.293 10.3081C12.2824 10.3207 12.2705 10.332 12.2578 10.3423L12.2158 10.3696L12.21 10.3735C11.9261 10.5779 11.5932 10.7032 11.2451 10.7378C11.0522 10.7442 10.8611 10.7102 10.6836 10.6382L10.5098 10.5532L10.3428 10.4497C10.2892 10.4128 10.2374 10.3734 10.1875 10.3315L10.1553 10.3696L10.1875 10.3306L10.1836 10.3286L10.1123 10.2729C10.0445 10.215 9.98418 10.1485 9.93359 10.0747H9.93457C9.91292 10.0365 9.91554 10.0075 9.92871 9.98096C9.93622 9.96594 9.94743 9.95064 9.96191 9.93604L10.0146 9.89307L10.0156 9.89209C10.0965 9.83231 10.1863 9.77515 10.2783 9.71631C10.2813 9.73346 10.2838 9.75123 10.2881 9.76807Z" fill="#216E46" stroke="black" stroke-width="0.1"></path><path d="M29.0781 11.2637C29.2009 11.5189 29.2657 11.7899 29.3125 12.0693C29.3365 12.2124 29.3566 12.3594 29.3779 12.5068L29.4521 12.9463C29.5072 13.2072 29.5578 13.4709 29.6104 13.7344L29.7783 14.5215C29.8126 14.6711 29.8028 14.7828 29.7578 14.874C29.7237 14.9431 29.6669 15.0048 29.584 15.0635L29.4922 15.1211C28.4287 15.7288 27.3663 16.3383 26.3047 16.9492L23.1221 18.7871L9.53418 26.6191L4.44238 29.541V29.542C4.36745 29.5852 4.30674 29.6264 4.24023 29.6475C4.19443 29.662 4.14758 29.6659 4.09473 29.6475L4.03906 29.6211L3.98438 29.5811C3.93762 29.5394 3.91435 29.4927 3.90332 29.4424C3.89555 29.4069 3.89381 29.3688 3.89551 29.3281L3.9082 29.1992C4.01875 28.4853 4.12969 27.7715 4.24023 27.0576L4.57227 24.915C4.61454 24.6392 4.66345 24.3601 4.69629 24.0801L4.72266 23.7998V23.7979C4.72493 23.7191 4.74856 23.6425 4.79102 23.5762C4.83363 23.5097 4.89405 23.4559 4.96484 23.4209L4.97949 23.4131L4.9873 23.3984C5.02662 23.322 5.08539 23.2701 5.15625 23.2275L5.39258 23.1113C6.76676 22.4314 8.15044 21.7708 9.53418 21.1094C10.2259 20.7787 10.9181 20.4482 11.6084 20.1143L13.6748 19.1006C13.84 19.0185 13.9768 18.993 14.0957 19.0186C14.1844 19.0377 14.2689 19.0862 14.3516 19.1699L14.4336 19.2656C14.5657 19.4383 14.708 19.6048 14.8516 19.7686L15.2773 20.2568C15.3148 20.3012 15.364 20.3683 15.4229 20.4121C15.4535 20.4349 15.4898 20.4535 15.5312 20.4609C15.5731 20.4683 15.6181 20.4635 15.665 20.4443L15.6641 20.4434C15.7474 20.4095 15.7852 20.3455 15.8027 20.2783C15.8112 20.2456 15.8155 20.2114 15.8184 20.1797L15.8262 20.0889C15.9282 19.1679 16.0146 18.2461 16.1006 17.3242C16.1436 16.8631 16.1859 16.4016 16.2305 15.9404L16.3711 14.5566C16.4074 14.2208 16.4744 13.8751 16.4717 13.5244L16.4746 13.4287C16.4774 13.3977 16.4828 13.368 16.4922 13.3418C16.5094 13.2938 16.5402 13.2573 16.6025 13.2422C16.6349 13.2344 16.6606 13.2363 16.6816 13.2432C16.7031 13.2502 16.723 13.2641 16.7422 13.2832C16.7621 13.3031 16.7794 13.3276 16.7959 13.3545L16.8438 13.4404C17.0233 13.7838 17.1994 14.1299 17.3711 14.4785L17.874 15.5322C17.9811 15.7634 18.0907 15.9933 18.2012 16.2227L18.8672 17.5957L19.1934 18.2852C19.2096 18.3207 19.2238 18.362 19.2412 18.4082C19.2581 18.453 19.2777 18.5011 19.3027 18.5439C19.3278 18.5869 19.3609 18.6285 19.4062 18.6553C19.4413 18.6759 19.4812 18.6865 19.5264 18.6855L19.5732 18.6807C19.6974 18.6576 19.753 18.5642 19.7822 18.4688C19.7968 18.4213 19.8057 18.37 19.8135 18.3223L19.8379 18.1885C20.1319 16.9437 20.425 15.6978 20.7324 14.4561L21.0449 13.2158C21.0581 13.1652 21.0668 13.1076 21.0752 13.0537C21.0838 12.9985 21.0922 12.9455 21.1064 12.8984C21.1207 12.8513 21.1396 12.8132 21.165 12.7861C21.1771 12.7733 21.1916 12.7625 21.209 12.7539L21.2725 12.7354C21.3263 12.7292 21.3682 12.7403 21.4033 12.7607C21.4394 12.7817 21.4713 12.8146 21.501 12.8574C21.5307 12.9003 21.557 12.9508 21.583 13.0039L21.6621 13.1602C21.9108 13.6013 22.1472 14.0556 22.4092 14.4922C22.4744 14.6009 22.5295 14.6857 22.5811 14.7471C22.6329 14.8087 22.6863 14.8522 22.751 14.8682C22.8157 14.8841 22.8829 14.8706 22.9561 14.8408C22.9923 14.8261 23.0318 14.8067 23.0752 14.7832L23.2197 14.7002L28.5361 11.5156C28.5834 11.4869 28.6298 11.4544 28.6748 11.4238C28.7204 11.3928 28.7655 11.3634 28.8115 11.3379C28.8948 11.2918 28.9805 11.2625 29.0781 11.2637Z" fill="#BBE0C5" stroke="black" stroke-width="0.1"></path><path d="M27.5576 3.38916C27.5751 3.39741 27.5937 3.41672 27.6113 3.45752C27.6201 3.47793 27.6285 3.50242 27.6357 3.53174L27.6553 3.63525C27.7003 3.9456 27.7561 4.25512 27.8145 4.56396L27.9902 5.48779C27.9994 5.54065 27.9947 5.57759 27.9844 5.604C27.9741 5.62999 27.9567 5.64988 27.9326 5.6665C27.9066 5.68442 27.8755 5.69771 27.8408 5.7085L27.7275 5.73779C27.0898 5.89935 26.6676 6.29695 26.3633 6.82568L26.2393 7.06006C25.9215 7.71998 25.5837 8.35037 24.9971 8.79834L24.876 8.88525C24.4632 9.15488 24.0166 9.36817 23.5479 9.51904L23.3457 9.57959L23.3447 9.58057C22.9943 9.68688 22.6427 9.78884 22.29 9.88721L21.2295 10.1704C20.0488 10.4683 19.1315 11.1405 18.3916 12.0747C18.198 12.3054 17.9933 12.527 17.7783 12.7378L17.5596 12.9448L17.5586 12.9458C17.4418 13.0617 17.3396 13.1549 17.1846 13.1196C17.054 13.0301 16.9738 12.9068 16.9053 12.7681C16.8701 12.6968 16.839 12.6242 16.8047 12.5493C16.7878 12.5124 16.7699 12.4756 16.751 12.439L16.6895 12.3306C16.6773 12.3098 16.6668 12.2883 16.6533 12.2632C16.6402 12.2387 16.625 12.2114 16.6064 12.188C16.5877 12.1644 16.5634 12.1425 16.5322 12.1284C16.5004 12.114 16.4646 12.1093 16.4248 12.1167C16.3421 12.1323 16.2968 12.1852 16.2744 12.2456C16.264 12.2738 16.2584 12.3047 16.2549 12.3345L16.249 12.4175V12.4194C16.2477 12.6153 16.221 12.81 16.1699 12.9985L16.1104 13.1851L16.1084 13.1909C16.0752 13.3336 16.0498 13.4427 16.0205 13.5259C15.9913 13.6088 15.9605 13.6602 15.9219 13.6929C15.8841 13.7247 15.8324 13.7438 15.751 13.7495C15.7098 13.7524 15.6622 13.7512 15.6064 13.7476L15.4131 13.729C14.7297 13.6443 14.1534 13.7538 13.6582 14.0229C13.2256 14.2582 12.8572 14.6135 12.5342 15.062L12.3984 15.2603C11.5121 16.6093 10.2722 17.2532 8.70605 17.2603L8.38867 17.2534C7.93749 17.2268 7.4852 17.2327 7.03516 17.27L6.58594 17.3179H6.58496C6.29803 17.3591 6.01742 17.4119 5.7793 17.23C5.81359 16.7285 5.95197 16.3051 6.19043 15.9438C6.40318 15.6216 6.69681 15.3465 7.07129 15.1099L7.23633 15.0112C9.24587 13.8698 11.2498 12.7197 13.252 11.5669L19.2568 8.10596L27.3018 3.46924C27.3713 3.42888 27.4262 3.40346 27.4697 3.39111C27.513 3.3789 27.54 3.38097 27.5576 3.38916Z" fill="white" stroke="black" stroke-width="0.1"></path><path d="M28.6992 8.99048L28.9766 10.3958C28.9996 10.5051 29.0173 10.5811 29.0029 10.6477C28.9899 10.7076 28.9476 10.7689 28.8223 10.8352L28.8135 10.8401L28.8066 10.8479C28.6986 10.98 28.5738 11.0977 28.4346 11.1965C27.2089 11.9233 25.9817 12.6478 24.7627 13.386L23.5469 14.1292L23.2754 14.2815C23.1525 14.3467 23.06 14.3929 22.9863 14.4192C22.913 14.4453 22.8645 14.4488 22.8262 14.4377C22.7881 14.4267 22.7501 14.3983 22.7041 14.3381C22.6809 14.3078 22.6565 14.271 22.6299 14.2268L22.542 14.0725C22.3681 13.7572 22.1925 13.4439 22.0176 13.1301L21.499 12.1848C21.4708 12.132 21.4351 12.0538 21.3906 11.9944C21.3559 11.948 21.3105 11.9051 21.249 11.8889L21.1826 11.8821C21.1251 11.885 21.0788 11.9038 21.043 11.9348C21.0081 11.965 20.9868 12.004 20.9727 12.0432C20.9586 12.0825 20.9506 12.1257 20.9443 12.1643C20.9379 12.204 20.9328 12.238 20.9258 12.2688C20.7136 13.1105 20.5071 13.9537 20.3018 14.7971L19.6855 17.3264C19.6781 17.3563 19.6719 17.3865 19.666 17.4153L19.6465 17.5012V17.5022C19.6274 17.5794 19.6141 17.654 19.5859 17.7161C19.5658 17.7602 19.5403 17.7925 19.5039 17.8108L19.4639 17.8245H19.4629C19.4277 17.8317 19.4012 17.8274 19.3799 17.8176C19.3578 17.8074 19.3376 17.7892 19.3184 17.7639C19.2981 17.7372 19.2812 17.7061 19.2656 17.6731L19.2197 17.5706C18.9826 17.053 18.7306 16.5423 18.4795 16.0325C18.3538 15.7774 18.2282 15.5224 18.1045 15.2668L17.7412 14.4973C17.6696 14.3405 17.5955 14.1847 17.5215 14.0295C17.4474 13.8742 17.3735 13.7187 17.3027 13.5627H17.3018C17.2856 13.5261 17.2655 13.4892 17.248 13.4553C17.2298 13.42 17.2135 13.3863 17.2021 13.3528C17.1815 13.2916 17.1782 13.2314 17.2129 13.1633C17.5625 12.9998 17.8334 12.7386 18.0654 12.4592L18.2891 12.1731C19.0934 11.0989 20.1344 10.4403 21.3955 10.093L21.6504 10.0276C22.2387 9.89067 22.8205 9.72756 23.3945 9.54028L23.9668 9.34497C24.8764 9.01577 25.5143 8.42137 25.9531 7.59888L26.0381 7.43188C26.3159 6.86195 26.576 6.30653 27.1182 5.95923L27.2305 5.89185C27.2923 5.85803 27.3612 5.83639 27.4346 5.8186C27.4712 5.80973 27.5088 5.80216 27.5469 5.79419C27.5845 5.7863 27.623 5.7781 27.6611 5.7688C27.7846 5.73863 27.9088 5.69363 28.0098 5.59204L28.6992 8.99048Z" fill="#BBE0C5" stroke="black" stroke-width="0.1"></path><path d="M16.1162 13.2642C16.1701 13.3776 16.1702 13.4996 16.1543 13.6304L16.1289 13.8062V13.8071C16.0191 14.6672 15.9385 15.5299 15.8613 16.3921C15.8227 16.8233 15.7848 17.2544 15.7441 17.6851L15.6104 18.9751C15.602 19.0463 15.5997 19.1251 15.5967 19.2007C15.5937 19.2771 15.5907 19.3517 15.5801 19.4204C15.5639 19.5247 15.533 19.6072 15.4727 19.6597L15.4023 19.7017C15.3423 19.7252 15.294 19.7222 15.252 19.7046C15.208 19.6861 15.1664 19.6498 15.124 19.6001C15.0816 19.5503 15.0419 19.4912 15 19.4302C14.9795 19.4003 14.9585 19.3695 14.9365 19.3403L14.8672 19.2583L14.4307 18.7896C14.3318 18.6851 14.2539 18.6157 14.1631 18.5952C14.0709 18.5746 13.9763 18.6065 13.8516 18.6646C13.7879 18.6941 13.7128 18.7328 13.623 18.7778L13.2988 18.9351C12.5273 19.2948 11.7588 19.6623 10.9922 20.0337L8.69629 21.1548C8.11963 21.4375 7.53963 21.7148 6.95898 21.9897L5.21582 22.813C5.10158 22.8675 5.01121 22.9145 4.91016 22.8774C5.02743 22.0656 5.13511 21.2538 5.25684 20.4438L5.38672 19.6216C5.45157 19.2266 5.49242 18.826 5.54492 18.4331C5.59607 18.0503 5.65863 17.6716 5.76562 17.3013C6.33348 17.2788 6.90197 17.2659 7.4707 17.2524C7.76101 17.2456 8.05142 17.2392 8.3418 17.231L9.21289 17.2007C10.6226 17.1424 11.591 16.333 12.376 15.2739L12.5303 15.0581L12.5312 15.0571C12.7491 14.7277 13.0147 14.4325 13.3193 14.1812C13.6921 13.8879 14.0857 13.7229 14.5342 13.7085L14.7305 13.7114C14.8153 13.717 14.9013 13.7131 14.9824 13.7104C15.0237 13.7091 15.064 13.7078 15.1035 13.7085L15.2197 13.7163C15.4456 13.7479 15.6611 13.7519 15.8281 13.6704C15.9722 13.6 16.0709 13.4702 16.1162 13.2642Z" fill="#BBE0C5" stroke="black" stroke-width="0.1"></path><path d="M28.835 10.9386C28.9062 11.021 28.9732 11.1066 29.0361 11.1954L25.0264 13.6378C24.6946 13.8389 24.36 14.0384 24.0264 14.2384L23.0303 14.8448C22.8975 14.9289 22.8009 14.9595 22.7236 14.9435C22.6672 14.9317 22.6114 14.8926 22.5537 14.8107L22.4951 14.714C22.1352 14.0283 21.7444 13.3562 21.3145 12.5861L21.2539 12.4777L21.2217 12.5978L20.9688 13.5568L20.9678 13.5577L19.8115 18.3448C19.7994 18.3949 19.7918 18.4511 19.7832 18.5021C19.7742 18.5549 19.7638 18.6044 19.748 18.6476C19.7324 18.6905 19.712 18.7248 19.6836 18.7491C19.6558 18.773 19.617 18.7905 19.5586 18.795C19.5003 18.7995 19.4588 18.7883 19.4277 18.7687C19.3958 18.7484 19.3703 18.7167 19.3477 18.6759C19.3249 18.6349 19.3065 18.5874 19.2881 18.5363L19.2285 18.3849L16.8486 13.4611V13.4601C16.8043 13.3697 16.753 13.2774 16.6416 13.0626L16.5654 12.9161L16.5469 13.0802L16.4092 14.3302L15.8379 20.1339C15.8335 20.1784 15.8317 20.2272 15.8291 20.2706C15.8264 20.3156 15.8233 20.3582 15.8145 20.3966C15.8016 20.4522 15.7784 20.4986 15.7334 20.5323L15.6797 20.5616C15.6321 20.5809 15.5954 20.583 15.5654 20.5763C15.535 20.5695 15.5066 20.5526 15.4785 20.5275C15.4502 20.502 15.424 20.4697 15.3965 20.4337L15.3105 20.3263C15.1129 20.106 14.9041 19.901 14.7256 19.6779L14.5586 19.4464C14.4107 19.2161 14.2575 19.0923 14.0742 19.0626C13.9392 19.0408 13.7948 19.0716 13.6348 19.1359L13.4697 19.2101C12.1037 19.8843 10.7325 20.5502 9.36035 21.213L5.24414 23.1984C5.15499 23.2414 4.97337 23.3317 4.85059 23.3888C4.85658 23.2932 4.86677 23.22 4.87793 23.1564C4.89028 23.086 4.90093 23.0223 4.90625 22.9513C6.38523 22.2398 7.86362 21.527 9.34082 20.8116L13.7939 18.6486C13.9557 18.5697 14.0759 18.5375 14.1787 18.5548C14.2543 18.5677 14.3271 18.609 14.4043 18.6906L14.4834 18.7863C14.7403 19.1353 15.05 19.4487 15.4014 19.8527L15.4766 19.9396L15.4883 19.8253L15.7158 17.6349C15.8578 16.1333 15.9968 14.6304 16.1328 13.1271L16.2295 12.339V12.338C16.2397 12.2512 16.2422 12.1756 16.2666 12.1134C16.278 12.0845 16.2938 12.0609 16.3154 12.0431C16.3262 12.0343 16.3394 12.0265 16.3555 12.0197L16.4141 12.0031C16.454 11.9966 16.4843 12.0011 16.5078 12.0099C16.5314 12.0188 16.5524 12.0336 16.5713 12.0548C16.5914 12.0774 16.6079 12.1046 16.624 12.1349L16.6729 12.2335L17.1279 13.1407V13.1417L19.4258 17.9601L19.4873 18.087L19.5195 17.9503L20.5273 13.7882L20.9619 12.005C20.9789 11.9352 20.992 11.8768 21.0186 11.8302C21.0425 11.7881 21.0773 11.7565 21.1445 11.7452C21.2102 11.7342 21.2527 11.7543 21.2881 11.7892C21.3075 11.8083 21.3246 11.8314 21.3408 11.8575L21.3896 11.9445H21.3906C21.5931 12.3106 21.7969 12.6756 21.999 13.0411L22.5957 14.1427C22.6304 14.2088 22.6639 14.2657 22.7002 14.3097C22.7367 14.3539 22.778 14.3879 22.8281 14.4054C22.9038 14.4318 22.9871 14.4171 23.084 14.3712L23.1855 14.3156C25.061 13.1787 26.9492 12.0614 28.835 10.9386Z" fill="#35B777" stroke="black" stroke-width="0.1"></path></svg>