<svg xmlns="http://www.w3.org/2000/svg" width="56" height="84" viewBox="0 0 56 84" fill="none"><path d="M46.4404 1.1123C47.4399 1.08508 48.4424 1.39318 49.4814 2.14453V2.14551C50.5758 2.94346 51.7824 3.60254 53.0049 4.21387V4.21484C53.9314 4.68913 54.575 5.30257 54.9883 6.04199C55.4022 6.78274 55.5908 7.66075 55.5908 8.6709V29.7051H55.7266C55.7268 34.7414 55.7395 39.7645 55.7363 44.7939L55.7266 49.876C55.7049 54.5788 53.7773 58.2426 49.8369 60.7021L49.4492 60.9365C46.3639 62.7278 43.2761 64.5167 40.1865 66.3037L21.6436 77.0205L12.3799 82.3877C11.375 82.9683 10.4098 83.3178 9.4541 83.3506C8.50202 83.3831 7.54506 83.1017 6.55176 82.3955H6.55273C5.61281 81.7119 4.59658 81.1312 3.57617 80.5791L2.55664 80.0342C1.10563 79.2575 0.457494 78.026 0.345703 76.4941L0.330078 76.1836V76.1816L0.307617 75.2832C0.294946 74.3813 0.307614 73.4726 0.307617 72.5713V72.5703C0.239806 59.9122 0.172017 47.2769 0.149414 34.6191L0.155273 34.1631C0.277094 29.6369 2.22644 26.1076 6.10059 23.7061L6.49414 23.4697C15.6986 18.1301 24.9301 12.8146 34.1484 7.47754L43.3613 2.13184V2.13086C44.4222 1.50551 45.4374 1.13963 46.4404 1.1123ZM54.6338 14.1201C54.4547 14.2096 54.3296 14.2722 54.2344 14.3213L54.0156 14.4404C42.352 21.1707 30.6887 27.9014 19.0156 34.6221L7.33984 41.3389C6.97985 41.543 6.75574 41.7793 6.62988 42.0664C6.53702 42.2783 6.50215 42.5091 6.49512 42.7568L6.49609 43.0107C6.54129 54.8759 6.56431 66.7186 6.58691 78.584L6.5918 79.1172C6.62374 80.37 6.83491 81.6409 8.15723 82.3545V82.3535C9.57595 83.1227 10.8747 82.3416 11.9873 81.6963L11.9863 81.6953C18.1344 78.1466 24.2887 74.5934 30.4424 71.0391L48.8984 60.3809C52.8993 58.0717 54.9403 54.6102 54.9404 49.9678V49.9668C54.9291 44.2482 54.9125 38.524 54.8955 32.7998L54.8496 15.6318V14.0117L54.6338 14.1201ZM1.50195 39.3848C1.40681 39.3679 1.30942 39.376 1.21289 39.416L1.12402 39.4629C0.884355 39.5999 0.862383 39.8607 0.874023 40.0645C0.880116 40.1707 0.896448 40.2825 0.910156 40.3818C0.924394 40.4851 0.935516 40.5756 0.935547 40.6543V40.6553C0.946848 45.2663 0.958425 49.8773 0.969727 54.4883L1.00391 68.3223C1.00391 69.5994 1.0091 70.8765 1.01758 72.1562L1.04883 76.0078C1.04896 77.0356 1.22866 78.0918 2.08496 78.7959L2.26562 78.9326H2.2666C3.33467 79.6598 4.49582 80.2975 5.57617 80.9277L5.7998 81.0586V76.5713C5.78002 67.4124 5.69135 58.2567 5.74512 49.1006L5.77734 45.1768C5.78871 43.9493 5.66462 42.8966 5.22363 42.0469C4.77899 41.1902 4.02211 40.5578 2.80762 40.1523C2.74014 40.1266 2.6768 40.0828 2.60059 40.0264C2.52994 39.974 2.44059 39.9047 2.3418 39.8623L2.2832 39.999L2.3418 39.8613L2.33301 39.8584L2.2168 39.8037C2.17684 39.7806 2.1354 39.7528 2.0918 39.7217C2.01317 39.6656 1.91174 39.5859 1.82324 39.5273C1.73023 39.4658 1.62184 39.4061 1.50195 39.3848ZM2.41016 29.8535C2.238 29.7765 2.08026 29.7592 1.93848 29.8428C1.85258 29.8935 1.791 29.9722 1.74219 30.0527C1.71774 30.0931 1.69466 30.1377 1.67188 30.1846L1.60449 30.332L1.60352 30.334C1.08433 31.5569 0.941624 32.8054 0.916016 34.0488C0.903235 34.67 0.919848 35.2933 0.933594 35.9111C0.943924 36.3755 0.952933 36.8373 0.947266 37.2969L0.935547 37.7559V37.7617C0.935649 37.9806 1.02738 38.1269 1.14746 38.2324C1.20414 38.2822 1.26635 38.3225 1.32227 38.3564C1.38186 38.3927 1.42921 38.4187 1.47656 38.4502L1.55957 38.3262L1.47656 38.4512L1.4834 38.4551C2.75021 39.2016 4.01754 39.9256 5.44141 40.7393L5.64648 40.8564L5.66406 40.6211C5.67485 40.4809 5.68659 40.3665 5.69531 40.2695L5.70996 40.0215C5.72132 38.8108 5.65927 37.6193 5.73242 36.4316C5.79609 35.3982 5.9617 34.3852 6.36523 33.4072L6.55371 32.9902L6.55469 32.9883C6.61356 32.864 6.6397 32.7462 6.63184 32.6348C6.62384 32.5219 6.58161 32.4266 6.52148 32.3477C6.40877 32.1997 6.22606 32.1018 6.08594 32.0264H6.08691C5.20522 31.5177 4.32513 31.0099 3.45508 30.4834L2.58789 29.9492L2.41016 29.8535ZM53.417 5.3457C52.5235 4.82571 51.2767 5.00572 49.7578 5.81641L49.4502 5.9873C40.9402 10.9034 32.417 15.8193 23.9004 20.7451L15.3857 25.6748V25.6758C14.9365 25.9397 14.4764 26.1881 14.0137 26.4375C13.5517 26.6865 13.086 26.9362 12.6289 27.2002C11.8285 27.6625 11.0479 28.1717 10.3418 28.8076L10.0439 29.0879V29.0889C7.20482 31.9059 6.19585 35.3679 6.42578 39.25L6.45117 39.627C6.46806 39.8464 6.48778 40.0306 6.52148 40.1729C6.5541 40.3105 6.60819 40.4457 6.72461 40.5225C6.84631 40.6025 6.99046 40.5911 7.12891 40.5498C7.19922 40.5288 7.27757 40.4973 7.36328 40.457L7.64453 40.3105L7.64746 40.3096C20.7013 32.7542 33.7543 25.181 46.8379 17.667L52.4463 14.4512C53.3263 13.9547 54.0953 13.4606 54.5576 12.8057C55.0263 12.1416 55.1682 11.3302 54.8496 10.2324V9.12207L54.8428 8.76855C54.7783 7.04219 54.3097 5.86528 53.417 5.3457ZM46.4102 1.8252C45.6984 1.85614 44.9939 2.09888 44.2842 2.47363L43.9795 2.6416C37.7523 6.24682 31.5198 9.85269 25.2842 13.4551L6.57129 24.25C5.06435 25.1111 3.90329 26.2945 2.95508 27.6807L2.76855 27.96C2.68232 28.0922 2.60907 28.2165 2.56152 28.334C2.51372 28.4521 2.48802 28.5734 2.50586 28.6963C2.53337 28.8853 2.65675 29.0359 2.85254 29.1719L3.07129 29.3037L3.07422 29.3047C4.17356 29.8656 5.22957 30.5165 6.26758 31.1709V31.1719C6.55493 31.3673 6.8169 31.4798 7.07129 31.4229C7.26108 31.3802 7.41645 31.2497 7.55957 31.0615L7.69922 30.8555L7.7002 30.8535C8.68236 29.2026 10.0179 27.9221 11.6553 26.9209L11.9863 26.7246C15.5916 24.6564 19.1913 22.5825 22.7881 20.5059L33.5732 14.2695C39.3597 10.9242 45.191 7.55611 51.0225 4.21094L51.2412 4.08594L51.0264 3.95508C50.6731 3.73855 50.294 3.53645 49.9287 3.33008C49.6525 3.17403 49.381 3.01339 49.123 2.83594L48.8691 2.65234L48.8682 2.65137L48.5586 2.4375C47.8377 1.97751 47.1258 1.7941 46.4102 1.8252Z" fill="#35B777" stroke="black" stroke-width="0.298524"></path><path d="M54.7018 14.25C54.7018 14.8377 54.7018 15.2446 54.7018 15.6514C54.7244 27.0889 54.7696 38.5489 54.7922 49.9863C54.7922 54.5749 52.7805 57.988 48.8249 60.271C36.5285 67.3911 24.2095 74.4887 11.9131 81.5862C10.7603 82.2417 9.56235 82.965 8.22874 82.2417C6.80471 81.4732 6.7369 80.0266 6.7369 78.6025C6.7143 66.7356 6.69169 54.8687 6.64648 43.0018C6.64648 42.3237 6.7369 41.849 7.41501 41.4648C22.9889 32.5137 38.5402 23.5401 54.0915 14.5665C54.2045 14.4986 54.3401 14.4308 54.7018 14.25Z" fill="#9DD4B2"></path><path d="M54.7015 10.2531C55.3344 12.4005 54.1364 13.3272 52.4185 14.2992C37.4323 22.866 22.5139 31.5231 7.59553 40.1577C6.7818 40.6324 6.69139 40.4742 6.62358 39.5926C6.30713 35.5918 7.27908 32.0656 10.1723 29.1724C11.6868 27.6579 13.6533 26.8442 15.4842 25.7818C26.8312 19.2042 38.1782 12.6491 49.5479 6.09406C52.848 4.19536 54.7015 5.28033 54.7241 9.10034C54.7015 9.50721 54.7015 9.86887 54.7015 10.2531Z" fill="#9DD4B2"></path><path d="M50.9487 4.08094C45.1169 7.44888 39.2852 10.7942 33.4534 14.1622C26.2655 18.3212 19.0775 22.4803 11.867 26.6168C10.0587 27.6565 8.58945 29.0127 7.52708 30.7984C7.16542 31.4087 6.89418 31.4539 6.30648 31.0697C5.26672 30.3916 4.20435 29.7587 3.09677 29.1936C2.48647 28.8771 2.50908 28.5833 2.84813 28.0634C3.84269 26.5489 5.04068 25.3057 6.60033 24.4016C19.1227 17.191 31.5999 9.98048 44.0545 2.76993C45.6594 1.84318 47.1738 1.54933 48.7787 2.76993C49.4568 3.26721 50.2479 3.65147 50.9487 4.08094Z" fill="#35B777"></path><path d="M5.64983 80.7958C4.56486 80.1629 3.41207 79.5526 2.3497 78.8066C1.40035 78.1511 1.21952 77.0888 1.19692 76.0038C1.17431 73.4496 1.17431 70.8954 1.15171 68.3186C1.12911 59.0963 1.1065 49.874 1.0839 40.6517C1.0839 40.29 0.880466 39.7928 1.19692 39.5893C1.58118 39.3633 1.89763 39.8606 2.28189 39.9962C2.46272 40.064 2.59834 40.2222 2.75657 40.29C5.12995 41.0812 5.64983 42.7086 5.62723 45.1724C5.49161 55.6379 5.62723 66.1034 5.64983 76.5689C5.64983 77.9477 5.64983 79.3265 5.64983 80.7958Z" fill="#35B777"></path><path d="M5.51563 40.6095C4.11421 39.7957 2.8484 39.0724 1.5826 38.3265C1.35656 38.1909 1.08532 38.1005 1.10792 37.7614C1.19834 35.2976 0.723663 32.7886 1.76343 30.3926C1.94426 29.9632 2.05728 29.7597 2.53195 30.0762C3.68474 30.7995 4.86013 31.455 6.03552 32.1557C6.32936 32.3365 6.66842 32.4948 6.44238 32.9242C5.3348 35.1846 5.60605 37.6258 5.58344 40.0218C5.56084 40.1574 5.53824 40.3156 5.51563 40.6095Z" fill="#35B777"></path><path d="M37.9141 31.7256C39.8317 31.6046 41.5451 32.1915 42.8555 33.3174C44.165 34.4426 45.0643 36.0999 45.3701 38.1084L45.4238 38.5146V38.5156L45.4639 39.0273C45.495 39.5411 45.5041 40.0589 45.5371 40.5547L45.5381 40.5674L45.3887 40.5645L45.5371 40.5674C45.4914 43.9644 44.4654 47.1282 42.9902 50.124V50.125C42.5814 50.9427 42.4811 51.7131 42.7197 52.5547L42.7725 52.7236V52.7246L43.0195 53.5107C43.2597 54.2993 43.4811 55.0933 43.7012 55.8721V55.873L43.7471 56.0566C43.7861 56.235 43.8045 56.3976 43.7998 56.542C43.7935 56.7344 43.7456 56.9062 43.6387 57.0361C43.4166 57.3057 43.0236 57.3114 42.5635 57.1621V57.1631C41.3306 56.7743 40.2952 56.7448 39.3545 57.0547C38.5295 57.3265 37.7632 57.8635 36.9932 58.6748L36.6631 59.0391C33.5262 62.6533 29.5872 65.274 24.7109 66.1855L24.71 66.1865C22.5042 66.5885 20.4841 66.1411 18.9365 65.0303C17.389 63.9194 16.324 62.1522 16.0137 59.9346V59.9336C15.3978 55.4395 16.632 51.3395 18.6289 47.459L18.9258 46.8916C22.0333 41.0712 26.3123 36.3274 32.3008 33.2891L32.6104 33.1348C34.1663 32.3845 35.8189 31.9521 37.5283 31.7598L37.9141 31.7256Z" stroke="black" stroke-width="0.298524"></path><path d="M45.3886 40.5608C45.3434 43.9513 44.3262 47.0706 42.857 50.0769C42.4049 50.9811 42.3145 51.84 42.631 52.7894C42.97 53.8291 43.2639 54.8689 43.5577 55.9313C43.829 56.9032 43.5351 57.3327 42.6084 57.0388C40.0994 56.2251 38.3363 56.9032 36.5506 58.9601C33.4087 62.5541 29.5209 65.1761 24.6837 66.0577C20.3438 66.8714 16.7724 64.2946 16.1621 59.9321C15.5292 55.5018 16.7724 51.4105 18.7615 47.5453C21.8808 41.4649 26.2207 36.5599 32.3915 33.418C34.019 32.6043 35.7595 32.107 37.5677 31.9036C41.6138 31.4741 44.8235 34.2092 45.2982 38.5265C45.366 39.2046 45.366 39.8827 45.3886 40.5608ZM29.3626 49.2406C29.3626 51.1167 29.3626 52.8798 29.3626 54.6655C29.3626 55.0723 29.2948 55.3888 28.888 55.5922C27.8482 56.0669 27.7126 56.9484 27.7578 57.943C27.7804 58.7115 28.0064 59.028 28.7749 58.5533C30.1764 57.7395 31.5778 56.9484 32.9792 56.1121C33.7251 55.6826 34.1772 54.0552 33.7929 53.3092C33.6347 52.9928 33.3861 52.9928 33.1374 53.1284C32.3689 53.6031 32.3689 53.1058 32.3689 52.5407C32.3689 50.2125 32.3463 47.8618 32.3463 45.5336C32.3463 44.7651 32.1655 44.426 31.3744 44.9233C30.4024 45.511 29.4304 46.0535 28.4585 46.6186C27.8934 46.9576 27.6222 47.4323 27.5995 48.0878C27.4639 49.9639 27.5317 50.0317 29.3626 49.2406ZM32.2559 40.7642C32.2785 40.1991 32.1203 39.7019 31.623 39.408C31.1257 39.1142 30.6058 39.2724 30.1538 39.5888C28.8654 40.4704 28.1194 41.6684 28.1872 43.2732C28.2324 44.4034 29.0688 44.8781 30.0633 44.3356C31.4422 43.5445 32.0751 42.2787 32.2559 40.7642Z" fill="#F6F6F6"></path><path d="M31.8418 44.8828C31.94 44.865 31.9886 44.8844 32.0176 44.9082C32.0526 44.9371 32.0891 44.9973 32.1152 45.1123C32.1409 45.2255 32.1523 45.3736 32.1523 45.5557C32.1523 46.7202 32.1574 47.8909 32.1631 49.0605C32.1687 50.2302 32.1748 51.3999 32.1748 52.5635C32.1748 52.7037 32.1755 52.8479 32.1904 52.9746C32.2049 53.0976 32.2351 53.2282 32.3086 53.3271C32.3924 53.4397 32.5185 53.4922 32.6719 53.4775C32.7774 53.4674 32.8961 53.4258 33.0303 53.3564L33.1699 53.2783L33.1729 53.2764C33.2821 53.2069 33.366 53.1894 33.4248 53.2012C33.4633 53.2089 33.5123 53.2335 33.5625 53.3057L33.6123 53.3945L33.6133 53.3955C33.7717 53.7326 33.7634 54.2836 33.6123 54.8193C33.4797 55.2894 33.2501 55.7026 32.9785 55.9229L32.8594 56.0049C31.8099 56.6143 30.7573 57.213 29.7051 57.8271L28.6533 58.4473C28.4683 58.556 28.3276 58.6124 28.2227 58.6318C28.1208 58.6507 28.0648 58.6332 28.0293 58.6074C27.9897 58.5786 27.9488 58.5203 27.917 58.4082C27.9012 58.3525 27.889 58.2872 27.8799 58.2129L27.8623 57.9609V57.959L27.8555 57.5977C27.8597 57.2464 27.8999 56.9232 28.0098 56.6406C28.1355 56.3174 28.3545 56.0402 28.7314 55.835L28.9023 55.751H28.9033C29.1379 55.6467 29.2912 55.4912 29.3779 55.2969C29.4608 55.1112 29.4774 54.9018 29.4668 54.6914C29.5121 52.881 29.5117 51.116 29.5117 49.2402V49.0117L29.3027 49.1035C28.849 49.302 28.5131 49.4419 28.2627 49.5146C28.0025 49.5902 27.8842 49.5776 27.8262 49.541C27.7724 49.5071 27.7171 49.4171 27.6934 49.166C27.6705 48.9239 27.6814 48.5829 27.7041 48.1172L27.7031 48.1162C27.741 47.5779 27.9215 47.1706 28.3076 46.8857L28.4863 46.7715L28.4883 46.7695C29.4552 46.2074 30.4568 45.6612 31.4082 45.0723L31.4072 45.0713C31.5977 44.9572 31.7396 44.9014 31.8418 44.8828Z" fill="#35B777" stroke="black" stroke-width="0.298524"></path><path d="M30.2168 39.6934C30.6216 39.41 31.0445 39.2843 31.4443 39.4756L31.5244 39.5186L31.5264 39.5195C31.9777 39.7746 32.1268 40.2033 32.1064 40.7578C31.9397 42.1428 31.3898 43.2951 30.2129 44.042L29.9688 44.1865C29.5003 44.442 29.0993 44.4482 28.8193 44.292C28.5749 44.1555 28.3874 43.8752 28.3301 43.4434L28.3135 43.249L28.3105 42.9678C28.3397 41.5849 29.0383 40.5188 30.2158 39.6924L30.2168 39.6934Z" fill="#35B777" stroke="black" stroke-width="0.298524"></path></svg>