<svg xmlns="http://www.w3.org/2000/svg" width="135" height="136" viewBox="0 0 135 136" fill="none"><path d="M68.4248 135.156C104.615 135.156 133.953 105.818 133.953 69.6278C133.953 33.4378 104.615 4.09998 68.4248 4.09998C32.2348 4.09998 2.89697 33.4378 2.89697 69.6278C2.89697 105.818 32.2348 135.156 68.4248 135.156Z" fill="black" stroke="black" stroke-width="0.161664"></path><path d="M68.4237 132.866C103.349 132.866 131.662 104.553 131.662 69.6273C131.662 34.7016 103.349 6.38867 68.4237 6.38867C33.498 6.38867 5.18506 34.7016 5.18506 69.6273C5.18506 104.553 33.498 132.866 68.4237 132.866Z" fill="#9DD4B2" stroke="black" stroke-width="0.161664"></path><path d="M70.0695 17.0259L70.462 21.1312L69.5073 23.436L67.3889 25.8566L66.9277 27.6522L67.9776 30.1268L69.6849 30.9706L67.6676 32.5523C67.6676 32.5523 68.3897 33.4932 65.9848 32.9035C63.5789 32.3138 63.5789 32.3138 63.5789 32.3138L60.4568 31.7948L59.559 32.8044L58.7142 34.3616L55.3654 35.2466L54.7718 36.5948L55.5459 41.8589C55.5459 41.8589 55.4802 43.0628 53.0115 42.7547C50.5428 42.4476 50.5429 42.4476 50.5429 42.4476L49.6608 40.7854L50.1759 38.616L48.502 35.2829L48.6943 33.5138L50.1886 30.2347C50.1886 30.2347 52.3953 31.5809 52.206 28.653C52.0166 25.7251 51.7065 24.374 51.7065 24.374L50.1464 22.2272L48.7296 23.4733L46.6475 22.4833L46.2246 19.9469L46.5504 18.6253C46.5504 18.6253 43.6539 17.6235 43.5185 18.0974C43.3831 18.5713 41.9663 19.8174 41.9663 19.8174L39.9362 19.3739L38.2888 16.3146L37.8345 15.3471L41.4256 14.1618L43.1476 16.1095L44.9255 13.9067L44.0219 13.9047C44.0219 13.9047 41.5885 10.187 47.1136 12.2161C52.6387 14.2462 52.776 12.8509 52.6387 14.2462C52.5013 15.6415 52.5013 15.6415 52.5013 15.6415L53.6081 16.8208L57.5878 17.8069L64.4542 16.8493L70.0695 17.0259Z" fill="#35B777" stroke="black" stroke-width="0.161664"></path><path d="M28.8656 83.0463L25.4678 84.4111L21.7353 83.1552L21.1083 80.9917L19.562 80.6316L18.1471 80.7719L17.7046 77.9049L17.4092 76.5714L15.1162 71.9117L18.8722 73.4228L21.8168 76.9825L21.7294 78.7035L21.2447 79.7789L21.6421 80.4245L23.0727 80.454L22.951 79.1814L24.5808 79.5336L25.0841 81.2811C25.0841 81.2811 29.892 81.4891 28.8656 83.0463Z" fill="#35B777" stroke="black" stroke-width="0.161664"></path><path d="M99.4354 13.8747C99.413 13.8972 99.4242 13.8635 99.4242 13.8635L99.4354 13.8747Z" fill="url(#paint0_linear_1_1954)" stroke="black" stroke-width="0.161664"></path><path d="M102.086 24.6394L102.041 24.5931C102.041 24.5931 102.058 24.6317 102.086 24.6394Z" fill="url(#paint1_linear_1_1954)" stroke="black" stroke-width="0.161664"></path><path d="M78.1038 7.5929L77.4199 7.0238C80.5627 7.46926 83.6299 8.14825 86.6058 9.03917C86.0397 9.28643 85.1919 9.4444 84.091 8.9126C81.2387 7.53599 84.512 8.84588 80.4037 9.56215C76.2955 10.2784 78.3344 9.59452 78.3344 9.59452L78.1038 7.5929Z" fill="#35B777" stroke="black" stroke-width="0.161664"></path><path d="M99.4242 13.8635L99.4354 13.8747C99.413 13.8972 99.4242 13.8635 99.4242 13.8635Z" fill="url(#paint2_linear_1_1954)" stroke="black" stroke-width="0.161664"></path><path d="M131.664 69.6276C131.664 69.7081 131.664 69.7915 131.661 69.8719L131.125 70.2124L129.021 68.5758L128.58 66.6065L123.877 63.8503L120.469 61.6152L118.526 62.3933C118.532 62.3158 118.505 62.2373 118.424 62.1764L118.249 62.045L118.754 60.4996L119.655 58.2723L118.201 53.6695L116.519 52.4754L116.089 54.3642L114.248 55.888L112.292 56.1941L110.98 55.5289L110.454 52.9905L111.039 49.7673C111.039 49.7673 111.039 49.7673 112.912 47.5077C114.788 45.248 113.988 45.1538 113.988 45.1538L112.112 43.627L110.228 42.9745L110.223 45.3068L109.58 46.7158L108.09 46.6599L107.674 48.7636L108.616 50.1431L109.459 52.5637L109.301 54.6968L108.118 55.9773L108.668 58.2154C108.668 58.1751 108.713 57.9554 109.967 59.1092C111.317 60.3544 109.696 58.86 111.056 60.7763C112.417 62.6945 109.91 63.1243 109.91 63.1243L109.378 61.0392L106.365 60.476L104.978 58.3645L102.791 56.6661L99.2212 56.2049L95.9715 56.932L97.7131 58.0456L100.885 57.767L103.011 57.6512L104.143 59.0043L105.154 60.9578L103.866 61.9027L103.509 64.2723L103.238 66.2827L101.653 66.1669L100.502 66.1267L100.282 65.1416L101.886 63.9445L102.723 61.5995C102.675 61.6074 102.493 61.4415 101.84 60.3112C100.874 58.6422 99.809 61.0657 99.809 61.0657L97.7887 60.4378L95.7998 58.6343L94.0072 59.0612L92.1851 59.7833L91.3668 61.4415L90.2796 62.775L88.5115 63.8543C88.5115 63.8543 88.5115 63.8543 87.6128 65.4507C86.7081 67.05 87.6128 65.4507 88.6195 67.4042C89.6281 69.3607 88.6195 67.4042 88.2917 69.4951C87.964 71.5851 87.3851 71.5291 87.3851 71.5291L86.8425 74.092L84.7899 73.7564L82.5891 74.3196L80.9358 74.7249C80.9358 74.7249 80.9358 74.7249 79.5484 74.0675C78.1639 73.4101 79.5484 74.0675 77.0179 70.5303C74.4815 66.996 76.9806 68.8613 76.9806 68.8613L78.6064 64.9679L81.7139 64.2624L83.584 63.4628C83.3181 63.5403 78.7301 64.8659 82.9237 61.3807C87.2419 57.7925 81.1359 60.4201 81.1359 60.4201L79.5955 60.1542L79.0156 58.2056L78.5162 56.3168L76.1652 56.829C76.1652 56.829 76.1652 56.829 74.6709 58.3017C73.1785 59.7725 71.2603 57.9612 71.2603 57.9612L72.4652 53.6244L73.1765 52.6373C73.1765 52.6373 73.1765 52.6373 74.5796 52.4901C75.9886 52.3429 74.5796 52.4901 75.344 50.9173C75.5932 50.3992 75.6766 50.2628 75.6952 50.2334C75.6707 50.2579 75.5235 50.3943 75.7943 49.1708C76.2643 47.0592 75.7943 49.1708 77.4879 47.593C79.1785 46.0202 77.638 48.5909 77.638 48.5909L78.1826 52.2193L79.9673 53.6146L82.1681 52.1065L83.8646 52.9307L84.8949 50.2923L87.079 48.2072C87.0633 48.2426 86.9151 48.5879 89.4594 46.4499C92.1243 44.2118 89.1748 46.9307 91.772 45.2126C94.3751 43.4956 92.0212 44.0077 92.0212 44.0077L91.3668 42.5105L93.6157 41.7942L94.3378 38.0401L93.758 36.0915L90.7467 36.4918L88.7254 35.4233L89.0365 33.7003L87.6599 33.5532L86.455 35.0505L86.0419 37.5191L86.9652 37.9567C86.9652 37.9567 86.9652 37.9567 89.4927 39.089C92.0203 40.2243 89.4927 39.089 88.1642 40.2429C86.8415 41.3997 88.9099 41.8746 88.9099 41.8746L91.2844 43.3965L90.5868 45.401L88.8559 45.3068L87.5598 43.3268L86.505 42.0336L84.0363 41.7657L82.9089 43.7625L81.0094 43.4779L79.7083 42.4447L79.3757 40.239L80.2421 37.9175C80.2421 37.9175 80.2421 37.9175 80.9505 36.9324C81.6589 35.9473 81.9592 32.258 81.9592 32.258L80.8671 28.7905L80.0517 26.2247L80.2823 24.4399L81.187 24.7352L81.9896 25.3386L85.043 26.1677L85.6386 25.8567L86.6934 24.3113L88.2662 22.8974L89.6693 22.243L89.4731 23.805L89.688 25.2248L89.269 28.1311L91.7004 27.6778L92.8356 26.1913L92.3843 24.1494L90.6692 22.867C90.7467 22.8749 90.8674 22.6708 90.7957 21.1951C90.6937 19.0993 90.6397 21.5836 91.7347 19.373C92.8298 17.1614 91.3835 17.9699 91.3835 17.9699L88.853 14.9459L88.9335 14.0579L93.128 12.9658L90.885 12.2976L87.0721 12.6038L86.1057 11.8198C86.1518 11.7609 86.3333 11.3881 87.0525 9.619C87.1114 9.47378 87.1624 9.34524 87.2105 9.23535C106.503 15.2275 121.836 30.2122 128.314 49.2875V49.2905C128.277 49.3307 128.242 49.3739 128.202 49.419C127.469 50.2589 128.202 49.419 127.845 50.8574C127.49 52.2959 128.193 51.7483 128.193 51.7483L128.375 52.9562L129.548 53.3722C130.932 58.5529 131.664 64.0054 131.664 69.6276Z" fill="#35B777" stroke="black" stroke-width="0.161664"></path><path d="M130.295 82.7768C126.826 99.1783 117.004 113.232 103.522 122.238L102.631 121.723L104.852 117.365L103.582 110.884C103.582 110.884 103.582 110.884 98.4998 112.019C95.7682 112.628 94.8743 112.862 94.6329 112.947L91.9926 111.211C91.9926 111.211 91.9926 111.211 86.44 114.442C80.8855 117.678 79.6129 117.356 79.6129 117.356C79.6129 117.356 81.2014 117.356 75.644 116.224C70.0895 115.091 76.9156 117.195 75.3271 110.561C73.7414 103.93 75.3271 111.533 73.2636 107.974C71.2002 104.413 69.1367 103.442 69.1367 103.442L69.4536 98.5896L70.8842 89.2085L74.5343 85.9725L79.7728 81.928L83.1059 78.1632L94.6957 72.0612L100.884 75.4561L104.853 74.6486L105.91 73.4083L107.074 72.2761L108.977 72.4939L111.147 71.9542L110.777 70.0654L111.572 68.6643L113.69 68.5034L115.485 68.0177L118.925 67.3171L120.305 66.1044L120.401 66.2005C120.489 66.2918 120.588 66.3026 120.681 66.2731L120.09 68.8252C120.09 68.8252 120.09 68.8252 120.41 72.0612C120.727 75.2952 121.52 71.7364 121.52 71.7364C121.52 71.7364 121.52 71.7364 125.645 71.2507C129.772 70.765 125.645 71.2507 127.551 74.4867C129.456 77.7226 130.567 76.1047 130.567 76.1047L131.278 76.6335C131.136 77.9434 130.954 79.2415 130.728 80.5249C130.532 80.6564 130.323 80.8016 130.092 80.9567C127.451 82.7503 129.689 81.2314 130.295 82.7768Z" fill="#35B777" stroke="black" stroke-width="0.161664"></path><path d="M100.538 103.49L100.488 103.457C100.316 103.519 100.538 103.49 100.538 103.49Z" fill="#35B777" stroke="black" stroke-width="0.161664"></path><path d="M60.2686 124.822C59.8015 128.459 60.9525 126.32 60.9525 126.32L61.4303 128.485C61.4303 128.485 61.4303 128.485 59.5062 129.135C57.5772 129.787 56.9806 130.123 56.9806 130.123L55.0997 130.31C55.0997 130.31 55.0997 130.31 54.7425 129.425C54.3854 128.539 54.7425 129.425 52.8635 129.611C51.6027 129.734 51.5595 130.279 51.6694 130.622C34.844 126.012 20.8198 114.626 12.7152 99.5794L12.672 98.608L15.2565 95.4015L14.551 91.7897L11.1453 86.4197L9.40073 83.2769L9.06811 79.8094C9.06811 79.8094 8.41366 76.7452 8.41366 76.7422C8.40875 76.7177 6.14613 76.5705 6.01759 76.5548C5.88022 76.5362 5.72225 76.5224 5.55643 76.5087C5.31211 74.249 5.18652 71.955 5.18652 69.6286C5.18652 60.2985 7.20679 51.4373 10.8411 43.4612C10.9245 43.2758 11.005 43.0913 11.0933 42.9059C16.3937 31.5545 24.9614 22.0409 35.5916 15.5739C35.6289 15.5896 35.6643 15.6141 35.6966 15.6406C36.0077 15.9202 35.8095 16.8219 35.7987 17.2056L34.6929 17.9601L33.0562 18.7676L33.33 20.676L35.1786 21.1372L36.5503 20.3532L36.303 22.4971L36.5071 23.6755L38.3429 23.0319L38.2114 21.6631L40.0413 20.0069L40.7743 20.1197C40.7743 20.1197 40.7743 20.1197 43.136 21.1745C44.4135 21.7485 44.7785 21.6494 44.8433 21.4424L45.3663 23.7148L45.6449 29.4901L45.0091 30.381L43.9573 31.6801L43.7375 34.1007L41.3973 36.0807L41.5533 34.868L38.3547 32.6083L37.8072 29.7128L40.0904 29.0289L42.1725 26.2433L40.2935 25.5084L37.3391 26.7211L35.7045 29.4636L33.3859 28.8651L29.3611 30.0915C29.4062 30.0915 29.4739 30.2014 26.9267 32.1766C24.0666 34.396 26.9268 32.1766 27.8314 35.0318C28.738 37.89 27.8314 35.0318 28.4427 37.6428C29.0549 40.2537 27.3428 40.3312 27.3428 40.3312L28.481 40.863L29.6378 40.1949L32.3616 38.9124L33.4301 37.7929L34.9136 34.4225L36.7494 33.7808L37.345 35.286L37.452 38.3129C37.452 38.3129 37.452 38.3129 38.5254 39.1283C39.5988 39.9417 40.1944 37.6742 40.1944 37.6742L40.6183 39.2892L41.8232 40.55L43.3421 42.2377L44.1741 45.2892C44.1741 45.2892 44.1741 45.2892 45.6606 48.5497C46.1355 49.5966 46.3102 49.9724 46.3641 50.0843C46.3641 50.0735 46.3612 50.0627 46.3592 50.0578C46.3838 50.0872 46.4956 50.3178 46.9097 51.1871C48.1519 53.8246 46.9901 53.9403 46.9901 53.9403L47.2501 56.6779L46.2219 56.3207L44.6333 54.8205L41.4778 53.0141L41.8134 51.7847L41.7084 50.6897L40.0394 49.2885C40.0394 49.2885 40.0394 49.2885 38.2036 49.0099C36.3736 48.7332 36.3462 48.4574 36.3462 48.4574C36.3462 48.4574 36.3462 48.4575 36.3246 50.1186C36.3001 51.7768 36.9526 51.9917 36.9526 51.9917L37.5619 55.523C37.5619 55.523 37.5619 55.523 36.566 56.4483C35.5701 57.3765 35.0363 56.5071 35.0363 56.5071L33.85 54.5075L32.3822 55.2051L30.6406 56.8525L28.0512 58.1222C28.0512 58.1222 28.0512 58.1222 27.4556 60.3897C26.8571 62.6631 27.4556 60.3897 21.227 63.3117C19.7268 64.0152 19.0399 64.3557 18.8015 64.4734C19.2823 64.2105 21.1387 63.1527 18.724 63.5609C14.7207 64.232 19.0566 63.2528 17.4043 64.8894C15.7539 66.5261 17.579 66.7115 17.579 66.7115L16.7577 69.4647L15.0642 70.6451L13.8916 69.7493L14.7561 68.3727L15.2447 66.8538L14.8748 63.9426L12.7495 63.4167L11.9715 62.8505L11.9577 60.8244L9.36541 60.1621L8.13107 63.3235L7.26664 64.6971L5.5005 66.0688L6.04212 70.805L7.09396 72.3583L8.64522 71.5586L10.534 70.5421L11.1757 72.5064L10.3731 74.5188L9.81185 76.234L10.0591 77.8735L12.4748 79.468L13.613 81.0133L13.9839 83.9226L13.5276 86.7297L14.1958 88.0475L15.8413 89.1749L17.4514 92.7896L18.2246 91.4238C18.2246 91.4238 18.2246 91.4238 21.4772 90.4553C22.9883 90.0069 23.5112 89.8539 23.6378 89.8225C23.5652 89.847 23.4092 89.8951 23.4092 89.8951C23.4092 89.8951 23.4092 89.8951 25.2342 91.0038C27.0563 92.1125 25.2342 91.0038 25.8219 92.4177C26.4097 93.8345 25.8219 92.4177 27.4693 94.5596C29.1227 96.6957 27.4693 94.5596 28.5801 94.8147C29.6888 95.0748 30.6386 94.6107 30.6386 94.6107L32.496 96.0864L35.0961 97.7613L35.4101 101.043L35.6701 103.783C35.6701 103.783 35.6701 103.783 36.9741 104.207C38.2811 104.626 38.1172 101.974 38.1172 101.974C38.1172 101.974 38.1172 101.974 41.7643 104.188C45.4084 106.405 41.7643 104.188 43.6325 105.755C45.4977 107.317 43.6325 105.755 44.9316 108.02C46.2327 110.284 45.0876 109.659 45.0876 109.659L45.6057 111.266C45.6057 111.266 45.6057 111.266 46.8135 111.607C47.9026 111.916 48.3618 111.005 48.4374 110.832C48.5041 110.867 48.9015 110.909 50.7157 110.85C53.4179 110.77 50.7157 110.85 53.0509 111.631C55.3832 112.415 53.0509 111.631 53.4856 113.341C53.9173 115.045 53.4856 113.341 56.1024 115.198C58.7193 117.057 57.0414 115.566 57.0414 115.566L59.5719 115.59L62.4085 115.953L63.6399 117.49L63.2936 119.552C63.2936 119.552 63.2936 119.552 60.7415 121.186C58.1786 122.821 60.7356 121.186 60.2686 124.822Z" fill="#35B777" stroke="black" stroke-width="0.161664"></path><path d="M46.355 23.2595L46.4099 23.6824C46.4796 23.5186 46.355 23.2595 46.355 23.2595Z" fill="#35B777" stroke="black" stroke-width="0.161664"></path><path d="M41.6318 110.272C41.6414 110.256 41.6472 110.243 41.6472 110.243C41.6472 110.243 41.6019 110.253 41.6318 110.272Z" fill="#35B777" stroke="black" stroke-width="0.161664"></path><path d="M68.0927 133.405C67.9877 133.405 67.8857 133.404 67.7876 133.403C67.3941 133.399 66.0273 133.382 64.9362 133.31C64.0689 133.254 62.914 133.174 62.0496 133.086C61.4295 133.024 60.6641 132.924 59.9616 132.833L59.16 132.73C57.96 132.581 56.5049 132.289 56.0869 132.203C54.1932 131.814 51.7059 131.166 50.0094 130.69C48.9301 130.388 47.5525 129.899 46.4722 129.508C45.1721 129.037 43.5394 128.353 42.5376 127.911C42.0559 127.699 40.3869 126.951 39.1202 126.266C37.4315 125.351 35.2896 124.107 33.7894 123.17C32.7856 122.541 31.3423 121.575 30.3002 120.746C28.3869 119.224 25.6268 116.99 23.7577 115.156C22.0259 113.458 19.5886 110.849 17.9412 108.619L17.7989 108.427C16.3919 106.524 14.6424 104.157 13.5503 102.155C13.3423 101.773 13.1049 101.356 12.8606 100.924C12.2876 99.9122 11.6949 98.8643 11.2671 97.9518C10.2035 95.6823 9.02215 93.0821 8.32354 90.9941L8.25192 90.7812C7.78487 89.386 7.20302 87.6503 6.8547 86.2766C6.34056 84.2455 5.77147 81.5629 5.43885 79.6025C4.91391 76.5137 4.74515 72.3378 4.66371 69.4659C4.60091 67.2386 4.80205 64.1184 5.17588 61.5153C5.59878 58.5707 6.41513 54.6362 7.20793 51.7269C7.6946 49.9412 8.51782 47.709 8.96426 46.5384C9.53433 45.046 10.4164 43.1023 10.8923 42.0759C11.7862 40.1479 13.2422 37.5782 15.2193 34.4384C16.7176 32.06 19.1294 29.134 20.8887 27.0981C22.3222 25.4408 24.3081 23.4559 25.8299 22.1598L26.5119 21.575C27.3743 20.8332 28.3516 19.9933 29.1709 19.3663C30.4808 18.3645 32.3068 17.0654 33.7148 16.1333C35.1306 15.1943 38.4382 13.2201 41.2807 11.922L41.6192 11.768C42.6544 11.295 43.9427 10.7053 44.9671 10.3237C46.7155 9.67411 49.3157 8.76749 51.3693 8.17093C52.1827 7.93544 53.5034 7.58515 54.5503 7.37518L55.3589 7.21034C56.0947 7.06022 56.8974 6.89538 57.5489 6.78156C58.43 6.6285 59.6103 6.45973 60.4964 6.34395C61.2833 6.23995 63.4203 5.98582 66.2402 5.88672C67.0919 5.85728 68.2281 5.84355 69.0788 5.85238C69.6783 5.85826 70.4172 5.88671 71.1001 5.91419L71.9145 5.9446C72.8211 5.97502 74.0054 6.08786 74.8168 6.1693C75.4193 6.23013 76.1581 6.32531 76.844 6.41558L77.7064 6.52547C78.3825 6.60887 79.2165 6.76291 79.9524 6.90028L80.6373 7.02588C81.7028 7.21525 83.0784 7.54493 83.8045 7.72547C84.5061 7.90012 85.3784 8.14738 86.1604 8.36814L86.859 8.56537C87.7411 8.81066 88.8194 9.19234 89.7702 9.52791L90.3903 9.74671C91.6285 10.1775 93.2171 10.8545 94.3307 11.3461C95.046 11.661 95.9085 12.0859 96.7101 12.4813C97.0673 12.6579 97.4127 12.8276 97.7276 12.9788C99.2936 13.7353 101.344 15.002 102.445 15.681C103.535 16.3541 104.941 17.3343 105.927 18.0378C108.127 19.6077 110.778 21.9056 112.527 23.5344C114.59 25.4585 116.947 28.1587 118.465 30.0456C119.924 31.8578 121.725 34.4413 122.946 36.4773C123.637 37.6282 124.631 39.3149 125.279 40.6611C126.036 42.23 127.434 45.2148 128.302 47.5824C128.614 48.435 129.387 50.5995 129.824 52.2862C130.452 54.7088 131.147 57.4767 131.435 59.6736L131.561 60.6077C131.745 61.9519 131.953 63.4747 132.02 64.7051C132.153 67.1679 132.286 70.2989 132.136 72.6724L132.09 73.423C132.005 74.8496 131.907 76.4686 131.693 77.752C131.245 80.4483 130.476 84.432 129.664 87.5247C129.331 88.7973 128.756 90.4947 127.907 92.7181C127.665 93.351 126.81 95.5469 125.969 97.1972L125.5 98.1303C124.947 99.2401 124.318 100.498 123.727 101.459C122.227 103.892 120.494 106.654 118.919 108.632L118.815 108.763C117.953 109.848 116.878 111.197 115.969 112.175C114.395 113.866 112.58 115.772 111.044 117.096L110.915 117.208C109.587 118.353 107.935 119.776 106.56 120.76C104.49 122.24 101.713 124.042 99.6507 125.241L99.1111 124.313C101.147 123.128 103.89 121.349 105.936 119.885C107.272 118.931 108.903 117.525 110.214 116.394L110.345 116.282C111.841 114.993 113.631 113.112 115.185 111.442C116.067 110.495 117.127 109.165 117.977 108.095L118.082 107.963C119.62 106.032 121.332 103.302 122.816 100.895C123.382 99.976 123.999 98.7416 124.543 97.6515L125.015 96.7106C125.566 95.6273 126.273 93.9927 126.906 92.3344C127.729 90.1798 128.309 88.4695 128.628 87.2519C129.431 84.1935 130.192 80.2472 130.637 77.5754C130.841 76.3469 130.937 74.7594 131.021 73.3573L131.067 72.6037C131.215 70.2871 131.083 67.1964 130.951 64.763C130.887 63.5777 130.682 62.0775 130.5 60.7539L130.373 59.8139C130.092 57.6769 129.407 54.9472 128.788 52.557C128.362 50.9155 127.603 48.7902 127.297 47.9533C126.446 45.6279 125.065 42.6794 124.316 41.1281C123.843 40.1479 123.094 38.8076 122.029 37.0307C120.831 35.0339 119.065 32.4986 117.633 30.7197C116.206 28.9476 113.823 26.2081 111.799 24.3213C110.076 22.7161 107.467 20.4535 105.308 18.913C104.335 18.2183 102.951 17.2528 101.886 16.5964C100.801 15.9263 98.7804 14.6801 97.2645 13.9472C96.9476 13.7951 96.6002 13.6234 96.2392 13.4448C95.4513 13.0563 94.6045 12.6393 93.902 12.3282C92.806 11.8455 91.2469 11.1812 90.041 10.7613L89.4169 10.5415C88.4819 10.2108 87.4222 9.83601 86.5735 9.60052L85.8709 9.40134C85.1007 9.18351 84.2421 8.93919 83.5494 8.76847C82.8361 8.59087 81.487 8.26708 80.4528 8.08262L79.7601 7.95605C79.0389 7.8226 78.2225 7.6715 77.5779 7.59202L76.7086 7.48017C76.0325 7.39284 75.3055 7.29767 74.7118 7.23781C73.4628 7.11222 72.5365 7.04158 71.8801 7.01901L71.0589 6.98859C70.3868 6.9621 69.6587 6.93266 69.069 6.92677C68.233 6.91598 67.1155 6.93168 66.2785 6.96112C63.5047 7.05826 61.4098 7.3065 60.6367 7.40854C59.7634 7.52236 58.6007 7.68916 57.7333 7.84026C57.0916 7.95114 56.2988 8.11401 55.5747 8.26315L54.7613 8.428C53.7477 8.63111 52.4624 8.97256 51.6696 9.20215C49.6434 9.79185 47.0717 10.6877 45.3419 11.3304C44.3548 11.6983 43.0861 12.2782 42.0667 12.7443L41.7272 12.8993C38.9406 14.1709 35.6978 16.1068 34.3084 17.0281C32.918 17.9485 31.1156 19.2309 29.8224 20.219C29.0276 20.8263 28.0621 21.6564 27.2105 22.3893L26.5246 22.9771C25.0391 24.2409 23.1003 26.1797 21.6991 27.7996C19.9644 29.8081 17.5889 32.6889 16.126 35.0114C14.2009 38.0688 12.7271 40.6689 11.8647 42.5283C11.3947 43.5418 10.5244 45.461 9.96508 46.923C9.61087 47.8502 8.73368 50.2041 8.2421 52.0105C7.4601 54.8824 6.65454 58.764 6.23655 61.6703C5.87547 64.1782 5.67433 67.2984 5.73516 69.4364C5.81562 72.277 5.98242 76.4019 6.49559 79.424C6.82429 81.3599 7.38651 84.0081 7.89477 86.0146C8.23328 87.348 8.80727 89.0632 9.26843 90.4417L9.34006 90.6547C10.022 92.6906 11.1876 95.2555 12.2375 97.4975C12.6476 98.3737 13.2305 99.402 13.7937 100.397C14.0409 100.835 14.2803 101.257 14.4913 101.643C15.549 103.581 17.2749 105.915 18.6614 107.791L18.8036 107.983C20.4138 110.164 22.8069 112.723 24.5083 114.392C26.3421 116.191 29.0728 118.402 30.9674 119.909C31.9751 120.709 33.3792 121.649 34.3584 122.262C35.841 123.188 37.9594 124.418 39.6304 125.323C40.4614 125.773 41.7105 126.374 42.9703 126.931C43.9574 127.366 45.5626 128.038 46.8382 128.5C47.9008 128.886 49.2549 129.367 50.2989 129.66C51.9777 130.131 54.4375 130.77 56.3037 131.154C57.1436 131.328 58.3701 131.553 59.2924 131.667L60.1 131.772C60.7927 131.863 61.5462 131.96 62.1575 132.023C63.0102 132.108 64.1503 132.186 65.0059 132.242C66.0705 132.311 67.4128 132.33 67.7994 132.334C68.3704 132.338 69.072 132.326 69.7264 132.313L70.6026 132.298C71.4533 132.288 72.5876 132.206 73.3912 132.14C75.1249 131.997 77.4602 131.67 79.1144 131.422C80.0426 131.283 81.2613 131.028 82.0904 130.833C82.6605 130.701 84.1038 130.361 85.2047 130.054C85.8582 129.872 86.6539 129.622 87.3937 129.389L88.3523 129.09L88.6673 130.115L87.7155 130.413C86.964 130.649 86.1564 130.903 85.4922 131.089C84.3697 131.4 82.9087 131.745 82.3327 131.879C81.483 132.077 80.233 132.34 79.2734 132.483C77.6034 132.734 75.2417 133.064 73.4785 133.208C72.6592 133.276 71.4965 133.359 70.6154 133.37L69.746 133.384C69.1936 133.393 68.6079 133.405 68.0927 133.405Z" fill="#8F8F8F" stroke="black" stroke-width="0.161664"></path><path d="M68.5472 127.787C54.1423 127.787 39.7395 124.538 28.9287 118.077L29.4801 117.156C50.3177 129.613 84.7143 129.959 106.153 117.929L106.678 118.864C96.0607 124.822 82.3025 127.787 68.5472 127.787Z" fill="#8F8F8F" stroke="black" stroke-width="0.161664"></path><path d="M68.8409 18.5504L68.3159 17.6153C80.6318 10.7038 92.2148 9.69023 100.928 14.7581L100.388 15.6853C92.0156 10.8157 80.8124 11.8322 68.8409 18.5504Z" fill="black" stroke="black" stroke-width="0.161664"></path><path d="M129.914 79.5388L128.84 79.5349C128.92 51.3649 101.848 24.0358 68.4932 18.6128L68.6659 17.5531C102.519 23.0566 129.995 50.8635 129.914 79.5388Z" fill="black" stroke="black" stroke-width="0.161664"></path><path d="M125.054 42.7134C115.845 24.5349 93.7033 15.0743 68.6535 18.6134L68.5034 17.5498C94.0183 13.9498 116.592 23.6322 126.012 42.2277L125.054 42.7134Z" fill="black" stroke="black" stroke-width="0.161664"></path><path d="M68.0832 18.2935C64.9777 11.0062 61.8742 7.10012 59.5596 7.55539L59.3486 6.50355C62.3236 5.90895 65.5998 9.73069 69.0703 17.8726L68.0832 18.2935Z" fill="black" stroke="black" stroke-width="0.161664"></path><path d="M68.3017 18.5439C56.3164 11.3773 44.7629 10.3215 36.6043 15.6435L36.0176 14.7447C44.5343 9.19119 56.5009 10.2391 68.8521 17.6226L68.3017 18.5439Z" fill="black" stroke="black" stroke-width="0.161664"></path><path d="M10.7586 45.0686L9.75879 44.6761C17.8683 24.0437 41.5415 13.1475 68.6655 17.5531L68.4928 18.6128C41.88 14.2857 18.6778 24.9169 10.7586 45.0686Z" fill="black" stroke="black" stroke-width="0.161664"></path><path d="M7.57049 78.3023L6.49707 78.2983C6.57851 49.6191 34.3943 22.3685 68.5034 17.5509L68.6535 18.6145C35.0526 23.3595 7.64997 50.1352 7.57049 78.3023Z" fill="#8F8F8F" stroke="black" stroke-width="0.161664"></path><path d="M68.65 106.767C51.9835 106.767 35.319 103.01 22.8118 95.5338L22.5498 95.3769L22.5508 95.0707C22.6322 66.4759 43.1617 31.728 68.3155 17.6156L68.5863 17.4635L68.8531 17.6224C93.3005 32.2373 113.124 67.3874 113.044 95.9783L113.043 96.2913L112.77 96.4434C100.485 103.338 84.5649 106.767 68.65 106.767ZM23.6262 94.7675C47.7183 109.003 87.1886 109.4 111.972 95.6604C111.906 67.567 92.5165 33.1851 68.5706 18.7027C43.9319 32.6945 23.8499 66.68 23.6262 94.7675Z" fill="#8F8F8F" stroke="black" stroke-width="0.161664"></path><path d="M68.6927 75.7528C54.2879 75.7528 39.8859 72.5041 29.0752 66.0429L29.6266 65.1216C50.4642 77.5788 84.8598 77.9251 106.3 65.8948L106.825 66.8298C96.2062 72.7886 82.448 75.7528 68.6927 75.7528Z" fill="#8F8F8F" stroke="black" stroke-width="0.161664"></path><path d="M52.0597 104.898L50.9863 104.894C51.0668 76.4056 58.7407 37.3571 68.0934 17.8501L69.0608 18.3142C59.767 37.7015 52.1402 76.5429 52.0597 104.898Z" fill="#8F8F8F" stroke="black" stroke-width="0.161664"></path><path d="M84.1402 105.222L83.0668 105.218C83.1472 76.8567 76.4261 37.8612 68.084 18.2924L69.072 17.8705C77.4612 37.5541 84.2206 76.738 84.1402 105.222Z" fill="black" stroke="black" stroke-width="0.161664"></path><path d="M68.0927 133.405C67.9877 133.405 67.8857 133.404 67.7876 133.403C67.3941 133.399 66.0273 133.382 64.9362 133.31C64.0689 133.254 62.914 133.174 62.0496 133.086C61.4295 133.024 60.6641 132.924 59.9616 132.833L59.16 132.73C57.96 132.581 56.5049 132.289 56.0869 132.203C54.1932 131.814 51.7059 131.166 50.0094 130.69C48.9301 130.388 47.5525 129.899 46.4722 129.508C45.1721 129.037 43.5394 128.353 42.5376 127.911C42.0559 127.699 40.3869 126.951 39.1202 126.266C37.7936 125.548 36.1884 124.626 34.8333 123.81L34.8324 123.812C34.8186 123.802 34.8059 123.793 34.7921 123.786C34.4369 123.571 34.0994 123.364 33.7894 123.17C32.7856 122.541 31.3423 121.575 30.3002 120.746C28.3869 119.224 25.6268 116.99 23.7577 115.156C22.0259 113.458 19.5886 110.849 17.9412 108.619L17.7989 108.427C16.3919 106.524 14.6424 104.157 13.5503 102.155C13.3423 101.773 13.1049 101.356 12.8606 100.924C12.2876 99.9122 11.6949 98.8643 11.2671 97.9518C10.2035 95.6823 9.02215 93.0821 8.32354 90.9941L8.25192 90.7812C7.78487 89.386 7.20302 87.6503 6.8547 86.2766C6.34056 84.2455 5.77147 81.5629 5.43885 79.6025C4.91391 76.5137 4.74515 72.3378 4.66371 69.4659C4.60091 67.2386 4.80205 64.1184 5.17588 61.5153C5.59878 58.5707 6.41513 54.6362 7.20793 51.7269C7.6946 49.9412 8.51782 47.709 8.96426 46.5384C9.53433 45.046 10.4164 43.1023 10.8923 42.0759C11.7862 40.1479 13.2422 37.5782 15.2193 34.4384C16.7176 32.06 19.1294 29.134 20.8887 27.0981C22.3222 25.4408 24.3081 23.4559 25.8299 22.1598L26.5119 21.575C27.3743 20.8332 28.3516 19.9933 29.1709 19.3663C30.4808 18.3645 32.3068 17.0654 33.7148 16.1333C35.1306 15.1943 38.4382 13.2201 41.2807 11.922L41.6192 11.768C42.6544 11.295 43.9427 10.7053 44.9671 10.3237C46.7155 9.67411 49.3157 8.76749 51.3693 8.17093C52.1827 7.93544 53.5034 7.58515 54.5503 7.37518L55.3589 7.21034C56.0947 7.06022 56.8974 6.89538 57.5489 6.78156C58.43 6.6285 59.6103 6.45973 60.4964 6.34395C61.2833 6.23995 63.4203 5.98582 66.2402 5.88672C67.0919 5.85728 68.2281 5.84355 69.0788 5.85238C69.6783 5.85826 70.4172 5.88671 71.1001 5.91419L71.9145 5.9446C72.8211 5.97502 74.0054 6.08786 74.8168 6.1693C75.4193 6.23013 76.1581 6.32531 76.844 6.41558L77.7064 6.52547C78.3825 6.60887 79.2165 6.76291 79.9524 6.90028L80.6373 7.02588C81.7028 7.21525 83.0784 7.54493 83.8045 7.72547C84.5061 7.90012 85.3784 8.14738 86.1604 8.36814L86.859 8.56537C87.7411 8.81066 88.8194 9.19234 89.7702 9.52791L90.3903 9.74671C91.6285 10.1775 93.2171 10.8545 94.3307 11.3461C95.046 11.661 95.9085 12.0859 96.7101 12.4813C97.0673 12.6579 97.4127 12.8276 97.7276 12.9788C99.2936 13.7353 101.344 15.002 102.445 15.681C103.535 16.3541 104.941 17.3343 105.927 18.0378C108.127 19.6077 110.778 21.9056 112.527 23.5344C114.59 25.4585 116.947 28.1587 118.465 30.0456C119.924 31.8578 121.725 34.4413 122.946 36.4773C123.637 37.6282 124.631 39.3149 125.279 40.6611C126.036 42.23 127.434 45.2148 128.302 47.5824C128.614 48.435 129.387 50.5995 129.824 52.2862C130.452 54.7088 131.147 57.4767 131.435 59.6736L131.561 60.6077C131.745 61.9519 131.953 63.4747 132.02 64.7051C132.153 67.1679 132.286 70.2989 132.136 72.6724L132.09 73.423C132.005 74.8496 131.907 76.4686 131.693 77.752C131.245 80.4483 130.476 84.432 129.664 87.5247C129.331 88.7973 128.756 90.4947 127.907 92.7181C127.665 93.351 126.81 95.5469 125.969 97.1972L125.5 98.1303C124.947 99.2401 124.318 100.498 123.727 101.459C122.227 103.892 120.494 106.654 118.919 108.632L118.815 108.763C117.953 109.848 116.878 111.197 115.969 112.175C114.395 113.866 112.58 115.772 111.044 117.096L110.915 117.208C109.587 118.353 107.935 119.776 106.56 120.76L105.956 119.913C104.179 122.086 102.085 123.867 99.6929 125.218L99.1592 125.496C98.7775 125.761 96.7817 126.768 95.5994 127.332C94.3876 127.909 92.9394 128.537 91.9101 128.932L91.4431 129.112C90.5394 129.461 89.516 129.856 88.6722 130.116L87.7205 130.414C86.9689 130.65 86.1614 130.904 85.4971 131.089C84.3746 131.401 82.9136 131.746 82.3377 131.88C81.4879 132.078 80.2379 132.341 79.2783 132.484C77.6083 132.735 75.2466 133.065 73.4834 133.209C72.6641 133.277 71.5014 133.36 70.6203 133.371L69.7509 133.385C69.1936 133.393 68.6079 133.405 68.0927 133.405ZM35.3661 122.88C36.7103 123.69 38.3087 124.609 39.6284 125.322C40.4595 125.772 41.7085 126.373 42.9684 126.93C43.9555 127.365 45.5607 128.037 46.8362 128.499C47.8989 128.885 49.2529 129.366 50.2969 129.659C51.9757 130.13 54.4356 130.769 56.3018 131.153C57.1417 131.327 58.3682 131.552 59.2905 131.666L60.098 131.771C60.7907 131.862 61.5443 131.959 62.1556 132.022C63.0082 132.107 64.1484 132.185 65.004 132.241C66.0685 132.31 67.4108 132.329 67.7974 132.333C68.3685 132.337 69.07 132.325 69.7244 132.312L70.6007 132.297C71.4513 132.287 72.5856 132.205 73.3892 132.139C75.123 131.996 77.4582 131.669 79.1125 131.421C80.0407 131.282 81.2593 131.027 82.0884 130.832C82.6585 130.7 84.1018 130.36 85.2027 130.053C85.8562 129.871 86.6519 129.621 87.3918 129.388L88.3504 129.089C89.1569 128.84 90.1626 128.452 91.0496 128.109L91.5186 127.928C92.5234 127.542 93.9412 126.927 95.1304 126.36C96.3755 125.768 98.2594 124.808 98.6019 124.574L99.1739 124.272C107.195 119.744 111.722 110.036 111.959 96.8901C87.0385 110.395 47.8871 110.006 23.6262 96.012C23.794 108.409 27.9434 117.924 35.3661 122.88ZM113.047 95.0582L113.044 95.9786C113.016 106.023 110.57 114.203 106.03 119.814C107.347 118.861 108.931 117.496 110.209 116.394L110.34 116.282C111.836 114.993 113.626 113.112 115.18 111.442C116.062 110.495 117.122 109.165 117.973 108.095L118.077 107.963C119.615 106.032 121.327 103.302 122.811 100.895C123.377 99.976 123.994 98.7416 124.538 97.6515L125.011 96.7106C125.561 95.6273 126.268 93.9927 126.901 92.3344C127.725 90.1798 128.304 88.4695 128.623 87.2519C129.426 84.1935 130.187 80.2472 130.632 77.5754C130.836 76.3469 130.932 74.7594 131.016 73.3573L131.063 72.6037C131.21 70.2871 131.078 67.1964 130.946 64.763C130.882 63.5777 130.677 62.0775 130.495 60.7539L130.368 59.8139C130.087 57.6769 129.402 54.9472 128.783 52.557C128.357 50.9155 127.598 48.7902 127.292 47.9533C126.441 45.6279 125.06 42.6794 124.311 41.1281C123.838 40.1479 123.089 38.8076 122.024 37.0307C120.826 35.0339 119.06 32.4986 117.628 30.7197C116.201 28.9476 113.818 26.2081 111.794 24.3213C110.071 22.7161 107.462 20.4535 105.303 18.913C104.33 18.2183 102.947 17.2528 101.881 16.5964C100.796 15.9263 98.7755 14.6801 97.2596 13.9472C96.9427 13.7951 96.5953 13.6234 96.2342 13.4448C95.4463 13.0563 94.5996 12.6393 93.897 12.3282C92.8011 11.8455 91.2419 11.1812 90.0361 10.7613L89.412 10.5415C88.477 10.2108 87.4173 9.83601 86.5685 9.60052L85.866 9.40134C85.0958 9.18351 84.2372 8.93919 83.5445 8.76847C82.8312 8.59087 81.482 8.26708 80.4479 8.08262L79.7552 7.95605C79.034 7.8226 78.2176 7.6715 77.573 7.59202L76.7037 7.48017C76.0276 7.39284 75.3006 7.29767 74.7069 7.23781C73.4579 7.11222 72.5316 7.04158 71.8752 7.01901L71.054 6.98859C70.3819 6.9621 69.6538 6.93266 69.0641 6.92677C68.2281 6.91598 67.1106 6.93168 66.2736 6.96112C63.4998 7.05826 61.4049 7.3065 60.6318 7.40854C59.7585 7.52236 58.5958 7.68916 57.7284 7.84026C57.0867 7.95114 56.2939 8.11401 55.5698 8.26315L54.7564 8.428C53.7428 8.63111 52.4575 8.97256 51.6647 9.20215C49.6385 9.79185 47.0668 10.6877 45.337 11.3304C44.3499 11.6983 43.0812 12.2782 42.0618 12.7443L41.7223 12.8993C38.9357 14.1709 35.6929 16.1068 34.3035 17.0281C32.9131 17.9485 31.1107 19.2309 29.8175 20.219C29.0227 20.8263 28.0572 21.6564 27.2056 22.3893L26.5197 22.9771C25.0342 24.2409 23.0954 26.1797 21.6942 27.7996C19.9595 29.8081 17.584 32.6889 16.1211 35.0114C14.196 38.0688 12.7222 40.6689 11.8598 42.5283C11.3898 43.5418 10.5194 45.461 9.96017 46.923C9.60596 47.8502 8.72878 50.2041 8.2372 52.0105C7.45519 54.8824 6.64964 58.764 6.23165 61.6703C5.87057 64.1782 5.66943 67.2984 5.73026 69.4364C5.81072 72.277 5.97752 76.4019 6.49068 79.424C6.81938 81.3599 7.3816 84.0081 7.88986 86.0146C8.22837 87.348 8.80236 89.0632 9.26352 90.4417L9.33515 90.6547C10.0171 92.6906 11.1827 95.2555 12.2326 97.4975C12.6427 98.3737 13.2256 99.402 13.7888 100.397C14.036 100.835 14.2754 101.257 14.4864 101.643C15.5441 103.581 17.27 105.915 18.6565 107.791L18.7987 107.983C20.4089 110.164 22.802 112.723 24.5034 114.392C25.8044 115.668 27.5578 117.152 29.1424 118.445C24.8213 112.753 22.5194 104.721 22.5469 95.073L22.5488 94.13L23.3583 94.6138C47.5142 109.054 87.3869 109.454 112.24 95.5106L113.047 95.0582Z" fill="black" stroke="black" stroke-width="0.161664"></path><path d="M106.678 118.864L106.153 117.929C111.483 114.937 115.605 111.429 118.404 107.502L119.279 108.125C116.386 112.182 112.147 115.796 106.678 118.864Z" fill="black" stroke="black" stroke-width="0.161664"></path><path d="M126.773 95.4059L125.783 94.9899C127.797 90.187 128.826 84.9876 128.842 79.5342L129.915 79.5381C129.899 85.1319 128.842 90.4705 126.773 95.4059Z" fill="black" stroke="black" stroke-width="0.161664"></path><path d="M35.3265 124.131C35.1951 124.049 35.0646 123.967 34.936 123.881L35.5267 122.985C35.6474 123.064 35.7691 123.143 35.8917 123.218L35.3265 124.131Z" fill="black" stroke="black" stroke-width="0.161664"></path><path d="M34.936 123.882C26.9726 118.666 22.5798 108.551 22.5504 95.3756C10.7339 88.2306 4.38564 78.8328 4.66822 68.8884L5.74165 68.9188C5.46789 78.5306 11.7259 87.6547 23.3628 94.6103L23.6248 94.7673L23.6238 95.0734C23.5875 108.021 27.8145 117.934 35.5247 122.982L34.936 123.882Z" fill="black" stroke="black" stroke-width="0.161664"></path><path d="M28.9307 118.077C23.7147 114.957 19.7036 111.336 17.0083 107.31L17.9002 106.712C20.5062 110.606 24.4025 114.119 29.4822 117.155L28.9307 118.077Z" fill="black" stroke="black" stroke-width="0.161664"></path><path d="M8.93552 92.5923C7.30282 88.0867 6.48255 83.2779 6.49726 78.2983L7.57069 78.3023C7.55695 83.1552 8.35564 87.8404 9.94419 92.2263L8.93552 92.5923Z" fill="black" stroke="black" stroke-width="0.161664"></path><path d="M68.5472 127.787C54.1423 127.787 39.7395 124.538 28.9287 118.077L29.4801 117.156C50.3177 129.613 84.7143 129.959 106.153 117.929L106.678 118.864C96.0607 124.822 82.3025 127.787 68.5472 127.787Z" fill="black" stroke="black" stroke-width="0.161664"></path><path d="M58.2802 132.595C53.5969 131.938 50.9389 121.841 50.987 104.894L52.0604 104.898C52.0064 123.869 55.315 131.094 58.4303 131.532L58.2802 132.595Z" fill="black" stroke="black" stroke-width="0.161664"></path><path d="M77.5528 132.747L77.3281 131.697C80.0676 131.11 83.0141 123.846 83.0671 105.219L84.1405 105.223C84.0925 122.071 81.7523 131.847 77.5528 132.747Z" fill="black" stroke="black" stroke-width="0.161664"></path><path d="M106.827 66.8301L106.302 65.8951C115.05 60.9862 120.515 54.7222 122.108 47.7793C123.32 42.4976 122.142 37.0942 118.7 32.1529L119.58 31.5397C123.199 36.7361 124.436 42.4348 123.154 48.0197C121.491 55.2658 115.845 61.7691 106.827 66.8301Z" fill="black" stroke="black" stroke-width="0.161664"></path><path d="M91.0679 38.8858L90.543 37.9508C96.5361 34.5872 99.8731 30.1012 99.9388 25.3189C100.004 20.6249 96.8893 16.1556 91.1709 12.7381L91.7224 11.8168C97.7832 15.4403 101.083 20.2413 101.012 25.3337C100.941 30.5153 97.4093 35.328 91.0679 38.8858Z" fill="black" stroke="black" stroke-width="0.161664"></path><path d="M69.0612 18.3142L68.0938 17.8501C71.9076 9.89465 75.6136 6.0474 78.8064 6.6999L78.5886 7.75173C75.9707 7.20815 72.5866 10.9622 69.0612 18.3142Z" fill="black" stroke="black" stroke-width="0.161664"></path><path d="M29.0782 66.0432C20.5232 60.9282 15.2287 54.4799 13.7667 47.3947C12.6158 41.8127 13.9688 36.1454 17.6807 31.002L18.551 31.6309C15.0207 36.5231 13.7294 41.9 14.8185 47.1788C16.2177 53.9608 21.3395 60.1659 29.6296 65.1219L29.0782 66.0432Z" fill="black" stroke="black" stroke-width="0.161664"></path><path d="M45.3965 38.4227C39.3357 34.8002 36.0359 29.9992 36.1056 24.9058C36.1772 19.7242 39.7085 14.9105 46.0499 11.3527L46.5749 12.2877C40.5818 15.6513 37.2447 20.1373 37.179 24.9196C37.1142 29.6146 40.2285 34.0829 45.9469 37.5004L45.3965 38.4227Z" fill="black" stroke="black" stroke-width="0.161664"></path><path d="M7.57049 78.3023L6.49707 78.2983C6.57851 49.6191 34.3943 22.3685 68.5034 17.5509L68.6535 18.6145C35.0526 23.3595 7.64997 50.1352 7.57049 78.3023Z" fill="black" stroke="black" stroke-width="0.161664"></path><path d="M68.65 106.767C51.9835 106.767 35.319 103.01 22.8118 95.5338L22.5498 95.3769L22.5508 95.0707C22.6322 66.4759 43.1617 31.728 68.3155 17.6156L68.5863 17.4635L68.8531 17.6224C93.3005 32.2373 113.124 67.3874 113.044 95.9783L113.043 96.2913L112.77 96.4434C100.485 103.338 84.5649 106.767 68.65 106.767ZM23.6262 94.7675C47.7183 109.003 87.1886 109.4 111.972 95.6604C111.906 67.567 92.5165 33.1851 68.5706 18.7027C43.9319 32.6945 23.8499 66.68 23.6262 94.7675Z" fill="black" stroke="black" stroke-width="0.161664"></path><path d="M68.6927 75.7528C54.2879 75.7528 39.8859 72.5041 29.0752 66.0429L29.6266 65.1216C50.4642 77.5788 84.8598 77.9251 106.3 65.8948L106.825 66.8298C96.2062 72.7886 82.448 75.7528 68.6927 75.7528Z" fill="black" stroke="black" stroke-width="0.161664"></path><path d="M68.6703 44.1274C60.2085 44.1274 51.7467 42.219 45.3975 38.4228L45.9479 37.5015C58.0676 44.7485 78.0731 44.9477 90.543 37.9509L91.0679 38.8859C84.8305 42.3858 76.7504 44.1274 68.6703 44.1274Z" fill="black" stroke="black" stroke-width="0.161664"></path><path d="M52.0597 104.898L50.9863 104.894C51.0668 76.4056 58.7407 37.3571 68.0934 17.8501L69.0608 18.3142C59.767 37.7015 52.1402 76.5429 52.0597 104.898Z" fill="black" stroke="black" stroke-width="0.161664"></path><path d="M84.1402 105.222L83.0668 105.218C83.1472 76.8567 76.4261 37.8612 68.084 18.2924L69.072 17.8705C77.4612 37.5541 84.2206 76.738 84.1402 105.222Z" fill="black" stroke="black" stroke-width="0.161664"></path><path d="M112.768 96.4457L112.249 95.5067C112.428 95.4076 130.085 85.5006 131.063 72.5969L132.134 72.6774C131.112 86.1619 113.517 96.0326 112.768 96.4457Z" fill="black" stroke="black" stroke-width="0.161664"></path><path d="M9.51986 31.262C12.1015 29.3861 15.0923 29.8703 16.2049 32.3385C17.3158 34.8027 16.1294 38.3214 13.5478 40.1967C10.9662 42.0726 7.97532 41.5883 6.86502 39.1242C5.75239 36.6559 6.93826 33.1373 9.51986 31.262Z" fill="#35B777" stroke="black" stroke-width="0.161664"></path><path d="M8.12341 28.1634C11.2759 25.873 14.7916 25.6603 17.2133 27.288L14.8497 25.6992C12.428 24.0716 8.91224 24.2843 5.7598 26.5747C1.39009 29.7498 -0.622406 35.7117 1.26104 39.8902C2.08766 41.723 5.0785 44.0994 8.23443 46.2212L10.598 47.8099C7.44211 45.6887 4.45068 43.3118 3.62464 41.4789C1.74178 37.3004 3.75428 31.3379 8.12341 28.1634Z" fill="#35B777" stroke="black" stroke-width="0.161664"></path><path d="M8.12324 28.1633C12.4929 24.9887 17.562 25.806 19.4454 29.9839C21.3289 34.1624 19.432 52.0842 19.3321 53.0271C18.6409 52.6585 5.50792 45.6566 3.62448 41.4782C1.74161 37.3003 3.75411 31.3378 8.12324 28.1633ZM13.5486 40.197C16.1302 38.3211 17.3161 34.8024 16.2058 32.3382C15.0931 29.87 12.1023 29.3857 9.52071 31.2616C6.93911 33.1369 5.75324 36.6562 6.86586 39.1244C7.97617 41.588 10.967 42.0723 13.5486 40.197Z" fill="#9DD4B2" stroke="black" stroke-width="0.161664"></path><path d="M105.558 6.74877C103.301 5.10928 100.688 5.53249 99.7151 7.68969C98.7442 9.84334 99.7812 12.9186 102.037 14.5576C104.294 16.1971 106.908 15.7739 107.878 13.6202C108.85 11.463 107.814 8.38776 105.558 6.74877Z" fill="#35B777" stroke="black" stroke-width="0.161664"></path><path d="M106.778 4.04096C104.022 2.03922 100.95 1.85328 98.8332 3.27583L100.899 1.88731C103.015 0.464761 106.088 0.650711 108.843 2.65245C112.662 5.42745 114.421 10.6381 112.775 14.29C112.053 15.8919 109.439 17.9688 106.681 19.8232L104.615 21.2117C107.373 19.3578 109.988 17.2804 110.709 15.6785C112.355 12.0266 110.596 6.81545 106.778 4.04096Z" fill="#35B777" stroke="black" stroke-width="0.161664"></path><path d="M106.779 4.04074C102.96 1.26625 98.5295 1.98057 96.8834 5.63197C95.2373 9.28387 96.895 24.9472 96.9824 25.7713C97.5865 25.4492 109.064 19.3296 110.711 15.6777C112.356 12.0263 110.597 6.81522 106.779 4.04074ZM102.037 14.558C99.7808 12.9185 98.7444 9.84324 99.7147 7.68959C100.687 5.53239 103.301 5.10918 105.557 6.74867C107.814 8.38766 108.85 11.4634 107.878 13.6206C106.907 15.7738 104.293 16.197 102.037 14.558Z" fill="#9DD4B2" stroke="black" stroke-width="0.161664"></path><path d="M106.944 82.978C105.119 81.6525 103.006 81.9946 102.22 83.7387C101.435 85.48 102.273 87.9663 104.097 89.2915C105.922 90.617 108.035 90.2749 108.82 88.5336C109.606 86.7895 108.768 84.3031 106.944 82.978Z" fill="#35B777" stroke="black" stroke-width="0.161664"></path><path d="M107.93 80.7886C105.703 79.1701 103.218 79.0198 101.507 80.1699L103.177 79.0473C104.888 77.8972 107.373 78.0475 109.6 79.6659C112.688 81.9095 114.11 86.1224 112.779 89.0749C112.195 90.3701 110.082 92.0493 107.852 93.5486L106.181 94.6712C108.412 93.1723 110.525 91.4927 111.109 90.1976C112.439 87.245 111.017 83.0318 107.93 80.7886Z" fill="#35B777" stroke="black" stroke-width="0.161664"></path><path d="M107.93 80.7885C104.842 78.5453 101.26 79.1229 99.9296 82.0751C98.5987 85.0276 99.9391 97.6916 100.01 98.3578C100.498 98.0974 109.778 93.1497 111.109 90.1971C112.439 87.245 111.017 83.0317 107.93 80.7885ZM104.096 89.2918C102.272 87.9663 101.434 85.4799 102.219 83.7387C103.005 81.9945 105.118 81.6524 106.943 82.9779C108.767 84.303 109.605 86.7898 108.819 88.5339C108.034 90.2748 105.921 90.6169 104.096 89.2918Z" fill="#9DD4B2" stroke="black" stroke-width="0.161664"></path><defs><linearGradient id="paint0_linear_1_1954" x1="36.6122" y1="121.545" x2="101.878" y2="9.80127" gradientUnits="userSpaceOnUse"><stop offset="0.0859" stop-color="#319928"></stop><stop offset="0.2573" stop-color="#43B12D"></stop><stop offset="0.5177" stop-color="#59CF34"></stop><stop offset="0.7406" stop-color="#67E138"></stop><stop offset="0.8984" stop-color="#6CE83A"></stop></linearGradient><linearGradient id="paint1_linear_1_1954" x1="43.2828" y1="125.329" x2="108.474" y2="13.6652" gradientUnits="userSpaceOnUse"><stop offset="0.0859" stop-color="#319928"></stop><stop offset="0.2573" stop-color="#43B12D"></stop><stop offset="0.5177" stop-color="#59CF34"></stop><stop offset="0.7406" stop-color="#67E138"></stop><stop offset="0.8984" stop-color="#6CE83A"></stop></linearGradient><linearGradient id="paint2_linear_1_1954" x1="99.4138" y1="13.8972" x2="99.4307" y2="13.8682" gradientUnits="userSpaceOnUse"><stop offset="0.0859" stop-color="#319928"></stop><stop offset="0.2573" stop-color="#43B12D"></stop><stop offset="0.5177" stop-color="#59CF34"></stop><stop offset="0.7406" stop-color="#67E138"></stop><stop offset="0.8984" stop-color="#6CE83A"></stop></linearGradient></defs></svg>