<svg xmlns="http://www.w3.org/2000/svg" width="47" height="62" viewBox="0 0 47 62" fill="none"><path d="M2.64842 60.2756V30.2293L1.0498 29.3594L1.0498 58.8427C1.0498 59.5221 2.03555 60.3664 2.64842 60.2756Z" fill="#35B777" stroke="black"></path><path d="M46.1418 3.14644V34.8589C46.1418 36.0218 45.5204 37.098 44.512 37.6794L4.24783 60.833C3.53621 61.2426 2.64746 60.7306 2.64746 59.9098V28.1973C2.64746 27.0327 3.26887 25.9582 4.27732 25.3768L44.5417 2.22296C45.2515 1.81166 46.1418 2.3254 46.1418 3.14644Z" fill="white" stroke="black"></path><path d="M45.073 2.07812C45.4937 2.07812 46.1416 2.60641 46.1416 3.14633V34.8588C46.1416 35.9497 45.4911 37.1144 44.5459 37.6594L4.24764 60.8331C4.11125 60.9117 3.86816 60.9773 3.71586 60.9773C3.29525 60.9773 2.64746 60.4494 2.64746 59.9099V28.1974C2.64746 27.1065 3.42892 26.0903 4.37413 25.5453L44.5415 2.22305C44.6775 2.14428 44.9207 2.07812 45.073 2.07812ZM45.073 2.07812C44.8953 2.07812 44.7132 2.12352 44.5415 2.22305L4.27732 25.3769C3.26887 25.9583 2.64746 27.0327 2.64746 28.1974V59.9099C2.64746 60.5324 3.15848 60.9773 3.71586 60.9773C3.89338 60.9773 4.07575 60.9321 4.24764 60.8331L44.5118 37.6793C45.5202 37.0979 46.1416 36.0217 46.1416 34.8588V3.14633C46.1416 2.52395 45.6298 2.07812 45.073 2.07812Z" fill="#E0E0E0"></path><path d="M45.073 2.07812C45.4937 2.07812 46.1416 2.60641 46.1416 3.14633M45.073 2.07812C44.9208 2.07812 44.6775 2.14428 44.5415 2.22305M45.073 2.07812C44.8953 2.07812 44.7132 2.12352 44.5415 2.22305M45.073 2.07812C45.6298 2.07812 46.1416 2.52395 46.1416 3.14633M46.1416 3.14633V34.8588M46.1416 34.8588C46.1416 35.9497 45.4911 37.1144 44.5459 37.6594L4.24764 60.8331M46.1416 34.8588C46.1416 36.0217 45.5202 37.0979 44.5118 37.6793L4.24764 60.8331M4.24764 60.8331C4.11125 60.9117 3.86816 60.9773 3.71586 60.9773M4.24764 60.8331C4.07575 60.9321 3.89338 60.9773 3.71586 60.9773M3.71586 60.9773C3.29525 60.9773 2.64746 60.4494 2.64746 59.9099M3.71586 60.9773C3.15848 60.9773 2.64746 60.5324 2.64746 59.9099M2.64746 59.9099V28.1974M2.64746 28.1974C2.64746 27.1065 3.42892 26.0903 4.37413 25.5453L44.5415 2.22305M2.64746 28.1974C2.64746 27.0327 3.26887 25.9583 4.27732 25.3769L44.5415 2.22305" stroke="black"></path><path d="M44.4191 1.55258C44.1036 1.35566 43.2959 1.33897 42.9278 1.5516L2.64924 24.5386C1.64137 25.1205 1.11615 26.2081 1.11615 27.3719L1.05176 29.316L2.64924 30.2271L44.9208 5.82288V2.94555L45.6301 2.23626L44.4189 1.55161V1.55258H44.4191Z" fill="#35B777" stroke="black"></path><path d="M46.1416 3.14625V5.1162L2.64746 30.2262V28.1973C2.64746 27.0327 3.26887 25.9582 4.27732 25.3768L44.5415 2.22296C45.2513 1.81167 46.1416 2.3254 46.1416 3.14625Z" fill="#9DD4B2" stroke="black"></path><path opacity="0.5" d="M46.1416 3.14625V5.1162L2.64746 30.2262V28.1973C2.64746 27.0327 3.26887 25.9582 4.27732 25.3768L44.5415 2.22296C45.2513 1.81167 46.1416 2.3254 46.1416 3.14625Z" fill="#9DD4B2" stroke="black"></path><mask id="path-8-inside-1_495_5905" fill="white"><path d="M23.2351 44.701C22.9047 44.701 22.599 44.6236 22.3283 44.4672C21.6751 44.0901 21.3154 43.3044 21.3154 42.2546C21.3154 40.137 22.8073 37.553 24.6413 36.4941C25.5504 35.9691 26.4108 35.8878 27.0639 36.265C27.7171 36.6421 28.077 37.4279 28.077 38.4777C28.077 40.5952 26.5851 43.1792 24.7511 44.2379C24.2186 44.5458 23.7023 44.701 23.2351 44.701ZM26.1565 36.2514C25.7279 36.2514 25.2493 36.3969 24.7511 36.6844C22.9777 37.7082 21.535 40.207 21.535 42.2546C21.535 43.2225 21.8557 43.9407 22.4382 44.2769C23.0206 44.6135 23.803 44.5319 24.6411 44.0478C26.4143 43.024 27.857 40.5252 27.857 38.4777C27.857 37.5097 27.5363 36.7915 26.9539 36.4551C26.718 36.3191 26.4489 36.2514 26.1565 36.2514Z"></path></mask><path d="M23.2351 44.701C22.9047 44.701 22.599 44.6236 22.3283 44.4672C21.6751 44.0901 21.3154 43.3044 21.3154 42.2546C21.3154 40.137 22.8073 37.553 24.6413 36.4941C25.5504 35.9691 26.4108 35.8878 27.0639 36.265C27.7171 36.6421 28.077 37.4279 28.077 38.4777C28.077 40.5952 26.5851 43.1792 24.7511 44.2379C24.2186 44.5458 23.7023 44.701 23.2351 44.701ZM26.1565 36.2514C25.7279 36.2514 25.2493 36.3969 24.7511 36.6844C22.9777 37.7082 21.535 40.207 21.535 42.2546C21.535 43.2225 21.8557 43.9407 22.4382 44.2769C23.0206 44.6135 23.803 44.5319 24.6411 44.0478C26.4143 43.024 27.857 40.5252 27.857 38.4777C27.857 37.5097 27.5363 36.7915 26.9539 36.4551C26.718 36.3191 26.4489 36.2514 26.1565 36.2514Z" fill="#35B777"></path><path d="M22.3283 44.4672L22.8286 43.6014L22.8284 43.6012L22.3283 44.4672ZM24.6413 36.4941L25.1413 37.3601L25.1414 37.3601L24.6413 36.4941ZM27.0639 36.265L26.5638 37.1309L26.5639 37.131L27.0639 36.265ZM24.7511 44.2379L24.2512 43.3719L24.2506 43.3722L24.7511 44.2379ZM24.7511 36.6844L24.2513 35.8183L24.2511 35.8184L24.7511 36.6844ZM22.4382 44.2769L22.9385 43.4111L22.9381 43.4109L22.4382 44.2769ZM24.6411 44.0478L24.1411 43.1818L24.141 43.1819L24.6411 44.0478ZM26.9539 36.4551L27.454 35.5892L27.4533 35.5888L26.9539 36.4551ZM23.2351 44.701V43.701C23.0653 43.701 22.9346 43.6626 22.8286 43.6014L22.3283 44.4672L21.8281 45.3331C22.2634 45.5846 22.7442 45.701 23.2351 45.701V44.701ZM22.3283 44.4672L22.8284 43.6012C22.5998 43.4693 22.3154 43.1039 22.3154 42.2546H21.3154H20.3154C20.3154 43.5048 20.7504 44.7109 21.8283 45.3333L22.3283 44.4672ZM21.3154 42.2546H22.3154C22.3154 41.4131 22.6186 40.4092 23.1567 39.4774C23.6947 38.5455 24.4125 37.7809 25.1413 37.3601L24.6413 36.4941L24.1413 35.6281C23.0361 36.2662 22.0911 37.3231 21.4246 38.4773C20.7582 39.6316 20.3154 40.9785 20.3154 42.2546H21.3154ZM24.6413 36.4941L25.1414 37.3601C25.8768 36.9354 26.3355 36.9991 26.5638 37.1309L27.0639 36.265L27.564 35.399C26.4862 34.7766 25.224 35.0029 24.1412 35.6281L24.6413 36.4941ZM27.0639 36.265L26.5639 37.131C26.7925 37.263 27.077 37.6285 27.077 38.4777H28.077H29.077C29.077 37.2272 28.6417 36.0212 27.5639 35.399L27.0639 36.265ZM28.077 38.4777H27.077C27.077 39.3191 26.7738 40.323 26.2358 41.2549C25.6978 42.1867 24.9799 42.9512 24.2512 43.3719L24.7511 44.2379L25.2511 45.104C26.3563 44.466 27.3014 43.4092 27.9678 42.2549C28.6342 41.1006 29.077 39.7538 29.077 38.4777H28.077ZM24.7511 44.2379L24.2506 43.3722C23.828 43.6165 23.4835 43.701 23.2351 43.701V44.701V45.701C23.9211 45.701 24.6091 45.4751 25.2516 45.1037L24.7511 44.2379ZM26.1565 36.2514V35.2514C25.5059 35.2514 24.8552 35.4698 24.2513 35.8183L24.7511 36.6844L25.2509 37.5506C25.6434 37.3241 25.95 37.2514 26.1565 37.2514V36.2514ZM24.7511 36.6844L24.2511 35.8184C23.1762 36.4389 22.2586 37.4658 21.612 38.5856C20.9655 39.7054 20.535 41.0135 20.535 42.2546H21.535H22.535C22.535 41.4481 22.8259 40.483 23.3441 39.5856C23.8622 38.6882 24.5526 37.9537 25.2511 37.5505L24.7511 36.6844ZM21.535 42.2546H20.535C20.535 43.4062 20.9208 44.5557 21.9382 45.143L22.4382 44.2769L22.9381 43.4109C22.7907 43.3258 22.535 43.0388 22.535 42.2546H21.535ZM22.4382 44.2769L21.9378 45.1427C22.9555 45.7309 24.1443 45.4895 25.1412 44.9138L24.6411 44.0478L24.141 43.1819C23.4617 43.5742 23.0856 43.4961 22.9385 43.4111L22.4382 44.2769ZM24.6411 44.0478L25.1411 44.9138C26.2159 44.2933 27.1335 43.2665 27.78 42.1466C28.4266 41.0268 28.857 39.7187 28.857 38.4777H27.857H26.857C26.857 39.2841 26.5661 40.2492 26.048 41.1467C25.5299 42.0441 24.8395 42.7786 24.1411 43.1818L24.6411 44.0478ZM27.857 38.4777H28.857C28.857 37.326 28.4712 36.1767 27.454 35.5892L26.9539 36.4551L26.4537 37.321C26.6014 37.4064 26.857 37.6935 26.857 38.4777H27.857ZM26.9539 36.4551L27.4533 35.5888C27.0512 35.357 26.6069 35.2514 26.1565 35.2514V36.2514V37.2514C26.2909 37.2514 26.3847 37.2813 26.4544 37.3215L26.9539 36.4551Z" fill="black" mask="url(#path-8-inside-1_495_5905)"></path><path d="M24.6967 45.1594C24.636 45.1594 24.5869 45.1102 24.5869 45.0496V34.9692C24.5869 34.9085 24.6362 34.8594 24.6967 34.8594C24.7573 34.8594 24.8065 34.9087 24.8065 34.9692V45.0496C24.8065 45.1102 24.7574 45.1594 24.6967 45.1594Z" fill="#35B777"></path><path d="M20.2398 43.0658C20.2018 43.0658 20.1649 43.046 20.1446 43.0109C20.1143 42.9583 20.1323 42.8912 20.1847 42.861L28.4704 38.0773C28.523 38.0469 28.5901 38.0649 28.6204 38.1175C28.6506 38.17 28.6326 38.2372 28.5802 38.2674L20.2945 43.0511C20.2775 43.0612 20.2585 43.0658 20.2398 43.0658Z" fill="#35B777"></path><path d="M20.8185 43.3912C20.7999 43.3912 20.7811 43.3865 20.7636 43.3764L20.0898 42.9875L20.7048 41.9222C20.7353 41.8696 20.8022 41.8515 20.8548 41.882C20.9074 41.9123 20.9252 41.9794 20.895 42.032L20.3898 42.9069L20.8734 43.1861C20.926 43.2164 20.9439 43.2835 20.9136 43.3361C20.8934 43.3714 20.8566 43.3912 20.8185 43.3912Z" fill="#35B777"></path><path d="M24.1264 36.0747C24.1078 36.0747 24.0889 36.0701 24.0715 36.06C24.0189 36.0297 24.0011 35.9626 24.0313 35.91L24.665 34.8125L25.3201 35.1908C25.3727 35.2211 25.3905 35.2882 25.3603 35.3408C25.3298 35.3934 25.2629 35.4114 25.2103 35.3809L24.7453 35.1124L24.2216 36.0196C24.2013 36.0549 24.1644 36.0747 24.1264 36.0747Z" fill="#35B777"></path><path d="M33.3347 32.5289L31.7392 33.45C31.6346 33.5103 31.5498 33.4463 31.5498 33.3068V31.532C31.5498 31.3926 31.6346 31.2308 31.7392 31.1704L33.3347 30.2493C33.4392 30.1889 33.524 30.253 33.524 30.3924V32.1672C33.524 32.3065 33.4392 32.4685 33.3347 32.5289Z" fill="#6FC08E"></path><path d="M36.3562 30.7554L34.7606 31.6766C34.6561 31.7369 34.5713 31.6729 34.5713 31.5334V29.7586C34.5713 29.6193 34.6561 29.4573 34.7606 29.397L36.3562 28.4758C36.4607 28.4155 36.5455 28.4795 36.5455 28.619V30.3938C36.5455 30.5331 36.4607 30.6951 36.3562 30.7554Z" fill="#6FC08E"></path><path d="M33.3347 35.9273L31.7392 36.8484C31.6346 36.9088 31.5498 36.8448 31.5498 36.7053V34.9305C31.5498 34.7912 31.6346 34.6292 31.7392 34.5689L33.3347 33.6477C33.4392 33.5874 33.524 33.6514 33.524 33.7909V35.5657C33.524 35.7052 33.4392 35.867 33.3347 35.9273Z" fill="#6FC08E"></path><path d="M36.3562 34.1539L34.7606 35.075C34.6561 35.1353 34.5713 35.0713 34.5713 34.9318V33.157C34.5713 33.0176 34.6561 32.8558 34.7606 32.7954L36.3562 31.8743C36.4607 31.8139 36.5455 31.878 36.5455 32.0174V33.7922C36.5455 33.9315 36.4607 34.0935 36.3562 34.1539Z" fill="#6FC08E"></path><path d="M33.3347 39.3179L31.7392 40.2391C31.6346 40.2994 31.5498 40.2354 31.5498 40.0959V38.3211C31.5498 38.1816 31.6346 38.0198 31.7392 37.9595L33.3347 37.0383C33.4392 36.978 33.524 37.042 33.524 37.1815V38.9563C33.524 39.0956 33.4392 39.2574 33.3347 39.3179Z" fill="#6FC08E"></path><path d="M36.3562 37.5445L34.7606 38.4656C34.6561 38.526 34.5713 38.4619 34.5713 38.3225V36.5477C34.5713 36.4084 34.6561 36.2464 34.7606 36.186L36.3562 35.2649C36.4607 35.2046 36.5455 35.2686 36.5455 35.4081V37.1829C36.5455 37.3223 36.4607 37.4841 36.3562 37.5445Z" fill="#6FC08E"></path><path d="M39.3786 28.9898L37.7831 29.9109C37.6785 29.9713 37.5938 29.9073 37.5938 29.7678V27.993C37.5938 27.8537 37.6785 27.6917 37.7831 27.6314L39.3786 26.7102C39.4832 26.6499 39.568 26.7139 39.568 26.8534V28.6282C39.568 28.7675 39.4832 28.9295 39.3786 28.9898Z" fill="#6FC08E"></path><path d="M39.3786 32.3882L37.7831 33.3094C37.6785 33.3697 37.5938 33.3057 37.5938 33.1662V31.3914C37.5938 31.2519 37.6785 31.0901 37.7831 31.0298L39.3786 30.1086C39.4832 30.0483 39.568 30.1123 39.568 30.2518V32.0266C39.568 32.1659 39.4832 32.3279 39.3786 32.3882Z" fill="#6FC08E"></path><path d="M39.3786 35.7789L37.7831 36.7C37.6785 36.7603 37.5938 36.6963 37.5938 36.5568V34.782C37.5938 34.6428 37.6785 34.4808 37.7831 34.4204L39.3786 33.4993C39.4832 33.4389 39.568 33.503 39.568 33.6424V35.4172C39.568 35.5565 39.4832 35.7185 39.3786 35.7789Z" fill="#6FC08E"></path><path d="M42.4011 27.2164L40.8056 28.1375C40.701 28.1978 40.6162 28.1338 40.6162 27.9943V26.2195C40.6162 26.0801 40.701 25.9183 40.8056 25.8579L42.4011 24.9368C42.5057 24.8764 42.5904 24.9405 42.5904 25.0799V26.8547C42.5904 26.994 42.5057 27.1558 42.4011 27.2164Z" fill="#6FC08E"></path><path d="M42.4011 30.607L40.8056 31.5281C40.701 31.5885 40.6162 31.5244 40.6162 31.385V29.6102C40.6162 29.4709 40.701 29.3089 40.8056 29.2485L42.4011 28.3274C42.5057 28.2671 42.5904 28.3311 42.5904 28.4706V30.2454C42.5904 30.3847 42.5057 30.5466 42.4011 30.607Z" fill="#6FC08E"></path><path opacity="0.2" d="M33.3347 35.9273L31.7392 36.8484C31.6346 36.9088 31.5498 36.8448 31.5498 36.7053V34.9305C31.5498 34.7912 31.6346 34.6292 31.7392 34.5689L33.3347 33.6477C33.4392 33.5874 33.524 33.6514 33.524 33.7909V35.5657C33.524 35.7052 33.4392 35.867 33.3347 35.9273Z" fill="black"></path><path opacity="0.2" d="M36.3562 34.1539L34.7606 35.075C34.6561 35.1353 34.5713 35.0713 34.5713 34.9318V33.157C34.5713 33.0176 34.6561 32.8558 34.7606 32.7954L36.3562 31.8743C36.4607 31.8139 36.5455 31.878 36.5455 32.0174V33.7922C36.5455 33.9315 36.4607 34.0935 36.3562 34.1539Z" fill="black"></path><path opacity="0.2" d="M39.3786 32.3882L37.7831 33.3094C37.6785 33.3697 37.5938 33.3057 37.5938 33.1662V31.3914C37.5938 31.2519 37.6785 31.0901 37.7831 31.0298L39.3786 30.1086C39.4832 30.0483 39.568 30.1123 39.568 30.2518V32.0266C39.568 32.1659 39.4832 32.3279 39.3786 32.3882Z" fill="black"></path><path opacity="0.2" d="M42.4011 30.607L40.8056 31.5281C40.701 31.5885 40.6162 31.5244 40.6162 31.385V29.6102C40.6162 29.4709 40.701 29.3089 40.8056 29.2485L42.4011 28.3274C42.5057 28.2671 42.5904 28.3311 42.5904 28.4706V30.2454C42.5904 30.3847 42.5057 30.5466 42.4011 30.607Z" fill="black"></path><path d="M42.4011 34.0054L40.8056 34.9266C40.701 34.9869 40.6162 34.9229 40.6162 34.7834V33.0086C40.6162 32.8693 40.701 32.7073 40.8056 32.647L42.4011 31.7258C42.5057 31.6655 42.5904 31.7295 42.5904 31.869V33.6438C42.5904 33.7831 42.5057 33.9451 42.4011 34.0054Z" fill="#6FC08E"></path><path opacity="0.3" d="M33.3347 39.3179L31.7392 40.2391C31.6346 40.2994 31.5498 40.2354 31.5498 40.0959V38.3211C31.5498 38.1816 31.6346 38.0198 31.7392 37.9595L33.3347 37.0383C33.4392 36.978 33.524 37.042 33.524 37.1815V38.9563C33.524 39.0956 33.4392 39.2574 33.3347 39.3179Z" fill="black"></path><path opacity="0.3" d="M36.3562 37.5445L34.7606 38.4656C34.6561 38.526 34.5713 38.4619 34.5713 38.3225V36.5477C34.5713 36.4084 34.6561 36.2464 34.7606 36.186L36.3562 35.2649C36.4607 35.2046 36.5455 35.2686 36.5455 35.4081V37.1829C36.5455 37.3223 36.4607 37.4841 36.3562 37.5445Z" fill="black"></path><path opacity="0.3" d="M39.3786 35.7789L37.7831 36.7C37.6785 36.7603 37.5938 36.6963 37.5938 36.5568V34.782C37.5938 34.6428 37.6785 34.4808 37.7831 34.4204L39.3786 33.4993C39.4832 33.4389 39.568 33.503 39.568 33.6424V35.4172C39.568 35.5565 39.4832 35.7185 39.3786 35.7789Z" fill="black"></path><path opacity="0.3" d="M42.4011 34.0054L40.8056 34.9266C40.701 34.9869 40.6162 34.9229 40.6162 34.7834V33.0086C40.6162 32.8693 40.701 32.7073 40.8056 32.647L42.4011 31.7258C42.5057 31.6655 42.5904 31.7295 42.5904 31.869V33.6438C42.5904 33.7831 42.5057 33.9451 42.4011 34.0054Z" fill="black"></path><path d="M15.0235 38.1099L7.21545 42.6179C6.70385 42.9132 6.28906 42.5996 6.28906 41.9175V33.2328C6.28906 32.5506 6.70385 31.7581 7.21545 31.4628L15.0235 26.9549C15.5351 26.6596 15.9499 26.9731 15.9499 27.6552V36.3402C15.9499 37.0221 15.5351 37.8146 15.0235 38.1099Z" fill="#455A64"></path><path d="M12.6356 32.1113L8.54395 34.4737L9.60478 32.7529L13.6964 30.3906L12.6356 32.1113Z" fill="#9DD4B2"></path><path opacity="0.2" d="M12.6356 32.1113L8.54395 34.4737L9.60478 32.7529L13.6964 30.3906L12.6356 32.1113Z" fill="white"></path><path d="M12.6356 36.834L8.54395 39.1963V34.4718L12.6356 32.1094V36.834Z" fill="#9DD4B2"></path><path d="M12.6357 32.1113L13.6966 30.3906V35.1153L12.6357 36.8359V32.1113Z" fill="#9DD4B2"></path><path opacity="0.2" d="M12.6357 32.1113L13.6966 30.3906V35.1153L12.6357 36.8359V32.1113Z" fill="black"></path><path d="M28.2637 30.4617L20.4557 34.9696C19.9441 35.2649 19.5293 34.9514 19.5293 34.2693V25.5843C19.5293 24.9022 19.9441 24.1097 20.4557 23.8144L28.2637 19.3064C28.7753 19.0111 29.1901 19.3247 29.1901 20.0068V28.6917C29.1901 29.3739 28.7755 30.1664 28.2637 30.4617Z" fill="#455A64"></path><path d="M25.8758 24.4628L21.7842 26.8253L22.845 25.1046L26.9366 22.7422L25.8758 24.4628Z" fill="#9DD4B2"></path><path d="M25.8758 29.1856L21.7842 31.5478V26.8234L25.8758 24.4609V29.1856Z" fill="#9DD4B2"></path><path d="M25.876 24.4628L26.9368 22.7422V27.4669L25.876 29.1875V24.4628Z" fill="#9DD4B2"></path><path opacity="0.2" d="M25.876 24.4628L26.9368 22.7422V27.4669L25.876 29.1875V24.4628Z" fill="black"></path><path opacity="0.2" d="M21.7842 26.8222L22.845 25.1016V29.826L21.7842 31.5467V26.8222Z" fill="black"></path><path opacity="0.3" d="M25.8758 29.1894L21.7842 31.5516L22.845 29.831L26.9366 27.4688L25.8758 29.1894Z" fill="black"></path><path opacity="0.2" d="M25.8758 24.4628L21.7842 26.8253L22.845 25.1046L26.9366 22.7422L25.8758 24.4628Z" fill="white"></path><path d="M41.5059 22.821L33.6979 27.329C33.1863 27.6243 32.7715 27.3108 32.7715 26.6286V17.9437C32.7715 17.2616 33.1863 16.469 33.6979 16.1738L41.5059 11.6658C42.0175 11.3705 42.4323 11.684 42.4323 12.3662V21.0511C42.4323 21.7332 42.0175 22.5256 41.5059 22.821Z" fill="#455A64"></path><path d="M35.0251 19.2504C35.0041 19.2504 34.9832 19.2421 34.9679 19.2261C34.9424 19.2 34.938 19.1598 34.9572 19.1288L36.0178 17.4081C36.0248 17.3968 36.0343 17.3875 36.046 17.3807L40.1376 15.0185C40.1692 15.0003 40.2094 15.0057 40.2348 15.0321C40.2602 15.0583 40.2647 15.0984 40.2455 15.1295L39.1846 16.8501C39.1776 16.8614 39.1681 16.8707 39.1565 16.8775L35.0649 19.2397C35.0526 19.2469 35.0389 19.2504 35.0251 19.2504ZM36.1432 17.509L35.2589 18.9433L39.0591 16.7491L39.9434 15.3148L36.1432 17.509Z" fill="#9DD4B2"></path><path d="M35.0252 23.9729C35.0115 23.9729 34.9977 23.9692 34.9853 23.9622C34.9606 23.9481 34.9453 23.9217 34.9453 23.8932V19.1685C34.9453 19.14 34.9606 19.1136 34.9853 19.0994L39.0769 16.7372C39.1017 16.723 39.132 16.723 39.1568 16.7372C39.1815 16.7513 39.1968 16.7777 39.1968 16.8063V21.5309C39.1968 21.5594 39.1815 21.5858 39.1568 21.6L35.0652 23.9622C35.0528 23.9692 35.0392 23.9729 35.0252 23.9729ZM35.1052 19.2145V23.7546L39.0371 21.4846V16.9444L35.1052 19.2145Z" fill="#9DD4B2"></path><path d="M36.0858 22.2541C36.072 22.2541 36.0582 22.2505 36.0458 22.2435C36.0212 22.2293 36.0059 22.2029 36.0059 22.1744V17.4497C36.0059 17.4212 36.0212 17.3948 36.0458 17.3807L40.1374 15.0184C40.1623 15.0043 40.1925 15.0043 40.2174 15.0184C40.242 15.0326 40.2573 15.059 40.2573 15.0875V19.8122C40.2573 19.8407 40.242 19.8671 40.2174 19.8812L36.1258 22.2435C36.1133 22.2505 36.0996 22.2541 36.0858 22.2541ZM36.1655 17.4957V22.0359L40.0975 19.7658V15.2256L36.1655 17.4957Z" fill="#9DD4B2"></path><path d="M39.1168 21.6131C39.1097 21.6131 39.1023 21.6122 39.0951 21.61C39.0608 21.6003 39.0371 21.5689 39.0371 21.5332V16.8085C39.0371 16.7938 39.0412 16.7793 39.0489 16.7666L40.1098 15.046C40.1286 15.0155 40.1649 15.0008 40.1996 15.0111C40.2339 15.0208 40.2576 15.0522 40.2576 15.0879V19.8126C40.2576 19.8273 40.2535 19.8419 40.2458 19.8545L39.1849 21.5751C39.17 21.5992 39.144 21.6131 39.1168 21.6131ZM39.1968 16.8312V21.2515L40.0979 19.7899V15.3696L39.1968 16.8312Z" fill="#9DD4B2"></path><path d="M35.0251 23.9819C35.0107 23.9819 34.9964 23.978 34.9834 23.9701C34.9457 23.9468 34.9341 23.8977 34.9572 23.8603L36.0178 22.1396C36.0411 22.102 36.0902 22.0903 36.1276 22.1134C36.1651 22.1365 36.1769 22.1858 36.1538 22.2232L35.0932 23.9439C35.078 23.9683 35.0518 23.9819 35.0251 23.9819Z" fill="#9DD4B2"></path><path d="M15.0235 43.1595L7.21545 47.6675C6.70385 47.9628 6.28906 47.6493 6.28906 46.9671C6.28906 46.285 6.70385 45.4925 7.21545 45.1972L15.0235 40.6892C15.5351 40.394 15.9499 40.7075 15.9499 41.3896C15.9499 42.0717 15.5351 42.8641 15.0235 43.1595Z" fill="#35B777"></path><path d="M15.0235 46.7611L7.21545 51.2691C6.70385 51.5643 6.28906 51.2508 6.28906 50.5687C6.28906 49.8866 6.70385 49.094 7.21545 48.7988L15.0235 44.2908C15.5351 43.9955 15.9499 44.309 15.9499 44.9912C15.9499 45.6733 15.5351 46.4658 15.0235 46.7611Z" fill="#35B777"></path><path d="M15.0235 50.3627L7.21545 54.8706C6.70385 55.1659 6.28906 54.8524 6.28906 54.1703C6.28906 53.4881 6.70385 52.6956 7.21545 52.4003L15.0235 47.8924C15.5351 47.5971 15.9499 47.9106 15.9499 48.5927C15.9499 49.2747 15.5351 50.0672 15.0235 50.3627Z" fill="#35B777"></path></svg>