<svg xmlns="http://www.w3.org/2000/svg" width="42" height="63" viewBox="0 0 42 63" fill="none"><path d="M33.6582 1.43652C34.5064 1.41717 35.3317 1.6862 36.1406 2.26562L36.416 2.45703C37.0643 2.89733 37.7577 3.2931 38.4561 3.64258L38.7471 3.7959C39.402 4.1696 39.8825 4.65433 40.2021 5.24512C40.5629 5.912 40.6963 6.67206 40.6963 7.47656C40.6963 8.66277 40.7016 9.84919 40.707 11.0371C40.7124 12.2247 40.7178 13.4142 40.7178 14.6035V23.0273C40.7178 27.9619 40.8262 32.9371 40.8047 37.8682V37.8691C40.7826 41.3651 39.2856 44.1023 36.3613 45.9141L36.0742 46.0859C27.5385 51.0345 18.9909 55.9334 10.459 60.9014L10.46 60.9023C9.65982 61.371 8.84171 61.6884 7.98828 61.7139C7.12129 61.7397 6.27754 61.4623 5.43652 60.8496V60.8486C5.08509 60.5966 4.55389 60.2614 4.0625 59.96L2.92285 59.2764C2.87725 59.2496 2.83136 59.2205 2.78613 59.1875L2.65137 59.0762C2.48191 58.9184 2.08972 58.536 1.73047 58.0576C1.38906 57.603 1.0014 56.9627 0.972656 56.2988L0.97168 56.2998C0.950203 55.9132 0.92783 55.4888 0.927734 55.083L0.868164 40.1465C0.851963 35.1675 0.84082 30.1883 0.84082 25.209C0.84082 21.7103 2.38948 18.9072 5.44238 17.1396C11.8691 13.384 18.3446 9.6696 24.793 5.94531L31.2305 2.21484C32.0148 1.75385 32.8216 1.45571 33.6582 1.43652Z" fill="#35B777" stroke="black" stroke-width="1.12804"></path><path d="M40.6816 10.0859C40.6816 11.2294 40.6872 12.6233 40.6924 13.9971C40.6976 15.3694 40.7031 16.7218 40.7031 17.7812L40.7295 22.8252C40.7636 27.8928 40.8121 33.0124 40.7959 38.0186C40.7952 41.2315 38.6885 44.3283 36.377 45.7803L36.1523 45.916C31.8978 48.378 27.5026 50.9256 23.1074 53.4736C18.712 56.0217 14.3158 58.5708 10.0605 61.0332L10.0469 61.041H10.0459L10.0449 61.042C10.0439 61.0425 10.0425 61.0432 10.041 61.0439C10.038 61.0456 10.0334 61.0481 10.0283 61.0508C10.0182 61.0561 10.0039 61.0633 9.98633 61.0723C9.95084 61.0903 9.9005 61.115 9.83789 61.1445C9.71266 61.2035 9.53609 61.2822 9.32715 61.3604C8.97115 61.4935 8.48537 61.6403 7.9873 61.6729L7.77344 61.6787C7.2215 61.6757 6.7311 61.4899 6.39746 61.3281C6.22715 61.2455 6.08776 61.1645 5.99512 61.1094C5.96571 61.0919 5.94573 61.0793 5.93066 61.0703C5.87414 61.0484 5.82609 61.0206 5.78906 60.9922C5.66889 60.9 5.62149 60.7856 5.61133 60.7617C5.58125 60.6911 5.57081 60.6262 5.56836 60.6113C5.56026 60.5621 5.5561 60.5089 5.55371 60.4688C5.54845 60.3802 5.54548 60.2603 5.54395 60.127C5.54083 59.8568 5.54282 59.4962 5.54688 59.1387C5.55095 58.78 5.55742 58.4201 5.5625 58.1504C5.56504 58.0156 5.56768 57.9031 5.56934 57.8242C5.57016 57.7848 5.57083 57.7536 5.57129 57.7324C5.57144 57.7255 5.57118 57.7196 5.57129 57.7148L5.50391 44.6592L5.41992 31.6035V28.9111L5.70312 28.748C10.9461 25.732 16.3546 22.7526 21.7578 19.7764C26.4871 17.1714 31.2125 14.5688 35.8252 11.9424L37.7949 10.8154C37.9567 10.7164 38.4554 10.4186 38.9141 10.1455C39.1516 10.0041 39.3804 9.86828 39.5498 9.76758C39.6346 9.7172 39.7052 9.67543 39.7539 9.64648C39.7782 9.63203 39.7976 9.62 39.8105 9.6123C39.8168 9.60861 39.8219 9.60545 39.8252 9.60352C39.8267 9.60265 39.8283 9.60202 39.8291 9.60156H39.8301V9.60059L40.6816 9.09473V10.0859ZM6.14551 61.1064C6.14993 61.1064 6.15461 61.1076 6.15918 61.1074C6.16261 61.1073 6.16614 61.1057 6.16992 61.1055C6.16185 61.106 6.15379 61.1063 6.14551 61.1064Z" fill="white" stroke="black" stroke-width="1.12804"></path><path d="M36.1875 3.8584C37.3027 3.32114 38.414 3.6091 39.2207 4.24805C40.0154 4.87754 40.5682 5.88066 40.6221 6.90332L40.6309 7.22754C40.6343 7.5572 40.6221 7.91064 40.6221 8.35059V10.1846L40.3379 10.3477C30.0631 16.222 16.5021 23.5895 6.2666 29.4971L5.4209 29.9844V28.4033L5.40723 27.7002C5.39903 26.0722 5.57615 24.5418 6.1123 23.1777C6.73192 21.6014 7.81808 20.2788 9.57031 19.2871L12.6914 17.5049C19.9477 13.3411 27.0338 9.15279 34.3164 4.93457C34.436 4.86289 34.825 4.63058 35.2168 4.40137C35.587 4.18478 36.0083 3.94315 36.1729 3.86523V3.86426C36.1756 3.86294 36.1789 3.86166 36.1816 3.86035C36.1836 3.85945 36.1856 3.85827 36.1875 3.85742V3.8584ZM9.48438 24.1143C9.41677 24.1546 9.33254 24.2249 9.24512 24.3398C9.092 24.5414 9.02471 24.7618 9.03125 24.9023C9.10021 24.8514 9.17952 24.777 9.25293 24.6797C9.41336 24.4669 9.48285 24.25 9.48438 24.1143ZM12.4795 22.3672C12.386 22.4127 12.315 22.4748 12.2568 22.5547C12.1629 22.6839 12.0875 22.8754 12.04 23.1387C12.0402 23.141 12.0408 23.1432 12.041 23.1455C12.1375 23.1034 12.2065 23.0448 12.2617 22.9688C12.3587 22.8351 12.4312 22.6347 12.4795 22.3672ZM15.5068 20.6338C15.3773 20.7062 15.2869 20.795 15.2227 20.8945C15.1432 21.0176 15.0888 21.1822 15.0684 21.3945C15.1333 21.3374 15.2064 21.2631 15.2734 21.1699C15.4327 20.9484 15.4961 20.7445 15.5068 20.6338Z" fill="#9DD4B2" stroke="black" stroke-width="1.12804"></path><path d="M1.55469 27.5225L5.88379 28.5908L6.3291 28.7012L6.3125 29.1592C6.29128 29.7322 6.35337 32.5122 6.35352 33.3125L6.45703 51.9883V51.9961C6.43546 54.3905 6.45703 57.8562 6.45703 60.3896V61.3564L5.61426 60.8799C4.45269 60.2221 3.26043 59.6492 2.40625 58.8457C1.49582 57.9892 0.954622 56.8749 0.954102 55.1641L0.855469 30.0908V27.3506L1.55469 27.5225Z" stroke="black" stroke-width="1.12804"></path><path d="M37.3457 8.27291C37.3241 8.59689 37.0649 8.70489 36.8489 8.83448C32.0971 11.5776 27.3669 14.3206 22.6151 17.0421C22.3991 17.1717 22.1184 17.4741 21.8808 17.1285C21.6 16.7181 21.9888 16.5669 22.2479 16.4157C26.9997 13.6727 31.7299 10.9296 36.4817 8.18651C36.8057 8.01372 37.1297 7.79773 37.3457 8.27291Z" fill="#191814"></path><path d="M38.3679 22.8709C38.8894 22.6259 39.1502 23.5843 38.6561 23.8807C33.9043 26.6238 29.0732 29.6503 24.3214 32.3718C24.1055 32.5014 23.8226 32.5835 23.585 32.2379C23.3043 31.8276 23.7627 31.3081 24.0219 31.1569C28.7737 28.4138 33.5039 25.6707 38.2557 22.9276C38.2938 22.9073 38.3312 22.8881 38.3679 22.8709Z" fill="#191814"></path><path d="M38.1756 26.074C38.697 25.8291 38.9578 26.7874 38.4637 27.0838C33.712 29.8269 28.8808 32.8535 24.1291 35.5749C23.9131 35.7045 23.6303 35.7866 23.3927 35.4411C23.1119 35.0307 23.5703 34.5112 23.8295 34.36C28.5813 31.6169 33.3115 28.8738 38.0633 26.1308C38.1014 26.1104 38.1389 26.0912 38.1756 26.074Z" fill="#191814"></path><path d="M38.1756 29.2068C38.697 28.9619 38.9578 29.9202 38.4637 30.2166C33.712 32.9597 28.8808 35.9863 24.1291 38.7077C23.9131 38.8373 23.6303 38.9195 23.3927 38.5739C23.1119 38.1635 23.5703 37.644 23.8295 37.4928C28.5813 34.7497 33.3115 32.0067 38.0633 29.2636C38.1014 29.2432 38.1389 29.2241 38.1756 29.2068Z" fill="#191814"></path><path d="M15.4878 20.0252C15.855 20.0036 16.0278 20.1764 16.071 20.522C16.1358 21.1052 15.4878 22.034 14.9694 22.0555C14.5591 22.0771 14.4727 21.7748 14.4943 21.494C14.5159 20.8028 14.7966 20.2628 15.4878 20.0252Z" fill="#191814"></path><path d="M11.4697 23.1123C11.5777 22.4211 11.8801 21.8811 12.5497 21.7731C12.9601 21.7083 13.0897 22.0755 13.0465 22.4211C12.9385 23.0907 12.6793 23.6954 11.9017 23.7818C11.4265 23.825 11.5129 23.3714 11.4697 23.1123Z" fill="#191814"></path><path d="M9.59123 23.5C9.87202 23.5 10.0232 23.6944 10.0448 24.04C10.088 24.6663 9.44004 25.5519 8.92166 25.5519C8.51128 25.5519 8.48968 25.2711 8.46808 24.9687C8.42488 24.3208 9.00806 23.5216 9.59123 23.5Z" fill="#191814"></path><path d="M8.46582 42.8052C8.46582 41.7634 8.46582 40.739 8.48318 39.7146C8.48318 39.5236 8.57 39.2805 8.67418 39.1416C10.5668 36.7628 12.4594 34.384 14.3694 32.04C14.4735 31.9011 14.734 31.7969 14.9076 31.7969C16.8002 31.9358 18.6755 32.1094 20.5681 32.2657C20.8632 32.283 20.9848 32.4393 20.9848 32.7171C20.9848 34.8355 20.9848 36.9538 20.9848 39.0721C20.9848 39.2284 20.898 39.4194 20.8111 39.5409C18.9012 41.9371 16.9912 44.3158 15.0812 46.6946C14.9771 46.8335 14.7513 46.9377 14.5777 46.9377C12.6504 46.7814 10.7231 46.5904 8.81309 46.4342C8.51791 46.3994 8.46582 46.2258 8.46582 46.0001C8.46582 44.9236 8.46582 43.8644 8.46582 42.8052ZM9.26453 39.2457C9.40344 39.2805 9.47289 39.2978 9.54235 39.2978C11.1571 39.4367 12.7719 39.5756 14.3694 39.6972C14.5256 39.7146 14.734 39.5756 14.8555 39.4367C16.5571 37.3358 18.2414 35.2348 19.9256 33.1339C20.0124 33.0297 20.0819 32.9255 20.2034 32.7692C19.9951 32.7345 19.8735 32.7171 19.7346 32.6998C18.2066 32.5609 16.6787 32.4393 15.1681 32.3004C14.9076 32.283 14.7513 32.3525 14.5951 32.5435C12.8935 34.6792 11.1919 36.7975 9.49026 38.9158C9.4208 39.0027 9.36871 39.1068 9.26453 39.2457ZM14.4735 46.4168C14.4735 46.2432 14.4909 46.139 14.4909 46.0348C14.4909 44.229 14.4909 42.4232 14.4909 40.6174C14.4909 40.3049 14.3867 40.2007 14.0915 40.1834C12.5636 40.0618 11.053 39.9229 9.52498 39.8014C9.35135 39.784 9.17772 39.784 9.00408 39.7666C8.98672 39.8708 8.95199 39.9403 8.95199 40.0097C8.95199 41.885 8.95199 43.7602 8.95199 45.6528C8.95199 45.9133 9.0909 45.9654 9.29926 45.9827C10.3063 46.0695 11.296 46.1563 12.2858 46.2432C13.015 46.2953 13.7269 46.3473 14.4735 46.4168ZM20.4639 33.4464V33.3286C20.4639 33.3286 20.2555 33.5332 20.2034 33.6027C18.5192 35.7036 16.8523 37.7872 15.1681 39.8882C15.0639 40.0271 14.9944 40.2528 14.9944 40.4438C14.9771 42.1281 14.9944 43.8123 14.9944 45.4792C14.9944 45.6007 15.0118 45.7049 15.0292 45.9133C15.1681 45.7744 15.2375 45.6875 15.307 45.6181C16.9565 43.5692 18.606 41.503 20.2382 39.4367C20.3771 39.2631 20.4639 39.0027 20.4639 38.7943C20.4812 37.1448 20.4639 35.4779 20.4639 33.8284C20.4639 33.6895 20.4639 33.5679 20.4639 33.4464Z" fill="#9DD4B2" stroke="black" stroke-width="1.12804"></path><path d="M9.26367 39.248C9.36785 39.1091 9.41994 39.0222 9.4894 38.9354C11.191 36.8171 12.8926 34.6988 14.5942 32.5631C14.7505 32.3721 14.9068 32.2853 15.1672 32.32C16.6952 32.4589 18.2058 32.5978 19.7338 32.7193C19.8727 32.7367 19.9942 32.7541 20.2026 32.7888C20.081 32.9451 20.0116 33.0493 19.9248 33.1534C18.2405 35.237 16.5563 37.338 14.8547 39.439C14.7505 39.5779 14.5248 39.6994 14.3685 39.6994C12.7537 39.5779 11.1389 39.439 9.54149 39.3001C9.47203 39.3001 9.40258 39.2653 9.26367 39.248Z" fill="#9DD4B2" stroke="black" stroke-width="1.12804"></path><path d="M14.4739 46.4158C13.7273 46.3463 13.0154 46.2942 12.3035 46.2421C11.3138 46.1553 10.3067 46.0685 9.31699 45.9817C9.10863 45.9643 8.96973 45.9122 8.96973 45.6518C8.96973 43.7766 8.96973 41.9013 8.96973 40.0087C8.96973 39.9393 8.98709 39.8698 9.02182 39.7656C9.21281 39.783 9.36908 39.783 9.54272 39.8004C11.0707 39.9219 12.5813 40.0608 14.1093 40.1823C14.4044 40.1997 14.5086 40.3039 14.5086 40.6164C14.4913 42.4222 14.5086 44.228 14.5086 46.0338C14.4913 46.138 14.4913 46.2421 14.4739 46.4158Z" fill="#9DD4B2" stroke="black" stroke-width="1.12804"></path><path d="M20.4646 33.4443C20.4646 33.5659 20.4646 33.6874 20.4646 33.8089C20.4646 35.4585 20.4819 37.1253 20.4646 38.7749C20.4646 38.9832 20.3778 39.2437 20.2388 39.4173C18.6067 41.4835 16.9572 43.5324 15.3077 45.5986C15.2382 45.6855 15.1688 45.7549 15.0298 45.8938C15.0125 45.7028 14.9951 45.5813 14.9951 45.4597C14.9951 43.7755 14.9951 42.0913 14.9951 40.4244C14.9951 40.2334 15.0472 40.025 15.1688 39.8687C16.8356 37.7678 18.5199 35.6668 20.2041 33.5832C20.2562 33.5138 20.4646 33.2812 20.4646 33.2812V33.4443Z" fill="#9DD4B2" stroke="black" stroke-width="1.12804"></path></svg>