<svg xmlns="http://www.w3.org/2000/svg" width="55" height="64" viewBox="0 0 55 64" fill="none"><path d="M32.3174 22.4561C32.308 23.3999 32.2954 24.2626 32.3467 25.1279L32.3457 25.1289C32.3548 25.3741 32.3154 25.5188 32.2637 25.6074C32.2178 25.686 32.1344 25.7695 31.9443 25.8379H31.9453C31.4834 25.9981 31.1627 26.2737 30.9766 26.6543C30.8029 27.0095 30.7705 27.4094 30.7705 27.7725V27.7822C30.8148 30.1052 30.793 32.425 30.793 34.7607C30.793 35.0981 30.7918 35.3919 30.8145 35.6123C30.826 35.7241 30.8461 35.8471 30.8887 35.9629C30.9328 36.0827 31.0118 36.2233 31.1572 36.3271C31.4451 36.5328 31.7809 36.4518 31.9541 36.4023C32.0629 36.3712 32.1869 36.3256 32.3232 36.2725V39.2197C32.3232 39.3454 32.3083 39.4013 32.2959 39.4287C32.2893 39.4431 32.2743 39.4735 32.1992 39.5166C31.3148 40.0041 30.4314 40.5269 29.5576 41.0342C29.5577 40.7794 29.5589 40.3747 29.2793 39.9902L29.0146 39.627L28.625 39.8516C26.3126 41.1856 24.0379 42.5328 21.7363 43.8164L21.4414 43.9834C21.1448 44.1608 20.8521 44.3737 20.6348 44.6543C20.3189 45.0622 20.1973 45.564 20.3076 46.1846V46.1865C20.3158 46.2313 20.3195 46.2684 20.3203 46.2988C20.3209 46.3206 20.3197 46.3357 20.3184 46.3447L20.3086 46.3506L18.5908 47.3398C18.2446 47.541 17.8927 47.7455 17.5322 47.9551C17.5373 46.9424 17.5458 46.0413 17.5283 45.1338V45.127L17.5273 45.1191C17.5189 44.9413 17.548 44.839 17.5781 44.7852C17.6002 44.7457 17.6394 44.7009 17.749 44.668L17.7627 44.6641C18.3449 44.47 18.7232 44.1293 18.9199 43.6621C19.1005 43.233 19.1026 42.7497 19.0801 42.3213V42.3184L19.0449 41.498C19.0225 40.6802 19.0317 39.8637 19.0146 39.0107V33.5342L18.3291 33.8086C18.0068 33.9375 17.7339 34.0479 17.4766 34.1514C17.4765 34.1396 17.4754 34.1276 17.4756 34.1152C17.4762 34.0626 17.4781 34.0086 17.4805 33.9482C17.4827 33.8901 17.4854 33.8245 17.4863 33.7588C17.4883 33.6277 17.4845 33.4715 17.4521 33.3096L17.4512 33.3066L17.3926 32.9668C17.2872 32.201 17.4008 31.6184 17.6748 31.1553C17.9931 30.6174 18.5729 30.1645 19.4824 29.7881V29.7871C19.8469 29.6377 20.0625 29.5386 20.2441 29.4717C20.2494 29.4697 20.2548 29.4686 20.2598 29.4668C20.3029 29.6091 20.3509 29.818 20.4219 30.1426L20.5273 30.6221L21.0088 30.5254C21.011 30.5251 21.0176 30.5245 21.0312 30.5234C21.0418 30.5226 21.0908 30.5203 21.126 30.5166C21.2017 30.5086 21.3333 30.485 21.4688 30.4004L21.4697 30.4033C23.9174 29.0015 26.3262 27.5869 28.7656 26.2119L28.7715 26.208C29.1414 25.9923 29.3549 25.7087 29.4541 25.375C29.5407 25.0837 29.5303 24.7693 29.5303 24.5557C29.5303 24.4976 29.5279 24.4412 29.5264 24.3916C29.5248 24.3396 29.5239 24.2956 29.5234 24.2529C29.5225 24.1673 29.526 24.1117 29.5342 24.0703C29.5414 24.0335 29.5514 24.015 29.5605 24.002C29.5694 23.9894 29.5914 23.9633 29.6484 23.9297C30.5229 23.5002 31.368 23.0117 32.3174 22.4561ZM4.39355 30.1689C4.39355 40.5513 4.39328 50.9553 4.37109 61.3369V61.3604C4.37754 61.5022 4.39625 61.6478 4.4082 61.7588C4.42122 61.8797 4.4287 61.9733 4.42676 62.0557C4.42334 62.2002 4.39272 62.2717 4.31543 62.3408L3.92188 62.6934L4.2959 63.0674C4.43717 63.2086 4.60172 63.3154 4.79199 63.3662C4.98447 63.4175 5.16231 63.4004 5.31152 63.3574C5.45348 63.3165 5.57599 63.251 5.66602 63.1982C5.71181 63.1714 5.75706 63.143 5.79395 63.1201C5.83322 63.0958 5.86534 63.0758 5.89551 63.0586L5.89746 63.0576C8.85988 61.349 11.8166 59.6293 14.7725 57.9102C17.7287 56.1908 20.6838 54.4713 23.6445 52.7637H23.6455C29.1231 49.5924 34.6006 46.4657 40.1025 43.3154C40.2147 43.2559 40.337 43.2052 40.4805 43.1504C40.6198 43.0972 40.7953 43.0347 40.9629 42.9629L41.2002 42.8613L41.2549 42.6084C41.9617 39.3171 42.8197 36.0855 44.0479 32.9932L44.1982 32.6133L43.8564 32.3896L43.7959 32.3428C43.7472 32.2945 43.7309 32.2398 43.7236 32.1533C43.7175 32.0807 43.7211 31.9961 43.7295 31.8818C43.737 31.7802 43.75 31.635 43.75 31.5V31.498L43.7305 19.8164C43.7277 15.9205 43.7285 12.0217 43.7285 8.11719V7.25098L42.9785 7.68457L19.2197 21.3936H19.2188C16.8675 22.7466 14.5165 24.0946 12.165 25.4395L5.11133 29.4678V29.4688H5.11035L5.10938 29.4697H5.1084L5.10742 29.4707H5.10645L5.10547 29.4717H5.10449L5.10352 29.4727H5.10254L5.10156 29.4736H5.10059L5.09961 29.4746H5.09863V29.4756L5.09766 29.4766H5.09668L5.0957 29.4775H5.09473L5.09375 29.4785H5.09277L5.0918 29.4795H5.09082L5.08984 29.4805H5.08887L5.08789 29.4814H5.08691L5.08398 29.4844H5.08301L5.08203 29.4854H5.08105L5.08008 29.4863H5.0791L5.07812 29.4873H5.07715L5.07617 29.4883H5.0752L5.07422 29.4893H5.07324L5.07129 29.4912H5.07031L5.06836 29.4932H5.06738L5.06641 29.4941H5.06543L5.06445 29.4951H5.06348L5.0625 29.4961H5.06152L5.06055 29.4971H5.05957V29.498H5.05859L5.05762 29.499H5.05664L5.05469 29.501H5.05371L5.05273 29.502H5.05176L5.05078 29.5029H5.0498L5.04883 29.5039H5.04785L5.04688 29.5049H5.0459V29.5059H5.04492L5.04395 29.5068H5.04297L5.04102 29.5088H5.04004L5.03906 29.5098H5.03809L5.03711 29.5107H5.03613L5.03516 29.5117H5.03418L5.0332 29.5127H5.03223V29.5137H5.03125L5.03027 29.5146H5.0293L5.02734 29.5166H5.02637L5.02539 29.5176H5.02441L5.02344 29.5186H5.02246L5.02148 29.5195H5.02051L5.01855 29.5215H5.01758L5.0166 29.5225H5.01562L5.01367 29.5244H5.0127L5.01172 29.5254H5.01074L5.00977 29.5264H5.00879L5.00781 29.5273H5.00684L5.00488 29.5293H5.00391L5.00293 29.5303H5.00195L5.00098 29.5312H5L4.99805 29.5332H4.99707L4.99609 29.5342H4.99512L4.99414 29.5352H4.99316L4.99121 29.5371H4.99023L4.98926 29.5381H4.98828L4.9873 29.5391H4.98633L4.98438 29.541H4.9834L4.98242 29.542H4.98145L4.98047 29.543H4.97949V29.5439H4.97852L4.97754 29.5449H4.97656L4.97559 29.5459H4.97461L4.97363 29.5469H4.97266L4.9707 29.5488H4.96973L4.96875 29.5498H4.96777L4.9668 29.5508H4.96582V29.5518H4.96484L4.96387 29.5527H4.96289L4.96191 29.5537H4.96094L4.95996 29.5547H4.95898L4.95703 29.5566H4.95605L4.95508 29.5576H4.9541L4.95312 29.5586H4.95215V29.5596H4.95117L4.9502 29.5605H4.94922L4.94824 29.5615H4.94727L4.94629 29.5625H4.94531L4.94336 29.5645H4.94238L4.94141 29.5654H4.94043L4.93848 29.5674H4.9375L4.93652 29.5684H4.93555L4.93457 29.5693H4.93359L4.93262 29.5703H4.93164L4.93066 29.5713H4.92969L4.92773 29.5732H4.92676L4.9248 29.5752H4.92383L4.92285 29.5762H4.92188L4.9209 29.5771H4.91992L4.91895 29.5781H4.91797L4.91699 29.5791H4.91602L4.91406 29.5811H4.91309L4.91113 29.583H4.91016L4.90918 29.584H4.9082L4.90723 29.585H4.90625L4.90527 29.5859H4.9043L4.90332 29.5869H4.90234L4.90039 29.5889H4.89941V29.5898H4.89844L4.89746 29.5908H4.89648L4.89551 29.5918H4.89453L4.89355 29.5928H4.89258L4.8916 29.5938H4.89062L4.88965 29.5947H4.88867L4.88672 29.5967H4.88574V29.5977H4.88477L4.88379 29.5986H4.88281L4.88184 29.5996H4.88086L4.87988 29.6006H4.87891L4.87793 29.6016H4.87695L4.87598 29.6025H4.875L4.87305 29.6045H4.87207V29.6055H4.87109L4.87012 29.6064H4.86914L4.86816 29.6074H4.86719L4.86621 29.6084H4.86523L4.86426 29.6094H4.86328L4.8623 29.6104H4.86133L4.86035 29.6113H4.85938V29.6123L4.8584 29.6133H4.85742L4.85645 29.6143H4.85547L4.85449 29.6152H4.85352L4.85254 29.6162H4.85156L4.85059 29.6172H4.84961L4.84863 29.6182H4.84766L4.84668 29.6191H4.8457V29.6201L4.84473 29.6211H4.84375L4.84277 29.6221H4.8418L4.84082 29.623H4.83984L4.83887 29.624H4.83789L4.83691 29.625H4.83594L4.83496 29.626H4.83398L4.83301 29.627H4.83203V29.6279L4.83105 29.6289H4.83008L4.8291 29.6299H4.82812L4.82715 29.6309H4.82617L4.8252 29.6318H4.82422L4.82324 29.6328H4.82227L4.82129 29.6338H4.82031L4.81738 29.6367H4.81641L4.81543 29.6377H4.81445L4.81348 29.6387H4.8125L4.81152 29.6396H4.81055L4.80957 29.6406H4.80859L4.80762 29.6416H4.80664L4.80469 29.6436H4.80371L4.80176 29.6455H4.80078L4.7998 29.6465H4.79883L4.79785 29.6475H4.79688L4.7959 29.6484H4.79492L4.79395 29.6494H4.79297L4.79102 29.6514H4.79004L4.78809 29.6533H4.78711L4.78613 29.6543H4.78516L4.78418 29.6553H4.7832L4.78223 29.6562H4.78125L4.78027 29.6572H4.7793V29.6582H4.77832L4.77734 29.6592H4.77637L4.77441 29.6611H4.77344L4.77246 29.6621H4.77148L4.77051 29.6631H4.76953L4.76855 29.6641H4.76758L4.7666 29.665H4.76562V29.666H4.76465L4.76367 29.667H4.7627L4.76074 29.6689H4.75977L4.75879 29.6699H4.75781L4.75684 29.6709H4.75586L4.75488 29.6719H4.75391L4.75195 29.6738H4.75098L4.75 29.6748H4.74902L4.74707 29.6768H4.74609L4.74512 29.6777H4.74414L4.74316 29.6787H4.74219L4.74121 29.6797H4.74023L4.73828 29.6816H4.7373L4.73633 29.6826H4.73535L4.73438 29.6836H4.7334L4.73145 29.6855H4.73047L4.72949 29.6865H4.72852L4.72754 29.6875H4.72656L4.72461 29.6895H4.72363L4.72266 29.6904H4.72168L4.7207 29.6914H4.71973L4.71777 29.6934H4.7168L4.71582 29.6943H4.71484L4.71387 29.6953H4.71289V29.6963H4.71191L4.71094 29.6973H4.70996L4.70898 29.6982H4.70801L4.70703 29.6992H4.70605L4.7041 29.7012H4.70312L4.70215 29.7021H4.70117L4.7002 29.7031H4.69922V29.7041H4.69824L4.69727 29.7051H4.69629L4.69531 29.7061H4.69434L4.69336 29.707H4.69238L4.69043 29.709H4.68945L4.68848 29.71H4.6875L4.68652 29.7109H4.68555V29.7119H4.68457L4.68359 29.7129H4.68262L4.68164 29.7139H4.68066L4.67969 29.7148H4.67871L4.67676 29.7168H4.67578L4.6748 29.7178H4.67383L4.67188 29.7197H4.6709L4.66992 29.7207H4.66895L4.66797 29.7217H4.66699L4.66602 29.7227H4.66504L4.66406 29.7236H4.66309L4.66113 29.7256H4.66016L4.6582 29.7275H4.65723L4.65625 29.7285H4.65527L4.6543 29.7295H4.65332L4.65234 29.7305H4.65137L4.65039 29.7314H4.64941L4.64746 29.7334H4.64648L4.64551 29.7344L4.39355 29.8789V30.1689Z" fill="white" stroke="black"></path><path d="M38.7441 1.32227C37.7483 0.893888 36.8805 1.43113 36.2793 1.78027L29.5674 5.65234L22.8574 9.52246L22.8564 9.52344L20.627 10.8203C15.4347 13.855 10.3036 16.9351 5.0127 19.7646L4.69531 19.9395C3.13484 20.8267 2.00024 21.9011 1.31543 23.2197C0.584185 24.628 0.39454 26.2597 0.671875 28.1318L0.707031 28.3721L0.917969 28.4932C2.16001 29.2029 3.40449 29.9131 4.6709 30.624L4.91699 30.7627L5.16309 30.623C5.31828 30.5344 5.47372 30.4451 5.62891 30.3564L6.02441 30.1309L5.83691 29.7168C5.03584 27.943 5.69908 25.4713 7.43066 24.2471L7.60156 24.1328C9.47659 22.9416 11.4453 21.8928 13.4189 20.749V20.748C20.3615 16.7334 27.3287 12.7175 34.2734 8.65723L34.2773 8.65527C36.7606 7.17402 39.5041 5.78551 41.9775 4.11426L42.5215 3.74609L42.0215 3.31934L41.8359 3.16699C41.3984 2.81936 40.935 2.5348 40.4795 2.27734C39.9398 1.97231 39.4564 1.72756 38.96 1.42969L38.9521 1.42578L38.9453 1.42188L38.7441 1.32227Z" fill="#35B777" stroke="black"></path><path d="M41.4141 3.2832C38.9674 4.95837 36.3433 6.25408 33.7471 7.78906H33.7461C30.275 9.81851 26.8042 11.8377 23.3301 13.8506L12.8955 19.8779L12.8945 19.8789L11.4365 20.71C9.96877 21.5374 8.48054 22.3636 7.04102 23.2842H7.04199C4.77432 24.7235 3.86607 27.828 4.90234 30.123L5.12891 30.624L5.60645 30.3516C10.3093 27.6674 15.0129 24.9823 19.7168 22.2754H19.7178L43.4775 8.54297L43.7275 8.39844V8.11035C43.7275 7.35808 43.7059 6.67776 43.749 5.96582V5.96484C43.7863 5.3182 43.6779 4.71683 43.3467 4.22168C43.0117 3.72112 42.4907 3.39164 41.8271 3.21289L41.6045 3.15234L41.4141 3.2832ZM9.14844 24.4277C9.2383 24.4244 9.28397 24.4383 9.30273 24.4463C9.31877 24.4532 9.32795 24.4609 9.33691 24.4727C9.36297 24.5069 9.396 24.5879 9.40625 24.7373C9.40252 25.0656 9.23299 25.4741 8.96484 25.8076C8.83307 25.9715 8.69262 26.0975 8.56543 26.1768C8.43393 26.2587 8.3512 26.2705 8.31934 26.2686L8.30566 26.2676L8.20605 26.2549C8.18339 26.2492 8.16999 26.243 8.16309 26.2393C8.15211 26.2333 8.14419 26.2265 8.13477 26.2109C8.10605 26.1634 8.07902 26.0594 8.07812 25.8672C8.08676 25.6208 8.247 25.2439 8.51855 24.9062C8.64884 24.7443 8.78687 24.6145 8.91113 24.5293C9.04367 24.4385 9.11731 24.4277 9.12988 24.4277H9.14844ZM12.3154 22.6289C12.4042 22.6361 12.4443 22.6553 12.458 22.6631C12.4682 22.6689 12.474 22.6744 12.4814 22.6875C12.4917 22.7054 12.5064 22.7417 12.5176 22.8086C12.5283 22.873 12.5337 22.9521 12.5342 23.0488L12.5244 23.1504C12.4852 23.3984 12.3327 23.7198 12.0967 24.0068C11.9677 24.1637 11.8307 24.289 11.707 24.3711C11.576 24.458 11.4995 24.4707 11.4814 24.4707H11.4639C11.3644 24.4743 11.3204 24.4583 11.3086 24.4531C11.3016 24.45 11.3005 24.4495 11.2969 24.4443C11.2894 24.4338 11.2746 24.407 11.2598 24.3506C11.247 24.3022 11.2395 24.2449 11.2305 24.1748C11.2577 23.8014 11.4342 23.3913 11.6865 23.0742C11.8152 22.9126 11.9504 22.7911 12.0723 22.7158C12.1974 22.6385 12.279 22.6276 12.3145 22.6299L12.3154 22.6289ZM15.4355 20.833C15.527 20.8366 15.5687 20.8543 15.582 20.8613C15.5915 20.8663 15.5952 20.8701 15.6006 20.8789C15.6088 20.8925 15.6232 20.9244 15.6328 20.9854C15.6424 21.0459 15.645 21.1229 15.6406 21.2168L15.6279 21.3291C15.5829 21.6 15.4296 21.9322 15.2051 22.2197C15.0809 22.3787 14.9488 22.5051 14.8281 22.5889C14.7116 22.6698 14.6341 22.6907 14.5996 22.6943C14.5197 22.6933 14.4791 22.6803 14.4629 22.6729C14.4486 22.6662 14.4404 22.6591 14.4316 22.6475C14.4061 22.6135 14.3783 22.5407 14.3584 22.3994C14.3753 22.0393 14.5447 21.6275 14.7988 21.3008C14.927 21.136 15.0635 21.0098 15.1875 20.9297C15.3144 20.8477 15.3983 20.832 15.4355 20.833Z" fill="#9DD4B2" stroke="black"></path><path d="M45.291 29.7695C45.1044 30.2602 44.9156 30.7523 44.7256 31.2412L44.0498 32.9834L44.0488 32.9873C42.9739 35.7131 42.182 38.5286 41.5273 41.3799L41.2549 42.6045C40.2791 47.3385 39.4235 52.0756 39.0117 56.8799L38.9355 57.8428C38.8512 59.1287 38.7564 60.3473 38.9844 61.5381L39.0352 61.7764L39.0381 61.79C39.0576 61.8877 39.0716 62.0008 39.082 62.0684C39.0941 62.147 39.1062 62.1956 39.1172 62.2305C39.1422 62.2374 39.1437 62.2338 39.1338 62.2363C39.1273 62.2381 39.136 62.2376 39.1631 62.2139C39.1921 62.1884 39.2281 62.1479 39.2744 62.085L39.4229 61.8691L39.4287 61.8623L39.6406 61.5576C40.4029 60.4338 40.9882 59.2096 41.5254 57.9375L42.0986 56.5332C44.3372 50.7703 46.2214 44.9204 47.4473 38.8896L47.6846 37.6807V37.6787L47.8525 36.7354C48.19 34.68 48.3598 32.6041 48.6211 30.4922C48.0361 30.3524 47.4609 30.1556 46.9541 30.0137C46.3816 29.8534 45.842 29.7448 45.291 29.7695Z" fill="#35B777"></path><path d="M45.291 29.7695C45.1044 30.2602 44.9156 30.7523 44.7256 31.2412L44.0498 32.9834L44.0488 32.9873C42.9739 35.7131 42.182 38.5286 41.5273 41.3799L41.2549 42.6045C40.2791 47.3385 39.4235 52.0756 39.0117 56.8799L38.9355 57.8428C38.8512 59.1287 38.7564 60.3473 38.9844 61.5381L39.0352 61.7764L39.0381 61.79C39.0576 61.8877 39.0716 62.0008 39.082 62.0684C39.0941 62.147 39.1062 62.1956 39.1172 62.2305C39.1422 62.2374 39.1437 62.2338 39.1338 62.2363C39.1273 62.2381 39.136 62.2376 39.1631 62.2139C39.1921 62.1884 39.2281 62.1479 39.2744 62.085L39.4229 61.8691L39.4287 61.8623L39.6406 61.5576C40.4029 60.4338 40.9882 59.2096 41.5254 57.9375L42.0986 56.5332C44.3372 50.7703 46.2214 44.9204 47.4473 38.8896L47.6846 37.6807V37.6787L47.8525 36.7354C48.19 34.68 48.3598 32.6041 48.6211 30.4922C48.0361 30.3524 47.4609 30.1556 46.9541 30.0137C46.3816 29.8534 45.842 29.7448 45.291 29.7695Z" stroke="black"></path><path d="M45.291 29.7695C45.1044 30.2602 44.9156 30.7523 44.7256 31.2412L44.0498 32.9834L44.0488 32.9873C42.9739 35.7131 42.182 38.5286 41.5273 41.3799L41.2549 42.6045C40.2791 47.3385 39.4235 52.0756 39.0117 56.8799L38.9355 57.8428C38.8512 59.1287 38.7564 60.3473 38.9844 61.5381L39.0352 61.7764L39.0381 61.79C39.0576 61.8877 39.0716 62.0008 39.082 62.0684C39.0941 62.147 39.1062 62.1956 39.1172 62.2305C39.1422 62.2374 39.1437 62.2338 39.1338 62.2363C39.1273 62.2381 39.136 62.2376 39.1631 62.2139C39.1921 62.1884 39.2281 62.1479 39.2744 62.085L39.4229 61.8691L39.4287 61.8623L39.6406 61.5576C40.4029 60.4338 40.9882 59.2096 41.5254 57.9375L42.0986 56.5332C44.3372 50.7703 46.2214 44.9204 47.4473 38.8896L47.6846 37.6807V37.6787L47.8525 36.7354C48.19 34.68 48.3598 32.6041 48.6211 30.4922C48.0361 30.3524 47.4609 30.1556 46.9541 30.0137C46.3816 29.8534 45.842 29.7448 45.291 29.7695Z" stroke="black" stroke-opacity="0.2"></path><path d="M0.635742 59.9219C0.664059 60.2496 0.73992 60.5554 0.891602 60.833C1.09795 61.2107 1.41593 61.4846 1.82422 61.6953L1.8252 61.6943C2.70356 62.1556 3.52148 62.6524 4.4043 63.1504L4.72559 63.332L4.99316 63.0781C5.32685 62.762 5.41826 62.3923 5.42969 62.0723C5.43502 61.9221 5.42308 61.7769 5.41309 61.6611C5.40221 61.5351 5.39355 61.4455 5.39355 61.3613C5.39355 56.1702 5.39371 50.9737 5.39648 45.7773L5.41602 30.1934V29.9023L5.16406 29.7578L3.28711 28.6924C2.66039 28.3374 2.0351 27.9822 1.41504 27.6279L0.673828 27.2051L0.666992 28.0586C0.644812 30.7202 0.622072 33.362 0.62207 36.0264C0.62207 43.8816 0.644251 51.7326 0.62207 59.585V59.5869L0.635742 59.9219Z" fill="#35B777" stroke="black"></path><path d="M51.7607 12.209C51.7627 12.2249 51.7646 12.2383 51.7344 12.3242C51.7103 12.3927 51.6309 12.5869 51.6484 12.8203L51.6475 12.8213C51.769 14.8478 50.9118 16.4066 49.334 17.6318L48.3896 18.3613C47.522 19.0432 46.6643 19.7754 45.9473 20.6748L45.7549 20.9238L45.7012 20.9971L45.6758 21.085C45.6386 21.2149 45.5792 21.3958 45.5508 21.5947L45.5303 21.7393L45.5898 21.8721C46.6709 24.2601 49.6163 24.7935 51.9082 23.3086L52.1279 23.1582L52.3799 22.9775L52.3291 22.6709C52.3027 22.5126 52.3249 22.3481 52.3896 22.1445C52.4224 22.0416 52.4638 21.9356 52.5117 21.8164C52.5576 21.7023 52.6121 21.5697 52.6602 21.4375L52.6611 21.4346C53.7844 18.294 53.8569 15.1356 52.7285 11.9805L51.7607 12.209Z" fill="#9DD4B2" stroke="black"></path><path d="M44.9951 22.5166L44.7139 24.9629C44.6237 25.7666 44.5317 26.5674 44.4219 27.3711L44.3818 27.6162C44.2956 28.1937 44.2738 28.7998 44.4561 29.4375L44.5723 29.8467L44.9951 29.7969C45.6527 29.7195 46.2822 29.8377 46.9551 30.0234C47.5992 30.2012 48.3475 30.4644 49.0889 30.5918L49.2754 30.623L49.4355 30.5244C50.0037 30.1748 50.27 29.6778 50.4297 29.2051C50.5072 28.9755 50.5637 28.7394 50.6143 28.5332C50.6669 28.3185 50.7136 28.132 50.7754 27.9609H50.7764C51.2382 26.7454 51.9185 25.3857 52.1729 23.9521L52.335 23.041L51.4834 23.4053C50.3827 23.8769 49.2909 23.8296 48.0771 23.4746C47.6897 23.3575 47.3625 23.1347 46.9775 22.8594C46.6127 22.5984 46.1765 22.2751 45.6455 22.1025L45.0693 21.915L44.9951 22.5166Z" fill="#35B777" stroke="black"></path><path d="M52.002 11.1836C51.8183 11.1632 51.6673 11.2315 51.5654 11.3096C51.4389 11.4066 51.3485 11.5478 51.2803 11.6865L51.2188 11.8232L51.2178 11.8242L51.0303 12.252C50.1852 14.082 48.9376 15.6313 47.5869 17.1807L46.957 17.8965L46.9541 17.9004L46.6719 18.2432C46.0352 19.0659 45.5673 20.0459 45.6572 21.2598L45.7549 22.584L46.5547 21.5244C47.2332 20.625 48.0794 19.9005 49.001 19.1768L49.9443 18.4463L49.9512 18.4414C51.7172 17.0286 52.7667 15.1724 52.6221 12.7627V12.75L52.6201 12.7373C52.6201 12.7342 52.6204 12.7051 52.6465 12.6035C52.6617 12.544 52.6934 12.4361 52.7148 12.3184L52.7314 12.1992L52.7451 12.0635L52.6885 11.9395C52.6766 11.9137 52.6629 11.8826 52.6455 11.8408C52.6295 11.8022 52.61 11.7533 52.5889 11.7061C52.5552 11.6309 52.4837 11.474 52.3633 11.3574C52.2956 11.2919 52.175 11.2028 52.002 11.1836Z" fill="#35B777" stroke="black"></path><path d="M45.8906 21.1611C45.5167 21.2462 45.2355 21.4562 45.084 21.7754C44.9483 22.0614 44.9463 22.3756 44.9717 22.6299L45.0039 22.9492L45.3076 23.0537C45.6795 23.1807 45.9951 23.4092 46.3896 23.6914C46.7635 23.9588 47.2109 24.2743 47.7695 24.4346L47.7686 24.4355C49.1262 24.8335 50.4731 24.9186 51.8555 24.3262L52.0371 24.249L52.1162 24.0674C52.1343 24.0261 52.1659 23.9766 52.2305 23.8789C52.2842 23.7977 52.3699 23.6702 52.4297 23.5293C52.4932 23.3795 52.5435 23.1805 52.499 22.9531C52.4545 22.7259 52.3281 22.534 52.1592 22.373L51.8564 22.0859L51.5195 22.3311L51.3369 22.458C49.4407 23.7088 47.2453 23.1619 46.4561 21.4404L46.2871 21.0713L45.8906 21.1611Z" fill="#9DD4B2" stroke="black"></path><path d="M20.3535 43.2207C20.0694 43.339 19.7929 43.4579 19.4707 43.5996L18.8438 43.875C18.6302 44.2419 18.2833 44.5149 17.7861 44.6807L17.7783 44.6836L17.7715 44.6855C17.6616 44.7185 17.6227 44.7632 17.6006 44.8027C17.5781 44.8431 17.5568 44.9106 17.5508 45.0166V45.1504C17.5682 46.0578 17.5608 46.9591 17.5557 47.9717C18.5234 47.4091 19.4283 46.8805 20.3311 46.3672H20.332L20.334 46.3594C20.3405 46.3351 20.3445 46.2839 20.3301 46.2041L20.3311 46.2031C20.2087 45.5809 20.3306 45.0768 20.6504 44.6689C20.7299 44.5675 20.8208 44.4758 20.917 44.3906C20.8584 44.3796 20.7975 44.3651 20.7354 44.3418L20.4463 44.2334L20.4141 43.9258C20.3902 43.6993 20.3716 43.4661 20.3535 43.2207ZM32.3467 36.2969C32.2131 36.3512 32.0914 36.3974 31.9844 36.4297C31.8129 36.4814 31.4729 36.569 31.1807 36.3604C31.1672 36.3507 31.1559 36.3384 31.1436 36.3281C31.1183 36.6483 31.0121 36.9201 30.8193 37.1416C30.6127 37.379 30.3433 37.5141 30.1152 37.6104V37.6113C29.8651 37.7185 29.7307 37.8393 29.6631 37.9502C29.6166 38.0264 29.5837 38.1267 29.5898 38.2705L29.6094 38.4287L29.6104 38.4316C29.7007 38.8982 29.6128 39.2952 29.3691 39.6201C29.3108 39.6979 29.2453 39.7684 29.1758 39.833L29.3018 40.0078C29.5812 40.392 29.5801 40.796 29.5801 41.0508C30.4537 40.5436 31.3374 40.0216 32.2217 39.5342C32.2971 39.4909 32.3128 39.4608 32.3193 39.4463C32.3318 39.4189 32.3467 39.363 32.3467 39.2373V36.2969ZM20.2773 29.4795L19.5068 29.8037C18.607 30.1804 18.0323 30.629 17.7139 31.165C17.4395 31.6269 17.3219 32.2104 17.4199 32.9854L17.4756 33.3301V33.3311C17.5325 33.6296 17.5 33.973 17.498 34.1406C17.4979 34.1519 17.499 34.163 17.499 34.1738C17.7447 34.0763 18.015 33.9678 18.3428 33.8291L18.9082 33.5898C18.969 33.4697 19.0468 33.3623 19.1416 33.2695C19.3448 33.0707 19.5982 32.9568 19.7695 32.8818C20.0291 32.7612 20.1676 32.6376 20.2393 32.5225C20.3043 32.4179 20.3463 32.2691 20.3066 32.0205C20.2312 31.5677 20.321 31.184 20.5557 30.8652C20.6323 30.7611 20.7213 30.6689 20.8164 30.5859L20.5498 30.6396L20.4443 30.1592C20.3731 29.8337 20.3267 29.6232 20.2842 29.4775C20.2821 29.4783 20.2795 29.4787 20.2773 29.4795ZM32.3193 22.4463C31.3759 22.9922 30.5389 23.486 29.6699 23.9473H29.6689C29.6015 23.9841 29.5786 24.0123 29.5713 24.0225C29.5644 24.032 29.5559 24.0464 29.5498 24.0801C29.5426 24.1195 29.5405 24.1739 29.543 24.2617C29.5449 24.3279 29.5527 24.4684 29.5527 24.5732C29.5527 24.7872 29.5625 25.1054 29.4766 25.3984C29.3967 25.6707 29.2403 25.9114 28.9814 26.1035C29.0263 26.1088 29.0723 26.1153 29.1191 26.126L29.4697 26.2061L29.5059 26.5645C29.5283 26.7892 29.5514 26.9994 29.5762 27.2021C29.5965 27.1902 29.6186 27.1786 29.6416 27.165C29.8713 27.0296 30.2442 26.8194 30.7529 26.9512L30.8672 26.9805C30.8957 26.8716 30.9325 26.7642 30.9834 26.6611C31.174 26.2756 31.5063 26.0116 31.9678 25.8555H31.9668C32.1571 25.787 32.2412 25.7027 32.2871 25.624C32.3258 25.5575 32.3576 25.4596 32.3672 25.3115L32.3691 25.1465C32.3008 24.2761 32.3108 23.3973 32.3193 22.4463Z" fill="#35B777" stroke="black"></path><path d="M13.8559 22.4216C13.8781 22.7988 14.0334 23.1981 14.6102 23.1981C15.2536 23.1981 16.0966 22.0888 16.141 21.2458C16.1631 20.7578 16.0522 20.3584 15.4532 20.3363C14.7655 20.3141 13.8781 21.4233 13.8559 22.4216Z" fill="#F2DA4B"></path><path d="M10.728 24.2001C10.7724 24.5773 10.8611 24.9988 11.4601 24.9988C12.1035 24.9988 12.9908 23.9117 13.013 23.0909C13.0352 22.625 12.9243 22.2035 12.3253 22.1592C11.6598 22.0926 10.7724 23.1796 10.728 24.2001Z" fill="#ED514D"></path><path d="M9.90723 24.7361C9.86286 24.3368 9.72975 23.9375 9.15295 23.9375C8.53178 23.9375 7.62222 25.0689 7.60003 25.8676C7.60003 26.3334 7.71095 26.7549 8.30994 26.7771C8.99766 26.8215 9.90723 25.6679 9.90723 24.7361Z" fill="#54AFDB"></path><path d="M19.2689 43.1478C19.8235 42.9038 20.245 42.7263 20.7331 42.4823C20.7774 42.9925 20.8218 43.4362 20.844 43.8577C21.1989 43.9687 21.3986 43.7246 21.6426 43.5915C23.8611 42.327 26.0574 41.0403 28.2536 39.798C28.7639 39.5096 29.1632 39.199 29.0523 38.5113C28.9192 37.8235 29.2297 37.402 29.8509 37.1358C30.2724 36.9583 30.583 36.7365 30.583 36.1597C30.5608 33.2535 30.5608 30.3251 30.5608 27.419C29.984 27.2859 29.6956 27.8848 29.0966 27.8405C29.0523 27.4412 29.0079 27.0197 28.9414 26.5981C28.4311 26.4872 28.1205 26.8644 27.7656 27.064C25.6802 28.2398 23.6171 29.46 21.5317 30.6357C20.9993 30.9241 20.6221 31.2347 20.7331 31.9224C20.8662 32.6102 20.5334 33.0317 19.9122 33.3201C19.5573 33.4754 19.2023 33.6528 19.2023 34.1853C19.2911 37.1358 19.2689 40.0864 19.2689 43.1478Z" fill="white"></path><path d="M22.8629 38.7766C22.8629 37.2459 22.8851 35.937 22.8629 34.6503C22.8629 34.2288 22.9739 33.9626 23.351 33.7629C24.3493 33.2083 25.3476 32.6315 26.3237 32.0547C26.7674 31.7885 26.9893 31.8107 26.9893 32.3875C26.9893 33.5633 26.9893 34.739 26.9893 35.9148C26.9893 36.2032 26.9005 36.4029 26.6565 36.5582C25.4585 37.2681 24.2384 37.978 22.8629 38.7766Z" fill="#444C57"></path><path d="M25.0947 33.3643L23.5938 34.2139L23.585 34.2188C23.4571 34.2865 23.4156 34.3414 23.3975 34.375C23.3777 34.4119 23.3542 34.4834 23.3623 34.6377L23.3633 34.6514V37.9014C24.4444 37.2774 25.4031 36.7151 26.3916 36.1475C26.4478 36.111 26.4617 36.0873 26.4668 36.0771C26.4742 36.0624 26.4893 36.0231 26.4893 35.9287C26.4893 34.8187 26.4707 33.6807 26.4883 32.5518C26.028 32.8234 25.5627 33.095 25.0947 33.3643Z" fill="#35B777" stroke="black"></path></svg>