<svg xmlns="http://www.w3.org/2000/svg" width="67" height="81" viewBox="0 0 67 81" fill="none"><path d="M50.0439 0.827148C50.2532 0.799701 50.4628 0.846397 50.6865 0.987305H50.6875C51.8059 1.63818 52.9293 2.28512 54.0527 2.93164C55.1754 3.57776 56.2985 4.22407 57.417 4.875H57.418C57.4745 4.90728 57.5638 4.95449 57.6309 5.02148C57.6878 5.07838 57.7308 5.15152 57.7432 5.24316L57.7451 5.3418L57.7305 5.47949L57.5928 5.46777C57.4158 5.45302 57.2627 5.50872 57.0703 5.61328L57.0713 5.61426C54.9532 6.87963 52.835 8.14507 50.7168 9.4082L44.3613 13.1885C41.4865 14.8804 38.6108 16.5731 35.7197 18.2422L32.8232 19.9023C29.0959 22.0391 25.3357 24.1004 21.6152 26.2412L20.0234 27.1641C19.4891 27.4773 18.9943 27.7162 18.4805 27.7676C18.0241 27.8132 17.5662 27.7099 17.0635 27.4092L16.8457 27.2686C15.9152 26.6208 14.9366 26.0387 13.9531 25.4512C13.2166 25.0112 12.4773 24.5678 11.7568 24.0938L11.0439 23.6084L10.9707 23.5566L10.9863 23.4688L11.0039 23.3994C11.0541 23.2438 11.1715 23.1213 11.3076 23.0225C11.4646 22.9086 11.6664 22.811 11.877 22.7207C12.3111 22.5346 12.7824 22.3762 13.127 22.1553L13.1289 22.1543L14.2949 21.4492C14.7254 21.193 15.1765 20.9268 15.5869 20.6865C15.9975 20.4461 16.3675 20.2312 16.6348 20.0762C16.7684 19.9987 16.8766 19.9367 16.9512 19.8936C16.9885 19.872 17.0175 19.8551 17.0371 19.8438C17.0468 19.8381 17.0546 19.8339 17.0596 19.8311C17.0619 19.8297 17.0632 19.8279 17.0645 19.8271L17.0664 19.8262H17.0674L18.4883 19.0156C19.4419 18.4471 20.4138 17.8782 21.3672 17.3281L21.3721 17.3252L22.2891 16.8486C27.2942 13.9519 32.2997 11.0556 37.3047 8.14062V8.13965L43.3906 4.60742C45.419 3.42705 47.445 2.24417 49.4619 1.06152L49.6035 0.981445C49.7453 0.906168 49.8909 0.847286 50.0439 0.827148Z" fill="#9DD4B2" stroke="black" stroke-width="0.282014"></path><path d="M57.7578 5.1875L57.7793 5.30176L57.8398 5.6709C57.9571 6.52276 57.9089 7.30528 57.6094 7.96973C57.2662 8.731 56.6025 9.31511 55.5371 9.67383C54.6858 10.0994 53.8459 10.475 53.1484 11.083L53.1318 11.0977L53.1113 11.1064C52.3534 11.4313 51.6469 11.8661 50.9727 12.3398L50.9609 12.3477L50.9482 12.3535C50.116 12.7154 49.3355 13.1867 48.5889 13.7148L48.582 13.7197L48.5742 13.7236C48.4518 13.7895 48.3254 13.8508 48.2021 13.9102C48.0778 13.97 47.9567 14.0284 47.8408 14.0908L47.8398 14.0898C41.4402 17.8122 35.0417 21.5164 28.6426 25.2568V25.2578C25.7455 26.9447 22.8666 28.6499 19.9873 30.3555L19.9717 30.3643L19.9541 30.3701C19.781 30.4196 19.6091 30.5134 19.4248 30.624C19.2458 30.7314 19.0512 30.8569 18.8525 30.9473C18.651 31.0389 18.4305 31.1011 18.1914 31.0781C17.9535 31.0551 17.7137 30.9485 17.4658 30.7324C16.6654 30.1869 15.8302 29.6975 14.9424 29.2988L14.9287 29.293L14.916 29.2842C14.1561 28.7233 13.3401 28.2873 12.498 27.8662L12.4785 27.8564L12.4629 27.8418C12.3593 27.7422 12.2244 27.6608 12.0693 27.585C11.9923 27.5473 11.9121 27.5117 11.8301 27.4756C11.7489 27.4399 11.665 27.4034 11.584 27.3652C11.2684 27.2166 10.9323 27.0161 10.8633 26.6104V26.6113C10.68 25.6583 10.523 24.5911 10.9639 23.5752L11.0332 23.416L11.1748 23.5166C12.1028 24.1717 13.0962 24.7224 14.0967 25.2754C15.0948 25.8271 16.1007 26.3812 17.043 27.0371L17.2441 27.167C17.7035 27.4426 18.0986 27.5259 18.4824 27.4873C18.929 27.4423 19.3782 27.2313 19.917 26.9209L21.5098 25.998C25.2315 23.8564 29.0013 21.7899 32.7197 19.6582L38.4941 16.3154C40.4171 15.1969 42.3378 14.0739 44.2539 12.9463L47.4395 11.0586C50.6191 9.16836 53.7863 7.27036 56.9639 5.37207L56.9678 5.36914L57.1309 5.29102C57.2926 5.22305 57.4549 5.18755 57.6406 5.1875H57.7578Z" fill="#35B777" stroke="black" stroke-width="0.282014"></path><path d="M66.584 58.4688C66.8079 59.7934 66.6741 60.8947 66.1699 61.8389C65.7297 62.6632 65.014 63.3552 64.0342 63.9688L63.5977 64.2275C55.1075 68.9769 46.747 73.9457 38.3271 78.8252L38.3262 78.8242C38.228 78.883 38.127 78.9318 38.0303 78.9756L37.751 79.1045L37.4805 79.2393L37.5498 78.9453C37.7833 77.9574 37.7295 76.9353 37.7295 75.8975V75.8584L37.75 75.8242C37.8094 75.7253 37.8951 75.664 37.9775 75.6211C38.0556 75.5805 38.1474 75.5487 38.2139 75.5225C38.3594 75.4651 38.4394 75.4151 38.4678 75.2959L38.4814 75.2363L38.5342 75.2061L41.625 73.4521C42.6563 72.8677 43.6878 72.2816 44.7148 71.6855V71.6846L45.4941 71.2471C45.7832 71.0867 46.0873 70.9192 46.3643 70.7676C46.6412 70.616 46.8914 70.4801 47.0723 70.3818C47.1625 70.3328 47.2356 70.293 47.2861 70.2656C47.3114 70.2519 47.3314 70.2406 47.3447 70.2334C47.3511 70.23 47.356 70.2274 47.3594 70.2256C47.3609 70.2248 47.3624 70.2241 47.3633 70.2236L47.3643 70.2227H47.3652L47.373 70.2188L47.6943 70.0654C48.4411 69.6972 49.1602 69.2665 49.874 68.8203C50.6871 68.3121 51.4974 67.7801 52.3252 67.3018L55.4551 65.4775C56.4969 64.8672 57.5382 64.2557 58.5791 63.6436C60.6606 62.4194 62.7428 61.1951 64.834 59.9844L65.0723 59.8311C65.6019 59.4567 65.9591 58.9586 66.3281 58.4131L66.5254 58.1221L66.584 58.4688Z" fill="#35B777" stroke="black" stroke-width="0.282014"></path><path d="M58.333 17.9424L58.373 18.2861C58.4572 19.0886 58.4709 19.8893 58.4648 20.6836C58.4579 21.5946 58.426 22.4905 58.4443 23.3867H58.4434C58.4483 23.5028 58.4274 23.6034 58.3838 23.6914C58.3401 23.7796 58.2779 23.8477 58.2109 23.9023C58.1451 23.9561 58.0716 23.9998 58.0039 24.0381C57.9329 24.0783 57.8703 24.112 57.8105 24.1504L57.8086 24.1514C57.4226 24.3903 57.0321 24.6247 56.6426 24.8584C56.2528 25.0923 55.8636 25.3257 55.4795 25.5635L55.4756 25.5664C55.0444 25.8141 54.6177 26.0569 54.1914 26.2998L52.9082 27.0332C52.5782 27.2257 52.2479 27.4179 51.918 27.6104C51.5879 27.8029 51.2578 27.9959 50.9277 28.1885L50.916 28.1953L50.915 28.1943C50.0811 28.5751 49.2995 29.0479 48.5518 29.5586L48.542 29.5654L48.541 29.5645C48.0187 29.8577 47.5014 30.1519 46.9834 30.4453C46.4654 30.7387 45.9467 31.0316 45.4238 31.3252L45.3711 31.3555L45.3125 31.3369C44.9524 31.2243 44.8158 30.901 44.6982 30.6826L44.6973 30.6797C44.0772 29.4741 43.4263 28.325 42.2246 27.6758L41.9766 27.5527L41.876 27.5068L41.8965 27.3984L41.9131 27.3301C41.9591 27.1776 42.0532 27.0788 42.1582 27.0088C42.2154 26.9706 42.2768 26.9407 42.3311 26.915L42.4814 26.8418C44.479 25.6689 46.4774 24.4959 48.4941 23.3408L53.3223 20.583C54.9265 19.6686 56.5263 18.7566 58.123 17.8389L58.3057 17.7334L58.333 17.9424ZM50.834 23.4268C50.7039 23.4443 50.5617 23.4961 50.4141 23.5801C50.218 23.6917 50.0203 23.8555 49.8428 24.0527C49.4851 24.4502 49.2254 24.962 49.2002 25.415C49.1848 25.7202 49.3475 26.0592 49.6162 26.3301C49.8843 26.6003 50.2362 26.7799 50.5664 26.7881L50.7041 26.7793C51.0309 26.7315 51.392 26.4972 51.6982 26.1367C52.0447 25.7289 52.2957 25.1879 52.3301 24.6641V24.6631L52.3311 24.5488C52.3004 23.98 51.7206 23.4533 50.9609 23.4209H50.96L50.834 23.4268ZM54.665 21.2061C54.2794 21.2428 53.9061 21.4534 53.6113 21.7803C53.2748 22.1534 53.0504 22.6683 53.0332 23.2109C53.026 23.4934 53.2103 23.8379 53.5029 24.1152C53.795 24.392 54.1585 24.5664 54.4629 24.5508H54.4697L54.5996 24.5391C54.9064 24.4858 55.2396 24.251 55.5166 23.8984C55.8296 23.5 56.0442 22.9834 56.0527 22.5068L56.0508 22.3486C56.0339 21.9942 55.9322 21.7323 55.7627 21.5508C55.5691 21.3437 55.2661 21.2186 54.8311 21.2012L54.665 21.2061Z" fill="#9DD4B2" stroke="black" stroke-width="0.282014"></path><path d="M55.5918 25.624C55.6101 29.164 55.6006 32.507 55.6006 36.0459C55.6006 38.3478 55.5954 40.6505 55.5908 42.9521C55.5862 45.2537 55.582 47.5551 55.582 49.8564V50.04L55.4043 49.9932C54.4774 49.7472 53.7318 49.1373 52.9805 48.6543L52.916 48.6133V26.9404L52.9863 26.9004L54.1826 26.2021C54.5655 25.9767 54.9492 25.7509 55.3809 25.5029L55.5908 25.3818L55.5918 25.624Z" fill="#BAC0E1" stroke="black" stroke-width="0.282014"></path><path d="M23.6836 72.6396C23.9419 72.7688 24.1954 72.9023 24.4473 73.0352L25.2061 73.4277L25.208 73.4297L25.8369 73.7744C26.4596 74.1312 27.0644 74.5172 27.6709 74.8828C28.3814 75.3111 29.0987 75.7142 29.8662 76.0264L30.1982 76.1543L30.209 76.1582L30.2197 76.165C31.3015 76.7858 32.5313 76.825 33.7607 76.8066L34.0215 76.7979C35.3231 76.7353 36.6363 76.3361 37.8262 75.7412L38.0303 75.6387V75.8672C38.0303 76.8888 38.0495 77.987 37.8066 79.0332L37.792 79.0967L37.7334 79.127C35.1341 80.4528 32.4808 80.5353 29.8906 79.4521L29.373 79.2197C27.3491 78.2445 25.4477 76.9902 23.5127 75.8584L23.4414 75.8164L23.4434 75.7344C23.4617 74.7438 23.4795 73.7545 23.4795 72.7656V72.5371L23.6836 72.6396Z" fill="#35B777" stroke="black" stroke-width="0.282014"></path><path d="M55.7295 16.6182H55.7314C55.7327 16.6186 55.734 16.6202 55.7363 16.6211C55.7413 16.6229 55.7492 16.6253 55.7588 16.6289C55.7779 16.636 55.8062 16.6469 55.8418 16.6602C55.9131 16.6868 56.0149 16.7248 56.1367 16.7705C56.381 16.8622 56.707 16.9846 57.0303 17.1084C57.3532 17.2321 57.6755 17.3574 57.9131 17.4541C58.0314 17.5022 58.1309 17.5439 58.1992 17.5752C58.2325 17.5904 58.2624 17.6056 58.2842 17.6182C58.293 17.6232 58.3106 17.634 58.3262 17.6484C58.3314 17.6533 58.3555 17.6758 58.3672 17.7139C58.3745 17.7378 58.378 17.7729 58.3623 17.8105C58.3546 17.8289 58.3449 17.8442 58.334 17.8555L58.3018 17.8799C56.6984 18.7961 55.0896 19.7584 53.4795 20.7217C52.2724 21.4439 51.0645 22.1667 49.8584 22.8701L48.6523 23.5664C46.6354 24.7216 44.6565 25.8948 42.6377 27.0693L42.6348 27.0713C42.5806 27.1008 42.5193 27.1287 42.4688 27.1533C42.4152 27.1794 42.3678 27.204 42.3271 27.2314C42.2493 27.284 42.2047 27.3397 42.1934 27.4238L42.1689 27.6094L41.9971 27.5352C41.1479 27.166 40.3273 26.7374 39.5977 26.1387L39.4414 26.0107L39.6162 25.9082C42.5504 24.2027 45.485 22.4793 48.4014 20.7734L48.4102 20.7676C49.2331 20.3652 50.0502 19.9305 50.792 19.3877L50.8037 19.3779L50.8184 19.3721C51.5978 19.0277 52.3225 18.6107 53.0107 18.1035L53.0234 18.0947L53.0371 18.0879C53.9429 17.6894 54.7607 17.1815 55.6035 16.6318L55.6631 16.5928L55.7295 16.6182Z" fill="#35B777" stroke="black" stroke-width="0.282014"></path><path d="M55.6367 9.75781C55.6367 10.7946 55.6278 11.7692 55.6191 12.7432C55.6105 13.7173 55.6016 14.6912 55.6016 15.7266C55.6016 15.8788 55.6105 16.0975 55.6191 16.2793C55.6234 16.3696 55.6276 16.4507 55.6309 16.5088C55.6325 16.5377 55.6338 16.5611 55.6348 16.5771C55.6352 16.5852 55.6355 16.5915 55.6357 16.5957V16.6016L55.6416 16.6846L55.5723 16.7285C54.8605 17.1872 54.2627 17.6418 53.501 18.0225L53.1641 18.1807L52.9678 18.2676L52.9658 18.0527C52.9567 16.8518 52.944 15.7361 52.9316 14.6201L52.8984 11.1865L52.8975 11.1162L52.9531 11.0732H52.9541C52.9548 11.0727 52.9558 11.0712 52.957 11.0703C52.9595 11.0685 52.9633 11.0659 52.9678 11.0625C52.9771 11.0554 52.9911 11.0454 53.0088 11.0322C53.0445 11.0056 53.0967 10.9665 53.1631 10.9189C53.2959 10.8239 53.4859 10.6918 53.7158 10.5439C54.1752 10.2485 54.7976 9.88652 55.4424 9.62695L55.6367 9.54883V9.75781Z" fill="#BAC0E1" stroke="black" stroke-width="0.282014"></path><path d="M51.04 28.2422L51.0146 47.2871V47.5244L50.8066 47.4111C50.4038 47.1914 50.0003 46.9763 49.5967 46.7607C49.1934 46.5453 48.7898 46.3288 48.3857 46.1084L48.3125 46.0684V45.9854C48.3125 44.6049 48.3172 43.237 48.3242 41.876L48.375 33.7373C48.382 32.3767 48.3867 31.0097 48.3867 29.6299V29.5537L48.4492 29.5117C48.839 29.2519 49.4363 28.9037 49.9326 28.6211C50.1813 28.4795 50.406 28.3538 50.5684 28.2637C50.6495 28.2186 50.7154 28.1822 50.7607 28.1572C50.7831 28.1449 50.8006 28.1354 50.8125 28.1289C50.8184 28.1257 50.8231 28.1228 50.8262 28.1211C50.8277 28.1203 50.8293 28.1196 50.8301 28.1191L50.8311 28.1182L51.04 28.0049V28.2422Z" fill="#BAC0E1" stroke="black" stroke-width="0.282014"></path><path d="M15.0928 38.5908C15.0897 41.6574 15.0869 44.7242 15.0869 47.8418C15.0869 50.3928 15.0126 54.0137 14.9385 57.6299C14.8643 61.2473 14.79 64.8601 14.79 67.3984V67.6475L14.5762 67.5195L12.4707 66.2598L12.4023 66.2188V60.7891L12.4102 57.915C12.4127 55.0415 12.4023 52.1704 12.4023 49.3086C12.4023 45.7145 12.3818 42.1526 12.3613 38.5879C12.3408 35.0233 12.3203 31.4559 12.3203 27.8516V27.6279L12.5215 27.7246C13.3721 28.1314 14.2636 28.6511 15.042 29.2256L15.0986 29.2676V29.3389C15.0986 32.4568 15.0959 35.5241 15.0928 38.5908Z" fill="#BAC0E1" stroke="black" stroke-width="0.282014"></path><path d="M20.0928 30.3984C20.0928 31.5919 20.0749 32.7385 20.0566 33.8838C20.0383 35.0293 20.0195 36.1736 20.0195 37.3643V37.4336L19.9648 37.4766C19.2389 38.035 18.4405 38.4803 17.6094 38.8682L17.4102 38.9609L17.4082 38.7412C17.3991 37.3868 17.3451 36.0706 17.293 34.752C17.2409 33.4341 17.1914 32.1132 17.1914 30.7529V30.4404L17.4258 30.6475C17.8517 31.0241 18.3038 31.011 18.7383 30.8613C18.958 30.7856 19.1695 30.6752 19.3652 30.5645C19.5551 30.4571 19.7425 30.3425 19.8916 30.2715L20.0928 30.1748V30.3984Z" fill="#BAC0E1" stroke="black" stroke-width="0.282014"></path><path d="M51.0342 12.25V12.3906C51.0342 13.6008 51.0383 14.7122 51.042 15.8262C51.0457 16.9401 51.0488 18.0565 51.0488 19.2764V19.3574L50.9785 19.3984L48.5693 20.793L48.3574 20.916V20.6709C48.3574 19.4513 48.3597 18.353 48.3594 17.2549L48.3477 13.8389L48.3467 13.7646L48.4072 13.7227C48.7883 13.4531 49.3806 13.0885 49.8818 12.793C50.133 12.6449 50.3629 12.5137 50.5332 12.4189C50.6182 12.3716 50.6893 12.3326 50.7412 12.3057C50.7668 12.2924 50.7892 12.2816 50.8066 12.2734C50.8151 12.2695 50.8243 12.2651 50.833 12.2617C50.8373 12.2601 50.8437 12.2578 50.8506 12.2559C50.8545 12.2547 50.8721 12.25 50.8936 12.25H51.0342Z" fill="#BAC0E1" stroke="black" stroke-width="0.282014"></path><path d="M37.9033 25.4941C38.4207 25.3756 38.9597 25.4314 39.5254 25.7637L39.7695 25.9229L39.7764 25.9277L39.6865 26.0371L39.7764 25.9287C40.3019 26.3599 40.8797 26.7015 41.4893 26.999L42.1094 27.2832L42.1113 27.2842L42.377 27.416C43.6617 28.1098 44.3306 29.3201 44.9648 30.5371L45.0625 30.7344C45.2758 31.201 45.3809 31.7092 45.3887 32.2207C45.4017 33.0846 45.4341 33.915 45.4805 34.7793L45.5312 35.6572V35.6592L45.5342 35.8184C45.528 36.1781 45.4407 36.464 45.2783 36.7031C45.095 36.9729 44.8246 37.1695 44.5059 37.3477C43.885 37.6946 42.9744 38.2439 42.2178 38.707C41.84 38.9383 41.5013 39.1481 41.2568 39.2998C41.1346 39.3756 41.0358 39.4371 40.9678 39.4795C40.9339 39.5006 40.9075 39.5172 40.8896 39.5283C40.8808 39.5339 40.8737 39.5382 40.8691 39.541C40.8669 39.5424 40.8644 39.5432 40.8633 39.5439L40.8623 39.5449L40.8545 39.5498L40.8467 39.5537H40.8457C40.8451 39.554 40.8439 39.5552 40.8428 39.5557C40.8406 39.5566 40.837 39.5578 40.833 39.5596C40.825 39.5632 40.8135 39.5687 40.7988 39.5752C40.7687 39.5885 40.7251 39.6077 40.6719 39.6299C40.5657 39.6742 40.4193 39.7323 40.2598 39.7871C40.1008 39.8417 39.9253 39.8939 39.7617 39.9258C39.6427 39.949 39.5182 39.9633 39.4072 39.9541L39.3018 39.9365L39.1973 39.9092V39.1162L39.1836 37.4629C39.1836 36.9121 39.1881 36.3613 39.1973 35.8105V35.8096L39.1943 35.5195C39.1302 34.0812 38.3521 32.8381 37.3779 32.0146L36.8135 31.5527C35.5738 30.5506 34.2279 29.562 32.7725 28.9053L32.4346 28.7598L32.2393 28.6787L32.3887 28.5293C32.4379 28.4799 32.5111 28.4277 32.5947 28.375C32.6805 28.3209 32.7856 28.2608 32.9043 28.1963C33.1417 28.0673 33.4418 27.9166 33.7637 27.7529C34.4109 27.4238 35.1512 27.0422 35.7021 26.6719L35.708 26.668L36.002 26.5137C36.097 26.4662 36.1852 26.4199 36.2676 26.3623C36.782 25.9767 37.3236 25.6271 37.9033 25.4941Z" fill="#D8D8EB" stroke="black" stroke-width="0.282014"></path><path d="M50.9766 23.1426L50.9756 23.1436C51.903 23.2015 52.673 23.8654 52.6113 24.6855L52.6123 24.6865C52.5732 25.2811 52.292 25.8818 51.9141 26.3291C51.5408 26.7709 51.0453 27.093 50.5605 27.0732V27.0742C50.1292 27.0639 49.7108 26.8343 49.4082 26.5244C49.1068 26.2156 48.898 25.8035 48.9189 25.4033V25.4023L48.9424 25.2002C49.0239 24.7251 49.2909 24.2381 49.626 23.8613C50.0045 23.4358 50.507 23.1107 50.9766 23.1426Z" fill="#F1F3F2" stroke="black" stroke-width="0.282014"></path><path d="M54.8389 20.9395C55.3206 20.9493 55.7058 21.0837 55.9668 21.3604C56.2272 21.6366 56.3414 22.0305 56.332 22.5107L56.333 22.5117C56.3232 23.0622 56.0796 23.6371 55.7373 24.0752C55.4407 24.4547 55.0501 24.7564 54.6455 24.833L54.4717 24.8516C54.0635 24.862 53.6302 24.6353 53.3076 24.332C52.9862 24.0298 52.7393 23.6171 52.75 23.2207L52.7676 22.9922C52.8341 22.4656 53.069 21.9778 53.4004 21.6104C53.7779 21.1917 54.2913 20.9204 54.8369 20.9395L54.8379 20.9385V20.9395L54.8398 20.9385L54.8389 20.9395Z" fill="#F1F3F2" stroke="black" stroke-width="0.282014"></path><path d="M12.4033 49.5156C12.4033 51.431 12.4296 53.2707 12.4561 55.1113C12.4825 56.9517 12.5088 58.7933 12.5088 60.7109V66.1396L12.3008 66.0264C11.9806 65.8526 11.143 65.4078 10.3848 65.0059C10.0059 64.805 9.64696 64.6144 9.38281 64.4746C9.25073 64.4047 9.14178 64.3475 9.06641 64.3076C9.02888 64.2878 8.99944 64.2723 8.97949 64.2617C8.96953 64.2565 8.96216 64.2517 8.95703 64.249L8.95605 64.248V64.249H8.95508V64.248H8.9541C8.95337 64.2477 8.95235 64.2466 8.95117 64.2461H8.94922V64.2451C8.94483 64.2431 8.93786 64.2401 8.92969 64.2363C8.91336 64.2287 8.88998 64.2179 8.8623 64.2051C8.80665 64.1793 8.73251 64.1457 8.66016 64.1123C8.58771 64.0789 8.51682 64.0462 8.4668 64.0234C8.44162 64.012 8.42249 64.003 8.41113 63.998C8.40889 63.9971 8.40727 63.9965 8.40625 63.9961C8.40695 63.9964 8.40869 63.9966 8.41016 63.9971C8.41171 63.9976 8.41483 63.9989 8.41895 64C8.4212 64.0006 8.42545 64.0011 8.43066 64.002C8.43438 64.0026 8.44652 64.0048 8.46191 64.0039C8.47021 64.0032 8.49093 63.999 8.50293 63.9951C8.52037 63.9872 8.5568 63.959 8.57324 63.9375C8.57645 63.9323 8.5767 63.926 8.5791 63.9209L8.45605 63.8643L8.3877 63.9883L6.7334 63.0791H6.73242C6.44753 62.9499 6.18595 62.8101 5.93066 62.6729C5.6711 62.5333 5.41811 62.3968 5.14746 62.2705L5.11719 62.2559L5.0957 62.2295C5.09434 62.2282 5.09208 62.2266 5.08984 62.2246C5.0807 62.2165 5.06723 62.2055 5.0498 62.1914C5.01481 62.1631 4.96632 62.1252 4.90527 62.0791C4.78275 61.9866 4.61382 61.8622 4.41406 61.7178C4.01471 61.429 3.49376 61.0593 2.97656 60.6943C2.45948 60.3295 1.94637 59.9697 1.5625 59.7012C1.37076 59.567 1.21121 59.4558 1.09961 59.3779C1.0438 59.339 0.999582 59.3079 0.969727 59.2871C0.954902 59.2768 0.943216 59.269 0.935547 59.2637C0.931763 59.261 0.928689 59.2592 0.926758 59.2578C0.925819 59.2572 0.925283 59.2562 0.924805 59.2559H0.923828L1.00488 59.1396L0.864258 59.1475C0.767925 57.3492 2.05126 55.8471 3.43262 54.793L4.95703 53.6309L4.96289 53.626L4.96973 53.6221V53.6211H4.9707C4.97129 53.6207 4.97246 53.6198 4.97363 53.6191C4.97597 53.6177 4.97994 53.6159 4.98438 53.6133C4.9936 53.6078 5.0076 53.5995 5.02539 53.5889C5.0614 53.5674 5.1144 53.5358 5.18262 53.4951C5.31948 53.4135 5.51749 53.2952 5.7627 53.1494C6.25336 52.8577 6.93292 52.4546 7.68652 52.0098C9.19318 51.1205 10.9988 50.0628 12.1924 49.3926L12.4033 49.2744V49.5156Z" fill="#F1F3F2" stroke="black" stroke-width="0.282014"></path><path d="M20.002 45.9688C20.002 49.3089 19.8816 53.7134 19.7607 58.1172C19.6398 62.5226 19.5186 66.9277 19.5186 70.2725V70.5381L19.2988 70.3896L19.2979 70.3887C19.2972 70.3882 19.2962 70.3876 19.2949 70.3867C19.2924 70.385 19.289 70.3822 19.2842 70.3789C19.2744 70.3723 19.259 70.3632 19.2402 70.3506C19.2027 70.3253 19.1481 70.2885 19.0801 70.2432C18.9439 70.1523 18.7541 70.0257 18.5391 69.8848C18.3238 69.7437 18.0838 69.5884 17.8477 69.4385L17.1787 69.0254L17.1094 68.9844V68.9043C17.1094 67.3953 17.1232 65.6183 17.1445 63.708L17.3008 51.7119C17.3221 49.8023 17.3359 48.0264 17.3359 46.5186V46.5088L17.3379 46.499L17.3682 46.3018C17.3803 46.234 17.3952 46.1643 17.415 46.0947L17.4473 45.9824L17.5635 45.9932C17.6956 46.0052 17.809 46.0609 17.9053 46.1201C17.9536 46.1499 18.0005 46.1823 18.0439 46.2129C18.0884 46.2442 18.1296 46.273 18.1709 46.2998C18.2536 46.3535 18.3255 46.3895 18.3975 46.4023C18.465 46.4143 18.5428 46.408 18.6406 46.3574L18.6455 46.3545L19.2266 46.0898C19.4202 46.0046 19.6132 45.9213 19.8057 45.8389L20.002 45.7549V45.9688Z" fill="#BAC0E1" stroke="black" stroke-width="0.282014"></path><path d="M17.5488 46.3906C17.5488 49.4093 17.4654 53.4997 17.3818 57.5879C17.2982 61.6771 17.2139 65.7641 17.2139 68.7793V69.0234L17.0029 68.9023L14.8574 67.6699L14.7871 67.6289V67.5469C14.7871 64.9957 14.8667 61.3104 14.9463 57.6299C15.0259 53.9479 15.1055 50.2706 15.1055 47.7324V47.6484L15.1787 47.6084C15.5936 47.3829 15.9179 47.1611 16.248 46.9375C16.5777 46.7142 16.9133 46.4897 17.3428 46.2656L17.5488 46.1582V46.3906Z" fill="#F1F3F2" stroke="black" stroke-width="0.282014"></path><path d="M23.7236 76.0303L23.5078 75.8936L1.2373 61.8447L1.21582 61.8301L1.2002 61.8096C1.14814 61.7398 1.1081 61.6471 1.07715 61.5488C1.04554 61.4485 1.0201 61.3319 0.998047 61.208C0.953914 60.96 0.924487 60.6708 0.905273 60.3984C0.886038 60.1256 0.876867 59.8659 0.87207 59.6748C0.86968 59.5795 0.867791 59.5011 0.867188 59.4463V59.0996L1.08496 59.2412L4.99219 61.7734C5.27467 61.9192 5.6361 62.0995 5.99805 62.2744L7.00977 62.749L7.01758 62.7529L7.02441 62.7568L23.6562 72.9336L23.7236 72.9746V76.0303Z" fill="#35B777" stroke="black" stroke-width="0.282014"></path><path d="M32.4072 30.1543C33.0653 30.5747 33.7466 30.9984 34.4082 31.4395L34.5654 31.5449L34.4209 31.665C33.7967 32.1868 33.118 32.6045 32.4297 32.9912C31.7364 33.3808 31.045 33.7327 30.3672 34.1357V34.1367C26.7352 36.2646 23.0659 38.3561 19.3984 40.4648L19.3965 40.4658C19.3533 40.4898 19.3089 40.5122 19.2666 40.5342C19.2236 40.5565 19.1828 40.5785 19.1426 40.6006C19.0619 40.6449 18.9914 40.6892 18.9326 40.7402C18.8229 40.8356 18.7464 40.9601 18.7539 41.1807V41.1816L18.7656 41.8457C18.7691 42.5105 18.752 43.1772 18.7451 43.8379C18.736 44.7212 18.7449 45.5987 18.8447 46.4697L18.8555 46.5664L18.7695 46.6113C18.6201 46.6888 18.4799 46.707 18.3477 46.6836C18.2198 46.6609 18.1092 46.6008 18.0156 46.54C17.9687 46.5096 17.9222 46.4771 17.8799 46.4473C17.8367 46.4169 17.7968 46.3888 17.7568 46.3643C17.6964 46.3271 17.6415 46.3005 17.5889 46.2871L17.5361 46.2783L17.5156 46.2764L17.4971 46.2686C16.9659 46.0579 16.6129 45.8718 16.4121 45.5039C16.2179 45.1479 16.1797 44.6425 16.1797 43.8447V41.0205L16.1895 40.6768C16.2113 40.3297 16.2722 39.9755 16.4131 39.6523C16.6034 39.216 16.9371 38.8419 17.4961 38.6162C18.3122 38.2532 19.0888 37.8183 19.792 37.2773L19.7998 37.2715L19.8086 37.2666C22.23 35.8908 24.6684 34.5156 27.0889 33.1221L32.2607 30.1514L32.335 30.1084L32.4072 30.1543Z" fill="#35B777" stroke="black" stroke-width="0.282014"></path><path d="M39.4619 39.8047L39.4521 39.8291C39.4164 39.9205 39.3335 39.9585 39.2725 39.9736C39.2092 39.9893 39.1362 39.9897 39.0654 39.9844C38.9219 39.9736 38.7458 39.934 38.5742 39.8828C38.4012 39.8312 38.2254 39.7655 38.0811 39.7002C38.009 39.6676 37.9426 39.6342 37.8877 39.6016C37.8418 39.5743 37.7958 39.5415 37.7607 39.5059V39.5068C37.2777 39.0864 36.7292 38.762 36.1602 38.4512C35.595 38.1425 35.0035 37.8443 34.4561 37.4824L34.3926 37.4404V37.3652C34.3926 35.6961 34.3933 34.0274 34.375 32.3594V32.3477L34.4043 32.1299C34.4153 32.0587 34.4238 31.9942 34.4229 31.9336C34.4211 31.8222 34.3903 31.7295 34.2744 31.6514L33.2754 31.0166L32.2734 30.3662L32.2109 30.3242V28.7266H32.3516C32.399 28.7266 32.4528 28.7375 32.5049 28.752C32.5591 28.767 32.6218 28.7879 32.6904 28.8145C32.8281 28.8677 32.9981 28.9448 33.1914 29.0391C33.5785 29.2279 34.0657 29.4917 34.584 29.7939C35.4896 30.3221 36.4985 30.9718 37.2402 31.5488L37.541 31.791V31.792L37.7422 31.9697C38.733 32.8912 39.4796 34.2472 39.4619 35.8076V35.8086C39.4436 36.9072 39.4436 38.0059 39.4619 39.1045V39.8047Z" fill="#BAC0E1" stroke="black" stroke-width="0.282014"></path><path d="M34.3174 31.5986C34.4697 31.6422 34.5546 31.791 34.6006 31.9189C34.6501 32.0567 34.6737 32.2232 34.6738 32.3818L34.6904 34.8857C34.6927 35.7205 34.6924 36.5552 34.6924 37.3896V37.4688L34.626 37.5098C34.2867 37.7206 33.9476 37.9317 33.6084 38.1426C33.2691 38.3535 32.9291 38.5645 32.5898 38.7754L32.5801 38.7822L32.5684 38.7861C31.6671 39.1467 30.8733 39.6875 30.043 40.2227L30.0342 40.2285L30.0332 40.2275C26.6214 42.0985 23.094 43.9171 19.7812 45.9297C19.7803 45.9304 19.7795 45.9317 19.7783 45.9326C19.7728 45.937 19.7642 45.9439 19.7539 45.9521C19.7333 45.9686 19.7032 45.9913 19.667 46.0195C19.5944 46.0761 19.4954 46.1531 19.3877 46.2314C19.2803 46.3096 19.1628 46.3907 19.0557 46.457C18.9537 46.5202 18.8448 46.5799 18.7588 46.6016L18.6025 46.6406L18.584 46.4814C18.4821 45.5925 18.4681 44.7012 18.4727 43.8135C18.4761 43.1458 18.4903 42.4822 18.4854 41.8184L18.4727 41.1543C18.4619 40.8484 18.5866 40.6487 18.7559 40.5039C18.8369 40.4346 18.9279 40.3785 19.0127 40.3291C19.1012 40.2775 19.1786 40.2356 19.2529 40.1875L19.2588 40.1836L24.7588 37.0176C26.5899 35.9657 28.4185 34.9117 30.2432 33.8389L30.2471 33.8369L30.7607 33.5654C31.2759 33.3048 31.7938 33.0712 32.2891 32.8242C32.9549 32.4921 33.595 32.1297 34.1875 31.627L34.2451 31.5781L34.3174 31.5986Z" fill="#9DD4B2" stroke="black" stroke-width="0.282014"></path><path d="M33.3682 38.582C34.9893 38.5425 36.5786 38.7364 37.8955 39.6328H37.8945L39.5977 40.6768L41.8398 41.9873L41.8418 41.9883C41.8436 41.9893 41.8461 41.9911 41.8496 41.9932C41.8567 41.9972 41.867 42.0038 41.8809 42.0117C41.9087 42.0276 41.9501 42.0508 42.0029 42.0811C42.1087 42.1417 42.2623 42.2298 42.4521 42.3389C42.8318 42.5569 43.3578 42.8594 43.9434 43.1982C45.1109 43.8739 46.5168 44.6942 47.4717 45.2725L47.4785 45.2754L47.5879 45.3301C47.6604 45.3661 47.7606 45.4163 47.8711 45.4727C48.0909 45.5849 48.3571 45.7241 48.5273 45.8281H48.5264C48.9274 46.0468 49.3287 46.261 49.7305 46.4756L50.9414 47.127L50.9443 47.1289L53.127 48.376L53.1367 48.3809L53.0566 48.498L53.1367 48.3818C53.5061 48.6341 54.0914 48.9658 54.5889 49.2363C54.8368 49.3712 55.062 49.49 55.2246 49.5752C55.3057 49.6177 55.3717 49.6514 55.417 49.6748C55.4396 49.6865 55.4569 49.696 55.4688 49.7021C55.4747 49.7052 55.4794 49.7074 55.4824 49.709C55.4838 49.7097 55.4846 49.7106 55.4854 49.7109H55.4873L55.5 49.7178L55.5117 49.7275C56.1442 50.2425 56.8376 50.6646 57.5527 51.0645C58.2634 51.4618 59.0054 51.842 59.7129 52.2646L59.7139 52.2656L61.0244 53.0381C62.3459 53.8071 63.6917 54.5692 64.9941 55.3643H64.9951C65.5608 55.7037 66.0081 56.1244 66.2891 56.6426C66.5708 57.1623 66.6802 57.7708 66.585 58.4756L66.5801 58.5098L66.5605 58.5371C66.1934 59.0639 65.8126 59.6139 65.2354 60.0254L64.9756 60.1924C62.8853 61.4026 60.8034 62.6273 58.7217 63.8516C57.6812 64.4635 56.6405 65.0752 55.5986 65.6855L52.4668 67.5107C50.8271 68.4581 49.2062 69.4882 47.4609 70.2979L47.46 70.2988C47.4567 70.3009 47.4516 70.3036 47.4453 70.3076C47.4324 70.3158 47.4132 70.3283 47.3887 70.3438C47.3393 70.3749 47.2673 70.42 47.1787 70.4756C47.0016 70.5868 46.7563 70.7405 46.4834 70.9102C46.2107 71.0797 45.9097 71.2657 45.6221 71.4414L44.8379 71.9121C43.8128 72.507 42.7668 73.1527 41.7188 73.7979C40.6714 74.4425 39.622 75.0866 38.5928 75.6748L38.585 75.6797V75.6787L37.915 76.0068L37.9141 76.0059C36.6946 76.6153 35.3758 76.9814 34.0332 77.04L33.7646 77.0479C32.5401 77.0661 31.243 77.0317 30.0898 76.374C29.1736 76.0394 28.3376 75.5736 27.5254 75.084C26.7068 74.5905 25.9179 74.0769 25.0801 73.6396V73.6406C24.8217 73.5115 24.5684 73.377 24.3164 73.2441C24.064 73.1111 23.8128 72.9792 23.5576 72.8516L23.5479 72.8467L22.3584 72.1309L22.3574 72.1299L20.2646 70.8398V70.8389L19.4111 70.3252L19.3438 70.2842V70.2041C19.3438 66.8552 19.4381 62.4541 19.5322 58.0576C19.6264 53.6599 19.7197 49.2667 19.7197 45.9307V45.8516L19.7881 45.8096C23.1094 43.7911 26.4856 41.8462 29.8984 39.9746L29.9043 39.9717L32.6172 38.627L32.6436 38.6143L32.6719 38.6123L33.3682 38.582Z" fill="#F1F3F2" stroke="black" stroke-width="0.282014"></path></svg>