<?xml version="1.0" encoding="UTF-8"?> <svg xmlns="http://www.w3.org/2000/svg" width="141" height="207" viewBox="0 0 141 207" fill="none"><path d="M0.375679 133.997C0.375679 116.78 0.223315 99.4869 0.451861 82.2698C0.604225 70.7663 5.7846 61.6245 15.6121 55.8346C45.6277 38.2366 75.872 21.0195 105.964 3.49766C111.449 0.298015 116.401 -0.463804 121.81 3.49766C126.914 7.23057 133.237 9.05894 137.732 13.706C142.684 18.8102 139.712 47.3785 139.789 53.2445C140.17 77.0894 140.017 100.934 139.941 124.779C139.941 136.816 134.608 146.11 124.324 152.129C94.308 169.65 64.0638 186.944 33.9719 204.389C28.7154 207.437 23.9921 207.97 18.8117 204.313C15.3073 201.875 11.4982 199.666 7.68914 197.762C2.43259 195.171 0.604225 190.981 0.680407 185.42C0.756589 168.279 0.680407 151.138 0.680407 134.073C0.528043 133.997 0.451861 133.997 0.375679 133.997ZM128.133 9.82076C125.466 8.22094 122.724 7.00203 120.438 5.24984C116.02 1.97402 111.982 2.43111 107.487 5.17366C99.4884 10.0493 91.3369 14.544 83.1854 19.2673C61.5498 31.8373 39.8379 44.3312 17.7452 57.0536C21.7828 59.339 25.5919 61.3197 29.0963 63.7576C31.2294 65.205 32.753 64.9003 34.8861 63.6814C65.8921 45.7025 96.8982 27.8759 128.133 9.82076ZM29.5534 66.6525C25.211 64.1385 21.0972 61.7768 16.9833 59.2628C15.8406 58.5772 14.9264 58.6534 13.9361 59.4914C7.91769 64.4432 4.03241 70.6139 2.88968 78.3845C2.66114 79.6796 2.73732 80.8985 4.10859 81.6603C7.76533 83.7172 11.3459 85.7742 14.9264 87.9072C16.3739 88.8214 16.9833 88.2882 17.2881 86.8407C18.7355 78.6892 23.0779 72.2138 29.5534 66.6525Z" fill="#0B0A0A"></path><path d="M137.655 46.3118C137.655 62.6147 137.655 78.1558 137.655 93.7731C137.655 104.286 137.807 114.799 137.655 125.389C137.503 135.978 132.856 144.358 123.866 149.691C93.3934 167.517 62.7683 185.115 32.1432 202.713C25.363 206.599 19.7255 203.399 19.6493 195.552C19.4208 161.651 19.1922 127.674 19.0399 93.7731C18.9637 81.8126 24.144 72.6707 34.6572 66.5762C64.4443 49.4352 94.2314 32.2181 124.095 15.001C126.837 13.4012 129.58 11.7252 133.008 12.9441C133.16 13.0203 133.313 13.0964 133.465 13.1726C136.131 14.4677 137.807 17.2865 137.731 20.2575L137.655 46.3118Z" fill="#F6F6F6"></path><path d="M128.133 9.81981C96.898 27.8749 65.8919 45.7015 34.9621 63.6804C32.829 64.8993 31.3053 65.2041 29.1722 63.7566C25.5917 61.395 21.7826 59.4143 17.8211 57.0526C39.8377 44.3302 61.5496 31.7602 83.2614 19.2664C91.3367 14.6193 99.5643 10.0484 107.563 5.17271C112.058 2.43016 116.096 1.97307 120.514 5.2489C122.8 7.00108 125.466 8.21999 128.133 9.81981Z" fill="#35B777"></path><path d="M29.5533 66.654C23.154 72.2153 18.7355 78.6907 17.288 86.8422C17.0595 88.2896 16.2215 199.972 16.2215 199.972C13.6313 198.449 7.84148 194.792 4.7942 192.887C3.57529 192.126 2.88965 190.831 2.88965 189.383C2.88965 173.461 2.81347 79.5287 2.96583 78.3098C4.03238 70.6154 7.91766 64.4447 13.8598 59.4929C14.8502 58.6549 15.7644 58.5787 16.9071 59.2643C21.0209 61.7783 25.211 64.14 29.5533 66.654Z" fill="#35B777"></path><path d="M113.757 88.0886C117.101 89.4765 120.697 90.7382 124.166 92.4416C125.428 93.0724 124.923 94.6496 124.229 95.7851C121.012 100.832 117.795 105.816 114.577 110.8C114.009 111.746 113.189 112.503 111.991 112.124C110.729 111.746 110.729 110.61 110.729 109.538C110.729 103.545 110.666 97.6146 110.729 91.6214C110.666 89.855 111.36 88.4041 113.757 88.0886ZM112.558 109.286C112.748 109.349 112.937 109.412 113.126 109.475C114.956 106.636 116.848 103.797 118.678 100.958C123.599 93.3879 123.535 93.4509 114.767 90.549C113.189 90.0443 112.622 90.2336 112.622 91.8738C112.558 97.6146 112.558 103.419 112.558 109.286Z" fill="#0B0A0A"></path><path d="M52.6903 135.782C52.6903 138.81 52.7534 141.839 52.6903 144.93C52.5642 147.769 51.1763 148.652 48.5897 147.706C45.877 146.696 43.1643 145.498 40.4516 144.488C38.4329 143.731 38.1805 142.469 39.1899 140.829C42.4704 135.593 45.8139 130.42 49.2206 125.247C49.7253 124.427 50.4823 123.796 51.5548 124.111C52.6903 124.427 52.7534 125.436 52.7534 126.382C52.6903 129.537 52.6903 132.691 52.6903 135.782ZM50.7977 127.139C50.6085 127.076 50.4192 127.076 50.23 127.013C47.2018 131.682 44.1737 136.413 41.0825 141.081C40.3254 142.28 40.7671 142.722 41.9026 143.1C44.2368 143.983 46.571 144.867 48.9052 145.813C49.9776 146.255 50.7977 146.381 50.7977 144.867C50.7977 138.937 50.7977 133.006 50.7977 127.139Z" fill="#0B0A0A"></path><path d="M130.447 28.6161L29.0666 87.7611C27.6507 88.5885 26.4959 87.7214 26.4874 85.8278L26.4851 85.3171C26.4765 83.4234 27.6104 79.6604 29.0263 78.833L130.407 19.6881C131.823 18.8607 132.985 21.2865 132.993 23.1802L132.996 23.6909C133.007 25.5845 131.866 27.7887 130.447 28.6161Z" fill="#E0E0E0"></path><path d="M50.5322 70.7806C50.5322 69.0453 52.312 66.6426 53.6913 66.6426C54.8482 66.6426 55.1596 67.4435 55.1152 68.4669C55.0707 70.2467 53.3799 72.5604 51.956 72.5604C50.7547 72.6049 50.5767 71.715 50.5322 70.7806Z" fill="#0B0A0A"></path><path d="M43.5022 74.8731C43.5022 73.0488 45.193 70.7795 46.6169 70.7795C47.7737 70.7795 48.0852 71.5804 48.0852 72.6038C48.0407 74.3391 46.2609 76.6528 44.8816 76.6973C43.5912 76.6973 43.5022 75.8074 43.5022 74.8731Z" fill="#0B0A0A"></path><path d="M36.3384 78.9229C36.4719 76.8761 38.2517 74.7404 39.631 74.8739C40.8769 74.9629 40.9214 75.8972 40.8769 76.8316C40.7879 78.6559 38.9191 80.8807 37.5843 80.7472C36.3829 80.6582 36.3829 79.7238 36.3384 78.9229Z" fill="#0B0A0A"></path><path d="M112.559 109.286C112.559 103.482 112.559 97.6777 112.559 91.8738C112.559 90.2336 113.19 90.0443 114.704 90.549C123.536 93.451 123.536 93.3879 118.615 100.958C116.786 103.797 114.893 106.636 113.064 109.475C112.938 109.349 112.748 109.286 112.559 109.286Z" fill="#35B777"></path><path d="M50.7976 127.139C50.7976 133.069 50.7976 138.936 50.7976 144.867C50.7976 146.381 49.9775 146.254 48.905 145.813C46.5708 144.867 44.2367 143.92 41.9025 143.1C40.83 142.722 40.3253 142.28 41.0823 141.081C44.1736 136.413 47.1386 131.682 50.2298 127.013C50.4191 127.013 50.6084 127.076 50.7976 127.139Z" fill="#35B777"></path><path d="M88.2019 87.9601C89.1782 87.6999 90.1332 87.4615 91.1102 87.2232C92.8799 87.14 93.2054 87.7318 93.2338 88.6073C93.3801 93.1163 93.46 97.6033 93.6937 102.113C94.2167 112.838 94.477 123.563 94.9124 134.289C94.955 135.602 94.5316 136.717 93.5329 137.634C89.5191 141.389 84.6388 144.069 78.8442 145.543C77.868 145.803 76.778 145.931 75.8369 145.251C75.6957 144.944 75.6194 144.615 75.608 144.265C75.2138 134.809 75.1267 125.376 74.5355 115.919C74.1702 110.053 74.1331 104.187 73.9209 98.3208C73.8847 97.2045 74.3145 96.2863 75.2073 95.4787C77.6092 93.296 80.3965 91.5301 83.4564 90.0713C84.2971 89.6795 88.2019 87.9601 88.2019 87.9601ZM90.8685 97.3123C90.3066 97.5298 89.5718 97.8125 88.969 98.1174C84.9837 100.055 81.0006 102.059 77.0153 103.997C76.3045 104.346 76.0773 104.761 76.0993 105.439C76.5158 116.931 76.8659 128.4 77.2605 139.892C77.2747 140.33 77.032 140.942 77.433 141.162C77.9455 141.448 78.3866 140.88 78.8609 140.662C83.298 138.484 87.7138 136.328 92.1508 134.151C93.0989 134.372 92.7063 133.736 92.6978 133.474C92.3342 121.588 91.8174 109.703 91.4319 97.8171C91.4276 97.6858 91.4227 97.5326 91.4177 97.3794C91.4134 97.248 90.9736 97.1813 90.8685 97.3123Z" fill="#9DD4B2" stroke="black" stroke-width="0.414049" stroke-miterlimit="10"></path><path d="M83.4561 90.0707C80.3969 91.5514 77.5869 93.2953 75.207 95.4781C74.336 96.2857 73.8837 97.182 73.9206 98.3202C74.1328 104.186 74.1698 110.052 74.5351 115.919C75.1263 125.375 75.2134 134.808 75.6077 144.264C75.619 144.615 75.6946 144.921 75.8366 145.25C75.0417 145.029 74.371 144.59 73.6382 144.26C72.9943 143.973 73.021 143.448 73.0047 142.945C72.8316 138.283 72.6359 133.598 72.4628 128.936C72.0783 118.429 71.7368 107.901 71.3085 97.3944C71.2652 96.0592 71.7352 95.0317 72.7332 94.0931C74.2838 92.6524 76.0823 91.4312 77.9937 90.3198C78.2944 90.1454 86.4273 86.5543 86.4273 86.5543C88.5012 85.7278 90.4136 85.9952 92.1835 87.269C90.7266 87.5499 89.2922 87.8528 87.8352 88.1337C87.8352 88.1337 84.3391 89.6352 83.4561 90.0707Z" fill="#9DD4B2" stroke="black" stroke-width="0.414049" stroke-miterlimit="10"></path><path d="M92.6052 133.999C88.1682 136.177 83.2985 138.507 78.8607 140.662C78.4083 140.88 77.9672 141.448 77.4328 141.162C77.0318 140.942 77.2745 140.33 77.2603 139.892C76.8657 128.401 76.4937 116.931 76.0991 105.44C76.0764 104.739 76.3036 104.324 77.0151 103.998C81.0223 102.06 84.9835 100.056 88.9688 98.118C89.5716 97.8131 91.4076 97.0735 91.4076 97.0735C91.4344 97.2268 92.437 128.812 92.6052 133.999Z" fill="white" stroke="black" stroke-width="0.414049" stroke-miterlimit="10"></path><path d="M85.1457 96.1218C85.9061 95.1628 85.9791 93.9478 85.3087 93.4081C84.6383 92.8684 83.4784 93.2083 82.718 94.1673C81.9575 95.1264 81.8845 96.3413 82.5549 96.8811C83.2254 97.4208 84.3853 97.0809 85.1457 96.1218Z" fill="#16854C" stroke="black" stroke-width="0.414049" stroke-miterlimit="10"></path><path d="M81.9787 78.9076C83.3863 78.4515 84.8793 78.6084 86.2588 79.3122C87.6383 80.016 88.7941 81.2445 89.5893 82.8223C90.3625 84.4001 90.7059 86.2175 90.5234 88.0118C90.3628 89.8061 89.7158 91.446 88.684 92.6909C87.6733 93.9141 85.5615 95.5941 82.5153 94.7767L83.471 93.8818C83.754 93.8387 84.0999 93.7082 84.4662 93.5341C84.8545 93.3599 85.2624 93.1202 85.6478 92.8585C86.4405 92.3352 87.2084 91.7243 87.5867 91.2437C88.3659 90.3045 88.8506 89.0582 88.9816 87.7015C89.1127 86.3449 88.8491 84.9654 88.2637 83.782C87.6783 82.5987 86.7936 81.6335 85.7262 81.1056C84.658 80.5557 83.4946 80.4434 82.3899 80.7909C81.3071 81.1384 80.3698 81.9239 79.7043 82.9947C79.0614 84.0875 78.732 85.3999 78.776 86.7569C78.798 87.4355 78.8115 87.8514 78.8688 88.2673C78.9253 88.6614 79.0249 89.0338 79.2403 89.6034L78.1413 90.1259C77.7035 89.4463 77.4938 89.0519 77.392 88.6139C77.2896 88.154 77.2951 87.6506 77.2434 86.7312C77.1845 84.9145 77.6092 83.1646 78.4821 81.7442C79.3565 80.3675 80.5931 79.3638 81.9787 78.9076Z" fill="#35B777" stroke="black" stroke-width="0.414049"></path><path d="M81.3074 79.1463C82.7149 78.6902 84.208 78.8471 85.5875 79.5509C86.967 80.2547 88.1228 81.4833 88.9179 83.0611C89.6912 84.6388 90.0346 86.4563 89.8521 88.2505C89.6915 90.0449 89.0445 91.6847 88.0126 92.9297C87.0013 94.131 84.9134 95.1982 82.5555 94.689L83.4434 93.7282C84.0095 93.642 84.6772 93.3154 85.2984 92.9011C85.9407 92.465 86.5364 91.9412 86.9154 91.4825C87.6945 90.5433 88.1793 89.2969 88.3103 87.9403C88.4414 86.5837 88.1778 85.2041 87.5924 84.0208C87.007 82.8375 86.1223 81.8723 85.0548 81.3443C83.9867 80.7945 82.8233 80.6822 81.7186 81.0296C80.6358 81.3771 79.6985 82.1627 79.033 83.2335C78.3901 84.3262 78.0606 85.6386 78.1047 86.9957C78.1267 87.6742 78.138 88.0245 78.2158 88.3967C78.2935 88.769 78.415 89.1414 78.6791 89.8643L77.4079 90.474C77.4071 90.4521 77.3852 90.452 77.3627 90.4301C77.3168 90.3643 77.2927 90.2986 77.2454 90.189C77.1515 89.9918 77.0555 89.7289 76.9573 89.4004C76.7616 88.7652 76.6026 87.9112 76.5728 86.9919C76.5139 85.1752 76.9385 83.4253 77.8115 82.0048C78.6633 80.6062 79.8999 79.6025 81.3074 79.1463Z" fill="#9DD4B2" stroke="black" stroke-width="0.414049"></path><path d="M28.1193 182.469C27.9189 182.469 27.7161 182.417 27.5353 182.312C27.1761 182.105 26.9513 181.721 26.9513 181.303L26.9464 104.726C26.9464 104.311 27.1688 103.924 27.5304 103.717L131.745 43.5472C132.104 43.3371 132.552 43.3371 132.911 43.5472C133.27 43.7549 133.495 44.1385 133.495 44.5564V121.134C133.495 121.551 133.272 121.935 132.911 122.143L28.7008 182.31C28.5224 182.417 28.3196 182.469 28.1193 182.469ZM29.2824 105.4L29.2872 179.282L131.166 120.459V46.5771L29.2824 105.4Z" fill="#455A64"></path></svg> 