<svg xmlns="http://www.w3.org/2000/svg" width="35" height="37" viewBox="0 0 35 37" fill="none"><mask id="path-1-inside-1_1_1328" fill="white"><path d="M34.6115 10.597C33.771 10.1301 32.9389 9.63791 32.1077 9.15041C31.68 8.90012 31.6893 7.96528 32.1189 7.71592C32.8987 7.26298 33.6907 6.83058 34.4537 6.35055C34.5468 6.28359 34.6254 6.1984 34.6847 6.10015C34.7439 6.0019 34.7826 5.89264 34.7983 5.779C34.8431 5.17373 34.8431 4.56596 34.7983 3.96069C34.7831 3.84653 34.7445 3.73673 34.6851 3.63809C34.6256 3.53945 34.5466 3.45407 34.4528 3.38727C33.1612 2.60932 31.8453 1.87153 30.549 1.102C30.2689 0.938562 30.0709 0.941364 29.7898 1.102C25.7936 3.41528 21.7871 5.70896 17.7937 8.02692C17.3576 8.28094 17.0055 8.36686 16.5796 8.03439C16.0781 7.64308 15.5206 7.44136 14.9164 7.8308C14.6651 6.71758 14.4382 5.65479 14.1692 4.60321C14.1056 4.38518 13.9662 4.19705 13.7761 4.07276C12.43 3.26337 11.073 2.47359 9.70516 1.70343C9.61907 1.66311 9.52532 1.64174 9.43026 1.64078C9.3352 1.63981 9.24105 1.65926 9.15416 1.69783C7.74396 2.48885 6.34683 3.30228 4.95158 4.11945C4.82084 4.19959 4.71482 4.31433 4.64525 4.45099C3.13294 7.5335 1.62686 10.6198 0.12701 13.7097C0.0460629 13.8757 0.00269801 14.0574 0 14.2421C0 16.4059 1.59481e-06 18.5698 0.0308205 20.7327C0.0549449 20.986 0.167339 21.2227 0.348345 21.4014C0.815299 21.8609 1.33642 22.2578 1.80057 22.7154C1.96571 22.8849 2.06503 23.1078 2.08075 23.3439C2.10036 25.025 2.08728 26.706 2.08075 28.387C2.08075 28.5234 2.06487 28.6607 2.0574 28.7905C1.04224 28.9408 0.681752 29.3592 0.82931 30.3202C0.976867 31.2812 1.46344 32.0713 2.34411 32.5513C3.11738 32.9734 3.8505 32.5691 3.91494 31.6902C3.98404 30.7563 3.56472 30.0167 2.93994 29.3555C2.76839 29.1731 2.66456 28.9374 2.64576 28.6877C2.63455 27.8173 2.63455 26.946 2.63829 26.0728C2.63829 25.637 2.64047 25.2012 2.64482 24.7653C2.64482 24.3423 2.62895 23.9248 2.70926 23.5046C2.69432 23.5793 2.94274 23.7418 2.9941 23.7847L3.45639 24.1863C3.82995 24.5066 4.19044 24.8354 4.57708 25.1361C5.22662 25.6346 5.90829 26.0898 6.61766 26.4987C7.30782 26.9049 8.01853 27.2803 8.72363 27.652C9.05983 27.8295 9.42592 28.0863 9.80975 27.8622C11.1266 27.0945 12.4574 26.353 13.763 25.5694C13.9916 25.4256 14.1554 25.1986 14.2197 24.9362C14.5409 22.9582 14.8958 20.9811 15.0845 18.9891C15.1872 17.9076 15.3927 17.1045 16.5152 16.6543C17.409 16.2939 18.214 15.712 19.1077 15.2003V28.5374L18.5072 28.754C17.0821 29.2696 16.4797 30.1297 16.4947 31.6295C16.4947 32.0339 16.533 32.4411 16.4947 32.8436C16.3863 34.0839 17.0429 34.8655 18.0655 35.353C20.1481 36.3439 22.2569 36.2813 24.3161 35.2802C25.3509 34.7768 25.9206 33.9363 25.8197 32.7222C25.7822 32.241 25.7722 31.758 25.7898 31.2756C25.8197 30.3566 25.3985 29.6833 24.6542 29.2163C24.1872 28.9249 23.668 28.7186 23.1842 28.4795V15.7737C23.4252 15.9091 23.6232 15.9997 23.7997 16.1202C24.5029 16.602 25.0352 16.4349 25.589 15.7895C25.8643 15.4548 26.0698 15.0684 26.1933 14.653C26.4015 13.9806 26.1933 13.5687 25.5853 13.2092C25.1081 12.929 24.6262 12.6572 24.0761 12.3406L26.7237 10.8202C26.7237 11.1004 26.7237 11.2685 26.7237 11.4366C26.7237 13.3978 26.7237 15.359 26.7004 17.3202C26.7004 17.677 26.8125 17.8806 27.1253 18.0608C28.6432 18.9144 30.1518 19.7836 31.651 20.6683C31.9742 20.8551 32.1385 20.8037 32.33 20.5114C33.149 19.2637 33.9886 18.0291 34.803 16.7758C34.914 16.5914 34.9728 16.3802 34.9729 16.165C34.9907 14.5316 34.9813 12.8963 34.9991 11.2629C35.0122 10.9379 34.8852 10.7539 34.6115 10.597ZM9.25502 2.27499C9.30876 2.25133 9.367 2.23966 9.42571 2.24079C9.48441 2.24192 9.54217 2.25582 9.59496 2.28152C10.809 2.97261 12.011 3.67491 13.2923 4.41923C12.7114 4.75731 12.1884 5.06456 11.6626 5.36902C11.0089 5.74912 10.3496 6.13482 9.68274 6.49811C9.55293 6.56909 9.33346 6.61952 9.22233 6.55695C8.00825 5.87613 6.80258 5.17103 5.51659 4.4267C6.81192 3.67771 8.02973 2.96981 9.25502 2.27499ZM3.37514 31.6099C3.363 32.1264 3.04267 32.3085 2.59253 32.0535C2.25339 31.8681 1.9652 31.6019 1.75343 31.2786C1.54167 30.9553 1.41288 30.5847 1.37845 30.1997C1.38405 29.4199 1.7352 29.2042 2.25072 29.546C2.98103 30.0223 3.39662 30.7106 3.37514 31.6099ZM4.44446 23.0964C3.86731 22.7649 3.34806 22.4894 2.85682 22.1681C2.74008 22.0906 2.67004 21.8618 2.67004 21.7012C2.65323 20.9083 2.67004 20.1135 2.67004 19.3225C2.67004 19.2133 2.70459 19.089 2.66257 18.9994C2.57705 18.845 2.47864 18.6982 2.36839 18.5604C2.2834 18.7005 2.13024 18.8406 2.12464 18.9835C2.09849 19.697 2.11063 20.4133 2.1097 21.1315C2.1097 21.2977 2.1097 21.464 2.1097 21.7497C1.57737 21.4369 1.12723 21.1829 0.690158 20.9092C0.620115 20.8653 0.579958 20.7224 0.579958 20.6291C0.573421 18.6258 0.57529 16.6235 0.57529 14.5288C1.05345 14.7996 1.47838 15.0378 1.9005 15.2815C2.65417 15.7158 3.41063 16.1463 4.15495 16.5964C4.28103 16.6721 4.43512 16.8374 4.43512 16.9635C4.45006 18.9695 4.44446 20.9886 4.44446 23.0927V23.0964ZM0.636925 13.9049C2.12464 10.8595 3.59461 7.85321 5.08139 4.81147L9.03088 7.10048C7.5525 10.1301 6.08347 13.1345 4.58828 16.2005L0.636925 13.9049ZM14.7501 16.6133C14.5982 19.3433 14.2486 22.0587 13.7041 24.7382C13.6489 24.925 13.5261 25.0846 13.3595 25.1856C12.1828 25.8813 10.9893 26.5472 9.81069 27.2402C9.56414 27.3849 9.41191 27.3635 9.20271 27.1767C7.89525 26.0056 6.56816 24.8531 5.2635 23.6764C5.11858 23.528 5.03432 23.3308 5.02722 23.1235C5.00419 21.0689 4.9964 19.0159 5.00387 16.9644C5.00928 16.7181 5.06824 16.4759 5.17664 16.2546C6.58622 13.3483 8.0042 10.4464 9.43059 7.54875C9.5109 7.38719 9.60803 7.19481 9.75185 7.10982C11.0341 6.35336 12.3294 5.61557 13.7564 4.79934C14.0366 6.46356 14.3355 8.01758 14.5391 9.58374C14.8444 11.9176 14.879 14.2635 14.7501 16.6133ZM15.1863 8.35752C15.7298 7.8971 16.0809 8.46865 16.6488 8.66758L15.1153 9.55946C15.0966 9.11305 14.7744 8.70493 15.1863 8.35565V8.35752ZM15.4991 9.96851C20.2577 7.24088 25.0103 4.50453 29.7571 1.75947C30.0372 1.5951 30.2614 1.56148 30.5621 1.74359C31.5567 2.34876 32.5737 2.91938 33.5814 3.50494C33.6851 3.56471 33.7813 3.63755 33.955 3.75523L32.2908 4.67139L32.3057 4.65831H32.2973C30.5584 5.67534 28.8232 6.69983 27.0777 7.70658C23.3782 9.84274 19.6759 11.9739 15.9707 14.1001C15.7989 14.1991 15.6224 14.2916 15.4104 14.4064C15.383 14.3065 15.3627 14.2048 15.3497 14.102C15.2993 12.9056 15.2563 11.7093 15.1984 10.5139C15.19 10.2543 15.2526 10.1077 15.4991 9.96851ZM24.7261 34.1315C24.7102 34.2837 24.5674 34.4602 24.4329 34.5564C23.1852 35.4548 21.7554 35.6108 20.2919 35.4315C19.6016 35.3357 18.9294 35.138 18.2971 34.845C17.2567 34.378 16.9523 33.7243 17.083 32.5887C19.5691 34.2697 22.0953 34.2081 24.7411 32.9361C24.7567 33.3345 24.7517 33.7335 24.7261 34.1315ZM24.9699 30.2567C25.349 30.7638 25.3042 31.4334 24.8923 31.9377C24.445 32.4915 23.8352 32.8119 23.1758 33.0071C21.5761 33.4833 19.9819 33.474 18.4456 32.7596C17.7405 32.4327 17.0746 31.9975 17.0447 31.1103C17.0148 30.2231 17.6733 29.8112 18.3373 29.4377C18.5623 29.3116 18.8182 29.2406 19.1273 29.1164C19.1273 29.6609 19.147 30.1372 19.1273 30.6107C19.0965 31.2102 19.3954 31.5894 19.8997 31.8247C20.2866 32.0103 20.7103 32.1066 21.1394 32.1066C21.5686 32.1066 21.9923 32.0103 22.3792 31.8247C22.8816 31.595 23.1833 31.2149 23.1572 30.6181C23.1357 30.14 23.1572 29.6599 23.1572 29.1351C23.9146 29.3219 24.5263 29.6637 24.9699 30.2576V30.2567ZM19.6849 22.8966H19.6952C19.6952 20.362 19.6952 17.8273 19.6952 15.2927C19.6952 14.6633 20.4918 14.2047 21.0306 14.5185C21.3528 14.7053 21.6592 14.9341 22.0019 15.0686C22.5258 15.2759 22.6118 15.6289 22.609 16.1538C22.5847 20.927 22.5931 25.7011 22.5903 30.4752C22.5903 31.0524 22.4138 31.3027 21.8646 31.4353C21.5957 31.5007 21.3043 31.5642 21.0362 31.5287C19.768 31.3783 19.6587 31.1551 19.6737 30.1232C19.7092 27.7183 19.6849 25.307 19.6849 22.8975V22.8966ZM25.0082 13.9768C25.1417 13.8778 25.3817 13.8003 25.5125 13.8554C25.6432 13.9105 25.6694 14.1487 25.6992 14.2225C25.6348 14.9098 25.3742 15.373 24.8886 15.6831C24.814 15.7299 24.7304 15.7606 24.6432 15.7731C24.5561 15.7857 24.4672 15.7798 24.3824 15.7559C24.289 15.7158 24.2396 15.4627 24.2489 15.3105C24.2666 15.0454 24.3442 14.7878 24.4757 14.557C24.6072 14.3262 24.7892 14.1282 25.0082 13.9778V13.9768ZM24.6719 13.3231C24.2834 13.9852 23.9146 14.6119 23.5074 15.3049L21.2193 13.9974C21.9907 13.5482 22.6827 13.1419 23.3804 12.745C23.4201 12.7242 23.4637 12.712 23.5085 12.7093C23.5532 12.7065 23.598 12.7133 23.64 12.7291C24.0182 12.9318 24.3871 13.1569 24.6719 13.324V13.3231ZM23.9519 11.7747C21.3121 13.2963 18.6728 14.8189 16.0342 16.3424C15.8213 16.4657 15.6056 16.5824 15.3347 16.7337C15.3347 16.221 15.3049 15.7839 15.3506 15.3543C15.3674 15.1965 15.5374 15.006 15.6831 14.9182C18.2638 13.4184 20.8476 11.9263 23.4345 10.442L33.8205 4.46033C33.9372 4.39309 34.0596 4.33705 34.2566 4.23619C34.2566 4.76758 34.2744 5.22706 34.2436 5.68374C34.2352 5.79675 34.0867 5.93403 33.9699 6.00127C30.6346 7.93072 27.2953 9.85551 23.9519 11.7756V11.7747ZM31.2607 9.82189C31.2439 10.1954 30.9347 10.1786 30.6723 10.1786C30.4099 10.1786 30.1493 10.1525 30.1176 9.77706C30.0419 8.89732 30.2717 8.57699 31.2663 8.29308C31.2663 8.81233 31.2831 9.31851 31.2607 9.82282V9.82189ZM31.6996 19.9202C31.6996 19.9296 31.679 19.9398 31.6146 19.9977C30.2287 19.2002 28.8409 18.4101 27.4662 17.5976C27.3551 17.5322 27.2794 17.3174 27.2794 17.1736C27.2701 15.0592 27.2794 12.9449 27.2794 10.8314C27.2794 10.3692 27.4587 10.2618 27.851 10.4859C29.065 11.1789 30.2748 11.8787 31.4801 12.5853C31.5922 12.6507 31.7201 12.8104 31.7201 12.9271C31.7248 15.2591 31.7108 17.5901 31.6996 19.9212V19.9202ZM32.1479 12.1482C32.0935 12.1688 32.0353 12.1774 31.9773 12.1735C31.9193 12.1697 31.8628 12.1534 31.8117 12.1258C30.6125 11.4441 29.419 10.7521 28.1358 10.0115L29.4293 9.26434C29.575 9.68927 29.6291 10.1403 29.8682 10.4457C30.0288 10.6493 30.45 10.711 30.7592 10.7212C31.4362 10.7446 31.7407 10.4411 31.8677 9.66125L34.1707 10.9818C33.4637 11.3983 32.81 11.784 32.1479 12.1492V12.1482ZM33.2686 18.1673C33.1173 18.3839 32.9622 18.5978 32.8072 18.8126C32.6522 19.0274 32.5046 19.3094 32.3132 19.4925C32.2469 19.2702 32.2702 18.9826 32.2637 18.7454C32.2562 18.4885 32.2553 18.2317 32.2571 17.9758C32.2618 17.451 32.2786 16.927 32.2795 16.4031C32.2795 15.3235 32.2795 14.2439 32.2795 13.1643C32.2795 12.8207 32.386 12.6367 32.6886 12.4798C33.262 12.1819 33.8093 11.8373 34.4425 11.4693C34.3257 11.5375 34.407 11.9605 34.4107 12.0707C34.45 13.2549 34.4247 14.4391 34.4247 15.6196C34.4247 16.1967 34.0895 16.8411 33.8084 17.3268C33.6393 17.6209 33.4572 17.8964 33.2686 18.1682V18.1673Z"></path></mask><path d="M34.6115 10.597C33.771 10.1301 32.9389 9.63791 32.1077 9.15041C31.68 8.90012 31.6893 7.96528 32.1189 7.71592C32.8987 7.26298 33.6907 6.83058 34.4537 6.35055C34.5468 6.28359 34.6254 6.1984 34.6847 6.10015C34.7439 6.0019 34.7826 5.89264 34.7983 5.779C34.8431 5.17373 34.8431 4.56596 34.7983 3.96069C34.7831 3.84653 34.7445 3.73673 34.6851 3.63809C34.6256 3.53945 34.5466 3.45407 34.4528 3.38727C33.1612 2.60932 31.8453 1.87153 30.549 1.102C30.2689 0.938562 30.0709 0.941364 29.7898 1.102C25.7936 3.41528 21.7871 5.70896 17.7937 8.02692C17.3576 8.28094 17.0055 8.36686 16.5796 8.03439C16.0781 7.64308 15.5206 7.44136 14.9164 7.8308C14.6651 6.71758 14.4382 5.65479 14.1692 4.60321C14.1056 4.38518 13.9662 4.19705 13.7761 4.07276C12.43 3.26337 11.073 2.47359 9.70516 1.70343C9.61907 1.66311 9.52532 1.64174 9.43026 1.64078C9.3352 1.63981 9.24105 1.65926 9.15416 1.69783C7.74396 2.48885 6.34683 3.30228 4.95158 4.11945C4.82084 4.19959 4.71482 4.31433 4.64525 4.45099C3.13294 7.5335 1.62686 10.6198 0.12701 13.7097C0.0460629 13.8757 0.00269801 14.0574 0 14.2421C0 16.4059 1.59481e-06 18.5698 0.0308205 20.7327C0.0549449 20.986 0.167339 21.2227 0.348345 21.4014C0.815299 21.8609 1.33642 22.2578 1.80057 22.7154C1.96571 22.8849 2.06503 23.1078 2.08075 23.3439C2.10036 25.025 2.08728 26.706 2.08075 28.387C2.08075 28.5234 2.06487 28.6607 2.0574 28.7905C1.04224 28.9408 0.681752 29.3592 0.82931 30.3202C0.976867 31.2812 1.46344 32.0713 2.34411 32.5513C3.11738 32.9734 3.8505 32.5691 3.91494 31.6902C3.98404 30.7563 3.56472 30.0167 2.93994 29.3555C2.76839 29.1731 2.66456 28.9374 2.64576 28.6877C2.63455 27.8173 2.63455 26.946 2.63829 26.0728C2.63829 25.637 2.64047 25.2012 2.64482 24.7653C2.64482 24.3423 2.62895 23.9248 2.70926 23.5046C2.69432 23.5793 2.94274 23.7418 2.9941 23.7847L3.45639 24.1863C3.82995 24.5066 4.19044 24.8354 4.57708 25.1361C5.22662 25.6346 5.90829 26.0898 6.61766 26.4987C7.30782 26.9049 8.01853 27.2803 8.72363 27.652C9.05983 27.8295 9.42592 28.0863 9.80975 27.8622C11.1266 27.0945 12.4574 26.353 13.763 25.5694C13.9916 25.4256 14.1554 25.1986 14.2197 24.9362C14.5409 22.9582 14.8958 20.9811 15.0845 18.9891C15.1872 17.9076 15.3927 17.1045 16.5152 16.6543C17.409 16.2939 18.214 15.712 19.1077 15.2003V28.5374L18.5072 28.754C17.0821 29.2696 16.4797 30.1297 16.4947 31.6295C16.4947 32.0339 16.533 32.4411 16.4947 32.8436C16.3863 34.0839 17.0429 34.8655 18.0655 35.353C20.1481 36.3439 22.2569 36.2813 24.3161 35.2802C25.3509 34.7768 25.9206 33.9363 25.8197 32.7222C25.7822 32.241 25.7722 31.758 25.7898 31.2756C25.8197 30.3566 25.3985 29.6833 24.6542 29.2163C24.1872 28.9249 23.668 28.7186 23.1842 28.4795V15.7737C23.4252 15.9091 23.6232 15.9997 23.7997 16.1202C24.5029 16.602 25.0352 16.4349 25.589 15.7895C25.8643 15.4548 26.0698 15.0684 26.1933 14.653C26.4015 13.9806 26.1933 13.5687 25.5853 13.2092C25.1081 12.929 24.6262 12.6572 24.0761 12.3406L26.7237 10.8202C26.7237 11.1004 26.7237 11.2685 26.7237 11.4366C26.7237 13.3978 26.7237 15.359 26.7004 17.3202C26.7004 17.677 26.8125 17.8806 27.1253 18.0608C28.6432 18.9144 30.1518 19.7836 31.651 20.6683C31.9742 20.8551 32.1385 20.8037 32.33 20.5114C33.149 19.2637 33.9886 18.0291 34.803 16.7758C34.914 16.5914 34.9728 16.3802 34.9729 16.165C34.9907 14.5316 34.9813 12.8963 34.9991 11.2629C35.0122 10.9379 34.8852 10.7539 34.6115 10.597ZM9.25502 2.27499C9.30876 2.25133 9.367 2.23966 9.42571 2.24079C9.48441 2.24192 9.54217 2.25582 9.59496 2.28152C10.809 2.97261 12.011 3.67491 13.2923 4.41923C12.7114 4.75731 12.1884 5.06456 11.6626 5.36902C11.0089 5.74912 10.3496 6.13482 9.68274 6.49811C9.55293 6.56909 9.33346 6.61952 9.22233 6.55695C8.00825 5.87613 6.80258 5.17103 5.51659 4.4267C6.81192 3.67771 8.02973 2.96981 9.25502 2.27499ZM3.37514 31.6099C3.363 32.1264 3.04267 32.3085 2.59253 32.0535C2.25339 31.8681 1.9652 31.6019 1.75343 31.2786C1.54167 30.9553 1.41288 30.5847 1.37845 30.1997C1.38405 29.4199 1.7352 29.2042 2.25072 29.546C2.98103 30.0223 3.39662 30.7106 3.37514 31.6099ZM4.44446 23.0964C3.86731 22.7649 3.34806 22.4894 2.85682 22.1681C2.74008 22.0906 2.67004 21.8618 2.67004 21.7012C2.65323 20.9083 2.67004 20.1135 2.67004 19.3225C2.67004 19.2133 2.70459 19.089 2.66257 18.9994C2.57705 18.845 2.47864 18.6982 2.36839 18.5604C2.2834 18.7005 2.13024 18.8406 2.12464 18.9835C2.09849 19.697 2.11063 20.4133 2.1097 21.1315C2.1097 21.2977 2.1097 21.464 2.1097 21.7497C1.57737 21.4369 1.12723 21.1829 0.690158 20.9092C0.620115 20.8653 0.579958 20.7224 0.579958 20.6291C0.573421 18.6258 0.57529 16.6235 0.57529 14.5288C1.05345 14.7996 1.47838 15.0378 1.9005 15.2815C2.65417 15.7158 3.41063 16.1463 4.15495 16.5964C4.28103 16.6721 4.43512 16.8374 4.43512 16.9635C4.45006 18.9695 4.44446 20.9886 4.44446 23.0927V23.0964ZM0.636925 13.9049C2.12464 10.8595 3.59461 7.85321 5.08139 4.81147L9.03088 7.10048C7.5525 10.1301 6.08347 13.1345 4.58828 16.2005L0.636925 13.9049ZM14.7501 16.6133C14.5982 19.3433 14.2486 22.0587 13.7041 24.7382C13.6489 24.925 13.5261 25.0846 13.3595 25.1856C12.1828 25.8813 10.9893 26.5472 9.81069 27.2402C9.56414 27.3849 9.41191 27.3635 9.20271 27.1767C7.89525 26.0056 6.56816 24.8531 5.2635 23.6764C5.11858 23.528 5.03432 23.3308 5.02722 23.1235C5.00419 21.0689 4.9964 19.0159 5.00387 16.9644C5.00928 16.7181 5.06824 16.4759 5.17664 16.2546C6.58622 13.3483 8.0042 10.4464 9.43059 7.54875C9.5109 7.38719 9.60803 7.19481 9.75185 7.10982C11.0341 6.35336 12.3294 5.61557 13.7564 4.79934C14.0366 6.46356 14.3355 8.01758 14.5391 9.58374C14.8444 11.9176 14.879 14.2635 14.7501 16.6133ZM15.1863 8.35752C15.7298 7.8971 16.0809 8.46865 16.6488 8.66758L15.1153 9.55946C15.0966 9.11305 14.7744 8.70493 15.1863 8.35565V8.35752ZM15.4991 9.96851C20.2577 7.24088 25.0103 4.50453 29.7571 1.75947C30.0372 1.5951 30.2614 1.56148 30.5621 1.74359C31.5567 2.34876 32.5737 2.91938 33.5814 3.50494C33.6851 3.56471 33.7813 3.63755 33.955 3.75523L32.2908 4.67139L32.3057 4.65831H32.2973C30.5584 5.67534 28.8232 6.69983 27.0777 7.70658C23.3782 9.84274 19.6759 11.9739 15.9707 14.1001C15.7989 14.1991 15.6224 14.2916 15.4104 14.4064C15.383 14.3065 15.3627 14.2048 15.3497 14.102C15.2993 12.9056 15.2563 11.7093 15.1984 10.5139C15.19 10.2543 15.2526 10.1077 15.4991 9.96851ZM24.7261 34.1315C24.7102 34.2837 24.5674 34.4602 24.4329 34.5564C23.1852 35.4548 21.7554 35.6108 20.2919 35.4315C19.6016 35.3357 18.9294 35.138 18.2971 34.845C17.2567 34.378 16.9523 33.7243 17.083 32.5887C19.5691 34.2697 22.0953 34.2081 24.7411 32.9361C24.7567 33.3345 24.7517 33.7335 24.7261 34.1315ZM24.9699 30.2567C25.349 30.7638 25.3042 31.4334 24.8923 31.9377C24.445 32.4915 23.8352 32.8119 23.1758 33.0071C21.5761 33.4833 19.9819 33.474 18.4456 32.7596C17.7405 32.4327 17.0746 31.9975 17.0447 31.1103C17.0148 30.2231 17.6733 29.8112 18.3373 29.4377C18.5623 29.3116 18.8182 29.2406 19.1273 29.1164C19.1273 29.6609 19.147 30.1372 19.1273 30.6107C19.0965 31.2102 19.3954 31.5894 19.8997 31.8247C20.2866 32.0103 20.7103 32.1066 21.1394 32.1066C21.5686 32.1066 21.9923 32.0103 22.3792 31.8247C22.8816 31.595 23.1833 31.2149 23.1572 30.6181C23.1357 30.14 23.1572 29.6599 23.1572 29.1351C23.9146 29.3219 24.5263 29.6637 24.9699 30.2576V30.2567ZM19.6849 22.8966H19.6952C19.6952 20.362 19.6952 17.8273 19.6952 15.2927C19.6952 14.6633 20.4918 14.2047 21.0306 14.5185C21.3528 14.7053 21.6592 14.9341 22.0019 15.0686C22.5258 15.2759 22.6118 15.6289 22.609 16.1538C22.5847 20.927 22.5931 25.7011 22.5903 30.4752C22.5903 31.0524 22.4138 31.3027 21.8646 31.4353C21.5957 31.5007 21.3043 31.5642 21.0362 31.5287C19.768 31.3783 19.6587 31.1551 19.6737 30.1232C19.7092 27.7183 19.6849 25.307 19.6849 22.8975V22.8966ZM25.0082 13.9768C25.1417 13.8778 25.3817 13.8003 25.5125 13.8554C25.6432 13.9105 25.6694 14.1487 25.6992 14.2225C25.6348 14.9098 25.3742 15.373 24.8886 15.6831C24.814 15.7299 24.7304 15.7606 24.6432 15.7731C24.5561 15.7857 24.4672 15.7798 24.3824 15.7559C24.289 15.7158 24.2396 15.4627 24.2489 15.3105C24.2666 15.0454 24.3442 14.7878 24.4757 14.557C24.6072 14.3262 24.7892 14.1282 25.0082 13.9778V13.9768ZM24.6719 13.3231C24.2834 13.9852 23.9146 14.6119 23.5074 15.3049L21.2193 13.9974C21.9907 13.5482 22.6827 13.1419 23.3804 12.745C23.4201 12.7242 23.4637 12.712 23.5085 12.7093C23.5532 12.7065 23.598 12.7133 23.64 12.7291C24.0182 12.9318 24.3871 13.1569 24.6719 13.324V13.3231ZM23.9519 11.7747C21.3121 13.2963 18.6728 14.8189 16.0342 16.3424C15.8213 16.4657 15.6056 16.5824 15.3347 16.7337C15.3347 16.221 15.3049 15.7839 15.3506 15.3543C15.3674 15.1965 15.5374 15.006 15.6831 14.9182C18.2638 13.4184 20.8476 11.9263 23.4345 10.442L33.8205 4.46033C33.9372 4.39309 34.0596 4.33705 34.2566 4.23619C34.2566 4.76758 34.2744 5.22706 34.2436 5.68374C34.2352 5.79675 34.0867 5.93403 33.9699 6.00127C30.6346 7.93072 27.2953 9.85551 23.9519 11.7756V11.7747ZM31.2607 9.82189C31.2439 10.1954 30.9347 10.1786 30.6723 10.1786C30.4099 10.1786 30.1493 10.1525 30.1176 9.77706C30.0419 8.89732 30.2717 8.57699 31.2663 8.29308C31.2663 8.81233 31.2831 9.31851 31.2607 9.82282V9.82189ZM31.6996 19.9202C31.6996 19.9296 31.679 19.9398 31.6146 19.9977C30.2287 19.2002 28.8409 18.4101 27.4662 17.5976C27.3551 17.5322 27.2794 17.3174 27.2794 17.1736C27.2701 15.0592 27.2794 12.9449 27.2794 10.8314C27.2794 10.3692 27.4587 10.2618 27.851 10.4859C29.065 11.1789 30.2748 11.8787 31.4801 12.5853C31.5922 12.6507 31.7201 12.8104 31.7201 12.9271C31.7248 15.2591 31.7108 17.5901 31.6996 19.9212V19.9202ZM32.1479 12.1482C32.0935 12.1688 32.0353 12.1774 31.9773 12.1735C31.9193 12.1697 31.8628 12.1534 31.8117 12.1258C30.6125 11.4441 29.419 10.7521 28.1358 10.0115L29.4293 9.26434C29.575 9.68927 29.6291 10.1403 29.8682 10.4457C30.0288 10.6493 30.45 10.711 30.7592 10.7212C31.4362 10.7446 31.7407 10.4411 31.8677 9.66125L34.1707 10.9818C33.4637 11.3983 32.81 11.784 32.1479 12.1492V12.1482ZM33.2686 18.1673C33.1173 18.3839 32.9622 18.5978 32.8072 18.8126C32.6522 19.0274 32.5046 19.3094 32.3132 19.4925C32.2469 19.2702 32.2702 18.9826 32.2637 18.7454C32.2562 18.4885 32.2553 18.2317 32.2571 17.9758C32.2618 17.451 32.2786 16.927 32.2795 16.4031C32.2795 15.3235 32.2795 14.2439 32.2795 13.1643C32.2795 12.8207 32.386 12.6367 32.6886 12.4798C33.262 12.1819 33.8093 11.8373 34.4425 11.4693C34.3257 11.5375 34.407 11.9605 34.4107 12.0707C34.45 13.2549 34.4247 14.4391 34.4247 15.6196C34.4247 16.1967 34.0895 16.8411 33.8084 17.3268C33.6393 17.6209 33.4572 17.8964 33.2686 18.1682V18.1673Z" fill="#35B777" stroke="black" stroke-width="0.2" mask="url(#path-1-inside-1_1_1328)"></path><path d="M30.1514 1.67297C30.2384 1.66884 30.3285 1.68582 30.4287 1.73157L30.5332 1.78723C31.0308 2.09001 31.5342 2.38423 32.0391 2.6759L33.5527 3.54895V3.54993C33.6405 3.60051 33.7214 3.65986 33.8555 3.75208L32.2754 4.62415L32.2734 4.62122C31.4038 5.12983 30.5354 5.64045 29.666 6.14954L27.0537 7.66907C25.2041 8.73703 23.3539 9.80379 21.5029 10.8693L15.9473 14.0626C15.7917 14.1522 15.6319 14.2349 15.4443 14.3361C15.4259 14.2601 15.4113 14.1832 15.4014 14.1056L15.25 10.5177C15.2437 10.3895 15.2566 10.2966 15.2959 10.2208C15.3252 10.1643 15.3711 10.1137 15.4414 10.0636L15.5205 10.0128C17.8998 8.64898 20.2779 7.28336 22.6543 5.91516L29.7793 1.80383C29.916 1.72362 30.0342 1.67861 30.1514 1.67297Z" fill="#9DD4B2" stroke="black" stroke-width="0.1"></path><mask id="path-3-inside-2_1_1328" fill="white"><path d="M5.17778 16.2532C5.06937 16.4744 5.01041 16.7166 5.00501 16.963C4.99878 19.0176 5.00656 21.0706 5.02835 23.1221C5.03545 23.3294 5.11971 23.5266 5.26463 23.675C6.5721 24.8517 7.89544 26.0041 9.20385 27.1752C9.41304 27.362 9.56527 27.3835 9.81182 27.2387C10.9895 26.5448 12.183 25.879 13.3607 25.1841C13.5272 25.0831 13.6501 24.9236 13.7053 24.7368C14.2498 22.0573 14.5993 19.3419 14.7513 16.6118C14.882 14.2621 14.8446 11.9161 14.5411 9.58323C14.3375 8.01707 14.0349 6.46305 13.7585 4.79883C12.3315 5.61786 11.0362 6.35285 9.75392 7.10931C9.6101 7.1943 9.51297 7.38949 9.43265 7.54825M13.6352 14.179C13.6539 17.6036 13.2729 20.7929 12.677 23.9589C12.6384 24.1343 12.535 24.2887 12.3875 24.3913C11.5909 24.8741 10.7709 25.3186 9.97338 25.7996C9.71002 25.9584 9.53912 25.9173 9.31965 25.723C8.34839 24.8498 7.35845 23.9981 6.39279 23.1202C6.25553 22.9829 6.17402 22.7995 6.16398 22.6056C6.1453 20.7864 6.14624 18.9634 6.15464 17.1479C6.16208 16.9641 6.20923 16.7841 6.29286 16.6202C7.65014 13.8278 9.01271 11.0379 10.3806 8.25055C10.4581 8.10176 10.5742 7.97659 10.7168 7.88819C11.2771 7.54918 11.8375 7.22699 12.409 6.90666C12.8526 6.6573 12.9227 6.68625 13.0161 7.18683C13.4526 9.49232 13.6587 11.8355 13.6315 14.1818L13.6352 14.179Z"></path></mask><path d="M5.17778 16.2532C5.06937 16.4744 5.01041 16.7166 5.00501 16.963C4.99878 19.0176 5.00656 21.0706 5.02835 23.1221C5.03545 23.3294 5.11971 23.5266 5.26463 23.675C6.5721 24.8517 7.89544 26.0041 9.20385 27.1752C9.41304 27.362 9.56527 27.3835 9.81182 27.2387C10.9895 26.5448 12.183 25.879 13.3607 25.1841C13.5272 25.0831 13.6501 24.9236 13.7053 24.7368C14.2498 22.0573 14.5993 19.3419 14.7513 16.6118C14.882 14.2621 14.8446 11.9161 14.5411 9.58323C14.3375 8.01707 14.0349 6.46305 13.7585 4.79883C12.3315 5.61786 11.0362 6.35285 9.75392 7.10931C9.6101 7.1943 9.51297 7.38949 9.43265 7.54825M13.6352 14.179C13.6539 17.6036 13.2729 20.7929 12.677 23.9589C12.6384 24.1343 12.535 24.2887 12.3875 24.3913C11.5909 24.8741 10.7709 25.3186 9.97338 25.7996C9.71002 25.9584 9.53912 25.9173 9.31965 25.723C8.34839 24.8498 7.35845 23.9981 6.39279 23.1202C6.25553 22.9829 6.17402 22.7995 6.16398 22.6056C6.1453 20.7864 6.14624 18.9634 6.15464 17.1479C6.16208 16.9641 6.20923 16.7841 6.29286 16.6202C7.65014 13.8278 9.01271 11.0379 10.3806 8.25055C10.4581 8.10176 10.5742 7.97659 10.7168 7.88819C11.2771 7.54918 11.8375 7.22699 12.409 6.90666C12.8526 6.6573 12.9227 6.68625 13.0161 7.18683C13.4526 9.49232 13.6587 11.8355 13.6315 14.1818L13.6352 14.179Z" fill="#9DD4B2"></path><path d="M5.00501 16.963L4.90501 16.9608L4.90501 16.9627L5.00501 16.963ZM5.02835 23.1221L4.92833 23.1231L4.92841 23.1255L5.02835 23.1221ZM5.26463 23.675L5.19293 23.745L5.19773 23.7493L5.26463 23.675ZM9.20385 27.1752L9.13715 27.2497L9.13724 27.2498L9.20385 27.1752ZM9.81182 27.2387L9.86245 27.325L9.86259 27.3249L9.81182 27.2387ZM13.3607 25.1841L13.4115 25.2703L13.4125 25.2696L13.3607 25.1841ZM13.7053 24.7368L13.8015 24.7652L13.8033 24.7567L13.7053 24.7368ZM14.7513 16.6118L14.6514 16.6063L14.6514 16.6063L14.7513 16.6118ZM14.5411 9.58323L14.442 9.59612L14.442 9.59614L14.5411 9.58323ZM13.7585 4.79883L13.8572 4.78244L13.8336 4.64045L13.7087 4.7121L13.7585 4.79883ZM9.75392 7.10931L9.70311 7.02318L9.70305 7.02322L9.75392 7.10931ZM13.6352 14.179L13.7352 14.1784L13.7342 13.9797L13.5752 14.099L13.6352 14.179ZM12.677 23.9589L12.7748 23.9804L12.7753 23.9774L12.677 23.9589ZM12.3875 24.3913L12.4395 24.4769L12.4446 24.4734L12.3875 24.3913ZM9.97338 25.7996L10.025 25.8852L10.025 25.8852L9.97338 25.7996ZM9.31965 25.723L9.25279 25.7974L9.25337 25.7979L9.31965 25.723ZM6.39279 23.1202L6.32197 23.191L6.32552 23.1942L6.39279 23.1202ZM6.16398 22.6056L6.0639 22.6067L6.06411 22.6108L6.16398 22.6056ZM6.15464 17.1479L6.05466 17.1438L6.05465 17.1474L6.15464 17.1479ZM6.29286 16.6202L6.38195 16.6657L6.3828 16.6639L6.29286 16.6202ZM10.3806 8.25055L10.2919 8.20434L10.2908 8.20649L10.3806 8.25055ZM10.7168 7.88819L10.665 7.80263L10.6641 7.8032L10.7168 7.88819ZM12.409 6.90666L12.4579 6.99389L12.458 6.99383L12.409 6.90666ZM13.0161 7.18683L12.9178 7.20517L12.9178 7.20543L13.0161 7.18683ZM13.6315 14.1818L13.5315 14.1806L13.5292 14.3836L13.6915 14.2618L13.6315 14.1818ZM5.17778 16.2532L5.08798 16.2092C4.97318 16.4435 4.91076 16.6999 4.90503 16.9608L5.00501 16.963L5.10498 16.9652C5.11007 16.7333 5.16555 16.5054 5.26758 16.2972L5.17778 16.2532ZM5.00501 16.963L4.90501 16.9627C4.89878 19.0177 4.90656 21.0712 4.92836 23.1231L5.02835 23.1221L5.12835 23.121C5.10656 21.07 5.09878 19.0174 5.105 16.9633L5.00501 16.963ZM5.02835 23.1221L4.92841 23.1255C4.93636 23.3577 5.03075 23.5786 5.19308 23.7448L5.26463 23.675L5.33617 23.6051C5.20868 23.4745 5.13454 23.301 5.12829 23.1187L5.02835 23.1221ZM5.26463 23.675L5.19773 23.7493C6.50398 24.9249 7.83146 26.0811 9.13715 27.2497L9.20385 27.1752L9.27054 27.1007C7.95942 25.9272 6.64022 24.7784 5.33152 23.6006L5.26463 23.675ZM9.20385 27.1752L9.13724 27.2498C9.24785 27.3486 9.35728 27.4167 9.48271 27.4307C9.60875 27.4448 9.73102 27.4021 9.86245 27.325L9.81182 27.2387L9.76119 27.1525C9.64607 27.2201 9.56895 27.2391 9.50494 27.2319C9.44032 27.2247 9.36904 27.1887 9.27045 27.1006L9.20385 27.1752ZM9.81182 27.2387L9.86259 27.3249C10.4508 26.9783 11.0431 26.6386 11.636 26.2985C12.2287 25.9585 12.822 25.618 13.4115 25.2703L13.3607 25.1841L13.3099 25.098C12.7216 25.4451 12.1294 25.785 11.5365 26.1251C10.9438 26.4651 10.3505 26.8053 9.76106 27.1526L9.81182 27.2387ZM13.3607 25.1841L13.4125 25.2696C13.6004 25.1557 13.7389 24.9758 13.8012 24.7651L13.7053 24.7368L13.6094 24.7085C13.5612 24.8714 13.4541 25.0105 13.3088 25.0986L13.3607 25.1841ZM13.7053 24.7368L13.8033 24.7567C14.3487 22.0725 14.6989 19.3522 14.8511 16.6174L14.7513 16.6118L14.6514 16.6063C14.4998 19.3315 14.1508 22.0421 13.6073 24.7169L13.7053 24.7368ZM14.7513 16.6118L14.8511 16.6174C14.9821 14.263 14.9448 11.9107 14.6403 9.57033L14.5411 9.58323L14.442 9.59614C14.7445 11.9216 14.7819 14.2612 14.6514 16.6063L14.7513 16.6118ZM14.5411 9.58323L14.6403 9.57034C14.4364 8.00194 14.133 6.44294 13.8572 4.78244L13.7585 4.79883L13.6599 4.81521C13.9369 6.48316 14.2387 8.03221 14.442 9.59612L14.5411 9.58323ZM13.7585 4.79883L13.7087 4.7121C12.2823 5.5308 10.986 6.26632 9.70311 7.02318L9.75392 7.10931L9.80473 7.19544C11.0863 6.43938 12.3807 5.70493 13.8083 4.88556L13.7585 4.79883ZM9.75392 7.10931L9.70305 7.02322C9.61203 7.077 9.54169 7.16164 9.486 7.24604C9.42994 7.33102 9.38296 7.42496 9.34342 7.50311L9.43265 7.54825L9.52189 7.59339C9.56267 7.51278 9.60441 7.42974 9.65294 7.35619C9.70185 7.28206 9.75199 7.22661 9.80479 7.19541L9.75392 7.10931ZM13.6352 14.179L13.5352 14.1795C13.5539 17.5962 13.1738 20.7789 12.5788 23.9404L12.677 23.9589L12.7753 23.9774C13.372 20.8069 13.754 17.611 13.7352 14.1784L13.6352 14.179ZM12.677 23.9589L12.5794 23.9374C12.5462 24.0882 12.4573 24.221 12.3305 24.3092L12.3875 24.3913L12.4446 24.4734C12.6128 24.3564 12.7307 24.1804 12.7747 23.9804L12.677 23.9589ZM12.3875 24.3913L12.3357 24.3057C11.9386 24.5464 11.5355 24.7777 11.1311 25.0094C10.727 25.2408 10.3217 25.4728 9.92174 25.714L9.97338 25.7996L10.025 25.8852C10.4227 25.6454 10.826 25.4146 11.2305 25.1829C11.6347 24.9514 12.0398 24.7189 12.4394 24.4768L12.3875 24.3913ZM9.97338 25.7996L9.92176 25.7139C9.80101 25.7867 9.71603 25.8049 9.64418 25.7947C9.56994 25.7841 9.49036 25.7406 9.38593 25.6481L9.31965 25.723L9.25337 25.7979C9.36841 25.8997 9.48401 25.9739 9.61593 25.9927C9.75024 26.0118 9.8824 25.9712 10.025 25.8852L9.97338 25.7996ZM9.31965 25.723L9.38651 25.6486C8.41146 24.772 7.42706 23.9253 6.46006 23.0462L6.39279 23.1202L6.32552 23.1942C7.28984 24.0709 8.28531 24.9276 9.25279 25.7974L9.31965 25.723ZM6.39279 23.1202L6.46352 23.0495C6.34374 22.9297 6.27261 22.7697 6.26385 22.6005L6.16398 22.6056L6.06411 22.6108C6.07543 22.8294 6.16732 23.0361 6.32205 23.1909L6.39279 23.1202ZM6.16398 22.6056L6.26398 22.6046C6.2453 20.786 6.24624 18.9636 6.25464 17.1483L6.15464 17.1479L6.05465 17.1474C6.04624 18.9632 6.0453 20.7867 6.06399 22.6067L6.16398 22.6056ZM6.15464 17.1479L6.25456 17.1519C6.26141 16.9825 6.30486 16.8167 6.38193 16.6657L6.29286 16.6202L6.20379 16.5748C6.1136 16.7515 6.06274 16.9456 6.05473 17.1438L6.15464 17.1479ZM6.29286 16.6202L6.3828 16.6639C7.74002 13.8717 9.10254 11.0819 10.4703 8.2946L10.3806 8.25055L10.2908 8.20649C8.92288 10.994 7.56025 13.784 6.20292 16.5765L6.29286 16.6202ZM10.3806 8.25055L10.4693 8.29674C10.5385 8.16388 10.6422 8.05211 10.7695 7.97318L10.7168 7.88819L10.6641 7.8032C10.5062 7.90106 10.3777 8.03964 10.2919 8.20436L10.3806 8.25055ZM10.7168 7.88819L10.7685 7.97375C11.3276 7.63549 11.887 7.31388 12.4579 6.99389L12.409 6.90666L12.3601 6.81942C11.788 7.1401 11.2266 7.46287 10.665 7.80263L10.7168 7.88819ZM12.409 6.90666L12.458 6.99383C12.5689 6.93147 12.6496 6.89058 12.7108 6.86928C12.7734 6.84746 12.7956 6.85342 12.8023 6.85649C12.8087 6.85938 12.8274 6.87167 12.8509 6.93272C12.8739 6.99252 12.8944 7.08009 12.9178 7.20517L13.0161 7.18683L13.1144 7.16849C13.091 7.04328 13.0678 6.93952 13.0375 6.8609C13.0077 6.78352 12.9637 6.7103 12.8854 6.67455C12.8075 6.63898 12.7232 6.65317 12.645 6.68041C12.5653 6.70816 12.4709 6.75716 12.36 6.81948L12.409 6.90666ZM13.0161 7.18683L12.9178 7.20543C13.3531 9.50441 13.5586 11.841 13.5315 14.1806L13.6315 14.1818L13.7315 14.1829C13.7588 11.83 13.552 9.48023 13.1143 7.16823L13.0161 7.18683ZM13.6315 14.1818L13.6915 14.2618L13.6953 14.259L13.6352 14.179L13.5752 14.099L13.5715 14.1018L13.6315 14.1818Z" fill="black" mask="url(#path-3-inside-2_1_1328)"></path><path d="M20.1846 14.5974C20.4075 14.4685 20.6761 14.4285 20.9072 14.5183L21.0039 14.5652C21.1648 14.6585 21.3192 14.7594 21.4814 14.8582C21.6019 14.9315 21.7246 15.0024 21.8525 15.0623L21.9824 15.1179C22.2351 15.2175 22.376 15.3503 22.4561 15.5164C22.5374 15.6853 22.559 15.8953 22.5576 16.156L22.5449 19.7361C22.5371 23.3168 22.5414 26.8974 22.54 30.4773L22.5312 30.6746C22.514 30.8556 22.4701 30.9907 22.3926 31.0945C22.3154 31.1979 22.2012 31.2757 22.0352 31.3357L21.8516 31.3894C21.6154 31.4468 21.3693 31.5013 21.1396 31.491L21.042 31.4822L20.6211 31.4216C20.4982 31.3994 20.3918 31.3749 20.2998 31.3464C20.1162 31.2897 19.9939 31.2184 19.9102 31.1257C19.8267 31.0334 19.7769 30.9144 19.75 30.7517C19.723 30.5881 19.7197 30.3839 19.7236 30.1257L19.7393 28.3181C19.7472 26.5342 19.7347 24.75 19.7344 22.9666L19.7451 22.9705V15.2947C19.7452 15.0021 19.9299 14.7448 20.1846 14.5974Z" fill="#9DD4B2" stroke="black" stroke-width="0.1"></path><path d="M8.96484 7.12158C7.50105 10.1212 6.04668 13.097 4.56641 16.1323L0.702148 13.8862C2.17572 10.8725 3.62985 7.89428 5.10156 4.88428L8.96484 7.12158Z" fill="#9DD4B2" stroke="black" stroke-width="0.1"></path><path d="M27.585 10.428C27.6172 10.4344 27.6534 10.4456 27.6934 10.4622L27.8252 10.5276C28.4319 10.874 29.0379 11.2217 29.6426 11.5715L31.4531 12.6262V12.6272C31.5019 12.6557 31.5569 12.7066 31.5996 12.7649C31.6432 12.8245 31.6679 12.883 31.668 12.925L31.6641 16.4231C31.66 17.5826 31.654 18.7416 31.6484 19.9016C31.6398 19.9084 31.627 19.9194 31.6084 19.9348C30.9255 19.5419 30.2423 19.1509 29.5605 18.7581L27.4912 17.553C27.4501 17.5286 27.4085 17.4703 27.377 17.3938C27.3462 17.3191 27.3282 17.2363 27.3281 17.1721V10.8293C27.3281 10.7167 27.3398 10.6293 27.3604 10.5647C27.3808 10.5005 27.4094 10.4627 27.4424 10.4426C27.4753 10.4227 27.5209 10.4154 27.585 10.428Z" fill="#9DD4B2" stroke="black" stroke-width="0.1"></path><path d="M34.207 4.31836C34.2082 4.68563 34.2165 5.01732 34.209 5.33887L34.1934 5.68164C34.1908 5.72025 34.1621 5.77169 34.1113 5.82617C34.0867 5.85257 34.0589 5.87791 34.0303 5.90039L33.9453 5.95801C32.2766 6.92295 30.6067 7.88649 28.9365 8.84863L23.9229 11.7314L16.0059 16.2998L16.0049 16.3008C15.8153 16.4116 15.6198 16.5171 15.3818 16.6494C15.3798 16.2963 15.368 15.9829 15.3779 15.6816L15.3994 15.3594C15.4065 15.2943 15.4467 15.2164 15.5068 15.1416C15.5662 15.0678 15.6406 15.0029 15.708 14.9629C16.9983 14.2127 18.2892 13.4638 19.5811 12.7178L23.459 10.4863L33.8457 4.50391C33.9463 4.44598 34.0502 4.39706 34.207 4.31836Z" fill="#9DD4B2" stroke="black" stroke-width="0.1"></path><path d="M2.71973 21.6976C2.70202 20.9068 2.71412 20.1121 2.71973 19.3207H2.71875C2.72668 19.2418 2.72976 19.1626 2.72852 19.0834H2.73047L2.72949 19.0775L2.71387 19.0062C2.70049 18.9601 2.68081 18.916 2.65527 18.8754L2.6123 18.8168C2.56539 18.7617 2.50084 18.7244 2.42969 18.7113H2.43066C2.36243 18.6972 2.29096 18.7078 2.22949 18.7406C2.18357 18.7651 2.14464 18.8006 2.11719 18.8441L2.09375 18.891L2.09277 18.8939C2.08828 18.9074 2.0838 18.921 2.08105 18.9349V18.9799C2.05487 19.6954 2.06636 20.4124 2.06543 21.1293V21.6605C1.82725 21.5212 1.60577 21.3936 1.39453 21.2699L0.722656 20.8646C0.70173 20.8513 0.678837 20.8181 0.661133 20.7689C0.644074 20.7213 0.63481 20.6679 0.634766 20.6273L0.629883 14.6127L1.88184 15.3236C2.25883 15.5408 2.6358 15.7571 3.01172 15.975L4.13379 16.6371C4.19174 16.6723 4.25774 16.729 4.30859 16.7914C4.36087 16.8555 4.39057 16.9166 4.39062 16.9613L4.39258 23.0082C3.98818 22.7769 3.61368 22.5721 3.25684 22.3578L2.88379 22.1244C2.83824 22.0944 2.79627 22.0299 2.76562 21.9467C2.73566 21.8652 2.71979 21.774 2.71973 21.6996V21.6976Z" fill="#9DD4B2" stroke="black" stroke-width="0.1"></path><path d="M9.42188 2.29236C9.44757 2.29292 9.4732 2.29614 9.49805 2.30212L9.57031 2.32849C10.7598 3.00468 11.9368 3.69237 13.1904 4.42029L11.6348 5.32654C11.3054 5.51669 10.9775 5.70855 10.6484 5.89783L9.65527 6.45642C9.5955 6.48864 9.51308 6.51687 9.43359 6.52966C9.37257 6.53944 9.31909 6.53883 9.2793 6.52869L9.24414 6.51501C8.05472 5.84293 6.87456 5.15184 5.61621 4.42322C6.88274 3.69245 8.07678 2.99772 9.27344 2.32068C9.32024 2.30074 9.371 2.29125 9.42188 2.29236Z" fill="#9DD4B2" stroke="black" stroke-width="0.1"></path><path d="M19.0781 29.188C19.0793 29.5696 19.0888 29.9161 19.084 30.2524L19.0732 30.6069C19.0573 30.9156 19.1267 31.1717 19.2676 31.3804C19.3729 31.5363 19.5166 31.664 19.6904 31.7681L19.874 31.8647C20.2675 32.0536 20.6983 32.1518 21.1348 32.1519C21.5714 32.1519 22.0029 32.0538 22.3965 31.8647L22.3955 31.8638C22.6528 31.7458 22.8626 31.5891 23.0039 31.3813C23.1456 31.1729 23.2161 30.9175 23.2021 30.6099H23.2031C23.1871 30.1598 23.2009 29.7031 23.2021 29.2017C23.834 29.3654 24.3552 29.6385 24.7588 30.0806L24.9297 30.2866C25.2709 30.7429 25.2561 31.3378 24.9248 31.813L24.8545 31.9067C24.4696 32.3822 23.9622 32.6824 23.4043 32.8804L23.1631 32.9595C21.6711 33.4025 20.1883 33.4222 18.7529 32.8384L18.4668 32.7134C17.7628 32.387 17.1235 31.9634 17.0947 31.1079C17.0696 30.361 17.5483 29.9622 18.1152 29.6235L18.3633 29.4819C18.4723 29.4209 18.589 29.3717 18.7188 29.3228C18.8285 29.2814 18.9488 29.2381 19.0781 29.188Z" fill="#9DD4B2" stroke="black" stroke-width="0.1"></path><path d="M34.3291 11.5951C34.3219 11.6486 34.321 11.7094 34.3242 11.7689C34.3278 11.8362 34.3351 11.9049 34.3418 11.9633L34.3545 12.097L34.4141 14.347C34.4288 14.8992 34.4305 15.433 34.3193 15.9642L34.2637 16.1918C34.1024 16.7389 33.8466 17.2534 33.5078 17.7123L33.498 17.726V17.7426C33.498 17.7391 33.499 17.7389 33.4971 17.7435C33.4954 17.7476 33.4926 17.7531 33.4883 17.7601C33.4792 17.7749 33.4663 17.7931 33.4512 17.8119C33.4362 17.8305 33.4198 17.8485 33.4053 17.8656L33.3691 17.9105L33.2012 18.1517L32.8643 18.6322C32.7648 18.7743 32.6781 18.9429 32.5889 19.0951C32.5121 19.2262 32.4303 19.347 32.332 19.4447C32.3176 19.3877 32.3113 19.3241 32.3105 19.2562C32.31 19.2082 32.3117 19.1595 32.3135 19.1107C32.3153 19.0623 32.3179 19.0132 32.3174 18.9672V18.3256C32.3174 17.667 32.3212 17.0081 32.3252 16.349C32.3292 15.6898 32.333 15.03 32.333 14.3705V13.1683C32.333 13.0014 32.3591 12.8795 32.417 12.7816C32.4605 12.7083 32.5236 12.6444 32.6143 12.5853L32.7139 12.5277H32.7148C33.2412 12.2489 33.7533 11.9332 34.3291 11.5951Z" fill="#9DD4B2" stroke="black" stroke-width="0.1"></path><path d="M17.127 32.6779C18.3542 33.492 19.5927 33.8876 20.8525 33.923C22.1129 33.9583 23.39 33.6326 24.6943 33.0157C24.6965 33.2958 24.7081 33.5686 24.6992 33.838L24.6797 34.13C24.673 34.1938 24.6386 34.2677 24.5869 34.339C24.5612 34.3744 24.5315 34.4081 24.501 34.4386L24.4072 34.5187C23.1724 35.4071 21.757 35.5633 20.3018 35.3849H20.3027C19.703 35.3022 19.1171 35.1415 18.5596 34.9073L18.3223 34.8029H18.3213C17.8054 34.5707 17.4791 34.2957 17.2959 33.9454C17.1213 33.6113 17.074 33.2013 17.127 32.6779Z" fill="#9DD4B2" stroke="black" stroke-width="0.1"></path><path d="M29.4033 9.34387C29.4655 9.53716 29.5126 9.72826 29.5703 9.91907C29.6169 10.0731 29.6707 10.2222 29.748 10.3546L29.834 10.4806C29.9244 10.5958 30.0833 10.6663 30.25 10.7091C30.3345 10.7308 30.4234 10.7463 30.5107 10.757L30.7617 10.7755C31.1079 10.7878 31.3687 10.7166 31.5586 10.5333C31.7354 10.3626 31.8407 10.1011 31.9062 9.74426L34.0732 10.9865C33.745 11.1769 33.4302 11.3627 33.1201 11.5421L32.1338 12.1017C32.0861 12.1197 32.0352 12.1275 31.9844 12.1241C31.9336 12.1207 31.8837 12.1063 31.8389 12.0822H31.8379C30.6594 11.4151 29.49 10.7358 28.2402 10.0118L29.4033 9.34387Z" fill="#9DD4B2" stroke="black" stroke-width="0.1"></path><path d="M23.5127 12.7592C23.5492 12.7569 23.5858 12.7623 23.6201 12.7748C23.9729 12.9689 24.3257 13.1779 24.5996 13.3412L23.4854 15.2377L21.3203 13.9965C22.0606 13.5655 22.7293 13.172 23.4043 12.7885L23.4053 12.7894C23.4386 12.7719 23.4751 12.7615 23.5127 12.7592Z" fill="#9DD4B2" stroke="black" stroke-width="0.1"></path><path d="M1.65137 29.4921C1.76204 29.4136 1.92238 29.4169 2.12988 29.5311L2.22168 29.5868C2.89542 30.0308 3.29337 30.6496 3.32324 31.4471L3.32422 31.6093C3.31833 31.8594 3.23871 32.0123 3.12305 32.078C3.03628 32.1272 2.91734 32.1346 2.77148 32.0829L2.61621 32.0106V32.0096L2.49414 31.9384C2.21474 31.7626 1.97547 31.5288 1.79395 31.2518C1.6125 30.9749 1.49297 30.6621 1.44336 30.3358L1.42676 30.1952C1.43065 29.8106 1.52019 29.5854 1.65137 29.4921Z" fill="#9DD4B2" stroke="black" stroke-width="0.1"></path><path d="M25.4717 13.8934C25.5042 13.9072 25.5332 13.9285 25.5566 13.955C25.569 13.9689 25.5792 13.9846 25.5879 14.0009L25.6084 14.0526L25.6094 14.0555C25.6189 14.0828 25.6264 14.1112 25.6318 14.1395L25.6426 14.2255V14.3387L25.6924 14.3427L25.6416 14.3387L25.6426 14.3466C25.6428 14.349 25.6427 14.3519 25.6426 14.3544C25.6353 14.4084 25.6262 14.4621 25.6152 14.5155L25.5771 14.6757C25.5395 14.8167 25.4839 14.9523 25.4121 15.079L25.335 15.202C25.2265 15.3556 25.092 15.4894 24.9375 15.5966L24.8701 15.6415C24.8014 15.6842 24.7246 15.7121 24.6445 15.7235C24.5658 15.7347 24.4859 15.7289 24.4092 15.7079C24.401 15.7034 24.3883 15.6924 24.374 15.6669C24.3591 15.6402 24.3458 15.6046 24.335 15.5634C24.3242 15.5221 24.316 15.4776 24.3115 15.4344L24.3076 15.3134C24.3239 15.0564 24.3986 14.806 24.5254 14.5819C24.6204 14.414 24.7431 14.2639 24.8877 14.1376L25.04 14.0194L25.041 14.0184C25.1191 13.9615 25.2084 13.9209 25.3027 13.9003V13.9012L25.3057 13.9003C25.3598 13.8852 25.4166 13.8826 25.4717 13.8934Z" fill="#9DD4B2" stroke="black" stroke-width="0.1"></path><path d="M31.2158 8.36475C31.2168 8.73151 31.2251 9.09115 31.2207 9.44678L31.2109 9.82275C31.207 9.9093 31.186 9.96885 31.1572 10.0103C31.1287 10.0512 31.0895 10.0787 31.041 10.0972C30.9398 10.1356 30.8086 10.1328 30.6738 10.1323C30.542 10.1319 30.4221 10.1245 30.332 10.0776C30.2691 10.0448 30.2163 9.98997 30.1875 9.89111L30.167 9.77588C30.1299 9.3389 30.1708 9.05506 30.3311 8.84521C30.4855 8.6433 30.759 8.50104 31.2158 8.36475Z" fill="#9DD4B2" stroke="black" stroke-width="0.1"></path><path d="M15.5693 8.23486C15.6747 8.22772 15.7782 8.2587 15.8877 8.31201C15.9982 8.36584 16.1093 8.43928 16.2334 8.51514C16.328 8.57293 16.4288 8.63103 16.5381 8.67822L15.1611 9.479C15.1509 9.39059 15.1347 9.30434 15.1143 9.22217C15.0872 9.11349 15.0583 9.01324 15.043 8.91553C15.0278 8.81878 15.0272 8.7294 15.0518 8.64502C15.07 8.58232 15.103 8.52006 15.1592 8.4585L15.2236 8.39697C15.352 8.2873 15.4649 8.24199 15.5693 8.23486Z" fill="#9DD4B2" stroke="black" stroke-width="0.1"></path><path d="M12.8223 6.81921C12.8465 6.83028 12.8724 6.85816 12.8975 6.92371C12.9098 6.95606 12.9213 6.9952 12.9326 7.04187L12.9668 7.20593C13.3491 9.21942 13.5556 11.2623 13.584 13.3104L13.585 14.1884V14.1893C13.6036 17.61 13.2224 20.7961 12.627 23.9598C12.5908 24.1221 12.4949 24.2642 12.3584 24.3593C12.1602 24.4793 11.9612 24.5982 11.7607 24.7147L10.5498 25.412L9.94727 25.7665C9.81904 25.8427 9.72131 25.8669 9.63379 25.8544C9.56742 25.8449 9.50181 25.8135 9.42871 25.7587L9.35254 25.6962C8.866 25.2588 8.37591 24.8278 7.88672 24.3964L6.42578 23.0936C6.33025 22.9974 6.26367 22.8772 6.23242 22.7469L6.21387 22.6132C6.19522 20.7993 6.19571 18.9779 6.2041 17.16C6.20946 17.0277 6.23631 16.8975 6.2832 16.7743L6.33691 16.6532V16.6522C7.69212 13.8596 9.05528 11.0704 10.4248 8.28406C10.4799 8.17834 10.5551 8.0849 10.6465 8.00964L10.7422 7.94128C11.0201 7.77202 11.3009 7.60703 11.583 7.44421L12.4326 6.96082H12.4336C12.5445 6.89779 12.6286 6.85417 12.6943 6.83093C12.7605 6.80757 12.7979 6.80821 12.8223 6.81921ZM12.5879 7.23718C12.1132 7.50884 11.7173 7.76572 11.3125 7.95886C10.9436 8.13485 10.7175 8.40507 10.54 8.73621L10.4668 8.88171C9.19771 11.5123 7.91069 14.1334 6.6377 16.7616C6.57271 16.8899 6.52991 17.0281 6.50977 17.1698L6.49707 17.3124V17.3143C6.49427 19.0102 6.49912 20.7062 6.52246 22.4022V22.4042C6.52878 22.559 6.57738 22.7084 6.66211 22.8358L6.75879 22.955L6.76074 22.9569C7.70157 23.8174 8.66346 24.6572 9.64648 25.5282L9.67383 25.5516L9.70508 25.5341C10.5148 25.0658 11.3242 24.6058 12.1191 24.1229L12.1201 24.1239C12.189 24.084 12.2406 24.0114 12.2773 23.9364C12.2959 23.8985 12.311 23.8582 12.3232 23.8182L12.3506 23.701C12.5489 22.4539 12.7746 21.2064 12.9326 19.952L12.9961 19.4139C13.3326 16.3178 13.3956 13.2086 13.0762 10.1044L13.0078 9.48425C12.9218 8.76775 12.7841 8.04718 12.6621 7.27234L12.6514 7.20105L12.5879 7.23718Z" fill="#35B777" stroke="black" stroke-width="0.1"></path><path d="M12.5752 7.35938C12.664 7.91702 12.7581 8.43996 12.835 8.95703L12.9072 9.49512C13.2532 12.3839 13.2603 15.2758 13.0166 18.165L12.8975 19.4033C12.8196 20.1197 12.7148 20.8332 12.6016 21.5459L12.2529 23.6846C12.2424 23.7497 12.2206 23.8254 12.1885 23.8916C12.164 23.9419 12.1349 23.984 12.1035 24.0127L12.0703 24.0371C11.2853 24.5134 10.4864 24.9649 9.68555 25.4287C9.20315 25.0014 8.7264 24.582 8.25488 24.1641L6.8291 22.8838C6.7351 22.7856 6.67037 22.6642 6.64062 22.5332L6.62305 22.3994C6.59972 20.7045 6.59486 19.0096 6.59766 17.3145C6.60218 17.1822 6.62854 17.052 6.6748 16.9287L6.72754 16.8076V16.8066C7.36439 15.4923 8.00509 14.1793 8.64453 12.8662L10.5566 8.9248H10.5576C10.7419 8.53702 10.962 8.2352 11.3555 8.04883C11.7475 7.86311 12.1334 7.61474 12.5752 7.35938Z" fill="#9DD4B2" stroke="black" stroke-width="0.1"></path></svg>