<svg xmlns="http://www.w3.org/2000/svg" width="36" height="102" viewBox="0 0 36 102" fill="none"><path d="M27.234 15.2534C28.6908 14.8646 30.1153 14.5082 31.5721 14.1519C34.1944 14.0223 34.6476 14.897 34.6476 16.1929C34.6476 22.8669 34.5505 29.5085 34.68 36.1825C34.939 52.0576 34.8095 67.9327 34.939 83.8077C34.939 85.7516 34.2591 87.4039 32.7376 88.7646C26.6189 94.3371 19.27 98.322 10.6262 100.525C9.1694 100.914 7.55068 101.108 6.19098 100.104C5.99673 99.6504 5.8996 99.1644 5.8996 98.646C5.77011 84.6501 6.09386 70.6865 5.673 56.6905C5.41401 48.0078 5.64064 39.3252 5.60827 30.6425C5.60827 28.9902 6.2881 27.6295 7.6478 26.4307C11.306 23.1909 15.5147 20.5667 20.1117 18.396C21.3743 17.8128 27.234 15.2534 27.234 15.2534ZM30.7304 29.0874C29.8887 29.4114 28.7879 29.8325 27.8815 30.2861C21.8923 33.1695 15.9031 36.1502 9.91397 39.0336C8.84563 39.5519 8.48951 40.1675 8.48951 41.1719C8.55426 58.1808 8.52191 75.1574 8.55428 92.1664C8.55428 92.8144 8.16579 93.7215 8.74852 94.0455C9.49312 94.4667 10.173 93.6243 10.8852 93.3003C17.5542 90.0605 24.1909 86.8531 30.8599 83.6133C32.252 83.9373 31.7016 82.9978 31.7016 82.609C31.734 65.0168 31.5397 47.4247 31.5397 29.8325C31.5397 29.6381 31.5397 29.4114 31.5397 29.1846C31.5397 28.9902 30.8923 28.893 30.7304 29.0874Z" fill="#9DD4B2" stroke="black" stroke-width="2" stroke-miterlimit="10"></path><path d="M20.1114 18.397C15.5144 20.6001 11.2734 23.1919 7.64751 26.4318C6.32018 27.6305 5.60798 28.9588 5.60798 30.6435C5.64035 39.3262 5.41372 48.0089 5.67271 56.6915C6.09357 70.6875 5.76981 84.6511 5.89931 98.647C5.89931 99.1654 5.99644 99.619 6.19068 100.105C5.02522 99.781 4.054 99.133 2.98566 98.647C2.04682 98.2259 2.11158 97.4483 2.11158 96.7032C2.07921 89.8024 2.01445 82.8692 1.98208 75.9684C1.91733 60.4173 1.91734 44.8339 1.78784 29.2828C1.78784 27.3065 2.53244 25.7838 4.05401 24.3907C6.41731 22.2524 9.1367 20.4381 12.018 18.7858C12.4712 18.5266 24.6762 13.1809 24.6762 13.1809C27.7841 11.9498 30.6006 12.3386 33.1581 14.2177C30.9891 14.6389 28.8524 15.0924 26.6834 15.5136C26.6834 15.5136 21.4388 17.7491 20.1114 18.397Z" fill="#35B777" stroke="black" stroke-width="2" stroke-miterlimit="10"></path><path d="M31.5391 83.3882C24.8701 86.628 17.5536 90.0946 10.8846 93.302C10.2047 93.626 9.5249 94.4683 8.74793 94.0472C8.1652 93.7232 8.55369 92.816 8.55369 92.1681C8.52132 75.1591 8.52129 58.1825 8.48892 41.1735C8.48892 40.1368 8.84504 39.5212 9.91338 39.0353C15.9349 36.1518 21.8917 33.1712 27.8809 30.2878C28.7873 29.8342 31.5391 28.7327 31.5391 28.7327C31.5715 28.9595 31.5391 75.7099 31.5391 83.3882Z" fill="white" stroke="black" stroke-width="2" stroke-miterlimit="10"></path><path d="M22.3204 27.3459C23.4915 25.9235 23.6577 24.1247 22.6918 23.3282C21.7258 22.5318 19.9934 23.0392 18.8223 24.4616C17.6513 25.884 17.485 27.6828 18.4509 28.4792C19.4169 29.2757 21.1493 28.7683 22.3204 27.3459Z" fill="#16854C" stroke="black" stroke-width="2" stroke-miterlimit="10"></path><path d="M18.4607 1.87236C20.565 1.192 22.7664 1.41879 24.7736 2.45553C26.7808 3.49227 28.4318 5.30656 29.5325 7.63922C30.6009 9.97188 31.0217 12.6609 30.6656 15.3176C30.3419 17.9742 29.3059 20.4041 27.7196 22.2507C26.1656 24.065 22.9606 26.5597 18.493 25.361L19.9499 24.0326C20.3707 23.9678 20.8887 23.7735 21.439 23.5143C22.0218 23.2551 22.6369 22.8987 23.2196 22.5099C24.4174 21.7324 25.5829 20.8252 26.1657 20.1125C27.3635 18.7194 28.1404 16.8727 28.3994 14.864C28.6584 12.8553 28.3347 10.8142 27.5254 9.06473C26.716 7.31524 25.4534 5.88972 23.8995 5.11217C22.3455 4.30222 20.6297 4.14023 18.9786 4.6586C17.3599 5.17697 15.9355 6.3433 14.8995 7.9308C13.8959 9.5507 13.3456 11.4946 13.3456 13.5033C13.3456 14.5076 13.3456 15.1232 13.4103 15.7387C13.4751 16.3219 13.6046 16.8727 13.896 17.715L12.2449 18.4926C11.6298 17.4882 11.3384 16.9051 11.2089 16.2571C11.0794 15.5767 11.1118 14.8316 11.0794 13.4709C11.0794 10.7818 11.7916 8.18999 13.1513 6.08411C14.511 4.04303 16.3887 2.55272 18.4607 1.87236Z" fill="#35B777" stroke="black"></path><path d="M17.4565 2.22905C19.5608 1.54869 21.7622 1.77548 23.7694 2.81222C25.7766 3.84896 27.4276 5.66325 28.5283 7.99591C29.5967 10.3286 30.0175 13.0176 29.6614 15.6743C29.3377 18.3309 28.3017 20.7607 26.7154 22.6074C25.1615 24.3893 22.0212 25.9768 18.5572 25.2317L19.9169 23.8062C20.7586 23.6766 21.7622 23.1906 22.701 22.575C23.6723 21.9271 24.5787 21.1495 25.1614 20.4692C26.3593 19.076 27.1363 17.2294 27.3953 15.2207C27.6542 13.212 27.3305 11.1709 26.5212 9.42142C25.7118 7.67193 24.4492 6.24641 22.8953 5.46886C21.3413 4.65891 19.6255 4.49692 17.9745 5.01529C16.3558 5.53366 14.9313 6.69999 13.8954 8.28749C12.8918 9.90739 12.3414 11.8513 12.3414 13.86C12.3414 14.8643 12.3414 15.3827 12.4385 15.9334C12.5357 16.4842 12.6975 17.035 13.0536 18.1041L11.1436 19.0113C11.1436 18.9789 11.1112 18.9789 11.0788 18.9465C11.0141 18.8493 10.9817 18.7521 10.9169 18.5901C10.7874 18.2985 10.658 17.9097 10.5285 17.4237C10.2695 16.4842 10.0752 15.2207 10.0752 13.86C10.0752 11.1709 10.7875 8.57907 12.1472 6.4732C13.4745 4.39972 15.3522 2.90941 17.4565 2.22905Z" fill="#9DD4B2" stroke="black"></path></svg>