<svg xmlns="http://www.w3.org/2000/svg" width="119" height="130" viewBox="0 0 119 130" fill="none"><path d="M118.647 44.1229C118.647 45.9535 118.502 47.8324 118.695 49.6631C118.887 51.8792 118.502 53.6135 116.19 54.4325C114.841 54.9142 115.226 56.1186 115.226 57.1303C115.226 69.7042 115.178 82.3263 115.274 94.9001C115.274 96.8272 114.744 97.9352 113.01 98.8987C95.8595 108.727 78.7571 118.651 61.7028 128.623C60.1612 129.539 59.1013 129.442 57.6079 128.575C40.6018 118.699 23.5476 108.823 6.49338 99.0433C4.80723 98.0797 4.18094 97.0199 4.22912 95.0928C4.32547 82.5671 4.22912 70.0896 4.32547 57.5639C4.32547 55.8296 3.98824 54.6252 2.30209 53.9989C0.856815 53.469 0.326882 52.4573 0.375057 50.8675C0.471409 46.2908 0.471409 41.7141 0.375057 37.1374C0.375057 35.7884 0.712288 34.9695 1.96486 34.2468C20.4644 23.3109 39.012 12.4232 57.5597 1.48729C58.7641 0.764653 59.5831 0.764653 60.7875 1.48729C64.8343 3.94426 68.9292 6.30487 73.0241 8.61731C75.6256 10.1108 78.0826 11.6042 81.3586 11.7969C84.779 12.0378 87.6696 14.1093 89.3076 17.2889C89.8375 18.3006 90.6083 18.8306 91.5236 19.3605C99.7617 24.1299 107.952 28.9957 116.238 33.7169C117.972 34.7286 118.839 35.7403 118.647 37.8118C118.502 39.9316 118.647 42.0031 118.647 44.1229ZM60.5948 106.27C60.5948 112.34 60.643 118.458 60.5466 124.528C60.5466 126.166 60.7393 126.744 62.4255 125.733C68.3511 122.216 74.2767 118.795 80.2987 115.375C81.5513 114.7 81.8885 113.881 81.8885 112.532C81.8403 100.489 81.8403 88.4928 81.8885 76.4488C81.8885 74.8108 81.6958 74.2327 79.9615 75.2444C74.0358 78.7612 68.1102 82.2299 62.1364 85.6022C60.932 86.2767 60.4984 87.0957 60.5466 88.4446C60.643 94.3702 60.5948 100.344 60.5948 106.27ZM38.0967 74.6663C38.0003 75.1481 37.904 75.3408 37.904 75.5816C37.904 88.1555 37.904 100.729 37.8558 113.351C37.8558 114.652 38.4821 115.134 39.4456 115.712C44.9858 118.892 50.526 122.119 56.0663 125.299C56.7889 125.733 57.4152 126.455 58.5232 126.214C58.5232 114.749 58.3305 103.283 58.6196 91.8651C58.7159 87.8183 57.6561 85.554 53.9465 83.7715C48.5508 81.1219 43.4442 77.7496 38.0967 74.6663ZM6.39703 56.3595C6.39703 66.8618 6.34885 76.9306 6.39703 87.0475C6.39703 90.2271 5.24081 93.9848 6.83061 96.4418C8.32406 98.7542 11.9372 99.7659 14.6351 101.308C17.4293 102.945 20.2235 104.535 23.3549 106.318C23.3549 92.9731 23.3549 80.1102 23.3549 67.1991C23.3549 66.3801 23.0177 65.8983 22.3432 65.5129C17.1402 62.5742 11.9854 59.5873 6.39703 56.3595ZM113.058 56.1668C107.566 59.3464 102.46 62.3333 97.3529 65.2238C96.3412 65.802 96.5821 66.6691 96.5821 67.5363C96.5821 79.7248 96.5821 91.9132 96.5821 104.102C96.5821 104.583 96.293 105.258 97.112 105.643C102.026 102.801 106.988 99.9104 111.95 97.0199C112.721 96.5863 113.106 96.0564 113.106 95.141C113.058 82.3263 113.058 69.5115 113.058 56.1668ZM94.5587 50.4821C91.3791 52.3609 88.5367 54.0952 85.598 55.685C84.2973 56.4077 83.9119 57.2267 83.9119 58.7201C83.96 76.2079 83.96 93.6476 83.96 111.135C83.96 111.713 83.671 112.388 84.3936 113.014C87.1396 111.424 89.8375 109.738 92.6317 108.293C94.1251 107.522 94.5587 106.559 94.5587 104.921C94.5105 87.6256 94.5105 70.3305 94.5105 52.9872C94.5587 52.2646 94.5587 51.5901 94.5587 50.4821ZM35.8806 113.448C35.8806 94.8038 35.8806 76.5933 35.8806 58.3829C35.8806 57.7566 36.0251 57.0821 35.3025 56.6967C32.0747 54.8179 28.8951 52.939 25.3783 50.8675C25.3783 69.656 25.3783 88.011 25.3783 106.366C25.3783 107.185 25.6192 107.667 26.39 108.1C29.4251 109.786 32.4601 111.521 35.8806 113.448ZM39.8792 32.2234C39.831 32.0307 39.7828 31.838 39.6865 31.7417C35.0134 28.9475 30.3404 26.2015 25.6673 23.4554C24.9929 23.07 24.463 23.2146 23.8848 23.6C17.1402 27.5504 10.3956 31.5008 3.41013 35.6439C10.2029 39.6425 16.7066 43.4966 23.2586 47.2543C24.6075 48.0251 27.5462 46.0499 27.5462 44.4601C27.5462 41.955 28.6542 40.0279 30.1959 38.2454C32.7974 35.2585 36.1215 33.3797 39.8792 32.2234ZM39.3974 14.4948C46.2866 18.4933 52.9348 22.3474 59.5349 26.2015C60.2576 26.6351 60.5466 26.2496 60.8357 25.7197C64.3525 20.1313 68.7365 15.3619 74.9994 12.086C69.7964 9.05089 64.8824 6.25669 60.0167 3.36615C59.3422 2.98074 58.9086 3.07709 58.2824 3.41432C52.1158 7.07568 45.9012 10.6889 39.3974 14.4948ZM67.0985 47.736C67.243 50.8193 67.3876 53.5171 67.4839 56.215C67.5321 56.8413 67.6766 57.6121 66.954 57.9011C66.3277 58.142 65.9423 57.5157 65.6051 57.1303C64.1598 55.6369 62.6663 54.1916 61.2692 52.6018C60.4503 51.6383 59.7758 51.4456 58.7159 52.3609C57.2225 53.6617 55.5845 54.8179 53.9465 56.0223C53.2721 56.504 52.6458 57.5639 51.7304 57.0821C50.7188 56.5522 51.4414 55.4923 51.5377 54.6734C51.7786 52.6982 52.0677 50.7711 52.3567 48.3142C47.5873 51.1084 43.2033 53.6617 38.5785 56.3595C45.4676 60.4063 52.164 64.3085 58.8605 68.2589C59.6794 68.7407 60.2094 68.3071 60.8357 67.9217C63.3408 66.4764 65.7978 65.0311 68.3029 63.5377C72.4942 61.0807 76.6373 58.6238 81.1658 55.9741C76.3483 53.1799 71.9161 50.5784 67.0985 47.736ZM115.563 35.7403C108.626 31.6935 102.074 27.8876 95.5704 24.0817C95.0887 23.7927 94.6069 23.5036 94.0288 23.8409C91.8127 25.1416 89.5484 26.4905 87.0433 27.984C90.4156 28.4657 90.7047 28.7066 89.7893 29.8628C87.0915 33.2833 87.4769 36.222 90.3674 39.2089C91.3791 40.2206 90.8492 40.9914 89.4521 40.8951C88.1032 40.8469 86.7542 40.7506 85.4535 40.6542C88.6331 43.0148 91.8609 44.8455 95.0887 46.7725C95.8113 47.2061 96.3894 47.0616 97.0639 46.6762C103.038 43.1112 109.108 39.5462 115.563 35.7403ZM23.3549 63.7786C23.3549 59.3946 23.3067 55.4442 23.4031 51.5419C23.4513 50.1448 23.0177 49.4222 21.7651 48.6996C16.0804 45.4718 10.4438 42.0995 4.80723 38.8235C4.08459 38.3899 3.45831 37.6673 2.35026 37.8118C2.35026 42.0513 2.35026 46.2908 2.35026 50.4821C2.35026 51.3011 2.63932 51.7828 3.36196 52.2164C9.86569 56.0223 16.4176 59.78 23.3549 63.7786ZM60.5948 84.2051C67.6285 80.1102 74.2767 76.2561 80.8768 72.4502C81.744 71.9685 81.8885 71.3422 81.8885 70.475C81.8885 66.8618 81.8403 63.2486 81.8885 59.6836C81.9367 57.9975 81.2622 58.2384 80.2023 58.8646C74.084 62.4778 67.9657 66.091 61.7992 69.7042C60.9802 70.186 60.4984 70.7159 60.4984 71.7276C60.643 75.7262 60.5948 79.7248 60.5948 84.2051ZM116.623 37.8118C116.19 37.9082 115.949 37.9082 115.756 38.0045C109.734 41.5695 103.664 45.1346 97.5938 48.6514C97.0157 48.9886 96.5339 49.3258 96.5339 50.0967C96.5339 54.3843 96.5339 58.6719 96.5339 63.3932C103.23 59.5391 109.541 55.8296 115.901 52.1682C116.479 51.831 116.623 51.3974 116.623 50.7711C116.623 46.4835 116.623 42.1958 116.623 37.8118ZM58.5232 84.1569C58.5232 79.8693 58.4751 76.1116 58.5714 72.3539C58.6196 70.9086 58.186 70.0896 56.8853 69.3188C51.2005 66.091 45.5639 62.6705 39.8792 59.3946C39.3011 59.0574 38.8193 58.3829 37.8558 58.7201C37.8558 62.7669 37.8558 66.8618 37.8558 70.9568C37.8558 71.7276 37.9522 72.3057 38.723 72.7393C45.2267 76.4488 51.6823 80.2065 58.5232 84.1569ZM26.7272 22.0584C34.7244 25.4788 40.6982 31.838 49.3698 32.657C50.3815 32.7534 51.1042 32.8979 51.9231 32.2234C53.8502 30.6818 55.6809 28.9957 58.1378 27.7431C51.4414 23.8409 44.8413 20.035 38.2894 16.1809C37.6631 15.7955 37.085 15.8437 36.5069 16.2291C33.4236 18.0598 30.3404 19.8904 26.7272 22.0584ZM93.547 48.266C89.0185 45.6163 84.8754 43.2075 80.7323 40.8469C80.2023 40.5579 79.5279 40.317 78.9498 40.2688C75.3366 40.0279 71.7716 39.8352 68.1584 39.6425C67.7248 39.6425 67.1949 39.4498 66.8095 39.9316C66.1832 40.7987 67.0022 45.3273 67.9657 45.9054C72.5906 48.6514 77.2154 51.3011 81.8403 54.0471C82.5148 54.4325 83.0447 54.6734 83.8155 54.1916C86.8988 52.2164 90.0302 50.3857 93.547 48.266ZM69.8927 32.8016C74.3249 25.9606 78.9979 19.505 87.5732 17.3371C84.5863 13.7239 81.0695 11.8451 76.83 13.2904C69.7964 15.651 65.6051 21.2875 61.6065 27.454C65.5569 27.7913 67.2912 30.7782 69.8927 32.8016ZM36.1215 50.4821C38.7712 41.3768 45.6121 38.1491 54.3801 37.3782C52.7903 36.0775 51.2005 35.114 49.5144 34.3914C42.8179 31.549 33.3755 34.7768 29.955 41.1841C28.9915 43.0148 28.2688 44.99 30.1959 46.628C31.9784 48.2178 33.9054 49.6631 36.1215 50.4821ZM59.4867 40.8951C52.6458 37.2337 42.8661 40.2688 39.0602 46.9652C38.3376 48.2178 37.3741 49.8558 38.4821 50.9156C39.4938 51.9273 41.2281 51.3492 42.5289 50.6266C48.1173 47.447 53.6575 44.2674 59.4867 40.8951ZM88.1995 29.9592C83.96 30.1037 80.2987 29.6219 76.8782 32.0307C73.8431 34.1986 70.4708 35.8366 67.243 37.7155C67.3394 37.86 67.3876 38.0045 67.4839 38.1009C74.3731 38.4863 81.2622 38.8717 88.1032 39.2571C88.2477 39.1126 88.3922 38.9681 88.5367 38.8235C84.8754 36.1257 85.6462 33.1388 88.1995 29.9592ZM65.2197 54.2398C65.2197 49.9521 65.2197 45.3754 65.2197 40.8469C65.2197 39.2089 64.497 39.3535 63.4372 40.0279C60.7393 41.7141 57.9933 43.4002 55.2473 45.0864C54.7655 45.3754 54.2838 45.6645 54.1874 46.3389C53.8502 48.9886 53.4648 51.6383 53.0794 54.7697C55.2473 53.1317 57.0298 51.8792 58.7641 50.4339C59.7758 49.5667 60.4984 49.6149 61.3656 50.6266C62.7145 51.9755 64.1598 53.2281 65.2197 54.2398ZM52.1158 33.9578C53.9465 35.1622 55.6809 35.9812 57.0298 37.1855C59.7758 39.6907 62.1364 39.498 65.1233 37.2819C69.411 34.1505 69.6037 34.3914 65.5569 30.8263C63.0518 28.5621 59.8721 28.2249 57.2225 30.0074C55.4882 31.1636 53.9465 32.5607 52.1158 33.9578ZM71.5307 32.9461C72.2533 32.7534 72.6387 32.7534 72.976 32.5607C76.7818 30.3446 80.5877 28.1767 84.3454 25.8642C85.9353 24.9007 87.0915 23.4073 87.9105 21.7211C88.1995 21.0948 88.7294 20.4204 88.1032 19.7459C87.4769 19.1196 86.7061 19.1196 85.8871 19.3605C84.2491 19.8904 82.852 20.7576 81.4549 21.7211C77.3118 24.6598 74.4694 28.6103 71.5307 32.9461ZM39.8792 52.9872C35.7361 52.6982 32.6528 50.7229 29.8586 48.3623C28.5579 47.2543 27.7389 47.5915 26.6309 48.8441C29.3287 50.4821 31.9784 51.9273 34.4353 53.6617C36.4105 55.0106 37.9522 54.9624 39.8792 52.9872ZM89.982 20.854C89.3076 22.1547 88.6813 23.3109 88.055 24.5153C88.1513 24.6117 88.2477 24.708 88.344 24.8525C89.6448 24.0817 90.9455 23.3109 92.4872 22.3956C91.4755 21.7693 90.7528 21.3357 89.982 20.854Z" fill="#0D0D0D"></path><path d="M60.595 106.27C60.595 100.344 60.6432 94.4184 60.5468 88.4927C60.5468 87.1438 60.9322 86.3248 62.1366 85.6504C68.1104 82.2781 74.0842 78.8094 79.9616 75.2926C81.696 74.2809 81.8887 74.859 81.8887 76.497C81.8405 88.5409 81.8405 100.537 81.8887 112.581C81.8887 113.93 81.5033 114.749 80.2989 115.423C74.3251 118.795 68.3513 122.264 62.4257 125.781C60.6913 126.793 60.4986 126.214 60.5468 124.576C60.6432 118.41 60.595 112.34 60.595 106.27Z" fill="#9DD4B2"></path><path d="M38.0965 74.6663C43.444 77.7977 48.5507 81.1218 53.9945 83.7233C57.7041 85.5058 58.7639 87.7701 58.6676 91.8168C58.3303 103.283 58.5712 114.7 58.5712 126.166C57.4632 126.407 56.8369 125.636 56.1143 125.251C50.574 122.071 45.0338 118.843 39.4936 115.664C38.5301 115.134 37.9038 114.604 37.9038 113.303C37.952 100.729 37.952 88.1555 37.952 75.5334C37.9038 75.3407 38.0002 75.148 38.0965 74.6663Z" fill="#35B777"></path><path d="M6.39772 56.3595C11.9861 59.5873 17.1891 62.5742 22.3439 65.5611C23.0665 65.9465 23.3556 66.4282 23.3556 67.2472C23.3556 80.1102 23.3556 93.0213 23.3556 106.366C20.2724 104.583 17.43 102.994 14.6358 101.356C11.9379 99.8141 8.37293 98.8024 6.83131 96.4899C5.24151 94.033 6.39772 90.2753 6.39772 87.0956C6.34955 76.9306 6.39772 66.8618 6.39772 56.3595Z" fill="#35B777"></path><path d="M113.058 56.1667C113.058 69.4633 113.058 82.3262 113.058 95.141C113.058 96.0563 112.72 96.5862 111.901 97.0198C106.939 99.8622 101.977 102.753 97.0633 105.643C96.2443 105.21 96.5334 104.583 96.5334 104.102C96.5334 91.9132 96.5334 79.7247 96.5334 67.5362C96.5334 66.7172 96.2925 65.8501 97.3042 65.2238C102.459 62.3332 107.566 59.3463 113.058 56.1667Z" fill="#9DD4B2"></path><path d="M94.5597 50.4822C94.5597 51.5902 94.5597 52.2647 94.5597 52.9391C94.5597 70.2342 94.5597 87.5294 94.6079 104.873C94.6079 106.511 94.1743 107.474 92.6809 108.245C89.8867 109.69 87.1888 111.376 84.4428 112.966C83.7202 112.34 84.0092 111.665 84.0092 111.087C84.0092 93.5995 84.0092 76.1599 83.9611 58.6721C83.9611 57.2268 84.3465 56.3596 85.6472 55.637C88.5378 54.0954 91.3801 52.361 94.5597 50.4822Z" fill="#F1F1F1"></path><path d="M35.8816 113.448C32.4611 111.521 29.426 109.787 26.3427 108.101C25.6201 107.715 25.3311 107.185 25.3311 106.366C25.3311 88.0112 25.3311 69.6562 25.3311 50.8677C28.8479 52.9392 32.0757 54.8181 35.2553 56.6969C35.9779 57.1305 35.8334 57.7568 35.8334 58.3831C35.8816 76.5935 35.8816 94.804 35.8816 113.448Z" fill="#F1F1F1"></path><path d="M39.8792 32.2235C36.1215 33.3797 32.8456 35.2104 30.2441 38.1973C28.7024 39.9798 27.5944 41.955 27.5944 44.412C27.5944 46.0018 24.6557 47.977 23.3068 47.2062C16.7067 43.4967 10.1548 39.6426 3.41016 35.644C10.3956 31.5009 17.1403 27.5505 23.8849 23.6001C24.463 23.2628 25.0411 23.0701 25.6674 23.4555C30.3404 26.2497 35.0135 28.9957 39.6865 31.7418C39.7829 31.8381 39.7829 32.079 39.8792 32.2235Z" fill="#35B777"></path><path d="M39.3979 14.4948C45.9017 10.689 52.1164 7.07577 58.2829 3.46258C58.9091 3.07718 59.3427 3.029 60.0172 3.41441C64.8829 6.25678 69.7969 9.09915 74.9999 12.1342C68.6888 15.362 64.353 20.1314 60.8362 25.768C60.5471 26.2497 60.2581 26.6351 59.5354 26.2497C52.9353 22.3475 46.3353 18.4934 39.3979 14.4948Z" fill="#35B777"></path><path d="M67.0982 47.7361C71.9158 50.5785 76.3961 53.1799 81.1655 55.9741C76.6852 58.6238 72.4939 61.0808 68.3026 63.5377C65.8456 64.983 63.3405 66.4765 60.8353 67.9217C60.2091 68.259 59.7273 68.7407 58.8601 68.259C52.2119 64.3086 45.5154 60.4063 38.5781 56.3596C43.203 53.6617 47.587 51.1084 52.3564 48.3142C52.0192 50.7712 51.7783 52.7464 51.5374 54.6734C51.4411 55.4924 50.7184 56.5523 51.7301 57.0822C52.6455 57.5639 53.2717 56.5041 53.9462 56.0223C55.5842 54.8661 57.174 53.6617 58.7156 52.361C59.7755 51.4456 60.4018 51.6383 61.2689 52.6018C62.666 54.1435 64.1113 55.6369 65.6047 57.1304C65.9902 57.5158 66.3274 58.1421 66.9537 57.9012C67.6763 57.6121 67.5318 56.8895 67.4836 56.215C67.3391 53.5172 67.2427 50.8193 67.0982 47.7361Z" fill="#35B777"></path><path d="M115.565 35.7403C109.061 39.5461 103.039 43.1111 96.9688 46.6762C96.2943 47.0616 95.7644 47.2543 94.9936 46.7725C91.7658 44.8455 88.538 42.9666 85.3584 40.6542C86.7073 40.7505 88.0081 40.8469 89.357 40.8951C90.8023 40.9432 91.284 40.2206 90.2723 39.2089C87.3336 36.222 86.9482 33.2351 89.6942 29.8628C90.6096 28.7066 90.3205 28.5139 86.9482 27.984C89.5015 26.4905 91.7176 25.1898 93.9337 23.8408C94.5118 23.5036 94.9936 23.7927 95.4753 24.0817C102.124 27.8876 108.675 31.6935 115.565 35.7403Z" fill="#35B777"></path><path d="M23.3546 63.7788C16.4173 59.7802 9.86536 55.9743 3.31345 52.2166C2.59081 51.8312 2.30176 51.3012 2.30176 50.4822C2.34993 46.2428 2.30176 42.0515 2.30176 37.812C3.45798 37.6675 4.08426 38.3901 4.75872 38.8237C10.4435 42.0997 16.0319 45.472 21.7166 48.6997C22.921 49.3742 23.3546 50.145 23.3546 51.5421C23.3064 55.4925 23.3546 59.3948 23.3546 63.7788Z" fill="#35B777"></path><path d="M60.5947 84.2053C60.5947 79.7249 60.6429 75.7263 60.5947 71.7277C60.5947 70.6679 61.0283 70.1861 61.8955 69.7044C68.062 66.1394 74.1803 62.5262 80.2986 58.8648C81.3585 58.2385 81.9848 57.9976 81.9848 59.6838C81.9366 63.297 81.9366 66.9102 81.9848 70.4752C81.9848 71.3423 81.8402 71.9686 80.9731 72.4504C74.2767 76.2563 67.6766 80.1103 60.5947 84.2053Z" fill="#9DD4B2"></path><path d="M116.623 37.8118C116.623 42.2439 116.623 46.5316 116.623 50.8192C116.623 51.4455 116.431 51.8791 115.901 52.2163C109.542 55.8777 103.231 59.539 96.5342 63.4413C96.5342 58.7201 96.5342 54.4324 96.5342 50.1448C96.5342 49.374 96.9678 49.0367 97.594 48.6995C103.664 45.1345 109.734 41.5695 115.804 38.0045C115.997 37.9081 116.238 37.9081 116.623 37.8118Z" fill="#9DD4B2"></path><path d="M58.5232 84.157C51.6822 80.2065 45.1785 76.4488 38.6748 72.7393C37.904 72.3057 37.8076 71.6794 37.8076 70.9568C37.8076 66.8618 37.8076 62.8151 37.8076 58.7201C38.723 58.4311 39.2529 59.0574 39.831 59.3946C45.5157 62.6706 51.1041 66.091 56.8371 69.3188C58.1378 70.0414 58.5714 70.8604 58.5232 72.3539C58.475 76.1116 58.5232 79.8693 58.5232 84.157Z" fill="#35B777"></path><path d="M26.7275 22.0585C30.3407 19.8905 33.424 18.0117 36.5072 16.181C37.0853 15.8438 37.6634 15.7956 38.2897 16.1328C44.8416 19.9387 51.3935 23.7928 58.1382 27.695C55.6812 28.9476 53.8505 30.6337 51.9235 32.1754C51.0563 32.8498 50.3819 32.7053 49.3702 32.6089C40.6985 31.8381 34.7247 25.5271 26.7275 22.0585Z" fill="#F1F1F1"></path><path d="M93.5469 48.266C90.0301 50.3857 86.8987 52.2164 83.7672 54.1434C82.9964 54.6252 82.4665 54.3843 81.792 53.9989C77.1672 51.3011 72.5423 48.6032 67.9174 45.8572C66.9539 45.2791 66.1349 40.7506 66.7612 39.8834C67.0984 39.4016 67.6284 39.5943 68.1101 39.5943C71.7233 39.787 75.2883 39.9797 78.9015 40.2206C79.5278 40.2688 80.1541 40.5097 80.684 40.7987C84.8753 43.2075 89.0184 45.6163 93.5469 48.266Z" fill="#F1F1F1"></path><path d="M69.8922 32.8016C67.3389 30.7782 65.5564 27.7913 61.606 27.4059C65.6045 21.2394 69.7958 15.651 76.8295 13.2422C81.1171 11.7969 84.5858 13.6758 87.5727 17.289C78.9974 19.5051 74.2762 25.9606 69.8922 32.8016Z" fill="#F1F1F1"></path><path d="M36.1227 50.4821C33.9066 49.6631 31.9796 48.2178 30.1971 46.628C28.2701 44.9418 28.9927 43.0148 29.9562 41.1841C33.4249 34.7768 42.8192 31.549 49.5156 34.3913C51.2017 35.114 52.7916 36.0775 54.3814 37.3782C45.6134 38.1491 38.7724 41.3768 36.1227 50.4821Z" fill="#F1F1F1"></path><path d="M59.4865 40.8952C53.609 44.2675 48.117 47.4471 42.5286 50.6267C41.2279 51.3494 39.4935 51.9275 38.4818 50.9158C37.3738 49.8077 38.3373 48.1698 39.0599 46.9654C42.8658 40.2689 52.6455 37.2339 59.4865 40.8952Z" fill="#F1F1F1"></path><path d="M88.2003 29.9591C85.647 33.1869 84.828 36.1256 88.5857 38.8716C88.4412 39.0162 88.2966 39.1607 88.1521 39.3052C81.263 38.9198 74.3738 38.5344 67.5329 38.149C67.4365 38.0045 67.3883 37.8599 67.292 37.7636C70.5198 35.8847 73.8921 34.2467 76.9271 32.0788C80.2995 29.5737 83.9608 30.1036 88.2003 29.9591Z" fill="#F1F1F1"></path><path d="M65.2205 54.2398C64.1607 53.2281 62.7154 51.9756 61.4147 50.5785C60.4993 49.615 59.8249 49.5668 58.8132 50.3858C57.0788 51.7829 55.2963 53.0836 53.1284 54.7216C53.562 51.6383 53.8992 48.9887 54.2365 46.2908C54.3328 45.6164 54.8146 45.3273 55.2963 45.0383C58.0423 43.3521 60.7402 41.7141 63.4862 39.9798C64.5461 39.3053 65.2687 39.1608 65.2687 40.7988C65.2205 45.4237 65.2205 49.9522 65.2205 54.2398Z" fill="#F1F1F1"></path><path d="M52.1152 33.9579C53.9459 32.5127 55.5357 31.1637 57.2219 30.0075C59.8715 28.225 63.0511 28.6104 65.5563 30.8265C69.5549 34.4397 69.4103 34.1988 65.1227 37.2821C62.1358 39.45 59.7752 39.6427 57.0292 37.1857C55.6321 35.9813 53.9459 35.1623 52.1152 33.9579Z" fill="#F1F1F1"></path><path d="M71.5298 32.946C74.4685 28.6102 77.3109 24.6597 81.4058 21.7692C82.8029 20.8057 84.2 19.9385 85.838 19.4086C86.657 19.1195 87.4278 19.1195 88.0541 19.794C88.7285 20.4684 88.1504 21.1429 87.8614 21.7692C87.0906 23.5035 85.8862 24.9488 84.2964 25.9123C80.5387 28.2247 76.7328 30.3927 72.9269 32.6087C72.6378 32.8014 72.2042 32.8014 71.5298 32.946Z" fill="#F1F1F1"></path><path d="M39.8782 52.9872C37.9512 55.0106 36.4096 55.0587 34.4344 53.6616C31.9774 51.9273 29.3277 50.482 26.6299 48.8441C27.6898 47.5915 28.5569 47.2543 29.8577 48.3623C32.6519 50.7229 35.7351 52.6981 39.8782 52.9872Z" fill="#F1F1F1"></path><path d="M89.9827 20.854C90.7535 21.3358 91.4761 21.7693 92.4878 22.3475C90.9462 23.2628 89.6455 24.0336 88.3447 24.8044C88.2484 24.7081 88.152 24.6117 88.0557 24.4672C88.6819 23.311 89.3082 22.1547 89.9827 20.854Z" fill="#F1F1F1"></path></svg>