<svg xmlns="http://www.w3.org/2000/svg" width="59" height="86" viewBox="0 0 59 86" fill="none"><path d="M17.6602 41.3145C17.681 43.354 17.7694 45.4979 17.8584 47.6465C17.96 50.0999 18.0625 52.5598 18.0625 54.8662V62.9648C18.0625 64.9382 18.0137 66.8548 18.0615 68.8164L18.0625 68.8223C18.0625 69.2266 18.074 69.8689 18.0859 70.4121C18.0919 70.6833 18.0981 70.9294 18.1025 71.1074C18.1048 71.1964 18.1061 71.2686 18.1074 71.3184C18.1081 71.3433 18.109 71.3629 18.1094 71.376V71.3945L18.1104 71.3955V76.9492C19.4956 76.1679 20.7249 75.4614 21.9121 74.7139L21.917 74.7109L22.1787 74.5459C22.7857 74.1481 23.3594 73.6643 24.0068 73.1895L24.0811 73.1357L24.1729 73.1445C26.5217 73.3842 28.8165 73.6222 31.1582 73.7656C32.3378 73.7647 33.4171 73.624 34.5283 73.5273L34.6543 73.9814C32.2033 75.1829 29.7217 76.3283 27.333 77.666L27.3311 77.667C23.6412 79.6919 19.8821 81.667 16.3145 83.915L15.6035 84.3682C14.566 85.0351 13.6513 85.2972 12.7461 85.2197C11.8482 85.1428 10.9928 84.7338 10.0703 84.127L10.0693 84.126C7.48752 82.4048 4.7353 81.0318 2.03125 79.4385L1.74609 79.2686C1.53955 79.1416 1.30994 78.9923 1.1123 78.8506L0.84668 78.6475L0.760742 78.5752V27.7891L0.762695 27.7744L0.796875 27.5996C0.842723 27.4279 0.919354 27.2653 0.998047 27.1172C1.05105 27.0174 1.10858 26.9171 1.16211 26.8232C1.21668 26.7276 1.26779 26.6363 1.3125 26.5469L1.46191 26.25L1.69629 26.4844L1.85156 26.6621C1.90058 26.7232 1.94517 26.7818 1.98047 26.8242C2.0445 26.9011 2.09675 26.9517 2.14453 26.9824L2.19141 27.0068L2.20801 27.0137L2.22266 27.0225C4.81106 28.5324 7.39874 30.0415 10.0059 31.5303L12.6201 33.0107L12.6211 33.0117L12.7246 33.0576C12.8426 33.0987 13.0013 33.124 13.1738 33.124C13.4035 33.124 13.6082 33.0788 13.7256 33.0117L13.7334 33.0078L14.4824 32.6094C16.2203 31.6702 17.8952 30.6728 19.6221 29.7041C24.3172 27.0212 28.9637 24.2908 33.6611 21.5586L37.624 19.2646C38.9467 18.5022 40.2709 17.7412 41.5947 16.9805C44.2427 15.4588 46.8901 13.9375 49.5254 12.4043L49.5273 12.4033L49.6455 12.6113L49.5283 12.4033C50.9795 11.581 52.3525 10.996 53.7129 10.417C55.0754 9.83709 56.4253 9.26318 57.8496 8.45605L58.207 8.25293V8.66406C58.207 11.9681 58.2716 15.0258 58.3359 18.0918C58.4003 21.157 58.4648 24.2309 58.4648 27.5645C58.4648 27.9802 58.5607 32.1217 58.5127 33.8018C58.5138 34.4423 58.6563 50.6416 58.7041 58.2363V58.2383C58.7041 58.7445 58.6153 59.1732 58.4082 59.5322C58.1999 59.8932 57.8845 60.1617 57.4697 60.3691L57.4639 60.3721C56.656 60.7522 55.8998 61.1783 55.0781 61.6133L54.7383 61.793L54.7266 61.4092C54.7025 60.6641 54.6907 59.9192 54.6787 59.1768C54.6667 58.4337 54.6547 57.6926 54.6309 56.9521L54.6299 56.9443H54.6309C54.6309 56.3623 54.6916 55.7408 54.7207 55.165C54.7504 54.577 54.7486 54.0152 54.6357 53.4961V53.4941C54.5215 52.9457 54.3027 52.4021 54.0527 51.8486C53.8066 51.3036 53.5232 50.7362 53.3047 50.1777L53.29 50.1396L53.2881 50.0977C53.2405 48.5262 53.1445 46.9316 53.1445 45.2979C53.1445 45.0384 53.1841 44.7904 53.2129 44.5713C53.2425 44.3459 53.2632 44.1417 53.2422 43.9316L53.2412 43.9229L53.2402 43.9131C53.1923 41.8042 53.1445 39.6987 53.0488 37.6416L53.0205 36.9541C53.013 36.7253 53.007 36.4968 53.001 36.2695C52.989 35.8138 52.9769 35.3617 52.9531 34.9102L52.9492 34.8301L52.9941 34.7637C54.7207 32.197 54.8694 29.2939 54.6309 26.2412L54.6289 26.2188L54.6318 26.1953C55.0488 22.5816 54.1462 19.5406 51.3486 17.0342C50.0178 17.9071 48.7726 18.7376 47.5264 19.5684L47.5068 19.5811L47.4854 19.5908C46.8894 19.8391 46.3486 20.0173 45.8447 20.3379L45.8359 20.3438L45.7158 20.1357L45.835 20.3438C42.0011 22.5482 38.1794 24.7648 34.3574 26.9873L22.8789 33.667C22.1361 34.0983 21.3932 34.5296 20.6504 34.9609C19.9168 35.3869 19.1828 35.8123 18.4492 36.2383C18.3809 36.3135 18.2998 36.3909 18.2197 36.4609C18.1199 36.5482 18.0238 36.6284 17.9307 36.7139C17.8385 36.7985 17.764 36.8754 17.7139 36.9443C17.6621 37.0156 17.6554 37.0527 17.6553 37.0625V37.0713C17.6076 38.4075 17.6076 39.1023 17.6553 40.4385V40.4473L17.6602 41.3145Z" fill="#35B777" stroke="black" stroke-width="0.479271"></path><path d="M46.4561 1.20117C46.5778 1.19741 46.6847 1.21462 46.7676 1.24805L46.8428 1.28711L46.8496 1.29102L46.8564 1.2959C50.6231 3.44147 54.343 5.5864 58.1094 7.7793C56.7552 8.54864 55.4112 9.32782 54.0684 10.1064C53.3554 10.5199 52.6427 10.9331 51.9287 11.3447L49.7812 12.5732L49.7783 12.5742C47.1431 14.1075 44.4956 15.6287 41.8477 17.1504C40.5238 17.9112 39.1996 18.6722 37.877 19.4346L33.916 21.7275C31.5672 23.0697 29.2303 24.4241 26.8936 25.7842L19.8721 29.876H19.8711C17.9081 31.025 15.9965 32.1247 13.9902 33.1758C13.8336 33.2541 13.617 33.3073 13.4023 33.3125C13.1839 33.3178 13.0034 33.2731 12.8945 33.1953L12.8838 33.1875L12.873 33.1816L10.2588 31.7002C7.6517 30.2114 5.06396 28.7023 2.47559 27.1924L2.46094 27.1836L2.44434 27.1768L2.39746 27.1475C2.37357 27.1298 2.34149 27.1032 2.30078 27.0654C2.22634 26.9964 2.14188 26.9076 2.05566 26.8115C1.93011 26.6716 1.7851 26.5026 1.68066 26.3867C1.68425 26.367 1.68752 26.3409 1.69824 26.3105C1.73629 26.2032 1.83544 26.0211 2.09473 25.791C2.6194 25.3254 3.78077 24.6824 6.31934 24.0879L6.34082 24.083L6.36133 24.0742L6.36719 24.0713C6.37135 24.0694 6.37799 24.0669 6.38574 24.0635C6.40129 24.0566 6.424 24.0464 6.45117 24.0342C6.50543 24.0097 6.57959 23.9762 6.6582 23.9395C6.79215 23.8769 6.95931 23.7929 7.05762 23.7334L7.05859 23.7344C7.46214 23.5445 7.86946 23.382 8.29199 23.1982C8.70547 23.0185 9.12177 22.8216 9.51758 22.5752L9.51855 22.5762C11.3781 21.5272 13.2198 20.3647 15.0195 19.3223C15.8318 18.94 16.65 18.5545 17.4688 18.1211L17.4756 18.1182L17.4814 18.1143C18.9635 17.2059 20.3986 16.2964 21.834 15.3398C23.1267 14.6217 24.4466 13.9031 25.7529 13.2051L27.0537 12.5146L27.0586 12.5117C27.9143 12.0363 28.8366 11.5505 29.6602 11.0176L29.6816 11.0039L29.6992 10.9863C29.6923 10.9933 29.7036 10.983 29.7529 10.9492C29.793 10.9218 29.8434 10.8889 29.8936 10.8564C29.9435 10.8241 29.9921 10.7925 30.0283 10.7695C30.0464 10.7581 30.0619 10.7487 30.0723 10.7422L30.0869 10.7324H30.0889V10.7314C30.0894 10.7311 30.0908 10.7311 30.0918 10.7305C30.094 10.7291 30.0972 10.7264 30.1016 10.7236C30.1106 10.718 30.1249 10.7093 30.1426 10.6982C30.1778 10.6762 30.23 10.6442 30.2969 10.6025C30.4313 10.5188 30.6265 10.3967 30.8682 10.2471C31.3515 9.9478 32.0216 9.5348 32.7695 9.08008C33.893 8.39704 35.1892 7.62194 36.29 6.99512L37.3115 6.42676L37.3135 6.42578C40.2774 4.8004 43.1292 2.96575 46.0283 1.30176C46.1381 1.24688 46.2956 1.20619 46.4561 1.20117Z" fill="#35B777" stroke="black" stroke-width="0.479271"></path><path d="M54.9551 58.0098C54.9649 58.4559 54.9733 58.9023 54.9805 59.3496C54.9923 60.0814 55.004 60.8155 55.0273 61.5498C54.1881 65.5248 51.4317 67.9188 48.1475 69.8506L47.4824 70.2314C44.2113 72.0326 40.6983 72.9841 37.0303 73.5088C36.2722 73.5562 35.5541 73.605 34.7881 73.7002C34.2318 73.7246 33.6601 73.7858 33.1055 73.833C32.5444 73.8808 31.994 73.9149 31.459 73.8916H31.458C29.1173 73.7481 26.8482 73.4635 24.4912 73.2705C22.4517 72.7143 20.4103 72.1577 18.4121 71.6445V71.5459C18.4121 70.6811 18.4007 69.968 18.3887 69.2568C18.3783 68.6394 18.3688 68.0231 18.3662 67.3086C23.2456 68.9382 28.2426 69.3289 33.3906 68.9072L34.4443 68.8105H34.4453C37.8686 68.4502 41.2646 67.8772 44.5049 66.6514L45.1504 66.3975L45.1533 66.3955C48.426 64.9998 51.4953 63.2532 53.6426 60.2275L53.6416 60.2266C54.1463 59.5408 54.5513 58.7645 54.9551 58.0098Z" fill="#35B777" stroke="black" stroke-width="0.479271"></path><path d="M25.2666 10.3281C26.8877 10.0908 28.9479 9.92476 30.2803 10.0967L30.2793 10.0977C30.301 10.1003 30.3305 10.1062 30.3613 10.1221C30.4228 10.1539 30.4748 10.2152 30.4883 10.2969C30.499 10.3621 30.48 10.4123 30.4717 10.4316C30.4618 10.4547 30.4506 10.4718 30.4443 10.4805C30.4234 10.5092 30.398 10.5297 30.3916 10.5352C30.3692 10.5542 30.3398 10.5769 30.3105 10.5977C30.2494 10.6411 30.1653 10.6972 30.0801 10.752C29.9945 10.8069 29.9046 10.8627 29.832 10.9053C29.7963 10.9263 29.7618 10.9453 29.7334 10.96C29.7196 10.9671 29.7035 10.9757 29.6875 10.9824C29.6846 10.9837 29.6806 10.9839 29.6768 10.9854C28.8179 11.5093 27.9598 11.9868 27.1064 12.4609C25.3796 13.4203 23.6046 14.3797 21.8779 15.291L21.8311 15.3164L21.7773 15.3184C19.7045 15.4105 18.1453 16.6951 16.4346 17.8193C15.8993 18.1766 15.5503 18.7048 15.0986 19.2568L15.0723 19.2891L15.0371 19.3105C13.2165 20.4125 11.3923 21.5168 9.51953 22.5732H9.51855C8.74286 23.0095 7.85137 23.3584 7.05859 23.7314L6.66602 23.916L6.71875 23.4854C7.16069 19.9008 9.12948 17.4026 11.9443 15.3643C15.7245 12.6021 20.0785 11.2998 24.5967 10.4346L24.6016 10.4336L25.2666 10.3281Z" fill="#9DD4B2" stroke="black" stroke-width="0.479271"></path><path d="M53.8789 45.4238C53.9028 46.212 53.9148 46.791 53.9268 47.375C53.9387 47.9607 53.9507 48.5517 53.9746 49.3652L53.9756 49.3926L53.9697 49.4189C53.9255 49.6398 53.8907 50.0734 53.8604 50.5293C53.8309 50.9728 53.8067 51.4328 53.7822 51.6777C53.7353 52.147 53.7352 52.6218 53.7168 53.125C53.6988 53.618 53.6618 54.1269 53.5371 54.6289L53.5381 54.6299C52.8959 57.4951 50.9681 59.4073 48.6973 61.002L48.6982 61.0029C45.3337 63.4126 41.5072 64.6237 37.5137 65.3604L36.7129 65.502C33.2911 66.0803 29.8598 66.2263 26.4717 65.6455V65.6445C23.631 65.163 20.8763 64.2947 18.1133 63.5801L18.0498 63.5645L18.0039 63.5176C17.9643 63.478 17.9408 63.4352 17.9268 63.4043C17.9131 63.3743 17.9036 63.3437 17.8984 63.3281C17.8957 63.3198 17.8941 63.3138 17.8926 63.3096L17.8379 63.2559V63.1562C17.8379 61.9569 17.8494 60.7697 17.8613 59.584C17.8733 58.3976 17.8857 57.2123 17.8857 56.0156V54.7041L17.877 52.9902C17.8613 51.2839 17.8259 49.5987 17.79 47.9121C17.7422 45.6643 17.6943 43.4136 17.6943 41.1104V40.7305L18.0371 40.8936C21.2088 42.4084 24.6247 42.98 28.0566 43.123H28.0576L28.6299 43.1445C31.4924 43.2247 34.3922 42.9178 37.2773 42.6924H37.2793L37.8877 42.6367C40.9199 42.307 43.7641 41.1865 46.5898 39.8857L46.5957 39.8838L47.084 39.6641C49.4956 38.5268 51.4402 36.8267 53.2725 34.8604L53.6572 34.4473L53.6865 35.0107C53.7107 35.4696 53.7234 35.9281 53.7354 36.3828C53.7413 36.6107 53.7474 36.838 53.7549 37.0645L53.7832 37.7432V37.75L53.8115 39.3135C53.819 39.8287 53.8251 40.3391 53.8311 40.8477C53.843 41.8652 53.855 42.8755 53.8789 43.9043V45.4238Z" fill="#9DD4B2" stroke="black" stroke-width="0.479271"></path><path d="M54.8984 27.1426C55.0953 29.8808 54.8785 32.5139 53.2598 34.8662C51.4301 36.7834 49.4463 38.5189 47.0723 39.6982L46.5908 39.9277C43.8097 41.1837 40.9672 42.3021 37.8936 42.6709L37.2764 42.7344C34.3915 42.9598 31.4921 43.2667 28.6299 43.1865L28.0576 43.165H28.0566C24.6823 43.0244 21.0371 42.2416 17.8887 40.8105C17.8862 39.8578 17.8629 39.0007 17.8691 38.0986L17.8896 37.124V37.1221C17.8906 37.1201 17.8978 37.0976 17.9385 37.0508C17.9898 36.9918 18.0663 36.9248 18.1641 36.8457C18.255 36.7721 18.3708 36.684 18.4697 36.5996C18.5283 36.5496 18.5873 36.4938 18.6426 36.4355C20.4047 36.8558 22.1463 37.3223 23.9229 37.6963V37.6953C27.4115 38.4653 30.8954 38.5555 34.4102 38.2861L35.1133 38.2275H35.1152C38.8191 37.8662 42.4875 37.0379 45.9189 35.502L46.6025 35.1855L46.6035 35.1846C48.632 34.1929 50.6491 33.0187 52.1465 31.2588L52.4395 30.8984L52.4404 30.8965C53.3539 29.6924 54.1247 28.4157 54.8984 27.1426Z" fill="white" stroke="black" stroke-width="0.479271"></path><path d="M47.6357 19.7783C47.7819 19.9298 47.9377 20.07 48.0693 20.1973C48.2012 20.3247 48.3167 20.4469 48.4092 20.5771L48.4941 20.7109L48.499 20.7188C49.4139 22.2201 49.7624 23.5798 49.5859 24.8945C49.42 26.1301 48.7861 27.359 47.6572 28.6553L47.4248 28.916C43.8947 32.7756 39.1341 34.0147 34.0781 34.541H28.251C27.2655 34.4432 26.3536 34.4461 25.4209 34.2129L25.4141 34.2109L25.4072 34.21L25.1377 34.1475C24.8668 34.0736 24.5905 33.9678 24.3057 33.8477C24.0796 33.7523 23.8429 33.6456 23.6045 33.5439C27.297 31.398 30.9792 29.2632 34.6611 27.1279C38.4814 24.9124 42.3014 22.6963 46.1338 20.4688L46.1348 20.4697C46.6032 20.2142 47.1124 19.9969 47.6357 19.7783Z" fill="#35B777" stroke="black" stroke-width="0.479271"></path><path d="M51.8291 16.7236C54.8708 19.3238 55.8489 22.6192 55.4102 26.4229L55.4033 26.4805L55.3711 26.5283C54.8949 27.2426 54.4559 27.9796 53.998 28.7207C53.5419 29.459 53.0696 30.1979 52.5352 30.9023L52.5342 30.9014C51.0119 32.9146 48.8588 34.1341 46.6982 35.1904V35.1895C43.0701 36.9793 39.1575 37.8472 35.209 38.2324H35.208C31.5018 38.5694 27.7371 38.5227 24.0156 37.7012V37.7002C23.0989 37.5071 22.3147 37.2998 21.5352 37.0869C20.9494 36.927 20.3669 36.7651 19.7305 36.6035L19.0732 36.4414L18.501 36.3057L19.0059 36.0029C19.729 35.5691 20.441 35.1752 21.1553 34.7832C21.8704 34.3907 22.5875 33.9998 23.3271 33.5703L23.4248 33.5137L23.5312 33.5537C24.3341 33.8548 24.665 34.0736 25.457 34.2607H25.458C26.3486 34.4482 27.3248 34.4949 28.2979 34.5918H34.1152C39.1732 34.066 43.9371 32.7802 47.4219 28.9658H47.4229L47.6553 28.7061C48.7844 27.4095 49.4181 26.1801 49.584 24.9443C49.7604 23.6297 49.4118 22.2707 48.4971 20.7695L48.4922 20.7607C48.3902 20.5772 48.2432 20.418 48.0674 20.248C47.9411 20.126 47.7924 19.9921 47.6514 19.8477L47.5146 19.7002L47.335 19.4941L47.5625 19.3428C48.8563 18.4802 50.1513 17.6172 51.542 16.7061L51.6924 16.6074L51.8291 16.7236Z" fill="#9DD4B2" stroke="black" stroke-width="0.479271"></path><path d="M54.0508 50.1152C54.169 50.3872 54.2961 50.66 54.4258 50.9365C54.555 51.2121 54.6864 51.4919 54.8105 51.7734C55.0586 52.3362 55.2823 52.9173 55.4072 53.5166H55.4062C55.4115 53.5406 55.4171 53.5648 55.4219 53.5889C55.8823 55.8905 55.0054 58.3214 53.6416 60.1738L53.6426 60.1748C51.496 63.1996 48.4286 64.9953 45.1514 66.3447C41.7175 67.7953 38.1443 68.4203 34.4434 68.7568L34.4443 68.7578C28.8131 69.3354 23.6517 69.0671 18.3379 67.2314L18.168 67.1729L18.1768 66.9941C18.2244 65.9946 18.1768 64.6658 18.1768 63.5967V63.2871L18.4766 63.3652C21.2527 64.0832 23.7805 64.6895 26.5967 65.167H26.5977C29.9203 65.6891 33.2959 65.5476 36.6807 65.0234L37.4736 64.8828C41.1598 64.1972 44.6403 63.0786 47.7979 61.0537L48.4697 60.6055C50.6579 59.0352 52.514 57.2108 53.1172 54.5195C53.2085 54.0603 53.2438 53.5854 53.2676 53.0986C53.2911 52.6154 53.3038 52.1123 53.3525 51.625C53.4018 51.1321 53.5003 50.6413 53.5957 50.1641L53.7451 49.4141L54.0508 50.1152Z" fill="white" stroke="black" stroke-width="0.479271"></path><path d="M21.8477 15.335C21.1293 15.7899 20.3989 16.2573 19.668 16.7246C18.9372 17.1918 18.2057 17.6596 17.4863 18.1152L17.4785 18.1201L17.4707 18.124C17.0575 18.3428 16.6449 18.5372 16.2383 18.7285C15.8302 18.9205 15.4279 19.1097 15.0264 19.3223L14.7363 18.9502C14.9509 18.7117 15.1341 18.4606 15.3652 18.1846C15.5849 17.9222 15.8315 17.6588 16.127 17.4707C17.7702 16.3906 19.4698 14.9931 21.709 14.8936L22.6084 14.8535L21.8477 15.335Z" fill="#35B777" stroke="black" stroke-width="0.479271"></path></svg>