<svg xmlns="http://www.w3.org/2000/svg" width="188" height="165" viewBox="0 0 188 165" fill="none"><g filter="url(#filter0_d_4_4408)"><path d="M83.9807 110.449C80.78 114.09 76.7339 115.233 72.114 114.18C64.2633 112.405 60.8814 104.582 64.8672 97.5714C65.5918 96.2776 66.4675 95.044 67.2526 93.8405C64.9879 93.8405 62.6025 94.2617 60.4285 93.7201C58.0128 93.1484 56.8956 90.8316 56.2917 88.5449C55.2953 84.8741 57.4089 81.775 62.7233 78.9768C58.9489 78.1945 56.3521 75.998 55.4764 72.4777C54.631 69.168 54.8725 65.768 57.8317 63.2406C58.8583 62.9397 59.8849 62.4884 60.9418 62.3379C63.6292 61.9468 65.9542 62.8795 68.1584 64.3538C70.2419 65.7379 72.5669 66.099 75.0128 65.6476C74.59 65.2866 74.1371 65.1662 73.654 65.0158C70.2721 63.8122 66.9204 62.4282 64.5954 59.63C62.4817 57.0724 60.6096 54.2742 58.8885 51.4158C55.7482 46.0902 48.8335 42.9008 42.7341 46.7521C39.5334 48.7681 37.6009 51.6265 37.5707 55.3574C37.5405 56.9822 38.4463 58.607 38.8993 60.2317C39.02 60.8636 39.1408 61.4954 39.2918 62.368C36.846 60.7733 35.6382 58.637 35.3664 56.0795C34.1586 44.3751 45.0893 37.6053 53.6345 39.4407C57.7411 40.3433 60.7606 43.0813 63.3272 46.2406C64.686 47.8955 65.773 49.7911 66.9808 51.5663C67.8263 52.7999 68.5812 54.1238 69.5172 55.2972C71.8121 58.1255 74.2277 58.7273 77.7001 57.5238C79.4515 57.1025 80.3271 55.8087 80.931 54.2441C81.8369 51.8371 82.9239 49.6105 85.4301 48.3167C86.9097 47.5645 88.2081 46.3911 88.5402 44.315C88.0873 44.5256 87.7853 44.7061 87.4834 44.7964C83.7996 46.2105 80.0252 47.3238 76.0696 46.2406C74.4089 45.7893 72.9595 44.676 71.4195 43.8636C70.0003 42.0884 68.7322 40.253 68.2792 37.9663C66.86 30.6548 72.8689 24.577 79.0287 24.8478C80.5385 25.1186 82.2294 25.0584 83.558 25.7203C86.2756 27.0743 88.8422 28.6991 91.3786 30.384C93.613 31.8885 94.9114 31.9486 96.9949 30.2035C100.467 27.2849 104.212 24.9982 108.922 24.8177C114.84 24.7274 119.098 29.3911 119.792 33.6637C120.336 37.0035 119.671 40.0424 117.588 42.7203C117.286 43.1114 116.954 43.5026 116.652 43.8937C116.35 44.0442 116.018 44.1344 115.746 44.3451C113.934 45.8194 111.911 46.5415 109.556 46.6017C106.084 46.692 102.883 45.699 99.7125 44.4654C100.347 45.4884 100.739 46.9327 101.645 47.4442C104.423 49.0088 106.204 51.2353 107.201 54.2141C107.714 55.7185 108.62 56.9822 110.281 57.4034C113.904 58.7273 116.622 57.945 118.826 54.8158C120.97 51.7769 122.842 48.5574 125.137 45.6689C127.613 42.5698 130.723 39.9221 134.739 39.2902C146.364 37.4849 155.302 48.2566 152.222 57.9149C151.678 59.63 150.773 61.1946 148.931 61.9468L148.9 61.9167C149.021 61.1344 149.142 60.322 149.263 59.5397C149.504 59.2388 149.837 58.9981 149.927 58.6671C151.044 54.9964 150.501 51.5964 147.874 48.738C144.945 45.6088 141.321 44.2548 137.034 45.2778C133.229 46.2105 130.693 48.7681 128.7 51.9574C127.401 54.0335 126.012 56.0494 124.624 58.0353C122.057 61.7361 118.252 63.5415 114.146 64.9255C113.723 65.076 113.33 65.2264 112.908 65.3768C112.938 65.4972 112.998 65.6175 113.029 65.768C115.384 65.9786 117.739 65.7981 119.702 64.3538C123.023 61.9468 126.435 61.4654 130.179 63.1202C134.89 66.8813 133.954 76.9007 125.469 78.9166C129.998 81.1131 133.35 84.0316 131.387 89.5378C129.877 93.8104 127.613 94.5024 120.759 93.5998C121.634 95.044 122.631 96.398 123.386 97.9024C127.522 105.966 122.298 114.361 113.24 114.391C109.616 114.421 106.688 113.097 104.242 110.54C104 110.118 103.759 109.697 103.547 109.276C103.94 109.426 104.332 109.577 104.695 109.757C108.65 112.044 112.696 112.796 116.954 110.509C118.464 109.697 119.43 108.463 119.641 106.748C120.275 101.332 117.497 97.5112 112.817 95.3148C113.663 93.2086 114.538 91.1024 115.384 88.9661C115.746 89.1166 116.169 89.1768 116.501 89.3874C118.524 90.8617 120.819 91.7644 123.265 92.0652C124.412 92.1856 125.711 91.8546 126.798 91.4033C127.885 90.9219 127.915 89.2068 126.888 88.5449C125.982 87.9431 124.986 87.2812 123.959 87.0706C120.306 86.3785 116.622 85.6865 112.908 85.4157C109.466 85.1449 105.993 85.3555 102.521 85.3555C102.007 85.3555 101.464 85.5361 100.95 85.6263C100.498 85.6564 100.045 85.6865 99.3803 85.7166C101.313 83.821 108.831 80.6918 113.089 79.9095C115.384 79.6387 117.648 79.398 120.124 79.1272C118.615 78.9768 117.286 78.8865 115.957 78.706C111.338 78.1042 106.99 76.8405 103.577 73.3804C103.185 72.9892 102.611 72.7184 102.128 72.4175H102.158C102.068 72.2972 101.977 72.2069 101.856 72.0866C101.736 71.8759 101.645 71.6954 101.524 71.4848L101.554 71.5149C101.464 71.3945 101.373 71.2742 101.313 71.1839V71.1237C101.343 70.883 101.373 70.6423 101.403 70.4317C104.936 71.906 108.529 73.1396 112.455 72.7184C112.727 72.8087 113.029 72.9892 113.3 72.9591C115.263 72.6883 117.256 72.4777 119.219 72.0866C122.238 71.4848 125.439 71.0936 127.673 68.6866C128.398 67.9043 129.032 66.5804 128.941 65.5875C128.821 64.3538 127.522 64.053 126.254 63.9928C123.838 63.9025 122.359 65.1662 121.06 66.9715C118.947 69.9202 116.108 71.8458 112.455 72.4476C109.586 68.4459 105.902 65.5273 101.283 63.7822C101.283 63.03 101.283 62.2777 101.283 61.4954C101.132 61.4654 100.981 61.4654 100.83 61.4353C100.467 62.0671 100.135 62.7291 99.7728 63.3609C98.8066 63.1804 97.8705 62.9999 96.9043 62.8193C99.3501 59.1786 100.95 55.2371 101.645 50.9043C96.5118 50.9043 91.5295 50.9043 86.5171 50.9043C86.6077 51.4459 86.6983 51.9273 86.8191 52.4087C87.8457 56.1698 88.9328 59.9008 91.6201 62.9397C90.6539 63.1202 89.6574 63.2707 88.6912 63.4512C88.2383 62.7892 87.7853 62.1273 87.3324 61.4654C87.2116 61.4954 87.0607 61.5255 86.9399 61.5556C87.0003 62.368 87.0607 63.1503 87.0908 63.9627C82.7125 65.7078 79.1797 68.5662 76.4923 72.4175C72.4764 71.6051 69.3361 69.3184 66.7393 66.3096C65.3805 64.7149 63.8707 63.7822 61.8174 64.053C60.972 64.1733 59.9151 64.5645 59.432 65.1963C58.6771 66.099 59.1603 67.3326 59.9453 68.0246C61.123 69.0777 62.3912 70.2512 63.8405 70.7025C66.8298 71.6051 69.94 72.1467 73.0501 72.7184C74.1673 72.929 75.3751 72.7786 76.5527 72.7786C77.6699 72.6883 78.757 72.568 79.8742 72.4777C80.9914 72.2671 82.0784 72.0264 83.1957 71.8158C84.4639 71.3644 85.7321 70.883 87.1814 70.3715C87.0305 70.7326 86.9399 70.9733 86.8191 71.214C86.6983 71.3945 86.5473 71.575 86.4266 71.7857V71.8158C86.336 71.9361 86.2756 72.0264 86.185 72.1467C86.034 72.1768 85.8528 72.2069 85.7623 72.2972C81.7161 76.8104 76.4621 78.4954 70.6043 78.8264C70.3325 78.8564 70.0305 79.0069 69.4568 79.2175C70.3929 79.398 70.9666 79.6087 71.5705 79.6387C72.9293 79.6989 74.3183 79.6989 75.7072 79.729C75.7978 79.8794 75.8582 80.1502 75.979 80.2104C77.6397 80.7219 79.3307 81.2033 80.9914 81.6848C83.4674 83.0989 86.4567 83.5502 88.5402 85.8069C88.1779 85.7768 87.7853 85.7467 87.423 85.6865C87.1814 85.5962 86.9701 85.4458 86.7285 85.4458C81.4443 85.5361 76.1602 85.4157 70.9062 85.8069C68.1282 86.0175 65.3805 87.0405 62.6629 87.8529C61.5759 88.1838 60.3983 88.8759 60.5794 90.2599C60.7908 91.7644 62.2402 91.975 63.4178 92.306C63.8405 92.4263 64.3538 92.4263 64.7464 92.2759C66.7393 91.5537 68.7322 90.7714 70.725 89.9591C71.6611 89.598 72.5367 89.1467 73.4426 88.7254C74.2277 90.8316 75.043 92.9378 75.828 95.044C72.4764 96.5484 70.0003 98.9254 68.7925 102.416C67.2526 106.778 69.2153 110.479 73.5634 111.593C76.9453 112.465 80.0856 111.683 83.0749 110.028C83.4674 109.817 83.9807 109.727 84.4337 109.607C84.2525 109.908 84.1015 110.178 83.9807 110.449ZM107.171 44.5557C108.288 44.4353 109.435 44.3451 110.553 44.2247C111.096 44.1344 111.64 44.1344 112.123 43.9238C116.018 42.2088 118.011 37.6955 116.773 33.4832C115.656 29.692 111.519 26.9841 107.563 27.4956C103.125 28.0672 99.954 31.5575 99.8936 35.9203C99.8936 40.3433 102.883 43.8937 107.171 44.5557ZM80.9008 44.5256C86.6983 43.6831 90.0198 37.184 87.2116 32.0389C85.1282 28.1876 80.6291 26.5026 76.4923 27.977C72.5066 29.4212 70.1815 33.6938 71.0874 37.9061C71.7819 41.0955 74.6504 43.984 77.368 44.1946C78.5456 44.315 79.7232 44.4353 80.9008 44.5256Z" fill="#13BF01"></path><path d="M38.8992 60.2311C38.4161 58.6063 37.5404 56.9815 37.5706 55.3568C37.6008 51.5957 39.5333 48.7373 42.734 46.7515C48.8334 42.9002 55.7481 46.0595 58.9488 51.4152C60.6699 54.2736 62.542 57.0718 64.6557 59.6293C66.9807 62.4275 70.3324 63.8417 73.7143 65.0151C74.1672 65.1656 74.6503 65.316 75.0731 65.647C72.6272 66.0682 70.272 65.7373 68.2187 64.3532C66.0145 62.8789 63.6895 61.9461 61.0021 62.3373C59.9452 62.4877 58.9186 62.939 57.892 63.2399C56.1708 59.6895 54.3893 56.1992 52.789 52.5886C50.4338 47.2931 45.2402 46.6011 41.5866 51.2347C39.8352 53.4311 38.8992 55.8984 38.9898 58.7267C38.9898 59.2382 38.9294 59.7497 38.8992 60.2311Z" fill="#159100"></path><path d="M137.365 45.1133C141.554 44.2507 145.139 45.6456 147.989 48.7217H147.99C150.672 51.6097 151.223 55.1173 150.088 58.8457L150.087 58.8447C150.028 59.0579 149.887 59.2299 149.757 59.3701C149.616 59.5238 149.492 59.6385 149.396 59.7744L149.065 60.2461L149.033 59.6709C148.882 56.994 148.58 54.4065 146.904 52.2949L146.547 51.8721C145.698 50.8933 144.721 49.98 143.638 49.3633L143.636 49.3623C141.919 48.3594 140.342 48.1384 139.008 48.5957C137.756 49.0249 136.68 50.0644 135.891 51.7021L135.738 52.0371C134.564 54.736 133.472 57.4856 132.233 60.165C131.771 61.2662 130.966 62.3185 130.318 63.3467L130.226 63.4932L130.068 63.4229C128.224 62.608 126.471 62.3229 124.776 62.5322C123.08 62.7417 121.428 63.4478 119.789 64.6357C117.767 66.1225 115.352 66.299 112.98 66.0869L112.838 66.0752L112.804 65.9365C112.792 65.8882 112.774 65.8401 112.75 65.7705C112.726 65.7049 112.699 65.6259 112.681 65.5361L112.647 65.3662L112.81 65.3086C113.02 65.2338 113.223 65.1593 113.427 65.084C113.631 65.0088 113.836 64.9331 114.048 64.8574L114.051 64.8564L114.815 64.5918C118.611 63.2446 122.058 61.4595 124.429 58.041C125.818 56.025 127.205 54.0126 128.5 51.9707L128.888 51.376C130.86 48.4405 133.322 46.0949 136.956 45.2041L136.957 45.2031L137.365 45.1133Z" fill="#159100" stroke="#159100" stroke-width="0.4"></path><path d="M108.922 24.8776C104.212 25.0582 100.467 27.3449 96.995 30.2635C94.9115 32.0086 93.6131 31.9484 91.3787 30.444C88.8725 28.759 86.2757 27.1042 83.5581 25.7803C82.2295 25.1184 80.5688 25.1785 79.0288 24.9077C81.3538 22.6812 84.2526 21.598 87.3325 21.0564C92.979 20.0635 98.6255 19.9432 104.061 22.0493C105.812 22.6812 107.322 23.9148 108.922 24.8776ZM101.011 26.1714C101.464 25.5697 102.249 24.9378 102.249 24.3661C102.219 23.8546 101.252 23.0122 100.709 23.0122C100.165 23.0122 99.3502 23.8546 99.1992 24.4564C99.018 25.2387 99.5616 25.9909 101.011 26.1714ZM88.8423 24.1856C88.8121 23.4033 88.3591 22.8617 87.3627 22.9219C86.3361 22.9821 85.8227 23.5838 85.8529 24.5768C85.8831 25.5998 86.5172 25.9307 87.4533 25.9007C88.4195 25.8706 88.8423 25.2989 88.8423 24.1856ZM93.9453 29.7219C94.519 28.9396 95.1531 28.4281 95.0927 28.0971C95.0021 27.6157 94.4284 27.044 93.9453 26.8936C93.6735 26.8334 92.8884 27.5555 92.8582 27.9467C92.828 28.398 93.4017 28.9095 93.9453 29.7219ZM95.2738 22.5308C94.6397 22.1396 94.1868 21.7184 94.0056 21.8086C93.6433 21.9892 93.4017 22.4706 93.0998 22.8316C93.3715 23.0423 93.7037 23.4936 93.9453 23.4334C94.3378 23.3732 94.6397 22.9821 95.2738 22.5308Z" fill="#159100"></path><path d="M71.5134 43.7461L72.0916 44.0645C72.6697 44.3945 73.2452 44.752 73.8093 45.0732C74.5706 45.5067 75.3306 45.8874 76.1208 46.1064H76.1218C79.9812 47.1418 83.7331 46.0811 87.4119 44.6689C87.7061 44.5515 87.9973 44.4056 88.4558 44.1924L88.7986 44.0332L88.738 44.4062C88.3922 46.5363 87.0354 47.7536 85.5242 48.5527L85.5222 48.5537C83.0868 49.811 82.0211 51.974 81.1179 54.374V54.375C80.5037 55.9663 79.5917 57.3017 77.7498 57.7764L77.5828 57.8203L77.5154 57.6602C76.9062 56.2033 76.3696 54.7158 75.6785 53.3086V53.3076C74.2603 50.4512 72.7819 47.6257 71.3318 44.7959L71.325 44.7832L71.321 44.7686C71.2675 44.6084 71.2508 44.4524 71.2429 44.3145L71.2214 43.9473L71.1736 43.5664L71.5134 43.7461ZM78.7693 52.4785C78.6322 52.6755 78.4956 52.8545 78.4001 52.9922C78.33 53.0934 78.2805 53.1738 78.2517 53.2383C78.2333 53.2794 78.2276 53.3032 78.2263 53.3145C78.2702 53.4212 78.3795 53.5455 78.5447 53.6631C78.6962 53.7709 78.8748 53.8582 79.0378 53.9141C79.0493 53.9074 79.065 53.8996 79.0828 53.8867C79.1414 53.844 79.2134 53.7786 79.283 53.7041C79.3523 53.6298 79.4135 53.5528 79.4539 53.4883C79.4705 53.4616 79.4803 53.4395 79.4871 53.4238C79.4352 53.2836 79.338 53.1445 79.1863 52.9658C79.07 52.8289 78.924 52.6692 78.7693 52.4785ZM78.6541 47.8535C78.5721 47.9798 78.483 48.1055 78.3923 48.2256C78.2762 48.3794 78.1628 48.5235 78.0593 48.6689C77.8479 48.9662 77.7196 49.2128 77.7195 49.4287C77.7195 49.4887 77.7455 49.5636 77.8181 49.6592C77.8906 49.7545 77.997 49.8544 78.1287 49.9619C78.2603 50.0694 78.4059 50.1761 78.5564 50.2891C78.6526 50.3612 78.7494 50.4369 78.8416 50.5137C78.937 50.4251 79.0356 50.3372 79.1335 50.252C79.2802 50.1243 79.4237 50.0008 79.5554 49.875C79.8236 49.6189 80.0123 49.3815 80.073 49.1396L80.0759 49.1289L80.0769 49.0654C80.0716 49.0352 80.0583 48.9955 80.033 48.9434C79.9837 48.842 79.9015 48.7239 79.7947 48.5918C79.6884 48.4603 79.5673 48.3256 79.4451 48.1855C79.35 48.0767 79.2557 47.9636 79.1716 47.8535H78.6541Z" fill="#159100" stroke="#159100" stroke-width="0.4"></path><path d="M116.832 44.0688C116.183 45.4522 115.542 46.8432 114.901 48.2349C114.58 48.9306 114.26 49.6267 113.938 50.3218L112.968 52.4028C112.152 54.1488 111.336 55.8648 110.49 57.6108L110.418 57.7593L110.259 57.7173C108.482 57.2431 107.538 55.9422 107.041 54.3979L106.848 53.856C105.84 51.1926 104.167 49.1814 101.577 47.7388L101.574 47.7378C101.054 47.4366 100.7 46.8949 100.404 46.3345C100.254 46.0524 100.114 45.7531 99.9749 45.4692C99.8347 45.1824 99.6951 44.9073 99.5422 44.6606L99.2268 44.1519L99.7844 44.3696C102.947 45.6 106.118 46.5509 109.551 46.4917C111.719 46.4362 113.595 45.8113 115.284 44.5425L115.619 44.2798C115.764 44.1554 115.937 44.072 116.098 44.0034C116.271 43.9293 116.418 43.8773 116.563 43.8052L117.076 43.5483L116.832 44.0688ZM109.27 52.6675C109.241 52.6714 109.192 52.69 109.127 52.7349C109.062 52.78 108.993 52.8437 108.931 52.9175C108.868 52.9912 108.816 53.0711 108.78 53.145C108.742 53.2214 108.729 53.2782 108.729 53.311C108.729 53.337 108.739 53.38 108.776 53.4399C108.811 53.4988 108.866 53.5633 108.935 53.6284C109.061 53.7483 109.221 53.8543 109.36 53.9224C109.364 53.9202 109.371 53.9185 109.378 53.9146C109.42 53.8911 109.474 53.85 109.542 53.7915C109.652 53.697 109.807 53.548 109.946 53.4468C110.027 53.3039 110.104 53.1668 110.17 53.0229C110.02 52.9509 109.868 52.8672 109.743 52.8062C109.544 52.7089 109.392 52.6585 109.271 52.6685L109.27 52.6675ZM109.325 47.8423C108.722 47.9506 108.329 48.1652 108.1 48.4175C107.863 48.6785 107.786 48.995 107.849 49.3267L107.871 49.3999C107.939 49.5737 108.108 49.7543 108.357 49.9556C108.494 50.0668 108.643 50.1746 108.796 50.2876C108.894 50.3599 108.992 50.4356 109.086 50.5112C109.177 50.4184 109.272 50.3267 109.366 50.2388C109.51 50.1052 109.65 49.9783 109.781 49.8481C110.045 49.5846 110.236 49.3403 110.297 49.0825C110.302 49.057 110.299 49.0011 110.241 48.8989C110.185 48.7988 110.094 48.684 109.98 48.5552C109.866 48.4267 109.738 48.2952 109.608 48.1577C109.51 48.0548 109.413 47.9476 109.325 47.8423Z" fill="#159100" stroke="#159100" stroke-width="0.4"></path><path d="M103.517 109.395C103.758 109.816 103.97 110.237 104.211 110.659C97.4475 112.675 90.6838 112.795 83.9805 110.448C84.1012 110.177 84.222 109.906 84.3428 109.666V109.636C84.4636 109.455 84.5844 109.244 84.7353 109.064H84.7052C84.7957 108.944 84.8863 108.823 85.0071 108.703C85.1883 108.492 85.3996 108.312 85.5808 108.101C87.3321 108.492 89.0533 109.124 90.8046 109.214C94.7904 109.365 98.8063 109.545 102.732 108.342C102.792 108.372 102.883 108.402 102.943 108.402C103.034 108.522 103.154 108.643 103.245 108.733L103.185 108.763C103.305 108.944 103.426 109.124 103.547 109.335L103.517 109.395Z" fill="#F9E800"></path><path d="M148.961 62.0368C148.931 62.097 148.901 62.1572 148.84 62.2173C148.87 62.1572 148.901 62.097 148.961 62.0368Z" fill="#13BF01"></path><path d="M112.563 73.0469L112.387 73.0674C108.42 73.5235 104.797 72.2508 101.273 70.7822H101.222L101.172 70.748C101.14 70.7269 101.108 70.7051 101.076 70.6836C101.076 70.6846 101.077 70.6855 101.077 70.6865C101.132 70.7709 101.182 70.8538 101.229 70.9326C101.282 71.0233 101.331 71.1082 101.388 71.1924L101.422 71.2432V71.2988C101.498 71.4005 101.575 71.5026 101.63 71.584L101.62 71.5908C101.676 71.6892 101.727 71.7811 101.775 71.8711C101.826 71.9648 101.875 72.0566 101.931 72.1543C102.009 72.2578 102.089 72.3375 102.208 72.4561L102.552 72.7979H102.362C103.511 75.0332 105.361 76.4845 107.596 77.5537L108.067 77.7705L108.068 77.7715L109.312 78.3252C110.557 78.87 111.807 79.3934 113.076 79.9355L113.687 80.1963L113.034 80.3164C110.925 80.704 107.996 81.669 105.35 82.7793C104.028 83.334 102.78 83.9229 101.744 84.4922C100.972 84.9168 100.325 85.3261 99.8545 85.6973C100.229 85.6768 100.538 85.6572 100.847 85.6367L100.865 85.6357L100.884 85.6387L101.259 85.7002C101.381 85.7229 101.496 85.7446 101.609 85.7588H101.612L102.9 85.9326C105.912 86.3267 108.958 86.6546 111.975 87.2344H111.976C112.617 87.3462 113.209 87.6475 113.769 87.9814C114.341 88.3227 114.862 88.6862 115.414 88.9688L115.576 89.0518L115.509 89.2207C114.662 91.3311 113.788 93.4316 112.942 95.5684L112.931 95.5986L112.91 95.623C112.533 96.0744 112.155 96.5262 111.777 96.9775C111.4 97.4287 111.023 97.8799 110.646 98.3311L110.585 98.4033H110.492C110.428 98.4033 110.377 98.4148 110.272 98.4248C110.191 98.4325 110.064 98.4392 109.949 98.3818L109.948 98.3809C106.173 96.4605 102.367 94.5834 98.6396 92.5498L97.0479 91.668C96.4251 91.3179 95.9142 90.7745 95.4502 90.2061C95.0217 89.6811 94.6411 89.1526 94.2295 88.6807C92.7493 90.026 91.5798 91.2605 90.1963 92.2578C88.7357 93.3189 87.085 94.1428 85.5293 95.0371L85.3828 95.1211L85.2754 94.9902C83.2042 92.4711 81.7659 89.6704 81.2764 86.4082L81.2451 86.1992L81.4551 86.1787C82.4213 86.0884 83.3882 85.9985 84.3545 85.9082C85.3206 85.8179 86.2868 85.728 87.2529 85.6377L87.2705 85.6357L87.2881 85.6377C87.4624 85.6522 87.6469 85.6662 87.833 85.6846C86.9033 84.8239 85.8194 84.2574 84.6816 83.7637C83.3849 83.2009 81.9913 82.7227 80.7412 82.0088L80.6328 81.9463L80.6406 81.8223C80.686 81.129 80.7392 80.435 80.792 79.7432C80.8448 79.0512 80.8972 78.3605 80.9424 77.6699L80.9482 77.5811L81.0186 77.5254C81.3094 77.2966 81.6418 77.0826 81.9355 76.873C82.237 76.6579 82.515 76.4363 82.7402 76.1699L83.1426 75.6836C84.0728 74.543 84.9471 73.3639 85.876 72.1738C85.9188 72.1169 85.955 72.0665 85.9922 72.0146C86.0184 71.9781 86.0455 71.9408 86.0752 71.9004V71.8691L86.1152 71.8154L86.3477 71.4844C86.4127 71.3888 86.4794 71.2937 86.5527 71.2031C86.6002 71.0804 86.657 70.9505 86.7207 70.8076C85.4721 71.2598 84.3081 71.6894 83.1719 72.0938L82.7559 72.2422L82.9189 71.832C83.4237 70.5613 83.9077 69.3098 84.5117 67.8145C82.4777 69.2466 80.9678 70.7068 79.9609 72.6592L79.9102 72.7578L79.7998 72.7666C79.2429 72.8116 78.6929 72.8643 78.1416 72.917L76.4775 73.0684L76.3086 73.082L76.2676 72.917C76.2497 72.8457 76.2409 72.7835 76.2334 72.7314C76.2258 72.6783 76.2193 72.6348 76.207 72.5859L76.1846 72.4971L76.2383 72.4219L76.7607 71.7061C79.4215 68.185 82.7856 65.5477 86.9258 63.8975L86.9336 63.8936C87.194 63.802 87.4621 63.7183 87.7256 63.6357C87.9902 63.5529 88.2512 63.4717 88.5039 63.3828L88.5186 63.3779L88.5332 63.375C89.0183 63.2844 89.5107 63.2008 90.001 63.1182C90.4918 63.0354 90.9809 62.9531 91.4619 62.8633L91.4746 62.8613L91.4873 62.8604C91.7404 62.8455 91.9941 62.8234 92.2471 62.8008C92.4991 62.7783 92.7514 62.7555 92.9961 62.7402L93.0088 62.7393H95.0625C95.3522 62.7393 95.6417 62.7474 95.9316 62.7549C96.2225 62.7624 96.5145 62.7695 96.8135 62.7695H96.832L96.8496 62.7725C97.3331 62.8628 97.8096 62.9537 98.2852 63.0439L99.7188 63.3145L99.7275 63.3164L100.489 63.5137L101.237 63.708L101.25 63.7109L101.263 63.7148C105.922 65.4748 109.637 68.4492 112.526 72.4502L112.563 72.5029V73.0469Z" fill="#A3DDAB" stroke="#A3DDAB" stroke-width="0.4"></path><path d="M77.3677 44.2249C74.6502 44.0143 71.7816 41.1559 71.0871 37.9365C70.1813 33.7241 72.5063 29.4515 76.4921 28.0073C80.5986 26.5029 85.0977 28.2179 87.2114 32.0692C90.0195 37.2143 86.7283 43.7134 80.9006 44.5559C80.6288 44.3453 80.1457 44.1647 80.1155 43.924C80.0249 43.232 79.8739 42.2692 80.2363 41.8479C80.7798 41.2462 81.6857 41.2763 82.2292 42.1789C82.3802 42.4497 82.5009 42.7506 82.6519 43.0816C83.6785 41.5471 83.6785 39.8922 82.7425 38.6285C81.7159 37.2745 80.1155 36.6727 78.5152 37.094C77.0054 37.4851 75.8278 38.9595 75.6768 40.5842C75.556 42.0886 76.4015 43.1718 77.3677 44.2249Z" fill="#FBFBFB"></path><path d="M107.171 44.5555C102.883 43.8936 99.8936 40.3432 99.954 35.9503C99.9842 31.5874 103.155 28.0972 107.624 27.5255C111.579 27.014 115.716 29.6919 116.833 33.5131C118.071 37.7255 116.078 42.2387 112.183 43.9538C111.7 44.1644 111.126 44.1644 110.613 44.2547C110.945 43.8936 111.338 43.5626 111.64 43.1715C112.878 41.6069 112.696 39.4706 111.217 38.0264C109.798 36.6423 107.533 36.5821 106.053 37.8759C104.393 39.2901 104.181 41.1856 105.51 43.0511C105.601 42.9007 105.631 42.7803 105.721 42.6901C106.204 42.2989 106.657 41.7272 107.201 41.6069C107.503 41.5166 108.348 42.1485 108.348 42.4494C108.348 43.021 107.956 43.6228 107.654 44.1945C107.533 44.3148 107.322 44.4352 107.171 44.5555Z" fill="#FBFBFB"></path><path d="M96.8439 62.9394C96.2702 62.9394 95.6965 62.9093 95.0926 62.9093C96.1495 61.6757 97.3875 60.5323 98.1725 59.1483C99.018 57.7341 97.9914 56.2598 96.3608 55.989C94.6699 55.7182 93.7942 56.5005 93.3413 58.035C93.4017 57.4633 93.4923 56.8916 93.5829 56.1996C92.3751 55.8686 91.1672 55.7182 90.2312 56.7111C89.2951 57.704 89.5065 58.9377 90.2312 59.9005C91.0465 61.0138 92.1033 61.9164 93.0695 62.9394C92.5562 62.9695 92.0429 63.0297 91.5598 63.0598C88.9026 60.0208 87.8156 56.2899 86.7587 52.5288C86.638 52.0474 86.5776 51.566 86.4568 51.0244C91.4692 51.0244 96.4514 51.0244 101.585 51.0244C100.89 55.3571 99.2898 59.3288 96.8439 62.9394Z" fill="black"></path><path d="M75.9021 95.0205L76.989 96.6045C77.3516 97.1352 77.7151 97.6697 78.0779 98.2119L78.2078 98.4072L77.9949 98.5049C75.4129 99.6853 72.9891 100.851 72.5535 103.918C72.3 105.747 72.5009 107.317 73.2429 108.366C73.9736 109.399 75.2648 109.973 77.3142 109.738L77.8816 109.66C78.4467 109.571 79.0073 109.451 79.5691 109.321C80.3071 109.151 81.0538 108.964 81.8044 108.813C82.2358 108.621 82.6671 108.428 83.0984 108.235C83.5361 108.04 83.9741 107.844 84.4119 107.648L84.4509 107.631H84.4939C84.5081 107.631 84.5352 107.627 84.5798 107.609C84.6235 107.592 84.6729 107.568 84.7302 107.537C84.8335 107.482 84.9793 107.395 85.1111 107.352C85.1805 107.329 85.2649 107.312 85.3533 107.323C85.448 107.336 85.5354 107.379 85.6042 107.458C85.7273 107.599 85.7734 107.83 85.781 108.127L85.783 108.204L85.7322 108.263C85.6359 108.375 85.5324 108.477 85.4353 108.574C85.3363 108.673 85.2437 108.766 85.1589 108.864C85.1059 108.935 85.0476 109.007 84.9832 109.083L84.9021 109.206C84.8032 109.354 84.682 109.556 84.5427 109.734V109.841L84.406 109.887C84.1714 109.965 83.9242 110.02 83.7029 110.078C83.4756 110.138 83.2651 110.201 83.073 110.297C80.1508 111.913 77.0651 112.713 73.7449 111.954L73.4226 111.876C71.2032 111.308 69.574 110.073 68.7019 108.405C67.83 106.738 67.7285 104.662 68.5134 102.438L68.6345 102.109C69.9303 98.7403 72.3973 96.4563 75.6531 94.9521L75.8064 94.8818L75.9021 95.0205Z" fill="#159100" stroke="#159100" stroke-width="0.4"></path><path d="M112.872 95.2549L113.31 95.4678C115.472 96.5576 117.213 98.014 118.361 99.8389C119.588 101.788 120.131 104.143 119.81 106.893C119.62 108.654 118.575 109.969 117.019 110.807L117.018 110.806C112.71 113.135 108.558 112.359 104.564 110.051H104.563C104.396 109.954 104.212 109.876 104.019 109.802L103.44 109.581L103.316 109.53V109.426C103.268 109.353 103.219 109.28 103.17 109.207C103.11 109.117 103.049 109.027 102.988 108.937L102.862 108.747L102.894 108.73C102.868 108.704 102.842 108.678 102.817 108.652C102.795 108.648 102.772 108.643 102.75 108.637L102.612 108.583L102.527 108.54L102.507 108.447C102.446 108.177 102.386 107.908 102.296 107.55L102.204 107.183L102.56 107.313C102.842 107.417 103.099 107.508 103.343 107.595L104.044 107.856L104.046 107.857L105.376 108.415C105.814 108.6 106.252 108.784 106.683 108.962C108.562 109.235 110.403 109.619 112.256 109.738H112.255C112.995 109.781 113.595 109.583 114.075 109.205C114.558 108.825 114.932 108.251 115.195 107.523C115.872 105.616 115.737 103.787 114.928 102.273C114.118 100.758 112.624 99.5397 110.552 98.876L110.433 98.8369L110.415 98.7139C110.385 98.5056 110.355 98.3283 110.326 98.1826L110.308 98.0889L110.369 98.0156C110.747 97.5643 111.124 97.1125 111.501 96.6611C111.878 96.2098 112.256 95.7589 112.634 95.3076L112.732 95.1895L112.872 95.2549Z" fill="#159100" stroke="#159100" stroke-width="0.4"></path><path d="M86.6682 85.3047L86.7747 85.3164C86.8811 85.3378 86.9835 85.3845 87.0618 85.4209C87.184 85.4777 87.2829 85.5275 87.3801 85.5518L87.3508 85.9443C86.3847 86.0346 85.4185 86.1256 84.4524 86.2158C83.4896 86.3058 82.5265 86.3944 81.5637 86.4844C80.7223 86.6491 79.8808 86.8217 79.0383 86.9941C78.2012 87.1655 77.3629 87.3368 76.5247 87.501C76.0199 87.7379 75.5152 87.9828 75.009 88.2275C74.4959 88.4757 73.9816 88.7245 73.467 88.9658H73.4661C72.567 89.3839 71.6513 89.8403 70.7385 90.2041H70.7375C68.746 90.9859 66.7804 91.7694 64.7551 92.5225L64.7542 92.5215C64.3166 92.6883 63.7632 92.6865 63.3088 92.5586V92.5596C62.7197 92.4128 62.0302 92.2705 61.47 91.9697C60.9291 91.6792 60.4949 91.234 60.3469 90.498L60.3206 90.3467V90.3447C60.2207 89.5816 60.4996 89.0008 60.9475 88.5752C61.3874 88.1574 61.9873 87.8903 62.5442 87.7207H62.5452L64.5793 87.0889C66.6242 86.4477 68.7031 85.8256 70.8303 85.666L71.8176 85.5986C76.7548 85.2855 81.7186 85.361 86.6653 85.3047H86.6682Z" fill="#159100" stroke="#159100" stroke-width="0.4"></path><path d="M102.458 85.3062C105.917 85.2762 109.41 85.0657 112.865 85.3677L112.864 85.3687C116.589 85.6705 120.284 86.3635 123.934 87.0249H123.933C125.01 87.2143 126.047 87.936 126.939 88.5288H126.938C127.518 88.9035 127.799 89.5681 127.787 90.1968C127.774 90.8275 127.463 91.4591 126.816 91.7378C125.712 92.2262 124.376 92.5716 123.178 92.4146V92.4136C120.698 92.1383 118.372 91.2231 116.322 89.6987L116.315 89.6938L116.308 89.688C116.203 89.595 116.061 89.5301 115.878 89.4683C115.713 89.4124 115.478 89.3492 115.282 89.2739L115.27 89.269L115.259 89.2632C114.701 88.9626 114.122 88.5704 113.584 88.2554C113.031 87.9313 112.49 87.6678 111.937 87.5688H111.935C108.53 86.9383 105.071 86.5777 101.59 86.0952V86.0962C101.462 86.0803 101.335 86.0561 101.215 86.0337C101.094 86.011 100.979 85.9902 100.866 85.9761L100.856 85.5806L101.236 85.5015C101.364 85.4724 101.495 85.442 101.633 85.4126C101.9 85.3556 102.181 85.3073 102.458 85.3071V85.3062Z" fill="#159100" stroke="#159100" stroke-width="0.4"></path><path d="M61.7009 63.9756C63.7142 63.7101 65.2207 64.587 66.5388 66.0078L66.7996 66.2988L66.8005 66.2998L67.2898 66.8564C69.6861 69.501 72.5322 71.4853 76.073 72.293L76.4412 72.3721L76.5652 72.3975L76.5955 72.5195C76.6134 72.5909 76.6222 72.653 76.6296 72.7051C76.6373 72.7583 76.6437 72.8017 76.656 72.8506L76.7185 73.0986H76.4617C75.8714 73.0987 75.3039 73.1359 74.7029 73.1475C74.1869 73.1574 73.6657 73.1478 73.1462 73.0723L72.9236 73.0352H72.9226C70.0417 72.5004 67.0884 72.0153 64.2556 71.1846L63.6902 71.0137C62.1909 70.5467 60.8883 69.3376 59.7224 68.2949L59.5691 68.1504C59.2213 67.7968 58.9446 67.3411 58.8259 66.8574C58.6891 66.2995 58.7629 65.697 59.1882 65.1885C59.4714 64.841 59.8859 64.5699 60.3279 64.3711C60.7727 64.1711 61.259 64.0382 61.699 63.9756L61.7009 63.9746V63.9756Z" fill="#159100" stroke="#159100" stroke-width="0.4"></path><path d="M126.201 63.9136H126.203L126.689 63.9507C127.177 64.0036 127.662 64.1077 128.065 64.3013C128.613 64.5636 129.027 65.0002 129.08 65.6899L129.09 65.896C129.091 66.3844 128.951 66.9169 128.736 67.4155C128.491 67.987 128.138 68.5319 127.76 68.9409L127.761 68.9419C125.471 71.4389 122.187 71.808 119.197 72.4038L119.196 72.4028C117.256 72.7955 115.251 73.0082 113.267 73.2778L113.266 73.2769C113.081 73.3128 112.901 73.2708 112.753 73.2202C112.675 73.1937 112.598 73.1624 112.528 73.1343C112.457 73.1052 112.392 73.0793 112.331 73.0591L112.194 73.0132V72.3989L112.362 72.3706L112.697 72.312C116.132 71.6597 118.817 69.7948 120.838 66.9761V66.9751L121.087 66.6382C122.349 64.9853 123.846 63.8256 126.201 63.9136Z" fill="#159100" stroke="#159100" stroke-width="0.4"></path><path d="M107.171 44.5555C107.322 44.4351 107.533 44.3448 107.593 44.1944C107.865 43.6227 108.288 43.021 108.288 42.4493C108.288 42.1484 107.473 41.5165 107.141 41.6068C106.597 41.7572 106.144 42.2988 105.661 42.69C105.57 42.7803 105.54 42.9006 105.45 43.051C104.121 41.2157 104.332 39.3201 105.993 37.8758C107.503 36.582 109.737 36.6422 111.157 38.0263C112.636 39.4705 112.817 41.6068 111.579 43.1714C111.277 43.5626 110.915 43.8935 110.553 44.2546C109.435 44.3148 108.288 44.4351 107.171 44.5555Z" fill="black"></path><path d="M77.3679 44.2238C76.4318 43.1707 75.5562 42.0875 75.677 40.553C75.7978 38.9282 77.0056 37.4539 78.5153 37.0627C80.1157 36.6415 81.716 37.2433 82.7427 38.5972C83.6787 39.8609 83.6787 41.5158 82.6521 43.0503C82.5011 42.7193 82.3803 42.4185 82.2293 42.1477C81.6858 41.245 80.78 41.2149 80.2364 41.8167C79.8741 42.2379 80.0553 43.2008 80.1157 43.8928C80.1459 44.1335 80.629 44.314 80.9007 44.5247C79.7231 44.4344 78.5455 44.314 77.3679 44.2238Z" fill="black"></path><path d="M73.3821 88.8156C74.4087 88.3342 75.4354 87.8227 76.462 87.3413C77.398 89.628 78.2435 91.9147 79.2701 94.1714C79.6929 95.1041 80.4176 95.8864 80.9913 96.759C80.0854 97.3307 79.1796 97.8722 78.2435 98.4439C78.1529 98.4138 78.0321 98.3537 77.9416 98.3236C77.2169 97.2705 76.4922 96.2174 75.7675 95.1342C74.9522 93.028 74.1672 90.9218 73.3821 88.8156Z" fill="#A3DDAB"></path><path d="M86.0643 72.2363C85.0376 73.5602 84.0412 74.9443 82.924 76.2381C82.4408 76.7797 81.7765 77.1708 81.1726 77.6222C79.3005 78.3443 77.4284 79.0965 75.5563 79.8186C74.1673 79.7885 72.8086 79.7885 71.4196 79.7283C70.8157 79.6983 70.242 79.5177 69.3059 79.3071C69.8796 79.0965 70.1514 78.916 70.4533 78.916C76.3112 78.585 81.5652 76.9 85.6113 72.3868C85.7623 72.2664 85.9435 72.2664 86.0643 72.2363Z" fill="#67915E"></path><path d="M102.181 72.4028C102.415 72.5635 102.666 72.6988 102.929 72.855C103.12 72.9689 103.314 73.0922 103.489 73.2368L103.658 73.3892L103.659 73.3901L103.978 73.7036C107.292 76.8812 111.435 78.077 115.923 78.6577H115.924L116.919 78.7788C117.919 78.8869 118.945 78.9652 120.084 79.0786L120.088 79.4761C117.613 79.7768 115.342 80.0183 113.052 80.2886L112.998 80.2944L112.948 80.2729C111.294 79.5536 109.595 78.8585 107.934 78.106V78.105C105.342 76.9503 103.152 75.3292 101.887 72.6538L101.57 71.9849L102.181 72.4028Z" fill="#159100" stroke="#159100" stroke-width="0.4"></path><path d="M75.6165 79.7892C77.4886 79.0671 79.3607 78.3149 81.2328 77.5928C81.1422 78.9768 81.0214 80.3609 80.9308 81.745C79.2701 81.2636 77.5791 80.7821 75.9184 80.2706C75.7674 80.2105 75.707 79.9698 75.6165 79.7892Z" fill="#88C29F"></path><path d="M79.7837 72.568C80.8707 70.4017 82.622 68.807 84.9471 67.2725C84.2526 69.0477 83.6789 70.4919 83.1052 71.9061C81.9879 72.1468 80.8707 72.3574 79.7837 72.568Z" fill="#88C29F"></path><path d="M88.6005 63.5718C88.0872 63.7523 87.5437 63.9027 87.0304 64.0833C86.97 63.2709 86.9096 62.4886 86.8794 61.6762C87.0002 61.6461 87.1512 61.616 87.2719 61.5859C87.6947 62.2479 88.1476 62.9098 88.6005 63.5718Z" fill="#159100"></path><path d="M101.192 63.9027C100.679 63.7824 100.195 63.6319 99.6821 63.5116C100.044 62.8797 100.377 62.2178 100.739 61.5859C100.89 61.616 101.041 61.616 101.192 61.6461C101.192 62.3682 101.192 63.1505 101.192 63.9027Z" fill="#159100"></path><path d="M86.7282 71.3042C86.6074 71.4847 86.4565 71.6653 86.3357 71.8759C86.4565 71.6953 86.5773 71.4847 86.7282 71.3042Z" fill="#67915E"></path><path d="M101.252 71.3034C101.132 71.1228 101.041 70.9423 100.92 70.7618C101.041 70.7016 101.192 70.6414 101.313 70.6113H101.343C101.313 70.8219 101.283 71.0627 101.252 71.3034Z" fill="#159100"></path><path d="M101.826 72.2668C101.705 72.0562 101.615 71.8757 101.494 71.665C101.584 71.8456 101.705 72.0562 101.826 72.2668Z" fill="#159100"></path><path d="M99.7128 44.5559C99.6824 44.5255 99.6217 44.5255 99.5913 44.4951C99.6217 44.5255 99.6521 44.5559 99.7128 44.5559Z" fill="#159100"></path><path d="M102.098 72.5976C102.007 72.4772 101.917 72.387 101.796 72.2666C101.917 72.3569 102.007 72.4772 102.098 72.5976Z" fill="#159100"></path><path d="M86.3058 71.9058C86.2152 72.0261 86.1548 72.1164 86.0642 72.2367C86.1548 72.1164 86.2454 71.996 86.3058 71.9058Z" fill="#67915E"></path><path d="M101.011 26.1715C99.5915 25.991 99.048 25.2387 99.1989 24.4564C99.3197 23.8547 100.165 23.0423 100.709 23.0122C101.252 23.0122 102.218 23.8547 102.249 24.3662C102.249 24.9379 101.433 25.5697 101.011 26.1715Z" fill="#13BF01"></path><path d="M88.842 24.1858C88.842 25.3292 88.4495 25.8708 87.4228 25.931C86.4868 25.961 85.8527 25.6 85.8225 24.6071C85.7923 23.6141 86.3358 23.0124 87.3322 22.9522C88.3287 22.8619 88.8118 23.4035 88.842 24.1858Z" fill="#13BF01"></path><path d="M93.9449 29.722C93.4014 28.8795 92.8579 28.3981 92.8579 27.9468C92.8881 27.5556 93.6732 26.8335 93.9449 26.8937C94.4281 27.014 95.0018 27.6158 95.0924 28.0972C95.1528 28.4583 94.5186 28.9397 93.9449 29.722Z" fill="#13BF01"></path><path d="M95.2734 22.531C94.6393 22.9823 94.3374 23.3735 93.9448 23.4336C93.7033 23.4637 93.3711 23.0425 93.0994 22.8319C93.4013 22.4708 93.6127 21.9894 94.0052 21.8089C94.1864 21.6885 94.6393 22.1398 95.2734 22.531Z" fill="#13BF01"></path><path d="M79.2702 47.6543C79.6326 48.1959 80.3874 48.7977 80.2969 49.2189C80.1459 49.8207 79.391 50.3021 78.8777 50.8136C78.3946 50.3623 77.5793 49.9109 77.5491 49.4596C77.5189 48.8879 78.1832 48.2862 78.5757 47.6844C78.7871 47.6543 79.0287 47.6543 79.2702 47.6543Z" fill="#13BF01"></path><path d="M78.7567 52.1372C79.1794 52.6788 79.5719 53.0098 79.6927 53.4009C79.7531 53.5815 79.1794 54.1531 79.0284 54.123C78.6359 54.0027 78.183 53.7018 78.032 53.3708C77.9414 53.1602 78.3943 52.739 78.7567 52.1372Z" fill="#13BF01"></path><path d="M109.405 47.624C109.798 48.1355 110.583 48.7373 110.492 49.1585C110.341 49.7904 109.616 50.2718 109.103 50.8134C108.59 50.332 107.774 49.9408 107.654 49.3992C107.472 48.5869 107.986 47.8346 109.405 47.624Z" fill="#13BF01"></path><path d="M110.099 53.5819C109.828 53.7925 109.496 54.1837 109.314 54.1235C108.982 54.0031 108.529 53.612 108.529 53.3111C108.529 53.0403 108.952 52.5288 109.254 52.4686C109.616 52.4085 110.039 52.7394 110.432 52.92C110.341 53.1306 110.22 53.3713 110.099 53.5819Z" fill="#13BF01"></path><path d="M103.97 107.981C103.517 107.831 103.064 107.65 102.491 107.439C102.581 107.831 102.642 108.071 102.702 108.342C98.8067 109.516 94.7606 109.365 90.7748 109.215C89.0235 109.155 87.3024 108.493 85.551 108.101C85.5208 106.928 84.8565 107.831 84.4942 107.77C83.7997 107.47 83.1354 107.139 82.4409 106.838C82.4711 106.236 82.4711 105.634 82.5013 105.062C83.5279 105.544 84.4942 106.236 85.5812 106.507C90.2313 107.74 94.9719 107.891 99.6824 107.048C101.856 106.657 103.94 105.785 106.054 105.123C106.054 105.694 106.023 106.266 106.023 106.838C105.389 107.229 104.665 107.59 103.97 107.981Z" fill="#E0D03A"></path><path d="M103.185 108.794C103.306 108.974 103.426 109.155 103.547 109.336C103.426 109.185 103.306 108.974 103.185 108.794Z" fill="#13BF01"></path><path d="M84.3433 109.637C84.464 109.456 84.5848 109.245 84.7358 109.065C84.615 109.276 84.464 109.456 84.3433 109.637Z" fill="#13BF01"></path><path d="M102.913 108.434C103.003 108.554 103.124 108.674 103.215 108.765C103.124 108.674 103.034 108.554 102.913 108.434Z" fill="#13BF01"></path><path d="M84.7053 109.094C84.7959 108.974 84.8865 108.854 85.0073 108.733C84.8865 108.824 84.7959 108.944 84.7053 109.094Z" fill="#13BF01"></path><path d="M110.522 98.1426C110.552 98.2931 110.583 98.4736 110.613 98.624C109.224 99.8276 107.805 101.061 106.416 102.265C106.204 102.174 105.993 102.084 105.751 101.994C104.544 101.482 103.336 101.001 102.128 100.49C102.369 100.279 102.581 100.068 102.973 99.6771C102.339 99.6771 101.977 99.6771 101.584 99.6771C99.0178 99.6169 96.421 99.7072 93.8846 99.4063C90.5631 98.9851 87.8758 97.1497 85.3394 95.0736C85.3997 94.9833 85.4601 94.8931 85.4903 94.7727C87.0303 93.8701 88.691 93.0577 90.1404 92.0046C91.5294 90.9816 92.7372 89.7179 94.3073 88.3037C95.2434 89.3267 96.0285 90.7409 97.2061 91.4028C101.433 93.7798 105.782 95.886 110.099 98.1125C110.19 98.2028 110.371 98.1426 110.522 98.1426Z" fill="#E9F2F8"></path><path d="M85.4905 94.8028C85.4301 94.8931 85.3698 94.9833 85.3396 95.1037C84.1921 95.6152 83.0447 96.1267 81.8973 96.6382C81.5953 96.6683 81.2934 96.6984 80.9914 96.7585C80.4177 95.886 79.693 95.1037 79.2703 94.1709C78.2739 91.9143 77.3982 89.6276 76.4622 87.3409C78.1531 87.0099 79.844 86.6488 81.535 86.3179C82.0181 89.5373 83.4373 92.3055 85.4905 94.8028Z" fill="#88C29F"></path><path d="M93.0391 62.9403C92.0728 61.9474 91.016 61.0147 90.2007 59.9014C89.476 58.9386 89.2647 57.7049 90.2007 56.712C91.1368 55.7191 92.3446 55.8395 93.5524 56.2005C93.4618 56.8925 93.4014 57.4642 93.3108 58.0359C93.794 56.5014 94.6394 55.7191 96.3303 55.9899C97.9911 56.2607 98.9875 57.735 98.1421 59.1492C97.3268 60.5332 96.0888 61.6766 95.0622 62.9102C94.4281 62.9102 93.7336 62.9403 93.0391 62.9403Z" fill="#CE0000"></path><path d="M101.313 70.5826C101.192 70.6427 101.041 70.7029 100.92 70.733C100.89 70.5525 100.83 70.3719 100.799 70.1914C100.95 70.3418 101.131 70.4622 101.313 70.5826Z" fill="#13BF01"></path><path d="M81.8972 108.974C82.1086 108.282 82.2898 107.56 82.5011 106.868C83.1956 107.169 83.8599 107.5 84.5544 107.801C83.6485 108.192 82.7729 108.583 81.8972 108.974Z" fill="#F9E800"></path><path d="M106.083 106.839C107.05 107.411 107.201 108.163 106.627 109.095C105.751 108.734 104.845 108.343 103.97 107.982C104.664 107.591 105.389 107.23 106.083 106.839Z" fill="#F9E800"></path><path d="M82.3804 102.144C80.9914 100.911 79.6024 99.6769 78.2437 98.4132C79.1495 97.8415 80.0554 97.2999 80.9914 96.7283C81.2934 96.6982 81.5953 96.6681 81.8973 96.6079C82.8635 98.684 84.947 99.346 86.6983 100.459C85.3999 100.971 84.1015 101.512 82.8031 102.024C82.6522 102.084 82.5314 102.114 82.3804 102.144Z" fill="#E9F2F8"></path><path d="M82.3802 102.145C82.501 102.114 82.652 102.084 82.7728 102.054C84.4335 102.957 86.0036 104.161 87.7852 104.702C92.5258 106.146 97.3269 105.845 102.007 104.371C103.366 103.95 105.057 103.649 105.721 101.994C105.932 102.084 106.144 102.175 106.385 102.265C106.959 103.107 107.291 103.95 106.325 104.762C106.234 104.883 106.174 105.003 106.083 105.123H106.114C104 105.785 101.917 106.688 99.7425 107.049C95.032 107.861 90.2914 107.741 85.6413 106.507C84.5543 106.207 83.588 105.545 82.5614 105.063C81.4744 104.13 81.4744 103.168 82.3802 102.145Z" fill="#F9E800"></path><path d="M105.751 101.995C105.087 103.68 103.396 103.95 102.037 104.372C97.3571 105.846 92.5258 106.117 87.8154 104.703C86.0339 104.161 84.4637 102.957 82.803 102.055C84.1014 101.543 85.3998 101.002 86.6982 100.49C91.8314 103.138 96.9947 102.927 102.128 100.49C103.336 101.002 104.544 101.483 105.751 101.995Z" fill="#F1DF2C"></path><path d="M102.128 100.489C96.9948 102.896 91.8315 103.137 86.6983 100.489C84.9469 99.4062 82.8635 98.7141 81.8972 96.638C83.0446 96.1265 84.1921 95.615 85.3395 95.1035C87.8759 97.1796 90.5633 99.015 93.8847 99.4362C96.4211 99.7672 99.0179 99.6469 101.585 99.707C101.977 99.707 102.339 99.707 102.973 99.707C102.581 100.068 102.37 100.279 102.128 100.489Z" fill="#B4C9E0"></path><path d="M106.083 105.124C106.174 105.003 106.234 104.883 106.325 104.763C106.264 104.913 106.174 105.033 106.083 105.124Z" fill="#E0D03A"></path></g><defs><filter id="filter0_d_4_4408" x="0.274414" y="0.367188" width="187.561" height="164.188" filterUnits="userSpaceOnUse" color-interpolation-filters="sRGB"><feGaussianBlur stdDeviation="17.5"></feGaussianBlur></filter></defs></svg>