<svg xmlns="http://www.w3.org/2000/svg" width="51" height="89" viewBox="0 0 51 89" fill="none"><path d="M50.3662 33.4056C50.3662 41.6023 50.3338 49.799 50.3662 57.9957C50.3985 62.7258 48.4561 66.2248 44.3122 68.5899C33.6936 74.6807 23.075 80.8039 12.5211 86.992C10.3844 88.2231 8.47436 88.4823 6.40243 86.9596C5.43122 86.2144 4.33049 85.5989 3.22978 85.0805C1.06073 84.1085 0.348515 82.4562 0.348515 80.156C0.348515 66.5812 0.316145 52.974 0.251397 39.3992C0.251397 36.3214 0.219019 33.2436 0.186646 30.1658C0.186646 25.63 2.06432 22.1634 6.04631 19.9604C7.30889 19.28 7.924 18.5349 7.72975 17.0769C7.43839 14.8415 8.37723 13.4484 10.4168 12.3144C16.7621 8.81544 23.0102 5.15446 29.226 1.39628C31.2008 0.197556 32.9166 0.0679638 34.6972 1.42868C35.8303 2.27103 36.8015 2.36823 37.967 1.49348C40.0065 -0.0616284 42.0784 -0.0616284 44.1827 1.49348C45.2187 2.23863 46.3518 2.8866 47.5173 3.43736C49.4597 4.37691 50.2043 5.89962 50.1719 8.00549C50.1395 16.4614 50.1719 24.9497 50.1719 33.4056C50.269 33.4056 50.3014 33.4056 50.3662 33.4056ZM16.8592 28.1571C13.6218 29.3882 12.4887 30.7489 12.4887 33.4056C12.5211 47.4339 12.5858 61.4623 12.6506 75.4583C12.6506 77.6289 14.075 78.4389 15.9851 77.3374C24.4994 72.4452 33.0138 67.5531 41.5281 62.5962C42.9202 61.7863 43.7295 60.5552 43.7295 58.9029C43.7295 44.4533 43.6971 30.0038 43.6971 15.5542C43.6971 14.8415 43.6324 14.1611 42.5964 13.7399C42.5964 15.3599 42.5964 16.8178 42.5964 18.3081C42.5964 19.28 42.3374 19.9928 41.3986 20.5435C34.5353 24.4637 27.7368 28.4163 20.9059 32.4336C19.7405 33.114 18.8987 32.8872 18.057 32.0125C16.9887 30.9433 16.9239 29.5502 16.8592 28.1571ZM16.9239 21.6451C14.6254 23.1678 12.1973 24.0425 10.352 25.7272C8.44197 27.4767 7.17939 29.6798 7.17939 32.3688C7.17939 49.5398 7.17941 66.6784 7.21178 83.8494C7.21178 86.7976 8.83046 87.7695 11.388 86.3116C22.4599 79.9292 33.5641 73.5792 44.5712 67.0996C47.582 65.3177 49.1683 62.4666 49.1683 58.9029C49.1683 42.1855 49.1359 25.468 49.1036 8.71825C49.1036 8.07029 49.0388 7.42233 48.9417 6.80676C48.618 5.12206 47.4849 4.4741 45.8662 5.08966C45.0245 5.41364 44.2799 5.99681 43.4381 6.38559C42.2079 6.93635 41.5281 7.51952 42.305 9.00983C42.6612 9.72259 42.5317 10.6945 42.5964 11.5693C42.6288 11.9905 42.564 12.4116 43.082 12.6384C44.5065 13.2216 44.7331 14.4203 44.7331 15.8134C44.7978 29.9066 44.8626 43.9673 44.9597 58.0605C44.9921 60.6524 43.9561 62.5962 41.6576 63.8922C33.3699 68.6547 25.1145 73.4496 16.8268 78.2445C13.7513 80.0264 11.388 78.6333 11.3556 75.0371C11.3233 61.0735 11.3233 47.0776 11.2909 33.114C11.2909 31.0081 12.2621 29.4206 14.0103 28.2867C14.6901 27.8655 15.4024 27.4443 16.0822 27.088C16.5354 26.8612 16.8592 26.602 16.8592 25.9864C16.8916 24.6257 16.9239 23.2974 16.9239 21.6451ZM6.04631 85.1777C6.07868 85.0805 6.14343 84.9833 6.14343 84.9185C6.04631 67.7799 5.98156 50.6089 5.88444 33.4704C5.88444 32.7576 5.75495 31.9801 6.01394 31.3969C6.82329 29.5826 6.04631 28.6431 4.42762 28.0275C3.55352 27.7035 2.64705 26.44 1.93482 26.926C1.0931 27.4767 1.3521 28.8698 1.3521 29.939C1.38447 46.2676 1.41684 62.6286 1.44921 78.9573C1.48159 83.0718 1.3521 83.007 6.04631 85.1777ZM21.1325 31.0405C27.8987 27.1203 34.3735 23.3298 40.8482 19.5716C41.172 19.3772 41.4633 19.1828 41.4633 18.7292C41.431 15.781 41.4633 12.8004 41.3986 9.85218C41.3662 8.71825 40.9777 8.19988 39.6504 8.97743C33.8231 12.4764 27.931 15.9106 22.0066 19.2476C20.8088 19.928 20.4203 20.4787 20.9707 21.8071C21.262 22.455 21.1325 23.2974 21.1649 24.0425C21.1325 26.2456 21.1325 28.4811 21.1325 31.0405ZM11.647 12.9948C12.3592 13.416 12.9743 13.7399 13.5571 14.1287C15.4995 15.3599 17.798 16.0726 19.1577 18.1137C19.7405 18.9884 20.1937 18.9884 21.0678 18.4701C27.1217 14.9063 33.208 11.3425 39.3266 7.8759C40.4274 7.26033 40.2979 6.74197 39.5857 6.02921C37.5785 4.02053 34.9562 2.91899 32.5281 1.59067C32.0749 1.36389 31.4922 1.46108 30.9742 1.78506C24.5642 5.51084 18.1541 9.23662 11.647 12.9948ZM16.2441 20.7379C12.4887 17.8221 12.3916 17.7897 8.5391 19.928C7.69738 20.3816 6.85566 20.8675 6.01394 21.3211C4.68661 22.0986 3.68303 23.2002 2.84131 24.4637C2.42045 25.0793 2.25857 25.5328 3.10029 25.954C4.16863 26.4724 5.17221 27.088 6.14343 27.7359C6.75853 28.1247 7.11465 28.0923 7.50313 27.3795C8.57147 25.4356 10.2225 24.1073 12.165 23.0706C13.5571 22.3578 14.8196 21.5479 16.2441 20.7379ZM9.08946 18.3405C11.5175 15.5542 13.5247 17.6601 15.6614 18.8588C15.9851 19.0532 16.3088 19.2152 16.6326 19.4096C17.6685 19.9928 18.1541 20.8351 18.1218 22.0663C18.0894 24.3665 18.1218 26.6992 18.0894 29.0318C18.0894 29.8094 18.1865 30.5221 18.7369 31.1377C18.9959 31.4293 19.2549 31.7857 19.6433 31.6885C20.0966 31.5913 20.0318 31.1053 20.0318 30.7165C20.0318 29.5826 19.9023 28.4487 20.0642 27.3147C20.7764 21.4831 18.5426 17.4009 13.0714 15.1655C11.9707 14.7119 10.9348 13.5132 9.67219 14.2583C8.31248 15.0359 8.9276 16.591 8.83047 17.8221C8.83047 17.9193 8.92759 18.0165 9.08946 18.3405ZM37.6432 3.11338C38.9058 3.92333 40.0389 4.66849 40.7511 5.80242C41.1396 6.38559 41.5281 6.1588 41.9489 5.89962C43.1144 5.21926 44.3122 4.5389 45.5101 3.85854C41.3015 0.910313 41.172 0.81312 37.6432 3.11338Z" fill="black"></path><path d="M16.8591 28.1572C16.8914 29.5827 16.9886 30.9758 18.0569 32.045C18.8986 32.9197 19.7727 33.1465 20.9058 32.4661C27.7043 28.4812 34.5352 24.4962 41.3985 20.5761C42.3697 20.0253 42.5963 19.2801 42.5963 18.3406C42.5963 16.8503 42.5963 15.3924 42.5963 13.7725C43.6323 14.1936 43.697 14.874 43.697 15.5868C43.697 30.0363 43.7294 44.4858 43.7294 58.9354C43.7294 60.5877 42.8877 61.8188 41.528 62.6287C33.046 67.5532 24.5317 72.4778 15.985 77.3699C14.0749 78.4714 12.6505 77.6614 12.6505 75.4908C12.5857 61.4624 12.521 47.4341 12.4886 33.4381C12.4886 30.749 13.654 29.3883 16.8591 28.1572Z" fill="white"></path><path d="M16.9239 21.645C16.9239 23.2973 16.8915 24.6256 16.9239 25.9539C16.9239 26.5371 16.6002 26.7963 16.1469 27.0555C15.4347 27.4442 14.7225 27.833 14.075 28.2542C12.3268 29.3881 11.3556 30.9756 11.3556 33.0815C11.3556 47.0451 11.388 61.041 11.4204 75.0046C11.4204 78.5684 13.816 79.9615 16.8915 78.212C25.1792 73.4495 33.4346 68.6546 41.7223 63.8596C43.9885 62.5637 45.0244 60.6198 45.0244 58.028C44.9273 43.9348 44.8302 29.8741 44.7978 15.7809C44.7978 14.3878 44.5388 13.1891 43.1468 12.6059C42.6288 12.3791 42.6935 11.958 42.6612 11.5368C42.5964 10.662 42.7583 9.69009 42.3698 8.97733C41.5928 7.48702 42.2727 6.90385 43.5029 6.35309C44.3446 5.99671 45.0892 5.41354 45.9309 5.05717C47.5496 4.4416 48.6503 5.08956 49.0064 6.77426C49.1359 7.38983 49.1683 8.07019 49.1683 8.68575C49.2007 25.4031 49.233 42.1206 49.233 58.8704C49.233 62.4341 47.6467 65.2852 44.636 67.0671C33.5965 73.5467 22.5246 79.8967 11.4527 86.2791C8.89519 87.737 7.27649 86.7651 7.27649 83.8169C7.24412 66.6459 7.21175 49.5073 7.24412 32.3363C7.24412 29.6473 8.5067 27.4442 10.4168 25.6947C12.1973 24.0424 14.6254 23.1677 16.9239 21.645Z" fill="#9DD4B2"></path><path d="M6.04619 85.1775C1.35198 83.0069 1.48147 83.0393 1.4491 78.9571C1.38435 62.6285 1.38435 46.2675 1.35198 29.9388C1.35198 28.8697 1.09298 27.4442 1.93471 26.9258C2.64693 26.4722 3.5534 27.7034 4.4275 28.0274C5.1721 28.3189 5.75484 28.6753 6.07858 29.1613C6.33757 29.5825 6.43468 30.0684 6.27281 30.7164C6.11094 31.4292 5.94908 32.1419 5.91671 32.8547C5.91671 33.0815 5.88432 33.3082 5.88432 33.4702C5.94907 50.6088 6.04619 67.7798 6.14331 84.9184C6.14331 85.0156 6.07857 85.0804 6.04619 85.1775Z" fill="#35B777"></path><path d="M21.1331 31.0415C21.1331 28.5145 21.1331 26.2466 21.1331 24.0111C21.1331 23.7844 21.1007 23.4604 21.1007 23.1364C21.036 22.4884 20.9065 21.8405 20.777 21.1925C20.5827 20.2854 21.0036 19.7994 22.0072 19.2486C27.8992 15.8792 33.7913 12.445 39.6186 8.94605C40.9459 8.1361 41.3344 8.68686 41.3668 9.82079C41.4639 12.769 41.3991 15.7496 41.4315 18.6979C41.4315 19.1514 41.1725 19.3458 40.8164 19.5402C34.374 23.3308 27.8669 27.089 21.1331 31.0415Z" fill="#9DD4B2"></path><path d="M11.6471 12.995C18.1542 9.20438 24.5643 5.511 30.9419 1.78523C31.4599 1.49364 32.0426 1.36405 32.4959 1.59084C34.9563 2.88676 37.5462 4.02069 39.5534 6.02937C40.298 6.74213 40.3951 7.2605 39.2944 7.87606C33.1757 11.3427 27.1218 14.9064 21.0355 18.4702C20.1614 18.9886 19.7082 18.9886 19.1255 18.1139C17.7658 16.1052 15.4672 15.36 13.5248 14.1289C12.9744 13.7725 12.3593 13.4161 11.6471 12.995Z" fill="#35B777"></path><path d="M16.2437 20.7393C14.8193 21.5817 13.5567 22.3917 12.2294 23.072C10.287 24.0763 8.63589 25.4371 7.56755 27.381C7.17907 28.0937 6.82295 28.1261 6.20785 27.7373C5.20426 27.1218 4.20068 26.4738 3.16471 25.9554C2.32299 25.5343 2.48485 25.1131 2.90571 24.4651C3.74743 23.2016 4.71866 22.0677 6.07836 21.3225C6.92008 20.8365 7.7618 20.383 8.60352 19.9294C12.3913 17.7911 12.4884 17.7911 16.2437 20.7393Z" fill="#35B777"></path><path d="M9.08944 18.3415C8.92757 18.0175 8.83045 17.9203 8.83045 17.8231C8.92757 16.592 8.31246 15.0369 9.67217 14.2593C10.9347 13.5142 12.1326 14.6805 13.2333 15.1341C13.2333 15.1341 17.4095 17.402 18.7045 18.7303C20.0318 20.0586 20.3555 23.104 20.0642 27.3482C19.9347 28.4497 20.0318 29.616 20.0318 30.75C20.0318 31.1387 20.0966 31.5923 19.6433 31.7219C19.2548 31.8191 18.9958 31.4627 18.7369 31.1711C18.1865 30.5556 18.0894 29.8428 18.0894 29.0653C18.1217 26.7326 18.0894 24.4323 18.1217 22.0997C18.1541 20.9009 17.6685 20.0262 16.6325 19.443C16.3088 19.2486 15.9851 19.0867 15.6613 18.8923C13.557 17.6611 11.5175 15.5553 9.08944 18.3415Z" fill="#35B777"></path><path d="M37.6431 3.11432C41.1718 0.846457 41.3013 0.911253 45.5099 3.85948C44.3121 4.53984 43.1466 5.2202 41.9488 5.90055C41.5279 6.15974 41.1394 6.38653 40.751 5.80336C40.0387 4.63703 38.938 3.89188 37.6431 3.11432Z" fill="#35B777"></path><path d="M26.9265 34.9268C27.3798 34.7972 27.833 34.6353 28.2863 34.5057C29.0956 34.4409 29.2575 34.7972 29.2575 35.2832C29.2575 37.7779 29.2251 40.2725 29.2575 42.7672C29.3546 48.7284 29.2898 54.6573 29.3222 60.6185C29.3222 61.3313 29.0956 61.9468 28.6424 62.4652C26.6999 64.5387 24.4014 66.0614 21.682 66.8713C21.2287 67.0009 20.7108 67.0981 20.2899 66.7093C20.2252 66.5473 20.1928 66.353 20.1928 66.1586C20.1604 60.9101 20.2575 55.694 20.128 50.4455C20.0309 47.2057 20.128 43.9335 20.0957 40.6937C20.0957 40.0781 20.3223 39.5598 20.7431 39.1062C21.9086 37.8751 23.2359 36.9031 24.6928 36.0932C25.0812 35.8664 26.9265 34.9268 26.9265 34.9268ZM28.0273 40.1105C27.7683 40.2401 27.4122 40.4021 27.1208 40.5641C25.2107 41.6656 23.3331 42.7672 21.4554 43.8363C21.1316 44.0307 21.0021 44.2575 21.0021 44.6463C21.0021 51.0287 21.0021 57.3787 21.0345 63.7611C21.0345 63.9879 20.905 64.3443 21.0993 64.4739C21.3259 64.6359 21.5525 64.3119 21.7791 64.1823C23.8834 62.9836 25.9877 61.7524 28.092 60.5537C28.5453 60.6833 28.351 60.3269 28.351 60.1649C28.351 53.5881 28.3186 46.9789 28.3186 40.4021C28.3186 40.3373 28.3186 40.2401 28.3186 40.1753C28.2862 40.0781 28.092 40.0457 28.0273 40.1105Z" fill="#9DD4B2" stroke="black" stroke-width="0.5"></path><path d="M24.9845 36.4166C23.5277 37.2266 22.2004 38.1985 21.0349 39.4297C20.6141 39.8832 20.3875 40.3692 20.3875 41.0172C20.3875 44.257 20.3227 47.5292 20.4198 50.769C20.5493 56.0175 20.4522 61.2336 20.4846 66.4821C20.4846 66.6764 20.517 66.8384 20.5817 67.0328C20.2256 66.9032 19.9018 66.6764 19.5781 66.4821C19.2867 66.3201 19.2868 66.0285 19.2868 65.7369C19.2868 63.1451 19.2544 60.5532 19.2544 57.9614C19.222 52.1297 19.222 46.2981 19.1896 40.4664C19.1896 39.7213 19.4162 39.1705 19.9018 38.6521C20.6464 37.8422 21.5206 37.1618 22.427 36.5462C22.5565 36.449 26.409 34.4404 26.409 34.4404C27.3802 33.9868 28.2867 34.1164 29.096 34.8291C28.4162 34.9911 27.7363 35.1531 27.0565 35.3151C27.0889 35.3475 25.4378 36.1899 24.9845 36.4166Z" fill="#35B777" stroke="black" stroke-width="0.5"></path><path d="M28.2871 60.4575C26.1828 61.6562 23.8843 62.9522 21.78 64.1833C21.5534 64.3129 21.3591 64.6045 21.1001 64.4749C20.9059 64.3453 21.0354 64.0213 21.0354 63.7621C21.0354 57.3797 21.0354 51.0297 21.003 44.6473C21.003 44.2585 21.1001 44.0317 21.4563 43.8373C23.3663 42.7682 25.244 41.6342 27.1217 40.5651C27.4131 40.4031 28.2871 39.9819 28.2871 39.9819C28.2871 40.0467 28.2871 57.5741 28.2871 60.4575Z" fill="white"></path><path d="M25.4754 39.2679C25.7874 38.6841 25.7464 38.0535 25.3837 37.8594C25.0211 37.6653 24.4742 37.9812 24.1623 38.565C23.8503 39.1488 23.8913 39.7794 24.2539 39.9735C24.6166 40.1676 25.1634 39.8516 25.4754 39.2679Z" fill="white"></path><path d="M29.2582 36.0942L40.9128 29.8738V31.9797L29.2582 38.4917V36.0942Z" fill="black"></path><path d="M29.3552 45.133L41.0098 38.8801V41.0184L29.3552 47.498V45.133Z" fill="black"></path><path d="M29.3552 54.6273L41.0098 48.3745V50.5128L29.3552 56.9924V54.6273Z" fill="black"></path><path d="M24.2398 31.7168C24.7254 31.5224 25.2757 31.5872 25.729 31.8788C26.2146 32.1704 26.6031 32.6888 26.8621 33.3367C27.121 33.9847 27.2182 34.7622 27.1211 35.5074C27.0563 36.2526 26.7973 36.9329 26.4088 37.4513C26.0527 37.9697 25.2757 38.65 24.2398 38.326L24.5959 37.9697C24.693 37.9373 24.8225 37.9049 24.952 37.8401C25.0815 37.7753 25.2434 37.6781 25.3729 37.5485C25.6642 37.3217 25.9232 37.0625 26.0851 36.8681C26.3765 36.4793 26.5707 35.961 26.6031 35.4102C26.6678 34.8594 26.6031 34.2763 26.4088 33.7903C26.2146 33.3043 25.9232 32.9156 25.5347 32.6888C25.1786 32.462 24.7578 32.4296 24.3693 32.5592C23.9808 32.7212 23.6571 33.0451 23.3981 33.4663C23.1714 33.9199 23.0419 34.4707 23.0419 35.0214C23.0419 35.313 23.0419 35.475 23.0743 35.637C23.1067 35.799 23.1067 35.961 23.1714 36.1878L22.7829 36.4145C22.6211 36.123 22.5563 35.961 22.524 35.799C22.4916 35.6046 22.4916 35.4102 22.4916 35.0214C22.4916 34.2763 22.6534 33.5311 22.9772 32.948C23.3009 32.3324 23.7542 31.9112 24.2398 31.7168Z" fill="#8BC19F" stroke="black" stroke-width="0.25" stroke-miterlimit="10"></path><path d="M24.0133 31.8138C24.4989 31.6194 25.0493 31.6842 25.5025 31.9757C25.9881 32.2673 26.3766 32.7857 26.6356 33.4337C26.8946 34.0816 26.9917 34.8592 26.8946 35.6043C26.8298 36.3495 26.5708 37.0298 26.1823 37.5482C25.8262 38.0666 25.0816 38.4878 24.2399 38.2934L24.5637 37.9046C24.7579 37.8722 25.0169 37.7426 25.2111 37.5482C25.4377 37.3862 25.6644 37.1594 25.7939 36.965C26.0852 36.5763 26.2795 36.0579 26.3118 35.5071C26.3766 34.9564 26.3118 34.3732 26.1176 33.8872C25.9233 33.4013 25.632 33.0125 25.2435 32.7857C24.8874 32.5589 24.4665 32.5265 24.078 32.6561C23.6896 32.8181 23.3658 33.1421 23.1068 33.5632C22.8802 34.0168 22.7507 34.5676 22.7507 35.1184C22.7507 35.4099 22.7507 35.5395 22.7831 35.7015C22.8155 35.8635 22.8478 36.0255 22.9126 36.3171L22.4593 36.5763C22.4593 36.5763 22.4593 36.5763 22.4593 36.5439C22.4593 36.5115 22.427 36.4791 22.427 36.4467C22.3946 36.3495 22.3622 36.2523 22.3298 36.1227C22.2651 35.8635 22.2327 35.5071 22.2327 35.1184C22.2327 34.3732 22.3946 33.628 22.7183 33.0449C23.0744 32.4293 23.5277 32.0081 24.0133 31.8138Z" fill="white" stroke="black" stroke-width="0.25" stroke-miterlimit="10"></path></svg>