<svg xmlns="http://www.w3.org/2000/svg" width="92" height="134" viewBox="0 0 92 134" fill="none"><path d="M55.3945 131.944L70.105 123.439C71.6212 122.563 72.3794 121.416 72.3794 120.269C72.3794 119.121 72.3858 118.222 72.3858 118.222L58.5434 110.366C57.7348 109.899 57.0793 108.763 57.0793 107.829V89.6927L31.3854 104.54L31.3848 122.677C31.3848 123.61 32.0402 124.746 32.8491 125.213L44.412 131.945C47.4447 133.695 52.3618 133.695 55.3945 131.944Z" fill="#35B777" stroke="black" stroke-width="0.289971"></path><path opacity="0.15" d="M37.5535 125.887V127.925L32.8446 125.211C32.0415 124.746 31.3818 123.613 31.3818 122.675V104.54L36.2769 101.716C36.3785 102.959 36.4879 104.244 36.5894 105.495L33.157 107.482V121.652C33.157 122.59 33.8081 123.723 34.6198 124.188L37.5535 125.887Z" fill="#35B777" stroke="black" stroke-width="0.289971"></path><path d="M33.1577 121.654C33.1577 122.588 33.8132 123.724 34.622 124.191L44.4107 129.898C47.4434 131.649 52.3608 131.649 55.3938 129.899L70.1116 121.394C73.145 119.644 73.145 116.805 70.1122 115.054L60.3166 109.343C59.5078 108.876 58.8523 107.74 58.8523 106.807V92.6354L33.1577 107.482V121.654Z" fill="#9DD4B2" stroke="black" stroke-width="0.289971"></path><path opacity="0.15" d="M63.2991 111.068V111.065L60.3166 109.344C59.5078 108.876 58.8523 107.741 58.8523 106.807V92.6361L33.1577 107.483V121.655C33.1577 122.589 33.8132 123.725 34.622 124.192L37.5533 125.884L63.2991 111.068Z" fill="black" stroke="black" stroke-width="0.289971"></path><path d="M2.55048 132.838C3.4987 133.385 5.08713 133.356 6.09803 132.773C18.7304 125.48 76.8166 91.9371 89.4467 84.6453C90.4576 84.0617 91.2766 82.6426 91.2766 81.4751V4.45793C91.2766 3.29047 90.5079 1.9006 89.5597 1.35298C88.6114 0.805687 87.023 0.834962 86.0124 1.41853L2.66503 49.5462C1.65412 50.1301 0.834769 51.5492 0.834769 52.7167L0.833496 129.734C0.833178 130.901 1.60226 132.291 2.55048 132.838Z" fill="#35B777" stroke="black" stroke-width="0.289971"></path><path d="M6.09784 132.77L89.4459 84.6432C90.4571 84.0593 91.2764 82.6402 91.2764 81.4727V4.45549C91.2764 3.28835 90.4571 2.81487 89.4459 3.39876L6.09943 51.5261C5.08852 52.1097 4.26885 53.5291 4.26885 54.6966L4.26758 131.713C4.26758 132.881 5.08693 133.354 6.09784 132.77Z" fill="#9DD4B2" stroke="black" stroke-width="0.289971"></path><path d="M91.4219 81.4725C91.4219 82.0875 91.2068 82.7595 90.8662 83.3495C90.5683 83.8655 90.168 84.3294 89.7158 84.6434L89.5186 84.7684L6.1709 132.895C5.63915 133.202 5.12335 133.25 4.73145 133.024C4.33956 132.798 4.12311 132.328 4.12305 131.714V125.402L4.19531 125.361L91.2041 75.119L91.4219 74.994V81.4725Z" fill="#9DD4B2" stroke="black" stroke-width="0.289971"></path><path d="M1.37328 50.9062L4.80597 52.8845C4.476 53.4594 4.27331 54.1102 4.26472 54.6937V123.168L4.26758 131.712C4.26758 132.777 4.98829 133.373 6.09752 132.771C4.98925 133.415 3.41228 133.336 2.54997 132.837C1.60302 132.287 0.832031 131.128 0.832031 129.953V121.181V52.7155C0.832349 52.1323 1.04363 51.4812 1.37328 50.9062Z" fill="#35B777" stroke="black" stroke-width="0.289971"></path><path d="M46.7632 104.429L50.9032 102.052C51.2739 101.838 51.5743 101.99 51.5743 102.392C51.5743 102.793 51.2739 103.292 50.9032 103.506L46.7629 105.883C46.3922 106.097 46.0918 105.945 46.0918 105.543C46.0921 105.142 46.3925 104.643 46.7632 104.429Z" fill="#BA68C8" stroke="black" stroke-width="0.289971"></path><path d="M9.06154 117.09C8.95845 117.09 8.85535 117.063 8.7618 117.009C8.57375 116.901 8.46143 116.706 8.46143 116.489L8.46206 55.6445L8.47065 55.619C8.49165 55.5563 8.53875 55.4749 8.58234 55.4259L8.62275 55.3931L86.3343 10.4582C86.522 10.3497 86.7463 10.3494 86.9347 10.4579C87.1224 10.5664 87.2347 10.7608 87.2347 10.9779L87.237 71.8244L87.2284 71.8498C87.2077 71.9116 87.1612 71.9921 87.118 72.0411L87.0766 72.0748L9.3616 117.009C9.26773 117.063 9.16464 117.09 9.06154 117.09ZM8.79171 55.7043L8.79108 116.489C8.79108 116.587 8.84167 116.675 8.92663 116.724C9.01095 116.773 9.11182 116.773 9.19677 116.724L86.8835 71.8056C86.8917 71.7935 86.9003 71.7779 86.9073 71.7649L87.2347 11.0511C87.2347 10.9531 86.8545 10.7927 86.7699 10.7437C86.6846 10.6943 86.5837 10.695 86.4991 10.7437L8.81589 55.6623C8.80762 55.675 8.79839 55.6906 8.79171 55.7043Z" fill="#9DD4B2" stroke="black" stroke-width="0.289971"></path><path d="M87.0703 16.642V10.9781C87.0703 10.6427 86.7075 10.4334 86.417 10.601L8.70553 55.5362C8.67657 55.5687 8.64093 55.6311 8.62693 55.6721L8.62598 62.0001L87.0703 16.642Z" fill="#35B777" stroke="black" stroke-width="0.289971"></path><path d="M10.4586 55.5302L10.9409 55.2517C11.1774 55.1152 11.3692 55.2257 11.3692 55.499V56.0565C11.3692 56.3298 11.1774 56.6617 10.9409 56.7985L10.4586 57.0772C10.2221 57.2137 10.0303 57.103 10.0303 56.83V56.2725C10.0303 55.9992 10.2221 55.667 10.4586 55.5302Z" fill="#BA68C8" stroke="black" stroke-width="0.289971"></path><path d="M10.4586 58.3443L10.9409 58.0655C11.1774 57.929 11.3692 58.0398 11.3692 58.3128V58.8703C11.3692 59.1436 11.1774 59.4755 10.9409 59.6123L10.4586 59.891C10.2221 60.0275 10.0303 59.9168 10.0303 59.6438V59.0863C10.0303 58.813 10.2221 58.4808 10.4586 58.3443Z" fill="#9DD4B2" stroke="black" stroke-width="0.289971"></path><path d="M19.8336 52.9319L20.3159 52.6532C20.5524 52.5167 20.7442 52.6274 20.7442 52.9004V53.4579C20.7442 53.7309 20.5524 54.0631 20.3159 54.1999L19.8336 54.4787C19.5971 54.6152 19.4053 54.5044 19.4053 54.2314V53.674C19.4053 53.4006 19.5968 53.0684 19.8336 52.9319Z" fill="#9DD4B2" stroke="black" stroke-width="0.289971"></path><path d="M22.5103 51.3848L22.9927 51.1064C23.2291 50.9699 23.421 51.0807 23.421 51.3537V51.9111C23.421 52.1842 23.2291 52.5163 22.9927 52.6532L22.5103 52.9319C22.2739 53.0684 22.082 52.958 22.082 52.6847V52.1272C22.082 51.8535 22.2739 51.5214 22.5103 51.3848Z" fill="#35B777" stroke="black" stroke-width="0.289971"></path><path d="M25.19 49.8389L25.6724 49.5602C25.9088 49.4237 26.1007 49.5344 26.1007 49.8074V50.3649C26.1007 50.6379 25.9088 50.9701 25.6724 51.1069L25.19 51.3856C24.9536 51.5222 24.7617 51.4114 24.7617 51.1384V50.5809C24.762 50.3079 24.9536 49.9757 25.19 49.8389Z" fill="#9DD4B2" stroke="black" stroke-width="0.289971"></path><path d="M12.7093 55.1688C12.6527 55.1688 12.597 55.1392 12.5667 55.0864C12.5209 55.0075 12.548 54.9066 12.6269 54.8615L16.6447 52.5415C16.7233 52.4954 16.8245 52.5227 16.8697 52.6016C16.9155 52.6805 16.8885 52.7814 16.8096 52.8266L12.7917 55.1466C12.7656 55.1618 12.7373 55.1688 12.7093 55.1688Z" fill="#9DD4B2" stroke="black" stroke-width="0.289971"></path><path d="M24.764 48.2092C24.7073 48.2092 24.6517 48.1796 24.6214 48.1268C24.5756 48.0479 24.6027 47.947 24.6816 47.9018L28.6994 45.5818C28.778 45.5357 28.8792 45.5628 28.9244 45.642C28.9702 45.7209 28.9432 45.8218 28.8642 45.867L24.8464 48.1869C24.8203 48.2022 24.792 48.2092 24.764 48.2092Z" fill="#9DD4B2" stroke="black" stroke-width="0.289971"></path><path d="M42.1771 38.1571C42.1204 38.1571 42.0647 38.1275 42.0345 38.0747C41.9887 37.9958 42.0157 37.8949 42.0947 37.8497L46.1125 35.5301C46.1908 35.4843 46.2923 35.511 46.3375 35.5902C46.3833 35.6691 46.3562 35.77 46.2773 35.8152L42.2595 38.1348C42.2334 38.1498 42.2051 38.1571 42.1771 38.1571Z" fill="#9DD4B2" stroke="black" stroke-width="0.289971"></path><path d="M19.4061 51.3025C19.3494 51.3025 19.2938 51.2729 19.2635 51.2201C19.2177 51.1412 19.2447 51.0403 19.3237 50.9951L22.0022 49.4487C22.0808 49.4022 22.182 49.4296 22.2272 49.5088C22.273 49.5877 22.246 49.6886 22.1671 49.7338L19.4885 51.2802C19.4624 51.2955 19.4341 51.3025 19.4061 51.3025Z" fill="#9DD4B2" stroke="black" stroke-width="0.289971"></path><path d="M31.4573 44.3436C31.4007 44.3436 31.345 44.3141 31.3148 44.2612C31.269 44.1823 31.296 44.0815 31.3749 44.0363L34.0538 42.4898C34.1327 42.444 34.2336 42.4711 34.2788 42.55C34.3246 42.6289 34.2976 42.7298 34.2186 42.7749L31.5398 44.3214C31.5137 44.3366 31.4853 44.3436 31.4573 44.3436Z" fill="#9DD4B2" stroke="black" stroke-width="0.289971"></path><path d="M36.8177 41.2497C36.7611 41.2497 36.7054 41.2201 36.6751 41.1673C36.6293 41.0884 36.6564 40.9875 36.7353 40.9423L39.4138 39.3959C39.4924 39.3494 39.5933 39.3771 39.6388 39.456C39.6846 39.5349 39.6576 39.6358 39.5787 39.681L36.9001 41.2274C36.8743 41.2427 36.8457 41.2497 36.8177 41.2497Z" fill="#9DD4B2" stroke="black" stroke-width="0.289971"></path><path d="M48.8704 34.2904C48.8138 34.2904 48.7581 34.2608 48.7279 34.208C48.6821 34.1291 48.7091 34.0282 48.788 33.983L51.4666 32.4366C51.5452 32.3904 51.6464 32.4175 51.6915 32.4967C51.7374 32.5756 51.7103 32.6762 51.6314 32.7217L48.9528 34.2681C48.9267 34.2834 48.8984 34.2904 48.8704 34.2904Z" fill="#9DD4B2" stroke="black" stroke-width="0.289971"></path><path d="M54.2269 31.1974C54.1702 31.1974 54.1146 31.1678 54.0843 31.115C54.0385 31.0361 54.0655 30.9352 54.1445 30.89L55.4841 30.1165C55.5627 30.0707 55.6638 30.0974 55.709 30.1766C55.7548 30.2555 55.7278 30.3564 55.6489 30.4016L54.3093 31.1751C54.2832 31.1901 54.2549 31.1974 54.2269 31.1974Z" fill="#9DD4B2" stroke="black" stroke-width="0.289971"></path><path d="M58.2459 28.8767C58.1893 28.8767 58.1336 28.8472 58.1034 28.7943C58.0575 28.7154 58.0846 28.6146 58.1635 28.5694L62.1814 26.2497C62.2596 26.2039 62.3611 26.231 62.4063 26.3099C62.4521 26.3888 62.4251 26.4896 62.3462 26.5348L58.3283 28.8545C58.3022 28.8697 58.2739 28.8767 58.2459 28.8767Z" fill="#9DD4B2" stroke="black" stroke-width="0.289971"></path><path d="M12.9934 56.73L16.4404 54.7397C16.5983 54.6486 16.7259 54.7225 16.7259 54.9045V55.7916C16.7259 55.9736 16.5979 56.1951 16.4404 56.2861L12.9934 58.2761C12.8356 58.3671 12.708 58.2933 12.708 58.1112V57.2241C12.7077 57.0424 12.8356 56.821 12.9934 56.73Z" fill="#35B777" stroke="black" stroke-width="0.289971"></path><path d="M27.7249 48.2096L31.1719 46.2196C31.3297 46.1286 31.4573 46.2025 31.4573 46.3845V47.2716C31.4573 47.4536 31.3294 47.6751 31.1719 47.7661L27.7249 49.7561C27.5671 49.8471 27.4395 49.7732 27.4395 49.5912V48.7041C27.4395 48.5221 27.5674 48.3006 27.7249 48.2096Z" fill="#35B777" stroke="black" stroke-width="0.289971"></path><path d="M41.1175 40.4764L44.5645 38.4861C44.7223 38.3951 44.8499 38.4689 44.8499 38.6509V39.5381C44.8499 39.7201 44.722 39.9415 44.5645 40.0325L41.1175 42.0225C40.9596 42.1135 40.832 42.0397 40.832 41.8577V40.9706C40.832 40.7889 40.9596 40.5677 41.1175 40.4764Z" fill="#35B777" stroke="black" stroke-width="0.289971"></path><path d="M53.1746 33.5173L56.6216 31.527C56.7794 31.436 56.907 31.5098 56.907 31.6918V32.579C56.907 32.761 56.7791 32.9824 56.6216 33.0734L53.1746 35.0634C53.0168 35.1544 52.8892 35.0806 52.8892 34.8986V34.0115C52.8888 33.8298 53.0168 33.6083 53.1746 33.5173Z" fill="#35B777" stroke="black" stroke-width="0.289971"></path><path d="M34.1365 45.3618C34.0799 45.3618 34.0242 45.3322 33.994 45.2794C33.9482 45.2005 33.9752 45.0996 34.0541 45.0544L39.4113 41.9609C39.4902 41.9151 39.5914 41.9421 39.6362 42.021C39.682 42.1 39.655 42.2008 39.5761 42.246L34.2193 45.3395C34.1929 45.3545 34.1645 45.3618 34.1365 45.3618Z" fill="#9DD4B2" stroke="black" stroke-width="0.289971"></path><path d="M47.5345 37.6662C47.4779 37.6662 47.4222 37.6367 47.3919 37.5838C47.3461 37.5049 47.3732 37.4041 47.4521 37.3589L51.0423 35.2858C51.1205 35.2397 51.2221 35.2667 51.2672 35.346C51.3131 35.4249 51.286 35.5257 51.2071 35.5709L47.6169 37.644C47.5908 37.6592 47.5625 37.6662 47.5345 37.6662Z" fill="#9DD4B2" stroke="black" stroke-width="0.289971"></path><path d="M85.7894 12.1057C86.1159 11.9173 86.3807 12.0701 86.3807 12.4468C86.3807 12.8239 86.1159 13.2821 85.7894 13.4704C85.463 13.6588 85.1982 13.5061 85.1982 13.1293C85.1982 12.7526 85.463 12.2941 85.7894 12.1057Z" fill="#E0E0E0" stroke="black" stroke-width="0.289971"></path><path d="M83.662 13.3329C83.9885 13.1445 84.2532 13.2972 84.2532 13.674C84.2532 14.051 83.9885 14.5092 83.662 14.6976C83.3355 14.886 83.0708 14.7333 83.0708 14.3562C83.0711 13.9794 83.3355 13.5212 83.662 13.3329Z" fill="#35B777" stroke="black" stroke-width="0.289971"></path><path d="M81.5341 14.5594C81.8605 14.3711 82.1253 14.5238 82.1253 14.9009C82.1253 15.2779 81.8605 15.7361 81.5341 15.9245C81.2076 16.1129 80.9429 15.9601 80.9429 15.5831C80.9432 15.2063 81.2076 14.7481 81.5341 14.5594Z" fill="#35B777" stroke="black" stroke-width="0.289971"></path><path d="M18.9876 60.7788C18.9134 60.7361 18.8113 60.7422 18.6983 60.8074L11.8435 64.7651C11.6175 64.8956 11.4346 65.2128 11.4346 65.4734V109.877C11.4346 110.004 11.4785 110.095 11.5498 110.139C11.6242 110.184 12.8187 110.87 12.8916 110.914C12.9657 110.957 13.0688 110.952 13.1827 110.886L20.0376 106.928C20.2635 106.798 20.4465 106.48 20.4465 106.22V61.8167C20.4465 61.6859 20.4004 61.5943 20.3262 61.5517C20.2524 61.5093 19.0617 60.8214 18.9876 60.7788Z" fill="#35B777" stroke="black" stroke-width="0.289971"></path><path d="M12.7739 67.7819L12.8925 65.8457L11.5536 65.0725C11.4801 65.2001 11.4346 65.3439 11.4346 65.4734V109.877C11.4346 110.004 11.4785 110.095 11.5498 110.139C11.6242 110.184 12.8187 110.87 12.8916 110.914C12.9657 110.958 13.0688 110.952 13.1827 110.886L12.7739 110.65V67.7819Z" fill="#35B777" stroke="black" stroke-width="0.289971"></path><path d="M12.7725 66.2463V110.65C12.7725 110.911 12.9557 111.016 13.1813 110.886L20.0362 106.928C20.2621 106.798 20.4451 106.48 20.4451 106.22V61.816C20.4451 61.5551 20.2618 61.4495 20.0362 61.58L13.1813 65.5377C12.9557 65.6681 12.7725 65.9854 12.7725 66.2463Z" fill="#9DD4B2" stroke="black" stroke-width="0.289971"></path><path d="M20.0362 61.58L13.1813 65.5377C12.9554 65.6681 12.7725 65.9854 12.7725 66.246V67.7809L20.4454 63.351V61.8157C20.4454 61.5551 20.2621 61.4495 20.0362 61.58Z" fill="#9DD4B2" stroke="black" stroke-width="0.289971"></path><g opacity="0.2"><path d="M13.8954 69.0275L15.8189 67.9166C15.9627 67.8336 16.0795 67.9011 16.0795 68.0672L16.0798 70.2888C16.0798 70.4549 15.963 70.6573 15.8192 70.7403L13.8954 71.8514C13.7515 71.9345 13.6348 71.8674 13.6348 71.7009V69.479C13.6348 69.3129 13.7512 69.1105 13.8954 69.0275Z" fill="white" stroke="black" stroke-width="0.289971"></path><path d="M17.3976 67.0072L19.3211 65.8964C19.465 65.8133 19.5817 65.8808 19.5817 66.0469L19.582 68.2685C19.582 68.4349 19.4653 68.637 19.3214 68.72L17.3976 69.8312C17.2538 69.9142 17.137 69.8471 17.137 69.6807L17.1367 67.4587C17.137 67.2926 17.2538 67.0906 17.3976 67.0072Z" fill="white" stroke="black" stroke-width="0.289971"></path><path d="M13.8954 72.9929L15.8189 71.882C15.9627 71.799 16.0795 71.8661 16.0795 72.0325L16.0798 74.2542C16.0798 74.4203 15.963 74.6227 15.8192 74.7057L13.8954 75.8168C13.7515 75.8999 13.6348 75.8324 13.6348 75.6663V73.4444C13.6348 73.278 13.7512 73.0759 13.8954 72.9929Z" fill="white" stroke="black" stroke-width="0.289971"></path><path d="M17.3976 70.972L19.3211 69.8612C19.465 69.7781 19.5817 69.8453 19.5817 70.0117L19.582 72.2333C19.582 72.3997 19.4653 72.6018 19.3214 72.6848L17.3976 73.796C17.2538 73.879 17.137 73.8116 17.137 73.6455L17.1367 71.4235C17.137 71.2574 17.2538 71.055 17.3976 70.972Z" fill="white" stroke="black" stroke-width="0.289971"></path><path d="M13.8954 76.9582L15.8189 75.8474C15.9627 75.7643 16.0795 75.8315 16.0795 75.9979L16.0798 78.2195C16.0798 78.3856 15.963 78.588 15.8192 78.671L13.8954 79.7822C13.7515 79.8652 13.6348 79.7978 13.6348 79.6317V77.4097C13.6348 77.2433 13.7512 77.0412 13.8954 76.9582Z" fill="white" stroke="black" stroke-width="0.289971"></path><path d="M17.3976 74.9368L19.3211 73.8259C19.465 73.7429 19.5817 73.8104 19.5817 73.9765L19.582 76.1981C19.582 76.3642 19.4653 76.5666 19.3214 76.6496L17.3976 77.7607C17.2538 77.8438 17.137 77.7763 17.137 77.6102L17.1367 75.3883C17.137 75.2219 17.2538 75.0198 17.3976 74.9368Z" fill="white" stroke="black" stroke-width="0.289971"></path><path d="M13.8954 80.9229L15.8189 79.812C15.9627 79.729 16.0795 79.7964 16.0795 79.9625L16.0798 82.1842C16.0798 82.3503 15.963 82.5526 15.8192 82.6357L13.8954 83.7468C13.7515 83.8299 13.6348 83.7624 13.6348 83.5963V81.3744C13.6348 81.2083 13.7512 81.0059 13.8954 80.9229Z" fill="white" stroke="black" stroke-width="0.289971"></path><path d="M17.3976 78.9021L19.3211 77.7913C19.465 77.7082 19.5817 77.7757 19.5817 77.9418L19.582 80.1634C19.582 80.3295 19.4653 80.5319 19.3214 80.6149L17.3976 81.7261C17.2538 81.8091 17.137 81.742 17.137 81.5756L17.1367 79.3536C17.137 79.1872 17.2538 78.9851 17.3976 78.9021Z" fill="white" stroke="black" stroke-width="0.289971"></path><path d="M13.8954 84.8883L15.8189 83.7775C15.9627 83.6944 16.0795 83.7619 16.0795 83.928L16.0798 86.1496C16.0798 86.3157 15.963 86.5181 15.8192 86.6011L13.8954 87.7123C13.7515 87.7953 13.6348 87.7282 13.6348 87.5618V85.3398C13.6348 85.1734 13.7512 84.9714 13.8954 84.8883Z" fill="white" stroke="black" stroke-width="0.289971"></path><path d="M17.3976 82.8682L19.3211 81.7573C19.465 81.6743 19.5817 81.7418 19.5817 81.9079L19.582 84.1295C19.582 84.2956 19.4653 84.498 19.3214 84.581L17.3976 85.6921C17.2538 85.7752 17.137 85.7081 17.137 85.5416L17.1367 83.3197C17.137 83.1536 17.2538 82.9515 17.3976 82.8682Z" fill="white" stroke="black" stroke-width="0.289971"></path><path d="M13.8954 88.854L15.8189 87.7431C15.9627 87.6598 16.0795 87.7272 16.0795 87.8936L16.0798 90.1153C16.0798 90.2814 15.963 90.4838 15.8192 90.5668L13.8954 91.6779C13.7515 91.761 13.6348 91.6938 13.6348 91.5274V89.3055C13.6348 89.1391 13.7512 88.937 13.8954 88.854Z" fill="white" stroke="black" stroke-width="0.289971"></path><path d="M17.3976 86.8329L19.3211 85.7221C19.465 85.639 19.5817 85.7065 19.5817 85.8726L19.582 88.0942C19.582 88.2606 19.4653 88.4627 19.3214 88.5457L17.3976 89.6569C17.2538 89.7399 17.137 89.6728 17.137 89.5064L17.1367 87.2844C17.137 87.1183 17.2538 86.9159 17.3976 86.8329Z" fill="white" stroke="black" stroke-width="0.289971"></path><path d="M13.8954 92.8185L15.8189 91.7077C15.9627 91.6247 16.0795 91.6918 16.0795 91.8582L16.0798 94.0799C16.0798 94.246 15.963 94.4483 15.8192 94.5314L13.8954 95.6425C13.7515 95.7256 13.6348 95.6584 13.6348 95.492V93.2701C13.6348 93.104 13.7512 92.9016 13.8954 92.8185Z" fill="white" stroke="black" stroke-width="0.289971"></path><path d="M17.3976 90.7984L19.3211 89.6876C19.465 89.6045 19.5817 89.6717 19.5817 89.8381L19.582 92.0597C19.582 92.2258 19.4653 92.4282 19.3214 92.5112L17.3976 93.6224C17.2538 93.7054 17.137 93.638 17.137 93.4719L17.1367 91.2499C17.137 91.0835 17.2538 90.8814 17.3976 90.7984Z" fill="white" stroke="black" stroke-width="0.289971"></path><path d="M13.8954 96.7834L15.8189 95.6726C15.9627 95.5895 16.0795 95.6567 16.0795 95.8231L16.0798 98.0447C16.0798 98.2108 15.963 98.4132 15.8192 98.4962L13.8954 99.6074C13.7515 99.6904 13.6348 99.623 13.6348 99.4569V97.2349C13.6348 97.0685 13.7512 96.8664 13.8954 96.7834Z" fill="white" stroke="black" stroke-width="0.289971"></path><path d="M17.3976 94.7637L19.3211 93.6529C19.465 93.5698 19.5817 93.6373 19.5817 93.8034L19.582 96.025C19.582 96.1911 19.4653 96.3935 19.3214 96.4765L17.3976 97.5877C17.2538 97.6707 17.137 97.6032 17.137 97.4371L17.1367 95.2152C17.137 95.0488 17.2538 94.8467 17.3976 94.7637Z" fill="white" stroke="black" stroke-width="0.289971"></path></g><path d="M13.8566 101.707L17.0844 99.8427C17.3259 99.7033 17.5219 99.8162 17.5219 100.095L17.5226 103.823C17.5226 104.102 17.3269 104.442 17.0854 104.581L13.857 106.446C13.6154 106.585 13.4194 106.472 13.4194 106.193V102.465C13.4191 102.186 13.6148 101.846 13.8566 101.707Z" fill="#FAFAFA" stroke="black" stroke-width="0.289971"></path><path d="M19.1195 102.438L19.1202 105.494C19.116 105.543 19.0581 105.643 19.0215 105.669L16.3716 107.199L16.3713 104.142C16.3754 104.094 16.4337 103.993 16.4702 103.968L19.1195 102.438ZM19.5545 101.457C19.4956 101.457 19.4291 101.476 19.3591 101.517L16.1314 103.381C15.8899 103.52 15.6938 103.86 15.6938 104.139L15.6942 107.867C15.6942 108.065 15.7925 108.179 15.9363 108.179C15.9952 108.179 16.0614 108.16 16.1317 108.12L19.3601 106.255C19.6016 106.116 19.7973 105.776 19.7973 105.498L19.7967 101.77C19.7967 101.572 19.698 101.457 19.5545 101.457Z" fill="#35B777" stroke="black" stroke-width="0.289971"></path><path d="M25.5448 125.134C25.6428 125.134 25.7469 125.103 25.8551 125.041L83.6721 91.6357C84.2986 91.2752 84.8277 90.361 84.8277 89.6394V28.0855C84.8277 27.655 84.6464 27.3982 84.3422 27.3982C84.2063 27.3982 84.0485 27.4481 83.8859 27.542L26.0664 60.9264C25.4408 61.2879 24.9116 62.2027 24.9116 62.925V124.172C24.9116 124.438 24.9845 124.694 25.1118 124.876C25.1942 124.994 25.3361 125.134 25.5448 125.134Z" fill="white" stroke="black" stroke-width="0.289971"></path><path d="M23.6201 124.353C23.7566 124.425 24.7363 124.984 25.1656 125.229C24.876 125.022 24.7233 124.668 24.702 124.171V64.6144L23.0894 63.6837V123.259C23.089 123.747 23.299 124.182 23.6201 124.353Z" fill="#35B777" stroke="black" stroke-width="0.289971"></path><path d="M84.3419 27.6105C84.5786 27.6105 84.6139 27.9077 84.6139 28.085V89.6388C84.6139 90.294 84.1341 91.1239 83.5661 91.4506L25.7478 124.857C25.6734 124.899 25.6047 124.921 25.5442 124.921C25.3208 124.921 25.1245 124.571 25.1245 124.172V62.9245C25.1245 62.269 25.604 61.4382 26.1717 61.1104L83.9915 27.7257C84.1567 27.6306 84.2731 27.6105 84.3419 27.6105ZM84.3419 27.1854C84.1726 27.1854 83.9814 27.2408 83.7793 27.3576L25.9594 60.7423C25.2635 61.1442 24.6997 62.121 24.6997 62.9245V124.172C24.6997 124.807 25.0526 125.346 25.5445 125.346C25.675 125.346 25.815 125.308 25.9607 125.224L83.7783 91.8188C84.4749 91.4182 85.0394 90.442 85.0394 89.6385V28.085C85.039 27.5151 84.7555 27.1854 84.3419 27.1854Z" fill="#9DD4B2" stroke="black" stroke-width="0.289971"></path><path d="M85.0379 28.0605V29.782L24.7005 64.6151L23.0879 63.6844V62.0088C23.0879 61.6028 23.2374 61.1509 23.471 60.7487C23.6969 60.358 24.011 60.0255 24.3479 59.8304L82.17 26.4463C82.5302 26.2395 82.851 26.2338 83.0883 26.3716C83.3181 26.5132 84.4213 27.1413 84.6472 27.2562C84.6815 27.2752 84.7162 27.2943 84.743 27.3214C84.7773 27.3481 84.812 27.3825 84.8425 27.421C84.8731 27.4592 84.9001 27.5015 84.923 27.5473C84.9498 27.5931 84.9692 27.6431 84.9845 27.7004C85.0036 27.7541 85.015 27.8114 85.0227 27.8728C85.0227 27.8728 85.0227 27.8766 85.0227 27.8804C85.0303 27.938 85.0379 27.9956 85.0379 28.0605Z" fill="#35B777" stroke="black" stroke-width="0.289971"></path><path d="M85.0396 28.0601V29.7815L24.7021 64.6146V62.9238C24.7021 62.6711 24.7556 62.4067 24.8552 62.1423C24.8705 62.1003 24.8857 62.0541 24.9052 62.0121C24.9551 61.8973 25.0124 61.7824 25.0776 61.6713C25.3074 61.2768 25.6176 60.936 25.9622 60.7406L83.7795 27.3591C84.1664 27.1332 84.5111 27.137 84.7446 27.3209C84.779 27.3476 84.8137 27.382 84.8442 27.4205C84.8747 27.4587 84.9018 27.501 84.9247 27.5468C84.9514 27.5926 84.9708 27.6426 84.9861 27.6999C85.0052 27.7536 85.0167 27.8109 85.0243 27.8723C85.0243 27.8723 85.0243 27.8762 85.0243 27.88C85.0319 27.9376 85.0396 27.9952 85.0396 28.0601Z" fill="#9DD4B2" stroke="black" stroke-width="0.289971"></path><path d="M80.7269 30.1172C80.4998 30.2481 80.3159 30.6377 80.3159 30.9873C80.3159 31.3369 80.4998 31.5138 80.7269 31.3829C80.9539 31.252 81.1378 30.8625 81.1378 30.5128C81.1378 30.1635 80.9539 29.9863 80.7269 30.1172Z" fill="#FAFAFA" stroke="black" stroke-width="0.289971"></path><path d="M82.2005 29.2641C81.9735 29.395 81.7896 29.7846 81.7896 30.1342C81.7896 30.4835 81.9735 30.6607 82.2005 30.5298C82.4275 30.3989 82.6114 30.0093 82.6114 29.6597C82.6114 29.3101 82.4275 29.1332 82.2005 29.2641Z" fill="#FAFAFA" stroke="black" stroke-width="0.289971"></path><path d="M83.6766 28.4117C83.4495 28.5426 83.2656 28.9322 83.2656 29.2818C83.2656 29.6311 83.4495 29.8083 83.6766 29.6774C83.9036 29.5465 84.0875 29.1569 84.0875 28.8073C84.0875 28.4577 83.9036 28.2805 83.6766 28.4117Z" fill="#FAFAFA" stroke="black" stroke-width="0.289971"></path><path d="M83.7787 27.3572L25.9605 60.7422C25.6158 60.9443 25.2989 61.2851 25.073 61.6774L23.4722 60.7502C23.6981 60.3617 24.0074 60.0244 24.3478 59.8303L82.1699 26.4462C82.5304 26.2362 82.8512 26.2321 83.0851 26.3708C83.311 26.5095 84.3569 27.1039 84.6226 27.2465C84.4008 27.1392 84.1036 27.171 83.7787 27.3572Z" fill="#35B777" stroke="black" stroke-width="0.289971"></path><g opacity="0.95"><path d="M33.9123 96.4278C32.375 97.3253 31.1586 96.5838 31.0933 94.8461L30.7433 85.4092C30.6761 83.6729 31.731 81.3177 33.2668 80.4234L54.5784 67.8488L76.8898 55.3016C77.6282 54.8735 78.348 54.7946 78.8915 55.0822C79.4349 55.3697 79.7575 56.0002 79.7885 56.8354L80.1396 66.2725C80.1708 67.1076 79.9079 68.0792 79.4086 68.9742C78.9093 69.8693 78.2143 70.6147 77.4761 71.047L33.9123 96.4278Z" stroke="black" stroke-width="0.289971"></path><path d="M34.4242 96.7639C32.8869 97.6615 31.6705 96.9199 31.6052 95.1822L31.2552 85.7454C31.188 84.0091 32.302 81.9127 33.8378 81.0184L77.4017 55.6377C78.1401 55.2097 78.8599 55.1308 79.4034 55.4183C79.9468 55.7058 80.2694 56.3364 80.3004 57.1715L80.6515 66.6087C80.6827 67.4437 80.4198 68.4153 79.9205 69.3104C79.4212 70.2054 78.7262 70.9508 77.988 71.3832L34.4242 96.7639Z" stroke="black" stroke-width="0.289971"></path><path d="M37.1741 89.0225L38.1374 88.3138C38.152 88.5928 38.2459 88.8165 38.4054 88.9518C38.4692 89.0048 38.5499 89.0301 38.641 89.0257C38.732 89.0212 38.8308 88.9871 38.9293 88.9262C39.0279 88.8653 39.1233 88.7793 39.2078 88.6752C39.2923 88.5711 39.3635 88.4518 39.4157 88.3272C39.5621 87.9786 39.6284 87.6252 39.6046 87.3203C39.612 87.0178 39.5325 86.7674 39.3789 86.609C39.3214 86.5487 39.2458 86.5154 39.1585 86.5119C39.0712 86.5084 38.9746 86.5348 38.8771 86.5889C38.7212 86.6837 38.568 86.8061 38.4233 86.9513L38.502 85.7626C38.6132 85.7095 38.7243 85.6304 38.8287 85.5299C38.9331 85.4295 39.0286 85.3099 39.1094 85.1784C39.1839 85.0428 39.2405 84.9001 39.2756 84.7592C39.3107 84.6183 39.3236 84.4822 39.3135 84.3595C39.3188 84.1433 39.2563 83.9684 39.1377 83.8679C39.0854 83.8288 39.0209 83.8104 38.9488 83.8142C38.8767 83.818 38.7988 83.8438 38.7207 83.8897C38.6364 83.938 38.5539 84.0074 38.4794 84.0925C38.4048 84.1777 38.3401 84.2765 38.2902 84.3816C38.157 84.6682 38.0864 84.9646 38.0883 85.2282L37.1615 85.5347C37.2398 84.8207 37.4136 84.2357 37.6828 83.7797C37.9592 83.3168 38.3326 82.941 38.7214 82.7347C38.9354 82.6031 39.15 82.5289 39.3482 82.5177C39.5464 82.5066 39.7228 82.5589 39.8636 82.6706C40.1423 82.8712 40.3027 83.2391 40.3154 83.7069C40.327 84.002 40.2694 84.3322 40.1486 84.6641C40.0169 85.0124 39.8292 85.3501 39.6013 85.6486C39.8959 85.5718 40.1545 85.6363 40.328 85.8298C40.5286 86.0575 40.6348 86.3989 40.632 86.8075C40.6664 87.3979 40.496 88.0895 40.1564 88.7384C40.0099 89.0282 39.8251 89.299 39.615 89.5319C39.4049 89.7648 39.1745 89.9542 38.9398 90.0869C38.7244 90.2138 38.5091 90.2893 38.3074 90.3087C38.1057 90.3281 37.9219 90.2911 37.7674 90.1998C37.4228 89.9823 37.2126 89.5652 37.1741 89.0225Z" stroke="black" stroke-width="0.289971"></path><path d="M41.3296 81.2773L43.2461 80.1889C43.6179 79.9568 43.9918 79.8084 44.3464 79.7522C44.6178 79.7423 44.857 79.8232 45.0435 79.9882C45.2795 80.198 45.4555 80.4903 45.5615 80.8483C45.7043 81.3431 45.7787 81.8943 45.7826 82.4865C45.8054 83.0314 45.7571 83.6152 45.6392 84.2191C45.5538 84.669 45.4033 85.1316 45.1956 85.5828C45.0185 85.95 44.7873 86.2931 44.5214 86.5833C44.1949 86.9199 43.8428 87.1906 43.4873 87.3782L41.5112 88.4952L41.3296 81.2773ZM42.4083 81.9036L42.5299 86.6799L43.3173 86.2331C43.5658 86.1069 43.8133 85.9291 44.0476 85.7083C44.1939 85.5558 44.3198 85.3696 44.4117 85.1696C44.526 84.8916 44.6015 84.6101 44.6337 84.3417C44.7408 83.4388 44.7182 82.59 44.5669 81.8342C44.5128 81.594 44.4029 81.4029 44.2465 81.2774C44.1113 81.179 43.9333 81.1563 43.7374 81.2124C43.4544 81.3176 43.168 81.4587 42.8829 81.6333L42.4083 81.9036Z" stroke="black" stroke-width="0.289971"></path><path d="M48.7867 84.3684L48.6009 77.1489L50.2889 76.1902C50.9187 75.8325 51.3308 75.6333 51.5251 75.5927C51.851 75.5331 52.1293 75.6327 52.3073 75.8726C52.5336 76.1783 52.6507 76.6074 52.645 77.1104C52.6691 77.5575 52.5906 78.0589 52.4172 78.5667C52.2814 78.9689 52.0601 79.36 51.7839 79.6856C51.5267 79.9781 51.0798 80.3032 50.4434 80.6611L49.7593 81.0526L49.8319 83.7698L48.7867 84.3684ZM49.6829 77.7688L49.7361 79.8217L50.3175 79.4915C50.5857 79.3571 50.8534 79.1731 51.1104 78.9467C51.2536 78.7981 51.372 78.6099 51.4469 78.4116C51.5306 78.1762 51.5713 77.9426 51.565 77.7323C51.5587 77.522 51.5057 77.342 51.411 77.2089C51.3295 77.1012 51.2058 77.0529 51.0602 77.0718C50.7753 77.1598 50.4842 77.2962 50.1949 77.4772L49.6829 77.7688Z" stroke="black" stroke-width="0.289971"></path><path d="M53.6374 81.6141L53.4516 74.3946L55.6661 73.1399C56.2342 72.8178 56.6403 72.653 56.8845 72.6456C57.145 72.6469 57.3597 72.7648 57.4976 72.9822C57.6698 73.2439 57.7606 73.5941 57.7614 73.9993C57.7949 74.4751 57.6814 75.0279 57.4396 75.5662C57.1946 76.0652 56.8381 76.5033 56.4415 76.793C56.657 76.8411 56.8502 76.9374 57.0146 77.0788C57.2517 77.3225 57.463 77.6013 57.6463 77.9124L58.3154 78.9611L57.065 79.667L56.2643 78.527C56.0882 78.2537 55.8929 78.0034 55.6794 77.7775C55.5951 77.6972 55.4846 77.6577 55.3582 77.6625C55.1869 77.6933 55.007 77.7673 54.8285 77.8805L54.6154 77.9964L54.6932 81.0116L53.6374 81.6141ZM54.5785 76.8529L55.3575 76.4108C55.6613 76.2551 55.9646 76.0578 56.2612 75.8231C56.392 75.6986 56.5015 75.5331 56.5698 75.3568C56.6533 75.132 56.69 74.9083 56.6756 74.7123C56.6794 74.5131 56.6327 74.3439 56.5414 74.2259C56.4604 74.1379 56.3435 74.1041 56.2094 74.1302C55.9262 74.2391 55.6399 74.3834 55.3552 74.5607L54.5299 75.0343L54.5785 76.8529Z" stroke="black" stroke-width="0.289971"></path><path d="M58.8484 78.6558L58.6626 71.4363L59.7102 70.8405L59.8952 78.0616L58.8484 78.6558Z" stroke="black" stroke-width="0.289971"></path><path d="M60.9133 77.4848L60.7273 70.2633L61.749 69.6851L64.002 73.298L63.8779 68.4747L64.8563 67.9195L65.0382 75.1395L63.983 75.7384L61.767 72.2194L61.8891 76.9325L60.9133 77.4848Z" stroke="black" stroke-width="0.289971"></path><path d="M67.3175 73.8476L67.1637 67.8488L65.6189 68.7261L65.5877 67.5039L69.7194 65.1571L69.7506 66.3794L68.2136 67.2557L68.3662 73.2522L67.3175 73.8476Z" stroke="black" stroke-width="0.289971"></path><path d="M70.1561 68.6182C70.1334 67.7591 70.2279 66.9875 70.4396 66.3033C70.6093 65.6989 70.9023 65.095 71.2842 64.5622C71.6695 64.0567 72.1243 63.6553 72.5889 63.4105C72.9358 63.2046 73.2822 63.0918 73.6009 63.0811C73.9195 63.0705 74.2018 63.1621 74.4257 63.3489C74.9102 63.7299 75.1682 64.5175 75.1998 65.7117C75.2313 66.9058 75.0084 67.9891 74.531 68.9613C74.1117 69.8109 73.5277 70.4471 72.7791 70.8699C72.0304 71.2927 71.4282 71.3335 70.9724 70.9923C70.4587 70.5944 70.1866 69.803 70.1561 68.6182ZM71.2367 67.9554C71.2574 68.7855 71.4121 69.3298 71.701 69.5883C71.8199 69.7145 71.9772 69.784 72.1592 69.7905C72.3413 69.7971 72.5425 69.7405 72.7454 69.6258C72.9484 69.5111 73.1469 69.3416 73.3238 69.1322C73.5007 68.9228 73.6506 68.6797 73.7604 68.4241C74.02 67.8583 74.1394 67.1481 74.1186 66.2936C74.0978 65.439 73.9497 64.8952 73.6745 64.6622C73.5532 64.539 73.3937 64.4735 73.21 64.4714C73.0263 64.4694 72.8242 64.5309 72.6212 64.6504C72.4168 64.7628 72.2162 64.9307 72.0368 65.1395C71.8574 65.3483 71.7046 65.5918 71.5917 65.8487C71.3338 66.4061 71.2116 67.1063 71.2367 67.9554Z" stroke="black" stroke-width="0.289971"></path></g><path d="M24.7021 64.615V67.7081L84.6154 33.12V30.0269L24.7021 64.615Z" fill="#9DD4B2" stroke="black" stroke-width="0.289971"></path><path d="M27.3789 63.0675L27.3792 124.403L25.9604 125.224C25.8153 125.309 25.6737 125.346 25.5451 125.346C25.0506 125.346 24.6978 124.808 24.6978 124.172V64.7724L24.7009 64.6143L25.1229 64.3702L27.3789 63.0675Z" fill="#9DD4B2" stroke="black" stroke-width="0.289971"></path><g opacity="0.2"><path d="M43.6163 56.6958V53.6904L43.2866 53.8807V56.6958C43.2866 56.7868 43.3604 56.8606 43.4514 56.8606C43.4683 56.8606 43.4836 56.8558 43.4992 56.8511L43.5695 56.8103C43.5981 56.7807 43.6163 56.7403 43.6163 56.6958Z" fill="white" stroke="black" stroke-width="0.289971"></path><path d="M48.9761 53.6021V50.5955L48.6465 50.7857V53.6018C48.6465 53.6928 48.7203 53.7666 48.8113 53.7666C48.8272 53.7666 48.8419 53.7618 48.8565 53.7574L48.9303 53.7147C48.9583 53.6858 48.9761 53.646 48.9761 53.6021Z" fill="white" stroke="black" stroke-width="0.289971"></path><path d="M46.2955 55.1491L46.2971 53.6026C46.2971 53.5116 46.2232 53.4375 46.1326 53.4375C46.0416 53.4375 45.9674 53.5113 45.9674 53.602L45.9658 55.1484C45.9658 55.2394 46.0396 55.3136 46.1303 55.3136C46.1475 55.3136 46.1634 55.3088 46.179 55.3037L46.2481 55.2639C46.2773 55.2343 46.2955 55.1939 46.2955 55.1491Z" fill="white" stroke="black" stroke-width="0.289971"></path><path d="M27.543 65.9749V62.9728L27.2134 63.1631V65.9746C27.2134 66.0656 27.2872 66.1395 27.3782 66.1395C27.3983 66.1395 27.417 66.1347 27.4348 66.128L27.4718 66.1067C27.5138 66.0774 27.543 66.0306 27.543 65.9749Z" fill="white" stroke="black" stroke-width="0.289971"></path><path d="M57.0113 48.9629L57.0129 47.4165C57.0129 47.3255 56.9391 47.2513 56.8484 47.2513C56.7574 47.2513 56.6832 47.3252 56.6832 47.4158L56.6816 48.9623C56.6816 49.0533 56.7555 49.1274 56.8461 49.1274C56.8465 49.1274 56.8465 49.1274 56.8465 49.1274C56.8617 49.1274 56.8754 49.1226 56.8891 49.1188L56.9664 49.0743C56.9938 49.0447 57.0113 49.0062 57.0113 48.9629Z" fill="white" stroke="black" stroke-width="0.289971"></path><path d="M51.6539 52.0559L51.6555 50.5095C51.6555 50.4185 51.5816 50.3444 51.491 50.3444C51.4906 50.3444 51.4906 50.3444 51.4906 50.3444C51.3996 50.3444 51.3258 50.4182 51.3258 50.5089L51.3242 52.0553C51.3242 52.1463 51.398 52.2204 51.4887 52.2204C51.5046 52.2204 51.5196 52.2157 51.5342 52.2112L51.608 52.1686C51.636 52.1393 51.6539 52.0998 51.6539 52.0559Z" fill="white" stroke="black" stroke-width="0.289971"></path><path d="M54.3345 50.5087V47.5011L54.0049 47.6914V50.5087C54.0049 50.5997 54.0787 50.6735 54.1697 50.6735C54.1847 50.6735 54.198 50.6687 54.2117 50.6652L54.29 50.6197C54.317 50.5905 54.3345 50.552 54.3345 50.5087Z" fill="white" stroke="black" stroke-width="0.289971"></path><path d="M32.9014 62.8825V59.879L32.5718 60.0693V62.8822C32.5718 62.9732 32.6456 63.047 32.7366 63.047C32.7554 63.047 32.7729 63.0422 32.7897 63.0362L32.8429 63.0053C32.8782 62.9757 32.9014 62.9324 32.9014 62.8825Z" fill="white" stroke="black" stroke-width="0.289971"></path><path d="M30.2222 64.4286L30.2238 62.8822C30.2238 62.7912 30.15 62.717 30.0593 62.717C29.9683 62.717 29.8942 62.7909 29.8942 62.8815L29.8926 64.428C29.8926 64.519 29.9664 64.5931 30.0571 64.5931C30.0771 64.5931 30.0962 64.5883 30.114 64.5817L30.151 64.5603C30.193 64.5308 30.2222 64.484 30.2222 64.4286Z" fill="white" stroke="black" stroke-width="0.289971"></path><path d="M40.938 58.2427L40.9396 56.6963C40.9396 56.6053 40.8658 56.5311 40.7751 56.5311H40.7748C40.6838 56.5311 40.61 56.6049 40.61 56.6956L40.6084 58.2421C40.6084 58.3331 40.6822 58.4072 40.7729 58.4072H40.7732C40.7914 58.4072 40.8079 58.4024 40.8241 58.397L40.8894 58.3595C40.9196 58.3296 40.938 58.2882 40.938 58.2427Z" fill="white" stroke="black" stroke-width="0.289971"></path><path d="M59.6934 47.416V44.4075L59.3638 44.5977V47.416C59.3638 47.507 59.4376 47.5808 59.5286 47.5808C59.5426 47.5808 59.555 47.5761 59.5681 47.5729L59.6498 47.5255C59.6762 47.4962 59.6934 47.4583 59.6934 47.416Z" fill="white" stroke="black" stroke-width="0.289971"></path><path d="M38.2593 59.7885V56.7841L37.9297 56.9743V59.7881C37.9297 59.8791 38.0035 59.953 38.0945 59.953C38.1127 59.953 38.1292 59.9482 38.1454 59.9428L38.2107 59.9052C38.2406 59.8756 38.2593 59.8343 38.2593 59.7885Z" fill="white" stroke="black" stroke-width="0.289971"></path><path d="M35.5806 61.335L35.5822 59.7886C35.5822 59.6976 35.5084 59.6234 35.4177 59.6234C35.3267 59.6234 35.2526 59.6972 35.2526 59.7879L35.251 61.3343C35.251 61.4254 35.3248 61.4995 35.4155 61.4995C35.4349 61.4995 35.453 61.4947 35.4702 61.4884L35.5192 61.46C35.5558 61.4301 35.5806 61.3859 35.5806 61.335Z" fill="white" stroke="black" stroke-width="0.289971"></path><path d="M62.3697 45.8692L62.3713 44.3227C62.3713 44.2317 62.2975 44.1576 62.2068 44.1576C62.1158 44.1576 62.0416 44.2314 62.0416 44.3221L62.04 45.8685C62.04 45.9595 62.1139 46.0337 62.2045 46.0337C62.2185 46.0337 62.2313 46.0289 62.2443 46.0257L62.3261 45.9783C62.3525 45.9493 62.3697 45.9115 62.3697 45.8692Z" fill="white" stroke="black" stroke-width="0.289971"></path><path d="M67.7286 42.7757L67.7302 41.2292C67.7302 41.1382 67.6563 41.0641 67.5657 41.0641C67.5653 41.0641 67.5653 41.0641 67.5653 41.0641C67.4743 41.0641 67.4005 41.1379 67.4005 41.2286L67.3989 42.775C67.3989 42.866 67.4727 42.9402 67.5634 42.9402C67.5765 42.9402 67.5886 42.9357 67.6007 42.9328L67.6859 42.8835C67.7117 42.8546 67.7286 42.8177 67.7286 42.7757Z" fill="white" stroke="black" stroke-width="0.289971"></path><path d="M65.0518 44.323V41.3132L64.7222 41.5035V44.323C64.7222 44.414 64.796 44.4879 64.887 44.4879C64.8997 44.4879 64.9112 44.4834 64.923 44.4805L65.0095 44.4306C65.0353 44.4016 65.0518 44.3647 65.0518 44.323Z" fill="white" stroke="black" stroke-width="0.289971"></path><path d="M70.4097 41.2294V38.2228L70.0801 38.4131V41.2291C70.0801 41.3201 70.1539 41.3939 70.2449 41.3939C70.2608 41.3939 70.2754 41.3891 70.2901 41.3847L70.3639 41.342C70.3919 41.3131 70.4097 41.2736 70.4097 41.2294Z" fill="white" stroke="black" stroke-width="0.289971"></path><path d="M78.4464 36.5896L78.4479 35.0432C78.4479 34.9522 78.3741 34.8781 78.2834 34.8781H78.2831C78.1921 34.8781 78.1183 34.9519 78.1183 35.0426L78.1167 36.589C78.1167 36.68 78.1905 36.7541 78.2812 36.7541H78.2815C78.2968 36.7541 78.3105 36.7494 78.3242 36.7455L78.4015 36.701C78.4289 36.6717 78.4464 36.6329 78.4464 36.5896Z" fill="white" stroke="black" stroke-width="0.289971"></path><path d="M73.0875 39.6826L73.0891 38.1362C73.0891 38.0452 73.0152 37.9711 72.9245 37.9711C72.8335 37.9711 72.7594 38.0449 72.7594 38.1356L72.7578 39.682C72.7578 39.773 72.8316 39.8471 72.9223 39.8471C72.9382 39.8471 72.9532 39.8424 72.9678 39.8379L73.0416 39.7953C73.0696 39.766 73.0875 39.7266 73.0875 39.6826Z" fill="white" stroke="black" stroke-width="0.289971"></path><path d="M75.7667 38.136V35.1284L75.437 35.3187V38.136C75.437 38.227 75.5108 38.3008 75.6018 38.3008C75.6168 38.3008 75.6302 38.296 75.6438 38.2922L75.7221 38.247C75.7492 38.2175 75.7667 38.179 75.7667 38.136Z" fill="white" stroke="black" stroke-width="0.289971"></path><path d="M81.1251 35.0427V32.0342L80.7954 32.2245V35.0427C80.7954 35.1337 80.8692 35.2075 80.9602 35.2075C80.9742 35.2075 80.9866 35.2028 80.9997 35.1996L81.0815 35.1522C81.1079 35.1229 81.1251 35.085 81.1251 35.0427Z" fill="white" stroke="black" stroke-width="0.289971"></path><path d="M83.8062 33.4966L83.8078 31.9502C83.8078 31.8592 83.734 31.785 83.6433 31.785C83.643 31.785 83.643 31.785 83.643 31.785C83.552 31.785 83.4781 31.8589 83.4781 31.9495L83.4766 33.496C83.4766 33.587 83.5504 33.6611 83.6411 33.6611C83.6551 33.6611 83.6678 33.6563 83.6808 33.6532L83.7626 33.6057C83.789 33.5768 83.8062 33.5392 83.8062 33.4966Z" fill="white" stroke="black" stroke-width="0.289971"></path></g><g opacity="0.2"><path d="M24.7838 80.2647L27.3794 78.7453V78.3931C27.3507 78.3928 27.3218 78.3972 27.295 78.4125L24.6982 79.9328V80.287C24.6989 80.287 24.6998 80.2876 24.7005 80.2876C24.7291 80.2873 24.7577 80.28 24.7838 80.2647Z" fill="white" stroke="black" stroke-width="0.289971"></path><path d="M25.9582 82.3023C25.879 82.348 25.8519 82.4489 25.8979 82.5281C25.9285 82.5811 25.9841 82.6108 26.0409 82.6108C26.069 82.6108 26.0978 82.6037 26.1236 82.5884L27.3849 81.8591V81.506C27.3561 81.5057 27.3274 81.5101 27.3012 81.5255L25.9582 82.3023Z" fill="white" stroke="black" stroke-width="0.289971"></path><path d="M25.9582 88.5095C25.879 88.5551 25.8519 88.656 25.8979 88.7352C25.9285 88.7882 25.9841 88.8179 26.0409 88.8179C26.069 88.8179 26.0978 88.8109 26.1236 88.7956L27.3849 88.0663V87.7132C27.3561 87.7128 27.3274 87.7173 27.3012 87.733L25.9582 88.5095Z" fill="white" stroke="black" stroke-width="0.289971"></path><path d="M24.7838 86.4728L27.3794 84.9531V84.6008C27.3507 84.6005 27.3218 84.605 27.295 84.6202L24.6982 86.1406V86.4947C24.6989 86.4947 24.6998 86.4954 24.7005 86.4954C24.7291 86.4954 24.7577 86.4877 24.7838 86.4728Z" fill="white" stroke="black" stroke-width="0.289971"></path><path d="M25.9582 76.0951C25.879 76.1407 25.8519 76.2419 25.8979 76.3208C25.9285 76.3738 25.9841 76.4035 26.0409 76.4035C26.069 76.4035 26.0978 76.3965 26.1236 76.3811L27.3849 75.6519V75.2987C27.3561 75.2984 27.3274 75.3029 27.3012 75.3185L25.9582 76.0951Z" fill="white" stroke="black" stroke-width="0.289971"></path><path d="M24.6982 67.8716C24.6989 67.8716 24.6998 67.8723 24.7005 67.8723C24.7288 67.8723 24.7574 67.8649 24.7838 67.8497L27.3794 66.3303V65.978C27.3507 65.9777 27.3218 65.9822 27.295 65.9975L24.6982 67.5178V67.8716Z" fill="white" stroke="black" stroke-width="0.289971"></path><path d="M27.3811 121.845C27.3522 121.844 27.3232 121.849 27.2965 121.864L24.6997 123.384V123.739C24.7003 123.739 24.7013 123.739 24.7019 123.739C24.7303 123.739 24.7589 123.732 24.7853 123.717L27.3811 122.197V121.845Z" fill="white" stroke="black" stroke-width="0.289971"></path><path d="M24.7838 74.0579L27.3794 72.5385V72.1859C27.3507 72.1856 27.3218 72.1901 27.295 72.2053L24.6982 73.7257V74.0798C24.6989 74.0798 24.6998 74.0805 24.7005 74.0805C24.7291 74.0805 24.7577 74.0731 24.7838 74.0579Z" fill="white" stroke="black" stroke-width="0.289971"></path><path d="M26.1239 70.1737L27.3849 69.4444V69.091C27.3561 69.0906 27.3274 69.0951 27.3012 69.1108L25.9582 69.8876C25.879 69.9333 25.8519 70.0345 25.8979 70.1134C25.9285 70.1664 25.9841 70.1961 26.0409 70.1961C26.0693 70.1961 26.0981 70.189 26.1239 70.1737Z" fill="white" stroke="black" stroke-width="0.289971"></path><path d="M24.7838 92.6795L27.3794 91.1601V90.8075C27.3507 90.8072 27.3218 90.8117 27.295 90.8272L24.6982 92.3473V92.7014C24.6989 92.7014 24.6998 92.702 24.7005 92.702C24.7291 92.702 24.7577 92.6944 24.7838 92.6795Z" fill="white" stroke="black" stroke-width="0.289971"></path><path d="M24.7838 117.509L27.3797 115.99V115.637C27.3507 115.637 27.3218 115.642 27.295 115.657L24.6982 117.177V117.531C24.6989 117.531 24.6998 117.532 24.7005 117.532C24.7291 117.532 24.7577 117.524 24.7838 117.509Z" fill="white" stroke="black" stroke-width="0.289971"></path><path d="M25.9582 113.339C25.879 113.385 25.8519 113.486 25.8979 113.565C25.9285 113.618 25.9841 113.648 26.0409 113.648C26.069 113.648 26.0978 113.641 26.1236 113.626L27.3849 112.896V112.543C27.3561 112.543 27.3274 112.547 27.3009 112.563L25.9582 113.339Z" fill="white" stroke="black" stroke-width="0.289971"></path><path d="M24.7838 111.302L27.3797 109.782V109.43C27.3507 109.43 27.3218 109.434 27.295 109.45L24.6982 110.97V111.324C24.6989 111.324 24.6998 111.324 24.7005 111.324C24.7291 111.324 24.7577 111.317 24.7838 111.302Z" fill="white" stroke="black" stroke-width="0.289971"></path><path d="M26.0412 119.855C26.0693 119.855 26.0981 119.848 26.1239 119.833L27.3852 119.104V118.75C27.3564 118.75 27.3277 118.754 27.3012 118.77L25.9582 119.546C25.879 119.592 25.8519 119.693 25.8979 119.772C25.9288 119.825 25.9844 119.855 26.0412 119.855Z" fill="white" stroke="black" stroke-width="0.289971"></path><path d="M24.7838 98.8868L27.3797 97.3674V97.0152C27.351 97.0148 27.3221 97.0193 27.295 97.0349L24.6982 98.5549V98.909C24.6989 98.909 24.6998 98.9097 24.7005 98.9097C24.7291 98.9094 24.7577 98.9017 24.7838 98.8868Z" fill="white" stroke="black" stroke-width="0.289971"></path><path d="M25.9582 94.7174C25.879 94.763 25.8519 94.8642 25.8979 94.9431C25.9285 94.9961 25.9841 95.0258 26.0409 95.0258C26.069 95.0258 26.0978 95.0188 26.1236 95.0035L27.3849 94.2742V93.921C27.3561 93.9207 27.3274 93.9252 27.3012 93.9408L25.9582 94.7174Z" fill="white" stroke="black" stroke-width="0.289971"></path><path d="M25.9582 100.925C25.879 100.97 25.8519 101.071 25.8979 101.15C25.9285 101.203 25.9841 101.233 26.0409 101.233C26.069 101.233 26.0978 101.226 26.1236 101.211L27.3849 100.481V100.128C27.3561 100.128 27.3274 100.132 27.3012 100.148L25.9582 100.925Z" fill="white" stroke="black" stroke-width="0.289971"></path><path d="M25.9582 107.132C25.879 107.177 25.8519 107.278 25.8979 107.357C25.9285 107.41 25.9841 107.44 26.0409 107.44C26.069 107.44 26.0978 107.433 26.1236 107.418L27.3849 106.688V106.335C27.3561 106.335 27.3271 106.339 27.3009 106.355L25.9582 107.132Z" fill="white" stroke="black" stroke-width="0.289971"></path><path d="M24.7838 105.094L27.3797 103.575V103.222C27.3507 103.222 27.3218 103.227 27.295 103.242L24.6982 104.762V105.116C24.6989 105.116 24.6998 105.117 24.7005 105.117C24.7291 105.117 24.7577 105.11 24.7838 105.094Z" fill="white" stroke="black" stroke-width="0.289971"></path></g><path opacity="0.1" d="M42.3418 94.4502L42.3692 81.9744C42.3698 81.7163 42.4926 81.6539 42.6434 81.8347L47.7963 88.008C47.9471 88.1887 47.8335 88.4417 47.543 88.5731L46.0981 89.226C45.8073 89.3574 45.6246 89.6534 45.6902 89.8869L46.6645 93.3648C46.73 93.5984 46.6136 93.9824 46.4045 94.2226L45.6908 95.0426C45.4818 95.2829 45.259 95.2883 45.1938 95.0547L44.2195 91.5769C44.1539 91.3433 43.9996 91.3713 43.8739 91.6392L42.568 94.4317C42.4423 94.6999 42.3412 94.7079 42.3418 94.4502Z" fill="black" stroke="black" stroke-width="0.289971"></path><path d="M50.1435 89.3597L44.9906 83.1864C44.9578 83.1473 44.9267 83.1196 44.8977 83.1027C44.7924 83.0419 43.6905 82.4059 43.6615 82.389C43.5559 82.3273 43.4802 82.4094 43.4795 82.6121L43.4522 95.0879C43.4518 95.1935 43.4687 95.2543 43.4973 95.2711C43.5384 95.2953 44.7058 95.9693 44.7348 95.9855C44.7758 96.0087 44.8414 95.9413 44.9149 95.7834L45.7995 93.8921L46.3038 95.6924C46.3235 95.7634 46.3582 95.8124 46.4021 95.8394C46.503 95.9012 47.5966 96.5293 47.6428 96.5557C47.744 96.6139 47.8938 96.5598 48.0377 96.3944L48.7514 95.5744C48.9604 95.3341 49.0769 94.9501 49.0113 94.7165L48.037 91.2386C47.9715 91.0051 48.1541 90.7092 48.445 90.5777L49.8899 89.9248C50.181 89.7934 50.2943 89.5404 50.1435 89.3597Z" fill="#35B777" stroke="black" stroke-width="0.289971"></path><path d="M44.6895 95.8024L44.7168 83.3267C44.7175 83.0686 44.8403 83.0062 44.9911 83.187L50.144 89.3603C50.2948 89.541 50.1815 89.794 49.8907 89.9254L48.4457 90.5783C48.1549 90.7097 47.9723 91.0057 48.0378 91.2392L49.0121 94.7171C49.0777 94.9506 48.9612 95.3347 48.7522 95.5749L48.0385 96.3949C47.8294 96.6352 47.6067 96.6406 47.5414 96.407L46.5671 92.9291C46.5016 92.6956 46.3473 92.7236 46.2219 92.9915L44.916 95.784C44.79 96.0522 44.6888 96.0602 44.6895 95.8024Z" fill="#FAFAFA" stroke="black" stroke-width="0.289971"></path><path d="M45.0341 83.7346L49.884 89.5448C49.8684 89.5661 49.8315 89.6024 49.7596 89.6348L48.3146 90.2878C47.8797 90.4844 47.6235 90.9394 47.7314 91.3245L48.7057 94.8023C48.7344 94.9048 48.672 95.1816 48.5119 95.3652L47.8068 96.1753L46.8732 92.8426C46.7717 92.4798 46.5108 92.4518 46.4332 92.4518C46.2912 92.4518 46.0895 92.5218 45.933 92.8559L45.0096 94.8303L45.0341 83.7346ZM44.8342 83.0829C44.7636 83.0829 44.7171 83.1675 44.7168 83.326L44.6895 95.8018C44.6891 95.9275 44.713 95.9898 44.7521 95.9898C44.7932 95.9898 44.8511 95.9208 44.9154 95.7833L46.2212 92.9908C46.2897 92.8448 46.3667 92.77 46.4332 92.77C46.4885 92.77 46.5369 92.8222 46.5668 92.9285L47.5411 96.4064C47.5733 96.5209 47.6433 96.5779 47.7308 96.5779C47.8218 96.5779 47.9319 96.5164 48.0381 96.3939L48.7519 95.574C48.9609 95.3337 49.0774 94.9496 49.0118 94.7161L48.0375 91.2382C47.972 91.0047 48.1546 90.7088 48.4454 90.5773L49.8904 89.9244C50.1812 89.793 50.2945 89.54 50.1436 89.3593L44.9908 83.186C44.9326 83.1163 44.8785 83.0829 44.8342 83.0829Z" fill="#35B777"></path><path d="M47.6226 96.5429C47.4651 96.4528 46.4981 95.8969 46.4023 95.8396C46.3594 95.8129 46.3247 95.7639 46.3043 95.6923L45.8013 93.8932L46.2222 92.9918C46.347 92.7239 46.5023 92.6952 46.5678 92.9285L47.5408 96.4057C47.5593 96.4694 47.5857 96.5142 47.6226 96.5429Z" fill="#35B777" stroke="black" stroke-width="0.289971"></path><path d="M49.731 95.4762L51.8851 94.2324V96.7201L49.731 97.9639V95.4762Z" fill="#065F33" stroke="black" stroke-width="0.289971"></path></svg>