<svg xmlns="http://www.w3.org/2000/svg" width="64" height="91" viewBox="0 0 64 91" fill="none"><path d="M10.349 87.9456C7.82382 86.52 5.29865 85.0945 2.77348 83.6366C1.38141 82.8267 1.15479 81.4659 1.15479 80.008C1.12242 72.0705 1.09003 64.133 1.05765 56.2279C1.02528 49.4243 0.99292 42.6207 0.99292 35.8495C0.99292 31.5729 2.83822 28.3007 6.56121 26.1301C20.3525 18.1601 34.1438 10.1902 47.9027 2.18788C49.7156 1.11875 51.3343 0.956758 53.1472 2.18788C55.1868 3.5486 57.3882 4.74733 59.5249 5.97846C59.2982 6.17285 59.104 6.39963 58.8774 6.59402C58.2299 6.52923 57.7443 6.85321 57.2263 7.14479C52.3379 9.96342 47.417 12.7497 42.5286 15.6331C39.8415 17.2206 27.7661 24.1538 27.3129 24.413C23.428 26.6808 19.4784 28.8839 15.5935 31.1842C12.1295 33.2252 10.0252 36.1735 9.99283 40.3204C9.99283 53.9924 9.99283 67.6968 9.99283 81.3688C10.0576 83.5718 9.92812 85.7749 10.349 87.9456Z" fill="#35B777" stroke="black" stroke-width="2" stroke-miterlimit="10"></path><path d="M62.3088 10.2232C62.3088 8.14968 61.5319 6.69176 59.5571 5.979C59.3304 6.17339 57.7765 6.82135 57.2585 7.14534C52.37 9.96397 47.4492 12.7502 42.5608 15.6336C39.8737 17.2211 27.7983 24.1543 27.3451 24.4135C23.4602 26.6814 19.5106 28.8844 15.6257 31.1847C12.1617 33.2258 10.025 36.174 10.025 40.321C10.025 53.9929 10.025 67.6973 10.025 81.3693C10.025 83.5724 9.8955 85.7754 10.3164 87.9461C11.4818 88.9829 12.8092 89.3716 14.266 88.6265C16.2408 87.5897 18.2156 86.5854 20.0609 85.2895C21.971 84.2203 23.9134 83.1836 25.7911 82.0821C32.104 78.4211 38.3845 74.7601 44.6974 71.0991C49.1327 68.5721 53.6326 66.1422 57.9384 63.4208C60.9168 61.5093 62.3736 58.4639 62.3736 54.9001C62.4059 39.9646 62.3412 25.0939 62.3088 10.2232ZM55.3485 55.0297C55.4132 56.4228 54.8305 57.1356 53.7298 57.7835C51.2046 59.209 48.7442 60.7317 46.2514 62.1897C40.4241 65.5267 34.5968 68.8313 28.8019 72.1683C26.5357 73.4642 24.3019 74.8573 22.0357 76.1856C21.0969 76.704 20.158 77.2224 19.1868 77.7083C18.0214 78.3239 17.1473 77.8379 17.1473 76.542C17.0825 64.2631 17.0502 51.9519 16.9854 39.673C16.9854 38.7658 17.3739 38.3447 18.0861 37.9235C21.0321 36.2388 23.9458 34.4893 26.8594 32.7722C27.5717 32.513 28.2515 32.1242 28.8342 31.6383C30.1939 30.9903 31.5213 30.2776 32.7515 29.3704C39.1939 25.677 45.6363 22.016 52.0463 18.3227C54.6362 16.8324 55.0894 17.0591 55.2513 20.0398C55.2513 20.2018 55.3161 20.3637 55.3485 20.5257C55.3161 28.9168 55.2837 37.3079 55.2513 45.699C55.2513 48.7768 55.219 51.9195 55.3485 55.0297Z" fill="#9DD4B2" stroke="black" stroke-width="2" stroke-miterlimit="10"></path><path d="M26.8598 32.7737C27.572 32.5146 28.2519 32.1258 28.8346 31.6398C30.1943 30.9919 31.5216 30.2791 32.7518 29.3719C39.1942 25.6786 45.6366 22.0176 52.0467 18.3242C54.6366 16.8339 55.0898 17.0607 55.2517 20.0413C55.2517 20.2033 55.3164 20.3653 55.3488 20.4949C55.3164 28.886 55.2841 37.2771 55.2517 45.6682C55.2517 48.7784 55.1869 51.921 55.3164 55.0312C55.3812 56.4243 54.7984 57.1371 53.6977 57.7851C51.1726 59.2106 48.7121 60.7333 46.2194 62.1912C40.3921 65.5282 34.5648 68.8328 28.7375 72.1698C26.4713 73.4657 24.2375 74.8588 21.9713 76.1872C21.0325 76.7055 20.0937 77.2239 19.1548 77.7099C17.9893 78.3254 17.1152 77.8395 17.1152 76.5435C17.0505 64.2647 17.0181 51.9534 16.9534 39.6745C16.9534 38.7674 17.3419 38.3462 18.0541 37.925C21.0325 36.2403 23.9462 34.4908 26.8598 32.7737Z" fill="white" stroke="black" stroke-width="2" stroke-miterlimit="10"></path><path d="M44.5684 53.2773C43.8238 55.9015 42.4641 58.0398 39.4533 58.5258C37.7375 58.8173 36.5721 59.9837 35.4066 61.1176C33.9498 62.5755 32.8491 62.7699 31.4246 61.96C31.3923 61.9276 31.3599 61.8952 31.3599 61.8628C31.2304 61.7656 31.1332 61.7008 31.0038 61.6036L30.9714 61.6684C29.6441 60.5344 30.1297 59.1413 30.4858 57.7806C30.7771 56.5819 32.3958 54.0872 32.3958 54.0872C32.493 53.9576 32.5577 53.7956 32.6224 53.6337C32.7519 53.2125 33.0757 52.2729 33.2052 51.9166C33.2376 51.8194 33.2699 51.7222 33.3347 51.625C33.4642 51.3658 33.7231 50.815 33.7879 50.491C34.1764 48.5796 35.0829 46.9596 36.6692 45.7933C37.4138 45.275 38.2231 44.789 39.162 45.275C39.2915 45.3397 39.3886 45.3721 39.5181 45.4369C40.4246 45.7609 40.9749 46.4737 41.1692 47.4132C41.3634 48.4824 41.8814 49.1951 42.9497 49.6811C44.4713 50.3614 45.0216 51.5926 44.5684 53.2773Z" fill="#35B777" stroke="black" stroke-miterlimit="10"></path><path d="M36.0543 43.624C35.6658 44.5635 35.1479 45.6003 33.9824 45.6003C32.8169 45.6003 31.8133 44.9847 31.3601 43.786C30.2917 41.4857 30.486 39.2826 31.7486 37.1444C32.1694 36.464 32.7845 35.9132 33.7234 36.1076C34.9212 36.3668 35.7306 37.0796 36.1514 38.2459C36.8637 40.0602 36.7665 41.8421 36.0543 43.624Z" fill="#35B777" stroke="black" stroke-miterlimit="10"></path><path d="M41.655 41.0963C40.9751 42.0034 40.101 42.3922 39.0651 41.485C38.2881 41.1611 38.191 40.4483 38.1262 39.768C37.8672 36.8845 38.6442 34.3251 40.3924 32.0572C40.9104 31.3445 41.6226 30.9233 42.529 31.5388C43.4031 31.7332 43.7269 32.4136 43.824 33.1911C44.1477 36.107 43.4355 38.7636 41.655 41.0963Z" fill="#35B777" stroke="black" stroke-miterlimit="10"></path><path d="M48.9713 39.2502C48.4533 41.9068 47.0936 44.0775 45.1188 45.9566C44.2771 46.7342 43.144 45.989 43.144 45.989C42.3023 45.665 42.3023 44.9523 42.4641 44.2395C42.9821 41.7772 44.2123 39.639 46.0253 37.9219C47.0936 36.9175 47.8382 37.2415 48.1943 37.5331C48.3238 37.6627 48.4857 37.7599 48.6475 37.8247C49.1655 38.1487 49.0684 38.7318 48.9713 39.2502Z" fill="#35B777" stroke="black" stroke-miterlimit="10"></path><path d="M30.842 52.2721C30.842 52.2721 29.968 52.5636 29.4824 52.6608C28.6083 52.8552 27.8313 52.758 27.0867 52.2721C25.1442 51.3001 24.4968 49.7774 25.3061 48.0927C26.0507 46.57 27.6694 45.9868 29.191 46.6996C29.2557 46.732 31.4571 47.8983 31.8456 49.6154C32.2665 50.5226 31.2629 52.1425 30.842 52.2721Z" fill="#35B777" stroke="black" stroke-miterlimit="10"></path></svg>