<svg xmlns="http://www.w3.org/2000/svg" width="85" height="134" viewBox="0 0 85 134" fill="none"><path d="M83.6434 44.3839C83.6434 37.7285 83.735 31.0426 83.6129 24.3872C83.5213 19.6246 83.5213 14.8315 83.5213 10.0689C83.5213 8.05398 82.7581 6.6191 80.8958 5.64216C78.6061 4.45152 76.3775 3.13876 74.1793 1.73441C72.4086 0.604823 70.7906 0.787999 69.0504 1.79547C61.4486 6.19169 53.8468 10.5574 46.245 14.9536C33.27 22.4333 20.3256 29.9435 7.35062 37.3927C3.25969 39.7434 1.27528 43.1932 1.27528 47.8642C1.30581 57.5726 1.30581 67.2809 1.36687 76.9892C1.39739 85.8427 1.45845 94.6962 1.51951 103.519C1.51951 104.191 1.6111 104.863 0.817337 105.168C0.206751 105.412 0.267809 105.962 0.267809 106.481C0.298339 113.502 0.298339 120.524 0.298339 127.546C0.298339 128.187 0.512044 128.584 1.06157 128.889C3.35127 130.202 5.61044 131.545 7.90014 132.858C9.18238 133.591 10.2509 133.224 11.5026 132.492C26.3704 123.852 41.2687 115.273 56.167 106.664C65.3564 101.352 74.5152 96.0395 83.7045 90.7885C84.5898 90.2695 84.9562 89.6894 84.9562 88.6209C84.8951 81.8434 84.8951 75.0964 84.8951 68.3189C84.8951 67.5557 84.8646 66.9145 84.0708 66.5482C83.3992 66.2429 83.674 65.5712 83.674 65.0522C83.6434 58.1221 83.674 51.2225 83.674 44.2923C83.674 44.3839 83.6434 44.3839 83.6434 44.3839ZM83.674 68.5937C83.674 75.2185 83.6434 81.5992 83.7045 88.0103C83.7045 89.0788 83.3381 89.5978 82.4528 90.1168C58.7926 103.733 35.1628 117.38 11.5331 131.026C11.1057 131.27 10.7699 131.667 10.1288 131.576C10.0983 131.026 10.0677 130.477 10.0677 129.927C10.0372 124.127 10.0372 118.326 9.94561 112.556C9.91508 111.487 10.312 110.968 11.1973 110.449C31.713 98.6345 52.2287 86.7891 72.7445 74.9438C76.3164 72.8372 79.8883 70.7612 83.674 68.5937ZM76.7133 7.07704C76.1332 7.44339 75.7363 7.68763 75.3394 7.90133C65.0205 13.8546 54.6711 19.8383 44.3522 25.7915C35.0407 31.1647 25.7293 36.5684 16.3873 41.911C15.8683 42.2163 15.3798 42.8269 14.6166 42.3384C12.4795 41.0562 10.3425 39.835 8.17491 38.5833C8.66338 37.9727 9.30449 37.7285 9.85402 37.4232C18.8907 32.2027 27.9579 26.9516 36.9946 21.7311C47.4967 15.6558 57.9988 9.61098 68.5009 3.53564C69.0199 3.23035 69.4473 2.83346 70.1495 3.26088C72.317 4.54311 74.4236 5.73375 76.7133 7.07704ZM2.80174 76.5313C2.74069 76.5313 2.71016 76.5313 2.6491 76.5313C2.6491 73.0204 2.6491 69.5095 2.6491 66.0292C2.61857 60.4423 2.61857 54.8555 2.55751 49.2686C2.55751 48.139 2.83227 48.0779 3.71762 48.5969C5.18303 49.5128 6.64844 50.4287 8.17491 51.1919C9.36555 51.772 9.79296 52.5047 9.79296 53.8785C9.7319 63.0678 9.79296 72.2877 9.79296 81.477C9.82349 90.1168 9.82349 98.7566 9.85402 107.396C9.85402 108.587 9.7319 109.014 8.51073 108.221C7.01479 107.244 5.48833 106.358 3.9008 105.565C3.01545 105.107 2.74069 104.527 2.74069 103.519C2.80174 94.5131 2.80174 85.5069 2.80174 76.5313ZM1.58057 107C3.93133 108.343 6.06838 109.595 8.20544 110.816C8.60232 111.06 8.69391 111.396 8.69391 111.823C8.72444 118.112 8.72444 124.401 8.78549 130.721C8.78549 131.759 8.38861 131.667 7.71697 131.27C6.09891 130.324 4.51139 129.317 2.83227 128.462C1.91639 127.973 1.55004 127.424 1.58057 126.355C1.64163 121.928 1.6111 117.532 1.6111 113.105C1.55004 111.152 1.58057 109.198 1.58057 107Z" fill="black"></path><path d="M11.1669 109.015C16.0211 106.236 20.57 103.58 25.1494 100.955C25.6073 100.68 25.7905 100.344 25.7294 99.8559C25.7294 99.7032 25.7599 99.5506 25.7294 99.3979C24.9662 96.0397 26.6453 94.3606 29.515 92.773C39.8034 87.0641 49.9392 81.0803 60.136 75.2187H60.1665C61.4793 74.4554 63.0973 75.3103 63.1889 76.8062V76.9283C63.1889 76.9283 63.0668 78.119 63.3415 78.7295C63.9216 78.7906 64.288 78.3937 64.7154 78.1495C70.3022 74.9439 75.8586 71.7078 81.476 68.5328C82.3003 68.0748 82.5445 67.5558 82.5445 66.6399C82.4529 48.1392 82.4224 29.6384 82.3613 11.1376C82.3613 6.86349 81.1096 6.19185 77.4156 8.3289C56.9914 20.0216 36.5979 31.7754 16.2348 43.5598C12.846 45.5136 11.0753 48.4444 11.1059 52.4438C11.1364 70.7309 11.1669 89.0485 11.1974 107.336C11.1669 107.793 11.1669 108.221 11.1669 109.015ZM36.4147 62.5185C32.5069 64.7776 28.7213 66.9452 24.9662 69.1128C24.1419 69.6013 23.0428 69.876 23.1955 71.2499C23.226 71.6162 22.7986 71.7994 22.4933 71.9826C20.3868 73.2037 18.2497 74.3944 16.1737 75.6461C14.922 76.3788 14.8915 75.1881 14.8915 73.5396L14.7388 68.258C14.6778 67.3421 14.7083 66.6094 15.5021 66.182C17.6086 64.9914 19.7151 63.7396 21.8217 62.549C22.188 62.3353 22.707 61.9384 23.0428 62.4269C23.5618 63.2512 23.9892 62.6711 24.4166 62.4574C28.1107 60.3509 31.8047 58.1833 35.4988 56.0768C36.262 55.6494 36.6589 55.1304 36.4757 54.2756C36.0178 52.0774 36.9031 50.6731 38.8265 49.8793C39.0402 49.7877 39.2539 49.6962 39.4676 49.6046C39.7424 49.4824 40.3835 49.1161 40.872 48.8413C41.1467 48.6887 41.3299 48.4139 41.391 48.1086C41.7878 45.7884 48.1685 37.7287 49.9392 35.439C49.9697 35.4084 47.4052 36.7212 46.4588 37.2707C40.6888 40.5984 34.9493 43.9261 29.2098 47.2538C25.302 49.513 21.3942 51.7721 17.456 54.0008C16.2348 54.703 15.96 54.5198 15.9295 53.146C15.899 52.0164 16.0211 50.8868 15.8684 49.7877C15.7158 48.3834 16.2958 47.6202 17.517 46.9485C29.6372 40.0184 41.6963 33.0271 53.7859 26.0359C59.5864 22.6777 65.387 19.35 71.1876 15.9918C72.4088 15.2896 72.7141 15.4422 72.7446 16.8161C72.7751 18.0372 72.6835 19.2584 72.7751 20.4796C72.8667 21.6702 72.4393 22.3113 71.4013 22.8914C65.4786 26.2496 59.6475 29.791 53.7553 33.2103L52.5647 34.0957L52.4731 34.2178C50.794 36.7517 49.0233 39.1941 47.2526 41.6364C46.2451 43.0408 45.5429 44.5367 44.5049 46.0326C44.3523 46.2463 44.047 46.6127 44.3218 46.7959C46.4283 45.5747 48.7791 44.2619 50.855 43.0102C51.8015 42.4607 52.1678 42.766 52.1983 43.7735C52.2289 44.5672 52.1983 45.3305 52.1983 46.399C56.1061 44.1398 59.7086 42.0943 63.2805 39.9878C64.2574 39.4078 65.6618 39.1635 65.5702 37.5149C65.5702 37.3318 65.9671 37.0875 66.2113 36.9349C68.3178 35.7137 70.4244 34.4925 72.5309 33.2714C72.7446 33.1493 72.9888 32.9661 73.2331 32.9355C73.4468 32.905 73.6299 33.0577 73.6605 33.2408C73.691 33.5767 74.0573 33.7598 74.3321 33.6072L75.2175 33.1187C75.6754 32.8745 76.8966 32.2028 77.843 31.7144C78.2704 31.4701 78.7894 31.7754 78.7894 32.2639C78.7894 33.6072 78.7894 35.8358 78.881 36.6601V37.6065C78.881 37.8508 78.7589 38.0645 78.5452 38.1561L73.9963 40.7205C73.8436 40.8121 73.7521 40.9648 73.7521 41.1479L73.7826 42.0028C73.7826 42.1859 73.691 42.3691 73.5383 42.4607C73.4773 42.5218 73.3857 42.5523 73.3246 42.5828C71.1265 43.865 68.9284 45.1168 66.7303 46.399C66.425 46.5822 65.9671 46.8569 65.7839 46.4906C65.2649 45.5136 64.7459 46.1547 64.2574 46.4295C60.8992 48.3529 57.6326 50.3678 54.2133 52.169C52.6563 52.9933 52.0152 53.9397 52.1983 55.7104C52.5647 58.8244 51.2519 61.1447 48.4127 62.5185L47.4052 63.1291L47.4968 68.258C47.4968 68.6549 47.2831 69.0212 46.9168 69.2044C45.8788 69.7234 43.7417 70.8225 42.429 71.5246C41.9405 71.7689 41.3299 71.433 41.3299 70.853V70.395C41.2994 69.2349 41.2688 67.5558 41.2688 66.3652C36.5368 68.5938 36.6589 68.4412 36.4147 62.5185Z" fill="#FAFAFA"></path><path d="M83.7655 68.5936C79.9799 70.7612 76.4079 72.8372 72.8055 74.9132C52.2898 86.7281 31.7741 98.604 11.2583 110.419C10.3425 110.938 9.97611 111.487 10.0066 112.525C10.0982 118.326 10.0982 124.126 10.1288 129.897C10.1288 130.446 10.1898 130.996 10.1898 131.545C10.8309 131.637 11.1973 131.24 11.5942 130.996C35.2239 117.349 58.8536 103.702 82.5138 90.0863C83.4297 89.5673 83.796 89.0483 83.7655 87.9798C83.735 81.5991 83.7655 75.2185 83.7655 68.5936Z" fill="#9DD4B2"></path><path d="M78.8504 6.3444C76.5302 5.00111 74.3015 3.5357 72.2255 2.28399C71.5234 1.85658 69.1726 3.26093 68.6536 3.56623C58.1515 9.64156 47.6494 15.6864 37.1473 21.7617C28.1106 26.9822 19.0434 32.2333 10.0068 37.4538C9.45722 37.7896 8.81611 38.0033 8.32764 38.6139C10.4952 39.8656 12.6323 41.1173 14.7693 42.369C15.5631 42.827 16.021 42.2469 16.54 41.9416C25.8515 36.5684 35.1629 31.1953 44.5049 25.8221C54.8238 19.8689 65.1733 13.8851 75.4922 7.93192C75.828 7.68769 78.2398 6.68022 78.8504 6.3444Z" fill="#35B777"></path><path d="M2.86274 76.5313C2.86274 85.5375 2.89327 94.5131 2.83221 103.519C2.83221 104.496 3.10697 105.107 3.99232 105.565C5.57985 106.389 7.10632 107.274 8.60225 108.221C9.82343 109.015 9.94554 108.587 9.94554 107.396C9.88449 98.7567 9.88449 90.1169 9.88449 81.4771C9.85396 72.2877 9.82343 63.0679 9.88449 53.8785C9.88449 52.5047 9.45707 51.772 8.26643 51.192C6.70943 50.4287 5.27456 49.5128 3.80915 48.597C2.9238 48.0474 2.6185 48.1085 2.64903 49.2686C2.67956 54.8249 2.67956 60.4118 2.71009 65.9987C2.71009 69.5096 2.71009 73.0204 2.71009 76.5008C2.74062 76.5313 2.80168 76.5313 2.86274 76.5313Z" fill="#35B777"></path><path d="M1.64166 107C1.64166 109.198 1.64166 111.152 1.64166 113.105C1.64166 117.532 1.70272 121.928 1.61113 126.355C1.5806 127.424 1.94695 127.973 2.86283 128.462C4.51141 129.316 6.12947 130.324 7.74752 131.27C8.4497 131.698 8.84658 131.759 8.81605 130.721C8.78552 124.432 8.75499 118.143 8.72446 111.823C8.72446 111.396 8.63288 111.029 8.23599 110.816C6.09894 109.595 3.99242 108.343 1.64166 107Z" fill="#35B777"></path><path d="M26.5228 98.0239C26.5839 98.8482 27.4692 99.3367 28.2019 98.9093C31.7433 96.8638 35.1321 94.9099 38.5514 92.9561C45.8479 88.743 53.1139 84.53 60.4104 80.3169C62.2421 79.4926 62.4253 77.9662 62.0284 76.9282C61.7842 76.3176 61.0515 75.9818 60.4409 76.226C60.4104 76.226 60.3798 76.2565 60.3493 76.2565C56.3194 78.5768 52.259 80.897 48.2292 83.2477C41.5738 87.0944 34.9184 91.0022 28.2019 94.7878C26.8891 95.5205 26.3091 96.2838 26.5228 97.7492C26.5228 97.8408 26.5228 97.9323 26.5228 98.0239Z" fill="#35B777"></path><path d="M12.9684 44.1091C13.2737 43.6207 13.1516 42.9795 12.6326 42.7048C11.2893 41.911 9.06067 40.5677 8.69432 40.354C6.4962 39.0718 6.4962 39.0718 4.90868 41.0257C3.80962 42.3995 3.04639 43.8954 2.7411 45.6661C2.58845 46.4599 2.89374 46.7957 3.80962 47.1315C5.51927 47.8032 7.10679 48.7801 8.5722 49.9097C9.39649 50.5508 9.8239 50.6729 9.97655 49.8792C10.1903 48.7801 10.5871 47.7421 11.1672 46.7652C11.4725 46.3988 12.3578 45.025 12.9684 44.1091Z" fill="#35B777"></path><path d="M17.1511 52.6879C17.1511 51.6499 17.2122 50.8256 17.1206 50.0624C17.029 49.0244 17.3953 48.4443 18.3112 47.8948C35.5908 37.9422 52.8704 27.9897 70.15 18.0066C70.5164 17.7929 70.8522 17.396 71.4628 17.5486C71.4628 17.915 71.4017 18.3424 71.4628 18.7087C71.8291 20.6016 71.0354 21.6396 69.3257 22.6165C53.8474 31.4395 38.4606 40.3846 23.0433 49.2991C21.1504 50.3982 19.2881 51.4667 17.1511 52.6879ZM37.6973 59.0075C37.6973 57.0231 37.7279 55.0387 37.6668 53.0543C37.6363 52.291 37.911 51.8941 38.5522 51.4973C42.3378 49.3602 46.1234 47.1621 49.8785 44.964C50.7334 44.445 50.9776 44.5976 50.9471 45.6051C50.9165 49.4213 50.9776 53.2374 50.9471 57.0231C50.9471 58.7327 50.1228 60.0455 48.6574 60.9003C45.635 62.671 42.6126 64.4112 39.5596 66.1513C38.2163 66.9146 37.6973 66.6398 37.6973 65.0828C37.6668 63.0679 37.6973 61.0529 37.6973 59.0075ZM36.4456 56.9315C36.4456 57.8168 36.354 58.4885 36.4762 59.0991C36.7204 60.595 36.0488 61.3582 34.7665 62.0299C31.9883 63.4953 29.3018 65.1439 26.5847 66.7314C25.5467 67.342 24.5087 67.8915 23.2264 68.6242C23.2264 67.7083 23.2875 67.0672 23.1959 66.4261C22.9822 65.0523 23.5012 64.1975 24.814 63.6174C26.2488 62.9763 27.5311 62.0604 28.9049 61.2972C31.3778 59.8623 33.8201 58.4579 36.4456 56.9315ZM52.443 51.772C51.8324 48.139 51.8629 48.0169 54.7632 46.3683C55.3738 46.002 55.9844 45.6356 56.595 45.2998C59.4648 43.6512 62.365 41.9721 65.4485 40.2014C65.4485 41.1783 65.3569 41.9416 65.479 42.6743C65.6622 43.926 65.1127 44.5976 64.0442 45.1777C61.785 46.3989 59.5563 47.7421 57.3277 49.0244C55.7096 49.9097 54.1221 50.8256 52.443 51.772ZM21.9747 63.8922C21.9747 66.1819 21.9747 68.1968 21.9747 70.2117C21.9747 70.6086 21.8526 70.8834 21.5168 71.0666C19.7156 72.074 17.9449 73.112 15.9604 74.2416C15.9604 71.9824 15.9604 69.998 15.9604 67.9831C15.9604 67.6167 16.0215 67.3115 16.3879 67.0977C18.1586 66.0903 19.9293 65.0523 21.9747 63.8922ZM72.7145 34.6145C72.7145 36.9042 72.7145 38.9192 72.7145 40.9341C72.7145 41.4226 72.4702 41.6363 72.0734 41.85C70.5469 42.7353 68.9899 43.5902 67.494 44.506C66.7613 44.9334 66.6391 44.6587 66.6697 43.9565C66.7002 42.2469 66.6697 40.5067 66.6697 38.797C66.6697 38.4307 66.6697 38.0949 67.036 37.8812C68.8678 36.8126 70.6995 35.7746 72.7145 34.6145Z" fill="#141414"></path><path d="M17.1506 52.6879C19.2877 51.4668 21.15 50.3982 23.0428 49.3297C38.4601 40.4151 53.8774 31.47 69.3253 22.6471C71.0349 21.6701 71.8287 20.6627 71.4623 18.7393C71.4013 18.3424 71.4623 17.9456 71.4623 17.5792C70.8517 17.396 70.5159 17.8234 70.1496 18.0371C52.8699 27.9897 35.6209 37.9728 18.3107 47.9254C17.3949 48.4444 17.0285 49.0549 17.1201 50.0929C17.2117 50.8256 17.1506 51.6194 17.1506 52.6879Z" fill="#35B777"></path><path d="M37.6966 59.0074C37.6966 61.0529 37.6661 63.0678 37.6966 65.1133C37.7272 66.6398 38.2156 66.9451 39.5589 66.1818C42.6118 64.4417 45.6342 62.7015 48.6567 60.9308C50.1221 60.076 50.9464 58.7632 50.9464 57.0536C50.9769 53.2374 50.9158 49.4212 50.9464 45.6356C50.9464 44.6587 50.7326 44.506 49.8778 44.9945C46.1227 47.1926 42.3371 49.3907 38.5514 51.5278C37.8798 51.8941 37.6356 52.3215 37.6661 53.0848C37.7272 55.0386 37.6966 57.023 37.6966 59.0074Z" fill="#9DD4B2"></path><path d="M36.2621 57.0231C33.6061 58.5495 31.3469 59.8623 28.9046 61.2666C27.5307 62.0604 24.5999 63.8311 23.165 64.5028C23.165 64.5028 23.2261 67.7083 23.2261 68.6242C24.5083 67.8915 25.5463 67.342 26.5843 66.7314C29.3014 65.1744 33.4534 62.7321 36.2316 61.2666C36.2316 61.2666 36.2621 57.939 36.2621 57.0231Z" fill="#9DD4B2"></path><path d="M52.4427 51.772C54.0912 50.8256 55.7093 49.9097 57.3274 48.9939C59.556 47.7116 63.25 45.6051 65.5092 44.3839C65.5092 44.3839 65.4482 41.1784 65.4482 40.2014C62.3647 41.9721 59.4644 43.6512 56.5947 45.2998C55.9841 45.6662 52.9617 47.3758 52.3511 47.7116L52.4427 51.772Z" fill="#9DD4B2"></path><path d="M21.9747 64.3501C21.9747 64.1364 21.761 64.0143 21.5778 64.1058C19.7156 65.1744 18.0364 66.1513 16.3879 67.0977C16.0215 67.3114 15.9604 67.6167 15.9604 67.9831C15.9604 69.8148 15.9604 71.6466 15.9604 73.631C15.9604 73.9058 16.2657 74.0584 16.4794 73.9363C18.2501 72.8983 19.8987 71.9824 21.5168 71.0665C21.8526 70.8834 22.0053 70.5781 21.9747 70.2117C21.9747 68.3189 21.9747 66.4566 21.9747 64.3501Z" fill="#9DD4B2"></path><path d="M78.0563 32.9964C78.0563 32.8133 77.8426 32.6911 77.69 32.7827C76.4077 33.5154 75.2781 34.1871 74.1486 34.8282C73.8738 34.9808 73.8433 35.1946 73.8433 35.4388C73.8433 36.721 73.8433 38.0033 73.8433 39.4076C73.8433 39.5908 74.057 39.7129 74.2096 39.6213C75.4613 38.9191 76.5909 38.2475 77.7205 37.6064C77.9647 37.4537 78.0563 37.2705 78.0563 36.9958C78.0563 35.7136 78.0563 34.4313 78.0563 32.9964Z" fill="#9DD4B2"></path><path d="M72.7138 34.6145C70.6683 35.7746 68.5007 37.0568 66.6689 38.0948C66.6689 38.0948 66.6689 38.4307 66.6689 38.797C66.6689 40.5067 66.6995 44.9945 66.6995 44.9945C68.2259 44.0786 71.1873 42.369 72.7138 41.5141C72.7443 41.4836 72.7138 36.9042 72.7138 34.6145Z" fill="#9DD4B2"></path></svg>