<svg xmlns="http://www.w3.org/2000/svg" width="60" height="74" viewBox="0 0 60 74" fill="none"><mask id="path-1-inside-1_1_1486" fill="white"><path d="M55.208 13.4487C55.208 14.178 55.208 15.1909 55.208 16.1633C55.2486 17.0952 55.6133 17.9055 56.3429 18.5133C56.9508 18.9995 57.5587 19.4857 58.1667 20.0124C59.5041 21.1468 60.031 22.5649 59.6663 24.3072C59.3826 25.6442 58.8557 26.8597 58.2477 28.0752C57.6398 29.2907 57.0319 30.5467 56.3834 31.7622C55.3296 33.7476 55.0054 35.8139 55.2486 38.0423C55.3296 38.8122 55.3296 39.6225 55.3702 40.3923C55.5323 43.188 54.5596 45.4974 52.5736 47.4017C51.3578 48.5362 50.1014 49.6301 48.8855 50.7241C47.3454 52.0611 46.2106 53.6818 45.4 55.5456C44.5894 57.5309 43.8193 59.5162 42.8061 61.38C41.6308 63.6084 39.888 65.0265 37.2941 65.2696C36.6457 65.3101 36.0377 65.4317 35.4298 65.5127C33.8897 65.6748 32.5117 66.242 31.4174 67.336C30.4042 68.3084 29.3909 69.3618 28.4182 70.3747C27.5671 71.2661 26.6755 72.1169 25.6217 72.8057C24.4464 73.5755 23.271 73.6161 22.0957 72.8057C20.3529 71.6307 18.4075 70.7799 16.7053 69.5239C16.4216 69.3213 16.1379 69.4428 15.8947 69.5239C14.8004 69.8075 13.7467 70.2126 12.6119 70.2937C11.8823 70.3747 11.1933 70.2126 10.5854 69.848C9.08582 68.9566 7.58624 68.0653 6.08666 67.2144C5.19502 66.7282 4.7492 65.9989 4.62761 65.0265C4.50602 64.1757 4.50602 63.3653 4.54655 62.5145C4.58708 61.7446 4.58708 60.9343 4.66814 60.1645C4.95184 57.855 4.14126 56.1938 2.19586 54.8568C-0.0332489 53.3172 -0.438541 51.737 0.412572 49.1439C0.979981 47.2802 2.03374 45.5785 2.88485 43.8362C3.57385 42.3776 4.38443 40.919 4.54655 39.2578C4.66814 38.2854 4.70867 37.313 4.54655 36.3406C3.69544 31.8433 5.11396 28.2373 8.80212 25.4821C9.49111 24.9959 10.0585 24.3477 10.707 23.8209C12.3282 22.4434 13.5035 20.7822 14.3141 18.7969C15.0031 17.1357 15.7326 15.4745 16.4621 13.7728C17.7591 10.7746 19.9882 9.11336 23.3116 8.99181C25.6623 8.91078 27.6077 7.97889 29.2288 6.19615C30.2015 5.1022 31.2553 4.1298 32.2685 3.07636C32.917 2.4281 33.606 1.86086 34.376 1.41518C35.3082 0.888458 36.2809 0.766908 37.2131 1.33414C39.118 2.50913 41.1444 3.44101 42.9682 4.77807C43.2925 5.02117 43.5762 4.89962 43.8599 4.81858C44.9136 4.53497 45.9674 4.1298 47.0617 4.04877C47.8317 3.96773 48.5207 4.08928 49.1692 4.49445C50.7498 5.42634 52.3305 6.31771 53.9111 7.20907C54.7217 7.65476 55.0459 8.42458 55.1675 9.27543C55.4107 10.6125 55.2891 11.909 55.208 13.4487ZM54.3975 12.9219C54.3975 12.3547 54.3975 11.828 54.3975 11.2608C54.3975 10.6935 54.3975 10.0858 54.3164 9.51853C54.1138 8.22199 53.4653 7.81683 52.2089 8.01941C50.7904 8.26251 49.4529 8.78923 48.0344 9.07285C46.6564 9.35646 45.481 9.07285 44.5489 7.97889C43.9409 7.29011 43.3735 6.56081 42.7656 5.8315C41.8739 4.81858 40.9823 4.65652 39.807 5.3453C39.199 5.70995 38.6721 6.19615 38.1453 6.68236C37.1726 7.65476 36.1593 8.62716 35.2272 9.6806C33.3223 11.828 30.9311 12.8409 28.1345 12.9625C25.9054 13.0435 24.2437 14.0969 23.1089 16.0417C22.1768 17.6624 21.4878 19.4046 20.7988 21.1468C19.7045 23.9425 18.0833 26.2925 15.7326 28.1562C15.2057 28.6019 14.7194 29.0476 14.152 29.4933C11.2744 31.8433 9.8964 34.72 10.4638 38.5285C10.6665 39.9061 10.6665 41.3647 10.4233 42.7828C10.1396 44.6061 9.24794 46.2267 8.43735 47.8474C7.58624 49.5086 6.6946 51.1293 6.20825 52.9525C5.80296 54.4921 6.16772 55.7482 7.38359 56.7611C7.99153 57.2473 8.59947 57.693 9.16688 58.2197C9.85587 58.8274 10.3422 59.5567 10.5043 60.4886C10.707 61.5015 10.707 62.5145 10.6259 63.5679C10.5043 64.905 10.4638 66.242 10.5449 67.5791C10.6259 69.0377 11.2744 69.5644 12.6929 69.3618C13.8277 69.1997 14.9626 68.7946 16.0568 68.5109C18.4075 67.8627 19.4208 68.1868 20.9609 70.0911C21.4067 70.6583 21.8525 71.2661 22.3794 71.7928C23.2305 72.6437 23.9195 72.6842 24.9327 72.0764C25.6217 71.7118 26.1891 71.185 26.716 70.6583C27.5266 69.848 28.3777 69.0377 29.1478 68.1463C31.1742 65.8368 33.5655 64.4593 36.6862 64.3782C39.199 64.3377 40.9012 62.9601 42.0361 60.7722C42.8061 59.3136 43.4546 57.774 44.022 56.1938C45.1163 53.3577 46.778 51.0077 49.1287 49.1034C50.0608 48.3336 50.9525 47.5233 51.8441 46.6724C53.7085 44.8897 54.6001 42.7423 54.438 40.1492C54.3569 39.2173 54.3569 38.2449 54.2759 37.313C54.1138 35.0846 54.6001 32.9777 55.6539 30.9924C56.2618 29.8579 56.8292 28.683 57.3966 27.5485C57.883 26.5761 58.3288 25.5632 58.653 24.4692C59.1394 22.8485 58.7341 21.5115 57.3966 20.4581C56.9103 20.0934 56.4644 19.6882 55.9781 19.3236C54.9649 18.5133 54.3975 17.5409 54.2759 16.2443C54.1948 15.1909 54.2759 14.0564 54.3975 12.9219ZM40.2122 4.17032C39.0774 3.52205 38.0642 2.95481 37.0915 2.34706C36.2404 1.82034 35.4703 1.86086 34.6597 2.38758C34.0113 2.79275 33.4844 3.23843 32.9575 3.76515C32.0659 4.65652 31.1742 5.50737 30.3636 6.43926C28.4182 8.62716 26.1081 9.9237 23.1495 9.96421C20.434 10.0047 18.6912 11.4633 17.5564 13.8133C16.7864 15.3124 16.1784 16.8926 15.5705 18.4727C14.5573 21.1468 12.9361 23.3753 10.707 25.158C9.77482 25.9278 8.88317 26.7382 7.99153 27.589C6.0056 29.4123 5.11396 31.6812 5.31661 34.3958C5.35713 35.1656 5.39766 35.9355 5.47872 36.7053C5.68137 39.1768 5.19502 41.4863 4.01967 43.6336C3.45226 44.6871 2.92538 45.781 2.35797 46.875C1.87162 47.8879 1.38527 48.9008 1.10157 50.0353C0.696277 51.5749 1.06104 52.831 2.27692 53.8439C2.68221 54.168 3.0875 54.5327 3.53332 54.8163C4.95184 55.7887 5.60031 57.1663 5.55978 58.868C5.55978 59.5162 5.51925 60.124 5.51925 60.7722C5.47872 62.0688 5.35713 63.3653 5.47872 64.6619C5.51925 65.2291 5.55978 65.8368 6.04613 66.161C7.22148 66.9308 8.47788 67.6196 9.77482 68.3894C9.6127 67.0929 9.65323 65.9584 9.73429 64.8239C9.77482 63.811 9.77482 62.8386 9.81535 61.8257C9.85587 60.5291 9.36952 59.5162 8.35629 58.7464C7.86994 58.3818 7.38359 57.9766 6.85671 57.5714C5.31661 56.3154 4.87078 54.7352 5.35713 52.831C5.60031 51.8991 5.96507 50.9672 6.41089 50.1163C7.14042 48.6172 7.86994 47.1586 8.64 45.6595C9.49111 43.9578 9.8964 42.2156 9.77482 40.3113C9.73429 39.3794 9.65323 38.407 9.6127 37.4751C9.41005 34.7605 10.1801 32.37 12.1255 30.3847C13.3819 29.0881 14.8004 27.9131 16.1784 26.7382C17.678 25.4011 18.7723 23.8615 19.5829 22.0382C20.4745 20.0124 21.2041 17.9055 22.2578 16.0012C23.2305 14.259 24.568 12.8409 26.635 12.3952C27.324 12.2332 28.0535 12.1116 28.7425 12.0711C30.8905 11.9495 32.7143 11.1797 34.2139 9.59956C35.0245 8.74871 35.8756 7.89786 36.6862 7.04701C37.6184 5.95305 38.6316 4.8591 40.2122 4.17032ZM51.6415 7.16856C48.9666 4.89962 46.8996 4.53497 44.022 5.91254C44.5083 6.56081 44.9542 7.16856 45.5621 7.73579C46.089 8.22199 46.6969 8.42458 47.3859 8.30303C48.8044 8.01941 50.1824 7.53321 51.6415 7.16856ZM19.6639 70.3747C19.056 69.4023 18.7723 69.2402 17.8401 69.3213C18.5291 69.7265 19.0965 70.0506 19.6639 70.3747Z"></path></mask><path d="M55.208 13.4487C55.208 14.178 55.208 15.1909 55.208 16.1633C55.2486 17.0952 55.6133 17.9055 56.3429 18.5133C56.9508 18.9995 57.5587 19.4857 58.1667 20.0124C59.5041 21.1468 60.031 22.5649 59.6663 24.3072C59.3826 25.6442 58.8557 26.8597 58.2477 28.0752C57.6398 29.2907 57.0319 30.5467 56.3834 31.7622C55.3296 33.7476 55.0054 35.8139 55.2486 38.0423C55.3296 38.8122 55.3296 39.6225 55.3702 40.3923C55.5323 43.188 54.5596 45.4974 52.5736 47.4017C51.3578 48.5362 50.1014 49.6301 48.8855 50.7241C47.3454 52.0611 46.2106 53.6818 45.4 55.5456C44.5894 57.5309 43.8193 59.5162 42.8061 61.38C41.6308 63.6084 39.888 65.0265 37.2941 65.2696C36.6457 65.3101 36.0377 65.4317 35.4298 65.5127C33.8897 65.6748 32.5117 66.242 31.4174 67.336C30.4042 68.3084 29.3909 69.3618 28.4182 70.3747C27.5671 71.2661 26.6755 72.1169 25.6217 72.8057C24.4464 73.5755 23.271 73.6161 22.0957 72.8057C20.3529 71.6307 18.4075 70.7799 16.7053 69.5239C16.4216 69.3213 16.1379 69.4428 15.8947 69.5239C14.8004 69.8075 13.7467 70.2126 12.6119 70.2937C11.8823 70.3747 11.1933 70.2126 10.5854 69.848C9.08582 68.9566 7.58624 68.0653 6.08666 67.2144C5.19502 66.7282 4.7492 65.9989 4.62761 65.0265C4.50602 64.1757 4.50602 63.3653 4.54655 62.5145C4.58708 61.7446 4.58708 60.9343 4.66814 60.1645C4.95184 57.855 4.14126 56.1938 2.19586 54.8568C-0.0332489 53.3172 -0.438541 51.737 0.412572 49.1439C0.979981 47.2802 2.03374 45.5785 2.88485 43.8362C3.57385 42.3776 4.38443 40.919 4.54655 39.2578C4.66814 38.2854 4.70867 37.313 4.54655 36.3406C3.69544 31.8433 5.11396 28.2373 8.80212 25.4821C9.49111 24.9959 10.0585 24.3477 10.707 23.8209C12.3282 22.4434 13.5035 20.7822 14.3141 18.7969C15.0031 17.1357 15.7326 15.4745 16.4621 13.7728C17.7591 10.7746 19.9882 9.11336 23.3116 8.99181C25.6623 8.91078 27.6077 7.97889 29.2288 6.19615C30.2015 5.1022 31.2553 4.1298 32.2685 3.07636C32.917 2.4281 33.606 1.86086 34.376 1.41518C35.3082 0.888458 36.2809 0.766908 37.2131 1.33414C39.118 2.50913 41.1444 3.44101 42.9682 4.77807C43.2925 5.02117 43.5762 4.89962 43.8599 4.81858C44.9136 4.53497 45.9674 4.1298 47.0617 4.04877C47.8317 3.96773 48.5207 4.08928 49.1692 4.49445C50.7498 5.42634 52.3305 6.31771 53.9111 7.20907C54.7217 7.65476 55.0459 8.42458 55.1675 9.27543C55.4107 10.6125 55.2891 11.909 55.208 13.4487ZM54.3975 12.9219C54.3975 12.3547 54.3975 11.828 54.3975 11.2608C54.3975 10.6935 54.3975 10.0858 54.3164 9.51853C54.1138 8.22199 53.4653 7.81683 52.2089 8.01941C50.7904 8.26251 49.4529 8.78923 48.0344 9.07285C46.6564 9.35646 45.481 9.07285 44.5489 7.97889C43.9409 7.29011 43.3735 6.56081 42.7656 5.8315C41.8739 4.81858 40.9823 4.65652 39.807 5.3453C39.199 5.70995 38.6721 6.19615 38.1453 6.68236C37.1726 7.65476 36.1593 8.62716 35.2272 9.6806C33.3223 11.828 30.9311 12.8409 28.1345 12.9625C25.9054 13.0435 24.2437 14.0969 23.1089 16.0417C22.1768 17.6624 21.4878 19.4046 20.7988 21.1468C19.7045 23.9425 18.0833 26.2925 15.7326 28.1562C15.2057 28.6019 14.7194 29.0476 14.152 29.4933C11.2744 31.8433 9.8964 34.72 10.4638 38.5285C10.6665 39.9061 10.6665 41.3647 10.4233 42.7828C10.1396 44.6061 9.24794 46.2267 8.43735 47.8474C7.58624 49.5086 6.6946 51.1293 6.20825 52.9525C5.80296 54.4921 6.16772 55.7482 7.38359 56.7611C7.99153 57.2473 8.59947 57.693 9.16688 58.2197C9.85587 58.8274 10.3422 59.5567 10.5043 60.4886C10.707 61.5015 10.707 62.5145 10.6259 63.5679C10.5043 64.905 10.4638 66.242 10.5449 67.5791C10.6259 69.0377 11.2744 69.5644 12.6929 69.3618C13.8277 69.1997 14.9626 68.7946 16.0568 68.5109C18.4075 67.8627 19.4208 68.1868 20.9609 70.0911C21.4067 70.6583 21.8525 71.2661 22.3794 71.7928C23.2305 72.6437 23.9195 72.6842 24.9327 72.0764C25.6217 71.7118 26.1891 71.185 26.716 70.6583C27.5266 69.848 28.3777 69.0377 29.1478 68.1463C31.1742 65.8368 33.5655 64.4593 36.6862 64.3782C39.199 64.3377 40.9012 62.9601 42.0361 60.7722C42.8061 59.3136 43.4546 57.774 44.022 56.1938C45.1163 53.3577 46.778 51.0077 49.1287 49.1034C50.0608 48.3336 50.9525 47.5233 51.8441 46.6724C53.7085 44.8897 54.6001 42.7423 54.438 40.1492C54.3569 39.2173 54.3569 38.2449 54.2759 37.313C54.1138 35.0846 54.6001 32.9777 55.6539 30.9924C56.2618 29.8579 56.8292 28.683 57.3966 27.5485C57.883 26.5761 58.3288 25.5632 58.653 24.4692C59.1394 22.8485 58.7341 21.5115 57.3966 20.4581C56.9103 20.0934 56.4644 19.6882 55.9781 19.3236C54.9649 18.5133 54.3975 17.5409 54.2759 16.2443C54.1948 15.1909 54.2759 14.0564 54.3975 12.9219ZM40.2122 4.17032C39.0774 3.52205 38.0642 2.95481 37.0915 2.34706C36.2404 1.82034 35.4703 1.86086 34.6597 2.38758C34.0113 2.79275 33.4844 3.23843 32.9575 3.76515C32.0659 4.65652 31.1742 5.50737 30.3636 6.43926C28.4182 8.62716 26.1081 9.9237 23.1495 9.96421C20.434 10.0047 18.6912 11.4633 17.5564 13.8133C16.7864 15.3124 16.1784 16.8926 15.5705 18.4727C14.5573 21.1468 12.9361 23.3753 10.707 25.158C9.77482 25.9278 8.88317 26.7382 7.99153 27.589C6.0056 29.4123 5.11396 31.6812 5.31661 34.3958C5.35713 35.1656 5.39766 35.9355 5.47872 36.7053C5.68137 39.1768 5.19502 41.4863 4.01967 43.6336C3.45226 44.6871 2.92538 45.781 2.35797 46.875C1.87162 47.8879 1.38527 48.9008 1.10157 50.0353C0.696277 51.5749 1.06104 52.831 2.27692 53.8439C2.68221 54.168 3.0875 54.5327 3.53332 54.8163C4.95184 55.7887 5.60031 57.1663 5.55978 58.868C5.55978 59.5162 5.51925 60.124 5.51925 60.7722C5.47872 62.0688 5.35713 63.3653 5.47872 64.6619C5.51925 65.2291 5.55978 65.8368 6.04613 66.161C7.22148 66.9308 8.47788 67.6196 9.77482 68.3894C9.6127 67.0929 9.65323 65.9584 9.73429 64.8239C9.77482 63.811 9.77482 62.8386 9.81535 61.8257C9.85587 60.5291 9.36952 59.5162 8.35629 58.7464C7.86994 58.3818 7.38359 57.9766 6.85671 57.5714C5.31661 56.3154 4.87078 54.7352 5.35713 52.831C5.60031 51.8991 5.96507 50.9672 6.41089 50.1163C7.14042 48.6172 7.86994 47.1586 8.64 45.6595C9.49111 43.9578 9.8964 42.2156 9.77482 40.3113C9.73429 39.3794 9.65323 38.407 9.6127 37.4751C9.41005 34.7605 10.1801 32.37 12.1255 30.3847C13.3819 29.0881 14.8004 27.9131 16.1784 26.7382C17.678 25.4011 18.7723 23.8615 19.5829 22.0382C20.4745 20.0124 21.2041 17.9055 22.2578 16.0012C23.2305 14.259 24.568 12.8409 26.635 12.3952C27.324 12.2332 28.0535 12.1116 28.7425 12.0711C30.8905 11.9495 32.7143 11.1797 34.2139 9.59956C35.0245 8.74871 35.8756 7.89786 36.6862 7.04701C37.6184 5.95305 38.6316 4.8591 40.2122 4.17032ZM51.6415 7.16856C48.9666 4.89962 46.8996 4.53497 44.022 5.91254C44.5083 6.56081 44.9542 7.16856 45.5621 7.73579C46.089 8.22199 46.6969 8.42458 47.3859 8.30303C48.8044 8.01941 50.1824 7.53321 51.6415 7.16856ZM19.6639 70.3747C19.056 69.4023 18.7723 69.2402 17.8401 69.3213C18.5291 69.7265 19.0965 70.0506 19.6639 70.3747Z" fill="#35B777" stroke="black" stroke-width="0.520888" mask="url(#path-1-inside-1_1_1486)"></path><path d="M48.0771 22.6572C46.3967 18.8175 43.0833 16.7827 38.8838 17.1025L38.8848 17.1035C35.997 17.3442 33.4245 18.5467 31.0439 20.1602L31.043 20.1611C26.2019 23.3876 22.6475 27.7848 19.8584 32.876L19.8594 32.877C17.2729 37.6443 15.6188 42.6887 15.5381 48.1729V48.1738C15.4979 49.9423 15.7388 51.6716 16.2217 53.3613L16.377 53.8535C17.1906 56.272 18.5972 58.0682 20.4189 59.1562C22.3622 60.3168 24.7901 60.6797 27.499 60.1182L27.9863 60.0059C30.4091 59.4123 32.6148 58.3283 34.5381 56.8203L34.5391 56.8193L35.3242 56.2002C43.3299 49.7374 48.0291 41.3452 49.2422 31.0176L49.2949 30.4824C49.5056 27.9832 49.213 25.4967 48.2852 23.1562L48.0771 22.6572ZM54.3965 12.9219L54.5264 12.9355C54.4051 14.0666 54.3254 15.1908 54.4053 16.3125L54.4326 16.5459C54.5939 17.6945 55.1336 18.599 56.0557 19.2998L56.418 19.583C56.5365 19.6786 56.6533 19.7751 56.7695 19.8711C56.8861 19.9674 57.0024 20.0631 57.1191 20.1572L57.4746 20.4346L57.4766 20.4365L57.7227 20.6416C58.271 21.1285 58.6419 21.6703 58.832 22.2773C59.0492 22.971 59.0259 23.7381 58.7773 24.5869V24.5879C58.532 25.3849 58.2174 26.158 57.8701 26.9229L57.5137 27.6855C56.9458 28.8615 56.3776 29.9982 55.7686 31.1348L55.7676 31.1338C54.7247 33.0987 54.2454 35.1812 54.4053 37.3828L54.4531 38.0918C54.4659 38.3297 54.4762 38.5688 54.4863 38.8066C54.4965 39.0448 54.5069 39.282 54.5195 39.5176L54.5674 40.2188V40.2217L54.5859 40.71C54.6131 42.9654 53.8231 44.8804 52.2764 46.5039L51.9336 46.8477C51.046 47.6946 50.1874 48.5504 49.208 49.2852L49.209 49.2861C46.8371 51.1751 45.1893 53.5056 44.1436 56.3203L44.1426 56.3223C43.535 57.8609 42.9248 59.4064 42.1514 60.9121V60.9131C41.0356 63.0642 39.3676 64.4191 36.9287 64.5771L36.6895 64.5889C33.6116 64.6688 31.2123 66.0251 29.2461 68.3115V68.3125C28.4747 69.2054 27.6099 69.989 26.8096 70.8291L26.8076 70.8311C26.2771 71.3614 25.6594 71.8975 24.9961 72.2705L24.9951 72.2695C24.459 72.5785 24.0048 72.7269 23.5645 72.6768C23.1234 72.6264 22.7232 72.3811 22.2891 71.9678L22.2871 71.9658C21.7548 71.4337 21.3053 70.8616 20.8594 70.2539L20.5781 69.918C19.9371 69.1787 19.387 68.7466 18.7725 68.5488C18.0702 68.3228 17.2597 68.3935 16.0908 68.7158L16.0918 68.7168C14.9647 69.0387 13.8572 69.4076 12.7109 69.5713H12.71C11.9686 69.6742 11.4048 69.5979 11.0176 69.2734C10.6314 68.9495 10.4553 68.4075 10.4141 67.668L10.3896 67.1631C10.3445 65.9867 10.3893 64.8111 10.4961 63.6367V63.6328L10.5332 63.2568C10.6032 62.3747 10.5509 61.4693 10.376 60.5947V60.5918C10.22 59.6954 9.75208 58.9912 9.08008 58.3984V58.3975C8.79792 58.1557 8.50562 57.9139 8.20801 57.6719L7.30176 56.9434C6.65663 56.4233 6.24404 55.8344 6.04785 55.1719C5.85196 54.5103 5.87504 53.7863 6.08203 53L6.17871 52.6572C6.68507 50.9554 7.52603 49.4213 8.32129 47.8691C9.13571 46.2409 10.0141 44.6416 10.2939 42.8438V42.8418L10.373 42.3135C10.5316 41.0779 10.5097 39.8222 10.334 38.6279V38.627C9.75947 34.808 11.1618 31.8471 14.0693 29.4727C14.5901 29.0321 15.0827 28.5814 15.6514 28.1348L16.0801 27.7832C18.181 25.9946 19.6577 23.7832 20.6768 21.1797L21.1914 19.875C21.7109 18.5719 22.2625 17.2796 22.9971 16.0557C24.1539 14.074 25.8545 13.037 28.127 12.9131H28.1289L28.6494 12.8799C31.2269 12.6632 33.4049 11.6604 35.1279 9.67578L35.1289 9.6748L35.4834 9.28223C36.3183 8.3736 37.2038 7.51957 38.0527 6.6709C38.5435 6.18033 39.1192 5.68641 39.7393 5.31445L39.7402 5.31348L39.9639 5.19141C40.4801 4.92784 40.9572 4.82542 41.4141 4.90234C41.9356 4.99023 42.4065 5.30727 42.8633 5.82617H42.8623C43.4712 6.51609 44.0439 7.25149 44.6475 7.97559L44.8193 8.16406C45.2262 8.58426 45.6745 8.85423 46.1611 8.99805C46.7183 9.16267 47.3342 9.165 48.0078 9.02637L48.0088 9.02539L48.5312 8.9082C49.0517 8.78024 49.5653 8.6242 50.084 8.47168C50.7723 8.26929 51.4689 8.07452 52.1875 7.97168L52.4219 7.93945C52.9555 7.8826 53.3941 7.94755 53.7314 8.18066C54.0701 8.41476 54.2831 8.80192 54.4004 9.33984L54.4443 9.5791V9.58105L54.4922 10.0205C54.527 10.4644 54.5273 10.9178 54.5273 11.3418V12.9355L54.3965 12.9219Z" fill="#9DD4B2" stroke="black" stroke-width="0.260444"></path><path d="M40.2114 4.16882C38.6308 4.85761 37.7493 6.04449 36.6955 7.09793C35.8444 7.94878 35.1391 8.68735 34.3285 9.57872C32.829 11.1589 30.8975 11.9489 28.7495 12.0705C28.0605 12.111 27.2833 12.3269 26.5943 12.489C24.5273 12.9346 23.2481 14.3072 22.2349 16.0899C21.1406 18.0347 20.4803 19.9639 19.6291 21.9898C18.8591 23.813 17.6459 25.4254 16.1464 26.7625C14.8089 27.978 13.381 29.1341 12.0841 30.4306C10.1792 32.4159 9.49646 34.698 9.65857 37.4532C9.73963 38.3851 9.76667 39.2956 9.8072 40.2275C9.92878 42.1317 9.51887 43.8927 8.66776 45.5944C7.8977 47.053 7.14618 48.5878 6.41665 50.087C5.97083 50.9783 5.77274 51.5566 5.48903 52.4885C4.96215 54.3928 5.12391 56.1488 6.66402 57.4049C7.15037 57.81 7.81574 58.272 8.34262 58.6366C9.35585 59.4065 9.90639 60.3642 9.86586 61.6608C9.82533 62.6737 9.82212 63.7658 9.78159 64.7787C9.70054 65.9132 9.66001 67.1178 9.78159 68.4143C8.44413 67.6445 7.09903 66.8888 5.92369 66.119C5.43734 65.7948 5.39681 65.1871 5.35628 64.6198C5.23469 63.3233 5.35628 62.0268 5.39681 60.7302C5.43734 60.082 5.43734 59.4742 5.43734 58.8259C5.43734 57.1242 4.78887 55.7467 3.41088 54.7743C2.96506 54.4907 2.60029 54.126 2.15447 53.8019C0.898066 52.789 0.533303 51.5329 0.979124 49.9933C1.26283 48.8993 1.74918 47.8459 2.23553 46.833C2.76241 45.739 3.28929 44.6451 3.89723 43.5916C5.07257 41.4037 5.55892 39.1348 5.35628 36.6633C5.27522 35.8935 5.27522 35.1236 5.19416 34.3538C4.99152 31.6392 5.88316 29.3703 7.86909 27.547C8.76073 26.7367 9.65237 25.8858 10.5845 25.116C12.8137 23.3333 14.4348 21.1048 15.4481 18.4307C16.056 16.8506 16.7045 15.3109 17.434 13.7713C18.6093 11.4213 20.3521 9.96272 23.027 9.9222C25.9856 9.84117 28.3363 8.58515 30.2412 6.39725C31.0518 5.46536 31.9434 4.61451 32.8351 3.72314C33.362 3.19642 33.9294 2.71022 34.5373 2.34557C35.3479 1.81885 36.1179 1.77833 36.9691 2.30505C38.0228 2.95332 39.0766 3.48004 40.2114 4.16882Z" fill="#35B777"></path><path d="M51.6405 7.16963C50.1814 7.53428 48.8034 8.02048 47.3444 8.26358C46.6554 8.38513 46.0475 8.18255 45.5206 7.69634C44.9532 7.16963 44.4668 6.52136 43.9805 5.87309C46.8986 4.53604 48.9656 4.86017 51.6405 7.16963Z" fill="#35B777"></path><path d="M19.6637 70.3763C19.0962 70.0522 18.5288 69.728 17.8398 69.3229C18.772 69.2418 19.0557 69.4039 19.6637 70.3763Z" fill="#35B777"></path><path d="M38.9043 16.8877C43.2163 16.5182 46.6738 18.617 48.3574 22.5986H48.3564C49.5418 25.3365 49.8684 28.1956 49.542 31.0918V31.0928C48.3207 41.4893 43.5866 49.9427 35.5293 56.4473L34.7393 57.0703C32.6174 58.702 30.2492 59.8454 27.5947 60.417H27.5938C24.8115 60.9896 22.3149 60.6234 20.3115 59.4238C18.3086 58.2244 16.8117 56.2 16.0137 53.4805L15.8281 52.8223C15.4261 51.2858 15.2426 49.7443 15.2783 48.1719C15.3549 42.9822 16.8275 38.1892 19.1543 33.6602L19.6309 32.7568C22.3945 27.6377 26.0147 23.2038 30.8994 19.9482C33.3403 18.3215 35.9557 17.0939 38.9043 16.8887V16.8877ZM47.3467 23.1045C45.9096 19.5928 42.8426 17.7588 39.0879 18.0381L39.0889 18.0391C36.8334 18.227 34.7855 19.0139 32.8779 20.1074L32.498 20.3301C27.6981 23.2334 24.1457 27.308 21.3574 32.1152L21.3564 32.1162C18.4069 37.0441 16.5517 42.3706 16.4307 48.1777C16.4308 49.9923 16.608 51.7635 17.1914 53.4629L17.3135 53.8018L17.3145 53.8037L17.4551 54.1768C18.1855 56.0144 19.3205 57.4106 20.7568 58.3057C22.2886 59.2601 24.1727 59.6508 26.2949 59.3906L26.8486 59.3125C29.5965 58.8671 32.0653 57.6316 34.2559 55.9326L34.9707 55.3672C42.2585 49.4632 46.6633 41.7859 48.1895 32.5146L48.2803 31.918C48.6666 29.1334 48.5356 26.3609 47.5674 23.6777L47.3467 23.1045Z" fill="white" stroke="black" stroke-width="0.260444"></path><path d="M39.0283 17.7344C42.7719 17.4558 45.868 19.225 47.4043 22.626L47.5479 22.9609L47.7725 23.5449C48.8282 26.4711 48.9037 29.4952 48.4072 32.5117L48.4062 32.5127C46.7798 42.1867 42.1427 50.1162 34.375 56.0928L34.376 56.0938C32.1602 57.8123 29.6863 59.1064 26.8555 59.5312L26.2852 59.6045C24.1121 59.8503 22.177 59.441 20.5938 58.4512C19.0105 57.4613 17.7876 55.8964 17.0293 53.8477L17.0283 53.8447C16.4147 52.0454 16.1709 50.1262 16.1709 48.1709V48.1689L16.1836 47.6211C16.3726 41.9735 18.2576 36.8193 21.0918 31.9395L21.0928 31.9385L21.6279 31.0479C24.3497 26.6307 27.7801 22.8105 32.3232 20.0625L32.3242 20.0615L32.708 19.8359C34.637 18.7257 36.7224 17.8892 39.0283 17.7354V17.7344Z" fill="white" stroke="white" stroke-width="0.260444"></path><path d="M38.6357 27.7275C39.3707 27.4711 40.1679 27.585 41.001 28.0928C41.8353 28.6014 42.3203 29.2535 42.4639 30.0254C42.608 30.8012 42.4116 31.7221 41.834 32.7744C40.6183 34.9326 39.3816 37.0801 38.1396 39.2227L34.4131 45.6416L34.4121 45.6436C34.1031 46.1996 33.7485 46.6613 33.2598 46.9854C32.7766 47.3057 32.1503 47.4987 31.2812 47.502C29.324 46.7289 26.9977 45.9668 25.4375 43.9453L25.2881 43.7441L25.2871 43.7432L25.1504 43.541C24.862 43.0697 24.7805 42.5964 24.8408 42.127C24.9103 41.5862 25.1689 41.0408 25.5391 40.5059L25.54 40.5068C26.3342 39.4106 27.5044 39.0334 28.5967 39.416L28.8135 39.5029H28.8145C29.5885 39.8468 30.1323 39.8525 30.5684 39.5898C30.882 39.4008 31.123 39.0799 31.3545 38.7051L31.585 38.3154L31.5859 38.3145C33.0169 35.7835 34.4475 33.254 35.9336 30.7529L36.5732 29.6826L36.5742 29.6807C37.194 28.6274 37.8959 27.9857 38.6357 27.7275ZM39.2881 29.3975C39.0433 29.4109 38.8431 29.5231 38.6777 29.6768C38.5142 29.8288 38.3796 30.0269 38.2617 30.2246C38.2024 30.324 38.1465 30.4259 38.0928 30.5234L37.9355 30.8018C36.5735 33.1203 35.2851 35.4866 33.916 37.8125L33.3242 38.8066V38.8076C33.0388 39.2831 32.7777 39.8477 32.5088 40.3604C32.2356 40.8811 31.9503 41.3553 31.6055 41.6875C31.2654 42.0151 30.8724 42.2002 30.373 42.1553C29.8651 42.1095 29.227 41.8243 28.4082 41.1611L28.3711 41.1309H28.3242C28.2816 41.1309 28.2352 41.1314 28.1904 41.127C28.1444 41.1224 28.1112 41.1136 28.0908 41.1035L28.0625 41.0898H28.0303C27.445 41.0898 26.9755 41.3185 26.6963 41.8301L26.8145 41.8945L26.6953 41.8301L26.6924 41.8379C26.5327 42.1799 26.5167 42.5006 26.626 42.7861C26.7205 43.033 26.9037 43.2402 27.1416 43.4072L27.2471 43.4766C27.7321 43.7717 28.2395 44.0467 28.7354 44.3232C29.2323 44.6004 29.7203 44.8801 30.1758 45.1904V45.1914C30.8201 45.6422 31.3775 45.7922 31.8799 45.6387C32.3752 45.4872 32.7747 45.052 33.1357 44.4365L33.0195 44.3682L33.1367 44.4365L33.1377 44.4336C34.2905 42.3801 35.4534 40.3368 36.6221 38.2988L40.1387 32.1953L40.1406 32.1924C40.3663 31.7823 40.623 31.339 40.6904 30.9121C40.7249 30.6935 40.7107 30.473 40.6172 30.2588C40.5471 30.0983 40.4354 29.9472 40.2754 29.8066L40.0996 29.6699L40.0977 29.668L39.9863 29.5996C39.7321 29.4504 39.5009 29.3859 39.2881 29.3975Z" fill="#35B777" stroke="black" stroke-width="0.269451"></path><path d="M28.0303 41.2241C28.1142 41.2241 28.1981 41.2241 28.2819 41.266C31.5945 43.9488 32.2653 40.763 33.3975 38.8767C34.9909 36.2359 36.4584 33.5112 38.0099 30.8704C38.4292 30.1577 38.8485 29.026 39.9806 29.7805C40.945 30.4512 40.4838 31.2895 39.9806 32.1279C37.6325 36.1939 35.2844 40.3019 32.9782 44.3679C32.3073 45.5836 31.4687 45.9608 30.2107 45.0805C29.2883 44.4518 28.24 43.9488 27.2756 43.3619C26.7305 43.0266 26.4789 42.5236 26.7724 41.8948C27.0659 41.4337 27.5272 41.2241 28.0303 41.2241Z" fill="#35B777"></path></svg>