<svg xmlns="http://www.w3.org/2000/svg" width="61" height="91" viewBox="0 0 61 91" fill="none"><path d="M48.7852 1.56543C50.2384 0.945046 51.5959 0.987425 53.0039 1.8125V1.81348C54.8088 2.92856 56.678 3.92671 58.4717 4.99219V4.99316C59.8218 5.80162 60.4179 7.03961 60.5215 8.53418L60.5352 8.83594C60.5781 10.6802 60.5781 12.525 60.5781 14.415V32.8037L60.5938 32.7871C60.5953 32.8527 60.5979 32.9257 60.5996 33.0059C60.6083 33.4195 60.6185 34.0215 60.6289 34.7686C60.6497 36.2626 60.6726 38.3361 60.6914 40.6416C60.7196 44.1 60.7388 48.0799 60.7285 51.4111L60.708 54.4834V54.4844C60.6667 59.4569 58.5159 63.345 54.3242 65.9355L53.9121 66.1826C47.2206 70.0692 40.5182 73.9341 33.8105 77.7939L13.6758 89.374L13.6729 89.376C13.1123 89.7116 12.5563 90.0122 11.9746 90.251L11.7246 90.3486C10.3601 90.8438 9.12617 90.681 7.87793 89.9336H7.87695C6.64935 89.1599 5.39783 88.4106 4.14062 87.6855L2.88184 86.9678L2.87793 86.9668L2.58496 86.7979C1.26549 85.9847 0.600229 84.8 0.421875 83.2783L0.391602 82.9473L0.390625 82.9424L0.366211 82.627C0.348487 82.312 0.348633 81.9949 0.348633 81.6719V81.6709C0.327116 75.2718 0.305696 68.8727 0.28418 62.4736L0.219727 43.2754C0.219713 41.4625 0.153283 39.6354 0.194336 37.8291L0.219727 37.0557V37.0547C0.384591 32.242 2.42127 28.3991 6.44727 25.8906L6.84277 25.6523C16.8803 19.8223 26.9419 14.0162 37.0098 8.23438L47.0791 2.46094L47.084 2.45801C47.6348 2.11977 48.2299 1.8226 48.7861 1.56641L48.7852 1.56543ZM1.9541 42.9053C1.78898 42.8076 1.56121 42.7258 1.3252 42.8604C1.08468 42.9976 1.0506 43.2397 1.05664 43.4268C1.05968 43.5208 1.07293 43.6178 1.08398 43.7002C1.09569 43.7875 1.10544 43.859 1.10547 43.9199V43.9209C1.12698 49.4608 1.13768 55.0008 1.14844 60.541C1.15382 63.3113 1.15929 66.0822 1.16602 68.8525L1.19141 77.1631V82.6592C1.19141 83.6751 1.34139 84.7873 2.16113 85.5693L2.33398 85.7207L2.33789 85.7236C2.90758 86.161 3.54016 86.5421 4.1875 86.9082C4.83902 87.2767 5.49922 87.6265 6.14258 88.0117L6.41602 88.1758V84.9785L6.35742 65.7803C6.34128 59.3811 6.33008 52.9821 6.33008 46.583C6.33008 46.2322 6.29847 45.9284 6.16602 45.6641C6.04777 45.4281 5.85871 45.2409 5.58301 45.0752L5.45996 45.0059L5.45801 45.0049L5.06055 44.793C4.14297 44.2911 3.28302 43.7381 2.37109 43.207C2.31525 43.1694 2.25607 43.123 2.18555 43.0684C2.11624 43.0146 2.03735 42.9545 1.9541 42.9053ZM52.3633 2.25293C51.4877 1.76173 50.6048 1.71528 49.6992 2.02051L49.5049 2.0918L49.501 2.09277C49.1077 2.25631 48.7147 2.44408 48.3223 2.65625L47.9307 2.87695C34.4617 10.6501 20.9931 18.4233 7.52441 26.1533C5.5601 27.2425 4.07648 28.7238 2.90039 30.5918C2.83402 30.6911 2.7751 30.7882 2.73535 30.8828C2.69535 30.9781 2.66953 31.0823 2.68262 31.1914C2.70321 31.3627 2.81002 31.4943 2.96582 31.6055L3.13574 31.71C4.13433 32.2565 5.13267 32.8267 6.1123 33.4209L7.08496 34.0234C7.32714 34.1772 7.56034 34.272 7.78711 34.2051C8.00796 34.1398 8.15673 33.9392 8.28613 33.7031C9.35878 31.8397 10.8411 30.3839 12.7031 29.2656L13.0801 29.0459H13.082C25.3464 22.0027 37.6102 14.9151 49.8311 7.87207L49.832 7.87305C51.8274 6.74748 53.6551 5.51488 55.834 4.66211L56.1797 4.52734L55.8604 4.33789C54.8359 3.73204 53.8597 3.20142 52.9434 2.62012L52.5547 2.36719L52.5518 2.36523L52.3633 2.25293ZM6.28711 42.7578C6.24665 40.4564 6.20964 38.2363 7.07422 36.1289L7.25977 35.709L7.26172 35.7051C7.31201 35.5921 7.33833 35.4849 7.33301 35.3828C7.32746 35.2765 7.28838 35.1891 7.23145 35.1191C7.17768 35.0531 7.1105 35.0057 7.05273 34.9697C7.0233 34.9514 6.9931 34.9344 6.96582 34.9189C6.93751 34.9029 6.91213 34.8887 6.8877 34.874H6.88672C6.39102 34.5729 5.89543 34.2826 5.40137 33.9932L3.91895 33.1143L3.91699 33.1123L3.33008 32.7744C3.15666 32.6778 3.00399 32.5983 2.87012 32.5391C2.61022 32.424 2.36349 32.3583 2.14453 32.4531C1.92745 32.5473 1.80236 32.7717 1.70117 33.042C1.64898 33.1815 1.59784 33.3492 1.54395 33.5439L1.36914 34.21C1.06217 35.3481 0.986875 36.4822 0.981445 37.6055C0.978741 38.1669 0.993109 38.7289 1.00586 39.2861C1.01224 39.5652 1.01856 39.8434 1.02148 40.1211L1.01855 40.9531V40.957C1.01859 41.0891 1.04579 41.2179 1.1123 41.3359C1.16212 41.4242 1.23084 41.5002 1.31641 41.5654L1.4082 41.6279C2.91527 42.5304 4.3802 43.3893 5.8877 44.249L6.05957 44.3477L6.1416 44.167C6.37833 43.6472 6.28714 43.1493 6.28711 42.7607V42.7578ZM59.9941 35.8496C59.9939 35.8246 59.9936 35.787 59.9932 35.7383C59.9922 35.6408 59.99 35.4969 59.9883 35.3115C59.9848 34.9405 59.9797 34.4026 59.9736 33.7373C59.9615 32.4067 59.9458 30.5643 59.9297 28.5166C59.8974 24.4205 59.8652 19.5035 59.8652 16.2188C59.8652 16.059 59.8625 15.9124 59.8457 15.7939C59.83 15.6836 59.7964 15.5485 59.6924 15.4619C59.5748 15.3641 59.4286 15.374 59.3047 15.4111C59.2423 15.4298 59.1741 15.4584 59.0996 15.4961L58.8564 15.6357H58.8555C58.3848 15.9347 57.8929 16.2234 57.3945 16.5068L55.8936 17.3496L55.8926 17.3506C43.9184 24.2759 31.9436 31.1761 19.9512 38.0713L7.95215 44.9658L7.94824 44.9688C7.65972 45.1459 7.43695 45.325 7.29102 45.5654C7.14376 45.8082 7.08692 46.0922 7.08691 46.4541V46.4551C7.17298 59.5539 7.21582 72.6531 7.21582 85.752C7.21583 86.2476 7.24906 86.7813 7.34668 87.293L7.39258 87.5107L7.39355 87.5127C7.61744 88.4287 8.08188 89.1193 8.74023 89.5146C9.39803 89.9097 10.2235 89.9937 11.1406 89.749L11.1416 89.75C11.68 89.6157 12.1433 89.3803 12.5918 89.1279L13.0381 88.873L13.0391 88.8721C19.7739 84.9853 26.52 81.0987 33.2656 77.2119L53.4912 65.5508H53.4922C57.632 63.1476 59.7722 59.5504 59.9414 54.8584L59.9512 54.4014V54.4004C59.9942 48.2582 59.9941 42.073 59.9941 35.8887V35.8496Z" fill="#35B777" stroke="black" stroke-width="0.362462"></path><path d="M59.8125 35.8896C59.8125 42.0742 59.8555 48.2158 59.8125 54.4003C59.7695 59.2535 57.6608 62.947 53.4434 65.3951C39.9736 73.1687 26.4608 80.9423 12.9911 88.7159C12.3886 89.0595 11.7861 89.4031 11.1406 89.5749C9.3762 90.0473 8.04213 89.2313 7.61179 87.4704C7.48268 86.9121 7.43965 86.3538 7.43965 85.7525C7.39662 72.6533 7.35358 59.5541 7.31055 46.4549C7.31055 45.7677 7.52572 45.4241 8.08517 45.1235C24.0509 35.9326 40.0167 26.7417 55.9824 17.5507C56.9722 16.9924 58.005 16.4341 58.9518 15.8328C59.5973 15.4033 59.6834 15.6181 59.6834 16.2623C59.6834 22.7904 59.7695 35.8896 59.8125 35.8896ZM52.1954 45.1235C52.1524 44.1786 52.0663 43.2767 51.8942 42.4178C51.7651 41.7306 51.5929 41.0864 51.3778 40.4421C49.6564 34.9877 45.1378 32.1961 39.4572 33.141C35.9284 33.7422 32.916 35.3743 30.1618 37.5646C23.5345 42.7614 19.188 49.5472 16.5199 57.4496C15.5301 60.3701 14.9707 63.4194 14.8416 66.5117C14.7985 67.3707 15.1858 67.6284 15.8744 67.2418C18.3273 65.8675 20.7373 64.4502 23.1902 63.0329C23.5345 62.8182 23.6636 62.5605 23.7066 62.174C24.094 56.9343 26.2887 52.5106 29.7315 48.6882C31.625 46.5408 33.8628 44.8658 36.703 44.1357C39.5433 43.4485 41.8241 44.6511 42.8569 47.3568C43.2012 48.2158 43.3303 49.0747 43.4164 49.9767C43.5025 51.0074 43.7607 51.1363 44.6644 50.6209C46.8591 49.3754 49.0539 48.044 51.2917 46.8414C52.0233 46.4549 52.4536 45.9395 52.1954 45.1235ZM30.42 67.8861C30.42 68.4014 30.42 68.7021 30.42 69.0027C30.5921 71.3219 32.3566 72.3527 34.4652 71.3649C34.7665 71.236 35.0677 71.0642 35.3259 70.8495C37.7359 68.9168 39.0699 66.5117 38.6396 63.3765C38.0371 58.781 37.0473 54.2285 35.9714 49.719C35.8423 49.1606 35.7132 48.6023 35.0247 48.5164C34.3361 48.4305 33.9058 48.86 33.5615 49.3754C33.1742 49.9337 33.1312 50.6209 33.0451 51.2651C31.9692 56.8484 31.0655 62.4316 30.42 67.8861Z" fill="#F6F6F6"></path><path d="M59.6833 11.626C59.7693 13.5158 59.1669 14.3747 57.3594 15.4055C40.9203 24.8111 24.4812 34.3027 8.04202 43.7943C7.31044 44.2237 7.31044 44.2237 7.2674 43.3218C7.22437 40.9167 7.09527 38.4687 8.12809 36.1495C9.33305 33.4867 11.0544 31.3393 13.6365 29.879C27.1063 22.1484 40.576 14.3747 54.0888 6.6011C54.8204 6.17162 55.552 5.78509 56.4127 5.69919C57.7467 5.57034 58.7365 6.08572 59.2099 7.07353C59.382 7.41712 59.4681 7.8466 59.5111 8.23313C59.5542 8.96325 59.6402 10.4664 59.6833 11.626ZM15.7882 34.1739C15.8312 34.5174 15.8743 34.8181 16.1755 35.0328C16.4768 35.2476 16.821 35.1187 17.0792 34.9469C17.8539 34.4315 18.2842 33.7014 18.3272 32.7566C18.3272 31.9835 17.7678 31.6829 17.1223 32.0265C16.2616 32.4989 15.9173 33.2719 15.7882 34.1739ZM23.061 30.1367C23.061 29.3207 22.5446 29.0201 21.8561 29.3207C21.1245 29.6643 20.4359 30.781 20.522 31.597C20.565 32.3271 21.0814 32.6277 21.727 32.2841C22.5446 31.8117 22.9319 31.0386 23.061 30.1367ZM11.0975 36.7078C11.0544 37.6956 11.5278 38.0821 12.2164 37.7386C12.9479 37.395 13.6795 36.1924 13.5504 35.3764C13.4644 34.6463 12.9479 34.3886 12.3455 34.7751C11.5708 35.2476 11.1835 35.9347 11.0975 36.7078Z" fill="#9DD4B2"></path><path d="M55.7689 4.49369C53.5741 5.35266 51.7237 6.59815 49.7871 7.71481C37.5223 14.7583 25.2575 21.8448 12.9927 28.8883C10.9271 30.0479 9.33479 31.594 8.12982 33.6126C7.87162 34.085 7.65644 34.1709 7.18307 33.8703C5.89204 33.0543 4.55797 32.2812 3.2239 31.5511C2.75053 31.2934 2.79356 31.0786 3.05177 30.6921C4.21369 28.8453 5.67686 27.3851 7.61341 26.3114C21.0832 18.5807 34.5529 10.8071 48.0227 3.03345C48.5391 2.73282 49.0125 2.47513 49.5719 2.26038C50.5617 1.87385 51.5515 1.95975 52.4552 2.51807C53.5311 3.20525 54.607 3.80652 55.7689 4.49369Z" fill="#35B777"></path><path d="M6.23626 87.8577C4.98827 87.1276 3.56813 86.4834 2.4062 85.4956C1.50248 84.7655 1.37338 83.6488 1.33034 82.5751C1.28731 80.7283 1.33034 78.9245 1.33034 77.0777C1.28731 65.9971 1.28731 54.9164 1.24428 43.8358C1.24428 43.5352 1.07214 43.1057 1.37338 42.9339C1.67462 42.7621 1.97586 43.1486 2.23407 43.2775C3.26689 43.8788 4.29972 44.523 5.33254 45.0813C5.97806 45.4249 6.10716 45.8114 6.10716 46.4986C6.10716 59.2972 6.1502 72.0957 6.19323 84.8943C6.23626 85.8821 6.23626 86.827 6.23626 87.8577Z" fill="#35B777"></path><path d="M5.9761 44.093C4.4699 43.2341 3.00673 42.3322 1.50053 41.4732C1.28535 41.3444 1.19928 41.1726 1.19928 40.9578C1.24232 38.7245 0.941078 36.4912 1.50053 34.3009C2.01694 32.2393 2.01694 32.2393 3.78135 33.313C4.77114 33.9143 5.76093 34.4726 6.75072 35.0739C6.96589 35.2028 7.2241 35.2887 7.05196 35.6752C5.9761 37.9515 6.01913 40.3566 6.06217 42.8046C6.1052 43.1911 6.19127 43.6206 5.9761 44.093Z" fill="#35B777"></path><path d="M52.1957 45.125C52.4539 45.9839 52.0666 46.4564 51.2489 46.9288C49.0112 48.1313 46.8164 49.4627 44.6217 50.7082C43.7179 51.2236 43.5028 51.0948 43.3737 50.064C43.2876 49.1621 43.1585 48.2602 42.8142 47.4442C41.7814 44.7384 39.4575 43.5359 36.6603 44.2231C33.82 44.9102 31.5822 46.6281 29.6887 48.7756C26.246 52.6409 24.0512 57.0646 23.6639 62.2613C23.6209 62.6478 23.4918 62.9055 23.1475 63.1203C20.6945 64.5376 18.2846 65.9119 15.8317 67.3292C15.1431 67.7157 14.7988 67.458 14.7988 66.5991C14.8849 63.5068 15.4443 60.4575 16.4772 57.537C19.1453 49.6345 23.5348 42.8487 30.1191 37.652C32.8733 35.4616 35.9287 33.8296 39.4145 33.2283C45.095 32.2834 49.5706 35.0751 51.335 40.5295C51.5502 41.1737 51.7223 41.8609 51.8514 42.5051C52.0666 43.2782 52.1527 44.1372 52.1957 45.125ZM33.9922 40.0141C34.0352 40.0141 34.0352 40.0141 33.9922 40.0141C34.0352 41.0449 34.0352 42.0756 33.9922 43.1064C33.9922 43.7077 34.0782 43.8795 34.7237 43.6218C36.4882 42.8487 38.3386 42.591 40.2321 43.2352C40.7055 43.407 40.7916 43.1064 40.9637 42.8058C42.2548 40.5725 43.5458 38.3391 44.8799 36.0629C45.6114 34.8174 45.6114 34.7744 44.1913 34.3879C40.6625 33.486 37.4779 34.5168 34.3795 36.1488C34.0352 36.3206 34.0352 36.5783 34.0352 36.8789C33.9922 37.9097 33.9922 38.9404 33.9922 40.0141ZM32.9163 37.0507C32.6581 37.1795 32.486 37.2654 32.3569 37.3513C27.8813 40.3577 24.4816 44.3519 21.6413 48.9044C21.3831 49.3339 21.5552 49.4627 21.8995 49.6345C23.0184 50.2787 24.1373 50.88 25.2562 51.5672C25.7726 51.8678 25.9878 51.8249 26.332 51.3095C27.9243 48.7326 29.9469 46.5423 32.486 44.8243C32.7011 44.6955 32.9593 44.5666 32.9163 44.2231C32.8733 41.8609 32.9163 39.5417 32.9163 37.0507ZM51.0768 44.8673C50.9477 44.0083 50.9047 43.407 50.7756 42.8487C50.2592 40.143 49.2694 37.7379 47.0746 35.934C46.8164 35.7193 46.5582 35.4616 46.257 35.977C44.8368 38.5109 43.3306 41.0449 41.8675 43.5359C41.6953 43.7936 41.6523 44.0083 41.9105 44.2231C43.3306 45.4256 43.9761 47.0576 44.2774 48.8615C44.3634 49.4198 44.5786 49.3768 44.9659 49.1621C46.6873 48.1743 48.4087 47.1435 50.1301 46.1987C50.8616 45.8121 51.335 45.4685 51.0768 44.8673ZM16.0468 64.7094C16.0899 65.0529 15.8317 65.4824 16.1329 65.6542C16.4341 65.826 16.7354 65.4824 16.9936 65.3106C18.6719 64.3658 20.3503 63.378 22.0286 62.4331C22.3298 62.2613 22.5881 62.1325 22.5881 61.7459C22.8032 58.8254 23.7069 56.0768 25.041 53.4999C25.2562 53.1133 25.2131 52.8986 24.8258 52.6838C23.6639 52.0396 22.502 51.3954 21.3401 50.7082C20.9097 50.4505 20.7376 50.5794 20.5224 50.9659C18.1555 55.2607 16.5632 59.8133 16.0468 64.7094Z" fill="#100F0C"></path><path d="M30.42 67.8885C31.0655 62.477 31.9692 56.8508 33.002 51.2675C33.1312 50.6233 33.1742 49.9791 33.5185 49.3778C33.8627 48.8624 34.2931 48.4329 34.9816 48.5188C35.6702 48.6047 35.7993 49.163 35.9284 49.7214C37.0473 54.2309 37.994 58.7405 38.5965 63.3789C39.0269 66.5141 37.6928 68.9192 35.2829 70.8519C35.0247 71.0666 34.7234 71.1955 34.4222 71.3673C32.3135 72.3551 30.5491 71.3673 30.377 69.0051C30.42 68.7045 30.42 68.4038 30.42 67.8885ZM34.7665 49.7214C34.2931 50.1079 34.2931 50.4944 34.207 50.881C33.3033 55.3476 32.6147 59.8571 32.0123 64.3667C31.7971 65.8699 31.4958 67.3731 31.5819 68.9192C31.668 70.4654 32.6578 71.0237 34.0779 70.3365C36.1866 69.3058 37.8649 66.2994 37.6067 63.9802C37.4346 62.2193 37.0903 60.4584 36.746 58.7405C36.1866 55.7341 35.5841 52.7707 34.7665 49.7214Z" fill="#100F0C"></path><path d="M15.7891 34.1742C15.9182 33.2723 16.3055 32.4992 17.1231 32.0268C17.7686 31.6402 18.3281 31.9838 18.3281 32.7569C18.3281 33.7017 17.8547 34.4319 17.0801 34.9472C16.8219 35.119 16.4776 35.2479 16.1764 35.0331C15.8321 34.8613 15.7891 34.5178 15.7891 34.1742Z" fill="#F6F6F6"></path><path d="M23.0607 30.1359C22.9316 31.0378 22.5873 31.8109 21.6836 32.2833C21.038 32.6269 20.5647 32.3263 20.4786 31.5962C20.4356 30.7802 21.0811 29.6635 21.8127 29.3199C22.5012 28.9763 23.0176 29.3199 23.0607 30.1359Z" fill="#F6F6F6"></path><path d="M11.0984 36.7049C11.1845 35.9748 11.5718 35.2447 12.3464 34.7723C12.9919 34.3857 13.5083 34.6864 13.5514 35.3735C13.6374 36.1896 12.9489 37.3921 12.2173 37.7357C11.5288 38.0363 11.0554 37.6927 11.0984 36.7049Z" fill="#F6F6F6"></path><path d="M33.9922 40.01C33.9922 38.9792 33.9922 37.9485 33.9922 36.9177C33.9922 36.6171 34.0352 36.3164 34.3365 36.1876C37.4349 34.5985 40.6625 33.5248 44.1913 34.5126C45.6115 34.8991 45.6115 34.9421 44.8799 36.1876C43.5889 38.4209 42.2978 40.6542 40.9638 42.9304C40.7916 43.2311 40.6625 43.4888 40.2322 43.3599C38.3387 42.7157 36.4882 42.9734 34.7238 43.7465C34.0783 44.0041 33.9922 43.8324 33.9922 43.2311C34.0352 42.0715 34.0352 41.0407 33.9922 40.01C34.0352 40.01 34.0352 40.01 33.9922 40.01Z" fill="#9DD4B2"></path><path d="M32.9169 37.0469C32.9169 39.5379 32.9169 41.8571 32.9169 44.2192C32.9169 44.5628 32.7017 44.6917 32.4866 44.8205C29.9475 46.4955 27.9249 48.7288 26.3326 51.3057C25.9884 51.8211 25.7732 51.864 25.2568 51.5634C24.1809 50.8762 23.019 50.2749 21.9001 49.6307C21.5558 49.4589 21.3837 49.2871 21.6419 48.9006C24.4391 44.3481 27.8819 40.3539 32.3575 37.3475C32.4866 37.2616 32.6157 37.1757 32.9169 37.0469Z" fill="#F6F6F6"></path><path d="M51.0766 44.8631C51.3348 45.4643 50.8614 45.8079 50.1729 46.1945C48.4085 47.1393 46.7301 48.1701 45.0087 49.1579C44.6214 49.3726 44.4063 49.4156 44.3202 48.8572C44.062 47.0534 43.3734 45.4643 41.9533 44.2188C41.6521 43.9611 41.7381 43.7894 41.9103 43.5317C43.3734 40.9977 44.8366 38.5067 46.2998 35.9728C46.601 35.4574 46.8162 35.7151 47.1174 35.9298C49.3122 37.7337 50.302 40.1388 50.8184 42.8445C50.9045 43.4028 50.9905 44.0041 51.0766 44.8631Z" fill="#F6F6F6"></path><path d="M16.0466 64.7055C16.563 59.8094 18.1983 55.2568 20.5222 50.8761C20.7373 50.4896 20.9095 50.3608 21.3398 50.6184C22.5018 51.3056 23.6637 51.9498 24.8256 52.5941C25.2129 52.8088 25.256 53.0235 25.0408 53.4101C23.7067 55.987 22.803 58.7357 22.5878 61.6561C22.5448 62.0856 22.2866 62.2145 22.0284 62.3433C20.35 63.3311 18.6717 64.276 16.9934 65.2208C16.7351 65.3926 16.4339 65.7362 16.1327 65.5644C15.8314 65.4785 16.0896 65.049 16.0466 64.7055Z" fill="#9DD4B2"></path><path d="M34.7661 49.7188C35.5837 52.7681 36.1862 55.7315 36.7026 58.6949C37.0039 60.4558 37.3912 62.1737 37.5633 63.9346C37.7785 66.2538 36.1432 69.2602 34.0345 70.2909C32.6144 70.9781 31.6246 70.4627 31.5385 68.8737C31.4524 67.3275 31.7537 65.8243 31.9689 64.3211C32.6144 59.8116 33.3029 55.302 34.1636 50.8354C34.2927 50.4918 34.3357 50.0623 34.7661 49.7188ZM36.0141 65.0083C36.0141 64.0205 35.3255 63.591 34.594 64.0635C33.6902 64.6218 33.2169 65.4378 33.1738 66.5115C33.1308 67.4134 33.8193 67.8 34.594 67.3275C35.4546 66.8121 35.885 65.9532 36.0141 65.0083Z" fill="#35B777"></path><path d="M36.0141 65.0091C35.885 65.954 35.4547 66.813 34.551 67.3284C33.7763 67.8008 33.0878 67.4142 33.1308 66.5123C33.1739 65.4816 33.6472 64.6226 34.551 64.0643C35.3686 63.6348 36.0141 64.0213 36.0141 65.0091Z" fill="#100F0C"></path></svg>