<svg xmlns="http://www.w3.org/2000/svg" width="58" height="87" viewBox="0 0 58 87" fill="none"><path d="M47.5684 0.740234C48.6473 0.71573 49.7143 1.05417 50.792 1.82617L51.2012 2.11133C52.1648 2.76581 53.1918 3.35068 54.2207 3.86523L54.6045 4.06641C55.4644 4.55675 56.074 5.18095 56.4775 5.92676C56.937 6.77588 57.1201 7.76633 57.1201 8.86523C57.1201 10.5792 57.1279 12.2932 57.1357 14.0078C57.1435 15.7224 57.1514 17.4381 57.1514 19.1533V31.3115C57.1514 38.4689 57.3075 45.5972 57.2764 52.7305V52.7314C57.2456 57.5776 55.1874 61.3379 51.1416 63.8438L50.7432 64.082C38.427 71.2223 26.0833 78.2972 13.7686 85.4678L13.7695 85.4688C12.6611 86.118 11.5797 86.5258 10.4844 86.5586C9.38366 86.5915 8.29153 86.245 7.16699 85.4258V85.4248C6.32531 84.8207 4.80348 83.9015 3.95996 83.4004L3.39258 83.0654L3.28906 82.9902C3.15016 82.8651 2.59214 82.3493 2.05957 81.6709C1.53525 81.0029 0.99914 80.1325 0.96582 79.3037L0.922852 78.4434C0.911086 78.1531 0.903342 77.8619 0.90332 77.5781L0.817383 56.0195C0.794001 48.8334 0.778321 41.6472 0.77832 34.4609C0.77832 29.6151 2.90638 25.7678 7.12305 23.3262L11.7686 20.6201C22.6158 14.3159 33.5212 8.08315 44.3467 1.78418L44.751 1.55859C45.6933 1.05906 46.6276 0.761697 47.5684 0.740234Z" fill="#35B777" stroke="black" stroke-width="0.443171"></path><path d="M57.0996 12.6365C57.0996 14.2883 57.1067 16.3014 57.1143 18.2839C57.1218 20.2661 57.1289 22.2178 57.1289 23.7458L57.168 31.03C57.2173 38.3452 57.2861 45.7276 57.2627 52.9529C57.2623 57.3586 54.3524 61.6516 51.166 63.6541L50.8574 63.8406C44.716 67.3945 38.3715 71.0719 32.0273 74.7498C25.683 78.4277 19.338 82.1058 13.1963 85.6599L13.1914 85.6628L13.0859 85.4685L13.1904 85.6628V85.6638H13.1895C13.1886 85.6643 13.1871 85.665 13.1855 85.6658C13.1822 85.6676 13.1771 85.6703 13.1709 85.6736C13.1585 85.6801 13.1404 85.6901 13.1172 85.7019C13.0708 85.7255 13.0035 85.7587 12.9189 85.7986C12.7496 85.8784 12.5099 85.9846 12.2266 86.0906C11.7345 86.2746 11.097 86.4629 10.4648 86.5046L10.1943 86.5134C9.52321 86.5097 8.90816 86.2807 8.46387 86.0652C8.2404 85.9568 8.05626 85.8506 7.92773 85.7742C7.86133 85.7347 7.8152 85.7068 7.78223 85.6882C7.7743 85.6838 7.76912 85.6803 7.76562 85.6785C7.73424 85.6696 7.70746 85.6588 7.68848 85.6443C7.63987 85.607 7.61999 85.5598 7.61523 85.5486C7.60166 85.5166 7.59632 85.4841 7.59375 85.4685C7.58734 85.4296 7.58236 85.3787 7.5791 85.324C7.57238 85.2109 7.56861 85.049 7.56641 84.8582C7.562 84.4752 7.56544 83.9602 7.57129 83.4451C7.57714 82.9295 7.58546 82.4116 7.59277 82.0232C7.59643 81.8292 7.60016 81.6669 7.60254 81.5535C7.60372 81.4969 7.60481 81.452 7.60547 81.4216C7.60579 81.4067 7.6053 81.3952 7.60547 81.3875C7.60552 81.3852 7.60641 81.3832 7.60645 81.3816L7.50879 62.5359C7.47372 56.254 7.43446 49.972 7.3877 43.6902V40.1511L7.49902 40.0876L10.3457 38.4587C17.0118 34.6631 23.8382 30.9026 30.6631 27.1433C38.4617 22.8476 46.2581 18.5525 53.8145 14.2058L55.4424 13.2322C55.7855 13.0279 56.1167 12.8307 56.3613 12.6853C56.4833 12.6128 56.5841 12.5532 56.6543 12.5115C56.6893 12.4907 56.7166 12.4738 56.7354 12.4626C56.7447 12.4571 56.752 12.4528 56.7568 12.45C56.7592 12.4485 56.7615 12.4477 56.7627 12.447L56.7637 12.446H56.7646L57.0996 12.2468V12.6365ZM7.83008 85.6882C7.83291 85.6882 7.83585 85.6893 7.83887 85.6892C7.85049 85.6888 7.86738 85.6851 7.8877 85.6794C7.87014 85.6846 7.85125 85.6878 7.83008 85.6882ZM7.78809 85.6843H7.79102C7.78485 85.6834 7.77924 85.6818 7.77344 85.6804C7.7772 85.6816 7.78213 85.683 7.78809 85.6843Z" fill="white" stroke="black" stroke-width="0.443171"></path><path d="M51.7002 4.07129C52.9834 3.56112 54.248 3.90772 55.2129 4.67188C56.2362 5.48243 56.9436 6.77655 57.0117 8.07129L57.0254 8.52051C57.0299 8.97497 57.0127 9.46174 57.0127 10.1279V12.4316L56.9004 12.4961C43.0332 20.4244 24.9099 30.2971 10.542 38.5166L7.7207 40.1377L7.3877 40.3291V39.0518L7.36719 38.0527C7.35577 35.7458 7.60849 33.6204 8.34473 31.7471C9.18888 29.5994 10.6645 27.7949 13.0771 26.4297L17.584 23.8555C28.0594 17.8445 38.2922 11.7959 48.7959 5.71191L50.1016 4.94043C50.6655 4.61053 51.253 4.27235 51.4434 4.18457L51.7002 4.07129Z" fill="#9DD4B2" stroke="black" stroke-width="0.443171"></path><path d="M1.07422 38.3695L7.32324 39.9115L7.49805 39.9545L7.49121 40.1342C7.46019 40.9718 7.55071 45.0446 7.55078 46.1537L7.69922 73.1107V73.1136C7.66805 76.573 7.69922 81.5837 7.69922 85.2338V85.6136L7.36816 85.4261C5.63265 84.4434 4.0152 83.6692 2.85059 82.5736C1.664 81.4573 0.942607 80.0087 0.942383 77.6888L0.799805 41.4984V38.3011L1.07422 38.3695Z" stroke="black" stroke-width="0.443171"></path><mask id="path-5-inside-1_1_1439" fill="white"><path d="M20.1853 74.6848C19.6441 74.6848 19.1433 74.558 18.7 74.3019C17.6301 73.6842 17.041 72.3972 17.041 70.6778C17.041 67.2095 19.4846 62.9772 22.4884 61.2429C23.9774 60.383 25.3867 60.2499 26.4563 60.8676C27.5262 61.4853 28.1156 62.7722 28.1156 64.4917C28.1156 67.96 25.672 72.1923 22.6682 73.9263C21.796 74.4306 20.9504 74.6848 20.1853 74.6848ZM24.9701 60.8453C24.2682 60.8453 23.4843 61.0837 22.6682 61.5546C19.7636 63.2314 17.4007 67.3242 17.4007 70.6778C17.4007 72.2631 17.926 73.4395 18.8799 73.9902C19.8338 74.5415 21.1153 74.4077 22.4881 73.6149C25.3924 71.9381 27.7553 67.8453 27.7553 64.4917C27.7553 62.9063 27.23 61.73 26.2761 61.179C25.8897 60.9562 25.449 60.8453 24.9701 60.8453Z"></path></mask><path d="M20.1853 74.6848C19.6441 74.6848 19.1433 74.558 18.7 74.3019C17.6301 73.6842 17.041 72.3972 17.041 70.6778C17.041 67.2095 19.4846 62.9772 22.4884 61.2429C23.9774 60.383 25.3867 60.2499 26.4563 60.8676C27.5262 61.4853 28.1156 62.7722 28.1156 64.4917C28.1156 67.96 25.672 72.1923 22.6682 73.9263C21.796 74.4306 20.9504 74.6848 20.1853 74.6848ZM24.9701 60.8453C24.2682 60.8453 23.4843 61.0837 22.6682 61.5546C19.7636 63.2314 17.4007 67.3242 17.4007 70.6778C17.4007 72.2631 17.926 73.4395 18.8799 73.9902C19.8338 74.5415 21.1153 74.4077 22.4881 73.6149C25.3924 71.9381 27.7553 67.8453 27.7553 64.4917C27.7553 62.9063 27.23 61.73 26.2761 61.179C25.8897 60.9562 25.449 60.8453 24.9701 60.8453Z" fill="#35B777"></path><path d="M18.7 74.3019L18.8966 73.9617L18.8965 73.9617L18.7 74.3019ZM22.4884 61.2429L22.6848 61.5831L22.6849 61.5831L22.4884 61.2429ZM26.4563 60.8676L26.2598 61.2078L26.2598 61.2078L26.4563 60.8676ZM22.6682 73.9263L22.4718 73.5861L22.4716 73.5862L22.6682 73.9263ZM22.6682 61.5546L22.4719 61.2143L22.4718 61.2143L22.6682 61.5546ZM18.8799 73.9902L19.0765 73.65L19.0763 73.6499L18.8799 73.9902ZM22.4881 73.6149L22.2916 73.2747L22.2916 73.2747L22.4881 73.6149ZM26.2761 61.179L26.4726 60.8388L26.4723 60.8386L26.2761 61.179ZM20.1853 74.6848V74.2919C19.7072 74.2919 19.2752 74.1805 18.8966 73.9617L18.7 74.3019L18.5035 74.6421C19.0115 74.9356 19.5811 75.0777 20.1853 75.0777V74.6848ZM18.7 74.3019L18.8965 73.9617C17.9934 73.4403 17.4339 72.3185 17.4339 70.6778H17.041H16.6481C16.6481 72.476 17.2669 73.9281 18.5036 74.6421L18.7 74.3019ZM17.041 70.6778H17.4339C17.4339 69.029 18.0174 67.1712 18.9785 65.5065C19.9397 63.8418 21.2569 62.4076 22.6848 61.5831L22.4884 61.2429L22.292 60.9026C20.7161 61.8125 19.3096 63.3615 18.298 65.1136C17.2865 66.8657 16.6481 68.8583 16.6481 70.6778H17.041ZM22.4884 61.2429L22.6849 61.5831C24.1057 60.7626 25.3571 60.6864 26.2598 61.2078L26.4563 60.8676L26.6528 60.5274C25.4163 59.8133 23.8492 60.0034 22.2919 60.9026L22.4884 61.2429ZM26.4563 60.8676L26.2598 61.2078C27.163 61.7292 27.7228 62.8511 27.7228 64.4917H28.1156H28.5085C28.5085 62.6934 27.8894 61.2414 26.6527 60.5274L26.4563 60.8676ZM28.1156 64.4917H27.7228C27.7228 66.1405 27.1393 67.9982 26.1781 69.6629C25.217 71.3276 23.8998 72.7617 22.4718 73.5861L22.6682 73.9263L22.8647 74.2665C24.4405 73.3568 25.847 71.8079 26.8586 70.0558C27.8702 68.3037 28.5085 66.3112 28.5085 64.4917H28.1156ZM22.6682 73.9263L22.4716 73.5862C21.6426 74.0655 20.8645 74.2919 20.1853 74.2919V74.6848V75.0777C21.0364 75.0777 21.9494 74.7957 22.8649 74.2664L22.6682 73.9263ZM24.9701 60.8453V60.4525C24.1809 60.4525 23.3294 60.7194 22.4719 61.2143L22.6682 61.5546L22.8646 61.8949C23.6391 61.4479 24.3554 61.2382 24.9701 61.2382V60.8453ZM22.6682 61.5546L22.4718 61.2143C20.9456 62.0954 19.584 63.5953 18.605 65.291C17.626 66.9867 17.0079 68.9156 17.0079 70.6778H17.4007H17.7936C17.7936 69.0864 18.3569 67.2921 19.2855 65.6838C20.214 64.0755 21.4863 62.6905 22.8647 61.8948L22.6682 61.5546ZM17.4007 70.6778H17.0079C17.0079 72.3353 17.5587 73.6811 18.6835 74.3304L18.8799 73.9902L19.0763 73.6499C18.2933 73.1979 17.7936 72.191 17.7936 70.6778H17.4007ZM18.8799 73.9902L18.6833 74.3303C19.8083 74.9805 21.2494 74.784 22.6846 73.9551L22.4881 73.6149L22.2916 73.2747C20.9813 74.0315 19.8594 74.1025 19.0765 73.65L18.8799 73.9902ZM22.4881 73.6149L22.6845 73.9551C24.2106 73.074 25.5721 71.5742 26.551 69.8785C27.53 68.1828 28.1482 66.2539 28.1482 64.4917H27.7553H27.3624C27.3624 66.0831 26.7991 67.8773 25.8706 69.4857C24.942 71.094 23.6699 72.4789 22.2916 73.2747L22.4881 73.6149ZM27.7553 64.4917H28.1482C28.1482 62.8341 27.5973 61.4884 26.4726 60.8388L26.2761 61.179L26.0796 61.5192C26.8627 61.9715 27.3624 62.9785 27.3624 64.4917H27.7553ZM26.2761 61.179L26.4723 60.8386C26.0206 60.5782 25.5111 60.4525 24.9701 60.4525V60.8453V61.2382C25.3869 61.2382 25.7588 61.3342 26.0799 61.5194L26.2761 61.179Z" fill="black" mask="url(#path-5-inside-1_1_1439)"></path><path d="M22.5783 75.4434C22.4788 75.4434 22.3984 75.3627 22.3984 75.2635V58.753C22.3984 58.6535 22.4791 58.5731 22.5783 58.5731C22.6774 58.5731 22.7581 58.6538 22.7581 58.753V75.2635C22.7581 75.3627 22.6777 75.4434 22.5783 75.4434Z" fill="#35B777"></path><path d="M15.2797 72.0135C15.2174 72.0135 15.157 71.981 15.1237 71.9235C15.0741 71.8374 15.1036 71.7275 15.1894 71.6779L28.7604 63.8429C28.8465 63.793 28.9564 63.8225 29.006 63.9086C29.0556 63.9948 29.026 64.1047 28.9402 64.1543L15.3693 71.9893C15.3413 72.0058 15.3102 72.0135 15.2797 72.0135Z" fill="#35B777"></path><path d="M16.2267 72.5454C16.1962 72.5454 16.1654 72.5378 16.1368 72.5213L15.0332 71.8842L16.0405 70.1394C16.0904 70.0532 16.2 70.0237 16.2861 70.0736C16.3722 70.1231 16.4015 70.2331 16.3519 70.3192L15.5245 71.7523L16.3166 72.2096C16.4028 72.2591 16.432 72.3691 16.3824 72.4552C16.3494 72.513 16.289 72.5454 16.2267 72.5454Z" fill="#35B777"></path><path d="M21.6456 60.5669C21.6151 60.5669 21.5843 60.5592 21.5557 60.5427C21.4696 60.4931 21.4404 60.3832 21.4899 60.2971L22.5277 58.4995L23.6008 59.1191C23.6869 59.1687 23.7162 59.2787 23.6666 59.3648C23.6167 59.4509 23.5071 59.4804 23.421 59.4305L22.6593 58.9908L21.8017 60.4766C21.7683 60.5345 21.7079 60.5669 21.6456 60.5669Z" fill="#35B777"></path><path d="M24.4617 40.2759L14.7783 45.8669L17.2889 41.7943L26.9724 36.2037L24.4617 40.2759Z" fill="#9DD4B2" stroke="black" stroke-width="0.196435"></path><path opacity="0.2" d="M24.4617 40.2759L14.7783 45.8669L17.2889 41.7943L26.9724 36.2037L24.4617 40.2759Z" fill="white" stroke="black" stroke-width="0.196435"></path><path d="M24.4617 51.4584L14.7783 57.0489V45.8678L24.4617 40.2767V51.4584Z" fill="#9DD4B2" stroke="black" stroke-width="0.196435"></path><path d="M24.4629 40.2759L26.9735 36.2037V47.3854L24.4629 51.4575V40.2759Z" fill="#9DD4B2" stroke="black" stroke-width="0.196435"></path><path opacity="0.2" d="M24.4629 40.2759L26.9735 36.2037V47.3854L24.4629 51.4575V40.2759Z" fill="black" stroke="black" stroke-width="0.196435"></path><path d="M33.4982 45.14C33.4642 45.8198 34.0081 46.0917 34.603 45.7518C35.6227 45.191 36.6085 44.5961 37.6112 44.0183C38.8519 43.3044 40.1096 42.5906 41.3503 41.8598C41.7412 41.6388 42.1151 41.3499 41.8262 40.857C41.5543 40.3641 41.1124 40.5001 40.7215 40.738C38.478 42.0297 36.2176 43.3214 33.9911 44.6301C33.7532 44.7831 33.6002 45.021 33.4982 45.14Z" fill="black"></path><path d="M33.4819 34.5579C33.4479 35.2378 33.9918 35.5097 34.5866 35.1698C35.6064 34.6089 36.5922 34.0141 37.5949 33.4362C38.8356 32.7224 53.4657 24.3873 53.4657 24.3873C53.4657 24.3873 54.2306 23.8775 53.9416 23.3846C53.6697 22.8917 52.8369 23.2656 52.8369 23.2656C52.8369 23.2656 36.2013 32.7394 33.9748 34.0481C33.7369 34.201 33.5839 34.439 33.4819 34.5579Z" fill="black"></path><path d="M33.4819 38.2963C33.4479 38.9762 33.9918 39.2481 34.5866 38.9082C35.6064 38.3473 36.5922 37.7525 37.5949 37.1746C38.8356 36.4608 53.4657 28.1257 53.4657 28.1257C53.4657 28.1257 54.2306 27.6159 53.9416 27.123C53.6697 26.6301 52.8369 27.004 52.8369 27.004C52.8369 27.004 36.2013 36.4778 33.9748 37.7865C33.7369 37.9394 33.5839 38.1774 33.4819 38.2963Z" fill="black"></path><path d="M33.4819 42.0347C33.4479 42.7146 33.9918 42.9865 34.5866 42.6466C35.6064 42.0857 36.5922 41.4909 37.5949 40.913C38.8356 40.1992 53.4657 31.8641 53.4657 31.8641C53.4657 31.8641 54.2306 31.3543 53.9416 30.8614C53.6697 30.3685 52.8369 30.7424 52.8369 30.7424C52.8369 30.7424 36.2013 40.2162 33.9748 41.5249C33.7369 41.6778 33.5839 41.9158 33.4819 42.0347Z" fill="black"></path><path d="M33.4813 47.8917C33.4983 48.5886 34.0082 48.8265 34.569 48.5376C35.1979 48.2147 35.7927 47.8408 36.4046 47.4838C38.0192 46.5491 39.6338 45.6313 41.2484 44.6965C41.6733 44.4586 42.1662 44.1866 41.7923 43.5918C41.4524 43.0649 40.9935 43.3368 40.6026 43.5748C38.4271 44.8325 36.2516 46.0732 34.0762 47.3479C33.8212 47.4838 33.6173 47.7558 33.4813 47.8917Z" fill="black"></path></svg>