<svg xmlns="http://www.w3.org/2000/svg" width="99" height="99" viewBox="0 0 99 99" fill="none"><path d="M78.75 0.742188C78.9509 0.669113 79.2252 0.671676 79.542 0.735352C79.7756 0.782319 80.0161 0.859167 80.2402 0.945312L80.458 1.03418C84.2838 2.67579 88.1046 4.33305 91.9199 6.00684L95.7334 7.68652H95.7344C96.4844 8.01597 97.0102 8.47799 97.3506 9.05078C97.6923 9.62582 97.8574 10.33 97.8574 11.1562L97.8477 35.2695C97.8473 43.308 97.8501 51.3471 97.8555 59.3867L97.8467 59.707C97.8063 60.4393 97.6242 61.0574 97.3027 61.5771C96.9815 62.0964 96.5124 62.532 95.877 62.8857L95.5938 63.0322C90.7654 65.3675 85.9381 67.7044 81.1113 70.042L66.6328 77.0586L34.8613 92.4619C32.2871 93.7116 29.7021 94.9497 27.1279 96.208L24.5576 97.4736L24.5498 97.4785C23.9411 97.8097 23.2612 97.9899 22.5684 98.0029C21.9621 98.0143 21.3612 97.8969 20.8047 97.6611L20.5684 97.5527L20.5615 97.5498L16.0645 95.4912C14.5636 94.8076 13.0615 94.126 11.5586 93.4463L2.53906 89.377H2.53809C1.74811 89.0208 1.17462 88.5443 0.799805 87.9531C0.471823 87.4358 0.286974 86.8162 0.254883 86.084L0.250977 85.7637V85.7627C0.272567 84.307 0.254654 82.8475 0.251953 81.1621C1.16807 81.5655 2.01072 81.9373 2.81348 82.2939L5.42383 83.4639C9.4858 85.3019 13.5633 87.0887 17.5898 88.9814L19.3125 89.7998C20.4605 90.3517 21.5534 90.5941 22.6445 90.5557C23.5982 90.5221 24.5394 90.2743 25.5039 89.8447L25.918 89.6504L25.9189 89.6494C31.2059 87.0256 36.5031 84.4231 41.8037 81.8271L57.71 74.043C67.863 69.0677 78.0133 64.0889 88.1602 59.1074V59.1084C89.1216 58.6372 89.8765 58 90.3906 57.1982C90.9051 56.3959 91.1697 55.4415 91.1709 54.3496V14.8203C91.1708 13.616 90.8604 12.6032 90.2725 11.7715C89.759 11.0452 89.043 10.469 88.1621 10.0244L87.7744 9.84277V9.8418C83.3217 7.89221 78.8683 5.94495 74.4141 4H74.4131C73.8893 3.76836 73.3737 3.52349 72.8496 3.28027L72.8252 3.19922C74.5484 2.46293 76.2423 1.69542 77.9746 1.03125L78.749 0.742188H78.75Z" fill="#35B777" stroke="black" stroke-width="0.5"></path><path d="M71.6885 4.76453C73.6512 5.61086 75.4674 6.38605 77.2783 7.17859V7.17957C79.711 8.24648 82.1484 9.33592 84.585 10.4022L87.0205 11.4589H87.0215C87.8563 11.8157 88.4537 12.2966 88.8447 12.8934C89.236 13.4907 89.4335 14.2243 89.4346 15.1073L89.4443 34.5331C89.4459 41.0071 89.4457 47.4803 89.4434 53.952L89.4336 54.286C89.3874 55.0463 89.1811 55.6798 88.8271 56.2128C88.4722 56.7471 87.9595 57.1947 87.2822 57.5692L86.9814 57.7255C78.942 61.6547 70.9037 65.5885 62.8662 69.5262L38.7559 81.3524C35.2239 83.0906 31.6836 84.8083 28.1514 86.5419L24.6221 88.2821L24.6152 88.286C23.9873 88.6238 23.2872 88.806 22.5742 88.8182C21.9506 88.8289 21.3326 88.7094 20.7598 88.4677L20.5166 88.3563L20.5098 88.3534L15.9814 86.2909C14.4707 85.6057 12.9589 84.9217 11.4463 84.2391L2.36914 80.1454C2.1389 80.0414 1.92123 79.9233 1.53711 79.7196L10.8867 75.1063C11.0664 76.4037 11.5717 77.3913 12.3135 78.1698C13.0161 78.9072 13.9205 79.4469 14.9316 79.8885L15.3711 80.0721H15.3721C17.6545 80.9777 19.8712 82.0539 22.1143 83.0975V83.0966C22.8957 83.4812 23.757 83.6755 24.6279 83.662C25.5006 83.6485 26.3576 83.4276 27.1279 83.0175L27.127 83.0165C29.2347 81.9768 31.3822 80.9828 33.499 79.9227L34.4043 79.4637H34.4053C36.3047 78.4837 37.3603 76.8697 37.3604 74.6659V68.5897C37.6316 68.6737 37.8363 68.7337 38.04 68.8241V68.8251C40.5389 69.9447 43.0388 71.0504 45.5156 72.203V72.204C46.2601 72.5789 47.0845 72.7694 47.918 72.7596C48.7492 72.7499 49.5659 72.5406 50.2998 72.1503C52.0595 71.2687 53.8207 70.3966 55.5938 69.5497L57.3711 68.7118C58.5218 68.1772 59.3647 67.4508 59.917 66.537C60.4684 65.6245 60.7199 64.5434 60.7188 63.3163V57.5731C61.5303 57.924 62.2464 58.2313 62.958 58.5516V58.5507C64.8106 59.389 66.6692 60.2492 68.5488 61.08V61.079C69.2111 61.3954 69.9359 61.5596 70.6699 61.5575C71.4056 61.5554 72.1314 61.3869 72.793 61.0653C74.7518 60.1311 76.7091 59.19 78.6553 58.2255L80.5977 57.2518C82.4924 56.2934 83.4917 54.677 83.4941 52.5468L83.5049 35.7352L83.4941 18.9188C83.494 17.8352 83.2371 16.8785 82.7256 16.0741C82.2778 15.3701 81.6419 14.7928 80.834 14.3514L80.4775 14.1708C77.7201 12.8725 74.9418 11.6181 72.1426 10.4081H72.1416C71.8441 10.2777 71.6739 10.1522 71.5752 10.0087C71.5035 9.90427 71.4565 9.77136 71.4443 9.57996L71.4434 9.36804H71.4443C71.4714 8.82055 71.4678 8.27225 71.4629 7.73132C71.458 7.19143 71.4505 6.65895 71.4707 6.12781C71.519 5.66977 71.5927 5.2149 71.6885 4.76453Z" fill="#9DD4B2" stroke="black" stroke-width="0.5"></path><path d="M69.7666 22.374V59.5674C69.5703 59.5132 69.375 59.4555 69.1836 59.3857C67.2366 58.5188 65.2903 57.6243 63.334 56.7559L61.3721 55.8975C61.0757 55.7698 60.9221 55.6352 60.835 55.4863C60.7453 55.3332 60.7049 55.1295 60.707 54.8193C60.7349 51.7288 60.7188 48.6366 60.7188 45.54C60.7187 43.9449 60.3359 42.4776 59.1689 41.2471C58.9569 40.98 58.831 40.6562 58.8057 40.3184L58.8008 40.1719V40.168C58.7822 34.9505 58.7778 29.737 58.7871 24.5273L58.8008 19.3193V19.3184C58.8008 19.0177 58.835 18.7132 58.8838 18.374C58.9188 18.1311 58.9574 17.8647 58.998 17.5771L69.7666 22.374Z" fill="#9DD4B2" stroke="black" stroke-width="0.5"></path><path d="M81.5469 17.646C81.607 18.0361 81.6564 18.4276 81.6904 18.8208L81.7256 19.3062C81.738 30.2366 81.7437 41.1681 81.7422 52.1001L81.7334 52.437C81.693 53.2048 81.5107 53.8514 81.1777 54.3931C80.8453 54.9338 80.3534 55.3858 79.6699 55.7505L79.3643 55.9019C78.19 56.4414 77.0276 57.0077 75.8682 57.5796L72.3887 59.2915C72.1739 59.3955 71.9543 59.4658 71.6328 59.5757V58.6401C71.6328 46.8189 71.627 34.9993 71.6162 23.1812L71.627 22.9224C71.648 22.6908 71.7007 22.5341 71.7852 22.4106C71.8997 22.2433 72.0978 22.0976 72.4697 21.9321L72.4707 21.9331C73.9029 21.3047 75.3187 20.6365 76.7275 19.9575L80.9434 17.9155L80.9453 17.9146C81.1156 17.8311 81.2844 17.7593 81.5469 17.646Z" fill="#35B777" stroke="black" stroke-width="0.5"></path><path d="M46.4287 26.2395L43.6787 23.5227C43.0945 22.9425 42.5125 22.2936 41.877 21.72L41.6016 21.4797C41.4126 21.3203 41.1617 21.2771 40.9619 21.2551C40.7311 21.2297 40.5617 21.2292 40.3867 21.1936L40.0215 21.1194L40.0908 21.4856C40.1056 21.5633 40.115 21.6502 40.123 21.7483C40.1307 21.8421 40.1376 21.9516 40.1494 22.054C40.172 22.2504 40.2176 22.4975 40.3789 22.6819V22.6829C40.8469 23.2249 41.4309 23.6898 42.1299 24.3049C39.9401 26.4174 37.8252 28.4163 35.7646 30.4436L34.8584 31.3411C31.4491 34.7422 28.0532 38.1546 24.6709 41.5784L21.293 45.0061C20.4048 45.9069 19.4433 46.4181 18.3496 46.1106L18.1289 46.0374C16.8279 45.5497 15.8392 44.6226 15.4053 43.2991L15.3262 43.0295C15.0407 41.9182 15.5198 41.0074 16.3691 40.1536L16.3701 40.1545C23.1884 33.3131 29.999 26.4636 36.8018 19.6067L36.8008 19.6057C37.127 19.2777 37.3892 19.0174 37.5674 18.7971C37.7437 18.5791 37.8762 18.3574 37.8809 18.1067C37.8855 17.8522 37.7586 17.6313 37.583 17.4172C37.4948 17.3097 37.3847 17.1936 37.2559 17.0647L36.8145 16.6379C36.2152 16.067 35.5328 15.5636 34.9043 15.0608L35.0352 14.801L48.5566 12.6418C47.8401 17.2284 47.1569 21.5836 46.4287 26.2395Z" fill="#35B777" stroke="black" stroke-width="0.5"></path><path d="M36.1865 43.6688C37.8998 44.4311 39.4881 45.1487 41.083 45.8407V45.8417C42.7293 46.5577 44.3782 47.2232 45.999 47.9569L46.6914 48.2753V48.2762C46.7086 48.2843 46.7436 48.3092 46.7881 48.37C46.8309 48.4285 46.8729 48.5068 46.9102 48.5985C46.9668 48.738 47.0055 48.8908 47.0215 49.0223L47.0303 49.1454C47.0581 54.2395 47.0488 59.3385 47.0488 64.4364V70.9032L39.4092 67.4872L39.4072 67.4862L38.7305 67.1688C38.614 67.1137 38.4962 67.0593 38.3779 67.0077L38.0225 66.8632C37.7559 66.7655 37.6178 66.6353 37.5273 66.4745C37.4531 66.3424 37.4055 66.1806 37.3613 65.9716L37.3174 65.746C37.1684 64.9008 36.8662 64.0686 36.584 63.2635L36.3145 62.4677C36.2816 62.3637 36.2437 62.2608 36.207 62.163C36.1696 62.0632 36.1337 61.9697 36.1016 61.8759C36.0532 61.7344 36.0181 61.6049 36.0029 61.4833L35.9951 61.3641C35.9789 57.2808 35.9743 53.1975 35.9824 49.1141L35.9951 45.0311V45.0302C35.9951 44.7922 36.0293 44.5487 36.0791 44.2723C36.1121 44.0893 36.1477 43.8863 36.1865 43.6688Z" fill="#9DD4B2" stroke="black" stroke-width="0.5"></path><path d="M58.8203 44.3738C58.8684 44.659 58.9023 44.9155 58.9023 45.1667L58.9053 54.3835L58.9111 63.6013C58.9111 64.4078 58.734 65.0797 58.3906 65.6326C58.0902 66.1162 57.6545 66.5221 57.0723 66.8494L56.8135 66.9851C54.2264 68.2531 51.6339 69.507 48.8242 70.8767V69.8416C48.8242 63.0016 48.8408 56.1594 48.8037 49.3201C48.8037 48.9074 48.8663 48.6714 48.9893 48.4998C49.084 48.3675 49.2299 48.2515 49.4658 48.1287L49.7334 48.0027H49.7344C52.497 46.8014 55.1896 45.4223 57.8926 44.1228L57.8936 44.1238C58.1325 44.0097 58.3731 43.9073 58.7158 43.7576C58.7531 43.9775 58.7885 44.1851 58.8203 44.3738Z" fill="#35B777" stroke="black" stroke-width="0.5"></path><path d="M23.6143 69.0575V81.7889L17.1621 78.913C16.5479 78.6384 15.9437 78.3849 15.3447 78.1102L14.7471 77.827C13.6216 77.2618 12.8546 76.4442 12.749 75.2421L12.7363 74.996C12.6947 71.7257 12.7122 68.4549 12.7354 65.1796C12.7684 64.8796 12.8217 64.5823 12.8955 64.2899L23.6143 69.0575Z" fill="#9DD4B2" stroke="black" stroke-width="0.5"></path><path d="M35.418 64.3389C35.4759 64.7131 35.5237 65.0887 35.5576 65.4658L35.5947 65.9531C35.6136 68.0522 35.5981 70.1735 35.6045 72.2871L35.6201 74.4014C35.6276 75.2991 35.4231 76.0303 35.0303 76.6279C34.6856 77.1523 34.1867 77.5875 33.5303 77.9434L33.2393 78.0908C32.1415 78.6125 31.0476 79.1451 29.9551 79.6787L26.6797 81.2734C26.3377 81.4363 25.9883 81.5609 25.5752 81.7158V69.0635L35.418 64.3389Z" fill="#35B777" stroke="black" stroke-width="0.5"></path><path d="M69.6074 11.7338C70.0175 11.6917 70.4056 11.7123 70.7217 11.809L70.8525 11.8549C74.0106 13.1305 77.0783 14.6205 80.1875 16.0482C80.2587 16.0982 80.3274 16.1512 80.3945 16.2064C77.472 17.6143 74.7303 18.9897 71.9229 20.2162C71.2033 20.5181 70.399 20.5496 69.6582 20.3041C66.5279 19.0334 63.4634 17.6141 60.1211 16.1254C60.6737 15.7892 61.0818 15.5299 61.5215 15.3119L61.5205 15.3109C63.7724 14.1989 65.9855 13.0418 68.2793 12.0717L68.2783 12.0707C68.6679 11.9072 69.1417 11.7816 69.6074 11.7338Z" fill="#2A8D59" stroke="black" stroke-width="0.5"></path><path d="M23.5645 58.4479C23.974 58.4208 24.3686 58.4562 24.6953 58.5621L24.8311 58.6119L24.833 58.6129C27.8904 59.8368 30.8643 61.2681 33.8799 62.6393C34.0144 62.7209 34.1447 62.809 34.2715 62.902C31.2944 64.3324 28.5251 65.7205 25.6846 66.9596C24.9562 67.2374 24.1516 67.2414 23.4209 66.9694C20.3328 65.7056 17.2943 64.2977 14.002 62.8326C14.4976 62.5341 14.8826 62.2963 15.29 62.0944V62.0953C17.618 60.9477 19.8864 59.7433 22.252 58.7477L22.251 58.7467C22.6309 58.5876 23.0985 58.4787 23.5645 58.4479Z" fill="#2A8D59" stroke="black" stroke-width="0.5"></path><path d="M46.8564 37.8954C47.3585 37.8445 47.8285 37.875 48.1992 38.0194V38.0204C51.2286 39.2072 54.16 40.6385 57.1387 41.9969C57.2858 42.0836 57.4276 42.1786 57.5654 42.2792L51.6406 45.1815C51.2417 45.3457 50.8522 45.5325 50.4746 45.7411L50.4678 45.745L50.4619 45.7499C49.6124 46.2921 48.7826 46.5398 47.9492 46.5448C47.1134 46.5497 46.2561 46.3095 45.3525 45.8505H45.3516C43.221 44.7666 40.9936 43.8558 38.8301 42.8778H38.8311C38.5565 42.7521 38.2829 42.6236 37.9648 42.4745C37.7657 42.3811 37.5486 42.281 37.3047 42.1678C37.9132 41.8601 38.4748 41.5756 39.0107 41.3046L40.9404 40.3407L40.9414 40.3397C42.2563 39.6904 43.5111 38.9831 44.8311 38.451L45.4014 38.2343C45.8442 38.0762 46.357 37.946 46.8564 37.8954Z" fill="#2A8D59" stroke="black" stroke-width="0.5"></path></svg>