<svg xmlns="http://www.w3.org/2000/svg" width="119" height="136" viewBox="0 0 119 136" fill="none"><path d="M15.3831 133.818C14.1876 133.42 13.2152 132.655 12.1153 132.065C10.5532 131.236 9.05479 130.28 7.52451 129.371C6.15364 128.574 4.78277 127.777 3.42784 126.964C1.73816 125.96 1.43529 124.254 1.41935 122.549C1.37153 111.167 1.51499 99.7379 1.35559 88.3246C1.24401 80.7688 1.32371 73.1972 1.24401 65.6414C1.21212 62.9475 2.08885 60.5086 3.44378 58.2132C4.49584 56.4279 5.85077 54.9136 7.50857 53.718C8.75192 52.8413 10.1387 52.1718 11.4618 51.4067C16.1004 48.7128 20.7391 46.0188 25.3777 43.3409C28.8049 41.3643 32.264 39.4355 35.6911 37.4429C40.0748 34.9084 44.4265 32.3101 48.826 29.7756C52.2532 27.799 55.7282 25.9021 59.1554 23.9255C61.5464 22.5546 63.8897 21.12 66.2648 19.7491C71.1744 16.9117 76.1 14.1062 81.0096 11.2688C84.8194 9.06906 88.6291 6.83741 92.4389 4.6217C94.4473 3.45805 96.424 2.19876 98.4962 1.16263C100.202 0.301855 101.955 0.269974 103.709 1.3858C105.717 2.66103 107.774 3.84062 109.878 4.95644C111.328 5.72158 112.699 6.61424 114.102 7.44314C114.277 7.53878 114.389 7.68225 114.389 7.88947C112.906 7.82571 111.583 8.3358 110.324 9.085C108.539 10.1371 106.753 11.1732 104.952 12.2093C91.2752 20.0998 77.5984 27.9903 63.9215 35.8967C49.6709 44.1219 35.3564 52.3153 21.1376 60.6521C16.5468 63.3301 14.1079 67.618 14.0441 72.9102C13.9325 82.3151 14.076 91.7199 14.1079 101.109C14.1398 110.561 14.1557 120.014 14.1557 129.467C14.1557 131.061 14.4267 132.527 15.3831 133.818Z" fill="#35B777" stroke="black" stroke-width="0.832006"></path><path d="M117.752 24.9456C117.736 20.9286 117.72 16.9276 117.736 12.9106C117.736 10.9021 116.796 8.3995 114.405 7.88941C112.922 7.82564 111.599 8.33574 110.34 9.08493C108.555 10.137 106.769 11.1731 104.968 12.2092C91.2913 20.0997 77.6145 27.9902 63.9376 35.8966C49.671 44.1219 35.3565 52.3152 21.1377 60.652C16.5469 63.33 14.108 67.602 14.0443 72.9102C13.9327 82.315 14.0761 91.7198 14.108 101.109C14.1399 110.561 14.1558 120.014 14.1558 129.467C14.1558 131.045 14.4268 132.527 15.3833 133.818C16.5947 134.886 17.9815 135.03 19.4799 134.615C20.1175 134.44 20.7233 134.153 21.2971 133.818C37.2853 124.589 53.2735 115.359 69.2617 106.114C82.9545 98.2075 96.6791 90.3489 110.34 82.3788C115.234 79.5254 117.848 75.1418 117.864 69.4671C117.88 54.6425 117.8 39.7861 117.752 24.9456ZM19.719 107.66C19.719 108.569 19.2727 109.286 18.5713 109.828C17.9337 110.306 17.3758 110.035 17.328 109.238C17.0889 105.636 17.2483 102.033 17.2005 98.4307C17.1845 97.6177 17.6149 96.9483 18.1888 96.4222C18.4757 96.1512 18.8583 95.9599 19.2727 96.1512C19.6712 96.3266 19.719 96.7091 19.719 97.0917C19.719 98.893 19.719 100.694 19.719 102.511C19.719 104.217 19.735 105.939 19.719 107.66ZM19.4162 92.3096C19.2249 92.7719 18.9539 93.1385 18.5076 93.3776C17.7424 93.8239 17.2164 93.537 17.1845 92.6603C17.1686 92.1821 17.1845 91.7039 17.1845 91.2257C17.1686 90.1577 17.0729 89.1056 17.8221 88.197C18.1888 87.7507 18.6351 87.4478 19.193 87.6231C19.719 87.7985 19.7031 88.3245 19.6872 88.7708C19.6712 89.9504 19.8944 91.1619 19.4162 92.3096ZM101.732 82.4585C89.2031 89.6635 76.674 96.9164 64.1608 104.137C51.3607 111.534 38.5765 118.914 25.7764 126.294C25.7286 126.326 25.6807 126.342 25.6329 126.374C23.7679 127.41 22.7158 126.836 22.7158 124.716C22.668 115.694 22.6521 106.656 22.6202 97.6337C22.6202 97.2033 22.6202 96.7888 22.6202 96.3585H22.5564C22.5564 87.0174 22.5564 77.6604 22.5564 68.3194C22.5564 65.8645 23.6085 64.0792 25.7286 62.8518C42.0196 53.447 58.3107 44.0422 74.6017 34.6373C83.6559 29.393 92.7419 24.1645 101.812 18.9201C101.908 18.8723 102.003 18.8086 102.083 18.7607C103.741 17.8521 104.857 18.4738 104.872 20.3548C104.92 24.3877 104.936 28.4206 104.936 32.4695C104.968 47.2302 105 61.991 105.048 76.7677C105.08 79.3501 103.964 81.1832 101.732 82.4585ZM115.09 43.1495C114.676 46.0188 113.528 48.4576 110.77 49.8126C109.113 50.6255 107.566 49.6372 107.535 47.7722C107.487 44.8551 108.778 42.6394 111.105 40.9657C111.966 40.344 112.938 40.0252 113.927 40.5831C114.883 41.1251 115.154 42.0656 115.09 43.1495Z" fill="#9DD4B2" stroke="black" stroke-width="0.832006"></path><path d="M104.968 32.4696C104.952 28.4367 104.936 24.3878 104.904 20.3549C104.888 18.4739 103.772 17.8523 102.114 18.7609C102.019 18.8087 101.923 18.8725 101.843 18.9203C92.7733 24.1647 83.6873 29.3931 74.6173 34.6375C58.3262 44.0423 42.0351 53.4471 25.7441 62.8519C23.624 64.0793 22.5719 65.8647 22.5719 68.3195C22.5879 77.6606 22.5719 87.0175 22.5719 96.3586C22.5719 96.789 22.5718 97.2315 22.5718 97.6619C22.6037 106.684 22.6995 115.694 22.7314 124.717C22.7473 126.837 23.7834 127.41 25.6484 126.374C25.6963 126.342 25.7441 126.327 25.7919 126.295C38.592 118.914 51.3762 111.518 64.1763 104.138C76.6895 96.9006 89.2186 89.6637 101.748 82.4586C103.995 81.1674 105.095 79.3502 105.079 76.7519C105.016 62.0071 105 47.2463 104.968 32.4696ZM41.4772 109.207C38.7514 110.801 36.0256 112.379 33.2839 113.925C31.9927 114.658 30.9566 114.005 30.9566 112.506C30.9566 110.96 30.9566 109.43 30.9566 107.883C30.9566 106.417 30.9247 104.966 30.9247 103.5C30.9247 102.193 31.4029 101.587 32.4231 101.603C33.3795 101.619 33.778 102.177 33.778 103.516C33.778 105.476 33.778 107.437 33.794 109.398C33.794 110.306 33.8259 110.322 34.6388 109.86C36.4241 108.824 38.2095 107.772 40.0107 106.752C41.0628 106.146 42.1308 106.624 42.3061 107.74C42.3699 108.457 42.0033 108.904 41.4772 109.207ZM95.9295 77.7881C93.2356 79.3343 90.5417 80.8805 87.8478 82.4267C86.8913 82.9687 86.1422 82.8571 85.6958 82.1079C85.2017 81.3109 85.4408 80.5617 86.3972 80.0038C88.6607 78.6807 90.9402 77.3577 93.2197 76.0665C93.7457 75.7636 93.9529 75.4289 93.937 74.8072C93.8892 72.1452 93.9051 69.4991 93.9051 66.837C93.9051 66.0878 94.208 65.5299 94.9412 65.3227C95.5789 65.1474 96.1527 65.2749 96.5353 65.8806C96.7266 66.1675 96.7266 66.4863 96.7266 66.8052C96.7266 68.3673 96.7266 69.9454 96.7266 71.5076C96.7266 73.1016 96.7584 74.6956 96.7744 76.2897C96.7903 76.9592 96.5034 77.4533 95.9295 77.7881Z" fill="#FDFDFD" stroke="black" stroke-width="0.832006"></path><path d="M115.091 43.1496C114.676 46.0188 113.529 48.4577 110.771 49.7967C109.113 50.6097 107.567 49.6214 107.535 47.7563C107.487 44.8392 108.778 42.6235 111.106 40.9498C111.95 40.3441 112.939 40.0093 113.927 40.5672C114.883 41.1251 115.154 42.0656 115.091 43.1496Z" fill="#35B777" stroke="black" stroke-width="0.832006"></path><path d="M19.7184 102.496C19.7184 104.217 19.7184 105.939 19.7184 107.66C19.7184 108.569 19.2721 109.286 18.5707 109.828C17.9331 110.306 17.3752 110.035 17.3274 109.238C17.0883 105.636 17.2477 102.033 17.1998 98.4308C17.1998 97.6178 17.6143 96.9643 18.1881 96.4223C18.4751 96.1513 18.8576 95.96 19.2721 96.1513C19.6706 96.3267 19.7184 96.7092 19.7184 97.0918C19.7184 98.8931 19.7184 100.694 19.7184 102.496Z" fill="#35B777" stroke="black" stroke-width="0.832006"></path><path d="M17.1848 91.2258C17.1689 90.1737 17.0733 89.0898 17.8225 88.1971C18.1891 87.7508 18.6354 87.4479 19.1933 87.6233C19.7194 87.7986 19.7034 88.3406 19.6875 88.771C19.6556 89.9506 19.8947 91.162 19.4165 92.3097C19.2252 92.772 18.9542 93.1386 18.5079 93.3777C17.7428 93.8241 17.2167 93.5371 17.1848 92.6604C17.1689 92.1822 17.1848 91.704 17.1848 91.2258Z" fill="#35B777" stroke="black" stroke-width="0.832006"></path><path d="M96.7755 76.2737C96.7755 76.9591 96.5046 77.4373 95.9148 77.7721C93.2208 79.3183 90.5269 80.8645 87.833 82.4107C86.8766 82.9527 86.1274 82.8411 85.681 82.0919C85.1869 81.2949 85.426 80.5457 86.3824 79.9878C88.6459 78.6647 90.9254 77.3417 93.2049 76.0505C93.7309 75.7477 93.9382 75.4129 93.9222 74.7912C93.8744 72.1292 93.8903 69.4831 93.8903 66.8211C93.8903 66.0719 94.1932 65.5139 94.9265 65.3067C95.5641 65.1314 96.1379 65.2589 96.5205 65.8646C96.7118 66.1516 96.7118 66.4704 96.7118 66.7892C96.7118 68.3513 96.7118 69.9294 96.7118 71.4916C96.7277 73.0856 96.7596 74.6797 96.7755 76.2737Z" fill="#35B777" stroke="black" stroke-width="0.832006"></path><path d="M41.4622 109.191C38.7364 110.785 36.0106 112.363 33.2688 113.909C31.9777 114.642 30.9415 113.989 30.9415 112.49C30.9415 110.944 30.9415 109.414 30.9415 107.867C30.9415 106.401 30.9097 104.95 30.9097 103.484C30.9097 102.177 31.3879 101.571 32.4081 101.587C33.3645 101.603 33.763 102.161 33.763 103.5C33.763 105.46 33.763 107.421 33.7789 109.382C33.7789 110.29 33.8108 110.306 34.6238 109.844C36.4091 108.808 38.1944 107.756 39.9957 106.736C41.0477 106.13 42.1157 106.608 42.2911 107.724C42.3708 108.457 41.9882 108.888 41.4622 109.191Z" fill="#35B777" stroke="black" stroke-width="0.832006"></path><path d="M41.3661 65.195C39.3417 66.3746 37.3013 67.5383 35.2609 68.7019C35.1493 68.7657 34.161 69.3555 33.7306 69.5468L33.6988 69.5946C33.6988 72.432 33.7147 75.2694 33.7147 78.1227C33.7147 78.3618 33.7306 78.6009 33.6828 78.84C33.5553 79.5892 32.9496 80.0833 32.2323 80.0515C31.4671 80.0196 30.9092 79.5414 30.8773 78.7603C30.8136 77.1981 30.8136 75.636 30.8136 74.0579C30.7976 72.3841 30.8136 70.7104 30.7976 69.0367C30.7817 68.3512 31.0208 67.8571 31.6106 67.5064C34.3842 65.8964 37.1738 64.2864 39.9474 62.6924C40.585 62.3258 41.2386 62.3417 41.7646 62.9156C42.2109 63.3938 42.3544 64.6052 41.3661 65.195Z" fill="#35B777" stroke="black" stroke-width="0.832006"></path><path d="M89.5067 34.1752C89.5067 34.1752 86.8287 35.5939 86.6853 35.6736C86.3824 35.8649 86.0795 36.0562 85.7926 36.2475C85.2506 36.5981 85.155 37.4589 85.4898 38.0328C85.8564 38.6545 86.4143 38.8936 87.1157 38.7023C87.3388 38.6385 87.6417 38.4791 87.8967 38.3197C88.2953 38.0647 88.7097 37.8256 89.1401 37.6024C90.3356 36.9648 92.3919 35.7374 92.8701 35.4664C93.7309 34.9882 93.8266 35.036 93.8425 36.0243C93.8425 38.0168 93.8425 39.9934 93.8584 41.986C93.8584 42.0816 93.8584 42.1613 93.8584 42.257C93.8584 42.2889 93.8584 42.3207 93.8584 42.3526C93.8584 42.3845 93.8584 42.4164 93.8584 42.4483C93.8584 42.4642 93.8584 42.4961 93.8584 42.512C93.8584 42.5598 93.8744 42.6077 93.8903 42.6555C93.8903 42.6714 93.9063 42.7033 93.9063 42.7193C93.9063 42.7352 93.9063 42.7352 93.9063 42.7352C93.9222 42.7671 93.9381 42.8149 93.9541 42.8468C94.0019 42.9265 94.1613 43.2612 94.8946 43.596C95.0699 43.6757 95.58 43.6119 95.596 43.6119C96.0104 43.5641 96.5524 42.9902 96.6002 42.799C96.6161 42.783 96.6161 42.7671 96.6321 42.7352C96.648 42.7033 96.648 42.6874 96.6639 42.6555C96.6799 42.6236 96.6799 42.5917 96.6799 42.5598C96.6799 42.528 96.6799 42.512 96.6958 42.4801C96.6958 42.4483 96.6958 42.4323 96.6958 42.4004C96.7118 42.257 96.6958 42.1135 96.6958 41.9701C96.6958 38.9095 96.6958 35.8649 96.6958 32.8043C96.6958 32.103 96.6161 31.4494 95.8829 31.1465C95.1337 30.8277 93.9381 31.6088 93.9381 31.6088C93.9381 31.6088 89.5705 34.0955 89.5067 34.1752Z" fill="#35B777" stroke="black" stroke-width="0.832006"></path></svg>