<svg xmlns="http://www.w3.org/2000/svg" width="70" height="70" viewBox="0 0 70 70" fill="none"><g clip-path="url(#clip0_208_7104)"><path d="M65.2252 44.7237C65.4993 44.0801 65.3568 43.3447 64.8622 42.85L57.4976 35.4854C57.0981 35.0859 56.4503 35.0859 56.0508 35.4854C55.6513 35.8849 55.6513 36.5327 56.0508 36.9321L62.8163 43.6978L52.0341 43.4821C51.3125 43.467 50.6094 43.7514 50.1001 44.2605L31.6599 62.7009C31.5269 62.8339 31.3105 62.8338 31.1777 62.7009L17.1769 48.7001L18.2921 46.5714C18.3892 46.3861 18.5383 46.2369 18.7236 46.1399L28.683 40.9221C29.2863 40.606 29.6352 39.9873 29.5934 39.3074C29.5517 38.6275 29.1298 38.0561 28.4923 37.8162L19.331 34.3676L36.1675 17.5312C36.3004 17.3982 36.5168 17.3983 36.6497 17.5312L39.0016 19.8829V26.7715C37.4159 27.2187 36.25 28.6773 36.25 30.4041C36.25 32.4855 37.9432 34.1788 40.0246 34.1788C42.106 34.1788 43.7993 32.4855 43.7993 30.4041C43.7993 28.6773 42.6334 27.2187 41.0477 26.7715V21.9289L52.7518 33.6328C53.1513 34.0323 53.7991 34.0323 54.1985 33.6328C54.598 33.2334 54.598 32.5856 54.1985 32.1861L41.0478 19.0354V14.1744C41.0478 9.19984 37.0008 5.15283 32.0263 5.15283C27.0518 5.15283 23.0048 9.19984 23.0048 14.1744V27.8008L17.2294 33.5762L2.3083 27.9596C1.67379 27.7207 0.981586 27.8702 0.502113 28.3495C0.0226403 28.829 -0.12693 29.5212 0.111918 30.1558L2.5261 36.569C2.72516 37.0978 3.31551 37.3651 3.84393 37.1661C4.37276 36.967 4.64004 36.3771 4.44098 35.8482L2.29204 30.1395L27.0596 39.4628L17.7742 44.3274C17.2187 44.6183 16.7712 45.0658 16.4799 45.6217L11.6153 54.9071L6.05194 40.1281C5.85288 39.5993 5.2628 39.3321 4.73411 39.531C4.20541 39.7301 3.93799 40.32 4.13705 40.8489L9.96838 56.3401C10.2083 56.9776 10.7797 57.3995 11.4596 57.4412C12.131 57.4847 12.76 57.1349 13.0744 56.5306L16.182 50.5988L29.7308 64.1477C30.1816 64.5985 30.7811 64.8468 31.4187 64.8468C32.0563 64.8468 32.6558 64.5985 33.1065 64.1477L51.547 45.7073C51.6646 45.5899 51.8254 45.5255 51.9933 45.5276L63.6224 45.7603C64.3246 45.7709 64.9509 45.3673 65.2252 44.7237ZM41.7532 30.4041C41.7532 31.3573 40.9777 32.1328 40.0245 32.1328C39.0713 32.1328 38.2958 31.3573 38.2958 30.4041C38.2958 29.833 38.5754 29.3273 39.0035 29.0124C39.0249 29.5585 39.4731 29.9949 40.0245 29.9949C40.5759 29.9949 41.0241 29.5585 41.0455 29.0124C41.4737 29.3273 41.7532 29.833 41.7532 30.4041ZM25.0504 14.1745C25.0504 10.3282 28.1796 7.19896 32.0259 7.19896C35.8722 7.19896 39.0014 10.3282 39.0014 14.1745V16.9895L38.0964 16.0845C37.1657 15.1538 35.6514 15.1537 34.7206 16.0845L25.0502 25.7548V14.1745H25.0504Z" fill="black"></path><path d="M65.0016 47.9854C64.7128 47.6092 64.2753 47.3933 63.8013 47.3933C63.3273 47.3933 62.8897 47.6092 62.6009 47.9856C60.7343 50.4186 57.6028 54.8804 57.6028 57.4256C57.6028 60.8434 60.3834 63.6242 63.8012 63.6242C67.219 63.6242 69.9998 60.8434 69.9998 57.4256C69.9998 54.8804 66.8683 50.4186 65.0016 47.9854ZM63.8013 61.578C61.5117 61.578 59.6489 59.7152 59.6489 57.4255C59.6489 56.1404 61.2641 53.1812 63.8013 49.789C66.3387 53.1812 67.9538 56.1404 67.9538 57.4255C67.9538 59.7152 66.091 61.578 63.8013 61.578Z" fill="black"></path></g><defs><clipPath id="clip0_208_7104"><rect width="70" height="70" fill="white"></rect></clipPath></defs></svg>