<svg xmlns="http://www.w3.org/2000/svg" width="70" height="70" viewBox="0 0 70 70" fill="none"><g clip-path="url(#clip0_208_7082)"><path d="M34.9998 15.3809C39.6432 15.3809 43.5797 11.909 44.1567 7.30529C44.1933 7.0134 44.1027 6.71986 43.9081 6.4992C43.7134 6.27867 43.4334 6.15234 43.1392 6.15234H26.8604C26.5663 6.15234 26.2862 6.27867 26.0915 6.4992C25.8969 6.71973 25.8063 7.0134 25.8429 7.30529C26.4199 11.909 30.3564 15.3809 34.9998 15.3809ZM41.8799 8.20312C40.9893 11.1943 38.212 13.3301 34.9998 13.3301C31.7876 13.3301 29.0103 11.1943 28.1197 8.20312H41.8799Z" fill="black"></path><path d="M69.367 12.1256L45.798 2.36305C45.3142 2.16234 44.7843 2.05078 44.2285 2.05078H25.7715C25.2157 2.05078 24.6858 2.16234 24.2021 2.36346C24.202 2.36305 0.633008 12.1256 0.633008 12.1256C0.249785 12.2843 0 12.6582 0 13.0729V29.5518C0 30.1182 0.459102 30.5771 1.02539 30.5771H13.4669L13.4668 66.9238C13.4668 67.1958 13.5748 67.4565 13.7672 67.649C13.9594 67.8412 14.2203 67.9492 14.4922 67.9492H55.5075C56.0738 67.9492 56.5329 67.4903 56.5329 66.9238V55.6445H61.6599C62.2262 55.6445 62.6853 55.1856 62.6853 54.6191L62.6855 35.7041C62.6855 35.4322 62.5775 35.1714 62.3852 34.9789L57.9834 30.5771H68.9746C69.5409 30.5771 70 30.1182 70 29.5518V13.0729C70 12.6582 69.7502 12.2843 69.367 12.1256V12.1256ZM44.2285 4.10156C45.3593 4.10156 46.2793 5.02154 46.2793 6.15234C46.2793 12.3717 41.2195 17.4316 35 17.4316C28.7805 17.4316 23.7207 12.3717 23.7207 6.15234C23.7207 5.02154 24.6407 4.10156 25.7715 4.10156H44.2285ZM60.6345 53.5938H50.3806L50.3809 36.1289L55.5078 31.0019L60.6348 36.1289L60.6345 53.5938ZM67.9492 28.5264H56.5331L56.5333 12.0412C56.5333 11.4749 56.0742 11.0158 55.5079 11.0158C54.9417 11.0158 54.4826 11.4749 54.4826 12.0412L54.4823 29.1271L48.6304 34.9789C48.4381 35.1713 48.3301 35.432 48.3301 35.7041L48.3298 54.6191C48.3298 54.8911 48.4378 55.1518 48.6302 55.3443C48.8224 55.5365 49.0833 55.6445 49.3552 55.6445H54.4821V65.8984H15.5176L15.5177 12.0412C15.5177 11.4748 15.0586 11.0158 14.4923 11.0158C13.926 11.0158 13.4669 11.4748 13.4669 12.0412V28.5264H2.05078V13.758L21.706 5.61641C21.683 5.79195 21.6699 5.97051 21.6699 6.15221C21.6699 13.5025 27.6497 19.4823 35 19.4823C42.3503 19.4823 48.3301 13.5025 48.3301 6.15221C48.3301 5.97051 48.317 5.79195 48.294 5.61641L67.9492 13.7581V28.5264Z" fill="black"></path></g><defs><clipPath id="clip0_208_7082"><rect width="70" height="70" fill="white"></rect></clipPath></defs></svg>