<?xml version="1.0" standalone="no"?>
<!DOCTYPE svg PUBLIC "-//W3C//DTD SVG 1.1//EN" "http://www.w3.org/Graphics/SVG/1.1/DTD/svg11.dtd" >
<svg xmlns="http://www.w3.org/2000/svg">
<metadata>Generated by IcoMoon</metadata>
<defs>
<font id="pricons" horiz-adv-x="1024">
<font-face units-per-em="1024" ascent="960" descent="-64" />
<missing-glyph horiz-adv-x="1024" />
<glyph unicode="&#x20;" horiz-adv-x="512" d="" />
<glyph unicode="&#xe900;" glyph-name="cube" d="M150 928c16.568 0 30-13.432 30-30v-60c0-16.568-13.432-30-30-30s-30 13.432-30 30v60c0 16.568 13.432 30 30 30zM766.162 798.439l0.179-0.103c9.88-5.372 15.658-15.702 15.658-26.337v-264c0-10.342-5.327-19.957-14.1-25.439l-240-150c-9.682-6.053-22.139-6.054-31.799 0l-240 150c-8.772 5.482-14.1 15.097-14.1 25.439v264c0 10.869 6.016 21.271 16.055 26.563l240 126c8.731 4.584 19.16 4.584 27.891 0l240-126c0.073-0.039 0.144-0.081 0.216-0.123v-0.001zM302 524.628l180.001-112.501v198.886l-180.001 108.001v-194.386zM333.215 770.256l178.785-107.271 178.785 107.271-178.785 93.861-178.785-93.861zM542 412.127l180.001 112.501v194.386l-180.001-108.001v-198.886zM964.001 778v-60.001c0-16.567 13.431-30 30-30 16.567 0 30 13.433 30 30v60.001c0 16.568-13.433 30-30 30-16.569 0-30-13.432-30-30zM994 628.001c16.567 0 30-13.433 30-30.001v-59.999c0-16.569-13.433-30.001-30-30.001-16.569 0-30 13.433-30 30.001v59.999c0 16.569 13.431 30.001 30 30.001zM964.001 418v-60.001c0-16.567 13.431-30 30-30 16.567 0 30 13.433 30 30v60.001c0 16.567-13.433 30-30 30-16.569 0-30-13.433-30-30zM994 267.999c-16.569 0-30-13.431-30-30v-81.616l-444.752 110.727c-4.762 1.185-9.735 1.185-14.497 0l-444.752-110.727v81.616c0 16.569-13.432 30-30 30s-30-13.431-30-30v-120c0-13.967 9.762-25.898 22.752-29.111l482-120c2.381-0.592 4.815-0.889 7.248-0.889s4.868 0.296 7.248 0.889l481.999 120c13.169 3.257 22.753 15.298 22.753 29.111v120c0 16.569-13.433 30-30 30zM512 28.915l-357.822 89.084 357.822 89.084 357.822-89.084-357.822-89.084zM0 778v-60.001c0-16.567 13.432-30 30-30s30 13.433 30 30v60.001c0 16.568-13.432 30-30 30s-30-13.432-30-30zM30 628.001c16.568 0 30-13.433 30-30.001v-59.999c0-16.569-13.432-30.001-30-30.001s-30 13.433-30 30.001v59.999c0 16.569 13.432 30.001 30 30.001zM0 418v-60.001c0-16.567 13.432-30 30-30s30 13.433 30 30v60.001c0 16.567-13.432 30-30 30s-30-13.433-30-30zM120 718v-59.999c0-16.569 13.432-30 30-30s30 13.431 30 30v59.999c0 16.569-13.432 30-30 30s-30-13.431-30-30zM150 568c16.568 0 30-13.433 30-30v-60.001c0-16.567-13.432-30-30-30s-30 13.433-30 30v60.001c0 16.567 13.432 30 30 30zM120 358v-59.999c0-16.569 13.432-30.001 30-30.001s30 13.433 30 30.001v59.999c0 16.569-13.432 30.001-30 30.001s-30-13.433-30-30.001zM874 928c16.567 0 30-13.432 30-30v-60c0-16.568-13.433-30-30-30-16.569 0-30.001 13.432-30.001 30v60c0 16.568 13.433 30 30.001 30zM843.999 718v-59.999c0-16.569 13.433-30 30.001-30s30 13.431 30 30v59.999c0 16.569-13.433 30-30 30-16.569 0-30.001-13.431-30.001-30zM874 568c16.567 0 30-13.433 30-30v-60.001c0-16.567-13.433-30-30-30-16.569 0-30.001 13.433-30.001 30v60.001c0 16.567 13.433 30 30.001 30zM843.999 358v-59.999c0-16.569 13.433-30.001 30.001-30.001s30 13.433 30 30.001v59.999c0 16.569-13.433 30.001-30 30.001-16.569 0-30.001-13.433-30.001-30.001z" />
<glyph unicode="&#xe901;" glyph-name="supplies" d="M1018.931 377.905c-0.007 0.819-0.055 1.637-0.163 2.454l-0.027 0.163c-0.102 0.731-0.254 1.457-0.439 2.181-0.029 0.115-0.060 0.229-0.091 0.342l-0.073 0.258c-0.168 0.585-0.369 1.163-0.592 1.737l-0.086 0.221c-0.048 0.124-0.093 0.249-0.146 0.369-0.309 0.717-0.645 1.423-1.044 2.116l-0.037 0.060c-0.397 0.689-0.839 1.333-1.304 1.955-0.086 0.117-0.177 0.229-0.271 0.34l-0.126 0.155c-0.384 0.483-0.786 0.944-1.209 1.382-0.080 0.082-0.159 0.166-0.24 0.247-0.064 0.068-0.13 0.133-0.197 0.197-0.534 0.525-1.092 1.019-1.675 1.474l-0.060 0.051-0.062 0.051c-0.655 0.499-1.335 0.951-2.043 1.366-0.051 0.029-0.097 0.069-0.15 0.101l-233.392 134.738v269.503c0 0.058-0.011 0.112-0.013 0.17-0.005 0.822-0.057 1.644-0.165 2.466l-0.022 0.122c-0.101 0.748-0.258 1.488-0.448 2.228-0.048 0.19-0.102 0.38-0.157 0.57-0.172 0.598-0.377 1.192-0.605 1.78l-0.073 0.187c-0.022 0.061-0.046 0.122-0.069 0.183-0.024 0.062-0.048 0.123-0.075 0.183-0.313 0.73-0.655 1.452-1.062 2.158-0.406 0.704-0.859 1.36-1.333 1.996-0.077 0.104-0.161 0.206-0.243 0.307l-0.137 0.167c-0.389 0.49-0.797 0.958-1.225 1.402-0.141 0.146-0.282 0.294-0.426 0.436-0.536 0.526-1.097 1.022-1.68 1.48l-0.117 0.1c-0.656 0.502-1.34 0.954-2.048 1.37-0.051 0.030-0.095 0.068-0.144 0.096l-243.429 140.541c-6.217 3.588-13.877 3.59-20.094 0l-243.423-140.539c-0.049-0.028-0.088-0.062-0.137-0.090-0.711-0.418-1.399-0.872-2.061-1.38l-0.053-0.044-0.040-0.033c-0.592-0.462-1.161-0.968-1.706-1.5-0.141-0.14-0.282-0.284-0.419-0.428-0.428-0.446-0.836-0.914-1.227-1.404l-0.132-0.162c-0.084-0.104-0.17-0.208-0.251-0.316-0.474-0.634-0.923-1.292-1.329-1.994-0.406-0.704-0.75-1.422-1.062-2.15-0.048-0.112-0.090-0.226-0.133-0.34v0l-0.090-0.234c-0.229-0.58-0.428-1.164-0.598-1.754-0.057-0.194-0.113-0.39-0.165-0.586-0.187-0.73-0.34-1.464-0.443-2.202l-0.026-0.146c-0.108-0.818-0.155-1.64-0.163-2.458 0-0.015 0-0.030-0.002-0.045 0-0.014-0.002-0.028-0.004-0.042-0.002-0.017-0.004-0.034-0.004-0.051-0.002-0.012-0.002-0.024-0.002-0.036v-269.499l-233.397-134.742c-0.026-0.015-0.050-0.033-0.074-0.049l-0.066-0.046c-0.71-0.415-1.398-0.869-2.056-1.375l-0.047-0.038-0.047-0.040c-0.594-0.461-1.16-0.965-1.704-1.501-0.108-0.106-0.213-0.214-0.317-0.322l-0.105-0.108c-0.426-0.444-0.834-0.911-1.224-1.401l-0.131-0.161c-0.087-0.106-0.174-0.212-0.255-0.322-0.468-0.625-0.912-1.275-1.314-1.969l-0.020-0.031c-0.402-0.7-0.746-1.413-1.054-2.138-0.050-0.117-0.096-0.238-0.142-0.358l-0.088-0.229c-0.224-0.574-0.424-1.156-0.594-1.741-0.058-0.197-0.114-0.395-0.166-0.596-0.186-0.726-0.338-1.454-0.44-2.187l-0.028-0.159c-0.108-0.817-0.156-1.637-0.162-2.458 0-0.029-0.003-0.057-0.006-0.086-0.003-0.027-0.006-0.057-0.006-0.086v-281.099h0.002c0-7.181 3.83-13.811 10.046-17.403l243.443-140.537c0.024-0.013 0.049-0.026 0.075-0.037 0.015-0.005 0.027-0.013 0.042-0.020 0.011-0.005 0.022-0.011 0.033-0.016 0.717-0.406 1.45-0.773 2.216-1.092l0.137-0.051c0.691-0.28 1.401-0.514 2.127-0.717 0.197-0.057 0.399-0.104 0.596-0.152 0.592-0.146 1.196-0.265 1.808-0.357l0.296-0.048c0.108-0.018 0.216-0.035 0.324-0.046 0.783-0.093 1.58-0.155 2.388-0.155s1.604 0.062 2.388 0.155c0.128 0.015 0.256 0.035 0.384 0.057v0l0.236 0.037c0.611 0.091 1.214 0.208 1.805 0.357l0.121 0.029c0.161 0.040 0.32 0.079 0.479 0.124 0.722 0.199 1.428 0.435 2.116 0.713 0.049 0.020 0.099 0.035 0.15 0.057 0.763 0.316 1.498 0.684 2.207 1.088l0.080 0.040 0.075 0.035 233.375 134.74 233.375-134.74c0.026-0.015 0.053-0.026 0.079-0.038 0.027-0.011 0.053-0.024 0.080-0.038 0.711-0.404 1.443-0.77 2.205-1.086l0.062-0.024 0.095-0.035c0.684-0.278 1.39-0.51 2.108-0.711 0.124-0.035 0.249-0.066 0.373-0.097l0.23-0.057c0.589-0.146 1.192-0.265 1.803-0.357l0.249-0.040c0.124-0.020 0.249-0.040 0.373-0.053 0.784-0.093 1.578-0.155 2.388-0.155s1.604 0.062 2.388 0.155c0.128 0.015 0.254 0.035 0.38 0.055l0.241 0.038c0.611 0.091 1.214 0.208 1.805 0.357 0.199 0.049 0.402 0.097 0.602 0.154 0.72 0.199 1.423 0.433 2.108 0.711 0.051 0.020 0.106 0.037 0.157 0.059 0.763 0.316 1.494 0.684 2.207 1.086 0.051 0.029 0.106 0.048 0.157 0.077l243.443 140.537c6.217 3.589 10.048 10.224 10.048 17.403v281.093c0.005 0.038 0.002 0.075 0 0.112l-0.004 0.066zM837.162 447.868l-203.237-117.339-81.755 47.203 203.233 117.334 81.759-47.197zM735.312 529.869l-203.233-117.334v234.672l203.233 117.352v-234.69zM511.984 916.704l81.754-47.2-203.238-117.341-81.75 47.205 203.235 117.336zM268.56 495.064l81.744-47.194-203.242-117.336-81.752 47.195 203.249 117.334zM248.468-9.106l-203.255 117.338v234.695l86.572-49.979c2.682-2.794 6.052-4.705 9.69-5.595l106.993-61.767v-234.692zM268.562 260.392l-81.307 46.938 203.235 117.338 81.306-46.939-203.233-117.336zM491.889 108.231l-203.233-117.336v234.692l203.233 117.339v-234.695zM491.889 412.531l-203.233 117.336v234.695l86.517-49.96c2.697-2.823 6.095-4.747 9.763-5.637l106.955-61.758v-234.675h-0.002zM430.689 728.955l203.237 117.347 81.293-46.934-203.233-117.354-81.296 46.941zM735.309-9.101l-203.229 117.332v234.695l86.57-49.98c2.673-2.787 6.040-4.69 9.671-5.584l106.992-61.771v-234.692h-0.004zM755.407 260.392l-81.293 46.934 203.237 117.339 81.304-46.938-203.248-117.336zM978.752 108.231l-203.253-117.338v234.693l203.253 117.339v-234.695zM909.782 125.363c5.55-9.613 2.253-21.901-7.355-27.451l-73.042-42.165c-3.163-1.827-6.618-2.697-10.026-2.697-6.947 0-13.7 3.606-17.423 10.053-5.55 9.609-2.255 21.899 7.355 27.447l73.042 42.167c9.616 5.548 21.903 2.253 27.449-7.355zM942.687 161.655c25.904 0 25.86-40.188 0-40.188-25.902 0-25.86 40.188 0 40.188z" />
<glyph unicode="&#xe902;" glyph-name="equalizer" d="M896 768h-388.544c-14.312 55.048-63.993 96-123.456 96s-109.144-40.952-123.456-96h-132.544c-17.672 0-32-14.329-32-32s14.328-32 32-32h132.544c14.312-55.047 63.993-96 123.456-96s109.144 40.953 123.456 96h388.544c17.671 0 32 14.329 32 32s-14.329 32-32 32zM384 672c-35.297 0-64 28.703-64 64s28.703 64 64 64c35.297 0 64-28.703 64-64s-28.703-64-64-64zM896 480h-132.544c-14.312 55.047-63.993 96-123.456 96s-109.144-40.953-123.456-96h-388.544c-17.672 0-32-14.329-32-32s14.328-32 32-32h388.544c14.312-55.047 63.993-96 123.456-96s109.144 40.953 123.456 96h132.544c17.671 0 32 14.329 32 32s-14.329 32-32 32zM640 384c-35.297 0-64 28.703-64 64s28.703 64 64 64c35.297 0 64-28.703 64-64s-28.703-64-64-64zM896 192h-388.544c-14.312 55.047-63.993 96-123.456 96s-109.144-40.953-123.456-96h-132.544c-17.672 0-32-14.329-32-32s14.328-32 32-32h132.544c14.312-55.047 63.993-96 123.456-96s109.144 40.953 123.456 96h388.544c17.671 0 32 14.329 32 32s-14.329 32-32 32zM384 96c-35.297 0-64 28.703-64 64s28.703 64 64 64c35.297 0 64-28.703 64-64s-28.703-64-64-64zM896 768h-388.544c-14.312 55.048-63.993 96-123.456 96s-109.144-40.952-123.456-96h-132.544c-17.672 0-32-14.329-32-32s14.328-32 32-32h132.544c14.312-55.047 63.993-96 123.456-96s109.144 40.953 123.456 96h388.544c17.671 0 32 14.329 32 32s-14.329 32-32 32zM384 672c-35.297 0-64 28.703-64 64s28.703 64 64 64c35.297 0 64-28.703 64-64s-28.703-64-64-64zM896 480h-132.544c-14.312 55.047-63.993 96-123.456 96s-109.144-40.953-123.456-96h-388.544c-17.672 0-32-14.329-32-32s14.328-32 32-32h388.544c14.312-55.047 63.993-96 123.456-96s109.144 40.953 123.456 96h132.544c17.671 0 32 14.329 32 32s-14.329 32-32 32zM640 384c-35.297 0-64 28.703-64 64s28.703 64 64 64c35.297 0 64-28.703 64-64s-28.703-64-64-64zM896 192h-388.544c-14.312 55.047-63.993 96-123.456 96s-109.144-40.953-123.456-96h-132.544c-17.672 0-32-14.329-32-32s14.328-32 32-32h132.544c14.312-55.047 63.993-96 123.456-96s109.144 40.953 123.456 96h388.544c17.671 0 32 14.329 32 32s-14.329 32-32 32zM384 96c-35.297 0-64 28.703-64 64s28.703 64 64 64c35.297 0 64-28.703 64-64s-28.703-64-64-64z" />
<glyph unicode="&#xe903;" glyph-name="delivery" d="M1017.223 450.582l-60.175 77.502 0.057 0.029-96.805 192.536c-5.488 10.896-16.64 17.77-28.838 17.77h-137.68v32.271c0 17.824-14.446 32.268-32.269 32.268h-537.815c-17.824 0-32.268-14.446-32.268-32.268s14.446-32.269 32.268-32.269h505.546v-225.882c0-17.823 14.446-32.269 32.267-32.269h250.957l46.994-60.535v-166.422h-60.82c-13.987 56.152-64.843 97.88-125.264 97.88s-111.28-41.73-125.266-97.883h-190.475c-13.987 56.154-64.845 97.883-125.266 97.883-60.423 0-111.28-41.73-125.266-97.883h-83.406c-17.824 0-32.268-14.446-32.268-32.269s14.446-32.267 32.268-32.267h83.962c14.735-55.066 65.062-95.733 124.71-95.733 59.646 0 109.974 40.666 124.709 95.729h191.59c14.735-55.064 65.061-95.729 124.709-95.729 59.659 0 109.981 40.669 124.712 95.737h93.639c17.825 0 32.269 14.446 32.271 32.267v209.744c0 7.164-2.388 14.135-6.777 19.792zM811.562 673.882l64.894-129.073h-182.674v129.073h117.78zM332.37 157.579c-35.593 0-64.538 28.946-64.538 64.539 0 35.591 28.944 64.538 64.538 64.538 35.582 0 64.538-28.946 64.538-64.538 0-35.595-28.946-64.539-64.538-64.539zM773.378 157.579c-35.591 0-64.538 28.946-64.538 64.539 0 35.591 28.946 64.538 64.538 64.538s64.538-28.946 64.538-64.538c0-35.595-28.946-64.539-64.538-64.539zM84.974 416.806c-17.824 0-32.268-14.448-32.268-32.269 0-17.825 14.446-32.269 32.268-32.269h148.436c17.825 0 32.269 14.448 32.269 32.269 0.002 17.821-14.444 32.269-32.267 32.269h-148.438zM307.63 543.731c17.825 0 32.269-14.448 32.269-32.269 0-17.823-14.444-32.269-32.269-32.269h-275.362c-17.822 0-32.268 14.444-32.268 32.269 0 17.823 14.446 32.269 32.268 32.269h275.362zM84.974 670.656c-17.824 0-32.268-14.446-32.268-32.269s14.446-32.267 32.268-32.267h275.362c17.823 0 32.267 14.446 32.267 32.267 0.002 17.823-14.444 32.269-32.267 32.269h-275.362zM1017.223 450.582l-60.175 77.502 0.057 0.029-96.805 192.536c-5.488 10.896-16.64 17.77-28.838 17.77h-137.68v32.271c0 17.824-14.446 32.268-32.269 32.268h-537.815c-17.824 0-32.268-14.446-32.268-32.268s14.446-32.269 32.268-32.269h505.546v-225.882c0-17.823 14.446-32.269 32.267-32.269h250.957l46.994-60.535v-166.422h-60.82c-13.987 56.152-64.843 97.88-125.264 97.88s-111.28-41.73-125.266-97.883h-190.475c-13.987 56.154-64.845 97.883-125.266 97.883-60.423 0-111.28-41.73-125.266-97.883h-83.406c-17.824 0-32.268-14.446-32.268-32.269s14.446-32.267 32.268-32.267h83.962c14.735-55.066 65.062-95.733 124.71-95.733 59.646 0 109.974 40.666 124.709 95.729h191.59c14.735-55.064 65.061-95.729 124.709-95.729 59.659 0 109.981 40.669 124.712 95.737h93.639c17.825 0 32.269 14.446 32.271 32.267v209.744c0 7.164-2.388 14.135-6.777 19.792zM811.562 673.882l64.894-129.073h-182.674v129.073h117.78zM332.37 157.579c-35.593 0-64.538 28.946-64.538 64.539 0 35.591 28.944 64.538 64.538 64.538 35.582 0 64.538-28.946 64.538-64.538 0-35.595-28.946-64.539-64.538-64.539zM773.378 157.579c-35.591 0-64.538 28.946-64.538 64.539 0 35.591 28.946 64.538 64.538 64.538s64.538-28.946 64.538-64.538c0-35.595-28.946-64.539-64.538-64.539zM84.974 416.806c-17.824 0-32.268-14.448-32.268-32.269 0-17.825 14.446-32.269 32.268-32.269h148.436c17.825 0 32.269 14.448 32.269 32.269 0.002 17.821-14.444 32.269-32.267 32.269h-148.438zM307.63 543.731c17.825 0 32.269-14.448 32.269-32.269 0-17.823-14.444-32.269-32.269-32.269h-275.362c-17.822 0-32.268 14.444-32.268 32.269 0 17.823 14.446 32.269 32.268 32.269h275.362zM84.974 670.656c-17.824 0-32.268-14.446-32.268-32.269s14.446-32.267 32.268-32.267h275.362c17.823 0 32.267 14.446 32.267 32.267 0.002 17.823-14.444 32.269-32.267 32.269h-275.362z" />
<glyph unicode="&#xe904;" glyph-name="credit-card" d="M1004.608 797.447l-224 96c-8.128 3.392-17.152 3.392-25.28 0l-224-96c-11.712-5.056-19.328-16.64-19.328-29.44v-128c0-176.064 65.088-278.976 240.064-379.776 4.928-2.816 10.432-4.224 15.936-4.224s11.008 1.408 15.936 4.224c174.976 100.544 240.064 203.456 240.064 379.776v128c0 12.8-7.616 24.384-19.392 29.44zM960 640.007c0-147.776-48.896-229.12-192-314.88-143.104 85.952-192 167.296-192 314.88v106.88l192 82.304 192-82.304v-106.88zM960 288.007v-224h-896v384h352c17.664 0 32 14.336 32 32s-14.336 32-32 32h-352v128h352c17.664 0 32 14.336 32 32s-14.336 32-32 32h-352c-35.328 0-64-28.672-64-64v-576c0-35.328 28.672-64 64-64h896c35.328 0 64 28.672 64 64v224c0 17.664-14.336 32-32 32s-32-14.336-32-32zM160 320.007c-17.664 0-32-14.336-32-32s14.336-32 32-32h128c17.664 0 32 14.336 32 32s-14.336 32-32 32h-128zM839.036 692.039l-100.608-125.824-39.808 59.52c-9.92 14.72-29.824 18.624-44.352 8.896-14.656-9.792-18.688-29.696-8.896-44.352l64-96c5.696-8.512 15.040-13.76 25.28-14.272h1.344c9.664 0 18.88 4.352 25.024 12.032l128 160c11.008 13.824 8.832 33.92-4.992 44.992-13.76 10.88-33.856 8.768-44.992-4.992zM1004.608 797.447l-224 96c-8.128 3.392-17.152 3.392-25.28 0l-224-96c-11.712-5.056-19.328-16.64-19.328-29.44v-128c0-176.064 65.088-278.976 240.064-379.776 4.928-2.816 10.432-4.224 15.936-4.224s11.008 1.408 15.936 4.224c174.976 100.544 240.064 203.456 240.064 379.776v128c0 12.8-7.616 24.384-19.392 29.44zM960 640.007c0-147.776-48.896-229.12-192-314.88-143.104 85.952-192 167.296-192 314.88v106.88l192 82.304 192-82.304v-106.88zM960 288.007v-224h-896v384h352c17.664 0 32 14.336 32 32s-14.336 32-32 32h-352v128h352c17.664 0 32 14.336 32 32s-14.336 32-32 32h-352c-35.328 0-64-28.672-64-64v-576c0-35.328 28.672-64 64-64h896c35.328 0 64 28.672 64 64v224c0 17.664-14.336 32-32 32s-32-14.336-32-32zM160 320.007c-17.664 0-32-14.336-32-32s14.336-32 32-32h128c17.664 0 32 14.336 32 32s-14.336 32-32 32h-128zM839.036 692.039l-100.608-125.824-39.808 59.52c-9.92 14.72-29.824 18.624-44.352 8.896-14.656-9.792-18.688-29.696-8.896-44.352l64-96c5.696-8.512 15.040-13.76 25.28-14.272h1.344c9.664 0 18.88 4.352 25.024 12.032l128 160c11.008 13.824 8.832 33.92-4.992 44.992-13.76 10.88-33.856 8.768-44.992-4.992z" />
<glyph unicode="&#xe905;" glyph-name="box-order" d="M80 440c0 242.615 197.383 440 440 440 69.115 0 135.23-15.536 196.511-46.178 19.756-9.878 43.789-1.87 53.667 17.888 9.878 19.76 1.872 43.786-17.887 53.666-72.494 36.246-150.645 54.624-232.291 54.624-286.729 0-520-233.271-520-520 0-101.129 28.5-197.533 81.656-280.079-19.502 0.832-37.188-12.69-40.95-32.437-4.132-21.701 10.108-42.644 31.81-46.779l100.607-19.163c17.782-3.452 35.399 5.444 43.367 21.211 7.671 15.188 4.963 34.086-7.572 46.495-83.134 82.394-128.918 192.75-128.918 310.751zM752 168c22.093 0 40 17.907 40 40v480c0 22.093-17.907 40-40 40h-480c-22.093 0-40-17.907-40-40v-480c0-22.093 17.907-40 40-40h480zM472 648h80v-80h-80v80zM312 648h80v-120c0-22.093 17.907-40 40-40h160c22.093 0 40 17.907 40 40v120h80v-400h-400v400zM942.349 736.071c0.565-0.024 1.132-0.080 1.695-0.080 18.823 0 35.599 13.352 39.248 32.523 4.134 21.702-10.108 42.644-31.808 46.778l-100.751 19.19c-17.3 3.302-34.778-5.138-42.937-20.662-8.035-15.262-5.367-34.537 7.274-47.063 83.141-82.388 128.929-192.75 128.929-310.757 0-242.615-197.383-440-440-440-69.115 0-135.23 15.536-196.511 46.175-19.758 9.88-43.787 1.871-53.667-17.887-9.878-19.76-1.871-43.787 17.887-53.667 72.494-36.244 150.645-54.621 232.291-54.621 286.727 0 520 233.271 520 520 0 101.127-28.5 197.53-81.651 280.071z" />
<glyph unicode="&#xe906;" glyph-name="database" d="M984 960h-944c-22.094 0-40-17.906-40-40v-629.336c0-22.095 17.906-40.002 40-40.002h432v-84.288c-33.306-11.961-59.75-38.405-71.711-71.711h-202.951c-22.095 0-40.002-17.905-40.002-39.998 0-22.095 17.906-40.002 40.002-40.002h202.951c16.453-45.804 60.314-78.663 111.711-78.663s95.258 32.859 111.711 78.663h202.951c22.095 0 40.002 17.907 40.002 40.002 0 22.093-17.907 39.998-40.002 39.998h-202.951c-11.961 33.306-38.405 59.75-71.711 71.711v84.288h432c22.093 0 40 17.907 40 40.002v629.336c0 22.094-17.907 40-40 40zM512 16c-21.319 0-38.665 17.344-38.665 38.665 0 21.319 17.346 38.661 38.665 38.661s38.665-17.342 38.665-38.661c0-21.321-17.346-38.665-38.665-38.665zM944 880v-234.662h-864v234.662h864zM80 330.662v234.675h864v-234.666l-864-0.009zM157.336 762.662c0 22.095 17.906 40.002 40.002 40.002h78.663c22.093 0 39.998-17.906 39.998-40.002 0-22.093-17.905-39.998-39.998-39.998h-78.663c-22.095 0-40.002 17.913-40.002 39.998zM393.335 762.662c0 22.095 17.907 40.002 40.002 40.002h393.326c22.095 0 40.002-17.906 40.002-40.002 0-22.093-17.907-39.998-40.002-39.998h-393.326c-22.095 0-40.002 17.913-40.002 39.998zM315.999 448c0-22.095-17.905-40-39.998-40h-78.663c-22.095 0-40.002 17.905-40.002 40s17.906 40 40.002 40h78.663c22.093 0 39.998-17.905 39.998-40zM866.664 448c0-22.095-17.907-40-40.002-40h-393.326c-22.095 0-40.002 17.905-40.002 40s17.907 40 40.002 40h393.326c22.095 0 40.002-17.905 40.002-40z" />
<glyph unicode="&#xe907;" glyph-name="design" d="M90 960h843.999c49.626 0 90-40.374 90-90v-843.999c0-49.626-40.375-90-90-90h-843.999c-49.626 0-90 40.375-90 90v843.999c0 49.626 40.374 90 90 90zM934-4.001c16.543 0 30.001 13.458 30.001 30.001v634h-904.001v-634c0-16.543 13.458-30.001 30-30.001h843.999zM60 720h904.001v150c0 16.542-13.458 30-30.001 30h-843.999c-16.542 0-30-13.458-30-30v-150zM843.999 536v30c0 16.569-13.431 30.001-30 30.001-16.567 0-30-13.433-30-30.001v-30h-150c-16.569 0-30.001-13.433-30.001-30 0-16.569 13.433-30.001 30.001-30.001h150v-30c0-16.567 13.433-30 30-30 16.569 0 30 13.433 30 30v30h30.001c16.567 0 30 13.433 30 30.001s-13.433 30-30 30h-30.001zM874 356.001c16.567 0 30-13.433 30-30.001s-13.433-30-30-30h-150v-30c0-16.569-13.433-30.001-30.001-30.001s-30 13.433-30 30.001v30h-30c-16.569 0-30.001 13.433-30.001 30 0 16.569 13.433 30.001 30.001 30.001h30v30c0 16.567 13.433 30 30 30 16.569 0 30.001-13.433 30.001-30v-30h150zM843.999 176v30c0 16.569-13.431 30-30 30-16.567 0-30-13.431-30-30v-30h-150c-16.569 0-30.001-13.433-30.001-30 0-16.569 13.433-30 30.001-30h150v-30.001c0-16.567 13.433-30 30-30 16.569 0 30 13.433 30 30v30.001h30.001c16.567 0 30 13.431 30 30 0 16.567-13.433 30-30 30h-30.001zM150 780c-16.569 0-30 13.431-30 30s13.431 30 30 30c16.569 0 30-13.431 30-30s-13.431-30-30-30zM299.999 810c0 16.569-13.431 30-30 30s-30-13.431-30-30c0-16.569 13.431-30 30-30s30 13.431 30 30zM874 840c16.567 0 30-13.432 30-30s-13.433-30-30-30h-424c-16.569 0-30 13.432-30 30s13.431 30 30 30h424zM346.64 560.964l179.999-120c8.181-5.438 13.36-14.853 13.363-24.964v-179.999c0-10.030-5.014-19.397-13.361-24.962l-179.999-120c-9.836-6.559-23.016-6.844-33.282 0l-180 120c-8.346 5.564-13.36 14.932-13.36 24.962v179.999c0 10.28 5.324 19.621 13.358 24.964l180.001 120c10.077 6.715 23.203 6.715 33.282 0zM180 359.945v-107.888l119.999-80v107.888l-119.999 80zM204.083 416l125.917-83.942 125.915 83.942-125.915 83.944-125.917-83.944zM360 279.945v-107.888l120 80v107.888l-120-80z" />
<glyph unicode="&#xe908;" glyph-name="ecology" d="M1011.33 318.254l-88.956 83.533c-53.696 50.423-126.625 78.19-205.35 78.19h-157.056c-55.795 0-101.564-35.297-115.573-84.727h-17.498c-31.643 0-61.502 12.209-84.123 34.423l-138.827 135.903c-22.589 22.208-52.389 34.397-84.025 34.397-0.356 0-0.714 0-1.072-0.005-32.033-0.276-62.037-13.016-84.486-35.867-46.32-47.146-45.658-123.198 1.474-169.534l180.297-177.242c40.951-40.254 88.664-71.696 141.809-93.444 53.146-21.749 109.21-32.775 166.634-32.775h286.877l144.291-143.472c7.645-7.601 17.84-11.635 28.209-11.635 5.169 0 10.39 1.002 15.353 3.068 14.917 6.206 24.638 20.774 24.638 36.932v313.099c0.002 11.043-4.562 21.597-12.615 29.157zM943.951 72.174l-87.792 87.292c-7.493 7.453-17.633 11.635-28.204 11.635h-303.375c-94.996 0-184.622 36.674-252.365 103.27l-180.296 177.24c-15.685 15.422-15.907 40.733-0.49 56.424 7.47 7.603 17.457 11.844 28.119 11.935 0.12 0 0.238 0.004 0.356 0.004 10.527 0 20.449-4.059 28.025-11.507l138.84-135.914c37.625-36.952 87.391-57.3 140.127-57.3h23.186c18.597-41.922 60.859-71.265 109.886-71.265h161.993c22.091 0 39.998 17.905 39.998 39.996s-17.907 40-39.998 40h-161.993c-22.429 0-39.996 17.179-39.996 39.109 0 21.030 17.194 36.886 39.996 36.886h157.056c58.302 0 111.784-20.069 150.592-56.51l76.336-71.68v-199.616h-0.002zM511.969 620.122v-28.149c0-22.091 17.909-39.998 40-39.998s39.996 17.907 39.996 39.998v28.149c50.511 0.827 137.399 11.088 192.161 66.617 78.901 80.005 65.148 228.234 64.527 234.504-1.803 18.111-15.607 32.723-33.585 35.55-6.197 0.976-152.79 22.903-237.462-62.953-9.975-10.116-18.437-21.093-25.637-32.587-7.199 11.493-15.664 22.471-25.64 32.587-84.67 85.858-231.261 63.931-237.46 62.955-17.979-2.83-31.781-17.439-33.584-35.55-0.625-6.27-14.374-154.495 64.527-234.504 54.766-55.536 141.652-65.792 192.157-66.619zM634.565 837.672c35.269 35.762 92.882 42.37 130.642 42.37 1.622 0 3.2-0.012 4.743-0.036-1.055-42.192-9.951-103.805-42.781-137.094-32.539-32.997-92.586-41.871-133.784-42.875-0.887 37.864 4.103 100.036 41.179 137.634zM469.371 837.672c37.085-37.604 42.070-99.794 41.187-137.631-41.229 1.008-101.259 9.885-133.789 42.871-32.836 33.293-41.728 94.928-42.783 137.090 37.563 0.548 98.62-5.050 135.386-42.33z" />
<glyph unicode="&#xe909;" glyph-name="global" d="M188.933 50.812c4.222-3.434 9.302-5.109 14.351-5.109 6.607 0 13.16 2.865 17.655 8.386 7.931 9.744 6.462 24.075-3.279 32.005-67.207 54.713-116.803 125.577-145.070 204.78 85.567-17.317 173.533-29.467 263.033-36.35 4.167-41.079 9.679-80.569 16.468-117.725 2.26-12.357 14.107-20.537 26.467-18.291 12.361 2.262 20.548 14.109 18.289 26.469-6.155 33.679-11.227 69.369-15.168 106.478 37.025-2.088 74.3-3.286 111.744-3.582 0.060 0 0.124 0 0.185 0 12.482 0 22.645 10.068 22.744 22.57 0.097 12.564-10.004 22.828-22.568 22.928-39.005 0.307-77.811 1.611-116.337 3.904-3.849 48.722-5.829 99.374-5.829 150.729 0 42.494 1.335 84.202 3.906 124.493 44.822-3.003 90.317-4.506 136.402-4.506 45.862 0 91.385 1.527 136.36 4.56 2.121-32.909 3.412-66.721 3.814-101.069 0.146-12.473 10.3-22.482 22.74-22.482 0.088 0 0.179 0 0.271 0 12.564 0.146 22.627 10.448 22.482 23.011-0.413 35.344-1.757 70.17-3.975 104.124 50.598 4.595 100.401 11.127 149.12 19.571 12.378 2.149 20.676 13.921 18.531 26.302-2.147 12.378-13.926 20.683-26.3 18.529-47.323-8.201-95.706-14.557-144.876-19.039-9.699 107.302-28.272 203.578-53.628 276.209 95.131-26.153 180.047-82.175 242.792-162.237 7.751-9.891 22.049-11.622 31.94-3.875 9.887 7.749 11.624 22.049 3.871 31.936-97.819 124.809-244.756 196.391-403.149 196.391-30.927 0-61.239-2.76-90.668-8.040-0.68-0.094-1.357-0.215-2.024-0.369-168.225-30.898-307.96-144.296-375.518-296.56-0.703-1.258-1.296-2.6-1.759-4.014-26.98-62.25-41.948-130.884-41.948-202.935 0-154.673 68.865-299.447 188.933-397.191zM440.261 908.93c23.365 3.617 47.292 5.495 71.656 5.495 24.221 0 48.155-1.838 71.627-5.435 29.281-70.788 50.662-173.738 61.235-291.076-43.814-2.946-88.165-4.425-132.86-4.425-44.917 0-89.269 1.465-132.93 4.374 10.485 117.275 31.768 219.808 61.272 291.067zM387.286 897.518c-25.481-72.856-43.968-168.819-53.595-276.089-81.968 7.442-161.366 20.1-237.522 37.89 58.815 115.235 164.178 202.959 291.118 238.199zM45.497 448.004c0 59.588 11.238 116.613 31.696 169.048 81.025-19.387 165.619-33.083 253.001-40.989-2.686-41.52-4.080-84.42-4.080-128.059 0-50.147 1.845-99.686 5.451-147.522-93.305 7.497-184.835 20.842-273.6 39.921-8.22 34.86-12.469 70.923-12.469 107.6zM841.88 907.992c37.48 8.458 87.907 12.777 115.359-14.673 32.084-32.086 27.266-104.257-13.219-198.010-41.485-96.062-116.698-207.477-212.851-315.595-17.267 12.672-38.563 20.165-61.57 20.165-57.499 0-104.278-46.78-104.278-104.278s46.779-104.276 104.278-104.276c57.498 0 104.276 46.779 104.276 104.276 0 17.929-4.549 34.818-12.555 49.569 101.14 113.008 180.562 230.427 224.47 332.101 49.69 115.067 50.94 200.902 3.622 248.221-23.236 23.236-69.431 46.761-157.539 26.881-12.257-2.765-19.952-14.943-17.187-27.197s14.941-19.955 27.193-17.185zM669.595 236.822c-32.411 0-58.779 26.368-58.779 58.779s26.368 58.779 58.779 58.779c32.411 0 58.779-26.368 58.779-58.779s-26.368-58.779-58.779-58.779zM563.138 154.161c-107.149-88.704-216.581-156.615-308.144-191.232-47.386-17.913-89.324-26.856-124.948-26.856-40.394 0-72.671 11.493-95.617 34.439-23.128 23.128-46.602 69.071-27.091 156.603 2.735 12.262 14.895 19.99 27.154 17.254 12.264-2.732 19.988-14.892 17.256-27.152-8.288-37.184-12.438-87.237 14.855-114.534 29.166-29.168 90.36-28.173 172.302 2.807 86.992 32.885 191.835 98.132 295.219 183.72 9.675 8.009 24.016 6.66 32.029-3.015 8.011-9.679 6.663-24.020-3.015-32.033zM1013.601 550.329c6.795-33.499 10.242-67.928 10.242-102.325 0-45.466-5.959-89.578-17.137-131.575-0.161-0.766-0.366-1.518-0.603-2.258-51.087-188.407-207.32-334.036-401.521-369.688-0.647-0.146-1.298-0.265-1.957-0.357-29.445-5.285-59.758-8.044-90.701-8.044-37.27 0-74.481 4.030-110.597 11.983-12.27 2.701-20.028 14.839-17.326 27.109 2.699 12.272 14.844 20.028 27.109 17.324 32.912-7.247 66.831-10.92 100.816-10.92 24.364 0 48.283 1.878 71.647 5.493 15.376 37.29 29.083 85.107 39.874 139.257 2.456 12.319 14.435 20.317 26.756 17.863s20.319-14.433 17.863-26.756c-8.916-44.738-19.463-84.559-31.499-118.952 146.176 40.581 263.707 150.715 314.544 292.363-35.231-7.124-71.027-13.405-106.854-18.748-12.438-1.847-24 6.72-25.856 19.147-1.854 12.425 6.718 24.002 19.143 25.856 43.143 6.431 86.226 14.256 128.276 23.285 8.196 34.56 12.531 70.585 12.531 107.613 0 31.367-3.14 62.751-9.333 93.281-2.496 12.314 5.46 24.32 17.772 26.818 12.301 2.498 24.316-5.455 26.812-17.768zM188.933 50.812c4.222-3.434 9.302-5.109 14.351-5.109 6.607 0 13.16 2.865 17.655 8.386 7.931 9.744 6.462 24.075-3.279 32.005-67.207 54.713-116.803 125.577-145.070 204.78 85.567-17.317 173.533-29.467 263.033-36.35 4.167-41.079 9.679-80.569 16.468-117.725 2.26-12.357 14.107-20.537 26.467-18.291 12.361 2.262 20.548 14.109 18.289 26.469-6.155 33.679-11.227 69.369-15.168 106.478 37.025-2.088 74.3-3.286 111.744-3.582 0.060 0 0.124 0 0.185 0 12.482 0 22.645 10.068 22.744 22.57 0.097 12.564-10.004 22.828-22.568 22.928-39.005 0.307-77.811 1.611-116.337 3.904-3.849 48.722-5.829 99.374-5.829 150.729 0 42.494 1.335 84.202 3.906 124.493 44.822-3.003 90.317-4.506 136.402-4.506 45.862 0 91.385 1.527 136.36 4.56 2.121-32.909 3.412-66.721 3.814-101.069 0.146-12.473 10.3-22.482 22.74-22.482 0.088 0 0.179 0 0.271 0 12.564 0.146 22.627 10.448 22.482 23.011-0.413 35.344-1.757 70.17-3.975 104.124 50.598 4.595 100.401 11.127 149.12 19.571 12.378 2.149 20.676 13.921 18.531 26.302-2.147 12.378-13.926 20.683-26.3 18.529-47.323-8.201-95.706-14.557-144.876-19.039-9.699 107.302-28.272 203.578-53.628 276.209 95.131-26.153 180.047-82.175 242.792-162.237 7.751-9.891 22.049-11.622 31.94-3.875 9.887 7.749 11.624 22.049 3.871 31.936-97.819 124.809-244.756 196.391-403.149 196.391-30.927 0-61.239-2.76-90.668-8.040-0.68-0.094-1.357-0.215-2.024-0.369-168.225-30.898-307.96-144.296-375.518-296.56-0.703-1.258-1.296-2.6-1.759-4.014-26.98-62.25-41.948-130.884-41.948-202.935 0-154.673 68.865-299.447 188.933-397.191zM440.261 908.93c23.365 3.617 47.292 5.495 71.656 5.495 24.221 0 48.155-1.838 71.627-5.435 29.281-70.788 50.662-173.738 61.235-291.076-43.814-2.946-88.165-4.425-132.86-4.425-44.917 0-89.269 1.465-132.93 4.374 10.485 117.275 31.768 219.808 61.272 291.067zM387.286 897.518c-25.481-72.856-43.968-168.819-53.595-276.089-81.968 7.442-161.366 20.1-237.522 37.89 58.815 115.235 164.178 202.959 291.118 238.199zM45.497 448.004c0 59.588 11.238 116.613 31.696 169.048 81.025-19.387 165.619-33.083 253.001-40.989-2.686-41.52-4.080-84.42-4.080-128.059 0-50.147 1.845-99.686 5.451-147.522-93.305 7.497-184.835 20.842-273.6 39.921-8.22 34.86-12.469 70.923-12.469 107.6zM841.88 907.992c37.48 8.458 87.907 12.777 115.359-14.673 32.084-32.086 27.266-104.257-13.219-198.010-41.485-96.062-116.698-207.477-212.851-315.595-17.267 12.672-38.563 20.165-61.57 20.165-57.499 0-104.278-46.78-104.278-104.278s46.779-104.276 104.278-104.276c57.498 0 104.276 46.779 104.276 104.276 0 17.929-4.549 34.818-12.555 49.569 101.14 113.008 180.562 230.427 224.47 332.101 49.69 115.067 50.94 200.902 3.622 248.221-23.236 23.236-69.431 46.761-157.539 26.881-12.257-2.765-19.952-14.943-17.187-27.197s14.941-19.955 27.193-17.185zM669.595 236.822c-32.411 0-58.779 26.368-58.779 58.779s26.368 58.779 58.779 58.779c32.411 0 58.779-26.368 58.779-58.779s-26.368-58.779-58.779-58.779zM563.138 154.161c-107.149-88.704-216.581-156.615-308.144-191.232-47.386-17.913-89.324-26.856-124.948-26.856-40.394 0-72.671 11.493-95.617 34.439-23.128 23.128-46.602 69.071-27.091 156.603 2.735 12.262 14.895 19.99 27.154 17.254 12.264-2.732 19.988-14.892 17.256-27.152-8.288-37.184-12.438-87.237 14.855-114.534 29.166-29.168 90.36-28.173 172.302 2.807 86.992 32.885 191.835 98.132 295.219 183.72 9.675 8.009 24.016 6.66 32.029-3.015 8.011-9.679 6.663-24.020-3.015-32.033zM1013.601 550.329c6.795-33.499 10.242-67.928 10.242-102.325 0-45.466-5.959-89.578-17.137-131.575-0.161-0.766-0.366-1.518-0.603-2.258-51.087-188.407-207.32-334.036-401.521-369.688-0.647-0.146-1.298-0.265-1.957-0.357-29.445-5.285-59.758-8.044-90.701-8.044-37.27 0-74.481 4.030-110.597 11.983-12.27 2.701-20.028 14.839-17.326 27.109 2.699 12.272 14.844 20.028 27.109 17.324 32.912-7.247 66.831-10.92 100.816-10.92 24.364 0 48.283 1.878 71.647 5.493 15.376 37.29 29.083 85.107 39.874 139.257 2.456 12.319 14.435 20.317 26.756 17.863s20.319-14.433 17.863-26.756c-8.916-44.738-19.463-84.559-31.499-118.952 146.176 40.581 263.707 150.715 314.544 292.363-35.231-7.124-71.027-13.405-106.854-18.748-12.438-1.847-24 6.72-25.856 19.147-1.854 12.425 6.718 24.002 19.143 25.856 43.143 6.431 86.226 14.256 128.276 23.285 8.196 34.56 12.531 70.585 12.531 107.613 0 31.367-3.14 62.751-9.333 93.281-2.496 12.314 5.46 24.32 17.772 26.818 12.301 2.498 24.316-5.455 26.812-17.768z" />
<glyph unicode="&#xe90a;" glyph-name="globe-address" d="M823.996 719.989c22.091 0 40 17.905 40 39.998 0 22.091-17.909 39.999-40 39.999s-40-17.908-40-39.999c0-22.093 17.909-39.998 40-39.998zM984.719 477.855c-22.031 0.43-40.364-17.077-40.821-39.163-0.797-38.59-6.252-75.652-15.804-110.698h-221.052c2.995 35.524 4.668 72.294 4.923 109.787 0.15 22.089-17.635 40.119-39.728 40.269-22.131 0.135-40.119-17.635-40.269-39.728-0.256-37.879-2.015-74.865-5.184-110.327h-229.555c-3.441 38.482-5.224 78.736-5.224 119.996 0 41.264 1.783 81.518 5.224 120h158.148c22.093 0 40 17.907 40 39.998s-17.907 40-40 40h-148.176c7.351 45.171 17.262 86.552 29.526 122.494 29.491 86.44 61.193 109.502 75.277 109.502 12.824 0 25.765-0.556 38.462-1.656 22.003-1.88 41.393 14.394 43.299 36.405 1.904 22.008-14.396 41.393-36.405 43.297-17.787 1.538-37.851 2.146-47.611 1.924-286.018-1.18-509.738-225.622-509.738-511.967 0-286.881 224.719-511.991 511.991-511.991 133.456 0 262.495 49.066 360.064 144.711 95.075 93.195 148.99 219.741 151.817 356.326 0.455 22.087-17.079 40.36-39.163 40.817zM80.008 447.991c0 41.799 5.654 82.032 16.248 120h220.7c-3.266-38.746-4.948-78.969-4.948-120 0-41.029 1.682-81.254 4.948-119.996h-220.7c-10.594 37.967-16.248 78.199-16.248 119.996zM127.485 247.995h198.783c8.245-54.702 19.935-104.927 34.741-148.325 8.848-25.929 18.255-47.92 27.992-66.551-114.739 32.911-208.457 111.075-261.516 214.875zM361.009 796.315c-14.808-43.4-26.498-93.624-34.741-148.325h-198.783c53.059 103.803 146.781 181.965 261.516 214.875-9.737-18.63-19.143-40.62-27.992-66.549zM586.266 122.481c-25.596-73.558-55.74-106.483-74.266-106.483-14.084 0-45.786 23.064-75.277 109.504-12.264 35.941-22.175 77.321-29.528 122.492h209.616c-7.561-46.51-17.827-88.958-30.546-125.513zM634.743 32.585c9.399 17.904 18.494 38.936 27.077 63.607 15.347 44.103 27.434 95.578 35.902 151.803h199.777c-52.727-104.962-146.648-182.967-262.757-215.409zM791.113 457.218c7.472-10.79 19.76-17.225 32.883-17.225s25.41 6.437 32.883 17.225l132.101 190.749c22.907 33.073 35.013 71.808 35.013 112.020 0 110.278-89.721 199.997-199.998 199.997s-199.998-89.719-199.998-199.997c0-40.212 12.107-78.947 35.013-112.018l132.101-190.751zM823.996 879.985c66.167 0 119.998-53.831 119.998-119.998 0-23.857-7.186-46.843-20.78-66.472l-99.218-143.269-99.218 143.269c-13.594 19.626-20.782 42.615-20.782 66.472 0 66.167 53.833 119.998 120 119.998z" />
<glyph unicode="&#xe90b;" glyph-name="mix-circle" d="M865.867 585.695c11.235 203.828-151.477 374.305-354.008 374.305-202.5 0-365.25-170.437-354.015-374.305-95.094-63.656-157.844-172.054-157.844-294.843 0-263.375 277.978-433.969 511.859-317.703 233.585-116.118 511.852 54.102 511.852 317.703 0 122.789-62.742 231.186-157.844 294.843zM692.352 398.68c-19.366 60.522-54.57 114.024-100.727 155.6 60.61 17.867 127.305 14.57 187.516-11.858-13.36-56.673-44.33-106.624-86.789-143.742zM511.859 65.907c-65.671 46.062-110.352 120.091-116.555 204.663 74.384-25.969 156.93-26.593 233.103 0-6.204-84.571-50.884-158.601-116.548-204.663zM244.57 542.422c60.219 26.437 126.916 29.725 187.516 11.858-46.155-41.576-81.359-95.078-100.727-155.6-42.461 37.118-73.428 87.069-86.789 143.742zM401.858 353.867c15.689 66.547 55.651 123.82 110.001 161.931 54.345-38.111 94.305-95.384 109.992-161.931-69.914-30.687-149.978-30.733-219.994 0zM511.859 880.023c144.578 0 263.415-112.329 273.836-254.305-86.821 30.305-186.039 26.483-273.836-17.156-87.773 43.624-186.984 47.475-273.843 17.156 10.421 141.976 129.256 254.305 273.843 254.305zM79.977 290.853c0 82.373 36.469 156.381 94.093 206.757 24.679-77.124 75.071-142.844 141.063-187.015-5.992-108.624 37.61-211.703 116.954-283.171-175.976-51.867-352.109 80.936-352.109 263.429zM591.625 27.43c79.219 71.358 122.953 174.374 116.952 283.163 65.993 44.171 116.385 109.892 141.063 187.015 57.626-50.375 94.093-124.383 94.093-206.751 0-182.702-176.358-315.242-352.108-263.428z" />
<glyph unicode="&#xe90c;" glyph-name="package" d="M942.080 406.363v195.237c0 5.581-1.496 11.039-4.383 15.81l-166.411 277.413c-16.589 27.566-46.888 44.697-79.042 44.697h-421.928c-32.165 0-62.464-17.131-79.053-44.728l-166.4-277.382c-2.888-4.771-4.383-10.229-4.383-15.81v-491.52c0-50.821 41.339-92.16 92.16-92.16h440.997c47.472-38.349 107.765-61.44 173.403-61.44 152.463 0 276.48 124.017 276.48 276.48 0 65.638-23.091 125.932-61.44 173.403zM512 878.080h180.244c10.741 0 20.849-5.734 26.368-14.909l138.485-230.851h-345.097v245.76zM243.948 863.14c5.519 9.206 15.636 14.94 26.368 14.94h180.244v-245.76h-345.098l138.486 230.82zM81.92 110.080v460.8h798.72v-108.186c-43.961 29.491-96.799 46.746-153.6 46.746-152.464 0-276.48-124.016-276.48-276.48 0-56.801 17.254-109.639 46.746-153.6h-384.666c-16.947 0-30.72 13.773-30.72 30.72zM727.040 17.92c-118.559 0-215.040 96.481-215.040 215.040s96.481 215.040 215.040 215.040c118.559 0 215.040-96.481 215.040-215.040s-96.481-215.040-215.040-215.040zM696.32 110.080c-7.865 0-15.718 3.001-21.72 9.002l-92.16 92.16c-12.001 12.001-12.001 31.437 0 43.438s31.437 12.001 43.438 0l70.442-70.442 131.88 131.882c12.001 12.001 31.437 12.001 43.438 0 12.003-12.003 12.003-31.437 0-43.438l-153.6-153.6c-6-6.001-13.853-9.002-21.718-9.002v0zM327.68 417.28h-122.88c-16.978 0-30.72 13.742-30.72 30.72s13.742 30.72 30.72 30.72h122.88c16.978 0 30.72-13.742 30.72-30.72s-13.742-30.72-30.72-30.72zM942.080 406.363v195.237c0 5.581-1.496 11.039-4.383 15.81l-166.411 277.413c-16.589 27.566-46.888 44.697-79.042 44.697h-421.928c-32.165 0-62.464-17.131-79.053-44.728l-166.4-277.382c-2.888-4.771-4.383-10.229-4.383-15.81v-491.52c0-50.821 41.339-92.16 92.16-92.16h440.997c47.472-38.349 107.765-61.44 173.403-61.44 152.463 0 276.48 124.017 276.48 276.48 0 65.638-23.091 125.932-61.44 173.403zM512 878.080h180.244c10.741 0 20.849-5.734 26.368-14.909l138.485-230.851h-345.097v245.76zM243.948 863.14c5.519 9.206 15.636 14.94 26.368 14.94h180.244v-245.76h-345.098l138.486 230.82zM81.92 110.080v460.8h798.72v-108.186c-43.961 29.491-96.799 46.746-153.6 46.746-152.464 0-276.48-124.016-276.48-276.48 0-56.801 17.254-109.639 46.746-153.6h-384.666c-16.947 0-30.72 13.773-30.72 30.72zM727.040 17.92c-118.559 0-215.040 96.481-215.040 215.040s96.481 215.040 215.040 215.040c118.559 0 215.040-96.481 215.040-215.040s-96.481-215.040-215.040-215.040zM696.32 110.080c-7.865 0-15.718 3.001-21.72 9.002l-92.16 92.16c-12.001 12.001-12.001 31.437 0 43.438s31.437 12.001 43.438 0l70.442-70.442 131.88 131.882c12.001 12.001 31.437 12.001 43.438 0 12.003-12.003 12.003-31.437 0-43.438l-153.6-153.6c-6-6.001-13.853-9.002-21.718-9.002v0zM327.68 417.28h-122.88c-16.978 0-30.72 13.742-30.72 30.72s13.742 30.72 30.72 30.72h122.88c16.978 0 30.72-13.742 30.72-30.72s-13.742-30.72-30.72-30.72zM923.794 399.901v201.699c0 2.306-0.614 4.48-1.741 6.343l-0.037 0.060-166.398 277.39c-0.002 0.002 0.002-0.003 0 0-13.283 22.068-37.641 35.84-63.375 35.84h-421.928c-25.746 0-50.099-13.766-63.382-35.863l-166.427-277.428c-1.127-1.863-1.741-4.037-1.741-6.343v-491.52c0-40.722 33.152-73.874 73.874-73.874h447.459l5.027-4.061c44.368-35.842 100.645-57.379 161.915-57.379 142.363 0 258.194 115.831 258.194 258.194 0 61.27-21.537 117.546-57.379 161.915l-4.061 5.027zM771.286 894.823l166.411-277.413c2.887-4.771 4.383-10.229 4.383-15.81v-195.237c38.349-47.472 61.44-107.765 61.44-173.403 0-152.463-124.017-276.48-276.48-276.48-65.638 0-125.932 23.091-173.403 61.44h-440.997c-50.821 0-92.16 41.339-92.16 92.16v491.52c0 5.581 1.495 11.039 4.383 15.81l166.4 277.382c16.589 27.597 46.888 44.728 79.053 44.728h421.928c32.154 0 62.453-17.131 79.042-44.697zM493.714 896.366v-282.332h395.677l-155.11 258.562c-8.821 14.663-24.869 23.769-42.037 23.769h-198.53zM243.948 863.14c5.519 9.206 15.636 14.94 26.368 14.94h180.244v-245.76h-345.098l138.486 230.82zM228.264 872.543l-155.098-258.508h395.679v282.332h-198.53c-17.161 0-33.231-9.114-42.052-23.823zM63.634 589.166v-479.086c0-27.046 21.96-49.006 49.006-49.006h418.951l-19.101 28.473c-27.544 41.059-43.644 90.372-43.644 143.413 0 142.365 115.829 258.194 258.194 258.194 53.041 0 102.354-16.101 143.413-43.644l28.473-19.101v160.757h-835.292zM696.32 158.378l-83.372 83.372c-4.86 4.86-12.718 4.86-17.578 0s-4.86-12.718 0-17.578l92.16-92.16c2.439-2.439 5.584-3.646 8.79-3.646s6.351 1.207 8.788 3.646l153.6 153.6c4.86 4.86 4.86 12.718 0 17.578s-12.718 4.86-17.578 0l-144.81-144.812zM512 632.32v245.76h180.244c10.741 0 20.849-5.734 26.368-14.909l138.485-230.851h-345.097zM862.354 473.962c-40.020 22.57-86.184 35.478-135.314 35.478-152.464 0-276.48-124.016-276.48-276.48 0-49.13 12.908-95.294 35.478-135.314 3.524-6.248 7.285-12.348 11.268-18.286h-384.666c-16.947 0-30.72 13.773-30.72 30.72v460.8h798.72v-108.186c-5.937 3.983-12.037 7.744-18.286 11.268zM727.040-0.366c-128.658 0-233.326 104.667-233.326 233.326s104.667 233.326 233.326 233.326c128.658 0 233.326-104.667 233.326-233.326s-104.667-233.326-233.326-233.326zM696.32 184.238l131.88 131.882c12.001 12.001 31.437 12.001 43.438 0 12.003-12.001 12.003-31.437 0-43.438l-153.6-153.6c-6-6.001-13.853-9.002-21.718-9.002s-15.718 3.001-21.72 9.002l-92.16 92.16c-12.001 12.001-12.001 31.437 0 43.438s31.437 12.001 43.438 0l70.442-70.442zM204.8 435.566c-6.879 0-12.434 5.555-12.434 12.434s5.555 12.434 12.434 12.434h122.88c6.879 0 12.434-5.555 12.434-12.434s-5.555-12.434-12.434-12.434h-122.88zM512 232.96c0-118.559 96.481-215.040 215.040-215.040s215.040 96.481 215.040 215.040c0 118.559-96.481 215.040-215.040 215.040s-215.040-96.481-215.040-215.040zM204.8 417.28h122.88c16.978 0 30.72 13.742 30.72 30.72s-13.742 30.72-30.72 30.72h-122.88c-16.978 0-30.72-13.742-30.72-30.72s13.742-30.72 30.72-30.72z" />
<glyph unicode="&#xe90d;" glyph-name="payment" d="M996.818 608.587l-324.251 324.248c-17.505 17.502-40.847 27.142-65.732 27.142-24.881 0-48.225-9.636-65.73-27.138l-513.963-513.966c-17.502-17.505-27.142-40.845-27.142-65.728s9.64-48.229 27.142-65.728l308.726-308.727h-37.208c-11.781 0-21.332-9.549-21.332-21.332 0-11.78 9.551-21.332 21.332-21.332l426.646-0.004c11.781 0 21.334 9.552 21.334 21.332s-9.552 21.332-21.334 21.332l-226.926 0.004 498.439 498.441c36.24 36.244 36.239 95.216-0.002 131.456zM966.651 507.299l-513.969-513.969c-9.424-9.424-22.025-14.619-35.483-14.64h-0.161c-13.455 0.022-26.052 5.215-35.474 14.64l-269.173 269.177 493.59 493.595c8.331 8.329 8.331 21.838 0 30.167s-21.835 8.33-30.17-0.001l-493.59-493.595-24.912 24.912c-9.442 9.441-14.642 22.069-14.642 35.558s5.2 26.117 14.644 35.56l513.963 513.965c9.445 9.442 22.076 14.642 35.562 14.642 13.488 0 26.117-5.2 35.564-14.644l115.407-115.404-493.597-493.599c-8.329-8.329-8.329-21.835 0-30.17 4.165-4.165 9.626-6.246 15.082-6.246 5.46 0 10.918 2.083 15.086 6.248l493.595 493.597 178.679-178.672c19.606-19.608 19.604-51.515 0-71.122zM525.599 343.87c8.329-8.329 8.329-21.835-0.004-30.17l-167.868-167.865c-4.165-4.165-9.624-6.248-15.082-6.248-5.46 0-10.918 2.081-15.086 6.248-8.329 8.333-8.329 21.839 0 30.17l167.868 167.865c8.335 8.327 21.839 8.329 30.171 0zM387.904 115.668c-8.329-8.333-8.329-21.839 0-30.171 4.165-4.164 9.626-6.248 15.084-6.248 5.462 0 10.918 2.085 15.084 6.248l68.849 68.851c8.329 8.329 8.329 21.837 0 30.17-8.329 8.331-21.831 8.331-30.168 0l-68.849-68.849zM520.112 247.867c8.329 8.331 21.84 8.329 30.166-0.002 8.331-8.333 8.331-21.837-0.002-30.168l-9.050-9.048c-4.164-4.165-9.624-6.25-15.082-6.25s-10.92 2.085-15.084 6.25c-8.331 8.333-8.331 21.84 0.002 30.17l9.050 9.048zM799.060 638.661c5.658 0 11.083-2.249 15.084-6.248l60.336-60.339c8.331-8.331 8.331-21.837 0-30.168l-90.505-90.505c-4.165-4.162-9.622-6.248-15.084-6.248-5.456 0-10.918 2.085-15.084 6.248l-60.339 60.336c-4.001 3.999-6.248 9.424-6.248 15.084 0 5.658 2.247 11.081 6.248 15.084l90.511 90.509c4.001 3.999 9.424 6.248 15.082 6.248zM738.719 526.821l30.17-30.168 60.339 60.336-30.168 30.17-60.341-60.337zM640.677 799.626c-5.46 0-10.917 2.080-15.082 6.246-8.333 8.328-8.335 21.836-0.005 30.168l9.050 9.054c8.327 8.332 21.839 8.334 30.168 0.006 8.331-8.328 8.335-21.836 0.005-30.168l-9.050-9.054c-4.164-4.168-9.624-6.252-15.086-6.252zM205.372 234.834c-8.329-8.329-8.329-21.837 0-30.17 4.167-4.165 9.626-6.246 15.084-6.246s10.918 2.081 15.084 6.246l9.050 9.050c8.331 8.333 8.331 21.839 0 30.17-8.331 8.333-21.835 8.333-30.168 0l-9.050-9.050z" />
<glyph unicode="&#xe90e;" glyph-name="phone" d="M451.515 684.599c0 150.421 122.375 272.795 272.79 272.795 150.338 0 272.633-122.374 272.633-272.795 0-150.329-122.295-272.633-272.633-272.633-150.415 0-272.79 122.304-272.79 272.633zM498.538 684.599c0-124.401 101.279-225.613 225.766-225.613 124.407 0 225.615 101.211 225.615 225.613 0 124.493-101.208 225.775-225.615 225.775-124.485 0-225.766-101.282-225.766-225.775zM904.293 83.253c0.922-89.26-76.921-156.189-162.245-142.976-363.937 56.035-657.265 349.371-713.313 713.329-13.348 86.352 55.024 162.835 141.904 162.221 5.973-0.071 12.638-2.364 24.646-6.494 16.962-5.835 44.586-15.336 95.982-27.424 28.301-6.65 49.591-30.634 52.974-59.679 4.76-40.975 14.296-81.275 28.315-119.793 10.132-27.813 1.331-59.297-21.904-78.338-24.748-20.272-49.055-41.916-72.426-64.485 47.005-85.822 113.112-161.649 192.015-220.048 10.441-7.722 12.628-22.449 4.915-32.887-7.762-10.447-22.457-12.628-32.896-4.906-89.311 66.107-163.284 153.108-213.948 251.588-4.685 9.106-2.939 20.204 4.332 27.429 28.209 28.025 57.887 54.833 88.194 79.675 7.943 6.504 10.898 16.662 7.547 25.883-15.292 41.947-25.669 85.837-30.859 130.448-1.084 9.428-7.943 17.205-17.035 19.346-37.5 8.817-75.385 19.791-112.655 32.633-60.138-1.571-101.008-53.835-92.634-107.999 52.96-343.914 330.123-621.080 674.026-674.028 56.024-8.742 107.238 35.154 108.047 92.555-12.811 37.135-23.74 75.015-32.512 112.662-2.127 9.106-9.916 15.973-19.377 17.066-44.526 5.144-88.47 15.536-130.576 30.888-9.214 3.335-19.363 0.406-25.882-7.547-24.934-30.42-51.75-60.092-79.685-88.185-9.154-9.209-24.031-9.247-33.247-0.101-9.214 9.159-9.245 24.046-0.090 33.253 26.876 27.028 52.67 55.576 76.654 84.842 19.041 23.241 50.556 32.057 78.338 21.917 38.68-14.095 79.011-23.631 119.894-28.354 29.113-3.377 53.127-24.713 59.771-53.098 11.668-50.174 21.59-79.355 27.593-97.008 3.895-11.454 6.14-18.055 6.14-22.387zM684.016 791.899c12.981 0 23.51-10.525 23.51-23.513v-83.694c0-12.985-10.529-23.51-23.51-23.51h-60.184v-36.696h60.184c12.981 0 23.51-10.522 23.51-23.512 0-12.985-10.529-23.508-23.51-23.508h-83.692c-12.981 0-23.512 10.522-23.512 23.508v83.696c0 12.981 10.516 23.51 23.512 23.51l60.184 0.016v36.681h-60.184c-12.981 0-23.512 10.522-23.512 23.51 0 12.986 10.531 23.511 23.512 23.511h83.692zM824.616 768.388v-60.184h-36.659v60.182c0 12.988-10.531 23.51-23.51 23.51s-23.51-10.523-23.51-23.51v-83.694c0-12.988 10.531-23.51 23.51-23.51h60.169v-60.208c0-12.987 10.529-23.508 23.508-23.508 12.981 0 23.51 10.523 23.51 23.508v167.413c0 12.986-10.529 23.511-23.51 23.511-12.979 0-23.508-10.525-23.508-23.511z" />
<glyph unicode="&#xe90f;" glyph-name="printer" d="M964.001 690v-95.161c34.917-12.383 59.999-45.729 59.999-84.84v-363.999c0-49.626-40.375-90-90-90h-90v-90c0-16.567-13.431-30-30-30h-603.999c-16.569 0-30 13.433-30 30v90h-90c-49.626 0-90 40.375-90 90v363.999c0 39.111 25.082 72.457 60 84.84v95.161c0 49.626 40.374 90 90 90h30v150c0 16.568 13.432 30 30 30h424.002c0.082 0 0.163-0.006 0.243-0.011 0.071-0.005 0.144-0.010 0.219-0.011 7.951-0.124 15.336-3.402 20.656-8.678l0.113-0.108 171.193-171.192h47.574c49.626 0 90-40.374 90-90zM874 720h-30.001v-120h60.001v90c0 16.541-13.458 30-30 30zM741.573 780l-77.573 77.574v-77.574h77.573zM603.999 900h-363.999v-300h544v120h-150c-16.569 0-30.001 13.433-30.001 30v150zM150 720c-16.542 0-30-13.458-30-30v-90h60v120h-30zM240-4.001h544v300.001h-544v-300.001zM934 116.001c16.543 0 30.001 13.456 30.001 30v363.999c0 16.543-13.458 30-30.001 30h-843.999c-16.542 0-30-13.456-30-30v-363.999c0-16.543 13.458-30 30-30h90v179.999h-30c-16.568 0-30 13.433-30 30 0 16.569 13.432 30.001 30 30.001h724.001c16.567 0 30-13.433 30-30.001s-13.433-30-30-30h-30.001v-179.999h90zM330 235.999c-16.569 0-30.001-13.431-30.001-30 0-16.567 13.433-30 30.001-30h363.999c16.569 0 30.001 13.433 30.001 30 0 16.569-13.433 30-30.001 30h-363.999zM694 116.001c16.569 0 30.001-13.433 30.001-30.001s-13.433-30-30.001-30h-363.999c-16.569 0-30.001 13.433-30.001 30 0 16.569 13.433 30.001 30.001 30.001h363.999zM120 450c0-16.569 13.432-30 30-30h60.001c16.567 0 30 13.431 30 30 0 16.567-13.433 30-30 30h-60.001c-16.568 0-30-13.433-30-30zM964.001 690v-95.161c34.917-12.383 59.999-45.729 59.999-84.84v-363.999c0-49.626-40.375-90-90-90h-90v-90c0-16.567-13.431-30-30-30h-603.999c-16.569 0-30 13.433-30 30v90h-90c-49.626 0-90 40.375-90 90v363.999c0 39.111 25.082 72.457 60 84.84v95.161c0 49.626 40.374 90 90 90h30v150c0 16.568 13.432 30 30 30h424.002c0.082 0 0.163-0.006 0.243-0.011 0.071-0.005 0.144-0.010 0.219-0.011 7.951-0.124 15.336-3.402 20.656-8.678l0.113-0.108 171.193-171.192h47.574c49.626 0 90-40.374 90-90zM874 720h-30.001v-120h60.001v90c0 16.541-13.458 30-30 30zM741.573 780l-77.573 77.574v-77.574h77.573zM603.999 900h-363.999v-300h544v120h-150c-16.569 0-30.001 13.433-30.001 30v150zM150 720c-16.542 0-30-13.458-30-30v-90h60v120h-30zM240-4.001h544v300.001h-544v-300.001zM934 116.001c16.543 0 30.001 13.456 30.001 30v363.999c0 16.543-13.458 30-30.001 30h-843.999c-16.542 0-30-13.456-30-30v-363.999c0-16.543 13.458-30 30-30h90v179.999h-30c-16.568 0-30 13.433-30 30 0 16.569 13.432 30.001 30 30.001h724.001c16.567 0 30-13.433 30-30.001s-13.433-30-30-30h-30.001v-179.999h90zM330 235.999c-16.569 0-30.001-13.431-30.001-30 0-16.567 13.433-30 30.001-30h363.999c16.569 0 30.001 13.433 30.001 30 0 16.569-13.433 30-30.001 30h-363.999zM694 116.001c16.569 0 30.001-13.433 30.001-30.001s-13.433-30-30.001-30h-363.999c-16.569 0-30.001 13.433-30.001 30 0 16.569 13.433 30.001 30.001 30.001h363.999zM120 450c0-16.569 13.432-30 30-30h60.001c16.567 0 30 13.431 30 30 0 16.567-13.433 30-30 30h-60.001c-16.568 0-30-13.433-30-30z" />
<glyph unicode="&#xe910;" glyph-name="printing" d="M732.557 843.601l-98.613 98.615c-4.705 4.728-10.293 8.476-16.455 11.029-6.16 2.553-12.767 3.86-19.432 3.844h-290.569c-8.975 0-17.584-3.565-23.931-9.912-6.345-6.347-9.911-14.954-9.911-23.93v-186.131h-50.763c-13.464 0-26.375-5.349-35.895-14.868s-14.868-22.431-14.868-35.895v-67.683h-84.605c-22.431-0.027-43.935-8.949-59.795-24.81s-24.783-37.365-24.81-59.796v-372.264c0.027-22.429 8.949-43.933 24.81-59.791 15.861-15.863 37.364-24.786 59.795-24.81h186.131v-101.528c0-8.976 3.566-17.584 9.911-23.932 6.347-6.343 14.956-9.913 23.931-9.913h406.106c8.971 0 17.584 3.569 23.927 9.913 6.349 6.349 9.913 14.956 9.913 23.932v101.528h186.134c22.427 0.024 43.931 8.947 59.789 24.81 15.865 15.857 24.788 37.361 24.81 59.791v372.264c-0.022 22.431-8.945 43.935-24.81 59.796-15.857 15.861-37.361 24.783-59.789 24.81h-84.606v67.683c0 13.464-5.349 26.375-14.868 35.895-9.521 9.52-22.435 14.868-35.899 14.868h-50.761v70.594c0.016 6.669-1.287 13.275-3.838 19.436-2.553 6.161-6.303 11.754-11.037 16.454zM689.666 838.644h-43.756c-4.489 0-8.795 1.782-11.966 4.956-3.178 3.173-4.957 7.477-4.957 11.964v43.758l60.679-60.679zM595.143 923.248v-67.684c0-13.463 5.347-26.375 14.868-35.894 9.52-9.52 22.435-14.868 35.899-14.868h67.683v-186.13h-406.106v304.577h287.656zM205.961 686.354c0 4.487 1.783 8.792 4.955 11.964 3.174 3.174 7.479 4.957 11.966 4.957h50.763v-84.604h-67.685v67.683zM273.646 178.723h-67.685v67.685h67.685v-67.685zM307.487 246.407h406.106v-270.735h-406.106v270.735zM747.432 246.407h67.683v-67.685h-67.683v67.685zM984.327 534.065v-372.264c0-13.458-5.349-26.372-14.868-35.893-9.521-9.52-22.435-14.868-35.893-14.868h-186.134v33.845h67.683c8.976 0 17.584 3.564 23.932 9.913 6.343 6.341 9.913 14.95 9.913 23.925v67.685c0 8.976-3.569 17.584-9.913 23.932-6.349 6.349-14.956 9.913-23.932 9.913h-609.154c-8.975 0-17.584-3.564-23.929-9.913-6.347-6.349-9.912-14.956-9.912-23.932v-67.685c0-8.975 3.565-17.584 9.912-23.925 6.346-6.349 14.955-9.913 23.929-9.913h67.685v-33.845h-186.131c-13.464 0-26.375 5.349-35.895 14.868-9.52 9.521-14.868 22.435-14.868 35.893v372.264c0 13.464 5.348 26.375 14.868 35.895s22.431 14.868 35.895 14.868h846.051c13.458 0 26.372-5.349 35.893-14.868 9.52-9.52 14.868-22.431 14.868-35.895zM798.193 703.276c4.487 0 8.794-1.783 11.966-4.957 3.176-3.173 4.955-7.477 4.955-11.964v-67.683h-67.683v84.604h50.761zM70.592 483.304c0.001 13.464 5.349 26.375 14.868 35.895s22.432 14.868 35.895 14.868c10.040 0 19.854-2.977 28.202-8.556 8.348-5.577 14.855-13.506 18.697-22.78 3.842-9.276 4.847-19.483 2.889-29.33s-6.794-18.891-13.893-25.991c-7.1-7.1-16.145-11.933-25.991-13.893-9.847-1.958-20.054-0.953-29.33 2.889s-17.204 10.348-22.781 18.697c-5.578 8.347-8.555 18.161-8.555 28.202zM121.356 500.226c-4.488 0-8.792-1.783-11.965-4.957s-4.956-7.477-4.956-11.964c0-3.346 0.993-6.618 2.851-9.401s4.502-4.952 7.594-6.232c3.092-1.282 6.494-1.616 9.776-0.964s6.297 2.266 8.664 4.632c2.367 2.366 3.978 5.381 4.631 8.664s0.318 6.683-0.963 9.776c-1.281 3.092-3.449 5.734-6.232 7.594s-6.054 2.853-9.4 2.853zM284.926 441.097c8.349 5.579 14.855 13.506 18.697 22.782s4.848 19.482 2.889 29.33c-1.958 9.847-6.793 18.891-13.893 25.991s-16.143 11.933-25.989 13.892c-9.849 1.958-20.054 0.955-29.33-2.889-9.276-3.842-17.203-10.348-22.782-18.697-5.577-8.347-8.556-18.161-8.556-28.202 0-13.462 5.349-26.373 14.868-35.895 9.521-9.52 22.433-14.868 35.895-14.868 10.041 0 19.855 2.979 28.202 8.556zM266.125 497.375c2.783-1.86 4.952-4.502 6.234-7.594 1.28-3.092 1.615-6.495 0.962-9.777s-2.264-6.298-4.63-8.664c-2.366-2.366-5.381-3.977-8.664-4.63-3.284-0.653-6.685-0.318-9.777 0.962-3.092 1.282-5.734 3.451-7.594 6.232-1.858 2.783-2.851 6.054-2.851 9.401 0 4.489 1.783 8.792 4.955 11.966 3.174 3.173 7.477 4.955 11.966 4.955 3.346 0 6.618-0.993 9.399-2.851zM510.535 314.096c-23.985 0-47.408 7.28-67.165 20.884s-34.918 32.885-43.478 55.292c-8.56 22.407-10.116 46.886-4.46 70.197s18.256 44.356 36.134 60.348c1.651 1.507 3.584 2.67 5.689 3.425s4.336 1.086 6.568 0.973c2.233-0.113 4.421-0.667 6.438-1.629 2.017-0.964 3.824-2.319 5.314-3.983 1.492-1.666 2.637-3.61 3.374-5.722 0.735-2.11 1.044-4.347 0.911-6.577s-0.708-4.414-1.69-6.422c-0.982-2.008-2.353-3.802-4.032-5.277-12.773-11.423-21.776-26.454-25.819-43.105-4.041-16.653-2.933-34.138 3.18-50.147 6.113-16.007 16.944-29.784 31.056-39.497 14.115-9.719 30.846-14.921 47.98-14.921 17.136 0 33.867 5.202 47.98 14.921 14.115 9.713 24.944 23.49 31.056 39.497 6.115 16.009 7.221 33.494 3.184 50.147-4.043 16.651-13.049 31.682-25.821 43.105-3.295 3.006-5.272 7.192-5.497 11.646-0.225 4.456 1.318 8.819 4.293 12.142s7.142 5.338 11.595 5.605 8.828-1.236 12.182-4.18c17.876-15.993 30.475-37.038 36.133-60.348s4.101-47.79-4.458-70.197c-8.561-22.407-23.722-41.688-43.48-55.292s-43.178-20.884-67.167-20.884zM522.509 437.497c3.174 3.174 4.957 7.477 4.957 11.964v84.606c0 4.487-1.783 8.792-4.955 11.964-3.174 3.173-7.479 4.957-11.966 4.955-4.487 0-8.792-1.783-11.964-4.955s-4.957-7.477-4.957-11.964v-84.606c0-4.487 1.783-8.792 4.957-11.964s7.477-4.955 11.964-4.955 8.792 1.783 11.964 4.955z" />
<glyph unicode="&#xe911;" glyph-name="return" d="M801.154 777.137c-79.203 71.031-181.365 111.112-287.735 112.888l30.318 30.074c2.194 2.146 3.942 4.705 5.144 7.529s1.832 5.858 1.854 8.927c0.024 3.069-0.56 6.112-1.717 8.955-1.159 2.842-2.867 5.428-5.027 7.607s-4.734 3.909-7.565 5.090c-2.832 1.181-5.872 1.79-8.94 1.792s-6.107-0.603-8.942-1.781c-2.834-1.178-5.407-2.904-7.57-5.081l-73.695-73.103c-2.169-2.151-3.893-4.709-5.074-7.526-1.183-2.818-1.797-5.841-1.808-8.896-0.013-3.055 0.576-6.083 1.735-8.911 1.157-2.828 2.86-5.399 5.012-7.568l73.693-74.307c2.145-2.196 4.703-3.942 7.528-5.144 2.823-1.201 5.857-1.832 8.925-1.854 3.070-0.026 6.113 0.56 8.955 1.717s5.427 2.865 7.607 5.029c2.178 2.161 3.908 4.731 5.089 7.564 1.183 2.832 1.79 5.87 1.794 8.939 0.002 3.070-0.605 6.109-1.783 8.942-1.178 2.835-2.904 5.408-5.080 7.572l-37.575 37.898c81.924-0.057 161.81-25.555 228.623-72.971s117.255-114.41 144.357-191.729c27.103-77.319 29.53-161.147 6.947-239.903-22.585-78.758-69.065-148.56-133.021-199.764-4.815-3.858-7.899-9.474-8.574-15.609-0.335-3.035-0.068-6.109 0.786-9.044s2.277-5.672 4.186-8.057c1.913-2.383 4.275-4.367 6.952-5.839 2.677-1.47 5.619-2.401 8.656-2.736 6.133-0.675 12.284 1.114 17.099 4.974 121.011 97.050 181.687 246.775 162.295 400.521-13.312 105.556-64.245 202.772-143.448 273.803zM493.797 128.318c-2.823 1.201-5.857 1.832-8.927 1.856-3.068 0.022-6.111-0.561-8.953-1.719-2.843-1.157-5.427-2.867-7.607-5.027s-3.908-4.732-5.089-7.565c-1.181-2.834-1.79-5.872-1.792-8.94-0.004-3.070 0.603-6.109 1.781-8.944 1.178-2.832 2.904-5.407 5.080-7.57l37.575-37.886c-81.916 0.053-161.796 25.541-228.604 72.947-66.811 47.406-117.254 114.386-144.364 191.693s-29.549 161.126-6.981 239.881c22.569 78.753 69.033 148.555 132.971 199.764 4.813 3.864 7.896 9.481 8.569 15.616 0.671 6.135-1.121 12.287-4.983 17.1s-9.479 7.896-15.614 8.568-12.284-1.12-17.097-4.982c-120.954-97.059-181.594-246.757-162.202-400.439 13.309-105.56 64.241-202.779 143.45-273.808 79.206-71.031 181.374-111.106 287.746-112.87l-30.331-30.091c-2.194-2.147-3.942-4.707-5.144-7.53s-1.832-5.857-1.854-8.927c-0.024-3.068 0.56-6.113 1.719-8.955 1.156-2.842 2.865-5.427 5.027-7.607 2.16-2.18 4.731-3.908 7.563-5.091 2.832-1.181 5.87-1.79 8.94-1.792 3.068-0.002 6.107 0.603 8.942 1.781s5.407 2.906 7.57 5.082l73.691 73.108c2.171 2.152 3.895 4.709 5.076 7.526 1.183 2.818 1.797 5.84 1.81 8.896s-0.578 6.084-1.735 8.911-2.86 5.4-5.012 7.568l-73.693 74.304c-2.145 2.194-4.705 3.942-7.528 5.142zM524.557 466.401c22.003-8.408 62.956-24.059 62.96-69.001 0-23.643-15.526-46.188-40.53-58.84-5.639-2.803-11.546-5.027-17.631-6.64v-23.525c-0.059-6.131-2.538-11.992-6.894-16.307s-10.24-6.736-16.371-6.736-12.017 2.421-16.373 6.736c-4.356 4.315-6.833 10.176-6.894 16.307v22.371c-17.633 3.831-34.236 11.416-48.678 22.237-4.97 3.653-8.287 9.134-9.218 15.234-0.933 6.1 0.598 12.321 4.251 17.293 3.655 4.972 9.136 8.287 15.234 9.22 6.102 0.931 12.321-0.6 17.291-4.255 32.115-23.607 57.296-13.928 64.278-10.406 9.847 4.979 15.005 12.485 15.005 17.317 0 11.035-10.191 16.795-33.037 25.521-4.098 1.567-7.927 3.045-11.255 4.511-2.218 0.98-4.875 1.982-7.784 3.081l-0.002 0.002-0.26 0.097c-20.778 7.89-63.991 24.305-63.991 69.433 0 23.649 15.526 46.199 40.53 58.851 5.641 2.77 11.549 4.965 17.631 6.544v22.159c0.059 6.133 2.536 11.994 6.894 16.307 4.357 4.315 10.24 6.736 16.371 6.736s12.016-2.421 16.373-6.736c4.356-4.314 6.833-10.174 6.892-16.307v-21.063c17.626-3.774 34.229-11.308 48.678-22.082 2.483-1.801 4.586-4.076 6.186-6.694s2.668-5.522 3.14-8.554c0.474-3.032 0.34-6.126-0.388-9.106s-2.039-5.787-3.855-8.258c-1.818-2.472-4.103-4.56-6.731-6.144s-5.541-2.633-8.574-3.087c-3.034-0.452-6.128-0.302-9.103 0.444-2.975 0.748-5.775 2.075-8.234 3.908-32.102 23.598-57.295 13.936-64.276 10.408-9.849-4.988-15.007-12.493-15.007-17.326 0-10.948 11.95-17.56 33.98-25.927 3.873-1.468 7.382-2.816 10.313-4.111 2.405-1.059 5.158-2.114 8.097-3.238l0.98-0.373zM363.893 660.807c42.085 28.123 91.564 43.134 142.181 43.134 67.851-0.077 132.901-27.067 180.879-75.048 47.978-47.984 74.966-113.037 75.043-180.893 0-50.62-15.009-100.105-43.131-142.195-28.12-42.088-68.091-74.893-114.853-94.265-46.764-19.372-98.222-24.441-147.866-14.566-49.644 9.878-95.245 34.253-131.035 70.047s-60.165 81.399-70.040 131.046c-9.874 49.648-4.807 101.111 14.563 147.877 19.37 46.768 52.173 86.742 94.259 114.864zM389.744 273.883c34.434-23.011 74.917-35.291 116.33-35.291 55.515 0.064 108.736 22.148 147.99 61.405s61.336 92.484 61.4 148.003c0 41.415-12.279 81.902-35.288 116.341-23.007 34.436-55.709 61.277-93.97 77.125-38.261 15.85-80.364 19.997-120.982 11.917-40.616-8.079-77.928-28.025-107.211-57.309-29.283-29.286-49.225-66.6-57.306-107.222-8.080-40.62-3.933-82.726 11.915-120.989 15.848-38.265 42.686-70.971 77.122-93.979z" />
<glyph unicode="&#xe912;" glyph-name="tree" d="M964.001 159.856v170.145c0 16.567-13.433 30-30.001 30h-179.999c-16.569 0-30-13.433-30-30v-154h-92.001v154c0 16.567-13.433 30-30 30h-60.001v30c0 49.626-40.373 90-89.999 90h-240c-16.543 0-30.001 13.458-30.001 30 0 16.543 13.458 30 30.001 30h240c49.626 0 89.999 40.375 89.999 90v30.001h30c12.913 0 24.377 8.261 28.462 20.513l33.176 99.528c48.872 0.878 88.364 40.88 88.364 89.958v30h272c16.567 0 30 13.432 30 30s-13.433 30-30 30c-11.394 0-944.55 0-964.001 0-16.568 0-30-13.432-30-30s13.432-30 30-30h272v-30c0-49.078 39.492-89.080 88.364-89.958l33.176-99.528c4.085-12.251 15.548-20.513 28.462-20.513h30v-30.001c0-16.541-13.458-30-30-30h-240c-49.627 0-90.001-40.375-90.001-90s40.374-89.999 90.001-89.999h240c16.541 0 30-13.458 30-30.001v-30h-60.001c-16.567 0-30-13.433-30-30v-154h-92.001v154c0 16.567-13.431 30-30 30h-179.999c-16.568 0-30-13.433-30-30v-170.145c-35.832-20.782-60-59.538-60-103.856 0-66.169 53.832-120 120-120h784c66.169 0 120 53.831 120 120 0 44.317-24.168 83.074-59.999 103.856zM392 840c-16.541 0-30 13.458-30 30v30h299.999v-30c0-16.542-13.458-30-30-30-9.997 0-229.921 0-240 0zM473.624 720l-19.999 60h116.752l-19.999-60h-76.754zM120 299.999h120v-123.999h-120v123.999zM120-4.001c-33.084 0-60 26.917-60 60.001s26.916 60.001 60 60.001c33.084 0 60-26.917 60-60.001s-26.916-60.001-60-60.001zM408.144-4.001h-184.289c10.247 17.668 16.144 38.151 16.144 60.001s-5.897 42.333-16.144 60.001c19.811 0 163.93 0 184.289 0-10.247-17.668-16.144-38.151-16.144-60.001s5.897-42.333 16.144-60.001zM512-4.001c-33.084 0-59.999 26.917-59.999 60.001s26.915 60.001 59.999 60.001c33.084 0 59.999-26.917 59.999-60.001s-26.915-60.001-59.999-60.001zM571.999 176h-119.998v123.999h119.998v-123.999zM784 299.999h120v-123.999h-120v123.999zM800.144-4.001h-184.289c10.247 17.668 16.144 38.151 16.144 60.001s-5.897 42.734-16.144 60.4c21.16 0 164.356 0 184.289 0-10.247-17.666-16.144-38.55-16.144-60.4s5.897-42.333 16.144-60.001zM904-4.001c-33.084 0-60.001 26.917-60.001 60.001s26.917 60.001 60.001 60.001c33.084 0 60.001-26.917 60.001-60.001s-26.917-60.001-60.001-60.001z" />
<glyph unicode="&#xe913;" glyph-name="universe" d="M151.705 58.295v-84.879c-0.030-7.232 2.282-14.276 6.591-20.089 4.308-5.815 10.382-10.079 17.316-12.164 3.23-0.987 6.587-1.49 9.965-1.496 5.59 0.005 11.092 1.392 16.015 4.036s9.112 6.469 12.193 11.123c35.699 53.99 89.090 93.91 151.027 112.922 5.659-9.838 14.435-17.516 24.944-21.828v-21.445c0-13.5 5.374-26.456 14.941-36.008s22.541-14.916 36.070-14.916h20.133c3.461-9.92 9.933-18.523 18.512-24.607 8.58-6.091 18.843-9.357 29.371-9.357 10.523 0 20.789 3.266 29.369 9.357 8.58 6.084 15.049 14.687 18.511 24.607h20.133c13.53 0 26.505 5.365 36.074 14.916 9.562 9.552 14.938 22.508 14.938 36.008v21.445c10.505 4.29 19.277 11.946 24.944 21.758 61.95-19.017 115.344-58.953 151.044-112.955 3.087-4.643 7.27-8.452 12.184-11.090 4.921-2.639 10.414-4.027 15.995-4.032 3.381 0.005 6.746 0.51 9.98 1.49 6.934 2.086 13.008 6.356 17.315 12.169 4.308 5.808 6.621 12.857 6.588 20.085v84.879c-0.179 43.246-14.054 85.332-39.638 120.23-25.584 34.902-61.564 60.833-102.8 74.085 15.587 64.28 23.45 130.189 23.417 196.323 0 307.425-162.112 460.492-211.814 500.095-7.446 5.961-16.704 9.209-26.245 9.209-9.543 0-18.801-3.248-26.245-9.209-49.684-39.604-211.798-192.67-211.798-500.095-0.026-66.107 7.834-131.984 23.415-196.235-41.238-13.253-77.222-39.19-102.806-74.092-25.582-34.907-39.455-76.996-39.634-120.241zM423.762 24.475v16.98h34.008v-33.955h-17.004c-4.509 0-8.834 1.788-12.023 4.974s-4.981 7.504-4.981 12.001zM525.784-9.474c0-4.502-1.79-8.819-4.979-12.001-3.189-3.185-7.514-4.974-12.023-4.974-4.511 0-8.836 1.788-12.025 4.974-3.189 3.182-4.979 7.499-4.979 12.001v288.585c0 4.502 1.79 8.819 4.979 12.001 3.189 3.185 7.514 4.974 12.025 4.974 4.509 0 8.834-1.788 12.023-4.974 3.189-3.182 4.979-7.499 4.979-12.001v-288.585zM576.794 7.501h-17.002v33.955h34.010v-16.98c0-4.496-1.794-8.814-4.985-12.001-3.185-3.185-7.51-4.974-12.023-4.974zM831.852 58.295l0.183-84.743c-38.874 58.715-96.45 102.618-163.421 124.599 18.789 39.133 34.192 79.795 46.047 121.547 34.002-11.264 63.607-32.903 84.634-61.862 21.023-28.954 32.411-63.775 32.558-99.54zM503.68 922.477c1.435 1.133 3.211 1.75 5.041 1.75s3.606-0.617 5.041-1.75c59.9-50.32 107.535-113.597 139.295-185.032h-288.552c31.724 71.423 79.318 134.699 139.174 185.032zM350.137 703.493h317.29c30.93-81.3 46.329-167.667 45.396-254.63 0.987-127.042-29.831-252.323-89.64-364.458-1.474-2.721-3.657-4.99-6.312-6.574-2.661-1.582-5.694-2.421-8.788-2.427h-48.291v203.707c0 13.506-5.374 26.456-14.941 36.006-9.565 9.552-22.541 14.916-36.069 14.916-13.53 0-26.505-5.363-36.070-14.916-9.567-9.551-14.941-22.501-14.941-36.006v-203.707h-48.291c-3.088 0-6.12 0.834-8.773 2.412-2.655 1.576-4.835 3.84-6.309 6.55-59.836 112.146-90.657 237.438-89.66 364.496-0.931 86.963 14.469 173.33 45.4 254.63zM302.901 219.697c11.86-41.73 27.264-82.364 46.045-121.477-67.021-21.943-124.581-65.975-163.235-124.873v84.879c0.13 35.78 11.511 70.612 32.538 99.582 21.027 28.976 50.637 50.62 84.652 61.89zM508.78 431.888c20.178 0 39.899 5.974 56.68 17.167 16.779 11.191 29.853 27.098 37.573 45.709 7.726 18.611 9.746 39.091 5.808 58.847-3.939 19.758-13.654 37.906-27.919 52.151-14.272 14.245-32.448 23.945-52.239 27.875s-40.304 1.913-58.946-5.797c-18.642-7.709-34.576-20.763-45.787-37.511-11.209-16.75-17.192-36.443-17.192-56.587 0.026-27.004 10.783-52.895 29.91-71.991s45.061-29.835 72.112-29.862zM508.78 601.644c13.451 0 26.602-3.983 37.787-11.445 11.182-7.461 19.9-18.064 25.048-30.473 5.151-12.407 6.495-26.059 3.873-39.232-2.628-13.171-9.103-25.269-18.617-34.767-9.509-9.496-21.628-15.963-34.823-18.582-13.193-2.62-26.869-1.276-39.296 3.864-12.429 5.138-23.051 13.842-30.524 25.009-7.473 11.165-11.463 24.293-11.463 37.723 0 18.008 7.166 35.279 19.922 48.013 12.754 12.734 30.054 19.889 48.093 19.889z" />
<glyph unicode="&#xe914;" glyph-name="no-dollar" d="M665.602 355.84c0-5.155-0.318-10.238-0.938-15.228l160.823-186.763c72.272 76.976 116.595 180.484 116.595 294.151 0 237.147-192.931 430.080-430.080 430.080-90.712 0-174.952-28.228-244.401-76.362l140.363-163.002c20.48 15.274 45.862 24.324 73.318 24.324v61.44c0 16.978 13.753 30.72 30.72 30.72s30.72-13.742 30.72-30.72v-61.44c67.758 0 122.88-55.111 122.88-122.88 0-16.978-13.753-30.72-30.72-30.72s-30.72 13.742-30.72 30.72c0 33.874-27.555 61.44-61.44 61.44h-61.44c-12.155 0-23.493-3.547-33.040-9.659l105.723-122.776 41.821-10.454c41.104-10.26 69.817-47.044 69.817-89.406v-13.466zM640.433 281.401c-22.469-29.425-57.911-48.441-97.712-48.441v-61.44c0-16.978-13.753-30.72-30.72-30.72s-30.72 13.742-30.72 30.72v61.44c-67.758 0-122.88 55.111-122.88 122.88 0 16.978 13.753 30.72 30.72 30.72s30.72-13.742 30.72-30.72c0-33.874 27.557-61.44 61.44-61.44h61.44c24.115 0 45.027 13.963 55.078 34.225l-77.264 85.586-92.317 23.077c-41.103 10.262-69.817 47.044-69.817 89.406v13.466c0 15.664 2.946 30.652 8.311 44.44l-154.672 171.328c-80.227-78.17-130.119-187.332-130.119-307.928 0-237.147 192.932-430.080 430.080-430.080 104.848 0 201.051 37.712 275.761 100.284l-147.33 163.196zM419.856 525.733l26.865-29.758-3.604 0.901c-13.389 3.372-22.837 15.135-23.261 28.857zM512.002 939.52c271.022 0 491.52-220.498 491.52-491.52s-220.498-491.52-491.52-491.52c-271.022 0-491.52 220.498-491.52 491.52s220.498 491.52 491.52 491.52zM665.602 355.84c0-5.155-0.318-10.238-0.938-15.228l160.823-186.763c72.272 76.976 116.595 180.484 116.595 294.151 0 237.147-192.931 430.080-430.080 430.080-90.712 0-174.952-28.228-244.401-76.362l140.363-163.002c20.48 15.274 45.862 24.324 73.318 24.324v61.44c0 16.978 13.753 30.72 30.72 30.72s30.72-13.742 30.72-30.72v-61.44c67.758 0 122.88-55.111 122.88-122.88 0-16.978-13.753-30.72-30.72-30.72s-30.72 13.742-30.72 30.72c0 33.874-27.555 61.44-61.44 61.44h-61.44c-12.155 0-23.493-3.547-33.040-9.659l105.723-122.776 41.821-10.454c41.104-10.26 69.817-47.044 69.817-89.406v-13.466zM640.433 281.401c-22.469-29.425-57.911-48.441-97.712-48.441v-61.44c0-16.978-13.753-30.72-30.72-30.72s-30.72 13.742-30.72 30.72v61.44c-67.758 0-122.88 55.111-122.88 122.88 0 16.978 13.753 30.72 30.72 30.72s30.72-13.742 30.72-30.72c0-33.874 27.557-61.44 61.44-61.44h61.44c24.115 0 45.027 13.963 55.078 34.225l-77.264 85.586-92.317 23.077c-41.103 10.262-69.817 47.044-69.817 89.406v13.466c0 15.664 2.946 30.652 8.311 44.44l-154.672 171.328c-80.227-78.17-130.119-187.332-130.119-307.928 0-237.147 192.932-430.080 430.080-430.080 104.848 0 201.051 37.712 275.761 100.284l-147.33 163.196zM419.856 525.733l26.865-29.758-3.604 0.901c-13.389 3.372-22.837 15.135-23.261 28.857zM512.002 939.52c271.022 0 491.52-220.498 491.52-491.52s-220.498-491.52-491.52-491.52c-271.022 0-491.52 220.498-491.52 491.52s220.498 491.52 491.52 491.52z" />
<glyph unicode="&#xe915;" glyph-name="image" d="M672.005 559.999v-0.014c-0.005-12.731-5.064-24.941-14.065-33.943-9.006-9.001-21.217-14.058-33.946-14.057-12.733 0.001-24.945 5.059-33.946 14.062s-14.060 21.213-14.060 33.945c0 12.732 5.059 24.942 14.060 33.945s21.212 14.061 33.946 14.062c12.728 0.001 24.94-5.055 33.946-14.057 9.001-9.001 14.060-21.211 14.065-33.943v0zM928 736v-576c-0.020-16.968-6.769-33.234-18.765-45.235-12.001-11.996-28.268-18.744-45.235-18.765h-704c-16.968 0.020-33.235 6.769-45.233 18.765-11.998 12.001-18.747 28.268-18.767 45.235v576c0.019 16.968 6.769 33.235 18.767 45.233s28.265 18.747 45.233 18.767h704c16.968-0.019 33.234-6.769 45.235-18.767 11.996-11.998 18.744-28.265 18.765-45.233v0zM864.031 301.225l-0.031 434.775h-704v-370.744l146.746 146.743c12.013 11.985 28.288 18.715 45.256 18.715s33.244-6.73 45.256-18.715l178.747-178.748 82.739 82.749c12.012 11.981 28.288 18.714 45.256 18.714s33.244-6.733 45.256-18.714l114.775-114.775z" />
<glyph unicode="&#xe916;" glyph-name="shape" d="M493.866 434.647c15.556 27.277 45.5 44.269 78.135 44.269 10.496 0 20.449-2.314 29.998-5.606v216.69c0 16.582-13.42 30-29.998 30h-480.001c-16.582 0-30-13.418-30-30v-479.998c0-16.584 13.418-30.003 30-30.003h256.352l145.514 254.648zM692.014 960c-117.176 0-216.142-75.468-253.414-180h133.411c49.628 0 90.004-40.372 90.004-90v-267.999c9.958-1.137 19.958-2.002 29.998-2.002 148.884 0 269.998 121.115 269.998 270.001s-121.114 270-269.998 270zM812.001-64.005h-480c-10.694 0-20.566 5.688-25.958 14.945-5.362 9.257-5.39 20.654-0.088 29.942l240.001 423.997c10.665 18.693 41.426 18.693 52.091 0l240-423.997c5.299-9.288 5.274-20.685-0.092-29.942-5.386-9.257-15.258-14.945-25.953-14.945z" />
<glyph unicode="&#xe917;" glyph-name="text-t" d="M512 787.219c28.278 0 51.2-22.923 51.2-51.2v-575.998c0-28.278-22.922-51.2-51.2-51.2-28.277 0-51.2 22.922-51.2 51.2v575.998c0 28.277 22.923 51.2 51.2 51.2zM140.8 736.019c0 28.277 22.923 51.2 51.2 51.2h640c28.278 0 51.2-22.923 51.2-51.2v-128c0-28.277-22.922-51.2-51.2-51.2s-51.2 22.923-51.2 51.2v76.8h-537.6v-76.8c0-28.277-22.923-51.2-51.2-51.2s-51.2 22.923-51.2 51.2v128zM332.8 160.020c0 28.278 22.923 51.2 51.2 51.2h256c28.278 0 51.2-22.922 51.2-51.2s-22.922-51.2-51.2-51.2h-256c-28.277 0-51.2 22.922-51.2 51.2z" />
<glyph unicode="&#xe918;" glyph-name="bounding-box" d="M832 576c16.968 0.019 33.234 6.769 45.235 18.767 11.996 11.998 18.744 28.265 18.765 45.233v128c-0.020 16.968-6.769 33.235-18.765 45.233-12.001 11.998-28.268 18.747-45.235 18.767h-128c-16.968-0.019-33.234-6.769-45.235-18.767-11.996-11.998-18.744-28.265-18.765-45.233v-32h-256v32c-0.019 16.968-6.769 33.235-18.767 45.233s-28.265 18.747-45.233 18.767h-128c-16.968-0.019-33.235-6.769-45.233-18.767s-18.747-28.265-18.767-45.233v-128c0.019-16.968 6.769-33.235 18.767-45.233s28.265-18.747 45.233-18.767h32v-256h-32c-16.968-0.020-33.235-6.769-45.233-18.765-11.998-12.001-18.747-28.268-18.767-45.235v-128c0.019-16.968 6.769-33.234 18.767-45.235 11.998-11.996 28.265-18.744 45.233-18.765h128c16.968 0.020 33.235 6.769 45.233 18.765 11.998 12.001 18.747 28.268 18.767 45.235v32h256v-32c0.020-16.968 6.769-33.234 18.765-45.235 12.001-11.996 28.268-18.744 45.235-18.765h128c16.968 0.020 33.234 6.769 45.235 18.765 11.996 12.001 18.744 28.268 18.765 45.235v128c-0.020 16.968-6.769 33.234-18.765 45.235-12.001 11.996-28.268 18.744-45.235 18.765h-32v256h32zM736 320h-32c-16.968-0.020-33.234-6.769-45.235-18.765-11.996-12.001-18.744-28.268-18.765-45.235v-32h-256v32c-0.019 16.968-6.769 33.234-18.767 45.235-11.998 11.996-28.265 18.744-45.233 18.765h-32v256h32c16.968 0.019 33.235 6.769 45.233 18.767s18.747 28.265 18.767 45.233v32h256v-32c0.020-16.968 6.769-33.235 18.765-45.233 12.001-11.998 28.268-18.747 45.235-18.767h32v-256z" />
<glyph unicode="&#xe919;" d="M828.077 660.666l-169.056 24.566-75.606 153.19c-29.19 59.156-113.632 59.178-142.835 0.002l-75.606-153.192-169.059-24.566c-65.28-9.484-91.39-89.782-44.138-135.846l122.332-119.245-28.878-168.371c-11.152-65.011 57.14-114.662 115.557-83.958l151.21 79.498 151.213-79.498c58.483-30.742 126.682 19.091 115.549 83.958l-28.877 168.371 122.333 119.245c47.235 46.048 21.168 126.356-44.138 135.846z" />
<glyph unicode="&#xe91a;" d="M269.476 865.699l-40.822 56.184c-11.082 15.248-32.428 18.63-47.676 7.548-15.25-11.080-18.63-32.426-7.55-47.676l40.822-56.184c11.088-15.256 32.436-18.626 47.676-7.548 15.25 11.078 18.63 32.426 7.55 47.676z" />
<glyph unicode="&#xe91b;" d="M133.993 362.186c-5.826 17.926-25.078 27.744-43.010 21.914l-67.39-21.898c-17.928-5.824-27.738-25.082-21.914-43.011 5.836-17.962 25.128-27.731 43.010-21.914l67.392 21.898c17.928 5.824 27.738 25.082 21.912 43.011z" />
<glyph unicode="&#xe91c;" d="M843.053 929.43c-15.248 11.082-36.595 7.702-47.677-7.548l-40.822-56.184c-11.082-15.25-7.699-36.598 7.549-47.676 15.258-11.084 36.598-7.696 47.677 7.548l40.822 56.184c11.082 15.25 7.699 36.596-7.549 47.676z" />
<glyph unicode="&#xe91d;" d="M1000.394 362.198l-67.389 21.898c-17.926 5.837-37.187-3.984-43.014-21.914-5.824-17.926 3.987-37.184 21.92-43.008l67.386-21.898c17.894-5.821 37.181 3.962 43.014 21.914 5.824 17.926-3.99 37.184-21.917 43.008z" />
<glyph unicode="&#xe91e;" d="M512.010 97.594c-18.851 0-34.134-15.283-34.134-34.131v-69.277c0-18.851 15.283-34.131 34.134-34.131 18.848 0 34.131 15.28 34.131 34.131v69.277c0.003 18.848-15.28 34.131-34.131 34.131z" />
<glyph unicode="&#xe91f;" glyph-name="tshirt-1" d="M211.998-64h600c16.567 0 29.999 13.431 29.999 29.999v460.303l161.393 53.205c7.595 2.502 13.875 7.936 17.449 15.091 3.571 7.153 4.139 15.439 1.577 23.014l-90.709 268.135c-22.829 68.48-78.261 119.814-148.292 137.322l-144.141 36.036c-2.202 0.548-5.363 0.894-7.275 0.894h-240c-2.229 0-5.402-0.43-7.277-0.896l-144.137-36.036c-70.031-17.506-125.467-68.84-148.251-137.194l-90.754-268.259c-2.562-7.578-1.996-15.861 1.578-23.014 3.572-7.157 9.854-12.589 17.448-15.091l161.392-53.207v-460.303c0-16.567 13.432-29.999 30-29.999v0zM589.988 900c-15.767-26.838-45.297-60-77.99-60s-62.225 33.164-77.99 60h155.981zM68.103 527.025l81.108 239.749c16.304 48.914 55.902 85.582 105.922 98.086l115.132 28.784c21.118-52.616 76.555-113.644 141.732-113.644 64.314 0 120.299 60.24 141.732 113.644l115.132-28.784c50.020-12.504 89.617-49.172 105.963-98.214l81.065-239.623-113.892-37.545v200.523c0 16.567-13.431 29.999-29.999 29.999s-30.001-13.431-30.001-29.999v-694.001h-540c0 22.084 0 680.919 0 694.001 0 16.567-13.431 29.999-29.999 29.999s-30-13.431-30-29.999v-200.523l-113.894 37.547zM332 298.001h149.999v-150.001c0-13.483 8.998-25.31 21.993-28.911 13.105-3.631 26.854 2.010 33.732 13.476l180 300c5.559 9.267 5.709 20.811 0.382 30.217s-15.298 15.219-26.106 15.219h-150.001v150.001c0 13.483-8.996 25.31-21.99 28.911-12.996 3.601-26.795-1.914-33.732-13.476l-180-300c-5.562-9.267-5.709-20.811-0.382-30.217 5.325-9.406 15.298-15.219 26.106-15.219v0zM481.999 519.691v-71.689c0-16.57 13.434-30.001 30.001-30.001h127.014l-97.015-161.69v71.689c0 16.57-13.431 30.001-29.999 30.001h-127.014l97.013 161.69z" />
<glyph unicode="&#xe920;" glyph-name="tshirt-2" d="M778.251 14.63c-1.324-0.009-2.645 0.11-3.948 0.35-13.612 2.15-22.915 14.916-20.789 28.534l28.634 180.452c1.698 13.695 14.177 23.42 27.87 21.722 13.695-1.698 23.421-14.175 21.723-27.87-0.073-0.567-0.161-1.134-0.27-1.698l-28.584-180.4c-1.914-12.129-12.358-21.067-24.636-21.089v0zM626.734-32.893c-77.628 2.441-154.842 12.348-230.574 29.584-213.882 43.376-263.805 82.455-268.752 86.802-7.156 6.16-10.231 15.825-7.946 24.986l113.489 457.899c3.312 13.399 16.859 21.577 30.258 18.264 13.4-3.312 21.577-16.859 18.266-30.259l-108.942-440.206c74.748-32.533 153.289-55.551 233.772-68.513 79.142-19.457 160.425-28.827 241.917-27.886l71.061 447.706c2.167 13.633 14.976 22.93 28.609 20.764s22.93-14.975 20.764-28.608l-73.958-465.946c-1.429-9.338-8.003-17.074-16.991-19.989-16.691-3.925-33.852-5.474-50.974-4.598v0zM171.433 836.63c-13.798-0.006-24.991 11.173-24.997 24.975-0.004 9.040 4.873 17.377 12.756 21.8l16.341 9.196c30.946 17.387 64.516 29.625 99.393 36.23 13.636 2.121 26.409-7.213 28.53-20.849 2.022-13.006-6.39-25.352-19.234-28.224-29.53-5.624-57.951-16.005-84.154-30.734l-16.393-9.195c-3.736-2.098-7.953-3.2-12.242-3.198zM841.617 311.218c-6.411-0.016-12.585 2.436-17.239 6.847l-101.746 96.647c-10.018 9.495-10.443 25.311-0.949 35.329s25.311 10.443 35.329 0.949l85.703-81.355 121.434 101.146-133.926 173.255c-25.682 33.407-62.522 56.465-103.792 64.964l-37.38 7.596c-29.301-75.075-113.913-112.181-188.988-82.879-57.402 22.403-94.546 78.451-92.809 140.048l-37.379 7.447c-41.29 8.226-84.159 1.381-120.835-19.29l-190.796-107.342 72.461-140.524 110.538 41.527c12.914 4.864 27.325-1.658 32.192-14.572s-1.657-27.325-14.571-32.192c-0.011-0.004-0.021-0.009-0.030-0.011l-131.379-49.323c-11.861-4.45-25.177 0.684-30.982 11.944l-93.699 181.602c-6.159 11.962-1.74 26.652 9.995 33.232l211.784 119.236c47.108 26.612 102.224 35.374 155.265 24.686l59.968-12.143c13.525-2.73 22.279-15.911 19.548-29.436-0.004-0.017-0.007-0.031-0.011-0.048-10.529-51.913 23.020-102.534 74.934-113.064 51.913-10.529 102.534 23.020 113.064 74.934 2.729 13.525 15.909 22.279 29.436 19.547 0.017-0.004 0.031-0.006 0.048-0.010l59.968-12.143c53.005-10.829 100.346-40.361 133.377-83.206l148.619-192.344c8.229-10.63 6.574-25.867-3.748-34.482l-157.114-130.779c-4.57-3.804-10.345-5.861-16.293-5.793v0zM672.009 287.28c-159.040 4.949-315.625 40.582-461.147 104.943-12.454 5.942-17.737 20.855-11.794 33.31 5.854 12.27 20.443 17.609 32.832 12.015 153.333-67.6 319.428-101.365 486.983-98.995 13.8 0.912 25.724-9.537 26.635-23.337s-9.539-25.724-23.337-26.635c-16.74-0.75-33.529-1.3-50.172-1.3zM737.425 407.865c-170.207 4.995-338.286 39.243-496.879 101.244-12.624 5.577-18.337 20.329-12.76 32.951 5.365 12.142 19.285 17.973 31.7 13.274 152.741-59.052 314.322-92.011 477.988-97.496 0.75 0 1.549-0.35 2.298 0 13.8 0 24.986-11.186 24.986-24.986-0.649-14.448-12.884-25.634-27.332-24.986v-0.001zM93.777 793.003c13.744 0 24.887 11.143 24.887 24.887s-11.142 24.887-24.887 24.887c-13.744 0-24.887-11.142-24.887-24.887s11.142-24.887 24.887-24.887z" />
<glyph unicode="&#xe921;" glyph-name="worldwide" d="M873.937 810.036c-96.676 96.706-225.214 149.964-361.937 149.964-136.721 0-265.259-53.258-361.935-149.964-96.674-96.705-149.914-225.279-149.914-362.036s53.24-265.331 149.914-362.035c96.676-96.706 225.214-149.965 361.935-149.965 136.723 0 265.261 53.259 361.937 149.965 96.674 96.704 149.914 225.276 149.914 362.035s-53.239 265.331-149.914 362.036v0zM512-4c-33.694 0-70.812 45.487-99.29 121.679-10.532 28.177-19.543 59.401-26.927 92.958 29.472 13.613 52.030 39.684 60.896 71.433h204.292c-8.597-61.126-21.993-117.062-39.682-164.39-28.476-76.192-65.594-121.679-99.29-121.679v0zM231.558 342.069h-158.967c-8.194 34.293-12.44 69.783-12.44 105.931 0 47.607 7.338 94.082 21.424 138.161h227.588c-4.817-44.393-7.322-90.79-7.322-138.161 0-10.231 0.158-20.399 0.39-30.532-34.214-12.011-60.849-40.224-70.673-75.398v0zM339.121 363.757c28.499 0 51.689-23.187 51.689-51.689s-23.189-51.689-51.689-51.689c-28.499 0-51.689 23.187-51.689 51.689 0 28.499 23.189 51.689 51.689 51.689zM446.682 342.069c-11.117 39.802-43.75 70.703-84.531 79.287-0.181 8.841-0.307 17.713-0.307 26.643 0 47.599 2.615 94.042 7.65 138.161h203.411c11.42-40.892 45.566-72.371 87.915-79.921 0.877-19.164 1.338-38.598 1.338-58.24 0-36.147-1.515-71.627-4.442-105.931h-211.034zM512 900c33.696 0 70.814-45.488 99.292-121.678 7.236-19.356 13.745-40.161 19.509-62.166-27.998-13.963-49.329-39.334-57.894-69.995h-194.818c8.459 48.597 20.090 93.28 34.624 132.161 28.476 76.19 65.594 121.678 99.287 121.678v0zM680.467 564.474c-28.499 0-51.689 23.187-51.689 51.689s23.189 51.689 51.689 51.689c28.499 0 51.689-23.187 51.689-51.689s-23.189-51.689-51.689-51.689zM720.608 511.964c32.646 12.621 57.911 40.145 67.422 74.197h154.398c14.084-44.079 21.423-90.554 21.423-138.163 0-36.147-4.245-71.639-12.439-105.931h-233.513c2.81 34.449 4.26 69.909 4.26 105.931 0 21.559-0.531 42.908-1.551 63.966v0zM918.336 646.161h-130.306c-12.335 44.16-51.17 77.348-98.217 81.267-6.517 25.474-13.967 49.552-22.321 71.902-12.725 34.048-27.243 63.032-43.172 86.654 77.719-19.8 148.992-60.158 207.185-118.368 35.987-36 65.126-77.015 86.831-121.455v0zM192.497 767.616c58.191 58.21 129.466 98.568 207.183 118.368-15.927-23.622-30.445-52.606-43.17-86.654-16.806-44.962-30.001-96.853-39.221-153.169h-211.622c21.704 44.439 50.842 85.455 86.83 121.455v0zM91.467 282.069h140.091c12.047-43.134 49.374-75.806 94.944-80.956 8.126-37.668 18.17-72.777 30.010-104.442 12.725-34.048 27.243-63.031 43.17-86.654-77.717 19.799-148.992 60.158-207.183 118.368-44.54 44.553-78.61 96.777-101.032 153.683v0zM831.505 128.384c-58.193-58.21-129.466-98.569-207.185-118.368 15.93 23.622 30.447 52.606 43.172 86.654 19.966 53.421 34.846 116.614 44.002 185.397h221.041c-22.423-56.905-56.493-109.129-101.030-153.683z" />
<glyph unicode="&#xe922;" d="M753.843 693.773v236.234c0 16.562-13.43 29.992-29.99 29.992h-202.541v-228.078c0-21.547-22.976-38.141-45.446-25.711l-97.942 49.594-99.923-50.594c-20.133-10.172-43.414 4.899-43.398 26.711l-0.055 228.078h-202.555c-16.562 0-29.992-13.43-29.992-29.992v-691.861c0-16.56 13.43-29.99 29.992-29.99h391.093c-18.326 48.554-29.382 96.835-29.382 139.866 0 196.445 163.376 353.634 360.141 345.751z" />
<glyph unicode="&#xe923;" d="M391.405 816.055l69.923-35.406v179.352h-166.797v-179.352l69.875 35.375c8.186 4.148 18.17 4.476 26.998 0.031z" />
<glyph unicode="&#xe924;" d="M739.734 634.077c-157.968 0-286.048-128.077-286.048-286.048 0-75.485 42.736-175.062 97.251-256.397 58.579-87.398 133.562-155.626 188.797-155.626s130.218 68.227 188.797 155.626c54.515 81.334 97.251 180.912 97.251 256.397 0.006 157.971-128.070 286.048-286.048 286.048zM739.734 237.936c-60.79 0-110.086 49.296-110.086 110.093 0 60.79 49.296 110.080 110.086 110.080s110.086-49.29 110.086-110.080c0-60.797-49.29-110.093-110.086-110.093z" />
<glyph unicode="&#xe925;" d="M789.853 348.029c0-27.67-22.432-50.099-50.102-50.099-27.664 0-50.093 22.429-50.093 50.099 0 27.664 22.429 50.096 50.093 50.096 27.67 0 50.102-22.432 50.102-50.096z" />
<glyph unicode="&#xe926;" d="M384.944 30.752c19.658-19.837 45.76-30.752 73.53-30.752 27.766 0 53.869 10.915 73.526 30.752l364 367.354-556.765 561.894-73.527-74.205 119.236-120.334-290.472-293.15c-19.656-19.837-30.472-46.182-30.472-74.205s10.816-54.368 30.472-74.205l290.472-293.149zM458.474 691.255l290.47-293.149h-580.944l290.474 293.149z" />
<glyph unicode="&#xe927;" d="M832 165.379c0 75.555 91.584 183.21 96 186.621 4.416-3.411 96-106.64 96-186.621 0-85.792-52.512-135.645-96-133.299-50.448 2.771-96 53.638-96 133.299z" />
<glyph unicode="&#xe928;" glyph-name="box" d="M983.458 734.057l-464.935 224.453c-4.122 1.988-8.922 1.988-13.043 0l-464.938-224.453c-5.184-2.501-8.478-7.752-8.478-13.508v-545.097c0-5.756 3.294-11.007 8.478-13.508l464.936-224.452c2.060-0.995 4.292-1.492 6.521-1.492 2.231 0 4.46 0.497 6.523 1.492l464.935 224.452c5.184 2.501 8.477 7.752 8.477 13.508v545.096c0 5.761-3.296 11.007-8.477 13.509zM512 928.344l430.434-207.795-124.774-60.236c-0.79 0.603-1.624 1.159-2.54 1.6l-427.51 206.38 124.39 60.050zM353.735 851.334l429.808-207.492-88.030-42.497-429.631 207.408 87.853 42.582zM793.599 615.386v-157.092l-82.226-39.696v157.092l82.226 39.696zM961.937 184.864l-434.937-209.964v511.783l103.746 50.084c7.461 3.603 10.588 12.569 6.987 20.031-3.603 7.458-12.569 10.59-20.031 6.985l-105.702-51.030-41.592 20.081c-7.462 3.606-16.428 0.474-20.029-6.987-3.603-7.459-0.474-16.428 6.985-20.029l39.636-19.134v-511.783l-434.936 209.968v511.783l331.2-159.89c2.102-1.015 4.324-1.497 6.51-1.497 5.576 0 10.932 3.125 13.518 8.483 3.602 7.459 0.474 16.428-6.987 20.029l-324.739 156.771 149.009 71.936 450.589-217.525c0.066-0.092 0.139-0.174 0.208-0.263v-179.999c0-5.162 2.654-9.961 7.026-12.706 2.427-1.523 5.198-2.294 7.975-2.294 2.224 0 4.454 0.494 6.52 1.492l112.226 54.178c5.184 2.501 8.479 7.75 8.479 13.508v180.989l138.338 66.785v-511.786zM185.849 243.042l-68.23 32.938c-7.464 3.606-16.428 0.474-20.030-6.987-3.602-7.459-0.474-16.428 6.986-20.029l68.23-32.938c2.102-1.017 4.324-1.497 6.51-1.497 5.576 0 10.932 3.125 13.518 8.482 3.604 7.462 0.475 16.426-6.984 20.031zM248.648 283.916l-130.931 63.209c-7.462 3.602-16.428 0.474-20.030-6.988-3.6-7.461-0.472-16.428 6.988-20.029l130.93-63.209c2.102-1.014 4.324-1.497 6.51-1.497 5.576 0 10.932 3.125 13.518 8.483 3.602 7.463 0.474 16.431-6.985 20.031z" />
<glyph unicode="&#xe929;" d="M963.757 869.655h-150.586c0 12.047 0 21.082 0 33.129 0 15.059-15.059 27.106-30.118 27.106h-542.12c-15.059 0-30.118-12.047-30.118-27.106 0-12.047-3.012-21.082-3.012-33.129h-147.576c-18.071 0-30.118-15.059-30.118-30.118v-36.141c0-162.636 117.459-298.164 277.083-322.26 18.072-30.118 39.154-57.222 60.235-84.33h289.13c24.096 27.107 45.178 54.211 60.237 84.33 159.622 27.107 277.082 162.637 277.082 322.26v36.141c0 15.059-15.059 30.118-30.118 30.118zM90.345 803.396v6.023h117.459c3.012-90.353 21.083-174.684 60.236-256.002-105.412 36.141-177.694 135.532-177.694 249.979zM632.464 664.855l-42.166-42.167 9.037-60.234c3.011-9.037-3.011-18.070-9.037-24.096-3.011-3.011-9.034-6.022-15.056-6.022-3.014 0-9.037 0-12.048 3.011l-51.2 27.107-51.2-27.107c-9.037-6.022-18.070-3.011-27.107 3.011-9.034 6.026-12.045 15.059-9.034 24.096l9.034 60.234-42.163 42.167c-6.026 6.024-9.037 18.071-6.026 27.106 3.014 9.036 12.048 15.059 21.085 18.071l57.222 9.035 27.107 54.212c3.011 9.035 12.045 15.059 24.093 15.059 9.037 0 18.070-6.024 24.093-15.059l27.107-54.212 57.222-9.035c9.037-3.012 18.070-9.035 21.085-18.071-3.014-9.035-6.026-21.082-12.048-27.106zM933.642 803.396c0-114.447-72.285-213.838-177.696-249.979 36.141 78.307 54.211 162.638 57.226 256.002h120.47v-6.023zM629.453 339.584h-234.918c0-48.189-24.093-96.378-69.27-144.566-9.037-9.034-3.011-27.104 12.048-27.104h355.386c15.059 0 21.085 18.070 12.048 27.104-51.2 51.2-75.293 99.389-75.293 144.566z" />
<glyph unicode="&#xe92a;" d="M725.821 104.672h-427.668c-15.059 0-27.106-12.045-27.106-27.104v-81.318c0-18.070 12.047-30.118 30.118-30.118h421.645c18.070 0 30.118 12.048 30.118 30.118v84.33c0 12.048-12.048 24.093-27.107 24.093z" />
<glyph unicode="&#xe92b;" glyph-name="laptop-2" d="M1010.102 168.028l-80.44 108.052v453.691c0 60.605-49.306 109.911-109.911 109.911h-615.5c-60.605 0-109.911-49.306-109.911-109.911v-453.691l-80.441-108.052c-15.889-21.348-18.341-49.377-6.397-73.157 11.942-23.78 35.893-38.554 62.501-38.554h883.991c26.609 0 50.563 14.774 62.502 38.554 11.945 23.78 9.495 51.809-6.395 73.157zM154.291 729.771c0 27.547 22.412 49.959 49.959 49.959h615.5c27.548 0 49.958-22.412 49.958-49.959v-433.648h-715.418v433.648zM962.926 121.777c-1.034-2.056-3.566-5.507-8.929-5.507h-883.993c-5.364 0-7.896 3.451-8.929 5.507-1.035 2.056-2.29 6.152 0.913 10.452l77.381 103.944h745.262l77.381-103.944c3.203-4.303 1.948-8.397 0.914-10.452zM593.935 719.779h-163.866c-16.556 0-29.975-13.421-29.975-29.975 0-16.556 13.42-29.978 29.975-29.978h163.866c16.556 0 29.978 13.422 29.978 29.978 0 16.553-13.422 29.975-29.978 29.975z" />
<glyph unicode="&#xe92c;" glyph-name="smartphone" d="M605.868 874.666h-102.4c-14.147 0-25.6-11.452-25.6-25.6s11.453-25.6 25.6-25.6h102.4c14.149 0 25.6 11.452 25.6 25.6s-11.451 25.6-25.6 25.6zM716.8 960h-409.6c-56.456 0-102.4-45.944-102.4-102.4v-819.2c0-56.456 45.944-102.4 102.4-102.4h409.6c56.456 0 102.4 45.944 102.4 102.4v819.2c0 56.456-45.944 102.4-102.4 102.4zM768 38.4c0-28.28-22.92-51.2-51.2-51.2h-409.6c-28.28 0-51.2 22.92-51.2 51.2v819.2c0 28.28 22.92 51.2 51.2 51.2h409.6c28.28 0 51.2-22.92 51.2-51.2v-819.2zM512 21.335c28.278 0 51.2 22.922 51.2 51.2 0 28.275-22.922 51.2-51.2 51.2s-51.2-22.925-51.2-51.2c0-28.278 22.922-51.2 51.2-51.2zM418.132 823.466c14.136 0 25.6 11.462 25.6 25.6s-11.464 25.6-25.6 25.6c-14.139 0-25.6-11.461-25.6-25.6s11.461-25.6 25.6-25.6z" />
<glyph unicode="&#xe92d;" glyph-name="tablet" d="M703.956 959.936h-619.031c-46.828 0-84.925-38.096-84.925-84.923v-853.823c0-46.828 38.098-84.925 84.925-84.925h619.034c46.828 0 84.925 38.098 84.925 84.925v853.823c-0.003 46.828-38.1 84.923-84.928 84.923zM728.899 21.189c0-13.752-11.19-24.942-24.942-24.942h-619.031c-13.752 0-24.941 11.19-24.941 24.942v853.823c0 13.752 11.189 24.941 24.941 24.941h619.034c13.752 0 24.942-11.189 24.942-24.941v-853.823h-0.003zM936.105 959.936c-48.463 0-87.892-39.43-87.892-87.893v-807.086c0-5.256 1.382-10.422 4.009-14.979l57.014-98.9c5.317-9.229 15.132-14.943 25.782-15.012h0.202c10.573 0 20.372 5.571 25.782 14.666l58.79 98.9c2.757 4.636 4.211 9.933 4.211 15.327v807.083c-0.003 48.465-39.432 87.893-87.898 87.893zM936.105 899.952c15.391 0 27.912-12.521 27.912-27.909v-55.069h-55.821v55.069c0 15.39 12.518 27.909 27.909 27.909zM935.616 25.421l-27.42 47.562v684.007h55.821v-683.789l-28.401-47.78zM353.080 778.36h82.721c16.563 0 29.993 13.428 29.993 29.992s-13.43 29.992-29.993 29.992h-82.721c-16.563 0-29.993-13.428-29.993-29.992s13.43-29.992 29.993-29.992zM479.478 117.842h-170.074c-16.563 0-29.99-13.43-29.99-29.993s13.427-29.99 29.99-29.99h170.074c16.563 0 29.99 13.427 29.99 29.99s-13.427 29.993-29.99 29.993z" />
<glyph unicode="&#xe92e;" glyph-name="laptop" d="M934 658h-30v150c0 49.625-40.375 90-90 90h-664c-49.625 0-90-40.375-90-90v-450h-30c-16.57 0-30-13.43-30-30 0-82.711 67.289-150 150-150h454v-90c0-49.626 40.374-90 90-90h240c49.624 0 90 40.374 90 90v480c0 49.626-40.375 90-90 90zM664 478h299.999v-300.001h-299.999v300.001zM963.999 568v-30h-299.999v30c0 16.539 13.461 30 30 30h240c16.539 0 29.999-13.461 29.999-30zM120 808c0 16.539 13.461 30 30 30h664c16.539 0 30-13.461 30-30v-150h-150c-49.626 0-90-40.374-90-90v-210h-484.001v450zM150 238c-39.11 0-72.477 25.078-84.86 59.999h538.86v-59.999h-454zM934 58h-240c-16.539 0-30 13.461-30 30v30h299.999v-30c0-16.539-13.46-30-29.999-30z" />
<glyph unicode="&#xe92f;" glyph-name="package-2" d="M270 280h-120c-16.568 0-30-13.431-30-30 0-16.567 13.432-29.999 30-29.999h120c16.567 0 30 13.431 30 29.999s-13.433 30-30 30zM270 400h-120c-16.568 0-30-13.431-30-30 0-16.567 13.432-30 30-30h120c16.567 0 30 13.433 30 30 0 16.569-13.433 30-30 30zM860.001 454.308v315.692c0 3.598-0.647 7.167-1.91 10.534l-60.001 160c-4.39 11.708-15.583 19.466-28.090 19.466h-680c-12.506 0-23.7-7.758-28.090-19.466l-60-160c-1.264-3.368-1.91-6.936-1.91-10.534v-640c0-16.567 13.432-30 30-30h475.692c41.281-96.336 137.038-163.999 248.307-163.999 148.878 0 270 121.122 270 270 0 111.269-67.664 207.026-163.999 248.307zM749.21 900l37.5-100h-250.227l-12.5 100h225.227zM396.481 900h67.035l12.5-100h-92.035l12.5 100zM380.001 739.999h99.999v-109.999l-32 24c-10.667 8-25.334 8-35.999 0l-32-24v109.999zM110.79 900h225.229l-12.5-100h-250.229l37.5 100zM487.937 160h-427.937v579.999h260v-170c0-24.721 28.223-38.831 48-24l62 46.501 62-46.501c19.777-14.831 48-0.721 48 24v170h259.999v-267.937c-14.955 2.577-30.32 3.938-46 3.938-148.878 0-270-121.122-270-270 0-15.68 1.361-31.046 3.938-46v0zM754-3.999c-115.793 0-210 94.205-210 210 0 115.793 94.207 210 210 210s210-94.207 210-210c0-115.794-94.205-210-210-210zM848.859 284.393l-133.749-133.749-55.966 55.966c-11.422 11.422-30.030 12.474-41.978 1.603-12.756-11.608-13.106-31.373-1.050-43.429l77.78-77.78c11.716-11.716 30.71-11.716 42.426 0l155.561 155.563c12.056 12.053 11.709 31.819-1.050 43.428-11.948 10.874-30.554 9.822-41.975-1.601v0z" />
<glyph unicode="&#xe930;" glyph-name="photo-filter" d="M303.787 660.427c49.508 0 89.785 40.279 89.785 89.786 0 49.509-40.277 89.786-89.785 89.786-49.509 0-89.786-40.277-89.786-89.786 0-49.508 40.277-89.786 89.786-89.786zM303.787 780.001c16.424 0 29.786-13.363 29.786-29.787s-13.362-29.786-29.786-29.786c-16.425 0-29.787 13.362-29.787 29.786s13.362 29.787 29.787 29.787zM994 502.036h-161.499v427.964c0 16.568-13.433 30-30 30h-772.5c-16.568 0-30-13.432-30-30v-772.5c0-16.567 13.432-30 30-30h427.964v-161.499c0-16.569 13.431-30 30-30h506.035c16.569 0 30 13.431 30 30v506.035c0 16.569-13.431 30-30 30zM772.5 900v-249.372l-171.998 123.928c-11.89 8.569-28.23 7.287-38.645-3.022l-207.198-205.143-119.596 32.959c-9.715 2.677-20.126 0.296-27.713-6.335l-147.35-128.804v435.788h712.5zM60 187.5v197.020l174.684 152.697 120.777-33.283c10.348-2.853 21.441 0.046 29.077 7.603l201.492 199.492 186.47-134.356v-74.64h-284.535c-16.569 0-30-13.433-30-30v-284.534h-397.964zM963.999-3.999h-446.036v446.036h446.036v-446.036zM607.963 104.678h157.232v-18.678c0-16.569 13.431-30 30-30 16.567 0 29.999 13.431 29.999 30v18.678h48.805c16.567 0 29.999 13.431 29.999 29.999s-13.431 30-29.999 30h-48.802v18.678c0 16.567-13.433 30-30 30s-30-13.433-30-30v-18.678h-157.231c-16.569 0-30-13.431-30-30-0.003-16.567 13.43-29.999 29.998-29.999zM607.963 273.358h48.802v-18.678c0-16.567 13.431-30 30-30 16.567 0 30 13.433 30 30v18.678h157.234c16.567 0 29.999 13.433 29.999 30s-13.431 30-29.999 30h-157.232v18.678c0 16.567-13.431 29.999-30 29.999-16.567 0-30-13.431-30-29.999v-18.678h-48.801c-16.569 0-30-13.433-30-30-0.003-16.567 13.43-30 29.998-30v0z" />
<glyph unicode="&#xe931;" glyph-name="gallery" d="M994 778h-212.001v90c0 16.568-13.431 30-30 30h-722c-16.568 0-30-13.432-30-30v-540c0-16.569 13.432-30 30-30h92v-269.99c-0.004-7.72 3.038-15.473 8.788-21.224 5.982-5.674 12.73-8.786 21.218-8.786h719.994c8.446 0 15.228 3.112 21.211 8.786 5.793 5.793 8.79 13.7 8.788 21.224v149.99h92.001c16.567 0 30 13.431 30 30v539.999c0 16.569-13.433 30.001-30 30.001zM60 358v480h662v-60h-450c-16.569 0-30-13.432-30-30.001v-150h-90c-16.568 0-30-13.431-30-30v-210h-62zM842 100.425l-248.788 248.788c-11.714 11.717-30.711 11.717-42.427 0l-158.786-158.788-38.788 38.788c-11.714 11.717-30.711 11.717-42.427 0l-128.786-128.788v437.575h660.001v-437.575zM799.574 58h-575.148l107.573 107.573 38.789-38.788c11.714-11.716 30.709-11.716 42.425 0l158.786 158.788 227.575-227.573zM964.001 238h-62.001v330c0 16.569-13.431 30-30 30h-570v120h662.001v-480zM242 388.001c0-49.627 40.373-90 89.999-90s90 40.373 90 90c0 49.626-40.373 89.999-90 89.999-49.626 0-89.999-40.373-89.999-89.999zM331.999 418c16.543 0 30.001-13.458 30.001-30s-13.458-30.001-30.001-30.001c-16.541 0-30 13.458-30 30.001 0 16.541 13.458 30 30 30z" />
<glyph unicode="&#xe932;" glyph-name="speedometer" d="M512 889.375c-283.072 0-512-229.414-512-512 0-136.68 53.282-265.232 150.030-361.971 5.856-5.859 13.536-8.786 21.212-8.786 7.678 0 15.356 2.928 21.213 8.788l90.869 90.875c11.714 11.716 11.714 30.709 0 42.425-25.686 25.686-94.352 102.078-94.789 228.694 0.011 179.893 146.092 323.445 323.465 323.445 179.8 0 323.454-145.96 323.465-323.445-0.26-75.313-25.119-144.309-69.632-200.448-46.237 71.711-149.456 229.361-187.18 267.074-37.146 37.149-96.832 36.48-133.312 0-37.217-37.215-36.401-96.9 0-133.299 45.076-45.085 261.458-183.715 297.704-206.821l88.497-88.499c5.857-5.859 13.535-8.788 21.213-8.788s15.355 2.928 21.211 8.786c96.75 96.742 150.032 225.291 150.032 361.971 0 283.105-229.462 512-512 512zM220.496 128.304l-48.569-48.572c-65.812 74.959-104.47 168.207-110.954 267.644h68.712c6.258-81.13 37.834-157.268 90.811-219.072zM129.684 407.375h-68.71c6.482 99.441 45.14 192.689 110.954 267.646l48.569-48.569c-53.026-61.837-84.564-137.929-90.813-219.077zM482 759.693c-81.15-6.248-157.25-37.793-219.081-90.814l-48.563 48.569c74.966 65.812 168.212 104.472 267.644 110.954v-68.708zM487.771 353.152c-13.473 13.471-13.281 35.169-0.002 48.448 13.369 13.367 35.105 13.356 48.461 0 0 0 0-0.002 0.002-0.002 21.515-21.513 74.843-98.856 123.16-171.613-72.755 48.316-150.104 101.645-171.621 123.167zM542 759.693v68.708c99.432-6.482 192.678-45.142 267.644-110.956l-48.563-48.569c-61.831 53.023-137.931 84.568-219.081 90.816zM803.504 626.452l48.569 48.569c65.812-74.957 104.47-168.205 110.954-267.646h-68.709c-6.25 81.148-37.787 157.241-90.814 219.077zM852.072 79.731l-48.569 48.572c52.977 61.804 84.553 137.942 90.811 219.074h68.712c-6.484-99.44-45.142-192.688-110.954-267.646z" />
<glyph unicode="&#xe933;" glyph-name="checked" d="M734.016 656.975l-340.374-340.37-103.656 103.651c-14.283 14.285-37.436 14.285-51.719 0-14.283-14.283-14.283-37.436 0-51.719l129.516-129.516c7.139-7.144 16.497-10.712 25.86-10.712 9.359 0 18.721 3.573 25.86 10.712l366.234 366.239c14.285 14.283 14.285 37.436 0 51.719-14.277 14.279-37.44 14.279-51.719-0.004zM874.039 810.038c-96.704 96.704-225.28 149.962-362.039 149.962-136.761 0-265.335-53.258-362.038-149.962-96.706-96.707-149.962-225.279-149.962-362.038 0-136.763 53.256-265.337 149.962-362.041 96.701-96.704 225.277-149.959 362.038-149.959s265.335 53.255 362.039 149.959c96.704 96.704 149.961 225.278 149.961 362.041 0 136.759-53.257 265.331-149.961 362.038zM512-4.001c-249.234 0-452 202.767-452 452.001s202.766 452 452 452c249.234 0 452.001-202.766 452.001-452s-202.767-452.001-452.001-452.001z" />
<glyph unicode="&#xe934;" glyph-name="tshirt-3" d="M934.036 795.689c-24.969 62.426-78.821 109.43-144.048 125.738l-150.713 37.678c-8.962 2.238-18.458 0.226-25.737-5.458-7.283-5.684-11.538-14.408-11.538-23.646 0-49.626-40.375-90-90-90s-90 40.374-90 90c0 9.238-4.255 17.96-11.536 23.646-7.283 5.686-16.775 7.696-25.739 5.458l-150.713-37.678c-66.619-16.656-121.215-63.66-146.083-125.828l-85.818-216.543c-3.044-7.682-2.786-16.278 0.716-23.764 3.5-7.484 9.934-13.195 17.782-15.781l161.392-53.206v-520.304c0-16.569 13.432-30 30.001-30h600c16.567 0 30 13.431 30 30v520.304l161.392 53.206c7.888 2.6 14.345 8.353 17.832 15.888 3.489 7.536 3.697 16.179 0.576 23.876l-87.764 216.414zM842 549.478v138.523c0 16.567-13.433 30-30 30-16.569 0-30.001-13.433-30.001-30v-692.001h-539.999c0 18.968 0 675.178 0 692.001 0 16.567-13.433 30-30 30-16.569 0-30.001-13.433-30.001-30v-138.523l-112.386 37.051 74.060 186.876c17.432 43.582 57.624 77.996 104.893 89.812l118.117 29.53c16.603-64.75 75.46-112.746 145.317-112.746 69.859 0 128.713 47.996 145.318 112.748l118.118-29.53c46.592-11.648 85.056-45.222 102.945-89.945l75.765-186.825-112.146-36.97zM710.777 591.402c-9.137 7.331-21.709 8.669-32.188 3.432l-93.168-46.585-46.585 93.166c-5.082 10.165-15.47 16.585-26.832 16.585s-21.749-6.42-26.834-16.585l-46.583-93.166-93.168 46.585c-10.48 5.237-23.051 3.899-32.188-3.432-9.141-7.333-13.175-19.312-10.335-30.678l60.001-240c3.343-13.354 15.342-22.724 29.107-22.724h240c13.767 0 25.766 9.37 29.105 22.724l59.999 240c2.842 11.366-1.194 23.345-10.331 30.678zM608.58 358h-193.154l-38.499 153.999 61.659-30.83c14.821-7.411 32.839-1.403 40.251 13.416l33.167 66.333 33.167-66.333c7.409-14.821 25.43-20.829 40.251-13.416l61.659 30.83-38.501-153.999z" />
<glyph unicode="&#xe935;" glyph-name="return-2" d="M820 960c16.57 0 30-13.43 30-30v-398.054c104.726-52.39 174-159.954 174-281.446 0-173.686-140.813-314.499-314.499-314.499-121.493 0-229.056 69.274-281.446 174h-398.054c-16.57 0-30 13.43-30 30v790c0 16.57 13.43 30 30 30h790zM568 900v-168.125c0-21.571-23.016-38.173-45.493-25.688l-97.507 49.547-99.523-50.578c-19.976-10.118-43.422 4.648-43.406 26.718l-0.070 168.125h-222v-730h345.406c-29.040 109.954 3.618 224.789 81.71 302.883 78.094 78.093 192.93 110.75 302.883 81.71v345.406h-222zM614 118h139.992c31.97 0 60.976 13.024 81.976 34.032 22.078 22.069 34.032 50.664 34.032 83.96 0 63.938-52.070 116.008-116.008 116.008h-83.366l17.608 17.64c27.742 27.907-14.678 70.086-42.421 42.189l-68.805-68.93c-11.648-11.712-11.602-30.658 0.117-42.306l68.938-68.805c27.899-27.742 70.086 14.68 42.187 42.422l-17.827 17.789h83.57c32.485 0 56.008-25.968 56.008-57.992 0-30.813-25.195-56.008-56.008-56.008h-139.992c-16.57 0-30-13.43-30-30s13.43-30 30-30zM529.539 430.461c-99.382-99.39-99.382-260.539 0-359.922 99.39-99.39 260.539-99.39 359.922 0 99.39 99.382 99.39 260.531 0 359.922-99.382 99.382-260.539 99.382-359.922 0zM508 900h-166v-119.312l69.453 35.296c8.195 4.156 18.187 4.492 27.024 0.039l69.523-35.335v119.312z" />
</font>
</defs>
</svg>
