<svg xmlns="http://www.w3.org/2000/svg" width="44" height="44" viewBox="0 0 44 44" fill="none"><g clip-path="url(#clip0_1328_2752)"><path d="M42.1524 20.0167C41.9617 18.8709 40.2323 8.74121 38.3443 5.90884C36.0599 2.48128 31.4828 0.668546 29.6218 0.0481731C29.2933 -0.0637157 28.9289 0.0230797 28.6836 0.269287C28.0839 0.869035 23.9608 1.83401 21.9985 1.83401C20.0362 1.83401 15.9131 0.869035 15.3134 0.269287C15.069 0.0230797 14.7055 -0.0637157 14.3752 0.0481731C12.5142 0.668546 7.93711 2.48128 5.65267 5.90884C3.76474 8.74113 2.03528 18.8708 1.84458 20.0167C1.77833 20.4133 1.9789 20.8072 2.33872 20.9871C2.42199 21.0283 4.39938 22.0005 7.33195 22.0005C7.94794 22.0005 8.55912 21.9423 9.16523 21.8577V41.2502C9.16523 41.5564 9.31828 41.8429 9.57342 42.0129C9.69519 42.0944 12.6617 44.0002 21.9983 44.0002C31.3349 44.0002 34.3015 42.0944 34.4232 42.0129C34.6784 41.8429 34.8314 41.5563 34.8314 41.2502V21.8576C35.4375 21.9422 36.0487 22.0004 36.6647 22.0004C39.5973 22.0004 41.5747 21.0282 41.6579 20.987C42.0182 20.8072 42.2187 20.4133 42.1524 20.0167ZM21.9986 3.66737C23.075 3.66737 25.3707 3.32784 27.2712 2.78842C26.0975 4.29814 24.285 5.50065 21.9986 5.50065C19.7122 5.50065 17.8996 4.29814 16.726 2.78842C18.6265 3.32792 20.9221 3.66737 21.9986 3.66737ZM36.665 20.1671C36.0472 20.1671 35.4359 20.1007 34.8318 20.0019V15.5839C34.8318 12.6217 35.4602 11.6872 35.513 11.6147C35.8379 11.2548 35.8263 10.6989 35.4799 10.3525C35.1218 9.99442 34.5417 9.99442 34.1837 10.3525C33.9859 10.5503 32.9985 11.7328 32.9985 15.5839V40.6843C31.9502 41.1328 28.7966 42.1667 21.9987 42.1667C15.19 42.1667 12.0364 41.1292 10.9988 40.6852V15.5839C10.9988 11.7328 10.0114 10.5503 9.81361 10.3525C9.45646 9.99622 8.85671 9.97654 8.49948 10.3328C8.14138 10.6909 8.12351 11.2512 8.48066 11.6093C8.48779 11.6183 9.16548 12.508 9.16548 15.5839V20.0019C8.56135 20.1006 7.94992 20.1671 7.33221 20.1671C5.74505 20.1671 4.48377 19.8332 3.77841 19.5906C4.38537 16.1532 5.86597 8.8934 7.1783 6.92581C8.90174 4.34025 12.3519 2.76307 14.1572 2.07644C15.3911 4.74862 18.1804 7.33401 21.9988 7.33401C25.8172 7.33401 28.6063 4.74862 29.8403 2.07644C31.6456 2.76307 35.0958 4.34017 36.8192 6.92581C38.1315 8.89426 39.613 16.1577 40.22 19.5933C39.5198 19.835 38.2665 20.1671 36.665 20.1671Z" fill="#ABABAB"></path><path d="M18.332 16.5005C16.8156 16.5005 15.582 17.734 15.582 19.2504V24.7504C15.582 25.257 15.992 25.667 16.4987 25.667C17.0054 25.667 17.4154 25.257 17.4154 24.7504V23.8337H19.2487V24.7504C19.2487 25.257 19.6587 25.667 20.1653 25.667C20.672 25.667 21.082 25.257 21.082 24.7504V19.2504C21.0819 17.7341 19.8483 16.5005 18.332 16.5005ZM19.2486 22.0004H17.4153V19.2504C17.4153 18.7447 17.8262 18.3338 18.332 18.3338C18.8377 18.3338 19.2487 18.7446 19.2487 19.2504V22.0004H19.2486Z" fill="#ABABAB"></path><path d="M25.664 16.5005H23.8307C23.3241 16.5005 22.9141 16.9105 22.9141 17.4172V24.7504C22.9141 25.257 23.3241 25.667 23.8307 25.667H25.664C27.1804 25.667 28.4139 24.4335 28.4139 22.9171V19.2504C28.4139 17.7341 27.1804 16.5005 25.664 16.5005ZM26.5807 22.9171C26.5807 23.4228 26.1698 23.8338 25.664 23.8338H24.7473V18.3339H25.664C26.1697 18.3339 26.5807 18.7447 26.5807 19.2505V22.9171Z" fill="#ABABAB"></path></g><defs><clipPath id="clip0_1328_2752"><rect width="44" height="44" fill="white"></rect></clipPath></defs></svg>