<svg xmlns="http://www.w3.org/2000/svg" width="44" height="44" viewBox="0 0 44 44" fill="none"><g clip-path="url(#clip0_1328_2701)"><path d="M43.995 37.4259V10.8734C44.0017 10.8094 44.0017 10.7448 43.995 10.6808C43.9992 10.6295 43.9992 10.5779 43.995 10.5266L43.8987 10.3724L43.7831 10.2182H43.6482L43.4748 10.1026C42.4124 9.72778 41.3321 9.40623 40.2376 9.13914V4.63022C40.2376 4.09813 39.8062 3.66675 39.2741 3.66675C32.4494 3.7363 26.0575 7.02152 22.0285 12.5304C18.0381 7.01682 11.6658 3.7269 4.85992 3.66675C4.32782 3.66675 3.89644 4.09813 3.89644 4.63022V9.00429C2.7945 9.27463 1.70756 9.60268 0.640028 9.987L0.44737 10.1026H0.312427L0.196814 10.2568L0.100439 10.411C0.0963746 10.4623 0.0963746 10.5139 0.100439 10.5652C0.0597035 10.6315 0.0273679 10.7027 0.00406453 10.7771V37.4452C-0.00135484 37.5029 -0.00135484 37.5609 0.00406453 37.6186C0.0196904 37.665 0.0390195 37.7102 0.0618712 37.7534C0.0924004 37.8221 0.131239 37.8868 0.177485 37.9461V38.0617L0.331666 38.1773L0.485847 38.2737H0.620699H0.851926H1.00611H1.17953C7.97967 35.9871 15.4516 36.9309 21.4697 40.8364L21.6431 40.9328H21.9321H22.2212H22.3946C28.4138 37.1015 35.8395 36.1883 42.6077 38.4471H42.7811H42.9353H43.1665H43.3014L43.4748 38.3315L43.6096 38.2351V38.1003C43.768 38.0229 43.9015 37.9027 43.995 37.7534C43.9995 37.7021 43.9995 37.6506 43.995 37.5993C44.0005 37.5416 44.0005 37.4836 43.995 37.4259ZM1.91178 36.1349V11.5864C2.51549 11.3808 3.15787 11.1881 3.83864 11.0083V30.5084C3.83764 31.0405 4.26821 31.4726 4.8003 31.4736C4.82017 31.4736 4.84005 31.473 4.85983 31.4718L4.87907 31.4911C9.86309 31.4895 14.6444 33.4644 18.1746 36.9827C12.9863 34.9573 7.28274 34.6601 1.91178 36.1349ZM21.065 37.1947C17.2947 32.6065 11.7724 29.8104 5.84263 29.4872V5.61303C12.0121 6.03059 17.6372 9.2917 21.065 14.4382V37.1947ZM23.0112 37.2718V14.4381C26.4717 9.31699 32.0888 6.06464 38.2529 5.61294H38.2722V29.5641C32.3331 29.8932 26.8011 32.6871 23.0112 37.2718ZM42.126 36.1349C36.7602 34.6725 31.0668 34.9697 25.8823 36.9828C29.4271 33.4605 34.2191 31.48 39.2164 31.4719C39.7485 31.4719 40.1799 31.0406 40.1799 30.5085V11.0083C40.8222 11.1753 41.4709 11.368 42.1261 11.5864V36.1349H42.126Z" fill="#ABABAB"></path></g><defs><clipPath id="clip0_1328_2701"><rect width="44" height="44" fill="white"></rect></clipPath></defs></svg>