<svg xmlns="http://www.w3.org/2000/svg" width="44" height="44" viewBox="0 0 44 44" fill="none"><g clip-path="url(#clip0_1328_2723)"><path d="M18.2747 10.0382C18.2756 9.60265 17.9886 9.20225 17.5491 9.07634C17.0227 8.924 16.465 9.23159 16.3127 9.76381L16.0383 10.7257C15.9523 11.0275 16.0129 11.3517 16.2023 11.6026C16.3908 11.8527 16.6867 12.0001 17.0002 12.0001H18.0003C18.553 12.0001 19.0003 11.5528 19.0003 11.0001C19.0003 10.5431 18.6936 10.1574 18.2747 10.0382Z" fill="#ABABAB"></path><path d="M20.7163 5.00003C20.7163 4.44728 20.269 4 19.7163 4H18.7163C18.27 4 17.8774 4.29588 17.7544 4.72563L17.48 5.6875C17.3286 6.21878 17.6363 6.77247 18.1675 6.92388C18.2592 6.95022 18.351 6.96194 18.4429 6.96194C18.8774 6.96194 19.2778 6.67581 19.4038 6.23631L19.4712 6.00006H19.7164C20.269 6.00006 20.7163 5.55278 20.7163 5.00003Z" fill="#ABABAB"></path><path d="M22.3946 6.00006H23.7344C24.2872 6.00006 24.7345 5.55278 24.7345 5.00003C24.7345 4.44728 24.2872 4 23.7344 4H22.3946C21.8418 4 21.3945 4.44728 21.3945 5.00003C21.3945 5.55278 21.8418 6.00006 22.3946 6.00006Z" fill="#ABABAB"></path><path d="M27.4141 4H26.4141C25.8613 4 25.4141 4.44728 25.4141 5.00003C25.4141 5.45706 25.7207 5.84285 26.1397 5.96191C26.1388 6.39747 26.4258 6.79788 26.8653 6.92378C26.9571 6.95013 27.0489 6.96185 27.1408 6.96185C27.5753 6.96185 27.9757 6.67572 28.1017 6.23622L28.3761 5.27434C28.4621 4.97256 28.4015 4.64838 28.2121 4.39741C28.0235 4.14747 27.7277 4 27.4141 4Z" fill="#ABABAB"></path><path d="M26.2482 9.0761C25.7208 8.92375 25.1652 9.23135 25.0118 9.76357L24.9444 9.99991H24.6992C24.1465 9.99991 23.6992 10.4472 23.6992 10.9999C23.6992 11.5527 24.1465 12 24.6992 12H25.6993C26.1455 12 26.5381 11.7041 26.6611 11.2743L26.9355 10.3125C27.087 9.78119 26.7795 9.2275 26.2482 9.0761Z" fill="#ABABAB"></path><path d="M22.0196 10H20.6797C20.127 10 19.6797 10.4473 19.6797 11C19.6797 11.5528 20.127 12.0001 20.6797 12.0001H22.0196C22.5723 12.0001 23.0196 11.5528 23.0196 11C23.0195 10.4472 22.5723 10 22.0196 10Z" fill="#ABABAB"></path><path d="M39.9622 28.7256L36.0403 15L39.9622 1.27444C40.0481 0.972657 39.9876 0.648469 39.799 0.3975C39.6097 0.147469 39.3138 0 39.0003 0H9.00023C8.55397 0 8.16135 0.295875 8.03835 0.725625L4.03831 14.7256C3.9875 14.9053 3.9875 15.0948 4.03831 15.2744L7.96016 29L4.03831 42.7257C3.95234 43.0274 4.0129 43.3516 4.20144 43.6026C4.3909 43.8526 4.68678 44.0001 5.00028 44.0001H35.0003C35.4466 44.0001 35.8392 43.7042 35.9622 43.2745L39.9622 29.2744C40.013 29.0948 40.013 28.9053 39.9622 28.7256ZM9.75416 1.99997H37.6742L34.2457 14H6.32591L9.75416 1.99997ZM6.326 16H34.2456L37.6745 28.0001H9.75482L6.326 16ZM34.2464 42H6.32638L9.75482 30H37.6746L34.2464 42Z" fill="#ABABAB"></path><path d="M13 20H29.0001C29.5528 20 30.0001 19.5527 30.0001 18.9999C30.0001 18.4472 29.5527 18 29 18H13C12.4473 18 12 18.4473 12 19C12 19.5528 12.4473 20 13 20Z" fill="#ABABAB"></path><path d="M25.0001 24H15C14.4473 24 14 24.4473 14 25C14 25.5528 14.4473 26.0001 15 26.0001H25.0001C25.5528 26.0001 26.0001 25.5528 26.0001 25C26.0001 24.4473 25.5527 24 25.0001 24Z" fill="#ABABAB"></path></g><defs><clipPath id="clip0_1328_2723"><rect width="44" height="44" fill="white"></rect></clipPath></defs></svg>