<svg xmlns="http://www.w3.org/2000/svg" width="44" height="44" viewBox="0 0 44 44" fill="none"><g clip-path="url(#clip0_1328_5997)"><path d="M40.3334 14.6679H39.8242L33.5264 3.67024C33.0394 2.81988 32.2534 2.21119 31.3099 1.95871C30.9588 1.86538 30.6022 1.82335 30.2493 1.83521C29.6576 1.85506 29.0763 2.02281 28.5492 2.32841L1.81727 17.8905C0.648694 18.5713 -0.00572014 19.812 3.76755e-05 21.0843C0.00287361 21.6988 0.161084 22.3216 0.487045 22.8907L5.50004 31.6456V38.5002C5.50004 40.5223 7.14539 42.1667 9.16673 42.1667H40.3334C42.3548 42.1667 44.0001 40.5224 44.0001 38.5002V18.3344C44 16.3123 42.3548 14.6679 40.3334 14.6679ZM5.50004 18.3333V27.9571L2.07689 21.9784C1.57562 21.1021 1.87279 19.9786 2.7411 19.4737L5.55005 17.8384C5.52771 18.0019 5.50004 18.1639 5.50004 18.3333ZM29.4731 3.91284C29.8884 3.66938 30.3718 3.60398 30.8355 3.72936C31.3028 3.85466 31.6931 4.15724 31.9366 4.58152L37.7125 14.6679H10.9983L29.4731 3.91284ZM42.1667 38.4999C42.1667 39.5106 41.3449 40.3332 40.3334 40.3332H9.16673C8.15516 40.3332 7.33343 39.5106 7.33343 38.4999V18.3333C7.33343 17.3227 8.15525 16.5 9.16673 16.5H40.3334C41.345 16.5 42.1667 17.3227 42.1667 18.3333V38.4999Z" fill="#ABABAB"></path><path d="M39.4167 31.1665H28.4167C27.91 31.1665 27.5 31.5765 27.5 32.0832C27.5 32.5899 27.91 32.9999 28.4167 32.9999H39.4167C39.9234 32.9999 40.3334 32.5899 40.3334 32.0832C40.3334 31.5765 39.9234 31.1665 39.4167 31.1665Z" fill="#ABABAB"></path><path d="M39.4154 25.6665H24.7487C24.242 25.6665 23.832 26.0765 23.832 26.5832C23.832 27.0899 24.242 27.4999 24.7487 27.4999H39.4154C39.9221 27.4999 40.3321 27.0899 40.3321 26.5832C40.3321 26.0765 39.9221 25.6665 39.4154 25.6665Z" fill="#ABABAB"></path><path d="M16.4987 29.3334C18.5201 29.3334 20.1654 27.689 20.1654 25.6667C20.1654 23.6444 18.5201 22 16.4987 22C14.4774 22 12.832 23.6444 12.832 25.6667C12.832 27.689 14.4775 29.3334 16.4987 29.3334ZM16.4987 23.8334C17.5103 23.8334 18.332 24.6561 18.332 25.6667C18.332 26.6773 17.5102 27.5 16.4987 27.5C15.4872 27.5 14.6654 26.6773 14.6654 25.6667C14.6654 24.656 15.4872 23.8334 16.4987 23.8334Z" fill="#ABABAB"></path><path d="M21.9781 31.6009C20.6961 30.9849 18.707 30.25 16.5013 30.25C14.2955 30.25 12.3064 30.9849 11.0246 31.6009C9.87876 32.1523 9.16797 33.2525 9.16797 34.4717V34.8906C9.16797 35.87 9.98979 36.6667 11.0013 36.6667H22.0013C23.0129 36.6667 23.8346 35.87 23.8346 34.8906V34.4717C23.8347 33.2525 23.1239 32.1523 21.9781 31.6009ZM22.0013 34.8334L11.0013 34.8906V34.4717C11.0013 33.9632 11.3146 33.4959 11.8195 33.2533C12.9295 32.7198 14.6411 32.0833 16.5013 32.0833C18.3615 32.0833 20.0731 32.7198 21.1831 33.2533C21.688 33.4959 22.0013 33.9632 22.0013 34.4717V34.8334Z" fill="#ABABAB"></path></g><defs><clipPath id="clip0_1328_5997"><rect width="44" height="44" fill="white"></rect></clipPath></defs></svg>