<svg xmlns="http://www.w3.org/2000/svg" width="44" height="44" viewBox="0 0 44 44" fill="none"><g clip-path="url(#clip0_1338_8620)"><path d="M0.664789 7.29794C0.767744 7.32725 1.80099 7.61257 3.85708 7.95134L8.33219 17.7959C8.48078 18.1226 8.80666 18.333 9.16648 18.333C9.52631 18.333 9.85219 18.1226 10.0008 17.7959L14.0142 8.96671C14.8911 9.01217 15.8005 9.05308 16.7711 9.08419L21.154 19.6024C21.2964 19.9435 21.6303 20.1665 22 20.1665C22.3697 20.1665 22.7037 19.9435 22.846 19.6024L27.229 9.08419C28.1996 9.05308 29.109 9.01208 29.9858 8.96671L33.9993 17.7959C34.1479 18.1226 34.4737 18.333 34.8336 18.333C35.1934 18.333 35.5193 18.1226 35.6679 17.7959L40.1431 7.95134C42.1991 7.61265 43.2324 7.32725 43.3353 7.29794C43.8224 7.15829 44.1035 6.65159 43.9647 6.16552C43.8259 5.67945 43.3175 5.40101 42.8331 5.53439C42.7695 5.55226 36.3232 7.33283 22 7.33283C7.67682 7.33283 1.23053 5.55226 1.16693 5.53439C0.682665 5.39835 0.173218 5.67765 0.0353716 6.16552C-0.103248 6.65159 0.177773 7.15829 0.664789 7.29794ZM37.9849 8.26897L34.8337 15.2007L31.9469 8.8506C34.3559 8.68775 36.369 8.48055 37.9849 8.26897ZM22.0001 9.16617C23.1284 9.16617 24.1911 9.15242 25.2229 9.13274L22.0001 16.8666L18.7773 9.13274C19.8091 9.15242 20.8718 9.16617 22.0001 9.16617ZM12.0533 8.8506L9.16648 15.2007L6.01527 8.26897C7.6311 8.48055 9.64422 8.68758 12.0533 8.8506Z" fill="#ABABAB"></path><path d="M42.8331 23.8681C42.7695 23.886 36.3233 25.6666 22.0001 25.6666C7.67688 25.6666 1.23059 23.886 1.167 23.8681C0.682732 23.7293 0.173286 24.0114 0.0354394 24.4993C-0.103352 24.9853 0.177754 25.492 0.664771 25.6317C0.767726 25.661 1.80097 25.9463 3.85706 26.2851L8.33216 36.1296C8.48075 36.4564 8.80663 36.6667 9.16646 36.6667C9.52628 36.6667 9.85216 36.4564 10.0008 36.1296L14.0142 27.3004C14.8911 27.3459 15.8004 27.3868 16.771 27.4179L21.154 37.9361C21.2963 38.2772 21.6303 38.5002 22 38.5002C22.3697 38.5002 22.7037 38.2772 22.846 37.9361L27.2289 27.4179C28.1995 27.3868 29.1089 27.3458 29.9858 27.3004L33.9992 36.1296C34.1478 36.4564 34.4737 36.6667 34.8335 36.6667C35.1933 36.6667 35.5192 36.4564 35.6678 36.1296L40.1429 26.2851C42.1989 25.9464 43.2322 25.661 43.3352 25.6317C43.8222 25.492 44.1033 24.9853 43.9645 24.4993C43.8259 24.0122 43.3175 23.7311 42.8331 23.8681ZM9.16654 33.5344L6.01533 26.6027C7.63116 26.8143 9.64428 27.0213 12.0533 27.1843L9.16654 33.5344ZM22.0002 35.2005L18.7774 27.4665C19.8091 27.4862 20.8719 27.4999 22.0002 27.4999C23.1284 27.4999 24.1912 27.4862 25.223 27.4665L22.0002 35.2005ZM34.8337 33.5344L31.9469 27.1843C34.356 27.0214 36.3691 26.8143 37.9849 26.6027L34.8337 33.5344Z" fill="#ABABAB"></path></g><defs><clipPath id="clip0_1338_8620"><rect width="44" height="44" fill="white"></rect></clipPath></defs></svg>