<svg xmlns="http://www.w3.org/2000/svg" width="44" height="44" viewBox="0 0 44 44" fill="none"><g clip-path="url(#clip0_1338_8625)"><path d="M43.9998 17C43.9995 16.6908 43.8572 16.3991 43.6123 16.2099C43.6123 16.2099 41.1692 14.3149 38 11.8278V7.99997C38 5.79394 36.2061 3.99994 34 3.99994H28.1757C26.7508 2.83622 25.5143 1.80741 24.6884 1.07513C23.894 0.372375 22.947 9.37677e-05 22.0004 1.76754e-08C21.053 -9.37324e-05 20.1058 0.37275 19.3125 1.07522C18.4867 1.8075 17.2503 2.83631 15.8244 4.00003H10C7.79391 4.00003 6 5.79394 6 7.99997V11.8279C2.83181 14.3148 0.388688 16.209 0.387657 16.2099C0.142781 16.3991 0.00046875 16.6908 0.0001875 17H0V40C0 42.206 1.79391 44 4.00003 44H40.0001C42.2061 44 44.0001 42.2061 44.0001 40V17H43.9998ZM38 14.3693C39.399 15.4644 40.5867 16.3901 41.3692 16.999C40.5878 17.6055 39.3984 18.5306 38 19.624V14.3693ZM20.6387 2.57222C21.4961 1.81247 22.5029 1.81144 23.3623 2.57316C23.8124 2.97122 24.38 3.45497 25.032 3.99994H18.9688C19.621 3.45497 20.1886 2.97085 20.6387 2.57222ZM7.99997 7.99997C7.99997 6.89747 8.89744 6 9.99994 6H34C35.1026 6 36 6.89747 36 7.99997V21.1912C31.5235 24.7068 25.9085 29.1726 23.3623 31.4268C23.1211 31.6406 22.6181 32.0001 21.9687 32.0001C21.4941 32.0001 21.0361 31.8077 20.6065 31.4268C18.0446 29.1585 12.4576 24.7072 7.99997 21.2V7.99997ZM6 14.3695V19.63C4.60116 18.5344 3.41203 17.6075 2.63081 17.0001C3.4126 16.391 4.60032 15.4654 6 14.3695ZM42 40.0001C42 41.1026 41.1026 42 40.0001 42H4.00003C2.89753 42 2.00006 41.1026 2.00006 40.0001V19.0418C6.171 22.2883 15.8208 29.8601 19.2804 32.9248C20.0753 33.628 21.005 34.0001 21.9688 34.0001C22.9395 34.0001 23.9053 33.6182 24.6885 32.9248C28.2838 29.7411 38.1251 22.0528 42 19.0411V40.0001Z" fill="#ABABAB"></path><path d="M25 24.0001C28.3086 24.0001 31 21.3087 31 18.0001C31 14.6914 28.3086 12.0001 25 12.0001C24.5127 12.0001 24.0455 12.0744 23.5917 12.1845C22.4902 10.8614 20.8523 10 19 10C15.6914 10 13 12.6914 13 16C13 19.3086 15.6914 22 19 22C19.4873 22 19.9545 21.9257 20.4083 21.8156C21.5097 23.1387 23.1477 24.0001 25 24.0001ZM25 16.0001C25 15.3087 24.8587 14.6548 24.6427 14.0362C24.7623 14.0254 24.8778 14.0001 25 14.0001C27.206 14.0001 29 15.794 29 18.0002C29 20.2063 27.2061 22.0002 25 22.0002C23.9801 22.0002 23.0584 21.6051 22.3513 20.9748C23.9482 19.8954 25 18.0684 25 16.0001ZM22.7607 14.6874C22.9054 15.1008 22.9999 15.5379 22.9999 16C22.9999 17.3768 22.3008 18.5928 21.2392 19.3127C21.0945 18.8993 21 18.4623 21 18.0001C21 16.6233 21.6991 15.4073 22.7607 14.6874ZM19 18.0001C19 18.6915 19.1413 19.3454 19.3573 19.9639C19.2377 19.9748 19.1223 20 19 20C16.794 20 15 18.2061 15 16C15 13.7939 16.7939 12.0001 19 12.0001C20.0199 12.0001 20.9416 12.3951 21.6487 13.0255C20.0517 14.1047 19 15.9317 19 18.0001Z" fill="#ABABAB"></path></g><defs><clipPath id="clip0_1338_8625"><rect width="44" height="44" fill="white"></rect></clipPath></defs></svg>