<svg xmlns="http://www.w3.org/2000/svg" width="44" height="44" viewBox="0 0 44 44" fill="none"><g clip-path="url(#clip0_1328_2462)"><path d="M41.6738 10.1881L22.4239 0.104737C22.1571 -0.0349122 21.8402 -0.0349122 21.5734 0.104737L2.32351 10.1881C2.02092 10.3465 1.83203 10.6589 1.83203 11V33.0001C1.83203 33.3412 2.02092 33.6535 2.32351 33.812L21.5734 43.8954C21.7068 43.9652 21.8527 44.0001 21.9986 44.0001C22.1446 44.0001 22.2905 43.9652 22.4239 43.8954L41.6738 33.812C41.9764 33.6535 42.1653 33.3412 42.1653 33.0001V11C42.1653 10.6589 41.9764 10.3465 41.6738 10.1881ZM21.9986 1.95145L39.2729 11L32.0719 14.772L14.3865 5.93888L21.9986 1.95145ZM21.082 41.5684L3.66541 32.4451V12.5149L21.082 21.6379V41.5684H21.082ZM21.9986 20.0486L4.72442 11L12.3836 6.98801L30.0693 15.821L21.9986 20.0486ZM40.3319 32.4451L22.9153 41.5684V21.6378L31.1653 17.3164V28.4168C31.1653 28.9234 31.5753 29.3335 32.082 29.3335C32.5887 29.3335 32.9987 28.9234 32.9987 28.4168V16.3562L40.332 12.5149V32.4451H40.3319Z" fill="#ABABAB"></path></g><defs><clipPath id="clip0_1328_2462"><rect width="44" height="44" fill="white"></rect></clipPath></defs></svg>