<svg xmlns="http://www.w3.org/2000/svg" width="44" height="44" viewBox="0 0 44 44" fill="none"><path d="M24.2921 16.5L20.0893 23.8557L17.875 20.1664L12.375 29.3329H16.9592H23.375H31.625L24.2921 16.5ZM18.0066 27.5H15.6138L17.875 23.7295L19.0459 25.6805L18.0066 27.5ZM20.1175 27.5L24.2921 20.1946L28.4655 27.5H20.1175Z" fill="#ABABAB"></path><path d="M35.7508 7.33288H33.918V5.5H32.0851V0H30.2508V5.5H28.418V7.33288H15.5851V5.5H13.7508V0H11.918V5.5H10.0851V7.33288H8.25084H6.41797V9.16644V42.1658V44H8.25084H35.7508H37.5851V42.1658V9.16644V7.33288H35.7508ZM30.2508 7.33288H32.0851V9.16644H30.2508V7.33288ZM11.918 7.33288H13.7508V9.16644H11.918V7.33288ZM35.7508 42.1658H8.25084V9.16644H10.0851V11H15.5851V9.16644H28.418V11H33.918V9.16644H35.7508V42.1658V42.1658Z" fill="#ABABAB"></path><path d="M25.668 36.6658H18.3351C17.8288 36.6658 17.418 37.0766 17.418 37.5829C17.418 38.0892 17.8288 38.5 18.3351 38.5H25.668C26.1742 38.5 26.5851 38.0892 26.5851 37.5829C26.5851 37.0766 26.1742 36.6658 25.668 36.6658Z" fill="#ABABAB"></path><path d="M29.3343 33H14.6671C14.1609 33 13.75 33.4109 13.75 33.9158C13.75 34.4233 14.1609 34.8329 14.6671 34.8329H29.3343C29.8405 34.8329 30.25 34.4233 30.25 33.9158C30.25 33.4109 29.8405 33 29.3343 33Z" fill="#ABABAB"></path></svg>