<svg xmlns="http://www.w3.org/2000/svg" width="44" height="44" viewBox="0 0 44 44" fill="none"><g clip-path="url(#clip0_1338_8630)"><path d="M43.5142 30.0136L38.6566 27.5849C38.2201 27.3666 37.6938 27.5444 37.4756 27.9773C37.2574 28.4138 37.4351 28.9401 37.8699 29.1583L41.1523 30.8004L22 40.3765L2.84771 30.8004L6.13009 29.1583C6.56485 28.9401 6.74257 28.4138 6.52437 27.9773C6.30609 27.5444 5.77809 27.3666 5.34342 27.5849L0.485719 30.0136C0.188289 30.1632 0 30.4677 0 30.8004C0 31.1331 0.188289 31.4375 0.485719 31.5871L21.6057 42.1471C21.7307 42.2088 21.8645 42.2404 22 42.2404C22.1355 42.2404 22.2692 42.2087 22.3943 42.1471L43.5143 31.5871C43.8117 31.4375 44 31.1331 44 30.8004C44 30.4677 43.8117 30.1632 43.5142 30.0136Z" fill="#ABABAB"></path><path d="M43.5142 21.2137L38.6566 18.7849C38.2201 18.5666 37.6938 18.7426 37.4756 19.1774C37.2574 19.6139 37.4351 20.1401 37.8699 20.3583L41.1523 22.0004L22 31.5765L2.84771 22.0004L6.13009 20.3583C6.56485 20.1401 6.74257 19.6139 6.52437 19.1774C6.30609 18.7426 5.77809 18.5666 5.34342 18.7849L0.485719 21.2137C0.188289 21.3633 0 21.6678 0 22.0004C0 22.3331 0.188289 22.6376 0.485719 22.7872L21.6057 33.3472C21.7307 33.4088 21.8645 33.4404 22 33.4404C22.1355 33.4404 22.2692 33.4087 22.3943 33.3472L43.5143 22.7872C43.8117 22.6376 44 22.3331 44 22.0004C44 21.6678 43.8117 21.3633 43.5142 21.2137Z" fill="#ABABAB"></path><path d="M0.485719 13.987L21.6057 24.547C21.7307 24.6086 21.8645 24.6402 22 24.6402C22.1355 24.6402 22.2692 24.6085 22.3943 24.547L43.5143 13.987C43.8117 13.8374 44.0001 13.5329 44.0001 13.2002C44.0001 12.8676 43.8118 12.5631 43.5144 12.4135L22.3944 1.85348C22.1462 1.72853 21.8541 1.72853 21.6059 1.85348L0.485805 12.4136C0.188289 12.5632 0 12.8677 0 13.2003C0 13.533 0.188289 13.8374 0.485719 13.987ZM22 3.62414L41.1523 13.2003L22 22.7764L2.84771 13.2003L22 3.62414Z" fill="#ABABAB"></path></g><defs><clipPath id="clip0_1338_8630"><rect width="44" height="44" fill="white"></rect></clipPath></defs></svg>