<svg xmlns="http://www.w3.org/2000/svg" width="64" height="64" viewBox="0 0 64 64" fill="none"><path d="M0.644606 26.6549L11.7596 29.4999V62.9999C11.7596 63.2651 11.865 63.5195 12.0525 63.707C12.24 63.8945 12.4944 63.9999 12.7596 63.9999H51.2596C51.5248 63.9999 51.7792 63.8945 51.9667 63.707C52.1543 63.5195 52.2596 63.2651 52.2596 62.9999V29.4999L63.3746 26.6399C63.5784 26.5334 63.7447 26.3671 63.851 26.1633C63.9574 25.9595 63.9988 25.7279 63.9696 25.4999L60.2696 12.3649C60.2696 12.3649 60.2696 12.3149 60.2446 12.2899C59.4289 10.0268 58.1106 7.97812 56.3889 6.298C54.6672 4.61788 52.587 3.35005 50.3046 2.58989C47.3046 1.58989 44.5446 0.729893 42.0896 0.0398933C41.9442 -0.0017507 41.7913 -0.00988814 41.6424 0.0160932C41.4934 0.0420745 41.3523 0.101498 41.2296 0.189893C39.0996 1.72489 35.6496 2.64489 31.9996 2.64489C28.3496 2.64489 24.8996 1.72489 22.7696 0.189893C22.6469 0.101498 22.5058 0.0420745 22.3568 0.0160932C22.2079 -0.00988814 22.055 -0.0017507 21.9096 0.0398933C19.4546 0.729893 16.6896 1.58489 13.6946 2.58989C11.4148 3.34747 9.33622 4.61148 7.61471 6.28709C5.89319 7.96271 4.57349 10.0064 3.75461 12.2649C3.75461 12.2649 3.75461 12.3149 3.75461 12.3399L0.0396057 25.4499C-0.00667084 25.6894 0.0275772 25.9374 0.137011 26.1554C0.246446 26.3733 0.424917 26.549 0.644606 26.6549ZM5.64461 12.9199C6.36586 10.9536 7.52136 9.1754 9.02507 7.71758C10.5288 6.25975 12.3419 5.1599 14.3296 4.49989C17.1146 3.55489 19.6946 2.74989 21.9996 2.08989C24.4996 3.71989 28.0996 4.64489 31.9996 4.64489C35.8996 4.64489 39.4996 3.71989 41.9996 2.08989C44.3046 2.74989 46.8846 3.55489 49.6696 4.49989C51.6588 5.16145 53.473 6.2636 54.9768 7.72412C56.4806 9.18465 57.6352 10.9659 58.3546 12.9349L61.7596 24.9999L52.2596 27.4399V14.2199C52.2596 13.9547 52.1543 13.7003 51.9667 13.5128C51.7792 13.3253 51.5248 13.2199 51.2596 13.2199C50.9944 13.2199 50.74 13.3253 50.5525 13.5128C50.365 13.7003 50.2596 13.9547 50.2596 14.2199V61.9999H13.7596V14.2199C13.7596 13.9547 13.6542 13.7003 13.4667 13.5128C13.2792 13.3253 13.0248 13.2199 12.7596 13.2199C12.4944 13.2199 12.24 13.3253 12.0525 13.5128C11.865 13.7003 11.7596 13.9547 11.7596 14.2199V27.4499L2.23961 24.9999L5.64461 12.9199Z" fill="black"></path></svg>