<svg xmlns="http://www.w3.org/2000/svg" width="64" height="64" viewBox="0 0 64 64" fill="none"><path d="M4.43544 47.9701C4.52186 48.5046 4.71408 49.0165 5.00084 49.4759C5.2876 49.9352 5.66313 50.3327 6.10544 50.6451V54.4601C6.10544 54.7253 6.2108 54.9796 6.39834 55.1672C6.58587 55.3547 6.84023 55.4601 7.10544 55.4601H12.6354C12.7343 56.1134 12.9669 56.7392 13.3188 57.2985C13.6707 57.8577 14.1342 58.3383 14.6804 58.7101V63.0001C14.6804 63.2653 14.7858 63.5196 14.9733 63.7072C15.1609 63.8947 15.4152 64.0001 15.6804 64.0001H48.3204C48.5857 64.0001 48.84 63.8947 49.0276 63.7072C49.2151 63.5196 49.3204 63.2653 49.3204 63.0001V58.7101C49.8666 58.3383 50.3302 57.8577 50.6821 57.2985C51.034 56.7392 51.2666 56.1134 51.3654 55.4601H56.8954C57.1607 55.4601 57.415 55.3547 57.6026 55.1672C57.7901 54.9796 57.8954 54.7253 57.8954 54.4601V50.6451C58.3378 50.3327 58.7133 49.9352 59.0001 49.4759C59.2868 49.0165 59.479 48.5046 59.5654 47.9701L62.6704 29.0001C62.701 28.8143 62.6785 28.6236 62.6054 28.4501C61.1904 25.0651 53.8954 8.10506 49.5454 6.65006C46.9704 5.79006 44.5804 5.04506 42.4054 4.41506V1.00006C42.4027 0.827248 42.3551 0.658109 42.2675 0.509138C42.1799 0.360168 42.0551 0.236452 41.9054 0.150058C41.7633 0.0642778 41.602 0.0152472 41.4361 0.0073909C41.2703 -0.000465353 41.1051 0.0331001 40.9554 0.105058C40.9054 0.130058 36.1454 2.50006 32.0804 2.50006C28.0154 2.50006 23.0854 0.125058 23.0354 0.100058C22.883 0.0264266 22.7144 -0.00731159 22.5454 0.00200403C22.3764 0.0113197 22.2125 0.0633842 22.0691 0.15332C21.9257 0.243256 21.8075 0.368121 21.7255 0.516216C21.6436 0.664311 21.6005 0.83079 21.6004 1.00006V4.42506C19.4254 5.05006 17.0354 5.80006 14.4554 6.66006C10.1054 8.11506 2.81544 25.0751 1.39544 28.4601C1.3243 28.6306 1.3018 28.8175 1.33044 29.0001L4.43544 47.9701ZM8.10544 51.3751C8.22544 51.3751 12.5754 51.3751 12.5754 51.3751V53.4401H8.10544V51.3751ZM47.3204 59.5301V62.0001H16.6804V59.5301H47.3204ZM55.8954 53.4601H51.4254V51.3951C51.4254 51.3951 55.7754 51.3951 55.8954 51.3951V53.4601ZM32.0804 4.50006C35.1954 4.50006 38.5454 3.30506 40.4004 2.54006V4.64506C38.3504 5.94506 35.2554 6.71006 32.0004 6.71006C28.7454 6.71006 25.6504 5.94506 23.6004 4.64506V2.52506C25.5004 3.28506 28.9404 4.50006 32.0804 4.50006ZM15.0804 8.58006C17.7354 7.69506 20.2004 6.92506 22.4104 6.29506C24.8054 7.85006 28.2604 8.73506 31.9904 8.73506C35.7204 8.73506 39.1754 7.85006 41.5704 6.29506C43.7804 6.92506 46.2454 7.69506 48.8954 8.58006C51.5804 9.45006 57.5004 21.4351 60.6504 28.9701L57.5904 47.6451C57.5129 48.1339 57.2632 48.5789 56.8864 48.8999C56.5095 49.2208 56.0304 49.3964 55.5354 49.3951H51.4254V17.8351C51.4254 17.5698 51.3201 17.3155 51.1326 17.128C50.945 16.9404 50.6907 16.8351 50.4254 16.8351C50.1602 16.8351 49.9059 16.9404 49.7183 17.128C49.5308 17.3155 49.4254 17.5698 49.4254 17.8351V54.7451C49.4241 55.4833 49.1303 56.1909 48.6083 56.7129C48.0863 57.2349 47.3787 57.5287 46.6404 57.5301H17.3604C16.6222 57.5287 15.9146 57.2349 15.3926 56.7129C14.8706 56.1909 14.5768 55.4833 14.5754 54.7451V17.8351C14.5754 17.5698 14.4701 17.3155 14.2826 17.128C14.095 16.9404 13.8407 16.8351 13.5754 16.8351C13.3102 16.8351 13.0559 16.9404 12.8683 17.128C12.6808 17.3155 12.5754 17.5698 12.5754 17.8351V49.3951H8.46545C7.97049 49.3964 7.49135 49.2208 7.11452 48.8999C6.73768 48.5789 6.48797 48.1339 6.41044 47.6451L3.35044 28.9701C6.52544 21.4351 12.4204 9.45006 15.0904 8.55506L15.0804 8.58006Z" fill="black"></path></svg>