<svg xmlns="http://www.w3.org/2000/svg" width="64" height="64" viewBox="0 0 64 64" fill="none"><g clip-path="url(#clip0_133_3996)"><path d="M8.185 27.9151C8.05092 28.0069 7.94123 28.13 7.86543 28.2737C7.78963 28.4175 7.75001 28.5775 7.75 28.7401V63.0001C7.75 63.2653 7.85536 63.5196 8.04289 63.7072C8.23043 63.8947 8.48478 64.0001 8.75 64.0001H55.41C55.6752 64.0001 55.9296 63.8947 56.1171 63.7072C56.3046 63.5196 56.41 63.2653 56.41 63.0001V28.7401C56.41 28.5775 56.3704 28.4175 56.2946 28.2737C56.2188 28.13 56.1091 28.0069 55.975 27.9151C44.765 20.2501 47.375 1.33506 47.4 1.14506C47.421 1.00211 47.4107 0.856322 47.3699 0.717724C47.3291 0.579126 47.2588 0.45101 47.1638 0.342194C47.0687 0.233379 46.9512 0.146448 46.8194 0.0873842C46.6875 0.0283209 46.5445 -0.00147209 46.4 5.59397e-05H40.035C39.8041 0.0315472 39.5835 0.115344 39.39 0.245056C39.1936 0.463365 39.0711 0.738074 39.04 1.03006C39.04 1.18506 39.47 16.2051 34.875 20.9501C34.5138 21.3563 34.0711 21.682 33.5758 21.9059C33.0805 22.1299 32.5436 22.2471 32 22.2501C31.4596 22.2481 30.9258 22.1317 30.4337 21.9085C29.9416 21.6853 29.5024 21.3603 29.145 20.9551C24.585 16.2151 25.145 1.19006 25.145 1.04006C25.1504 0.905407 25.1285 0.771058 25.0807 0.645077C25.0328 0.519097 24.96 0.404084 24.8666 0.306947C24.7732 0.20981 24.6612 0.132553 24.5372 0.0798151C24.4131 0.0270776 24.2798 -5.19105e-05 24.145 5.59397e-05H17.75C17.6076 0.000859284 17.4671 0.0320526 17.3377 0.0915496C17.2084 0.151047 17.0932 0.237476 17 0.345056C16.9056 0.453643 16.8357 0.581329 16.7951 0.719395C16.7546 0.85746 16.7443 1.00265 16.765 1.14506C16.79 1.33506 19.415 20.2401 8.185 27.9151ZM18.875 2.00006H23.1C23.06 5.65006 23.265 17.7251 27.7 22.3401C28.2442 22.9417 28.9085 23.4226 29.65 23.7517C30.3915 24.0808 31.1937 24.2508 32.005 24.2508C32.8163 24.2508 33.6185 24.0808 34.36 23.7517C35.1015 23.4226 35.7658 22.9417 36.31 22.3401C40.785 17.7251 41.07 5.63506 41.055 2.00006H45.29C44.865 6.36506 44.165 21.8151 54.41 29.2601V62.0001H9.75V29.2601C20 21.8151 19.3 6.36506 18.875 2.00006Z" fill="black"></path></g><defs><clipPath id="clip0_133_3996"><rect width="64" height="64" fill="white"></rect></clipPath></defs></svg>