<svg xmlns="http://www.w3.org/2000/svg" width="64" height="64" viewBox="0 0 64 64" fill="none"><path d="M4.35044 47.435C4.54117 48.6077 5.16805 49.665 6.10544 50.395V54.46C6.10544 54.7252 6.2108 54.9796 6.39834 55.1671C6.58587 55.3546 6.84023 55.46 7.10544 55.46H12.6354C12.7343 56.1133 12.9669 56.7392 13.3188 57.2984C13.6707 57.8576 14.1342 58.3382 14.6804 58.71V63C14.6804 63.2652 14.7858 63.5196 14.9733 63.7071C15.1609 63.8946 15.4152 64 15.6804 64H48.3204C48.5857 64 48.84 63.8946 49.0276 63.7071C49.2151 63.5196 49.3204 63.2652 49.3204 63V58.71C49.8666 58.3382 50.3302 57.8576 50.6821 57.2984C51.034 56.7392 51.2666 56.1133 51.3654 55.46H56.8954C57.1607 55.46 57.415 55.3546 57.6026 55.1671C57.7901 54.9796 57.8954 54.7252 57.8954 54.46V50.395C58.8328 49.665 59.4597 48.6077 59.6504 47.435L62.6504 29.01C62.681 28.8242 62.6585 28.6336 62.5854 28.46C61.2454 25.26 54.6504 9.925 50.2554 7.04C50.3629 5.30535 49.8291 3.5917 48.7554 2.225C47.6483 0.991825 46.1119 0.228113 44.4604 0.09C44.4054 0.08 43.5004 0 43.0854 0C42.9098 0.000311669 42.7374 0.0468732 42.5854 0.135C39.3216 1.86786 35.6951 2.8066 32.0004 2.875C28.3085 2.79821 24.6856 1.85994 21.4204 0.135C21.2685 0.0468732 21.0961 0.000311669 20.9204 0C20.5004 0 19.5954 0.08 19.5404 0.09C17.873 0.216892 16.3186 0.98155 15.2004 2.225C14.1357 3.59522 13.6109 5.30853 13.7254 7.04C9.33044 9.925 2.72544 25.26 1.39544 28.46C1.3243 28.6305 1.3018 28.8175 1.33044 29L4.35044 47.435ZM8.10544 51.305C8.39544 51.36 12.5754 51.395 12.5754 51.395V53.46H8.10544V51.305ZM47.3204 59.53V62H16.6804V59.53H47.3204ZM55.8954 53.46H51.4254V51.395C51.4254 51.395 55.6054 51.36 55.8954 51.305V53.46ZM47.2654 3.5C48.0007 4.48382 48.3558 5.70012 48.2654 6.925L35.6754 12.525L44.6754 2.135C45.6709 2.27588 46.5865 2.75842 47.2654 3.5ZM41.3154 2.945L32.0004 13.72L22.6854 2.945C25.6385 4.178 28.8006 4.83317 32.0004 4.875C35.2003 4.83317 38.3624 4.178 41.3154 2.945ZM16.7354 3.5C17.4179 2.75063 18.3414 2.26411 19.3454 2.125L28.3454 12.515L15.7204 6.935C15.631 5.70479 15.9917 4.484 16.7354 3.5ZM14.7804 8.705L31.5904 16.16C31.7116 16.2261 31.8474 16.2607 31.9854 16.2607C32.1235 16.2607 32.2593 16.2261 32.3804 16.16L49.2204 8.705C52.0104 10.335 57.5904 21.705 60.6504 28.97L57.6504 47.11C57.55 47.7426 57.2288 48.3192 56.7437 48.7375C56.2585 49.1558 55.641 49.3887 55.0004 49.395H51.4354V17.835C51.4354 17.5698 51.3301 17.3154 51.1426 17.1279C50.955 16.9404 50.7007 16.835 50.4354 16.835C50.1702 16.835 49.9159 16.9404 49.7283 17.1279C49.5408 17.3154 49.4354 17.5698 49.4354 17.835V54.745C49.4341 55.4832 49.1403 56.1908 48.6183 56.7128C48.0963 57.2348 47.3887 57.5287 46.6504 57.53H17.3604C16.6222 57.5287 15.9146 57.2348 15.3926 56.7128C14.8706 56.1908 14.5768 55.4832 14.5754 54.745V17.835C14.5754 17.5698 14.4701 17.3154 14.2826 17.1279C14.095 16.9404 13.8407 16.835 13.5754 16.835C13.3102 16.835 13.0559 16.9404 12.8683 17.1279C12.6808 17.3154 12.5754 17.5698 12.5754 17.835V49.395H9.00044C8.3539 49.397 7.72794 49.1679 7.23556 48.7488C6.74318 48.3298 6.41684 47.7485 6.31544 47.11L3.35044 28.97C6.41044 21.715 12.0004 10.335 14.7804 8.705Z" fill="black"></path><path d="M17.835 55.46H46.165C46.4302 55.46 46.6845 55.3546 46.8721 55.1671C47.0596 54.9796 47.165 54.7252 47.165 54.46V46.165C47.165 45.8998 47.0596 45.6454 46.8721 45.4579C46.6845 45.2703 46.4302 45.165 46.165 45.165C43.85 45.165 41.225 40.715 40.49 39.165C40.4085 38.994 40.2803 38.8497 40.1201 38.7488C39.9599 38.6479 39.7743 38.5946 39.585 38.595H24.415C24.2223 38.594 24.0335 38.6487 23.8711 38.7524C23.7088 38.8562 23.5799 39.0047 23.5 39.18C22.815 40.73 20.295 45.18 17.835 45.18C17.5697 45.18 17.3154 45.2853 17.1279 45.4729C16.9403 45.6604 16.835 45.9148 16.835 46.18V54.475C16.8389 54.7376 16.946 54.9881 17.1331 55.1724C17.3202 55.3567 17.5723 55.46 17.835 55.46ZM18.835 47.045C21.95 46.29 24.25 42.205 25.05 40.585H38.965C39.795 42.18 42.17 46.25 45.165 47.035V53.46H18.835V47.045Z" fill="black"></path></svg>