<svg xmlns="http://www.w3.org/2000/svg" width="64" height="64" viewBox="0 0 64 64" fill="none"><g clip-path="url(#clip0_133_3991)"><path d="M3.6949 59.4449C3.72663 59.687 3.84584 59.9091 4.03005 60.0694C4.21426 60.2296 4.45074 60.317 4.6949 60.3149H11.7599V62.9999C11.7599 63.2651 11.8653 63.5195 12.0528 63.707C12.2403 63.8945 12.4947 63.9999 12.7599 63.9999H51.2599C51.5251 63.9999 51.7795 63.8945 51.967 63.707C52.1545 63.5195 52.2599 63.2651 52.2599 62.9999V60.3149H59.3349C59.5791 60.317 59.8155 60.2296 59.9997 60.0694C60.184 59.9091 60.3032 59.687 60.3349 59.4449L63.9999 32.1349C64.0198 31.9943 64.0096 31.8512 63.9699 31.7149L58.4699 13.0349C56.9999 8.31989 55.3699 4.27489 50.3199 2.58989C47.3199 1.58989 44.5599 0.729893 42.1049 0.0398933C41.9595 -0.0017507 41.8066 -0.00988814 41.6577 0.0160932C41.5087 0.0420745 41.3676 0.101498 41.2449 0.189893C39.0999 1.72489 35.6499 2.64489 31.9999 2.64489C28.3499 2.64489 24.8999 1.72489 22.7699 0.189893C22.6472 0.101498 22.5061 0.0420745 22.3571 0.0160932C22.2082 -0.00988814 22.0553 -0.0017507 21.9099 0.0398933C19.4549 0.729893 16.6899 1.58489 13.6949 2.58989C8.6449 4.27489 6.9999 8.31989 5.5399 13.0499L0.0398981 31.7149C0.000202458 31.8512 -0.0100242 31.9943 0.00989809 32.1349L3.6949 59.4449ZM7.4549 13.6299C9.0699 8.44989 10.4999 5.75989 14.3299 4.49989C17.1149 3.55489 19.6949 2.74989 21.9999 2.08989C24.4999 3.71989 28.0999 4.64489 31.9999 4.64489C35.8999 4.64489 39.4999 3.71989 41.9999 2.08989C44.3049 2.74989 46.8849 3.55489 49.6699 4.49989C53.4899 5.77489 54.9299 8.46489 56.5399 13.6299L61.9999 32.0799L58.4599 58.3149H52.2599V14.2199C52.2599 13.9547 52.1545 13.7003 51.967 13.5128C51.7795 13.3253 51.5251 13.2199 51.2599 13.2199C50.9947 13.2199 50.7403 13.3253 50.5528 13.5128C50.3653 13.7003 50.2599 13.9547 50.2599 14.2199V61.9999H13.7599V14.2199C13.7599 13.9547 13.6545 13.7003 13.467 13.5128C13.2795 13.3253 13.0251 13.2199 12.7599 13.2199C12.4947 13.2199 12.2403 13.3253 12.0528 13.5128C11.8653 13.7003 11.7599 13.9547 11.7599 14.2199V58.3149H5.5599L1.9999 32.0799L7.4549 13.6299Z" fill="black"></path></g><defs><clipPath id="clip0_133_3991"><rect width="64" height="64" fill="white"></rect></clipPath></defs></svg>