<svg id="Layer_3" data-name="Layer 3" xmlns="http://www.w3.org/2000/svg" viewBox="0 0 375.38 244.13"><defs><style>.cls-1{fill:#07090c;stroke:#231f20;stroke-miterlimit:10;stroke-width:0.25px;}.cls-2{fill:#fff;}</style></defs><polygon class="cls-1" points="154.76 100.94 375.25 122.56 375.21 211.92 50.3 244 13.55 207.48 13.6 105.22 0.14 79.83 26.1 0.16 172.1 47.74 154.76 100.94"/><path class="cls-2" d="M136.63,593.21A3.11,3.11,0,0,1,134,592.1a4,4,0,0,1-.54-3.11l6.08-37.64q.54-3.5,3.87-3.5l26.43,0q11.76,0,9.73,13l-1.43,9.07q-1,6.48-3.83,9.07t-8.77,2.59H150.06l-1.31,8.16c-.36,2.34-1.65,3.5-3.87,3.5Zm15.46-24h8.49a2.48,2.48,0,0,0,1.81-.51,3.75,3.75,0,0,0,.75-2l.59-3.5a2.43,2.43,0,0,0-.21-1.94,2.28,2.28,0,0,0-1.75-.52H153.4Z" transform="translate(-103.08 -406.51)"/><path class="cls-2" d="M219.4,547.89q11.76,0,9.73,13l-.95,6.09q-.84,5.31-2.86,8a9.08,9.08,0,0,1-5.82,3.36l4,10.44a3.52,3.52,0,0,1,.06,3.27,3,3,0,0,1-2.79,1.26h-8.08a4.12,4.12,0,0,1-4.1-3l-3.73-10.3H200l-1.61,9.85c-.36,2.34-1.65,3.5-3.87,3.5h-8.25a3.13,3.13,0,0,1-2.68-1.1A4.05,4.05,0,0,1,183,589l6.08-37.64c.36-2.34,1.65-3.5,3.86-3.5ZM203.11,560.2,201.86,568h8.5a2.64,2.64,0,0,0,1.84-.52,3.54,3.54,0,0,0,.77-2l.48-2.85a2.43,2.43,0,0,0-.21-1.94,2.24,2.24,0,0,0-1.75-.52Z" transform="translate(-103.08 -406.51)"/><path class="cls-2" d="M240.13,551.4q.52-3.49,3.86-3.49h8.49a3.16,3.16,0,0,1,2.68,1.1,4.07,4.07,0,0,1,.53,3.11l-6.08,37.65q-.54,3.5-3.86,3.5h-8.5a3.19,3.19,0,0,1-2.7-1.1,4,4,0,0,1-.56-3.11Z" transform="translate(-103.08 -406.51)"/><path class="cls-2" d="M262.38,593.28a3.14,3.14,0,0,1-2.68-1.11,4.05,4.05,0,0,1-.53-3.11l6.08-37.64q.54-3.49,3.86-3.5h7a4.73,4.73,0,0,1,4.28,2.53l11,18.93,2.92-18c.36-2.33,1.64-3.49,3.86-3.49h7.66a3.16,3.16,0,0,1,2.68,1.1,4.09,4.09,0,0,1,.53,3.12L303,589.8q-.54,3.5-3.86,3.5h-6.42a4.7,4.7,0,0,1-4.28-2.53l-11.51-19.7-3,18.72c-.36,2.34-1.64,3.5-3.86,3.5Z" transform="translate(-103.08 -406.51)"/><path class="cls-2" d="M318.71,562.85a3.13,3.13,0,0,1-2.68-1.1,4.06,4.06,0,0,1-.53-3.11l1.13-7.19c.36-2.34,1.65-3.5,3.87-3.5l33.2,0a3.13,3.13,0,0,1,2.67,1.1,4.06,4.06,0,0,1,.54,3.11l-1.14,7.19c-.35,2.34-1.64,3.5-3.86,3.5H342.7l-4.35,27c-.36,2.33-1.64,3.5-3.86,3.5h-8.26a3.19,3.19,0,0,1-2.7-1.1,4,4,0,0,1-.56-3.11l4.29-26.24Z" transform="translate(-103.08 -406.51)"/><path class="cls-2" d="M394.75,548q11.76,0,9.73,13l-1,6.09q-.84,5.31-2.86,8a9.08,9.08,0,0,1-5.82,3.36l4,10.44a3.55,3.55,0,0,1,.06,3.27,3,3,0,0,1-2.79,1.26h-8.08a4.12,4.12,0,0,1-4.1-3.05L380.23,580H375.3l-1.61,9.85q-.53,3.49-3.86,3.5h-8.25a3.13,3.13,0,0,1-2.68-1.1,4.05,4.05,0,0,1-.53-3.11l6.08-37.65c.36-2.33,1.64-3.5,3.86-3.49Zm-16.29,12.3-1.25,7.78h8.5a2.65,2.65,0,0,0,1.84-.51,3.66,3.66,0,0,0,.77-1.95l.48-2.85a2.42,2.42,0,0,0-.21-1.94,2.26,2.26,0,0,0-1.75-.52Z" transform="translate(-103.08 -406.51)"/><path class="cls-2" d="M421,593.37q-6.34,0-9.11-3.64t-1.63-10.63l3-18.14q1.14-7,4.37-10t9.6-3h19.6q6.36,0,9.12,3.63c1.83,2.43,2.38,6,1.62,10.63l-3,18.14q-1.12,7-4.37,10t-9.59,3Zm7.5-14.26h8.19a3.23,3.23,0,0,0,2.23-.62,3.74,3.74,0,0,0,.92-2.29l1.79-10.89a3.38,3.38,0,0,0-.26-2.37,2.46,2.46,0,0,0-2-.68h-8.2a3.3,3.3,0,0,0-2.23.61,3.84,3.84,0,0,0-.92,2.3l-1.79,10.89a3.28,3.28,0,0,0,.27,2.36A2.42,2.42,0,0,0,428.53,579.11Z" transform="translate(-103.08 -406.51)"/><path class="cls-2" d="M176.34,465.82q4.53,3,2.18,10.18l-1,3.08q-1.76,5.37-4.8,7.06c-2,1.13-4.67,1.17-7.91.11l-19.88-6.47q-4.86-1.59-6.32-4.76t.28-8.53l.8-2.46c.8-2.47,2.34-3.33,4.59-2.59l7.68,2.5q2.49.81,1.61,3.52l-.2.62a1.55,1.55,0,0,0,0,1.29,2.54,2.54,0,0,0,1.34.77l7.34,2.4a2.1,2.1,0,0,0,1.57.07,2.53,2.53,0,0,0,.88-1.46l.48-1.48a2.49,2.49,0,0,0,.15-1.69,2.13,2.13,0,0,0-1.31-.87l-4.18-1.36c-1.51-.49-2-1.55-1.45-3.2l1.52-4.68q.81-2.46,3.06-1.73l3.62,1.18a2.05,2.05,0,0,0,1.57.07,2.58,2.58,0,0,0,.88-1.45l.32-1a2.54,2.54,0,0,0,.14-1.69,2,2,0,0,0-1.31-.87l-6.21-2a2.4,2.4,0,0,0-1.54-.16,1.55,1.55,0,0,0-.75,1.05l0,.12q-.88,2.72-3.37,1.9l-7.68-2.5c-2.26-.74-3-2.34-2.18-4.81l.64-2q1.75-5.36,4.8-7.05c2-1.14,4.67-1.17,7.91-.12l18.75,6.11c3.24,1.06,5.35,2.64,6.32,4.76s.89,4.95-.28,8.52l-.84,2.59Q181.27,465.65,176.34,465.82Z" transform="translate(-103.08 -406.51)"/><path class="cls-2" d="M186,493.16q-3.39-1.11-2.19-4.8l11.65-35.74c.8-2.46,2.33-3.33,4.59-2.59l23.72,7.73q7.13,2.33,9.57,7.65t-.1,13.15l-3.62,11.09q-2.55,7.83-7.67,10.69t-12.23.55Zm15.71-9.88,9.26,3q3.16,1,4.29-2.42l3-9.12q1.13-3.45-2-4.48l-9.26-3Z" transform="translate(-103.08 -406.51)"/></svg>