<svg width="105" height="81" viewBox="0 0 105 81" fill="none" xmlns="http://www.w3.org/2000/svg">
<path opacity="0.15" d="M105 0V8.17714C93.6458 12.6 85.3646 18.0514 80.1562 24.5314C74.9479 31.0114 72.3438 37.3886 72.3438 43.6629C72.3438 48.0857 73.4896 50.2971 75.7812 50.2971C77.1354 50.2971 78.8542 49.68 80.9375 48.4457C83.125 47.1086 85.7812 46.44 88.9062 46.44C93.1771 46.44 96.9271 48.0857 100.156 51.3771C103.385 54.6686 105 58.7314 105 63.5657C105 69.2229 103.021 73.5429 99.0625 76.5257C95.2083 79.5086 90.9896 81 86.4062 81C78.5938 81 72.2917 78.1714 67.5 72.5143C62.8125 66.7543 60.4688 59.3486 60.4688 50.2971C60.4688 26.7429 75.3125 9.97714 105 0ZM44.5312 0V8.17714C32.9688 12.7029 24.6354 18.2057 19.5312 24.6857C14.4271 31.1657 11.875 37.4914 11.875 43.6629C11.875 48.0857 13.0208 50.2971 15.3125 50.2971C16.6667 50.2971 18.3854 49.68 20.4688 48.4457C22.6562 47.1086 25.3125 46.44 28.4375 46.44C32.1875 46.44 35.7812 47.9314 39.2188 50.9143C42.7604 53.8971 44.5312 58.1143 44.5312 63.5657C44.5312 68.5029 42.7083 72.6686 39.0625 76.0629C35.5208 79.3543 31.1458 81 25.9375 81C18.125 81 11.8229 78.1714 7.03125 72.5143C2.34375 66.7543 0 59.3486 0 50.2971C0 26.7429 14.8438 9.97714 44.5312 0Z" fill="#11B196"/>
</svg>
